G04 #@! TF.GenerationSoftware,KiCad,Pcbnew,(5.1.4)-1*
G04 #@! TF.CreationDate,2019-12-06T07:46:03+01:00*
G04 #@! TF.ProjectId,HM-LC-SW1-BA-PCB_mini_MAX1724,484d2d4c-432d-4535-9731-2d42412d5043,rev?*
G04 #@! TF.SameCoordinates,Original*
G04 #@! TF.FileFunction,Soldermask,Top*
G04 #@! TF.FilePolarity,Negative*
%FSLAX46Y46*%
G04 Gerber Fmt 4.6, Leading zero omitted, Abs format (unit mm)*
G04 Created by KiCad (PCBNEW (5.1.4)-1) date 2019-12-06 07:46:03*
%MOMM*%
%LPD*%
G04 APERTURE LIST*
%ADD10R,1.200000X1.600000*%
%ADD11O,2.100000X2.100000*%
%ADD12C,0.150000*%
%ADD13C,1.550000*%
%ADD14R,2.150000X2.200000*%
%ADD15C,1.825000*%
%ADD16R,3.400000X2.100000*%
%ADD17C,0.950000*%
%ADD18R,2.580000X2.000000*%
%ADD19R,1.700000X1.900000*%
%ADD20C,2.600000*%
%ADD21R,1.750000X1.750000*%
G04 APERTURE END LIST*
D10*
X176700000Y-92775000D03*
X175750000Y-90450000D03*
X177650000Y-90450000D03*
D11*
X171300000Y-118680000D03*
X171300000Y-116140000D03*
X171300000Y-113600000D03*
D12*
G36*
X176746199Y-109181575D02*
G01*
X176778909Y-109186427D01*
X176810985Y-109194461D01*
X176842119Y-109205601D01*
X176872012Y-109219739D01*
X176900375Y-109236739D01*
X176926935Y-109256437D01*
X176951436Y-109278644D01*
X177570924Y-109898132D01*
X177593131Y-109922633D01*
X177612829Y-109949193D01*
X177629829Y-109977556D01*
X177643967Y-110007449D01*
X177655107Y-110038583D01*
X177663141Y-110070659D01*
X177667993Y-110103369D01*
X177669616Y-110136396D01*
X177667993Y-110169423D01*
X177663141Y-110202133D01*
X177655107Y-110234209D01*
X177643967Y-110265343D01*
X177629829Y-110295236D01*
X177612829Y-110323599D01*
X177593131Y-110350159D01*
X177570924Y-110374660D01*
X176774660Y-111170924D01*
X176750159Y-111193131D01*
X176723599Y-111212829D01*
X176695236Y-111229829D01*
X176665343Y-111243967D01*
X176634209Y-111255107D01*
X176602133Y-111263141D01*
X176569423Y-111267993D01*
X176536396Y-111269616D01*
X176503369Y-111267993D01*
X176470659Y-111263141D01*
X176438583Y-111255107D01*
X176407449Y-111243967D01*
X176377556Y-111229829D01*
X176349193Y-111212829D01*
X176322633Y-111193131D01*
X176298132Y-111170924D01*
X175678644Y-110551436D01*
X175656437Y-110526935D01*
X175636739Y-110500375D01*
X175619739Y-110472012D01*
X175605601Y-110442119D01*
X175594461Y-110410985D01*
X175586427Y-110378909D01*
X175581575Y-110346199D01*
X175579952Y-110313172D01*
X175581575Y-110280145D01*
X175586427Y-110247435D01*
X175594461Y-110215359D01*
X175605601Y-110184225D01*
X175619739Y-110154332D01*
X175636739Y-110125969D01*
X175656437Y-110099409D01*
X175678644Y-110074908D01*
X176474908Y-109278644D01*
X176499409Y-109256437D01*
X176525969Y-109236739D01*
X176554332Y-109219739D01*
X176584225Y-109205601D01*
X176615359Y-109194461D01*
X176647435Y-109186427D01*
X176680145Y-109181575D01*
X176713172Y-109179952D01*
X176746199Y-109181575D01*
X176746199Y-109181575D01*
G37*
D13*
X176624784Y-110224784D03*
D12*
G36*
X175296631Y-107732007D02*
G01*
X175329341Y-107736859D01*
X175361417Y-107744893D01*
X175392551Y-107756033D01*
X175422444Y-107770171D01*
X175450807Y-107787171D01*
X175477367Y-107806869D01*
X175501868Y-107829076D01*
X176121356Y-108448564D01*
X176143563Y-108473065D01*
X176163261Y-108499625D01*
X176180261Y-108527988D01*
X176194399Y-108557881D01*
X176205539Y-108589015D01*
X176213573Y-108621091D01*
X176218425Y-108653801D01*
X176220048Y-108686828D01*
X176218425Y-108719855D01*
X176213573Y-108752565D01*
X176205539Y-108784641D01*
X176194399Y-108815775D01*
X176180261Y-108845668D01*
X176163261Y-108874031D01*
X176143563Y-108900591D01*
X176121356Y-108925092D01*
X175325092Y-109721356D01*
X175300591Y-109743563D01*
X175274031Y-109763261D01*
X175245668Y-109780261D01*
X175215775Y-109794399D01*
X175184641Y-109805539D01*
X175152565Y-109813573D01*
X175119855Y-109818425D01*
X175086828Y-109820048D01*
X175053801Y-109818425D01*
X175021091Y-109813573D01*
X174989015Y-109805539D01*
X174957881Y-109794399D01*
X174927988Y-109780261D01*
X174899625Y-109763261D01*
X174873065Y-109743563D01*
X174848564Y-109721356D01*
X174229076Y-109101868D01*
X174206869Y-109077367D01*
X174187171Y-109050807D01*
X174170171Y-109022444D01*
X174156033Y-108992551D01*
X174144893Y-108961417D01*
X174136859Y-108929341D01*
X174132007Y-108896631D01*
X174130384Y-108863604D01*
X174132007Y-108830577D01*
X174136859Y-108797867D01*
X174144893Y-108765791D01*
X174156033Y-108734657D01*
X174170171Y-108704764D01*
X174187171Y-108676401D01*
X174206869Y-108649841D01*
X174229076Y-108625340D01*
X175025340Y-107829076D01*
X175049841Y-107806869D01*
X175076401Y-107787171D01*
X175104764Y-107770171D01*
X175134657Y-107756033D01*
X175165791Y-107744893D01*
X175197867Y-107736859D01*
X175230577Y-107732007D01*
X175263604Y-107730384D01*
X175296631Y-107732007D01*
X175296631Y-107732007D01*
G37*
D13*
X175175216Y-108775216D03*
D12*
G36*
X187746199Y-99881575D02*
G01*
X187778909Y-99886427D01*
X187810985Y-99894461D01*
X187842119Y-99905601D01*
X187872012Y-99919739D01*
X187900375Y-99936739D01*
X187926935Y-99956437D01*
X187951436Y-99978644D01*
X188570924Y-100598132D01*
X188593131Y-100622633D01*
X188612829Y-100649193D01*
X188629829Y-100677556D01*
X188643967Y-100707449D01*
X188655107Y-100738583D01*
X188663141Y-100770659D01*
X188667993Y-100803369D01*
X188669616Y-100836396D01*
X188667993Y-100869423D01*
X188663141Y-100902133D01*
X188655107Y-100934209D01*
X188643967Y-100965343D01*
X188629829Y-100995236D01*
X188612829Y-101023599D01*
X188593131Y-101050159D01*
X188570924Y-101074660D01*
X187774660Y-101870924D01*
X187750159Y-101893131D01*
X187723599Y-101912829D01*
X187695236Y-101929829D01*
X187665343Y-101943967D01*
X187634209Y-101955107D01*
X187602133Y-101963141D01*
X187569423Y-101967993D01*
X187536396Y-101969616D01*
X187503369Y-101967993D01*
X187470659Y-101963141D01*
X187438583Y-101955107D01*
X187407449Y-101943967D01*
X187377556Y-101929829D01*
X187349193Y-101912829D01*
X187322633Y-101893131D01*
X187298132Y-101870924D01*
X186678644Y-101251436D01*
X186656437Y-101226935D01*
X186636739Y-101200375D01*
X186619739Y-101172012D01*
X186605601Y-101142119D01*
X186594461Y-101110985D01*
X186586427Y-101078909D01*
X186581575Y-101046199D01*
X186579952Y-101013172D01*
X186581575Y-100980145D01*
X186586427Y-100947435D01*
X186594461Y-100915359D01*
X186605601Y-100884225D01*
X186619739Y-100854332D01*
X186636739Y-100825969D01*
X186656437Y-100799409D01*
X186678644Y-100774908D01*
X187474908Y-99978644D01*
X187499409Y-99956437D01*
X187525969Y-99936739D01*
X187554332Y-99919739D01*
X187584225Y-99905601D01*
X187615359Y-99894461D01*
X187647435Y-99886427D01*
X187680145Y-99881575D01*
X187713172Y-99879952D01*
X187746199Y-99881575D01*
X187746199Y-99881575D01*
G37*
D13*
X187624784Y-100924784D03*
D12*
G36*
X186296631Y-98432007D02*
G01*
X186329341Y-98436859D01*
X186361417Y-98444893D01*
X186392551Y-98456033D01*
X186422444Y-98470171D01*
X186450807Y-98487171D01*
X186477367Y-98506869D01*
X186501868Y-98529076D01*
X187121356Y-99148564D01*
X187143563Y-99173065D01*
X187163261Y-99199625D01*
X187180261Y-99227988D01*
X187194399Y-99257881D01*
X187205539Y-99289015D01*
X187213573Y-99321091D01*
X187218425Y-99353801D01*
X187220048Y-99386828D01*
X187218425Y-99419855D01*
X187213573Y-99452565D01*
X187205539Y-99484641D01*
X187194399Y-99515775D01*
X187180261Y-99545668D01*
X187163261Y-99574031D01*
X187143563Y-99600591D01*
X187121356Y-99625092D01*
X186325092Y-100421356D01*
X186300591Y-100443563D01*
X186274031Y-100463261D01*
X186245668Y-100480261D01*
X186215775Y-100494399D01*
X186184641Y-100505539D01*
X186152565Y-100513573D01*
X186119855Y-100518425D01*
X186086828Y-100520048D01*
X186053801Y-100518425D01*
X186021091Y-100513573D01*
X185989015Y-100505539D01*
X185957881Y-100494399D01*
X185927988Y-100480261D01*
X185899625Y-100463261D01*
X185873065Y-100443563D01*
X185848564Y-100421356D01*
X185229076Y-99801868D01*
X185206869Y-99777367D01*
X185187171Y-99750807D01*
X185170171Y-99722444D01*
X185156033Y-99692551D01*
X185144893Y-99661417D01*
X185136859Y-99629341D01*
X185132007Y-99596631D01*
X185130384Y-99563604D01*
X185132007Y-99530577D01*
X185136859Y-99497867D01*
X185144893Y-99465791D01*
X185156033Y-99434657D01*
X185170171Y-99404764D01*
X185187171Y-99376401D01*
X185206869Y-99349841D01*
X185229076Y-99325340D01*
X186025340Y-98529076D01*
X186049841Y-98506869D01*
X186076401Y-98487171D01*
X186104764Y-98470171D01*
X186134657Y-98456033D01*
X186165791Y-98444893D01*
X186197867Y-98436859D01*
X186230577Y-98432007D01*
X186263604Y-98430384D01*
X186296631Y-98432007D01*
X186296631Y-98432007D01*
G37*
D13*
X186175216Y-99475216D03*
D12*
G36*
X182296071Y-93851623D02*
G01*
X182328781Y-93856475D01*
X182360857Y-93864509D01*
X182391991Y-93875649D01*
X182421884Y-93889787D01*
X182450247Y-93906787D01*
X182476807Y-93926485D01*
X182501308Y-93948692D01*
X182523515Y-93973193D01*
X182543213Y-93999753D01*
X182560213Y-94028116D01*
X182574351Y-94058009D01*
X182585491Y-94089143D01*
X182593525Y-94121219D01*
X182598377Y-94153929D01*
X182600000Y-94186956D01*
X182600000Y-95313044D01*
X182598377Y-95346071D01*
X182593525Y-95378781D01*
X182585491Y-95410857D01*
X182574351Y-95441991D01*
X182560213Y-95471884D01*
X182543213Y-95500247D01*
X182523515Y-95526807D01*
X182501308Y-95551308D01*
X182476807Y-95573515D01*
X182450247Y-95593213D01*
X182421884Y-95610213D01*
X182391991Y-95624351D01*
X182360857Y-95635491D01*
X182328781Y-95643525D01*
X182296071Y-95648377D01*
X182263044Y-95650000D01*
X181386956Y-95650000D01*
X181353929Y-95648377D01*
X181321219Y-95643525D01*
X181289143Y-95635491D01*
X181258009Y-95624351D01*
X181228116Y-95610213D01*
X181199753Y-95593213D01*
X181173193Y-95573515D01*
X181148692Y-95551308D01*
X181126485Y-95526807D01*
X181106787Y-95500247D01*
X181089787Y-95471884D01*
X181075649Y-95441991D01*
X181064509Y-95410857D01*
X181056475Y-95378781D01*
X181051623Y-95346071D01*
X181050000Y-95313044D01*
X181050000Y-94186956D01*
X181051623Y-94153929D01*
X181056475Y-94121219D01*
X181064509Y-94089143D01*
X181075649Y-94058009D01*
X181089787Y-94028116D01*
X181106787Y-93999753D01*
X181126485Y-93973193D01*
X181148692Y-93948692D01*
X181173193Y-93926485D01*
X181199753Y-93906787D01*
X181228116Y-93889787D01*
X181258009Y-93875649D01*
X181289143Y-93864509D01*
X181321219Y-93856475D01*
X181353929Y-93851623D01*
X181386956Y-93850000D01*
X182263044Y-93850000D01*
X182296071Y-93851623D01*
X182296071Y-93851623D01*
G37*
D13*
X181825000Y-94750000D03*
D12*
G36*
X180246071Y-93851623D02*
G01*
X180278781Y-93856475D01*
X180310857Y-93864509D01*
X180341991Y-93875649D01*
X180371884Y-93889787D01*
X180400247Y-93906787D01*
X180426807Y-93926485D01*
X180451308Y-93948692D01*
X180473515Y-93973193D01*
X180493213Y-93999753D01*
X180510213Y-94028116D01*
X180524351Y-94058009D01*
X180535491Y-94089143D01*
X180543525Y-94121219D01*
X180548377Y-94153929D01*
X180550000Y-94186956D01*
X180550000Y-95313044D01*
X180548377Y-95346071D01*
X180543525Y-95378781D01*
X180535491Y-95410857D01*
X180524351Y-95441991D01*
X180510213Y-95471884D01*
X180493213Y-95500247D01*
X180473515Y-95526807D01*
X180451308Y-95551308D01*
X180426807Y-95573515D01*
X180400247Y-95593213D01*
X180371884Y-95610213D01*
X180341991Y-95624351D01*
X180310857Y-95635491D01*
X180278781Y-95643525D01*
X180246071Y-95648377D01*
X180213044Y-95650000D01*
X179336956Y-95650000D01*
X179303929Y-95648377D01*
X179271219Y-95643525D01*
X179239143Y-95635491D01*
X179208009Y-95624351D01*
X179178116Y-95610213D01*
X179149753Y-95593213D01*
X179123193Y-95573515D01*
X179098692Y-95551308D01*
X179076485Y-95526807D01*
X179056787Y-95500247D01*
X179039787Y-95471884D01*
X179025649Y-95441991D01*
X179014509Y-95410857D01*
X179006475Y-95378781D01*
X179001623Y-95346071D01*
X179000000Y-95313044D01*
X179000000Y-94186956D01*
X179001623Y-94153929D01*
X179006475Y-94121219D01*
X179014509Y-94089143D01*
X179025649Y-94058009D01*
X179039787Y-94028116D01*
X179056787Y-93999753D01*
X179076485Y-93973193D01*
X179098692Y-93948692D01*
X179123193Y-93926485D01*
X179149753Y-93906787D01*
X179178116Y-93889787D01*
X179208009Y-93875649D01*
X179239143Y-93864509D01*
X179271219Y-93856475D01*
X179303929Y-93851623D01*
X179336956Y-93850000D01*
X180213044Y-93850000D01*
X180246071Y-93851623D01*
X180246071Y-93851623D01*
G37*
D13*
X179775000Y-94750000D03*
D14*
X179775000Y-97200000D03*
X183025000Y-97200000D03*
D12*
G36*
X188296071Y-96001623D02*
G01*
X188328781Y-96006475D01*
X188360857Y-96014509D01*
X188391991Y-96025649D01*
X188421884Y-96039787D01*
X188450247Y-96056787D01*
X188476807Y-96076485D01*
X188501308Y-96098692D01*
X188523515Y-96123193D01*
X188543213Y-96149753D01*
X188560213Y-96178116D01*
X188574351Y-96208009D01*
X188585491Y-96239143D01*
X188593525Y-96271219D01*
X188598377Y-96303929D01*
X188600000Y-96336956D01*
X188600000Y-97463044D01*
X188598377Y-97496071D01*
X188593525Y-97528781D01*
X188585491Y-97560857D01*
X188574351Y-97591991D01*
X188560213Y-97621884D01*
X188543213Y-97650247D01*
X188523515Y-97676807D01*
X188501308Y-97701308D01*
X188476807Y-97723515D01*
X188450247Y-97743213D01*
X188421884Y-97760213D01*
X188391991Y-97774351D01*
X188360857Y-97785491D01*
X188328781Y-97793525D01*
X188296071Y-97798377D01*
X188263044Y-97800000D01*
X187386956Y-97800000D01*
X187353929Y-97798377D01*
X187321219Y-97793525D01*
X187289143Y-97785491D01*
X187258009Y-97774351D01*
X187228116Y-97760213D01*
X187199753Y-97743213D01*
X187173193Y-97723515D01*
X187148692Y-97701308D01*
X187126485Y-97676807D01*
X187106787Y-97650247D01*
X187089787Y-97621884D01*
X187075649Y-97591991D01*
X187064509Y-97560857D01*
X187056475Y-97528781D01*
X187051623Y-97496071D01*
X187050000Y-97463044D01*
X187050000Y-96336956D01*
X187051623Y-96303929D01*
X187056475Y-96271219D01*
X187064509Y-96239143D01*
X187075649Y-96208009D01*
X187089787Y-96178116D01*
X187106787Y-96149753D01*
X187126485Y-96123193D01*
X187148692Y-96098692D01*
X187173193Y-96076485D01*
X187199753Y-96056787D01*
X187228116Y-96039787D01*
X187258009Y-96025649D01*
X187289143Y-96014509D01*
X187321219Y-96006475D01*
X187353929Y-96001623D01*
X187386956Y-96000000D01*
X188263044Y-96000000D01*
X188296071Y-96001623D01*
X188296071Y-96001623D01*
G37*
D13*
X187825000Y-96900000D03*
D12*
G36*
X186246071Y-96001623D02*
G01*
X186278781Y-96006475D01*
X186310857Y-96014509D01*
X186341991Y-96025649D01*
X186371884Y-96039787D01*
X186400247Y-96056787D01*
X186426807Y-96076485D01*
X186451308Y-96098692D01*
X186473515Y-96123193D01*
X186493213Y-96149753D01*
X186510213Y-96178116D01*
X186524351Y-96208009D01*
X186535491Y-96239143D01*
X186543525Y-96271219D01*
X186548377Y-96303929D01*
X186550000Y-96336956D01*
X186550000Y-97463044D01*
X186548377Y-97496071D01*
X186543525Y-97528781D01*
X186535491Y-97560857D01*
X186524351Y-97591991D01*
X186510213Y-97621884D01*
X186493213Y-97650247D01*
X186473515Y-97676807D01*
X186451308Y-97701308D01*
X186426807Y-97723515D01*
X186400247Y-97743213D01*
X186371884Y-97760213D01*
X186341991Y-97774351D01*
X186310857Y-97785491D01*
X186278781Y-97793525D01*
X186246071Y-97798377D01*
X186213044Y-97800000D01*
X185336956Y-97800000D01*
X185303929Y-97798377D01*
X185271219Y-97793525D01*
X185239143Y-97785491D01*
X185208009Y-97774351D01*
X185178116Y-97760213D01*
X185149753Y-97743213D01*
X185123193Y-97723515D01*
X185098692Y-97701308D01*
X185076485Y-97676807D01*
X185056787Y-97650247D01*
X185039787Y-97621884D01*
X185025649Y-97591991D01*
X185014509Y-97560857D01*
X185006475Y-97528781D01*
X185001623Y-97496071D01*
X185000000Y-97463044D01*
X185000000Y-96336956D01*
X185001623Y-96303929D01*
X185006475Y-96271219D01*
X185014509Y-96239143D01*
X185025649Y-96208009D01*
X185039787Y-96178116D01*
X185056787Y-96149753D01*
X185076485Y-96123193D01*
X185098692Y-96098692D01*
X185123193Y-96076485D01*
X185149753Y-96056787D01*
X185178116Y-96039787D01*
X185208009Y-96025649D01*
X185239143Y-96014509D01*
X185271219Y-96006475D01*
X185303929Y-96001623D01*
X185336956Y-96000000D01*
X186213044Y-96000000D01*
X186246071Y-96001623D01*
X186246071Y-96001623D01*
G37*
D13*
X185775000Y-96900000D03*
D11*
X188658500Y-118681500D03*
X188658500Y-116141500D03*
X188658500Y-113601500D03*
D12*
G36*
X180246071Y-89401623D02*
G01*
X180278781Y-89406475D01*
X180310857Y-89414509D01*
X180341991Y-89425649D01*
X180371884Y-89439787D01*
X180400247Y-89456787D01*
X180426807Y-89476485D01*
X180451308Y-89498692D01*
X180473515Y-89523193D01*
X180493213Y-89549753D01*
X180510213Y-89578116D01*
X180524351Y-89608009D01*
X180535491Y-89639143D01*
X180543525Y-89671219D01*
X180548377Y-89703929D01*
X180550000Y-89736956D01*
X180550000Y-90863044D01*
X180548377Y-90896071D01*
X180543525Y-90928781D01*
X180535491Y-90960857D01*
X180524351Y-90991991D01*
X180510213Y-91021884D01*
X180493213Y-91050247D01*
X180473515Y-91076807D01*
X180451308Y-91101308D01*
X180426807Y-91123515D01*
X180400247Y-91143213D01*
X180371884Y-91160213D01*
X180341991Y-91174351D01*
X180310857Y-91185491D01*
X180278781Y-91193525D01*
X180246071Y-91198377D01*
X180213044Y-91200000D01*
X179336956Y-91200000D01*
X179303929Y-91198377D01*
X179271219Y-91193525D01*
X179239143Y-91185491D01*
X179208009Y-91174351D01*
X179178116Y-91160213D01*
X179149753Y-91143213D01*
X179123193Y-91123515D01*
X179098692Y-91101308D01*
X179076485Y-91076807D01*
X179056787Y-91050247D01*
X179039787Y-91021884D01*
X179025649Y-90991991D01*
X179014509Y-90960857D01*
X179006475Y-90928781D01*
X179001623Y-90896071D01*
X179000000Y-90863044D01*
X179000000Y-89736956D01*
X179001623Y-89703929D01*
X179006475Y-89671219D01*
X179014509Y-89639143D01*
X179025649Y-89608009D01*
X179039787Y-89578116D01*
X179056787Y-89549753D01*
X179076485Y-89523193D01*
X179098692Y-89498692D01*
X179123193Y-89476485D01*
X179149753Y-89456787D01*
X179178116Y-89439787D01*
X179208009Y-89425649D01*
X179239143Y-89414509D01*
X179271219Y-89406475D01*
X179303929Y-89401623D01*
X179336956Y-89400000D01*
X180213044Y-89400000D01*
X180246071Y-89401623D01*
X180246071Y-89401623D01*
G37*
D13*
X179775000Y-90300000D03*
D12*
G36*
X182296071Y-89401623D02*
G01*
X182328781Y-89406475D01*
X182360857Y-89414509D01*
X182391991Y-89425649D01*
X182421884Y-89439787D01*
X182450247Y-89456787D01*
X182476807Y-89476485D01*
X182501308Y-89498692D01*
X182523515Y-89523193D01*
X182543213Y-89549753D01*
X182560213Y-89578116D01*
X182574351Y-89608009D01*
X182585491Y-89639143D01*
X182593525Y-89671219D01*
X182598377Y-89703929D01*
X182600000Y-89736956D01*
X182600000Y-90863044D01*
X182598377Y-90896071D01*
X182593525Y-90928781D01*
X182585491Y-90960857D01*
X182574351Y-90991991D01*
X182560213Y-91021884D01*
X182543213Y-91050247D01*
X182523515Y-91076807D01*
X182501308Y-91101308D01*
X182476807Y-91123515D01*
X182450247Y-91143213D01*
X182421884Y-91160213D01*
X182391991Y-91174351D01*
X182360857Y-91185491D01*
X182328781Y-91193525D01*
X182296071Y-91198377D01*
X182263044Y-91200000D01*
X181386956Y-91200000D01*
X181353929Y-91198377D01*
X181321219Y-91193525D01*
X181289143Y-91185491D01*
X181258009Y-91174351D01*
X181228116Y-91160213D01*
X181199753Y-91143213D01*
X181173193Y-91123515D01*
X181148692Y-91101308D01*
X181126485Y-91076807D01*
X181106787Y-91050247D01*
X181089787Y-91021884D01*
X181075649Y-90991991D01*
X181064509Y-90960857D01*
X181056475Y-90928781D01*
X181051623Y-90896071D01*
X181050000Y-90863044D01*
X181050000Y-89736956D01*
X181051623Y-89703929D01*
X181056475Y-89671219D01*
X181064509Y-89639143D01*
X181075649Y-89608009D01*
X181089787Y-89578116D01*
X181106787Y-89549753D01*
X181126485Y-89523193D01*
X181148692Y-89498692D01*
X181173193Y-89476485D01*
X181199753Y-89456787D01*
X181228116Y-89439787D01*
X181258009Y-89425649D01*
X181289143Y-89414509D01*
X181321219Y-89406475D01*
X181353929Y-89401623D01*
X181386956Y-89400000D01*
X182263044Y-89400000D01*
X182296071Y-89401623D01*
X182296071Y-89401623D01*
G37*
D13*
X181825000Y-90300000D03*
D12*
G36*
X182296071Y-91476623D02*
G01*
X182328781Y-91481475D01*
X182360857Y-91489509D01*
X182391991Y-91500649D01*
X182421884Y-91514787D01*
X182450247Y-91531787D01*
X182476807Y-91551485D01*
X182501308Y-91573692D01*
X182523515Y-91598193D01*
X182543213Y-91624753D01*
X182560213Y-91653116D01*
X182574351Y-91683009D01*
X182585491Y-91714143D01*
X182593525Y-91746219D01*
X182598377Y-91778929D01*
X182600000Y-91811956D01*
X182600000Y-92938044D01*
X182598377Y-92971071D01*
X182593525Y-93003781D01*
X182585491Y-93035857D01*
X182574351Y-93066991D01*
X182560213Y-93096884D01*
X182543213Y-93125247D01*
X182523515Y-93151807D01*
X182501308Y-93176308D01*
X182476807Y-93198515D01*
X182450247Y-93218213D01*
X182421884Y-93235213D01*
X182391991Y-93249351D01*
X182360857Y-93260491D01*
X182328781Y-93268525D01*
X182296071Y-93273377D01*
X182263044Y-93275000D01*
X181386956Y-93275000D01*
X181353929Y-93273377D01*
X181321219Y-93268525D01*
X181289143Y-93260491D01*
X181258009Y-93249351D01*
X181228116Y-93235213D01*
X181199753Y-93218213D01*
X181173193Y-93198515D01*
X181148692Y-93176308D01*
X181126485Y-93151807D01*
X181106787Y-93125247D01*
X181089787Y-93096884D01*
X181075649Y-93066991D01*
X181064509Y-93035857D01*
X181056475Y-93003781D01*
X181051623Y-92971071D01*
X181050000Y-92938044D01*
X181050000Y-91811956D01*
X181051623Y-91778929D01*
X181056475Y-91746219D01*
X181064509Y-91714143D01*
X181075649Y-91683009D01*
X181089787Y-91653116D01*
X181106787Y-91624753D01*
X181126485Y-91598193D01*
X181148692Y-91573692D01*
X181173193Y-91551485D01*
X181199753Y-91531787D01*
X181228116Y-91514787D01*
X181258009Y-91500649D01*
X181289143Y-91489509D01*
X181321219Y-91481475D01*
X181353929Y-91476623D01*
X181386956Y-91475000D01*
X182263044Y-91475000D01*
X182296071Y-91476623D01*
X182296071Y-91476623D01*
G37*
D13*
X181825000Y-92375000D03*
D12*
G36*
X180246071Y-91476623D02*
G01*
X180278781Y-91481475D01*
X180310857Y-91489509D01*
X180341991Y-91500649D01*
X180371884Y-91514787D01*
X180400247Y-91531787D01*
X180426807Y-91551485D01*
X180451308Y-91573692D01*
X180473515Y-91598193D01*
X180493213Y-91624753D01*
X180510213Y-91653116D01*
X180524351Y-91683009D01*
X180535491Y-91714143D01*
X180543525Y-91746219D01*
X180548377Y-91778929D01*
X180550000Y-91811956D01*
X180550000Y-92938044D01*
X180548377Y-92971071D01*
X180543525Y-93003781D01*
X180535491Y-93035857D01*
X180524351Y-93066991D01*
X180510213Y-93096884D01*
X180493213Y-93125247D01*
X180473515Y-93151807D01*
X180451308Y-93176308D01*
X180426807Y-93198515D01*
X180400247Y-93218213D01*
X180371884Y-93235213D01*
X180341991Y-93249351D01*
X180310857Y-93260491D01*
X180278781Y-93268525D01*
X180246071Y-93273377D01*
X180213044Y-93275000D01*
X179336956Y-93275000D01*
X179303929Y-93273377D01*
X179271219Y-93268525D01*
X179239143Y-93260491D01*
X179208009Y-93249351D01*
X179178116Y-93235213D01*
X179149753Y-93218213D01*
X179123193Y-93198515D01*
X179098692Y-93176308D01*
X179076485Y-93151807D01*
X179056787Y-93125247D01*
X179039787Y-93096884D01*
X179025649Y-93066991D01*
X179014509Y-93035857D01*
X179006475Y-93003781D01*
X179001623Y-92971071D01*
X179000000Y-92938044D01*
X179000000Y-91811956D01*
X179001623Y-91778929D01*
X179006475Y-91746219D01*
X179014509Y-91714143D01*
X179025649Y-91683009D01*
X179039787Y-91653116D01*
X179056787Y-91624753D01*
X179076485Y-91598193D01*
X179098692Y-91573692D01*
X179123193Y-91551485D01*
X179149753Y-91531787D01*
X179178116Y-91514787D01*
X179208009Y-91500649D01*
X179239143Y-91489509D01*
X179271219Y-91481475D01*
X179303929Y-91476623D01*
X179336956Y-91475000D01*
X180213044Y-91475000D01*
X180246071Y-91476623D01*
X180246071Y-91476623D01*
G37*
D13*
X179775000Y-92375000D03*
D12*
G36*
X187996071Y-91301623D02*
G01*
X188028781Y-91306475D01*
X188060857Y-91314509D01*
X188091991Y-91325649D01*
X188121884Y-91339787D01*
X188150247Y-91356787D01*
X188176807Y-91376485D01*
X188201308Y-91398692D01*
X188223515Y-91423193D01*
X188243213Y-91449753D01*
X188260213Y-91478116D01*
X188274351Y-91508009D01*
X188285491Y-91539143D01*
X188293525Y-91571219D01*
X188298377Y-91603929D01*
X188300000Y-91636956D01*
X188300000Y-92763044D01*
X188298377Y-92796071D01*
X188293525Y-92828781D01*
X188285491Y-92860857D01*
X188274351Y-92891991D01*
X188260213Y-92921884D01*
X188243213Y-92950247D01*
X188223515Y-92976807D01*
X188201308Y-93001308D01*
X188176807Y-93023515D01*
X188150247Y-93043213D01*
X188121884Y-93060213D01*
X188091991Y-93074351D01*
X188060857Y-93085491D01*
X188028781Y-93093525D01*
X187996071Y-93098377D01*
X187963044Y-93100000D01*
X187086956Y-93100000D01*
X187053929Y-93098377D01*
X187021219Y-93093525D01*
X186989143Y-93085491D01*
X186958009Y-93074351D01*
X186928116Y-93060213D01*
X186899753Y-93043213D01*
X186873193Y-93023515D01*
X186848692Y-93001308D01*
X186826485Y-92976807D01*
X186806787Y-92950247D01*
X186789787Y-92921884D01*
X186775649Y-92891991D01*
X186764509Y-92860857D01*
X186756475Y-92828781D01*
X186751623Y-92796071D01*
X186750000Y-92763044D01*
X186750000Y-91636956D01*
X186751623Y-91603929D01*
X186756475Y-91571219D01*
X186764509Y-91539143D01*
X186775649Y-91508009D01*
X186789787Y-91478116D01*
X186806787Y-91449753D01*
X186826485Y-91423193D01*
X186848692Y-91398692D01*
X186873193Y-91376485D01*
X186899753Y-91356787D01*
X186928116Y-91339787D01*
X186958009Y-91325649D01*
X186989143Y-91314509D01*
X187021219Y-91306475D01*
X187053929Y-91301623D01*
X187086956Y-91300000D01*
X187963044Y-91300000D01*
X187996071Y-91301623D01*
X187996071Y-91301623D01*
G37*
D13*
X187525000Y-92200000D03*
D12*
G36*
X185946071Y-91301623D02*
G01*
X185978781Y-91306475D01*
X186010857Y-91314509D01*
X186041991Y-91325649D01*
X186071884Y-91339787D01*
X186100247Y-91356787D01*
X186126807Y-91376485D01*
X186151308Y-91398692D01*
X186173515Y-91423193D01*
X186193213Y-91449753D01*
X186210213Y-91478116D01*
X186224351Y-91508009D01*
X186235491Y-91539143D01*
X186243525Y-91571219D01*
X186248377Y-91603929D01*
X186250000Y-91636956D01*
X186250000Y-92763044D01*
X186248377Y-92796071D01*
X186243525Y-92828781D01*
X186235491Y-92860857D01*
X186224351Y-92891991D01*
X186210213Y-92921884D01*
X186193213Y-92950247D01*
X186173515Y-92976807D01*
X186151308Y-93001308D01*
X186126807Y-93023515D01*
X186100247Y-93043213D01*
X186071884Y-93060213D01*
X186041991Y-93074351D01*
X186010857Y-93085491D01*
X185978781Y-93093525D01*
X185946071Y-93098377D01*
X185913044Y-93100000D01*
X185036956Y-93100000D01*
X185003929Y-93098377D01*
X184971219Y-93093525D01*
X184939143Y-93085491D01*
X184908009Y-93074351D01*
X184878116Y-93060213D01*
X184849753Y-93043213D01*
X184823193Y-93023515D01*
X184798692Y-93001308D01*
X184776485Y-92976807D01*
X184756787Y-92950247D01*
X184739787Y-92921884D01*
X184725649Y-92891991D01*
X184714509Y-92860857D01*
X184706475Y-92828781D01*
X184701623Y-92796071D01*
X184700000Y-92763044D01*
X184700000Y-91636956D01*
X184701623Y-91603929D01*
X184706475Y-91571219D01*
X184714509Y-91539143D01*
X184725649Y-91508009D01*
X184739787Y-91478116D01*
X184756787Y-91449753D01*
X184776485Y-91423193D01*
X184798692Y-91398692D01*
X184823193Y-91376485D01*
X184849753Y-91356787D01*
X184878116Y-91339787D01*
X184908009Y-91325649D01*
X184939143Y-91314509D01*
X184971219Y-91306475D01*
X185003929Y-91301623D01*
X185036956Y-91300000D01*
X185913044Y-91300000D01*
X185946071Y-91301623D01*
X185946071Y-91301623D01*
G37*
D13*
X185475000Y-92200000D03*
D12*
G36*
X186236207Y-88826542D02*
G01*
X186267287Y-88831152D01*
X186297766Y-88838787D01*
X186327350Y-88849372D01*
X186355754Y-88862806D01*
X186382704Y-88878959D01*
X186407942Y-88897677D01*
X186431223Y-88918777D01*
X186452323Y-88942058D01*
X186471041Y-88967296D01*
X186487194Y-88994246D01*
X186500628Y-89022650D01*
X186511213Y-89052234D01*
X186518848Y-89082713D01*
X186523458Y-89113793D01*
X186525000Y-89145176D01*
X186525000Y-90654824D01*
X186523458Y-90686207D01*
X186518848Y-90717287D01*
X186511213Y-90747766D01*
X186500628Y-90777350D01*
X186487194Y-90805754D01*
X186471041Y-90832704D01*
X186452323Y-90857942D01*
X186431223Y-90881223D01*
X186407942Y-90902323D01*
X186382704Y-90921041D01*
X186355754Y-90937194D01*
X186327350Y-90950628D01*
X186297766Y-90961213D01*
X186267287Y-90968848D01*
X186236207Y-90973458D01*
X186204824Y-90975000D01*
X185020176Y-90975000D01*
X184988793Y-90973458D01*
X184957713Y-90968848D01*
X184927234Y-90961213D01*
X184897650Y-90950628D01*
X184869246Y-90937194D01*
X184842296Y-90921041D01*
X184817058Y-90902323D01*
X184793777Y-90881223D01*
X184772677Y-90857942D01*
X184753959Y-90832704D01*
X184737806Y-90805754D01*
X184724372Y-90777350D01*
X184713787Y-90747766D01*
X184706152Y-90717287D01*
X184701542Y-90686207D01*
X184700000Y-90654824D01*
X184700000Y-89145176D01*
X184701542Y-89113793D01*
X184706152Y-89082713D01*
X184713787Y-89052234D01*
X184724372Y-89022650D01*
X184737806Y-88994246D01*
X184753959Y-88967296D01*
X184772677Y-88942058D01*
X184793777Y-88918777D01*
X184817058Y-88897677D01*
X184842296Y-88878959D01*
X184869246Y-88862806D01*
X184897650Y-88849372D01*
X184927234Y-88838787D01*
X184957713Y-88831152D01*
X184988793Y-88826542D01*
X185020176Y-88825000D01*
X186204824Y-88825000D01*
X186236207Y-88826542D01*
X186236207Y-88826542D01*
G37*
D15*
X185612500Y-89900000D03*
D12*
G36*
X189211207Y-88826542D02*
G01*
X189242287Y-88831152D01*
X189272766Y-88838787D01*
X189302350Y-88849372D01*
X189330754Y-88862806D01*
X189357704Y-88878959D01*
X189382942Y-88897677D01*
X189406223Y-88918777D01*
X189427323Y-88942058D01*
X189446041Y-88967296D01*
X189462194Y-88994246D01*
X189475628Y-89022650D01*
X189486213Y-89052234D01*
X189493848Y-89082713D01*
X189498458Y-89113793D01*
X189500000Y-89145176D01*
X189500000Y-90654824D01*
X189498458Y-90686207D01*
X189493848Y-90717287D01*
X189486213Y-90747766D01*
X189475628Y-90777350D01*
X189462194Y-90805754D01*
X189446041Y-90832704D01*
X189427323Y-90857942D01*
X189406223Y-90881223D01*
X189382942Y-90902323D01*
X189357704Y-90921041D01*
X189330754Y-90937194D01*
X189302350Y-90950628D01*
X189272766Y-90961213D01*
X189242287Y-90968848D01*
X189211207Y-90973458D01*
X189179824Y-90975000D01*
X187995176Y-90975000D01*
X187963793Y-90973458D01*
X187932713Y-90968848D01*
X187902234Y-90961213D01*
X187872650Y-90950628D01*
X187844246Y-90937194D01*
X187817296Y-90921041D01*
X187792058Y-90902323D01*
X187768777Y-90881223D01*
X187747677Y-90857942D01*
X187728959Y-90832704D01*
X187712806Y-90805754D01*
X187699372Y-90777350D01*
X187688787Y-90747766D01*
X187681152Y-90717287D01*
X187676542Y-90686207D01*
X187675000Y-90654824D01*
X187675000Y-89145176D01*
X187676542Y-89113793D01*
X187681152Y-89082713D01*
X187688787Y-89052234D01*
X187699372Y-89022650D01*
X187712806Y-88994246D01*
X187728959Y-88967296D01*
X187747677Y-88942058D01*
X187768777Y-88918777D01*
X187792058Y-88897677D01*
X187817296Y-88878959D01*
X187844246Y-88862806D01*
X187872650Y-88849372D01*
X187902234Y-88838787D01*
X187932713Y-88831152D01*
X187963793Y-88826542D01*
X187995176Y-88825000D01*
X189179824Y-88825000D01*
X189211207Y-88826542D01*
X189211207Y-88826542D01*
G37*
D15*
X188587500Y-89900000D03*
D16*
X171410500Y-89281000D03*
X171410500Y-94361000D03*
X171410500Y-99441000D03*
X171386500Y-91821000D03*
X171386500Y-96901000D03*
D17*
X186277603Y-103686195D03*
D12*
G36*
X186648834Y-102643212D02*
G01*
X187320586Y-103314964D01*
X185906372Y-104729178D01*
X185234620Y-104057426D01*
X186648834Y-102643212D01*
X186648834Y-102643212D01*
G37*
D17*
X185711917Y-103120510D03*
D12*
G36*
X186083148Y-102077527D02*
G01*
X186754900Y-102749279D01*
X185340686Y-104163493D01*
X184668934Y-103491741D01*
X186083148Y-102077527D01*
X186083148Y-102077527D01*
G37*
D17*
X185146232Y-102554824D03*
D12*
G36*
X185517463Y-101511841D02*
G01*
X186189215Y-102183593D01*
X184775001Y-103597807D01*
X184103249Y-102926055D01*
X185517463Y-101511841D01*
X185517463Y-101511841D01*
G37*
D17*
X184580547Y-101989139D03*
D12*
G36*
X184951778Y-100946156D02*
G01*
X185623530Y-101617908D01*
X184209316Y-103032122D01*
X183537564Y-102360370D01*
X184951778Y-100946156D01*
X184951778Y-100946156D01*
G37*
D17*
X184014861Y-101423453D03*
D12*
G36*
X184386092Y-100380470D02*
G01*
X185057844Y-101052222D01*
X183643630Y-102466436D01*
X182971878Y-101794684D01*
X184386092Y-100380470D01*
X184386092Y-100380470D01*
G37*
D17*
X183449176Y-100857768D03*
D12*
G36*
X183820407Y-99814785D02*
G01*
X184492159Y-100486537D01*
X183077945Y-101900751D01*
X182406193Y-101228999D01*
X183820407Y-99814785D01*
X183820407Y-99814785D01*
G37*
D17*
X182883490Y-100292083D03*
D12*
G36*
X183254721Y-99249100D02*
G01*
X183926473Y-99920852D01*
X182512259Y-101335066D01*
X181840507Y-100663314D01*
X183254721Y-99249100D01*
X183254721Y-99249100D01*
G37*
D17*
X182317805Y-99726397D03*
D12*
G36*
X182689036Y-98683414D02*
G01*
X183360788Y-99355166D01*
X181946574Y-100769380D01*
X181274822Y-100097628D01*
X182689036Y-98683414D01*
X182689036Y-98683414D01*
G37*
D17*
X180267195Y-99726397D03*
D12*
G36*
X179224212Y-99355166D02*
G01*
X179895964Y-98683414D01*
X181310178Y-100097628D01*
X180638426Y-100769380D01*
X179224212Y-99355166D01*
X179224212Y-99355166D01*
G37*
D17*
X179701510Y-100292083D03*
D12*
G36*
X178658527Y-99920852D02*
G01*
X179330279Y-99249100D01*
X180744493Y-100663314D01*
X180072741Y-101335066D01*
X178658527Y-99920852D01*
X178658527Y-99920852D01*
G37*
D17*
X179135824Y-100857768D03*
D12*
G36*
X178092841Y-100486537D02*
G01*
X178764593Y-99814785D01*
X180178807Y-101228999D01*
X179507055Y-101900751D01*
X178092841Y-100486537D01*
X178092841Y-100486537D01*
G37*
D17*
X178570139Y-101423453D03*
D12*
G36*
X177527156Y-101052222D02*
G01*
X178198908Y-100380470D01*
X179613122Y-101794684D01*
X178941370Y-102466436D01*
X177527156Y-101052222D01*
X177527156Y-101052222D01*
G37*
D17*
X178004453Y-101989139D03*
D12*
G36*
X176961470Y-101617908D02*
G01*
X177633222Y-100946156D01*
X179047436Y-102360370D01*
X178375684Y-103032122D01*
X176961470Y-101617908D01*
X176961470Y-101617908D01*
G37*
D17*
X177438768Y-102554824D03*
D12*
G36*
X176395785Y-102183593D02*
G01*
X177067537Y-101511841D01*
X178481751Y-102926055D01*
X177809999Y-103597807D01*
X176395785Y-102183593D01*
X176395785Y-102183593D01*
G37*
D17*
X176873083Y-103120510D03*
D12*
G36*
X175830100Y-102749279D02*
G01*
X176501852Y-102077527D01*
X177916066Y-103491741D01*
X177244314Y-104163493D01*
X175830100Y-102749279D01*
X175830100Y-102749279D01*
G37*
D17*
X176307397Y-103686195D03*
D12*
G36*
X175264414Y-103314964D02*
G01*
X175936166Y-102643212D01*
X177350380Y-104057426D01*
X176678628Y-104729178D01*
X175264414Y-103314964D01*
X175264414Y-103314964D01*
G37*
D17*
X176307397Y-105736805D03*
D12*
G36*
X176678628Y-104693822D02*
G01*
X177350380Y-105365574D01*
X175936166Y-106779788D01*
X175264414Y-106108036D01*
X176678628Y-104693822D01*
X176678628Y-104693822D01*
G37*
D17*
X176873083Y-106302490D03*
D12*
G36*
X177244314Y-105259507D02*
G01*
X177916066Y-105931259D01*
X176501852Y-107345473D01*
X175830100Y-106673721D01*
X177244314Y-105259507D01*
X177244314Y-105259507D01*
G37*
D17*
X177438768Y-106868176D03*
D12*
G36*
X177809999Y-105825193D02*
G01*
X178481751Y-106496945D01*
X177067537Y-107911159D01*
X176395785Y-107239407D01*
X177809999Y-105825193D01*
X177809999Y-105825193D01*
G37*
D17*
X178004453Y-107433861D03*
D12*
G36*
X178375684Y-106390878D02*
G01*
X179047436Y-107062630D01*
X177633222Y-108476844D01*
X176961470Y-107805092D01*
X178375684Y-106390878D01*
X178375684Y-106390878D01*
G37*
D17*
X178570139Y-107999547D03*
D12*
G36*
X178941370Y-106956564D02*
G01*
X179613122Y-107628316D01*
X178198908Y-109042530D01*
X177527156Y-108370778D01*
X178941370Y-106956564D01*
X178941370Y-106956564D01*
G37*
D17*
X179135824Y-108565232D03*
D12*
G36*
X179507055Y-107522249D02*
G01*
X180178807Y-108194001D01*
X178764593Y-109608215D01*
X178092841Y-108936463D01*
X179507055Y-107522249D01*
X179507055Y-107522249D01*
G37*
D17*
X179701510Y-109130917D03*
D12*
G36*
X180072741Y-108087934D02*
G01*
X180744493Y-108759686D01*
X179330279Y-110173900D01*
X178658527Y-109502148D01*
X180072741Y-108087934D01*
X180072741Y-108087934D01*
G37*
D17*
X180267195Y-109696603D03*
D12*
G36*
X180638426Y-108653620D02*
G01*
X181310178Y-109325372D01*
X179895964Y-110739586D01*
X179224212Y-110067834D01*
X180638426Y-108653620D01*
X180638426Y-108653620D01*
G37*
D17*
X182317805Y-109696603D03*
D12*
G36*
X181274822Y-109325372D02*
G01*
X181946574Y-108653620D01*
X183360788Y-110067834D01*
X182689036Y-110739586D01*
X181274822Y-109325372D01*
X181274822Y-109325372D01*
G37*
D17*
X182883490Y-109130917D03*
D12*
G36*
X181840507Y-108759686D02*
G01*
X182512259Y-108087934D01*
X183926473Y-109502148D01*
X183254721Y-110173900D01*
X181840507Y-108759686D01*
X181840507Y-108759686D01*
G37*
D17*
X183449176Y-108565232D03*
D12*
G36*
X182406193Y-108194001D02*
G01*
X183077945Y-107522249D01*
X184492159Y-108936463D01*
X183820407Y-109608215D01*
X182406193Y-108194001D01*
X182406193Y-108194001D01*
G37*
D17*
X184014861Y-107999547D03*
D12*
G36*
X182971878Y-107628316D02*
G01*
X183643630Y-106956564D01*
X185057844Y-108370778D01*
X184386092Y-109042530D01*
X182971878Y-107628316D01*
X182971878Y-107628316D01*
G37*
D17*
X184580547Y-107433861D03*
D12*
G36*
X183537564Y-107062630D02*
G01*
X184209316Y-106390878D01*
X185623530Y-107805092D01*
X184951778Y-108476844D01*
X183537564Y-107062630D01*
X183537564Y-107062630D01*
G37*
D17*
X185146232Y-106868176D03*
D12*
G36*
X184103249Y-106496945D02*
G01*
X184775001Y-105825193D01*
X186189215Y-107239407D01*
X185517463Y-107911159D01*
X184103249Y-106496945D01*
X184103249Y-106496945D01*
G37*
D17*
X185711917Y-106302490D03*
D12*
G36*
X184668934Y-105931259D02*
G01*
X185340686Y-105259507D01*
X186754900Y-106673721D01*
X186083148Y-107345473D01*
X184668934Y-105931259D01*
X184668934Y-105931259D01*
G37*
D17*
X186277603Y-105736805D03*
D12*
G36*
X185234620Y-105365574D02*
G01*
X185906372Y-104693822D01*
X187320586Y-106108036D01*
X186648834Y-106779788D01*
X185234620Y-105365574D01*
X185234620Y-105365574D01*
G37*
D18*
X175178500Y-120015000D03*
X184358500Y-120015000D03*
X175242000Y-87249000D03*
X184422000Y-87249000D03*
D19*
X182750000Y-113525000D03*
X182750000Y-116225000D03*
D20*
X188087000Y-86741000D03*
X171958000Y-123190000D03*
D21*
X171831000Y-86423500D03*
D19*
X179600000Y-113521500D03*
X179600000Y-116221500D03*
X176606200Y-116230400D03*
X176606200Y-113530400D03*
M02*
