G04 #@! TF.GenerationSoftware,KiCad,Pcbnew,(5.1.2)-2*
G04 #@! TF.CreationDate,2019-11-24T13:14:51+01:00*
G04 #@! TF.ProjectId,HM-LC-SW1-BA-PCB_mini_MAX1724,484d2d4c-432d-4535-9731-2d42412d5043,rev?*
G04 #@! TF.SameCoordinates,Original*
G04 #@! TF.FileFunction,Legend,Bot*
G04 #@! TF.FilePolarity,Positive*
%FSLAX46Y46*%
G04 Gerber Fmt 4.6, Leading zero omitted, Abs format (unit mm)*
G04 Created by KiCad (PCBNEW (5.1.2)-2) date 2019-11-24 13:14:51*
%MOMM*%
%LPD*%
G04 APERTURE LIST*
%ADD10C,0.150000*%
%ADD11C,0.100000*%
%ADD12C,0.120000*%
G04 APERTURE END LIST*
D10*
X172426190Y-101988880D02*
X172426190Y-100988880D01*
X171997619Y-101941261D02*
X171854761Y-101988880D01*
X171616666Y-101988880D01*
X171521428Y-101941261D01*
X171473809Y-101893642D01*
X171426190Y-101798404D01*
X171426190Y-101703166D01*
X171473809Y-101607928D01*
X171521428Y-101560309D01*
X171616666Y-101512690D01*
X171807142Y-101465071D01*
X171902380Y-101417452D01*
X171950000Y-101369833D01*
X171997619Y-101274595D01*
X171997619Y-101179357D01*
X171950000Y-101084119D01*
X171902380Y-101036500D01*
X171807142Y-100988880D01*
X171569047Y-100988880D01*
X171426190Y-101036500D01*
X170997619Y-101988880D02*
X170997619Y-100988880D01*
X170616666Y-100988880D01*
X170521428Y-101036500D01*
X170473809Y-101084119D01*
X170426190Y-101179357D01*
X170426190Y-101322214D01*
X170473809Y-101417452D01*
X170521428Y-101465071D01*
X170616666Y-101512690D01*
X170997619Y-101512690D01*
D11*
X175059857Y-99712428D02*
X175059857Y-99112428D01*
X174859857Y-99541000D01*
X174659857Y-99112428D01*
X174659857Y-99712428D01*
X174374142Y-99712428D02*
X174374142Y-99112428D01*
X174117000Y-99683857D02*
X174031285Y-99712428D01*
X173888428Y-99712428D01*
X173831285Y-99683857D01*
X173802714Y-99655285D01*
X173774142Y-99598142D01*
X173774142Y-99541000D01*
X173802714Y-99483857D01*
X173831285Y-99455285D01*
X173888428Y-99426714D01*
X174002714Y-99398142D01*
X174059857Y-99369571D01*
X174088428Y-99341000D01*
X174117000Y-99283857D01*
X174117000Y-99226714D01*
X174088428Y-99169571D01*
X174059857Y-99141000D01*
X174002714Y-99112428D01*
X173859857Y-99112428D01*
X173774142Y-99141000D01*
X173402714Y-99112428D02*
X173288428Y-99112428D01*
X173231285Y-99141000D01*
X173174142Y-99198142D01*
X173145571Y-99312428D01*
X173145571Y-99512428D01*
X173174142Y-99626714D01*
X173231285Y-99683857D01*
X173288428Y-99712428D01*
X173402714Y-99712428D01*
X173459857Y-99683857D01*
X173517000Y-99626714D01*
X173545571Y-99512428D01*
X173545571Y-99312428D01*
X173517000Y-99198142D01*
X173459857Y-99141000D01*
X173402714Y-99112428D01*
X174761428Y-97143857D02*
X174675714Y-97172428D01*
X174532857Y-97172428D01*
X174475714Y-97143857D01*
X174447142Y-97115285D01*
X174418571Y-97058142D01*
X174418571Y-97001000D01*
X174447142Y-96943857D01*
X174475714Y-96915285D01*
X174532857Y-96886714D01*
X174647142Y-96858142D01*
X174704285Y-96829571D01*
X174732857Y-96801000D01*
X174761428Y-96743857D01*
X174761428Y-96686714D01*
X174732857Y-96629571D01*
X174704285Y-96601000D01*
X174647142Y-96572428D01*
X174504285Y-96572428D01*
X174418571Y-96601000D01*
X173818571Y-97115285D02*
X173847142Y-97143857D01*
X173932857Y-97172428D01*
X173990000Y-97172428D01*
X174075714Y-97143857D01*
X174132857Y-97086714D01*
X174161428Y-97029571D01*
X174190000Y-96915285D01*
X174190000Y-96829571D01*
X174161428Y-96715285D01*
X174132857Y-96658142D01*
X174075714Y-96601000D01*
X173990000Y-96572428D01*
X173932857Y-96572428D01*
X173847142Y-96601000D01*
X173818571Y-96629571D01*
X173561428Y-97172428D02*
X173561428Y-96572428D01*
X173218571Y-97172428D02*
X173475714Y-96829571D01*
X173218571Y-96572428D02*
X173561428Y-96915285D01*
X175369428Y-94632428D02*
X175569428Y-94346714D01*
X175712285Y-94632428D02*
X175712285Y-94032428D01*
X175483714Y-94032428D01*
X175426571Y-94061000D01*
X175398000Y-94089571D01*
X175369428Y-94146714D01*
X175369428Y-94232428D01*
X175398000Y-94289571D01*
X175426571Y-94318142D01*
X175483714Y-94346714D01*
X175712285Y-94346714D01*
X175112285Y-94318142D02*
X174912285Y-94318142D01*
X174826571Y-94632428D02*
X175112285Y-94632428D01*
X175112285Y-94032428D01*
X174826571Y-94032428D01*
X174598000Y-94603857D02*
X174512285Y-94632428D01*
X174369428Y-94632428D01*
X174312285Y-94603857D01*
X174283714Y-94575285D01*
X174255142Y-94518142D01*
X174255142Y-94461000D01*
X174283714Y-94403857D01*
X174312285Y-94375285D01*
X174369428Y-94346714D01*
X174483714Y-94318142D01*
X174540857Y-94289571D01*
X174569428Y-94261000D01*
X174598000Y-94203857D01*
X174598000Y-94146714D01*
X174569428Y-94089571D01*
X174540857Y-94061000D01*
X174483714Y-94032428D01*
X174340857Y-94032428D01*
X174255142Y-94061000D01*
X173998000Y-94318142D02*
X173798000Y-94318142D01*
X173712285Y-94632428D02*
X173998000Y-94632428D01*
X173998000Y-94032428D01*
X173712285Y-94032428D01*
X173540857Y-94032428D02*
X173198000Y-94032428D01*
X173369428Y-94632428D02*
X173369428Y-94032428D01*
X175059857Y-89679428D02*
X175059857Y-89079428D01*
X174859857Y-89508000D01*
X174659857Y-89079428D01*
X174659857Y-89679428D01*
X174259857Y-89079428D02*
X174145571Y-89079428D01*
X174088428Y-89108000D01*
X174031285Y-89165142D01*
X174002714Y-89279428D01*
X174002714Y-89479428D01*
X174031285Y-89593714D01*
X174088428Y-89650857D01*
X174145571Y-89679428D01*
X174259857Y-89679428D01*
X174317000Y-89650857D01*
X174374142Y-89593714D01*
X174402714Y-89479428D01*
X174402714Y-89279428D01*
X174374142Y-89165142D01*
X174317000Y-89108000D01*
X174259857Y-89079428D01*
X173774142Y-89650857D02*
X173688428Y-89679428D01*
X173545571Y-89679428D01*
X173488428Y-89650857D01*
X173459857Y-89622285D01*
X173431285Y-89565142D01*
X173431285Y-89508000D01*
X173459857Y-89450857D01*
X173488428Y-89422285D01*
X173545571Y-89393714D01*
X173659857Y-89365142D01*
X173717000Y-89336571D01*
X173745571Y-89308000D01*
X173774142Y-89250857D01*
X173774142Y-89193714D01*
X173745571Y-89136571D01*
X173717000Y-89108000D01*
X173659857Y-89079428D01*
X173517000Y-89079428D01*
X173431285Y-89108000D01*
X173174142Y-89679428D02*
X173174142Y-89079428D01*
D12*
X185710000Y-116000000D02*
X185710000Y-119686252D01*
X182290000Y-116000000D02*
X182290000Y-119686252D01*
D10*
X189610000Y-107282000D02*
X173610000Y-107282000D01*
X173610000Y-107282000D02*
X173610000Y-88282000D01*
X173610000Y-88282000D02*
X189610000Y-88282000D01*
X189610000Y-88282000D02*
X189610000Y-107282000D01*
D12*
X179180000Y-119710000D02*
X176750000Y-119710000D01*
X177420000Y-116640000D02*
X179180000Y-116640000D01*
X186698000Y-109030400D02*
X187698000Y-109030400D01*
X187698000Y-110730400D02*
X186698000Y-110730400D01*
X177900000Y-114350000D02*
X178900000Y-114350000D01*
X178900000Y-116050000D02*
X177900000Y-116050000D01*
X178900000Y-121850000D02*
X177900000Y-121850000D01*
X177900000Y-120150000D02*
X178900000Y-120150000D01*
D10*
X186733333Y-118261904D02*
X187114285Y-118261904D01*
X187114285Y-117461904D01*
X186047619Y-118261904D02*
X186504761Y-118261904D01*
X186276190Y-118261904D02*
X186276190Y-117461904D01*
X186352380Y-117576190D01*
X186428571Y-117652380D01*
X186504761Y-117690476D01*
X183566666Y-110661904D02*
X183566666Y-111233333D01*
X183604761Y-111347619D01*
X183680952Y-111423809D01*
X183795238Y-111461904D01*
X183871428Y-111461904D01*
X183185714Y-111461904D02*
X183185714Y-110661904D01*
X182880952Y-110661904D01*
X182804761Y-110700000D01*
X182766666Y-110738095D01*
X182728571Y-110814285D01*
X182728571Y-110928571D01*
X182766666Y-111004761D01*
X182804761Y-111042857D01*
X182880952Y-111080952D01*
X183185714Y-111080952D01*
X181966666Y-111461904D02*
X182423809Y-111461904D01*
X182195238Y-111461904D02*
X182195238Y-110661904D01*
X182271428Y-110776190D01*
X182347619Y-110852380D01*
X182423809Y-110890476D01*
X182586190Y-100734380D02*
X182586190Y-99734380D01*
X181538571Y-100639142D02*
X181586190Y-100686761D01*
X181729047Y-100734380D01*
X181824285Y-100734380D01*
X181967142Y-100686761D01*
X182062380Y-100591523D01*
X182110000Y-100496285D01*
X182157619Y-100305809D01*
X182157619Y-100162952D01*
X182110000Y-99972476D01*
X182062380Y-99877238D01*
X181967142Y-99782000D01*
X181824285Y-99734380D01*
X181729047Y-99734380D01*
X181586190Y-99782000D01*
X181538571Y-99829619D01*
X181157619Y-99829619D02*
X181110000Y-99782000D01*
X181014761Y-99734380D01*
X180776666Y-99734380D01*
X180681428Y-99782000D01*
X180633809Y-99829619D01*
X180586190Y-99924857D01*
X180586190Y-100020095D01*
X180633809Y-100162952D01*
X181205238Y-100734380D01*
X180586190Y-100734380D01*
X175809523Y-117961904D02*
X175809523Y-118609523D01*
X175771428Y-118685714D01*
X175733333Y-118723809D01*
X175657142Y-118761904D01*
X175504761Y-118761904D01*
X175428571Y-118723809D01*
X175390476Y-118685714D01*
X175352380Y-118609523D01*
X175352380Y-117961904D01*
X174552380Y-118761904D02*
X175009523Y-118761904D01*
X174780952Y-118761904D02*
X174780952Y-117961904D01*
X174857142Y-118076190D01*
X174933333Y-118152380D01*
X175009523Y-118190476D01*
X187333333Y-111685714D02*
X187371428Y-111723809D01*
X187485714Y-111761904D01*
X187561904Y-111761904D01*
X187676190Y-111723809D01*
X187752380Y-111647619D01*
X187790476Y-111571428D01*
X187828571Y-111419047D01*
X187828571Y-111304761D01*
X187790476Y-111152380D01*
X187752380Y-111076190D01*
X187676190Y-111000000D01*
X187561904Y-110961904D01*
X187485714Y-110961904D01*
X187371428Y-111000000D01*
X187333333Y-111038095D01*
X187066666Y-110961904D02*
X186571428Y-110961904D01*
X186838095Y-111266666D01*
X186723809Y-111266666D01*
X186647619Y-111304761D01*
X186609523Y-111342857D01*
X186571428Y-111419047D01*
X186571428Y-111609523D01*
X186609523Y-111685714D01*
X186647619Y-111723809D01*
X186723809Y-111761904D01*
X186952380Y-111761904D01*
X187028571Y-111723809D01*
X187066666Y-111685714D01*
X178533333Y-114085714D02*
X178571428Y-114123809D01*
X178685714Y-114161904D01*
X178761904Y-114161904D01*
X178876190Y-114123809D01*
X178952380Y-114047619D01*
X178990476Y-113971428D01*
X179028571Y-113819047D01*
X179028571Y-113704761D01*
X178990476Y-113552380D01*
X178952380Y-113476190D01*
X178876190Y-113400000D01*
X178761904Y-113361904D01*
X178685714Y-113361904D01*
X178571428Y-113400000D01*
X178533333Y-113438095D01*
X177847619Y-113361904D02*
X178000000Y-113361904D01*
X178076190Y-113400000D01*
X178114285Y-113438095D01*
X178190476Y-113552380D01*
X178228571Y-113704761D01*
X178228571Y-114009523D01*
X178190476Y-114085714D01*
X178152380Y-114123809D01*
X178076190Y-114161904D01*
X177923809Y-114161904D01*
X177847619Y-114123809D01*
X177809523Y-114085714D01*
X177771428Y-114009523D01*
X177771428Y-113819047D01*
X177809523Y-113742857D01*
X177847619Y-113704761D01*
X177923809Y-113666666D01*
X178076190Y-113666666D01*
X178152380Y-113704761D01*
X178190476Y-113742857D01*
X178228571Y-113819047D01*
X178533333Y-122785714D02*
X178571428Y-122823809D01*
X178685714Y-122861904D01*
X178761904Y-122861904D01*
X178876190Y-122823809D01*
X178952380Y-122747619D01*
X178990476Y-122671428D01*
X179028571Y-122519047D01*
X179028571Y-122404761D01*
X178990476Y-122252380D01*
X178952380Y-122176190D01*
X178876190Y-122100000D01*
X178761904Y-122061904D01*
X178685714Y-122061904D01*
X178571428Y-122100000D01*
X178533333Y-122138095D01*
X178266666Y-122061904D02*
X177733333Y-122061904D01*
X178076190Y-122861904D01*
M02*
