%
M48
METRIC,000.000
T01C0.50
%
T01
X020250Y004607
X020250Y005607
X020250Y006607
X020250Y007607
X020250Y008607
X020250Y009607
X022750Y009178
X022750Y008178
X022750Y007178
X022750Y006178
X022750Y005178
X022750Y004178
X035785Y040250
X034785Y040250
X033785Y040250
X032785Y040250
X031785Y040250
X030785Y040250
X030429Y042750
X031429Y042750
X032429Y042750
X033429Y042750
X034429Y042750
X035429Y042750
X020250Y047607
X020250Y048607
X020250Y049607
X020250Y050607
X020250Y051607
X020250Y052607
X022750Y052178
X022750Y051178
X022750Y050178
X022750Y049178
X022750Y048178
X022750Y047178
X020250Y072607
X020250Y073607
X020250Y074607
X020250Y075607
X020250Y076607
X020250Y077607
X022750Y077178
X022750Y076178
X022750Y075178
X022750Y074178
X022750Y073178
X022750Y072178
X012785Y040250
X011785Y040250
X010785Y040250
X009785Y040250
X008785Y040250
X007785Y040250
X007429Y042750
X008429Y042750
X009429Y042750
X010429Y042750
X011429Y042750
X012429Y042750
X043250Y004607
X043250Y005607
X043250Y006607
X043250Y007607
X043250Y008607
X043250Y009607
X045750Y009178
X045750Y008178
X045750Y007178
X045750Y006178
X045750Y005178
X045750Y004178
X043250Y047607
X043250Y048607
X043250Y049607
X043250Y050607
X043250Y051607
X043250Y052607
X045750Y052178
X045750Y051178
X045750Y050178
X045750Y049178
X045750Y048178
X045750Y047178
X066250Y004607
X066250Y005607
X066250Y006607
X066250Y007607
X066250Y008607
X066250Y009607
X068750Y009178
X068750Y008178
X068750Y007178
X068750Y006178
X068750Y005178
X068750Y004178
X081785Y040250
X080785Y040250
X079785Y040250
X078785Y040250
X077785Y040250
X076785Y040250
X076429Y042750
X077429Y042750
X078429Y042750
X079429Y042750
X080429Y042750
X081429Y042750
X066250Y047607
X066250Y048607
X066250Y049607
X066250Y050607
X066250Y051607
X066250Y052607
X068750Y052178
X068750Y051178
X068750Y050178
X068750Y049178
X068750Y048178
X068750Y047178
X066250Y072607
X066250Y073607
X066250Y074607
X066250Y075607
X066250Y076607
X066250Y077607
X068750Y077178
X068750Y076178
X068750Y075178
X068750Y074178
X068750Y073178
X068750Y072178
X058785Y040250
X057785Y040250
X056785Y040250
X055785Y040250
X054785Y040250
X053785Y040250
X052785Y040250
X053429Y042750
X054429Y042750
X055429Y042750
X056429Y042750
X057429Y042750
X058429Y042750
X043250Y072607
X043250Y073607
X043250Y074607
X043250Y075607
X043250Y076607
X043250Y077607
X045750Y077178
X045750Y076178
X045750Y075178
X045750Y074178
X045750Y073178
X045750Y072178
X020250Y027607
X020250Y028607
X020250Y029607
X020250Y030607
X020250Y031607
X020250Y032607
X022750Y032178
X022750Y031178
X022750Y030178
X022750Y029178
X022750Y028178
X022750Y027178
X043250Y027607
X043250Y028607
X043250Y029607
X043250Y030607
X043250Y031607
X043250Y032607
X045750Y032178
X045750Y031178
X045750Y030178
X045750Y029178
X045750Y028178
X045750Y027178
X066250Y027607
X066250Y028607
X066250Y029607
X066250Y030607
X066250Y031607
X066250Y032607
X068750Y032178
X068750Y031178
X068750Y030178
X068750Y029178
X068750Y028178
X068750Y027178
M30