%MOIN*%
%OFA0B0*%
%FSLAX44Y44*%
%IPPOS*%
%LPD*%
%ADD10C,0*%
D10*
X00025196Y00015748D02*
X00025196Y00015748D01*
X00022456Y00015748D01*
X00022425Y00015749D01*
X00022395Y00015752D01*
X00022364Y00015758D01*
X00022334Y00015767D01*
X00022305Y00015778D01*
X00022277Y00015790D01*
X00022250Y00015806D01*
X00022225Y00015823D01*
X00022200Y00015842D01*
X00022178Y00015863D01*
X00022157Y00015886D01*
X00022138Y00015910D01*
X00022120Y00015936D01*
X00022105Y00015962D01*
X00022092Y00015991D01*
X00022082Y00016020D01*
X00022073Y00016049D01*
X00022067Y00016080D01*
X00022064Y00016110D01*
X00022456Y00016141D01*
X00022064Y00016172D01*
X00022067Y00016203D01*
X00022073Y00016233D01*
X00022082Y00016263D01*
X00022092Y00016292D01*
X00022105Y00016320D01*
X00022120Y00016347D01*
X00022138Y00016373D01*
X00022157Y00016397D01*
X00022178Y00016420D01*
X00022200Y00016441D01*
X00022225Y00016460D01*
X00022250Y00016477D01*
X00022277Y00016492D01*
X00022305Y00016505D01*
X00022334Y00016516D01*
X00022364Y00016524D01*
X00022395Y00016530D01*
X00022425Y00016534D01*
X00022456Y00016535D01*
X00025196Y00016535D01*
X00025196Y00018881D01*
X00025590Y00018881D01*
X00025201Y00018943D01*
X00025216Y00019003D01*
X00025239Y00019060D01*
X00025272Y00019113D01*
X00025312Y00019160D01*
X00025359Y00019200D01*
X00025411Y00019232D01*
X00025468Y00019256D01*
X00025528Y00019270D01*
X00025590Y00019275D01*
X00025652Y00019270D01*
X00025712Y00019256D01*
X00025769Y00019232D01*
X00025821Y00019200D01*
X00025868Y00019160D01*
X00025909Y00019113D01*
X00025941Y00019060D01*
X00025964Y00019003D01*
X00025979Y00018943D01*
X00025984Y00018881D01*
X00025984Y00016535D01*
X00028724Y00016535D01*
X00028816Y00016524D01*
X00028903Y00016492D01*
X00028980Y00016441D01*
X00029043Y00016373D01*
X00029088Y00016292D01*
X00029113Y00016203D01*
X00029117Y00016110D01*
X00029098Y00016020D01*
X00029060Y00015936D01*
X00029002Y00015863D01*
X00028930Y00015806D01*
X00028846Y00015767D01*
X00028755Y00015749D01*
X00028662Y00015752D01*
X00028573Y00015778D01*
X00028493Y00015823D01*
X00028425Y00015886D01*
X00028373Y00015962D01*
X00028341Y00016049D01*
X00028724Y00016141D01*
X00028341Y00016233D01*
X00028373Y00016320D01*
X00028425Y00016397D01*
X00028493Y00016460D01*
X00028573Y00016505D01*
X00028662Y00016530D01*
X00028755Y00016534D01*
X00028846Y00016516D01*
X00028930Y00016477D01*
X00029002Y00016420D01*
X00029060Y00016347D01*
X00029098Y00016263D01*
X00029117Y00016172D01*
X00029113Y00016080D01*
X00029088Y00015991D01*
X00029043Y00015910D01*
X00028980Y00015842D01*
X00028903Y00015790D01*
X00028816Y00015758D01*
X00028724Y00015748D01*
X00025984Y00015748D01*
X00025984Y00013007D01*
X00025979Y00012946D01*
X00025964Y00012886D01*
X00025941Y00012829D01*
X00025909Y00012776D01*
X00025868Y00012729D01*
X00025821Y00012689D01*
X00025769Y00012656D01*
X00025712Y00012633D01*
X00025652Y00012618D01*
X00025590Y00012614D01*
X00025528Y00012618D01*
X00025468Y00012633D01*
X00025411Y00012656D01*
X00025359Y00012689D01*
X00025312Y00012729D01*
X00025272Y00012776D01*
X00025239Y00012829D01*
X00025216Y00012886D01*
X00025201Y00012946D01*
X00025590Y00013007D01*
X00025196Y00013007D01*
X00025196Y00015748D01*
X00016535Y00015748D02*
X00016535Y00015748D01*
X00013795Y00015748D01*
X00013764Y00015749D01*
X00013733Y00015752D01*
X00013703Y00015758D01*
X00013673Y00015767D01*
X00013644Y00015778D01*
X00013616Y00015790D01*
X00013589Y00015806D01*
X00013563Y00015823D01*
X00013539Y00015842D01*
X00013516Y00015863D01*
X00013495Y00015886D01*
X00013476Y00015910D01*
X00013459Y00015936D01*
X00013444Y00015962D01*
X00013431Y00015991D01*
X00013420Y00016020D01*
X00013412Y00016049D01*
X00013406Y00016080D01*
X00013402Y00016110D01*
X00013795Y00016141D01*
X00013402Y00016172D01*
X00013406Y00016203D01*
X00013412Y00016233D01*
X00013420Y00016263D01*
X00013431Y00016292D01*
X00013444Y00016320D01*
X00013459Y00016347D01*
X00013476Y00016373D01*
X00013495Y00016397D01*
X00013516Y00016420D01*
X00013539Y00016441D01*
X00013563Y00016460D01*
X00013589Y00016477D01*
X00013616Y00016492D01*
X00013644Y00016505D01*
X00013673Y00016516D01*
X00013703Y00016524D01*
X00013733Y00016530D01*
X00013764Y00016534D01*
X00013795Y00016535D01*
X00016535Y00016535D01*
X00016535Y00018488D01*
X00016540Y00018549D01*
X00016554Y00018609D01*
X00016578Y00018667D01*
X00016610Y00018719D01*
X00016650Y00018766D01*
X00016697Y00018806D01*
X00016750Y00018839D01*
X00016807Y00018862D01*
X00016867Y00018877D01*
X00016929Y00018881D01*
X00016990Y00018877D01*
X00017050Y00018862D01*
X00017107Y00018839D01*
X00017160Y00018806D01*
X00017207Y00018766D01*
X00017247Y00018719D01*
X00017279Y00018667D01*
X00017303Y00018609D01*
X00017317Y00018549D01*
X00017322Y00018488D01*
X00017322Y00018488D01*
X00017322Y00016535D01*
X00020063Y00016535D01*
X00020155Y00016524D01*
X00020241Y00016492D01*
X00020318Y00016441D01*
X00020381Y00016373D01*
X00020426Y00016292D01*
X00020451Y00016203D01*
X00020455Y00016110D01*
X00020437Y00016020D01*
X00020398Y00015936D01*
X00020341Y00015863D01*
X00020268Y00015806D01*
X00020184Y00015767D01*
X00020093Y00015749D01*
X00020001Y00015752D01*
X00019912Y00015778D01*
X00019831Y00015823D01*
X00019763Y00015886D01*
X00019712Y00015962D01*
X00019680Y00016049D01*
X00020063Y00016141D01*
X00019680Y00016233D01*
X00019712Y00016320D01*
X00019763Y00016397D01*
X00019831Y00016460D01*
X00019912Y00016505D01*
X00020001Y00016530D01*
X00020093Y00016534D01*
X00020184Y00016516D01*
X00020268Y00016477D01*
X00020341Y00016420D01*
X00020398Y00016347D01*
X00020437Y00016263D01*
X00020455Y00016172D01*
X00020451Y00016080D01*
X00020426Y00015991D01*
X00020381Y00015910D01*
X00020318Y00015842D01*
X00020241Y00015790D01*
X00020155Y00015758D01*
X00020063Y00015748D01*
X00017322Y00015748D01*
X00017322Y00013007D01*
X00017317Y00012946D01*
X00017303Y00012886D01*
X00017279Y00012829D01*
X00017247Y00012776D01*
X00017207Y00012729D01*
X00017160Y00012689D01*
X00017107Y00012656D01*
X00017050Y00012633D01*
X00016990Y00012618D01*
X00016929Y00012614D01*
X00016867Y00012618D01*
X00016807Y00012633D01*
X00016750Y00012656D01*
X00016697Y00012689D01*
X00016650Y00012729D01*
X00016610Y00012776D01*
X00016578Y00012829D01*
X00016554Y00012886D01*
X00016540Y00012946D01*
X00016929Y00013007D01*
X00016535Y00013007D01*
X00016535Y00015748D01*
X00007874Y00013007D02*
X00007874Y00013007D01*
X00007874Y00015748D01*
X00005133Y00015748D01*
X00005102Y00015749D01*
X00005072Y00015752D01*
X00005041Y00015758D01*
X00005012Y00015767D01*
X00004983Y00015778D01*
X00004955Y00015790D01*
X00004928Y00015806D01*
X00004902Y00015823D01*
X00004878Y00015842D01*
X00004855Y00015863D01*
X00004834Y00015886D01*
X00004815Y00015910D01*
X00004798Y00015936D01*
X00004782Y00015962D01*
X00004770Y00015991D01*
X00004759Y00016020D01*
X00004750Y00016049D01*
X00004744Y00016080D01*
X00004741Y00016110D01*
X00005133Y00016141D01*
X00004741Y00016172D01*
X00004744Y00016203D01*
X00004750Y00016233D01*
X00004759Y00016263D01*
X00004770Y00016292D01*
X00004782Y00016320D01*
X00004798Y00016347D01*
X00004815Y00016373D01*
X00004834Y00016397D01*
X00004855Y00016420D01*
X00004878Y00016441D01*
X00004902Y00016460D01*
X00004928Y00016477D01*
X00004955Y00016492D01*
X00004983Y00016505D01*
X00005012Y00016516D01*
X00005041Y00016524D01*
X00005072Y00016530D01*
X00005102Y00016534D01*
X00005133Y00016535D01*
X00007874Y00016535D01*
X00007874Y00018488D01*
X00007878Y00018549D01*
X00007893Y00018609D01*
X00007916Y00018667D01*
X00007949Y00018719D01*
X00007989Y00018766D01*
X00008036Y00018806D01*
X00008088Y00018839D01*
X00008146Y00018862D01*
X00008206Y00018877D01*
X00008267Y00018881D01*
X00008329Y00018877D01*
X00008389Y00018862D01*
X00008446Y00018839D01*
X00008499Y00018806D01*
X00008546Y00018766D01*
X00008586Y00018719D01*
X00008618Y00018667D01*
X00008642Y00018609D01*
X00008656Y00018549D01*
X00008661Y00018488D01*
X00008661Y00018488D01*
X00008661Y00016535D01*
X00011401Y00016535D01*
X00011493Y00016524D01*
X00011580Y00016492D01*
X00011657Y00016441D01*
X00011720Y00016373D01*
X00011765Y00016292D01*
X00011790Y00016203D01*
X00011794Y00016110D01*
X00011776Y00016020D01*
X00011737Y00015936D01*
X00011680Y00015863D01*
X00011607Y00015806D01*
X00011523Y00015767D01*
X00011432Y00015749D01*
X00011340Y00015752D01*
X00011251Y00015778D01*
X00011170Y00015823D01*
X00011102Y00015886D01*
X00011050Y00015962D01*
X00011018Y00016049D01*
X00011401Y00016141D01*
X00011018Y00016233D01*
X00011050Y00016320D01*
X00011102Y00016397D01*
X00011170Y00016460D01*
X00011251Y00016505D01*
X00011340Y00016530D01*
X00011432Y00016534D01*
X00011523Y00016516D01*
X00011607Y00016477D01*
X00011680Y00016420D01*
X00011737Y00016347D01*
X00011776Y00016263D01*
X00011794Y00016172D01*
X00011790Y00016080D01*
X00011765Y00015991D01*
X00011720Y00015910D01*
X00011657Y00015842D01*
X00011580Y00015790D01*
X00011493Y00015758D01*
X00011401Y00015748D01*
X00008661Y00015748D01*
X00008661Y00013007D01*
X00008656Y00012946D01*
X00008642Y00012886D01*
X00008618Y00012829D01*
X00008586Y00012776D01*
X00008546Y00012729D01*
X00008499Y00012689D01*
X00008446Y00012656D01*
X00008389Y00012633D01*
X00008329Y00012618D01*
X00008267Y00012614D01*
X00008206Y00012618D01*
X00008146Y00012633D01*
X00008088Y00012656D01*
X00008036Y00012689D01*
X00007989Y00012729D01*
X00007949Y00012776D01*
X00007916Y00012829D01*
X00007893Y00012886D01*
X00007878Y00012946D01*
X00008267Y00013007D01*
X00007874Y00013007D01*
X00025984Y00021275D02*
X00025984Y00021275D01*
X00025979Y00021213D01*
X00025964Y00021153D01*
X00025941Y00021096D01*
X00025909Y00021044D01*
X00025868Y00020997D01*
X00025821Y00020956D01*
X00025769Y00020924D01*
X00025712Y00020901D01*
X00025652Y00020886D01*
X00025590Y00020881D01*
X00025528Y00020886D01*
X00025468Y00020901D01*
X00025411Y00020924D01*
X00025359Y00020956D01*
X00025312Y00020997D01*
X00025272Y00021044D01*
X00025239Y00021096D01*
X00025216Y00021153D01*
X00025201Y00021213D01*
X00025590Y00021275D01*
X00025196Y00021275D01*
X00025196Y00028330D01*
X00025590Y00028330D01*
X00025201Y00028392D01*
X00025216Y00028452D01*
X00025239Y00028509D01*
X00025272Y00028562D01*
X00025312Y00028609D01*
X00025359Y00028649D01*
X00025411Y00028681D01*
X00025468Y00028705D01*
X00025528Y00028719D01*
X00025590Y00028724D01*
X00025652Y00028719D01*
X00025712Y00028705D01*
X00025769Y00028681D01*
X00025821Y00028649D01*
X00025868Y00028609D01*
X00025909Y00028562D01*
X00025941Y00028509D01*
X00025964Y00028452D01*
X00025979Y00028392D01*
X00025984Y00028330D01*
X00025984Y00021275D01*
X00025984Y00003558D02*
X00025984Y00003558D01*
X00025984Y00003558D01*
X00025979Y00003497D01*
X00025964Y00003437D01*
X00025941Y00003380D01*
X00025909Y00003327D01*
X00025868Y00003280D01*
X00025821Y00003240D01*
X00025769Y00003208D01*
X00025712Y00003184D01*
X00025652Y00003170D01*
X00025590Y00003165D01*
X00025528Y00003170D01*
X00025468Y00003184D01*
X00025411Y00003208D01*
X00025359Y00003240D01*
X00025312Y00003280D01*
X00025272Y00003327D01*
X00025239Y00003380D01*
X00025216Y00003437D01*
X00025201Y00003497D01*
X00025196Y00003558D01*
X00025196Y00010614D01*
X00025590Y00010614D01*
X00025201Y00010675D01*
X00025216Y00010735D01*
X00025239Y00010793D01*
X00025272Y00010845D01*
X00025312Y00010892D01*
X00025359Y00010932D01*
X00025411Y00010965D01*
X00025468Y00010988D01*
X00025528Y00011003D01*
X00025590Y00011007D01*
X00025652Y00011003D01*
X00025712Y00010988D01*
X00025769Y00010965D01*
X00025821Y00010932D01*
X00025868Y00010892D01*
X00025909Y00010845D01*
X00025941Y00010793D01*
X00025964Y00010735D01*
X00025979Y00010675D01*
X00025984Y00010614D01*
X00025984Y00003558D01*
X00017322Y00020881D02*
X00017322Y00020881D01*
X00017317Y00020820D01*
X00017303Y00020760D01*
X00017279Y00020703D01*
X00017247Y00020650D01*
X00017207Y00020603D01*
X00017160Y00020563D01*
X00017107Y00020530D01*
X00017050Y00020507D01*
X00016990Y00020492D01*
X00016929Y00020488D01*
X00016867Y00020492D01*
X00016807Y00020507D01*
X00016750Y00020530D01*
X00016697Y00020563D01*
X00016650Y00020603D01*
X00016610Y00020650D01*
X00016578Y00020703D01*
X00016554Y00020760D01*
X00016540Y00020820D01*
X00016929Y00020881D01*
X00016535Y00020881D01*
X00016535Y00028330D01*
X00016929Y00028330D01*
X00016540Y00028392D01*
X00016554Y00028452D01*
X00016578Y00028509D01*
X00016610Y00028562D01*
X00016650Y00028609D01*
X00016697Y00028649D01*
X00016750Y00028681D01*
X00016807Y00028705D01*
X00016867Y00028719D01*
X00016929Y00028724D01*
X00016990Y00028719D01*
X00017050Y00028705D01*
X00017107Y00028681D01*
X00017160Y00028649D01*
X00017207Y00028609D01*
X00017247Y00028562D01*
X00017279Y00028509D01*
X00017303Y00028452D01*
X00017317Y00028392D01*
X00017322Y00028330D01*
X00017322Y00020881D01*
X00017322Y00003558D02*
X00017322Y00003558D01*
X00017322Y00003558D01*
X00017317Y00003497D01*
X00017303Y00003437D01*
X00017279Y00003380D01*
X00017247Y00003327D01*
X00017207Y00003280D01*
X00017160Y00003240D01*
X00017107Y00003208D01*
X00017050Y00003184D01*
X00016990Y00003170D01*
X00016929Y00003165D01*
X00016867Y00003170D01*
X00016807Y00003184D01*
X00016750Y00003208D01*
X00016697Y00003240D01*
X00016650Y00003280D01*
X00016610Y00003327D01*
X00016578Y00003380D01*
X00016554Y00003437D01*
X00016540Y00003497D01*
X00016535Y00003558D01*
X00016535Y00010614D01*
X00016929Y00010614D01*
X00016540Y00010675D01*
X00016554Y00010735D01*
X00016578Y00010793D01*
X00016610Y00010845D01*
X00016650Y00010892D01*
X00016697Y00010932D01*
X00016750Y00010965D01*
X00016807Y00010988D01*
X00016867Y00011003D01*
X00016929Y00011007D01*
X00016990Y00011003D01*
X00017050Y00010988D01*
X00017107Y00010965D01*
X00017160Y00010932D01*
X00017207Y00010892D01*
X00017247Y00010845D01*
X00017279Y00010793D01*
X00017303Y00010735D01*
X00017317Y00010675D01*
X00017322Y00010614D01*
X00017322Y00003558D01*
X00008661Y00030724D02*
X00008661Y00030724D01*
X00008656Y00030662D01*
X00008642Y00030602D01*
X00008618Y00030545D01*
X00008586Y00030492D01*
X00008546Y00030445D01*
X00008499Y00030405D01*
X00008446Y00030373D01*
X00008389Y00030349D01*
X00008329Y00030335D01*
X00008267Y00030330D01*
X00008206Y00030335D01*
X00008146Y00030349D01*
X00008088Y00030373D01*
X00008036Y00030405D01*
X00007989Y00030445D01*
X00007949Y00030492D01*
X00007916Y00030545D01*
X00007893Y00030602D01*
X00007878Y00030662D01*
X00008267Y00030724D01*
X00007874Y00030724D01*
X00007874Y00032283D01*
X00000000Y00032283D01*
X00000000Y00016535D01*
X00002740Y00016535D01*
X00002801Y00016530D01*
X00002861Y00016516D01*
X00002918Y00016492D01*
X00002971Y00016460D01*
X00003018Y00016420D01*
X00003058Y00016373D01*
X00003091Y00016320D01*
X00003114Y00016263D01*
X00003129Y00016203D01*
X00003133Y00016141D01*
X00003129Y00016080D01*
X00003114Y00016020D01*
X00003091Y00015962D01*
X00003058Y00015910D01*
X00003018Y00015863D01*
X00002971Y00015823D01*
X00002918Y00015790D01*
X00002861Y00015767D01*
X00002801Y00015752D01*
X00002740Y00015748D01*
X00002740Y00015748D01*
X00000000Y00015748D01*
X00000000Y00000000D01*
X00007874Y00000000D01*
X00007874Y00001165D01*
X00007874Y00001165D01*
X00007878Y00001227D01*
X00007893Y00001287D01*
X00007916Y00001344D01*
X00007949Y00001396D01*
X00007989Y00001443D01*
X00008036Y00001483D01*
X00008088Y00001516D01*
X00008146Y00001539D01*
X00008206Y00001554D01*
X00008267Y00001559D01*
X00008329Y00001554D01*
X00008389Y00001539D01*
X00008446Y00001516D01*
X00008499Y00001483D01*
X00008546Y00001443D01*
X00008586Y00001396D01*
X00008618Y00001344D01*
X00008642Y00001287D01*
X00008656Y00001227D01*
X00008661Y00001165D01*
X00008661Y00000000D01*
X00016535Y00000000D01*
X00016535Y00001165D01*
X00016535Y00001165D01*
X00016540Y00001227D01*
X00016554Y00001287D01*
X00016578Y00001344D01*
X00016610Y00001396D01*
X00016650Y00001443D01*
X00016697Y00001483D01*
X00016750Y00001516D01*
X00016807Y00001539D01*
X00016867Y00001554D01*
X00016929Y00001559D01*
X00016990Y00001554D01*
X00017050Y00001539D01*
X00017107Y00001516D01*
X00017160Y00001483D01*
X00017207Y00001443D01*
X00017247Y00001396D01*
X00017279Y00001344D01*
X00017303Y00001287D01*
X00017317Y00001227D01*
X00017322Y00001165D01*
X00017322Y00000000D01*
X00025196Y00000000D01*
X00025196Y00001165D01*
X00025196Y00001165D01*
X00025201Y00001227D01*
X00025216Y00001287D01*
X00025239Y00001344D01*
X00025272Y00001396D01*
X00025312Y00001443D01*
X00025359Y00001483D01*
X00025411Y00001516D01*
X00025468Y00001539D01*
X00025528Y00001554D01*
X00025590Y00001559D01*
X00025652Y00001554D01*
X00025712Y00001539D01*
X00025769Y00001516D01*
X00025821Y00001483D01*
X00025868Y00001443D01*
X00025909Y00001396D01*
X00025941Y00001344D01*
X00025964Y00001287D01*
X00025979Y00001227D01*
X00025984Y00001165D01*
X00025984Y00000000D01*
X00033858Y00000000D01*
X00033858Y00015748D01*
X00031118Y00015748D01*
X00031087Y00015749D01*
X00031056Y00015752D01*
X00031026Y00015758D01*
X00030996Y00015767D01*
X00030967Y00015778D01*
X00030939Y00015790D01*
X00030912Y00015806D01*
X00030886Y00015823D01*
X00030862Y00015842D01*
X00030839Y00015863D01*
X00030818Y00015886D01*
X00030799Y00015910D01*
X00030782Y00015936D01*
X00030767Y00015962D01*
X00030754Y00015991D01*
X00030743Y00016020D01*
X00030735Y00016049D01*
X00030729Y00016080D01*
X00030725Y00016110D01*
X00031118Y00016141D01*
X00030725Y00016172D01*
X00030729Y00016203D01*
X00030735Y00016233D01*
X00030743Y00016263D01*
X00030754Y00016292D01*
X00030767Y00016320D01*
X00030782Y00016347D01*
X00030799Y00016373D01*
X00030818Y00016397D01*
X00030839Y00016420D01*
X00030862Y00016441D01*
X00030886Y00016460D01*
X00030912Y00016477D01*
X00030939Y00016492D01*
X00030967Y00016505D01*
X00030996Y00016516D01*
X00031026Y00016524D01*
X00031056Y00016530D01*
X00031087Y00016534D01*
X00031118Y00016535D01*
X00033858Y00016535D01*
X00033858Y00032283D01*
X00025984Y00032283D01*
X00025984Y00030724D01*
X00025979Y00030662D01*
X00025964Y00030602D01*
X00025941Y00030545D01*
X00025909Y00030492D01*
X00025868Y00030445D01*
X00025821Y00030405D01*
X00025769Y00030373D01*
X00025712Y00030349D01*
X00025652Y00030335D01*
X00025590Y00030330D01*
X00025528Y00030335D01*
X00025468Y00030349D01*
X00025411Y00030373D01*
X00025359Y00030405D01*
X00025312Y00030445D01*
X00025272Y00030492D01*
X00025239Y00030545D01*
X00025216Y00030602D01*
X00025201Y00030662D01*
X00025590Y00030724D01*
X00025196Y00030724D01*
X00025196Y00032283D01*
X00017322Y00032283D01*
X00017322Y00030724D01*
X00017317Y00030662D01*
X00017303Y00030602D01*
X00017279Y00030545D01*
X00017247Y00030492D01*
X00017207Y00030445D01*
X00017160Y00030405D01*
X00017107Y00030373D01*
X00017050Y00030349D01*
X00016990Y00030335D01*
X00016929Y00030330D01*
X00016867Y00030335D01*
X00016807Y00030349D01*
X00016750Y00030373D01*
X00016697Y00030405D01*
X00016650Y00030445D01*
X00016610Y00030492D01*
X00016578Y00030545D01*
X00016554Y00030602D01*
X00016540Y00030662D01*
X00016929Y00030724D01*
X00016535Y00030724D01*
X00016535Y00032283D01*
X00008661Y00032283D01*
X00008661Y00030724D01*
X00008661Y00020881D02*
X00008661Y00020881D01*
X00008656Y00020820D01*
X00008642Y00020760D01*
X00008618Y00020703D01*
X00008586Y00020650D01*
X00008546Y00020603D01*
X00008499Y00020563D01*
X00008446Y00020530D01*
X00008389Y00020507D01*
X00008329Y00020492D01*
X00008267Y00020488D01*
X00008206Y00020492D01*
X00008146Y00020507D01*
X00008088Y00020530D01*
X00008036Y00020563D01*
X00007989Y00020603D01*
X00007949Y00020650D01*
X00007916Y00020703D01*
X00007893Y00020760D01*
X00007878Y00020820D01*
X00008267Y00020881D01*
X00007874Y00020881D01*
X00007874Y00028330D01*
X00008267Y00028330D01*
X00007878Y00028392D01*
X00007893Y00028452D01*
X00007916Y00028509D01*
X00007949Y00028562D01*
X00007989Y00028609D01*
X00008036Y00028649D01*
X00008088Y00028681D01*
X00008146Y00028705D01*
X00008206Y00028719D01*
X00008267Y00028724D01*
X00008329Y00028719D01*
X00008389Y00028705D01*
X00008446Y00028681D01*
X00008499Y00028649D01*
X00008546Y00028609D01*
X00008586Y00028562D01*
X00008618Y00028509D01*
X00008642Y00028452D01*
X00008656Y00028392D01*
X00008661Y00028330D01*
X00008661Y00020881D01*
X00008661Y00003558D02*
X00008661Y00003558D01*
X00008661Y00003558D01*
X00008656Y00003497D01*
X00008642Y00003437D01*
X00008618Y00003380D01*
X00008586Y00003327D01*
X00008546Y00003280D01*
X00008499Y00003240D01*
X00008446Y00003208D01*
X00008389Y00003184D01*
X00008329Y00003170D01*
X00008267Y00003165D01*
X00008206Y00003170D01*
X00008146Y00003184D01*
X00008088Y00003208D01*
X00008036Y00003240D01*
X00007989Y00003280D01*
X00007949Y00003327D01*
X00007916Y00003380D01*
X00007893Y00003437D01*
X00007878Y00003497D01*
X00007874Y00003558D01*
X00007874Y00010614D01*
X00008267Y00010614D01*
X00007878Y00010675D01*
X00007893Y00010735D01*
X00007916Y00010793D01*
X00007949Y00010845D01*
X00007989Y00010892D01*
X00008036Y00010932D01*
X00008088Y00010965D01*
X00008146Y00010988D01*
X00008206Y00011003D01*
X00008267Y00011007D01*
X00008329Y00011003D01*
X00008389Y00010988D01*
X00008446Y00010965D01*
X00008499Y00010932D01*
X00008546Y00010892D01*
X00008586Y00010845D01*
X00008618Y00010793D01*
X00008642Y00010735D01*
X00008656Y00010675D01*
X00008661Y00010614D01*
X00008661Y00003558D01*
M02*