%
M48
METRIC,000.000
T01C0.50
%
T01
X020250Y005607
X020250Y006607
X020250Y007607
X020250Y008607
X020250Y009607
X020250Y010607
X023750Y010178
X023750Y009178
X023750Y008178
X023750Y007178
X023750Y006178
X023750Y005178
X036785Y040250
X035785Y040250
X034785Y040250
X033785Y040250
X032785Y040250
X031785Y040250
X031429Y043750
X032429Y043750
X033429Y043750
X034429Y043750
X035429Y043750
X036429Y043750
X020250Y073607
X020250Y074607
X020250Y075607
X020250Y076607
X020250Y077607
X020250Y078607
X023750Y078178
X023750Y077178
X023750Y076178
X023750Y075178
X023750Y074178
X023750Y073178
X012785Y040250
X011785Y040250
X010785Y040250
X009785Y040250
X008785Y040250
X007785Y040250
X007429Y043750
X008429Y043750
X009429Y043750
X010429Y043750
X011429Y043750
X012429Y043750
X044250Y005607
X044250Y006607
X044250Y007607
X044250Y008607
X044250Y009607
X044250Y010607
X047750Y010178
X047750Y009178
X047750Y008178
X047750Y007178
X047750Y006178
X047750Y005178
X068250Y005607
X068250Y006607
X068250Y007607
X068250Y008607
X068250Y009607
X068250Y010607
X071750Y010178
X071750Y009178
X071750Y008178
X071750Y007178
X071750Y006178
X071750Y005178
X084785Y040250
X083785Y040250
X082785Y040250
X081785Y040250
X080785Y040250
X079785Y040250
X079429Y043750
X080429Y043750
X081429Y043750
X082429Y043750
X083429Y043750
X084429Y043750
X068250Y073607
X068250Y074607
X068250Y075607
X068250Y076607
X068250Y077607
X068250Y078607
X071750Y078178
X071750Y077178
X071750Y076178
X071750Y075178
X071750Y074178
X071750Y073178
X060785Y040250
X059785Y040250
X058785Y040250
X057785Y040250
X056785Y040250
X055785Y040250
X055429Y043750
X056429Y043750
X057429Y043750
X058429Y043750
X059429Y043750
X060429Y043750
X044250Y073607
X044250Y074607
X044250Y075607
X044250Y076607
X044250Y077607
X044250Y078607
X047750Y078178
X047750Y077178
X047750Y076178
X047750Y075178
X047750Y074178
X047750Y073178
X020250Y051607
X020250Y052607
X020250Y053607
X020250Y054607
X020250Y055607
X020250Y056607
X023750Y056178
X023750Y055178
X023750Y054178
X023750Y053178
X023750Y052178
X023750Y051178
X044250Y051607
X044250Y052607
X044250Y053607
X044250Y054607
X044250Y055607
X044250Y056607
X047750Y056178
X047750Y055178
X047750Y054178
X047750Y053178
X047750Y052178
X047750Y051178
X068250Y051607
X068250Y052607
X068250Y053607
X068250Y054607
X068250Y055607
X068250Y056607
X071750Y056178
X071750Y055178
X071750Y054178
X071750Y053178
X071750Y052178
X071750Y051178
X020250Y027607
X020250Y028607
X020250Y029607
X020250Y030607
X020250Y031607
X020250Y032607
X023750Y032178
X023750Y031178
X023750Y030178
X023750Y029178
X023750Y028178
X023750Y027178
X044250Y027607
X044250Y028607
X044250Y029607
X044250Y030607
X044250Y031607
X044250Y032607
X047750Y032178
X047750Y031178
X047750Y030178
X047750Y029178
X047750Y028178
X047750Y027178
X068250Y027607
X068250Y028607
X068250Y029607
X068250Y030607
X068250Y031607
X068250Y032607
X071750Y032178
X071750Y031178
X071750Y030178
X071750Y029178
X071750Y028178
X071750Y027178
M30