%MOIN*%
%OFA0B0*%
%FSLAX44Y44*%
%IPPOS*%
%LPD*%
%ADD10C,0*%
D10*
X00026771Y00015748D02*
X00026771Y00015748D01*
X00024013Y00015748D01*
X00023982Y00015749D01*
X00023951Y00015752D01*
X00023921Y00015758D01*
X00023891Y00015767D01*
X00023862Y00015778D01*
X00023834Y00015790D01*
X00023807Y00015806D01*
X00023781Y00015823D01*
X00023757Y00015842D01*
X00023734Y00015863D01*
X00023713Y00015886D01*
X00023694Y00015910D01*
X00023677Y00015936D01*
X00023662Y00015962D01*
X00023649Y00015991D01*
X00023638Y00016020D01*
X00023630Y00016049D01*
X00023624Y00016080D01*
X00023620Y00016110D01*
X00023619Y00016141D01*
X00023619Y00016929D01*
X00023620Y00016960D01*
X00023624Y00016990D01*
X00023630Y00017021D01*
X00023638Y00017050D01*
X00023649Y00017079D01*
X00023662Y00017107D01*
X00023677Y00017134D01*
X00023694Y00017160D01*
X00023713Y00017184D01*
X00023734Y00017207D01*
X00023757Y00017228D01*
X00023781Y00017247D01*
X00023807Y00017264D01*
X00023834Y00017279D01*
X00023862Y00017292D01*
X00023891Y00017303D01*
X00023921Y00017311D01*
X00023951Y00017317D01*
X00023982Y00017321D01*
X00024013Y00017322D01*
X00026771Y00017322D01*
X00026771Y00020081D01*
X00026772Y00020112D01*
X00026776Y00020142D01*
X00026782Y00020173D01*
X00026790Y00020203D01*
X00026801Y00020232D01*
X00026814Y00020260D01*
X00026829Y00020287D01*
X00026846Y00020312D01*
X00026865Y00020337D01*
X00026886Y00020359D01*
X00026909Y00020380D01*
X00026933Y00020399D01*
X00026959Y00020417D01*
X00026986Y00020432D01*
X00027014Y00020445D01*
X00027043Y00020455D01*
X00027073Y00020464D01*
X00027103Y00020470D01*
X00027134Y00020473D01*
X00027165Y00020475D01*
X00027952Y00020475D01*
X00027983Y00020473D01*
X00028014Y00020470D01*
X00028044Y00020464D01*
X00028074Y00020455D01*
X00028103Y00020445D01*
X00028131Y00020432D01*
X00028158Y00020417D01*
X00028184Y00020399D01*
X00028208Y00020380D01*
X00028231Y00020359D01*
X00028252Y00020337D01*
X00028271Y00020312D01*
X00028288Y00020287D01*
X00028303Y00020260D01*
X00028316Y00020232D01*
X00028327Y00020203D01*
X00028335Y00020173D01*
X00028341Y00020142D01*
X00028345Y00020112D01*
X00028346Y00020081D01*
X00028346Y00017322D01*
X00031104Y00017322D01*
X00031135Y00017321D01*
X00031166Y00017317D01*
X00031196Y00017311D01*
X00031226Y00017303D01*
X00031255Y00017292D01*
X00031283Y00017279D01*
X00031310Y00017264D01*
X00031336Y00017247D01*
X00031360Y00017228D01*
X00031383Y00017207D01*
X00031404Y00017184D01*
X00031423Y00017160D01*
X00031440Y00017134D01*
X00031455Y00017107D01*
X00031468Y00017079D01*
X00031479Y00017050D01*
X00031487Y00017021D01*
X00031493Y00016990D01*
X00031497Y00016960D01*
X00031498Y00016929D01*
X00031498Y00016141D01*
X00031497Y00016110D01*
X00031493Y00016080D01*
X00031487Y00016049D01*
X00031479Y00016020D01*
X00031468Y00015991D01*
X00031455Y00015962D01*
X00031440Y00015936D01*
X00031423Y00015910D01*
X00031404Y00015886D01*
X00031383Y00015863D01*
X00031360Y00015842D01*
X00031336Y00015823D01*
X00031310Y00015806D01*
X00031283Y00015790D01*
X00031255Y00015778D01*
X00031226Y00015767D01*
X00031196Y00015758D01*
X00031166Y00015752D01*
X00031135Y00015749D01*
X00031104Y00015748D01*
X00028346Y00015748D01*
X00028346Y00012989D01*
X00028345Y00012958D01*
X00028341Y00012927D01*
X00028335Y00012897D01*
X00028327Y00012867D01*
X00028316Y00012838D01*
X00028303Y00012810D01*
X00028288Y00012783D01*
X00028271Y00012758D01*
X00028252Y00012733D01*
X00028231Y00012711D01*
X00028208Y00012690D01*
X00028184Y00012670D01*
X00028158Y00012653D01*
X00028131Y00012638D01*
X00028103Y00012625D01*
X00028074Y00012615D01*
X00028044Y00012606D01*
X00028014Y00012600D01*
X00027983Y00012597D01*
X00027952Y00012595D01*
X00027165Y00012595D01*
X00027134Y00012597D01*
X00027103Y00012600D01*
X00027073Y00012606D01*
X00027043Y00012615D01*
X00027014Y00012625D01*
X00026986Y00012638D01*
X00026959Y00012653D01*
X00026933Y00012670D01*
X00026909Y00012690D01*
X00026886Y00012711D01*
X00026865Y00012733D01*
X00026846Y00012758D01*
X00026829Y00012783D01*
X00026814Y00012810D01*
X00026801Y00012838D01*
X00026790Y00012867D01*
X00026782Y00012897D01*
X00026776Y00012927D01*
X00026772Y00012958D01*
X00026771Y00012989D01*
X00026771Y00015748D01*
X00017322Y00015748D02*
X00017322Y00015748D01*
X00014564Y00015748D01*
X00014533Y00015749D01*
X00014502Y00015752D01*
X00014472Y00015758D01*
X00014442Y00015767D01*
X00014413Y00015778D01*
X00014385Y00015790D01*
X00014358Y00015806D01*
X00014332Y00015823D01*
X00014308Y00015842D01*
X00014285Y00015863D01*
X00014264Y00015886D01*
X00014245Y00015910D01*
X00014228Y00015936D01*
X00014213Y00015962D01*
X00014200Y00015991D01*
X00014189Y00016020D01*
X00014181Y00016049D01*
X00014175Y00016080D01*
X00014171Y00016110D01*
X00014170Y00016141D01*
X00014170Y00016929D01*
X00014171Y00016960D01*
X00014175Y00016990D01*
X00014181Y00017021D01*
X00014189Y00017050D01*
X00014200Y00017079D01*
X00014213Y00017107D01*
X00014228Y00017134D01*
X00014245Y00017160D01*
X00014264Y00017184D01*
X00014285Y00017207D01*
X00014308Y00017228D01*
X00014332Y00017247D01*
X00014358Y00017264D01*
X00014385Y00017279D01*
X00014413Y00017292D01*
X00014442Y00017303D01*
X00014472Y00017311D01*
X00014502Y00017317D01*
X00014533Y00017321D01*
X00014564Y00017322D01*
X00017322Y00017322D01*
X00017322Y00020081D01*
X00017324Y00020112D01*
X00017327Y00020142D01*
X00017333Y00020173D01*
X00017342Y00020203D01*
X00017352Y00020232D01*
X00017365Y00020260D01*
X00017380Y00020287D01*
X00017398Y00020312D01*
X00017417Y00020337D01*
X00017438Y00020359D01*
X00017460Y00020380D01*
X00017485Y00020399D01*
X00017510Y00020417D01*
X00017537Y00020432D01*
X00017565Y00020445D01*
X00017594Y00020455D01*
X00017624Y00020464D01*
X00017654Y00020470D01*
X00017685Y00020473D01*
X00017716Y00020475D01*
X00018503Y00020475D01*
X00018534Y00020473D01*
X00018565Y00020470D01*
X00018595Y00020464D01*
X00018625Y00020455D01*
X00018654Y00020445D01*
X00018682Y00020432D01*
X00018709Y00020417D01*
X00018735Y00020399D01*
X00018759Y00020380D01*
X00018782Y00020359D01*
X00018803Y00020337D01*
X00018822Y00020312D01*
X00018839Y00020287D01*
X00018854Y00020260D01*
X00018867Y00020232D01*
X00018878Y00020203D01*
X00018886Y00020173D01*
X00018892Y00020142D01*
X00018896Y00020112D01*
X00018897Y00020081D01*
X00018897Y00017322D01*
X00021656Y00017322D01*
X00021687Y00017321D01*
X00021717Y00017317D01*
X00021748Y00017311D01*
X00021777Y00017303D01*
X00021806Y00017292D01*
X00021834Y00017279D01*
X00021861Y00017264D01*
X00021887Y00017247D01*
X00021911Y00017228D01*
X00021934Y00017207D01*
X00021955Y00017184D01*
X00021974Y00017160D01*
X00021991Y00017134D01*
X00022006Y00017107D01*
X00022019Y00017079D01*
X00022030Y00017050D01*
X00022038Y00017021D01*
X00022045Y00016990D01*
X00022048Y00016960D01*
X00022049Y00016929D01*
X00022049Y00016141D01*
X00022048Y00016110D01*
X00022045Y00016080D01*
X00022038Y00016049D01*
X00022030Y00016020D01*
X00022019Y00015991D01*
X00022006Y00015962D01*
X00021991Y00015936D01*
X00021974Y00015910D01*
X00021955Y00015886D01*
X00021934Y00015863D01*
X00021911Y00015842D01*
X00021887Y00015823D01*
X00021861Y00015806D01*
X00021834Y00015790D01*
X00021806Y00015778D01*
X00021777Y00015767D01*
X00021748Y00015758D01*
X00021717Y00015752D01*
X00021687Y00015749D01*
X00021656Y00015748D01*
X00018897Y00015748D01*
X00018897Y00012989D01*
X00018896Y00012958D01*
X00018892Y00012927D01*
X00018886Y00012897D01*
X00018878Y00012867D01*
X00018867Y00012838D01*
X00018854Y00012810D01*
X00018839Y00012783D01*
X00018822Y00012758D01*
X00018803Y00012733D01*
X00018782Y00012711D01*
X00018759Y00012690D01*
X00018735Y00012670D01*
X00018709Y00012653D01*
X00018682Y00012638D01*
X00018654Y00012625D01*
X00018625Y00012615D01*
X00018595Y00012606D01*
X00018565Y00012600D01*
X00018534Y00012597D01*
X00018503Y00012595D01*
X00017716Y00012595D01*
X00017685Y00012597D01*
X00017654Y00012600D01*
X00017624Y00012606D01*
X00017594Y00012615D01*
X00017565Y00012625D01*
X00017537Y00012638D01*
X00017510Y00012653D01*
X00017485Y00012670D01*
X00017460Y00012690D01*
X00017438Y00012711D01*
X00017417Y00012733D01*
X00017398Y00012758D01*
X00017380Y00012783D01*
X00017365Y00012810D01*
X00017352Y00012838D01*
X00017342Y00012867D01*
X00017333Y00012897D01*
X00017327Y00012927D01*
X00017324Y00012958D01*
X00017322Y00012989D01*
X00017322Y00015748D01*
X00007874Y00012989D02*
X00007874Y00012989D01*
X00007874Y00015748D01*
X00005115Y00015748D01*
X00005084Y00015749D01*
X00005053Y00015752D01*
X00005023Y00015758D01*
X00004993Y00015767D01*
X00004964Y00015778D01*
X00004936Y00015790D01*
X00004909Y00015806D01*
X00004884Y00015823D01*
X00004859Y00015842D01*
X00004837Y00015863D01*
X00004816Y00015886D01*
X00004796Y00015910D01*
X00004779Y00015936D01*
X00004764Y00015962D01*
X00004751Y00015991D01*
X00004741Y00016020D01*
X00004732Y00016049D01*
X00004726Y00016080D01*
X00004722Y00016110D01*
X00004721Y00016141D01*
X00004721Y00016929D01*
X00004722Y00016960D01*
X00004726Y00016990D01*
X00004732Y00017021D01*
X00004741Y00017050D01*
X00004751Y00017079D01*
X00004764Y00017107D01*
X00004779Y00017134D01*
X00004796Y00017160D01*
X00004816Y00017184D01*
X00004837Y00017207D01*
X00004859Y00017228D01*
X00004884Y00017247D01*
X00004909Y00017264D01*
X00004936Y00017279D01*
X00004964Y00017292D01*
X00004993Y00017303D01*
X00005023Y00017311D01*
X00005053Y00017317D01*
X00005084Y00017321D01*
X00005115Y00017322D01*
X00007874Y00017322D01*
X00007874Y00020081D01*
X00007875Y00020112D01*
X00007878Y00020142D01*
X00007884Y00020173D01*
X00007893Y00020203D01*
X00007903Y00020232D01*
X00007916Y00020260D01*
X00007932Y00020287D01*
X00007949Y00020312D01*
X00007968Y00020337D01*
X00007989Y00020359D01*
X00008012Y00020380D01*
X00008036Y00020399D01*
X00008062Y00020417D01*
X00008088Y00020432D01*
X00008117Y00020445D01*
X00008146Y00020455D01*
X00008175Y00020464D01*
X00008206Y00020470D01*
X00008236Y00020473D01*
X00008267Y00020475D01*
X00009055Y00020475D01*
X00009086Y00020473D01*
X00009116Y00020470D01*
X00009147Y00020464D01*
X00009176Y00020455D01*
X00009205Y00020445D01*
X00009233Y00020432D01*
X00009260Y00020417D01*
X00009286Y00020399D01*
X00009310Y00020380D01*
X00009333Y00020359D01*
X00009354Y00020337D01*
X00009373Y00020312D01*
X00009390Y00020287D01*
X00009405Y00020260D01*
X00009418Y00020232D01*
X00009429Y00020203D01*
X00009437Y00020173D01*
X00009443Y00020142D01*
X00009447Y00020112D01*
X00009448Y00020081D01*
X00009448Y00017322D01*
X00012207Y00017322D01*
X00012238Y00017321D01*
X00012268Y00017317D01*
X00012299Y00017311D01*
X00012329Y00017303D01*
X00012358Y00017292D01*
X00012386Y00017279D01*
X00012413Y00017264D01*
X00012438Y00017247D01*
X00012463Y00017228D01*
X00012485Y00017207D01*
X00012506Y00017184D01*
X00012525Y00017160D01*
X00012543Y00017134D01*
X00012558Y00017107D01*
X00012571Y00017079D01*
X00012581Y00017050D01*
X00012590Y00017021D01*
X00012596Y00016990D01*
X00012599Y00016960D01*
X00012601Y00016929D01*
X00012601Y00016141D01*
X00012599Y00016110D01*
X00012596Y00016080D01*
X00012590Y00016049D01*
X00012581Y00016020D01*
X00012571Y00015991D01*
X00012558Y00015962D01*
X00012543Y00015936D01*
X00012525Y00015910D01*
X00012506Y00015886D01*
X00012485Y00015863D01*
X00012463Y00015842D01*
X00012438Y00015823D01*
X00012413Y00015806D01*
X00012386Y00015790D01*
X00012358Y00015778D01*
X00012329Y00015767D01*
X00012299Y00015758D01*
X00012268Y00015752D01*
X00012238Y00015749D01*
X00012207Y00015748D01*
X00009448Y00015748D01*
X00009448Y00012989D01*
X00009447Y00012958D01*
X00009443Y00012927D01*
X00009437Y00012897D01*
X00009429Y00012867D01*
X00009418Y00012838D01*
X00009405Y00012810D01*
X00009390Y00012783D01*
X00009373Y00012758D01*
X00009354Y00012733D01*
X00009333Y00012711D01*
X00009310Y00012690D01*
X00009286Y00012670D01*
X00009260Y00012653D01*
X00009233Y00012638D01*
X00009205Y00012625D01*
X00009176Y00012615D01*
X00009147Y00012606D01*
X00009116Y00012600D01*
X00009086Y00012597D01*
X00009055Y00012595D01*
X00008267Y00012595D01*
X00008236Y00012597D01*
X00008206Y00012600D01*
X00008175Y00012606D01*
X00008146Y00012615D01*
X00008117Y00012625D01*
X00008088Y00012638D01*
X00008062Y00012653D01*
X00008036Y00012670D01*
X00008012Y00012690D01*
X00007989Y00012711D01*
X00007968Y00012733D01*
X00007949Y00012758D01*
X00007932Y00012783D01*
X00007916Y00012810D01*
X00007903Y00012838D01*
X00007893Y00012867D01*
X00007884Y00012897D01*
X00007878Y00012927D01*
X00007875Y00012958D01*
X00007874Y00012989D01*
X00000000Y00000000D02*
X00000000Y00000000D01*
X00007874Y00000000D01*
X00007874Y00001971D01*
X00007875Y00002002D01*
X00007878Y00002032D01*
X00007884Y00002063D01*
X00007893Y00002092D01*
X00007903Y00002121D01*
X00007916Y00002149D01*
X00007932Y00002176D01*
X00007949Y00002202D01*
X00007968Y00002226D01*
X00007989Y00002249D01*
X00008012Y00002270D01*
X00008036Y00002289D01*
X00008062Y00002306D01*
X00008088Y00002321D01*
X00008117Y00002334D01*
X00008146Y00002345D01*
X00008175Y00002353D01*
X00008206Y00002359D01*
X00008236Y00002363D01*
X00008267Y00002364D01*
X00009055Y00002364D01*
X00009086Y00002363D01*
X00009116Y00002359D01*
X00009147Y00002353D01*
X00009176Y00002345D01*
X00009205Y00002334D01*
X00009233Y00002321D01*
X00009260Y00002306D01*
X00009286Y00002289D01*
X00009310Y00002270D01*
X00009333Y00002249D01*
X00009354Y00002226D01*
X00009373Y00002202D01*
X00009390Y00002176D01*
X00009405Y00002149D01*
X00009418Y00002121D01*
X00009429Y00002092D01*
X00009437Y00002063D01*
X00009443Y00002032D01*
X00009447Y00002002D01*
X00009448Y00001971D01*
X00009448Y00000000D01*
X00017322Y00000000D01*
X00017322Y00001971D01*
X00017324Y00002002D01*
X00017327Y00002032D01*
X00017333Y00002063D01*
X00017342Y00002092D01*
X00017352Y00002121D01*
X00017365Y00002149D01*
X00017380Y00002176D01*
X00017398Y00002202D01*
X00017417Y00002226D01*
X00017438Y00002249D01*
X00017460Y00002270D01*
X00017485Y00002289D01*
X00017510Y00002306D01*
X00017537Y00002321D01*
X00017565Y00002334D01*
X00017594Y00002345D01*
X00017624Y00002353D01*
X00017654Y00002359D01*
X00017685Y00002363D01*
X00017716Y00002364D01*
X00018503Y00002364D01*
X00018534Y00002363D01*
X00018565Y00002359D01*
X00018595Y00002353D01*
X00018625Y00002345D01*
X00018654Y00002334D01*
X00018682Y00002321D01*
X00018709Y00002306D01*
X00018735Y00002289D01*
X00018759Y00002270D01*
X00018782Y00002249D01*
X00018803Y00002226D01*
X00018822Y00002202D01*
X00018839Y00002176D01*
X00018854Y00002149D01*
X00018867Y00002121D01*
X00018878Y00002092D01*
X00018886Y00002063D01*
X00018892Y00002032D01*
X00018896Y00002002D01*
X00018897Y00001971D01*
X00018897Y00000000D01*
X00026771Y00000000D01*
X00026771Y00001971D01*
X00026772Y00002002D01*
X00026776Y00002032D01*
X00026782Y00002063D01*
X00026790Y00002092D01*
X00026801Y00002121D01*
X00026814Y00002149D01*
X00026829Y00002176D01*
X00026846Y00002202D01*
X00026865Y00002226D01*
X00026886Y00002249D01*
X00026909Y00002270D01*
X00026933Y00002289D01*
X00026959Y00002306D01*
X00026986Y00002321D01*
X00027014Y00002334D01*
X00027043Y00002345D01*
X00027073Y00002353D01*
X00027103Y00002359D01*
X00027134Y00002363D01*
X00027165Y00002364D01*
X00027952Y00002364D01*
X00027983Y00002363D01*
X00028014Y00002359D01*
X00028044Y00002353D01*
X00028074Y00002345D01*
X00028103Y00002334D01*
X00028131Y00002321D01*
X00028158Y00002306D01*
X00028184Y00002289D01*
X00028208Y00002270D01*
X00028231Y00002249D01*
X00028252Y00002226D01*
X00028271Y00002202D01*
X00028288Y00002176D01*
X00028303Y00002149D01*
X00028316Y00002121D01*
X00028327Y00002092D01*
X00028335Y00002063D01*
X00028341Y00002032D01*
X00028345Y00002002D01*
X00028346Y00001971D01*
X00028346Y00000000D01*
X00036220Y00000000D01*
X00036220Y00015748D01*
X00033461Y00015748D01*
X00033431Y00015749D01*
X00033400Y00015752D01*
X00033370Y00015758D01*
X00033340Y00015767D01*
X00033311Y00015778D01*
X00033283Y00015790D01*
X00033256Y00015806D01*
X00033230Y00015823D01*
X00033206Y00015842D01*
X00033183Y00015863D01*
X00033162Y00015886D01*
X00033143Y00015910D01*
X00033126Y00015936D01*
X00033111Y00015962D01*
X00033098Y00015991D01*
X00033087Y00016020D01*
X00033079Y00016049D01*
X00033073Y00016080D01*
X00033069Y00016110D01*
X00033068Y00016141D01*
X00033068Y00016929D01*
X00033069Y00016960D01*
X00033073Y00016990D01*
X00033079Y00017021D01*
X00033087Y00017050D01*
X00033098Y00017079D01*
X00033111Y00017107D01*
X00033126Y00017134D01*
X00033143Y00017160D01*
X00033162Y00017184D01*
X00033183Y00017207D01*
X00033206Y00017228D01*
X00033230Y00017247D01*
X00033256Y00017264D01*
X00033283Y00017279D01*
X00033311Y00017292D01*
X00033340Y00017303D01*
X00033370Y00017311D01*
X00033400Y00017317D01*
X00033431Y00017321D01*
X00033461Y00017322D01*
X00036220Y00017322D01*
X00036220Y00033070D01*
X00028346Y00033070D01*
X00028346Y00031099D01*
X00028345Y00031068D01*
X00028341Y00031038D01*
X00028335Y00031007D01*
X00028327Y00030978D01*
X00028316Y00030949D01*
X00028303Y00030920D01*
X00028288Y00030894D01*
X00028271Y00030868D01*
X00028252Y00030844D01*
X00028231Y00030821D01*
X00028208Y00030800D01*
X00028184Y00030781D01*
X00028158Y00030764D01*
X00028131Y00030748D01*
X00028103Y00030736D01*
X00028074Y00030725D01*
X00028044Y00030716D01*
X00028014Y00030710D01*
X00027983Y00030707D01*
X00027952Y00030706D01*
X00027165Y00030706D01*
X00027134Y00030707D01*
X00027103Y00030710D01*
X00027073Y00030716D01*
X00027043Y00030725D01*
X00027014Y00030736D01*
X00026986Y00030748D01*
X00026959Y00030764D01*
X00026933Y00030781D01*
X00026909Y00030800D01*
X00026886Y00030821D01*
X00026865Y00030844D01*
X00026846Y00030868D01*
X00026829Y00030894D01*
X00026814Y00030920D01*
X00026801Y00030949D01*
X00026790Y00030978D01*
X00026782Y00031007D01*
X00026776Y00031038D01*
X00026772Y00031068D01*
X00026771Y00031099D01*
X00026771Y00033070D01*
X00018897Y00033070D01*
X00018897Y00031099D01*
X00018896Y00031068D01*
X00018892Y00031038D01*
X00018886Y00031007D01*
X00018878Y00030978D01*
X00018867Y00030949D01*
X00018854Y00030920D01*
X00018839Y00030894D01*
X00018822Y00030868D01*
X00018803Y00030844D01*
X00018782Y00030821D01*
X00018759Y00030800D01*
X00018735Y00030781D01*
X00018709Y00030764D01*
X00018682Y00030748D01*
X00018654Y00030736D01*
X00018625Y00030725D01*
X00018595Y00030716D01*
X00018565Y00030710D01*
X00018534Y00030707D01*
X00018503Y00030706D01*
X00017716Y00030706D01*
X00017685Y00030707D01*
X00017654Y00030710D01*
X00017624Y00030716D01*
X00017594Y00030725D01*
X00017565Y00030736D01*
X00017537Y00030748D01*
X00017510Y00030764D01*
X00017485Y00030781D01*
X00017460Y00030800D01*
X00017438Y00030821D01*
X00017417Y00030844D01*
X00017398Y00030868D01*
X00017380Y00030894D01*
X00017365Y00030920D01*
X00017352Y00030949D01*
X00017342Y00030978D01*
X00017333Y00031007D01*
X00017327Y00031038D01*
X00017324Y00031068D01*
X00017322Y00031099D01*
X00017322Y00033070D01*
X00009448Y00033070D01*
X00009448Y00031099D01*
X00009447Y00031068D01*
X00009443Y00031038D01*
X00009437Y00031007D01*
X00009429Y00030978D01*
X00009418Y00030949D01*
X00009405Y00030920D01*
X00009390Y00030894D01*
X00009373Y00030868D01*
X00009354Y00030844D01*
X00009333Y00030821D01*
X00009310Y00030800D01*
X00009286Y00030781D01*
X00009260Y00030764D01*
X00009233Y00030748D01*
X00009205Y00030736D01*
X00009176Y00030725D01*
X00009147Y00030716D01*
X00009116Y00030710D01*
X00009086Y00030707D01*
X00009055Y00030706D01*
X00008267Y00030706D01*
X00008236Y00030707D01*
X00008206Y00030710D01*
X00008175Y00030716D01*
X00008146Y00030725D01*
X00008117Y00030736D01*
X00008088Y00030748D01*
X00008062Y00030764D01*
X00008036Y00030781D01*
X00008012Y00030800D01*
X00007989Y00030821D01*
X00007968Y00030844D01*
X00007949Y00030868D01*
X00007932Y00030894D01*
X00007916Y00030920D01*
X00007903Y00030949D01*
X00007893Y00030978D01*
X00007884Y00031007D01*
X00007878Y00031038D01*
X00007875Y00031068D01*
X00007874Y00031099D01*
X00007874Y00033070D01*
X00000000Y00033070D01*
X00000000Y00017322D01*
X00002758Y00017322D01*
X00002789Y00017321D01*
X00002820Y00017317D01*
X00002850Y00017311D01*
X00002880Y00017303D01*
X00002909Y00017292D01*
X00002937Y00017279D01*
X00002964Y00017264D01*
X00002989Y00017247D01*
X00003014Y00017228D01*
X00003036Y00017207D01*
X00003057Y00017184D01*
X00003077Y00017160D01*
X00003094Y00017134D01*
X00003109Y00017107D01*
X00003122Y00017079D01*
X00003132Y00017050D01*
X00003141Y00017021D01*
X00003147Y00016990D01*
X00003151Y00016960D01*
X00003152Y00016929D01*
X00003152Y00016141D01*
X00003151Y00016110D01*
X00003147Y00016080D01*
X00003141Y00016049D01*
X00003132Y00016020D01*
X00003122Y00015991D01*
X00003109Y00015962D01*
X00003094Y00015936D01*
X00003077Y00015910D01*
X00003057Y00015886D01*
X00003036Y00015863D01*
X00003014Y00015842D01*
X00002989Y00015823D01*
X00002964Y00015806D01*
X00002937Y00015790D01*
X00002909Y00015778D01*
X00002880Y00015767D01*
X00002850Y00015758D01*
X00002820Y00015752D01*
X00002789Y00015749D01*
X00002758Y00015748D01*
X00000000Y00015748D01*
X00000000Y00000000D01*
X00017322Y00028742D02*
X00017322Y00028742D01*
X00017324Y00028773D01*
X00017327Y00028804D01*
X00017333Y00028834D01*
X00017342Y00028864D01*
X00017352Y00028893D01*
X00017365Y00028921D01*
X00017380Y00028948D01*
X00017398Y00028974D01*
X00017417Y00028998D01*
X00017438Y00029021D01*
X00017460Y00029042D01*
X00017485Y00029061D01*
X00017510Y00029078D01*
X00017537Y00029093D01*
X00017565Y00029106D01*
X00017594Y00029117D01*
X00017624Y00029125D01*
X00017654Y00029131D01*
X00017685Y00029135D01*
X00017716Y00029136D01*
X00018503Y00029136D01*
X00018534Y00029135D01*
X00018565Y00029131D01*
X00018595Y00029125D01*
X00018625Y00029117D01*
X00018654Y00029106D01*
X00018682Y00029093D01*
X00018709Y00029078D01*
X00018735Y00029061D01*
X00018759Y00029042D01*
X00018782Y00029021D01*
X00018803Y00028998D01*
X00018822Y00028974D01*
X00018839Y00028948D01*
X00018854Y00028921D01*
X00018867Y00028893D01*
X00018878Y00028864D01*
X00018886Y00028834D01*
X00018892Y00028804D01*
X00018896Y00028773D01*
X00018897Y00028742D01*
X00018897Y00022438D01*
X00018896Y00022407D01*
X00018892Y00022376D01*
X00018886Y00022346D01*
X00018878Y00022316D01*
X00018867Y00022287D01*
X00018854Y00022259D01*
X00018839Y00022232D01*
X00018822Y00022206D01*
X00018803Y00022182D01*
X00018782Y00022159D01*
X00018759Y00022138D01*
X00018735Y00022119D01*
X00018709Y00022102D01*
X00018682Y00022087D01*
X00018654Y00022074D01*
X00018625Y00022063D01*
X00018595Y00022055D01*
X00018565Y00022049D01*
X00018534Y00022045D01*
X00018503Y00022044D01*
X00017716Y00022044D01*
X00017685Y00022045D01*
X00017654Y00022049D01*
X00017624Y00022055D01*
X00017594Y00022063D01*
X00017565Y00022074D01*
X00017537Y00022087D01*
X00017510Y00022102D01*
X00017485Y00022119D01*
X00017460Y00022138D01*
X00017438Y00022159D01*
X00017417Y00022182D01*
X00017398Y00022206D01*
X00017380Y00022232D01*
X00017365Y00022259D01*
X00017352Y00022287D01*
X00017342Y00022316D01*
X00017333Y00022346D01*
X00017327Y00022376D01*
X00017324Y00022407D01*
X00017322Y00022438D01*
X00017322Y00028742D01*
X00026771Y00028742D02*
X00026771Y00028742D01*
X00026772Y00028773D01*
X00026776Y00028804D01*
X00026782Y00028834D01*
X00026790Y00028864D01*
X00026801Y00028893D01*
X00026814Y00028921D01*
X00026829Y00028948D01*
X00026846Y00028974D01*
X00026865Y00028998D01*
X00026886Y00029021D01*
X00026909Y00029042D01*
X00026933Y00029061D01*
X00026959Y00029078D01*
X00026986Y00029093D01*
X00027014Y00029106D01*
X00027043Y00029117D01*
X00027073Y00029125D01*
X00027103Y00029131D01*
X00027134Y00029135D01*
X00027165Y00029136D01*
X00027952Y00029136D01*
X00027983Y00029135D01*
X00028014Y00029131D01*
X00028044Y00029125D01*
X00028074Y00029117D01*
X00028103Y00029106D01*
X00028131Y00029093D01*
X00028158Y00029078D01*
X00028184Y00029061D01*
X00028208Y00029042D01*
X00028231Y00029021D01*
X00028252Y00028998D01*
X00028271Y00028974D01*
X00028288Y00028948D01*
X00028303Y00028921D01*
X00028316Y00028893D01*
X00028327Y00028864D01*
X00028335Y00028834D01*
X00028341Y00028804D01*
X00028345Y00028773D01*
X00028346Y00028742D01*
X00028346Y00022438D01*
X00028345Y00022407D01*
X00028341Y00022376D01*
X00028335Y00022346D01*
X00028327Y00022316D01*
X00028316Y00022287D01*
X00028303Y00022259D01*
X00028288Y00022232D01*
X00028271Y00022206D01*
X00028252Y00022182D01*
X00028231Y00022159D01*
X00028208Y00022138D01*
X00028184Y00022119D01*
X00028158Y00022102D01*
X00028131Y00022087D01*
X00028103Y00022074D01*
X00028074Y00022063D01*
X00028044Y00022055D01*
X00028014Y00022049D01*
X00027983Y00022045D01*
X00027952Y00022044D01*
X00027165Y00022044D01*
X00027134Y00022045D01*
X00027103Y00022049D01*
X00027073Y00022055D01*
X00027043Y00022063D01*
X00027014Y00022074D01*
X00026986Y00022087D01*
X00026959Y00022102D01*
X00026933Y00022119D01*
X00026909Y00022138D01*
X00026886Y00022159D01*
X00026865Y00022182D01*
X00026846Y00022206D01*
X00026829Y00022232D01*
X00026814Y00022259D01*
X00026801Y00022287D01*
X00026790Y00022316D01*
X00026782Y00022346D01*
X00026776Y00022376D01*
X00026772Y00022407D01*
X00026771Y00022438D01*
X00026771Y00028742D01*
X00028346Y00004328D02*
X00028346Y00004328D01*
X00028345Y00004297D01*
X00028341Y00004266D01*
X00028335Y00004236D01*
X00028327Y00004206D01*
X00028316Y00004177D01*
X00028303Y00004149D01*
X00028288Y00004122D01*
X00028271Y00004096D01*
X00028252Y00004072D01*
X00028231Y00004049D01*
X00028208Y00004028D01*
X00028184Y00004009D01*
X00028158Y00003992D01*
X00028131Y00003977D01*
X00028103Y00003964D01*
X00028074Y00003953D01*
X00028044Y00003945D01*
X00028014Y00003939D01*
X00027983Y00003935D01*
X00027952Y00003934D01*
X00027165Y00003934D01*
X00027134Y00003935D01*
X00027103Y00003939D01*
X00027073Y00003945D01*
X00027043Y00003953D01*
X00027014Y00003964D01*
X00026986Y00003977D01*
X00026959Y00003992D01*
X00026933Y00004009D01*
X00026909Y00004028D01*
X00026886Y00004049D01*
X00026865Y00004072D01*
X00026846Y00004096D01*
X00026829Y00004122D01*
X00026814Y00004149D01*
X00026801Y00004177D01*
X00026790Y00004206D01*
X00026782Y00004236D01*
X00026776Y00004266D01*
X00026772Y00004297D01*
X00026771Y00004328D01*
X00026771Y00010632D01*
X00026772Y00010663D01*
X00026776Y00010694D01*
X00026782Y00010724D01*
X00026790Y00010754D01*
X00026801Y00010783D01*
X00026814Y00010811D01*
X00026829Y00010838D01*
X00026846Y00010863D01*
X00026865Y00010888D01*
X00026886Y00010910D01*
X00026909Y00010931D01*
X00026933Y00010951D01*
X00026959Y00010968D01*
X00026986Y00010983D01*
X00027014Y00010996D01*
X00027043Y00011006D01*
X00027073Y00011015D01*
X00027103Y00011021D01*
X00027134Y00011025D01*
X00027165Y00011026D01*
X00027952Y00011026D01*
X00027983Y00011025D01*
X00028014Y00011021D01*
X00028044Y00011015D01*
X00028074Y00011006D01*
X00028103Y00010996D01*
X00028131Y00010983D01*
X00028158Y00010968D01*
X00028184Y00010951D01*
X00028208Y00010931D01*
X00028231Y00010910D01*
X00028252Y00010888D01*
X00028271Y00010863D01*
X00028288Y00010838D01*
X00028303Y00010811D01*
X00028316Y00010783D01*
X00028327Y00010754D01*
X00028335Y00010724D01*
X00028341Y00010694D01*
X00028345Y00010663D01*
X00028346Y00010632D01*
X00028346Y00004328D01*
X00018897Y00004328D02*
X00018897Y00004328D01*
X00018896Y00004297D01*
X00018892Y00004266D01*
X00018886Y00004236D01*
X00018878Y00004206D01*
X00018867Y00004177D01*
X00018854Y00004149D01*
X00018839Y00004122D01*
X00018822Y00004096D01*
X00018803Y00004072D01*
X00018782Y00004049D01*
X00018759Y00004028D01*
X00018735Y00004009D01*
X00018709Y00003992D01*
X00018682Y00003977D01*
X00018654Y00003964D01*
X00018625Y00003953D01*
X00018595Y00003945D01*
X00018565Y00003939D01*
X00018534Y00003935D01*
X00018503Y00003934D01*
X00017716Y00003934D01*
X00017685Y00003935D01*
X00017654Y00003939D01*
X00017624Y00003945D01*
X00017594Y00003953D01*
X00017565Y00003964D01*
X00017537Y00003977D01*
X00017510Y00003992D01*
X00017485Y00004009D01*
X00017460Y00004028D01*
X00017438Y00004049D01*
X00017417Y00004072D01*
X00017398Y00004096D01*
X00017380Y00004122D01*
X00017365Y00004149D01*
X00017352Y00004177D01*
X00017342Y00004206D01*
X00017333Y00004236D01*
X00017327Y00004266D01*
X00017324Y00004297D01*
X00017322Y00004328D01*
X00017322Y00010632D01*
X00017324Y00010663D01*
X00017327Y00010694D01*
X00017333Y00010724D01*
X00017342Y00010754D01*
X00017352Y00010783D01*
X00017365Y00010811D01*
X00017380Y00010838D01*
X00017398Y00010863D01*
X00017417Y00010888D01*
X00017438Y00010910D01*
X00017460Y00010931D01*
X00017485Y00010951D01*
X00017510Y00010968D01*
X00017537Y00010983D01*
X00017565Y00010996D01*
X00017594Y00011006D01*
X00017624Y00011015D01*
X00017654Y00011021D01*
X00017685Y00011025D01*
X00017716Y00011026D01*
X00018503Y00011026D01*
X00018534Y00011025D01*
X00018565Y00011021D01*
X00018595Y00011015D01*
X00018625Y00011006D01*
X00018654Y00010996D01*
X00018682Y00010983D01*
X00018709Y00010968D01*
X00018735Y00010951D01*
X00018759Y00010931D01*
X00018782Y00010910D01*
X00018803Y00010888D01*
X00018822Y00010863D01*
X00018839Y00010838D01*
X00018854Y00010811D01*
X00018867Y00010783D01*
X00018878Y00010754D01*
X00018886Y00010724D01*
X00018892Y00010694D01*
X00018896Y00010663D01*
X00018897Y00010632D01*
X00018897Y00004328D01*
X00007874Y00028742D02*
X00007874Y00028742D01*
X00007875Y00028773D01*
X00007878Y00028804D01*
X00007884Y00028834D01*
X00007893Y00028864D01*
X00007903Y00028893D01*
X00007916Y00028921D01*
X00007932Y00028948D01*
X00007949Y00028974D01*
X00007968Y00028998D01*
X00007989Y00029021D01*
X00008012Y00029042D01*
X00008036Y00029061D01*
X00008062Y00029078D01*
X00008088Y00029093D01*
X00008117Y00029106D01*
X00008146Y00029117D01*
X00008175Y00029125D01*
X00008206Y00029131D01*
X00008236Y00029135D01*
X00008267Y00029136D01*
X00009055Y00029136D01*
X00009086Y00029135D01*
X00009116Y00029131D01*
X00009147Y00029125D01*
X00009176Y00029117D01*
X00009205Y00029106D01*
X00009233Y00029093D01*
X00009260Y00029078D01*
X00009286Y00029061D01*
X00009310Y00029042D01*
X00009333Y00029021D01*
X00009354Y00028998D01*
X00009373Y00028974D01*
X00009390Y00028948D01*
X00009405Y00028921D01*
X00009418Y00028893D01*
X00009429Y00028864D01*
X00009437Y00028834D01*
X00009443Y00028804D01*
X00009447Y00028773D01*
X00009448Y00028742D01*
X00009448Y00022438D01*
X00009447Y00022407D01*
X00009443Y00022376D01*
X00009437Y00022346D01*
X00009429Y00022316D01*
X00009418Y00022287D01*
X00009405Y00022259D01*
X00009390Y00022232D01*
X00009373Y00022206D01*
X00009354Y00022182D01*
X00009333Y00022159D01*
X00009310Y00022138D01*
X00009286Y00022119D01*
X00009260Y00022102D01*
X00009233Y00022087D01*
X00009205Y00022074D01*
X00009176Y00022063D01*
X00009147Y00022055D01*
X00009116Y00022049D01*
X00009086Y00022045D01*
X00009055Y00022044D01*
X00008267Y00022044D01*
X00008236Y00022045D01*
X00008206Y00022049D01*
X00008175Y00022055D01*
X00008146Y00022063D01*
X00008117Y00022074D01*
X00008088Y00022087D01*
X00008062Y00022102D01*
X00008036Y00022119D01*
X00008012Y00022138D01*
X00007989Y00022159D01*
X00007968Y00022182D01*
X00007949Y00022206D01*
X00007932Y00022232D01*
X00007916Y00022259D01*
X00007903Y00022287D01*
X00007893Y00022316D01*
X00007884Y00022346D01*
X00007878Y00022376D01*
X00007875Y00022407D01*
X00007874Y00022438D01*
X00007874Y00028742D01*
X00009448Y00004328D02*
X00009448Y00004328D01*
X00009447Y00004297D01*
X00009443Y00004266D01*
X00009437Y00004236D01*
X00009429Y00004206D01*
X00009418Y00004177D01*
X00009405Y00004149D01*
X00009390Y00004122D01*
X00009373Y00004096D01*
X00009354Y00004072D01*
X00009333Y00004049D01*
X00009310Y00004028D01*
X00009286Y00004009D01*
X00009260Y00003992D01*
X00009233Y00003977D01*
X00009205Y00003964D01*
X00009176Y00003953D01*
X00009147Y00003945D01*
X00009116Y00003939D01*
X00009086Y00003935D01*
X00009055Y00003934D01*
X00008267Y00003934D01*
X00008236Y00003935D01*
X00008206Y00003939D01*
X00008175Y00003945D01*
X00008146Y00003953D01*
X00008117Y00003964D01*
X00008088Y00003977D01*
X00008062Y00003992D01*
X00008036Y00004009D01*
X00008012Y00004028D01*
X00007989Y00004049D01*
X00007968Y00004072D01*
X00007949Y00004096D01*
X00007932Y00004122D01*
X00007916Y00004149D01*
X00007903Y00004177D01*
X00007893Y00004206D01*
X00007884Y00004236D01*
X00007878Y00004266D01*
X00007875Y00004297D01*
X00007874Y00004328D01*
X00007874Y00010632D01*
X00007875Y00010663D01*
X00007878Y00010694D01*
X00007884Y00010724D01*
X00007893Y00010754D01*
X00007903Y00010783D01*
X00007916Y00010811D01*
X00007932Y00010838D01*
X00007949Y00010863D01*
X00007968Y00010888D01*
X00007989Y00010910D01*
X00008012Y00010931D01*
X00008036Y00010951D01*
X00008062Y00010968D01*
X00008088Y00010983D01*
X00008117Y00010996D01*
X00008146Y00011006D01*
X00008175Y00011015D01*
X00008206Y00011021D01*
X00008236Y00011025D01*
X00008267Y00011026D01*
X00009055Y00011026D01*
X00009086Y00011025D01*
X00009116Y00011021D01*
X00009147Y00011015D01*
X00009176Y00011006D01*
X00009205Y00010996D01*
X00009233Y00010983D01*
X00009260Y00010968D01*
X00009286Y00010951D01*
X00009310Y00010931D01*
X00009333Y00010910D01*
X00009354Y00010888D01*
X00009373Y00010863D01*
X00009390Y00010838D01*
X00009405Y00010811D01*
X00009418Y00010783D01*
X00009429Y00010754D01*
X00009437Y00010724D01*
X00009443Y00010694D01*
X00009447Y00010663D01*
X00009448Y00010632D01*
X00009448Y00004328D01*
M02*