%
M48
METRIC,000.000
T01C0.40
T02C0.80
T03C1.00
T04C2.20
%
T01
X000713Y037192
X000898Y023199
X000898Y022399
X000898Y021599
X001899Y019399
X001899Y017999
X001899Y016399
X001899Y014799
X003400Y014050
X003542Y029216
X004000Y015350
X004299Y021200
X004398Y034400
X004398Y008800
X004398Y006750
X004736Y030898
X004751Y030029
X004795Y029216
X005099Y010148
X005242Y037700
X005699Y004499
X005801Y023001
X005801Y021799
X006499Y014400
X007225Y020491
X007899Y026100
X007934Y020019
X007965Y020816
X008173Y021639
X008699Y036801
X009806Y023364
X011051Y001649
X011300Y020499
X011300Y011213
X011800Y004499
X012199Y020400
X012610Y036717
X013100Y020400
X014200Y020900
X015262Y019953
X016400Y025800
X016601Y022749
X016750Y017100
X017401Y030699
X017624Y024075
X017799Y001251
X018198Y021200
X018224Y022549
X018650Y002150
X018650Y001251
X000713Y080192
X000898Y066199
X000898Y065399
X000898Y064599
X001899Y062399
X001899Y060999
X001899Y059399
X001899Y057799
X003400Y057050
X003542Y072216
X004000Y058350
X004299Y064200
X004398Y077400
X004398Y051800
X004398Y049750
X004736Y073898
X004751Y073029
X004795Y072216
X005099Y053148
X005242Y080700
X005699Y047499
X005801Y066001
X005801Y064799
X006499Y057400
X007225Y063491
X007899Y069100
X007934Y063019
X007965Y063816
X008173Y064638
X008699Y079801
X009806Y066364
X011051Y044649
X011300Y063499
X011300Y054213
X011800Y047499
X012199Y063400
X012610Y079717
X013100Y063400
X014200Y063900
X015262Y062953
X016400Y068800
X016601Y065749
X016750Y060100
X017401Y073699
X017624Y067075
X017799Y044251
X018198Y064200
X018224Y065549
X018650Y045150
X018650Y044251
X023713Y037192
X023898Y023199
X023898Y022399
X023898Y021599
X024899Y019399
X024899Y017999
X024899Y016399
X024899Y014799
X026400Y014050
X026542Y029216
X027000Y015350
X027299Y021200
X027398Y034400
X027398Y008800
X027398Y006750
X027736Y030898
X027751Y030029
X027795Y029216
X028099Y010148
X028242Y037700
X028699Y004499
X028801Y023001
X028801Y021799
X029499Y014400
X030225Y020491
X030899Y026100
X030934Y020019
X030965Y020816
X031173Y021639
X031699Y036801
X032806Y023364
X034051Y001649
X034300Y020499
X034300Y011213
X034800Y004499
X035199Y020400
X035610Y036717
X036100Y020400
X037200Y020900
X038262Y019953
X039400Y025800
X039601Y022749
X039750Y017100
X040401Y030699
X040624Y024075
X040799Y001251
X041198Y021200
X041224Y022549
X041650Y002150
X041650Y001251
X046713Y037192
X046898Y023199
X046898Y022399
X046898Y021599
X047899Y019399
X047899Y017999
X047899Y016399
X047899Y014799
X049400Y014050
X049542Y029216
X050000Y015350
X050299Y021200
X050398Y034400
X050398Y008800
X050398Y006750
X050736Y030898
X050751Y030029
X050795Y029216
X051099Y010148
X051242Y037700
X051699Y004499
X051801Y023001
X051801Y021799
X052499Y014400
X053225Y020491
X053899Y026100
X053934Y020019
X053965Y020816
X054173Y021639
X054699Y036801
X055806Y023364
X057051Y001649
X057300Y020499
X057300Y011213
X057800Y004499
X058199Y020400
X058610Y036717
X059100Y020400
X060200Y020900
X061262Y019953
X062400Y025800
X062601Y022749
X062750Y017100
X063401Y030699
X063624Y024075
X063799Y001251
X064197Y021200
X064224Y022549
X064650Y002150
X064650Y001251
X069713Y037192
X069898Y023199
X069898Y022399
X069898Y021599
X070899Y019399
X070899Y017999
X070899Y016399
X070899Y014799
X072400Y014050
X072542Y029216
X073000Y015350
X073299Y021200
X073398Y034400
X073398Y008800
X073398Y006750
X073736Y030898
X073751Y030029
X073795Y029216
X074099Y010148
X074242Y037700
X074699Y004499
X074801Y023001
X074801Y021799
X075499Y014400
X076225Y020491
X076899Y026100
X076934Y020019
X076965Y020816
X077173Y021639
X077699Y036801
X078806Y023364
X080051Y001649
X080300Y020499
X080300Y011213
X080800Y004499
X081199Y020400
X081610Y036717
X082100Y020400
X083200Y020900
X084262Y019953
X085400Y025800
X085601Y022749
X085750Y017100
X086401Y030699
X086624Y024075
X086799Y001251
X087198Y021200
X087224Y022549
X087650Y002150
X087650Y001251
X023713Y080192
X023898Y066199
X023898Y065399
X023898Y064599
X024899Y062399
X024899Y060999
X024899Y059399
X024899Y057799
X026400Y057050
X026542Y072216
X027000Y058350
X027299Y064200
X027398Y077400
X027398Y051800
X027398Y049750
X027736Y073898
X027751Y073029
X027795Y072216
X028099Y053148
X028242Y080700
X028699Y047499
X028801Y066001
X028801Y064799
X029499Y057400
X030225Y063491
X030899Y069100
X030934Y063019
X030965Y063816
X031173Y064638
X031699Y079801
X032806Y066364
X034051Y044649
X034300Y063499
X034300Y054213
X034800Y047499
X035199Y063400
X035610Y079717
X036100Y063400
X037200Y063900
X038262Y062953
X039400Y068800
X039601Y065749
X039750Y060100
X040401Y073699
X040624Y067075
X040799Y044251
X041198Y064200
X041224Y065549
X041650Y045150
X041650Y044251
X046713Y080192
X046898Y066199
X046898Y065399
X046898Y064599
X047899Y062399
X047899Y060999
X047899Y059399
X047899Y057799
X049400Y057050
X049542Y072216
X050000Y058350
X050299Y064200
X050398Y077400
X050398Y051800
X050398Y049750
X050736Y073898
X050751Y073029
X050795Y072216
X051099Y053148
X051242Y080700
X051699Y047499
X051801Y066001
X051801Y064799
X052499Y057400
X053225Y063491
X053899Y069100
X053934Y063019
X053965Y063816
X054173Y064638
X054699Y079801
X055806Y066364
X057051Y044649
X057300Y063499
X057300Y054213
X057800Y047499
X058199Y063400
X058610Y079717
X059100Y063400
X060200Y063900
X061262Y062953
X062400Y068800
X062601Y065749
X062750Y060100
X063401Y073699
X063624Y067075
X063799Y044251
X064197Y064200
X064224Y065549
X064650Y045150
X064650Y044251
X069713Y080192
X069898Y066199
X069898Y065399
X069898Y064599
X070899Y062399
X070899Y060999
X070899Y059399
X070899Y057799
X072400Y057050
X072542Y072216
X073000Y058350
X073299Y064200
X073398Y077400
X073398Y051800
X073398Y049750
X073736Y073898
X073751Y073029
X073795Y072216
X074099Y053148
X074242Y080700
X074699Y047499
X074801Y066001
X074801Y064799
X075499Y057400
X076225Y063491
X076899Y069100
X076934Y063019
X076965Y063816
X077173Y064638
X077699Y079801
X078806Y066364
X080051Y044649
X080300Y063499
X080300Y054213
X080800Y047499
X081199Y063400
X081610Y079717
X082100Y063400
X083200Y063900
X084262Y062953
X085400Y068800
X085601Y065749
X085750Y060100
X086401Y073699
X086624Y067075
X086799Y044251
X087198Y064200
X087224Y065549
X087650Y045150
X087650Y044251
T02
X001830Y038576
X001830Y081576
X024830Y038576
X047830Y038576
X070830Y038576
X024830Y081576
X047830Y081576
X070830Y081576
T03
X018658Y011398
X018658Y008858
X018658Y006318
X001300Y011401
X001300Y008861
X001300Y006321
X018658Y054398
X018658Y051858
X018658Y049318
X001300Y054401
X001300Y051861
X001300Y049321
X041658Y011398
X041658Y008858
X041658Y006318
X024300Y011401
X024300Y008861
X024300Y006321
X064658Y011398
X064658Y008858
X064658Y006318
X047300Y011401
X047300Y008861
X047300Y006321
X087658Y011398
X087658Y008858
X087658Y006318
X070300Y011401
X070300Y008861
X070300Y006321
X041658Y054398
X041658Y051858
X041658Y049318
X024300Y054401
X024300Y051861
X024300Y049321
X064658Y054398
X064658Y051858
X064658Y049318
X047300Y054401
X047300Y051861
X047300Y049321
X087658Y054398
X087658Y051858
X087658Y049318
X070300Y054401
X070300Y051861
X070300Y049321
T04
X001957Y001810
X018086Y038259
X001957Y044810
X018086Y081259
X024957Y001810
X041086Y038259
X047957Y001810
X064086Y038259
X070957Y001810
X087086Y038259
X024957Y044810
X041086Y081259
X047957Y044810
X064086Y081259
X070957Y044810
X087086Y081259
M30