%MOIN*%
%OFA0B0*%
%FSLAX46Y46*%
%IPPOS*%
%LPD*%
%ADD10C,0.005905511811023622*%
%ADD11C,0.0039370078740157488*%
%ADD12C,0.0047244094488188976*%
%ADD23C,0.005905511811023622*%
%ADD24C,0.0039370078740157488*%
%ADD25C,0.0047244094488188976*%
%ADD26C,0.005905511811023622*%
%ADD27C,0.0039370078740157488*%
%ADD28C,0.0047244094488188976*%
%ADD29C,0.005905511811023622*%
%ADD30C,0.0039370078740157488*%
%ADD31C,0.0047244094488188976*%
%ADD32C,0.005905511811023622*%
%ADD33C,0.0039370078740157488*%
%ADD34C,0.0047244094488188976*%
%ADD35C,0.005905511811023622*%
%ADD36C,0.0039370078740157488*%
%ADD37C,0.0047244094488188976*%
%ADD38C,0.005905511811023622*%
%ADD39C,0.0039370078740157488*%
%ADD40C,0.0047244094488188976*%
%ADD41C,0.005905511811023622*%
%ADD42C,0.0039370078740157488*%
%ADD43C,0.0047244094488188976*%
D10*
X0000095519Y0000905949D02*
X0000095519Y0000945319D01*
X0000078646Y0000907824D02*
X0000073022Y0000905949D01*
X0000063648Y0000905949D01*
X0000059898Y0000907824D01*
X0000058023Y0000909699D01*
X0000056149Y0000913448D01*
X0000056149Y0000917198D01*
X0000058023Y0000920947D01*
X0000059898Y0000922822D01*
X0000063648Y0000924697D01*
X0000071147Y0000926572D01*
X0000074896Y0000928446D01*
X0000076771Y0000930321D01*
X0000078646Y0000934071D01*
X0000078646Y0000937820D01*
X0000076771Y0000941570D01*
X0000074896Y0000943444D01*
X0000071147Y0000945319D01*
X0000061773Y0000945319D01*
X0000056149Y0000943444D01*
X0000039276Y0000905949D02*
X0000039276Y0000945319D01*
X0000024278Y0000945319D01*
X0000020528Y0000943444D01*
X0000018653Y0000941570D01*
X0000016779Y0000937820D01*
X0000016779Y0000932196D01*
X0000018653Y0000928446D01*
X0000020528Y0000926572D01*
X0000024278Y0000924697D01*
X0000039276Y0000924697D01*
D11*
X0000199206Y0000995573D02*
X0000199206Y0001019195D01*
X0000191332Y0001002322D01*
X0000183458Y0001019195D01*
X0000183458Y0000995573D01*
X0000172210Y0000995573D02*
X0000172210Y0001019195D01*
X0000162086Y0000996698D02*
X0000158711Y0000995573D01*
X0000153087Y0000995573D01*
X0000150837Y0000996698D01*
X0000149713Y0000997823D01*
X0000148588Y0001000073D01*
X0000148588Y0001002322D01*
X0000149713Y0001004572D01*
X0000150837Y0001005697D01*
X0000153087Y0001006822D01*
X0000157587Y0001007947D01*
X0000159836Y0001009072D01*
X0000160961Y0001010196D01*
X0000162086Y0001012446D01*
X0000162086Y0001014696D01*
X0000160961Y0001016945D01*
X0000159836Y0001018070D01*
X0000157587Y0001019195D01*
X0000151962Y0001019195D01*
X0000148588Y0001018070D01*
X0000133965Y0001019195D02*
X0000129465Y0001019195D01*
X0000127215Y0001018070D01*
X0000124966Y0001015821D01*
X0000123841Y0001011321D01*
X0000123841Y0001003447D01*
X0000124966Y0000998948D01*
X0000127215Y0000996698D01*
X0000129465Y0000995573D01*
X0000133965Y0000995573D01*
X0000136214Y0000996698D01*
X0000138464Y0000998948D01*
X0000139589Y0001003447D01*
X0000139589Y0001011321D01*
X0000138464Y0001015821D01*
X0000136214Y0001018070D01*
X0000133965Y0001019195D01*
X0000187457Y0001096698D02*
X0000184083Y0001095573D01*
X0000178458Y0001095573D01*
X0000176209Y0001096698D01*
X0000175084Y0001097823D01*
X0000173959Y0001100073D01*
X0000173959Y0001102322D01*
X0000175084Y0001104572D01*
X0000176209Y0001105697D01*
X0000178458Y0001106822D01*
X0000182958Y0001107947D01*
X0000185208Y0001109072D01*
X0000186332Y0001110196D01*
X0000187457Y0001112446D01*
X0000187457Y0001114696D01*
X0000186332Y0001116946D01*
X0000185208Y0001118070D01*
X0000182958Y0001119195D01*
X0000177334Y0001119195D01*
X0000173959Y0001118070D01*
X0000150337Y0001097823D02*
X0000151462Y0001096698D01*
X0000154836Y0001095573D01*
X0000157086Y0001095573D01*
X0000160461Y0001096698D01*
X0000162710Y0001098948D01*
X0000163835Y0001101197D01*
X0000164960Y0001105697D01*
X0000164960Y0001109072D01*
X0000163835Y0001113571D01*
X0000162710Y0001115821D01*
X0000160461Y0001118070D01*
X0000157086Y0001119195D01*
X0000154836Y0001119195D01*
X0000151462Y0001118070D01*
X0000150337Y0001116946D01*
X0000140213Y0001095573D02*
X0000140213Y0001119195D01*
X0000126715Y0001095573D02*
X0000136839Y0001109072D01*
X0000126715Y0001119195D02*
X0000140213Y0001105697D01*
X0000211394Y0001195573D02*
X0000219268Y0001206822D01*
X0000224893Y0001195573D02*
X0000224893Y0001219195D01*
X0000215894Y0001219195D01*
X0000213644Y0001218070D01*
X0000212519Y0001216945D01*
X0000211394Y0001214696D01*
X0000211394Y0001211321D01*
X0000212519Y0001209072D01*
X0000213644Y0001207947D01*
X0000215894Y0001206822D01*
X0000224893Y0001206822D01*
X0000201271Y0001207947D02*
X0000193397Y0001207947D01*
X0000190022Y0001195573D02*
X0000201271Y0001195573D01*
X0000201271Y0001219195D01*
X0000190022Y0001219195D01*
X0000181023Y0001196698D02*
X0000177648Y0001195573D01*
X0000172024Y0001195573D01*
X0000169775Y0001196698D01*
X0000168650Y0001197823D01*
X0000167525Y0001200073D01*
X0000167525Y0001202322D01*
X0000168650Y0001204572D01*
X0000169775Y0001205697D01*
X0000172024Y0001206822D01*
X0000176524Y0001207947D01*
X0000178773Y0001209072D01*
X0000179898Y0001210196D01*
X0000181023Y0001212446D01*
X0000181023Y0001214696D01*
X0000179898Y0001216945D01*
X0000178773Y0001218070D01*
X0000176524Y0001219195D01*
X0000170899Y0001219195D01*
X0000167525Y0001218070D01*
X0000157401Y0001207947D02*
X0000149527Y0001207947D01*
X0000146152Y0001195573D02*
X0000157401Y0001195573D01*
X0000157401Y0001219195D01*
X0000146152Y0001219195D01*
X0000139403Y0001219195D02*
X0000125905Y0001219195D01*
X0000132654Y0001195573D02*
X0000132654Y0001219195D01*
X0000199206Y0001390573D02*
X0000199206Y0001414195D01*
X0000191332Y0001397322D01*
X0000183458Y0001414195D01*
X0000183458Y0001390573D01*
X0000167710Y0001414195D02*
X0000163211Y0001414195D01*
X0000160961Y0001413070D01*
X0000158711Y0001410821D01*
X0000157587Y0001406321D01*
X0000157587Y0001398447D01*
X0000158711Y0001393948D01*
X0000160961Y0001391698D01*
X0000163211Y0001390573D01*
X0000167710Y0001390573D01*
X0000169960Y0001391698D01*
X0000172210Y0001393948D01*
X0000173335Y0001398447D01*
X0000173335Y0001406321D01*
X0000172210Y0001410821D01*
X0000169960Y0001413070D01*
X0000167710Y0001414195D01*
X0000148588Y0001391698D02*
X0000145213Y0001390573D01*
X0000139589Y0001390573D01*
X0000137339Y0001391698D01*
X0000136214Y0001392823D01*
X0000135089Y0001395073D01*
X0000135089Y0001397322D01*
X0000136214Y0001399572D01*
X0000137339Y0001400697D01*
X0000139589Y0001401822D01*
X0000144088Y0001402947D01*
X0000146338Y0001404071D01*
X0000147463Y0001405196D01*
X0000148588Y0001407446D01*
X0000148588Y0001409696D01*
X0000147463Y0001411946D01*
X0000146338Y0001413070D01*
X0000144088Y0001414195D01*
X0000138464Y0001414195D01*
X0000135089Y0001413070D01*
X0000124966Y0001390573D02*
X0000124966Y0001414195D01*
D12*
X0000448425Y0000177165D02*
X0000448425Y0000322293D01*
X0000583070Y0000177165D02*
X0000583070Y0000322293D01*
X0000339025Y0000090157D02*
X0000318454Y0000090157D01*
X0000339025Y0000146062D02*
X0000318454Y0000146062D01*
X0000305561Y0000357874D02*
X0000284990Y0000357874D01*
X0000305561Y0000413779D02*
X0000284990Y0000413779D01*
X0000702214Y0000564566D02*
X0000681643Y0000564566D01*
X0000702214Y0000620472D02*
X0000681643Y0000620472D01*
D10*
X0000772047Y0000697559D02*
X0000142125Y0000697559D01*
X0000142125Y0000697559D02*
X0000142125Y0001445590D01*
X0000142125Y0001445590D02*
X0000772047Y0001445590D01*
X0000772047Y0001445590D02*
X0000772047Y0000697559D01*
D12*
X0000390157Y0000288582D02*
X0000390157Y0000192913D01*
X0000269291Y0000219291D02*
X0000269291Y0000288582D01*
D10*
X0000623359Y0000123547D02*
X0000638357Y0000123547D01*
X0000638357Y0000155043D01*
X0000596362Y0000123547D02*
X0000614360Y0000123547D01*
X0000605361Y0000123547D02*
X0000605361Y0000155043D01*
X0000608361Y0000150543D01*
X0000611361Y0000147544D01*
X0000614360Y0000146044D01*
X0000339238Y0000037120D02*
X0000341113Y0000035245D01*
X0000346737Y0000033370D01*
X0000350487Y0000033370D01*
X0000356111Y0000035245D01*
X0000359861Y0000038995D01*
X0000361736Y0000042744D01*
X0000363610Y0000050243D01*
X0000363610Y0000055868D01*
X0000361736Y0000063367D01*
X0000359861Y0000067116D01*
X0000356111Y0000070866D01*
X0000350487Y0000072740D01*
X0000346737Y0000072740D01*
X0000341113Y0000070866D01*
X0000339238Y0000068991D01*
X0000326115Y0000072740D02*
X0000299868Y0000072740D01*
X0000316741Y0000033370D01*
X0000303805Y0000430821D02*
X0000305680Y0000428946D01*
X0000311304Y0000427071D01*
X0000315054Y0000427071D01*
X0000320678Y0000428946D01*
X0000324428Y0000432695D01*
X0000326302Y0000436445D01*
X0000328177Y0000443944D01*
X0000328177Y0000449568D01*
X0000326302Y0000457067D01*
X0000324428Y0000460817D01*
X0000320678Y0000464566D01*
X0000315054Y0000466441D01*
X0000311304Y0000466441D01*
X0000305680Y0000464566D01*
X0000303805Y0000462692D01*
X0000270059Y0000466441D02*
X0000277559Y0000466441D01*
X0000281308Y0000464566D01*
X0000283183Y0000462692D01*
X0000286932Y0000457067D01*
X0000288807Y0000449568D01*
X0000288807Y0000434570D01*
X0000286932Y0000430821D01*
X0000285058Y0000428946D01*
X0000281308Y0000427071D01*
X0000273809Y0000427071D01*
X0000270059Y0000428946D01*
X0000268185Y0000430821D01*
X0000266310Y0000434570D01*
X0000266310Y0000443944D01*
X0000268185Y0000447694D01*
X0000270059Y0000449568D01*
X0000273809Y0000451443D01*
X0000281308Y0000451443D01*
X0000285058Y0000449568D01*
X0000286932Y0000447694D01*
X0000288807Y0000443944D01*
X0000697506Y0000513498D02*
X0000699381Y0000511623D01*
X0000705005Y0000509748D01*
X0000708755Y0000509748D01*
X0000714379Y0000511623D01*
X0000718128Y0000515373D01*
X0000720003Y0000519122D01*
X0000721878Y0000526621D01*
X0000721878Y0000532245D01*
X0000720003Y0000539745D01*
X0000718128Y0000543494D01*
X0000714379Y0000547244D01*
X0000708755Y0000549118D01*
X0000705005Y0000549118D01*
X0000699381Y0000547244D01*
X0000697506Y0000545369D01*
X0000684383Y0000549118D02*
X0000660011Y0000549118D01*
X0000673134Y0000534120D01*
X0000667510Y0000534120D01*
X0000663760Y0000532245D01*
X0000661885Y0000530371D01*
X0000660011Y0000526621D01*
X0000660011Y0000517247D01*
X0000661885Y0000513498D01*
X0000663760Y0000511623D01*
X0000667510Y0000509748D01*
X0000678758Y0000509748D01*
X0000682508Y0000511623D01*
X0000684383Y0000513498D01*
X0000512467Y0000560554D02*
X0000512467Y0000538057D01*
X0000513966Y0000533558D01*
X0000516966Y0000530558D01*
X0000521466Y0000529058D01*
X0000524465Y0000529058D01*
X0000497469Y0000529058D02*
X0000497469Y0000560554D01*
X0000485470Y0000560554D01*
X0000482470Y0000559055D01*
X0000480971Y0000557555D01*
X0000479471Y0000554555D01*
X0000479471Y0000550056D01*
X0000480971Y0000547056D01*
X0000482470Y0000545556D01*
X0000485470Y0000544056D01*
X0000497469Y0000544056D01*
X0000449475Y0000529058D02*
X0000467472Y0000529058D01*
X0000458473Y0000529058D02*
X0000458473Y0000560554D01*
X0000461473Y0000556055D01*
X0000464473Y0000553055D01*
X0000467472Y0000551556D01*
X0000495519Y0000955339D02*
X0000495519Y0000994709D01*
X0000454274Y0000959088D02*
X0000456149Y0000957214D01*
X0000461773Y0000955339D01*
X0000465523Y0000955339D01*
X0000471147Y0000957214D01*
X0000474896Y0000960963D01*
X0000476771Y0000964713D01*
X0000478646Y0000972212D01*
X0000478646Y0000977836D01*
X0000476771Y0000985335D01*
X0000474896Y0000989085D01*
X0000471147Y0000992834D01*
X0000465523Y0000994709D01*
X0000461773Y0000994709D01*
X0000456149Y0000992834D01*
X0000454274Y0000990959D01*
X0000439276Y0000990959D02*
X0000437401Y0000992834D01*
X0000433651Y0000994709D01*
X0000424278Y0000994709D01*
X0000420528Y0000992834D01*
X0000418653Y0000990959D01*
X0000416779Y0000987210D01*
X0000416779Y0000983460D01*
X0000418653Y0000977836D01*
X0000441151Y0000955339D01*
X0000416779Y0000955339D01*
X0000224878Y0000279902D02*
X0000250374Y0000279902D01*
X0000253374Y0000278402D01*
X0000254874Y0000276902D01*
X0000256374Y0000273903D01*
X0000256374Y0000267903D01*
X0000254874Y0000264904D01*
X0000253374Y0000263404D01*
X0000250374Y0000261904D01*
X0000224878Y0000261904D01*
X0000256374Y0000230408D02*
X0000256374Y0000248406D01*
X0000256374Y0000239407D02*
X0000224878Y0000239407D01*
X0000229377Y0000242407D01*
X0000232377Y0000245406D01*
X0000233876Y0000248406D01*
G04 next file*
G04 #@! TF.GenerationSoftware,KiCad,Pcbnew,(5.1.2)-2*
G04 #@! TF.CreationDate,2019-11-25T21:55:28+01:00*
G04 #@! TF.ProjectId,HM-LC-SW1-BA-PCB_mini_MAX1724,484d2d4c-432d-4535-9731-2d42412d5043,rev?*
G04 #@! TF.SameCoordinates,Original*
G04 #@! TF.FileFunction,Legend,Bot*
G04 #@! TF.FilePolarity,Positive*
G04 Gerber Fmt 4.6, Leading zero omitted, Abs format (unit mm)*
G04 Created by KiCad (PCBNEW (5.1.2)-2) date 2019-11-25 21:55:28*
G04 APERTURE LIST*
G04 APERTURE END LIST*
D23*
X0001040401Y0000905949D02*
X0001040401Y0000945319D01*
X0001023528Y0000907824D02*
X0001017903Y0000905949D01*
X0001008530Y0000905949D01*
X0001004780Y0000907824D01*
X0001002905Y0000909699D01*
X0001001031Y0000913448D01*
X0001001031Y0000917198D01*
X0001002905Y0000920947D01*
X0001004780Y0000922822D01*
X0001008530Y0000924697D01*
X0001016029Y0000926572D01*
X0001019778Y0000928446D01*
X0001021653Y0000930321D01*
X0001023528Y0000934071D01*
X0001023528Y0000937820D01*
X0001021653Y0000941570D01*
X0001019778Y0000943444D01*
X0001016029Y0000945319D01*
X0001006655Y0000945319D01*
X0001001031Y0000943444D01*
X0000984158Y0000905949D02*
X0000984158Y0000945319D01*
X0000969160Y0000945319D01*
X0000965410Y0000943444D01*
X0000963535Y0000941570D01*
X0000961660Y0000937820D01*
X0000961660Y0000932196D01*
X0000963535Y0000928446D01*
X0000965410Y0000926572D01*
X0000969160Y0000924697D01*
X0000984158Y0000924697D01*
D24*
X0001144088Y0000995573D02*
X0001144088Y0001019195D01*
X0001136214Y0001002322D01*
X0001128340Y0001019195D01*
X0001128340Y0000995573D01*
X0001117092Y0000995573D02*
X0001117092Y0001019195D01*
X0001106968Y0000996698D02*
X0001103593Y0000995573D01*
X0001097969Y0000995573D01*
X0001095719Y0000996698D01*
X0001094595Y0000997823D01*
X0001093470Y0001000073D01*
X0001093470Y0001002322D01*
X0001094595Y0001004572D01*
X0001095719Y0001005697D01*
X0001097969Y0001006822D01*
X0001102469Y0001007947D01*
X0001104718Y0001009072D01*
X0001105843Y0001010196D01*
X0001106968Y0001012446D01*
X0001106968Y0001014696D01*
X0001105843Y0001016945D01*
X0001104718Y0001018070D01*
X0001102469Y0001019195D01*
X0001096844Y0001019195D01*
X0001093470Y0001018070D01*
X0001078847Y0001019195D02*
X0001074347Y0001019195D01*
X0001072097Y0001018070D01*
X0001069848Y0001015821D01*
X0001068723Y0001011321D01*
X0001068723Y0001003447D01*
X0001069848Y0000998948D01*
X0001072097Y0000996698D01*
X0001074347Y0000995573D01*
X0001078847Y0000995573D01*
X0001081096Y0000996698D01*
X0001083346Y0000998948D01*
X0001084471Y0001003447D01*
X0001084471Y0001011321D01*
X0001083346Y0001015821D01*
X0001081096Y0001018070D01*
X0001078847Y0001019195D01*
X0001132339Y0001096698D02*
X0001128965Y0001095573D01*
X0001123340Y0001095573D01*
X0001121091Y0001096698D01*
X0001119966Y0001097823D01*
X0001118841Y0001100073D01*
X0001118841Y0001102322D01*
X0001119966Y0001104572D01*
X0001121091Y0001105697D01*
X0001123340Y0001106822D01*
X0001127840Y0001107947D01*
X0001130089Y0001109072D01*
X0001131214Y0001110196D01*
X0001132339Y0001112446D01*
X0001132339Y0001114696D01*
X0001131214Y0001116946D01*
X0001130089Y0001118070D01*
X0001127840Y0001119195D01*
X0001122215Y0001119195D01*
X0001118841Y0001118070D01*
X0001095219Y0001097823D02*
X0001096344Y0001096698D01*
X0001099718Y0001095573D01*
X0001101968Y0001095573D01*
X0001105343Y0001096698D01*
X0001107592Y0001098948D01*
X0001108717Y0001101197D01*
X0001109842Y0001105697D01*
X0001109842Y0001109072D01*
X0001108717Y0001113571D01*
X0001107592Y0001115821D01*
X0001105343Y0001118070D01*
X0001101968Y0001119195D01*
X0001099718Y0001119195D01*
X0001096344Y0001118070D01*
X0001095219Y0001116946D01*
X0001085095Y0001095573D02*
X0001085095Y0001119195D01*
X0001071597Y0001095573D02*
X0001081721Y0001109072D01*
X0001071597Y0001119195D02*
X0001085095Y0001105697D01*
X0001156276Y0001195573D02*
X0001164150Y0001206822D01*
X0001169775Y0001195573D02*
X0001169775Y0001219195D01*
X0001160776Y0001219195D01*
X0001158526Y0001218070D01*
X0001157401Y0001216945D01*
X0001156276Y0001214696D01*
X0001156276Y0001211321D01*
X0001157401Y0001209072D01*
X0001158526Y0001207947D01*
X0001160776Y0001206822D01*
X0001169775Y0001206822D01*
X0001146152Y0001207947D02*
X0001138278Y0001207947D01*
X0001134904Y0001195573D02*
X0001146152Y0001195573D01*
X0001146152Y0001219195D01*
X0001134904Y0001219195D01*
X0001125905Y0001196698D02*
X0001122530Y0001195573D01*
X0001116906Y0001195573D01*
X0001114656Y0001196698D01*
X0001113532Y0001197823D01*
X0001112407Y0001200073D01*
X0001112407Y0001202322D01*
X0001113532Y0001204572D01*
X0001114656Y0001205697D01*
X0001116906Y0001206822D01*
X0001121406Y0001207947D01*
X0001123655Y0001209072D01*
X0001124780Y0001210196D01*
X0001125905Y0001212446D01*
X0001125905Y0001214696D01*
X0001124780Y0001216945D01*
X0001123655Y0001218070D01*
X0001121406Y0001219195D01*
X0001115781Y0001219195D01*
X0001112407Y0001218070D01*
X0001102283Y0001207947D02*
X0001094409Y0001207947D01*
X0001091034Y0001195573D02*
X0001102283Y0001195573D01*
X0001102283Y0001219195D01*
X0001091034Y0001219195D01*
X0001084285Y0001219195D02*
X0001070787Y0001219195D01*
X0001077536Y0001195573D02*
X0001077536Y0001219195D01*
X0001144088Y0001390573D02*
X0001144088Y0001414195D01*
X0001136214Y0001397322D01*
X0001128340Y0001414195D01*
X0001128340Y0001390573D01*
X0001112592Y0001414195D02*
X0001108093Y0001414195D01*
X0001105843Y0001413070D01*
X0001103593Y0001410821D01*
X0001102469Y0001406321D01*
X0001102469Y0001398447D01*
X0001103593Y0001393948D01*
X0001105843Y0001391698D01*
X0001108093Y0001390573D01*
X0001112592Y0001390573D01*
X0001114842Y0001391698D01*
X0001117092Y0001393948D01*
X0001118217Y0001398447D01*
X0001118217Y0001406321D01*
X0001117092Y0001410821D01*
X0001114842Y0001413070D01*
X0001112592Y0001414195D01*
X0001093470Y0001391698D02*
X0001090095Y0001390573D01*
X0001084471Y0001390573D01*
X0001082221Y0001391698D01*
X0001081096Y0001392823D01*
X0001079971Y0001395073D01*
X0001079971Y0001397322D01*
X0001081096Y0001399572D01*
X0001082221Y0001400697D01*
X0001084471Y0001401822D01*
X0001088970Y0001402947D01*
X0001091220Y0001404071D01*
X0001092345Y0001405196D01*
X0001093470Y0001407446D01*
X0001093470Y0001409696D01*
X0001092345Y0001411946D01*
X0001091220Y0001413070D01*
X0001088970Y0001414195D01*
X0001083346Y0001414195D01*
X0001079971Y0001413070D01*
X0001069848Y0001390573D02*
X0001069848Y0001414195D01*
D25*
X0001393307Y0000177165D02*
X0001393307Y0000322293D01*
X0001527952Y0000177165D02*
X0001527952Y0000322293D01*
X0001283907Y0000090157D02*
X0001263336Y0000090157D01*
X0001283907Y0000146062D02*
X0001263336Y0000146062D01*
X0001250442Y0000357874D02*
X0001229871Y0000357874D01*
X0001250442Y0000413779D02*
X0001229871Y0000413779D01*
X0001647096Y0000564566D02*
X0001626525Y0000564566D01*
X0001647096Y0000620472D02*
X0001626525Y0000620472D01*
D23*
X0001716929Y0000697559D02*
X0001087007Y0000697559D01*
X0001087007Y0000697559D02*
X0001087007Y0001445590D01*
X0001087007Y0001445590D02*
X0001716929Y0001445590D01*
X0001716929Y0001445590D02*
X0001716929Y0000697559D01*
D25*
X0001335039Y0000288582D02*
X0001335039Y0000192913D01*
X0001214173Y0000219291D02*
X0001214173Y0000288582D01*
D23*
X0001568241Y0000123547D02*
X0001583239Y0000123547D01*
X0001583239Y0000155043D01*
X0001541244Y0000123547D02*
X0001559242Y0000123547D01*
X0001550243Y0000123547D02*
X0001550243Y0000155043D01*
X0001553243Y0000150543D01*
X0001556242Y0000147544D01*
X0001559242Y0000146044D01*
X0001284120Y0000037120D02*
X0001285995Y0000035245D01*
X0001291619Y0000033370D01*
X0001295369Y0000033370D01*
X0001300993Y0000035245D01*
X0001304743Y0000038995D01*
X0001306617Y0000042744D01*
X0001308492Y0000050243D01*
X0001308492Y0000055868D01*
X0001306617Y0000063367D01*
X0001304743Y0000067116D01*
X0001300993Y0000070866D01*
X0001295369Y0000072740D01*
X0001291619Y0000072740D01*
X0001285995Y0000070866D01*
X0001284120Y0000068991D01*
X0001270997Y0000072740D02*
X0001244750Y0000072740D01*
X0001261623Y0000033370D01*
X0001248687Y0000430821D02*
X0001250562Y0000428946D01*
X0001256186Y0000427071D01*
X0001259936Y0000427071D01*
X0001265560Y0000428946D01*
X0001269310Y0000432695D01*
X0001271184Y0000436445D01*
X0001273059Y0000443944D01*
X0001273059Y0000449568D01*
X0001271184Y0000457067D01*
X0001269310Y0000460817D01*
X0001265560Y0000464566D01*
X0001259936Y0000466441D01*
X0001256186Y0000466441D01*
X0001250562Y0000464566D01*
X0001248687Y0000462692D01*
X0001214941Y0000466441D02*
X0001222440Y0000466441D01*
X0001226190Y0000464566D01*
X0001228065Y0000462692D01*
X0001231814Y0000457067D01*
X0001233689Y0000449568D01*
X0001233689Y0000434570D01*
X0001231814Y0000430821D01*
X0001229940Y0000428946D01*
X0001226190Y0000427071D01*
X0001218691Y0000427071D01*
X0001214941Y0000428946D01*
X0001213067Y0000430821D01*
X0001211192Y0000434570D01*
X0001211192Y0000443944D01*
X0001213067Y0000447694D01*
X0001214941Y0000449568D01*
X0001218691Y0000451443D01*
X0001226190Y0000451443D01*
X0001229940Y0000449568D01*
X0001231814Y0000447694D01*
X0001233689Y0000443944D01*
X0001642388Y0000513498D02*
X0001644263Y0000511623D01*
X0001649887Y0000509748D01*
X0001653636Y0000509748D01*
X0001659261Y0000511623D01*
X0001663010Y0000515373D01*
X0001664885Y0000519122D01*
X0001666760Y0000526621D01*
X0001666760Y0000532245D01*
X0001664885Y0000539745D01*
X0001663010Y0000543494D01*
X0001659261Y0000547244D01*
X0001653636Y0000549118D01*
X0001649887Y0000549118D01*
X0001644263Y0000547244D01*
X0001642388Y0000545369D01*
X0001629265Y0000549118D02*
X0001604893Y0000549118D01*
X0001618016Y0000534120D01*
X0001612392Y0000534120D01*
X0001608642Y0000532245D01*
X0001606767Y0000530371D01*
X0001604893Y0000526621D01*
X0001604893Y0000517247D01*
X0001606767Y0000513498D01*
X0001608642Y0000511623D01*
X0001612392Y0000509748D01*
X0001623640Y0000509748D01*
X0001627390Y0000511623D01*
X0001629265Y0000513498D01*
X0001457349Y0000560554D02*
X0001457349Y0000538057D01*
X0001458848Y0000533558D01*
X0001461848Y0000530558D01*
X0001466347Y0000529058D01*
X0001469347Y0000529058D01*
X0001442350Y0000529058D02*
X0001442350Y0000560554D01*
X0001430352Y0000560554D01*
X0001427352Y0000559055D01*
X0001425852Y0000557555D01*
X0001424353Y0000554555D01*
X0001424353Y0000550056D01*
X0001425852Y0000547056D01*
X0001427352Y0000545556D01*
X0001430352Y0000544056D01*
X0001442350Y0000544056D01*
X0001394356Y0000529058D02*
X0001412354Y0000529058D01*
X0001403355Y0000529058D02*
X0001403355Y0000560554D01*
X0001406355Y0000556055D01*
X0001409355Y0000553055D01*
X0001412354Y0000551556D01*
X0001440401Y0000955339D02*
X0001440401Y0000994709D01*
X0001399156Y0000959088D02*
X0001401031Y0000957214D01*
X0001406655Y0000955339D01*
X0001410404Y0000955339D01*
X0001416029Y0000957214D01*
X0001419778Y0000960963D01*
X0001421653Y0000964713D01*
X0001423528Y0000972212D01*
X0001423528Y0000977836D01*
X0001421653Y0000985335D01*
X0001419778Y0000989085D01*
X0001416029Y0000992834D01*
X0001410404Y0000994709D01*
X0001406655Y0000994709D01*
X0001401031Y0000992834D01*
X0001399156Y0000990959D01*
X0001384158Y0000990959D02*
X0001382283Y0000992834D01*
X0001378533Y0000994709D01*
X0001369160Y0000994709D01*
X0001365410Y0000992834D01*
X0001363535Y0000990959D01*
X0001361660Y0000987210D01*
X0001361660Y0000983460D01*
X0001363535Y0000977836D01*
X0001386032Y0000955339D01*
X0001361660Y0000955339D01*
X0001169760Y0000279902D02*
X0001195256Y0000279902D01*
X0001198256Y0000278402D01*
X0001199756Y0000276902D01*
X0001201256Y0000273903D01*
X0001201256Y0000267903D01*
X0001199756Y0000264904D01*
X0001198256Y0000263404D01*
X0001195256Y0000261904D01*
X0001169760Y0000261904D01*
X0001201256Y0000230408D02*
X0001201256Y0000248406D01*
X0001201256Y0000239407D02*
X0001169760Y0000239407D01*
X0001174259Y0000242407D01*
X0001177259Y0000245406D01*
X0001178758Y0000248406D01*
G04 next file*
G04 #@! TF.GenerationSoftware,KiCad,Pcbnew,(5.1.2)-2*
G04 #@! TF.CreationDate,2019-11-25T21:55:28+01:00*
G04 #@! TF.ProjectId,HM-LC-SW1-BA-PCB_mini_MAX1724,484d2d4c-432d-4535-9731-2d42412d5043,rev?*
G04 #@! TF.SameCoordinates,Original*
G04 #@! TF.FileFunction,Legend,Bot*
G04 #@! TF.FilePolarity,Positive*
G04 Gerber Fmt 4.6, Leading zero omitted, Abs format (unit mm)*
G04 Created by KiCad (PCBNEW (5.1.2)-2) date 2019-11-25 21:55:28*
G04 APERTURE LIST*
G04 APERTURE END LIST*
D26*
X0001985283Y0000905949D02*
X0001985283Y0000945319D01*
X0001968410Y0000907824D02*
X0001962785Y0000905949D01*
X0001953412Y0000905949D01*
X0001949662Y0000907824D01*
X0001947787Y0000909699D01*
X0001945912Y0000913448D01*
X0001945912Y0000917198D01*
X0001947787Y0000920947D01*
X0001949662Y0000922822D01*
X0001953412Y0000924697D01*
X0001960911Y0000926572D01*
X0001964660Y0000928446D01*
X0001966535Y0000930321D01*
X0001968410Y0000934071D01*
X0001968410Y0000937820D01*
X0001966535Y0000941570D01*
X0001964660Y0000943444D01*
X0001960911Y0000945319D01*
X0001951537Y0000945319D01*
X0001945912Y0000943444D01*
X0001929040Y0000905949D02*
X0001929040Y0000945319D01*
X0001914041Y0000945319D01*
X0001910292Y0000943444D01*
X0001908417Y0000941570D01*
X0001906542Y0000937820D01*
X0001906542Y0000932196D01*
X0001908417Y0000928446D01*
X0001910292Y0000926572D01*
X0001914041Y0000924697D01*
X0001929040Y0000924697D01*
D27*
X0002088970Y0000995573D02*
X0002088970Y0001019195D01*
X0002081096Y0001002322D01*
X0002073222Y0001019195D01*
X0002073222Y0000995573D01*
X0002061974Y0000995573D02*
X0002061974Y0001019195D01*
X0002051850Y0000996698D02*
X0002048475Y0000995573D01*
X0002042851Y0000995573D01*
X0002040601Y0000996698D01*
X0002039476Y0000997823D01*
X0002038352Y0001000073D01*
X0002038352Y0001002322D01*
X0002039476Y0001004572D01*
X0002040601Y0001005697D01*
X0002042851Y0001006822D01*
X0002047350Y0001007947D01*
X0002049600Y0001009072D01*
X0002050725Y0001010196D01*
X0002051850Y0001012446D01*
X0002051850Y0001014696D01*
X0002050725Y0001016945D01*
X0002049600Y0001018070D01*
X0002047350Y0001019195D01*
X0002041726Y0001019195D01*
X0002038352Y0001018070D01*
X0002023728Y0001019195D02*
X0002019229Y0001019195D01*
X0002016979Y0001018070D01*
X0002014729Y0001015821D01*
X0002013605Y0001011321D01*
X0002013605Y0001003447D01*
X0002014729Y0000998948D01*
X0002016979Y0000996698D01*
X0002019229Y0000995573D01*
X0002023728Y0000995573D01*
X0002025978Y0000996698D01*
X0002028228Y0000998948D01*
X0002029353Y0001003447D01*
X0002029353Y0001011321D01*
X0002028228Y0001015821D01*
X0002025978Y0001018070D01*
X0002023728Y0001019195D01*
X0002077221Y0001096698D02*
X0002073847Y0001095573D01*
X0002068222Y0001095573D01*
X0002065972Y0001096698D01*
X0002064848Y0001097823D01*
X0002063723Y0001100073D01*
X0002063723Y0001102322D01*
X0002064848Y0001104572D01*
X0002065972Y0001105697D01*
X0002068222Y0001106822D01*
X0002072722Y0001107947D01*
X0002074971Y0001109072D01*
X0002076096Y0001110196D01*
X0002077221Y0001112446D01*
X0002077221Y0001114696D01*
X0002076096Y0001116946D01*
X0002074971Y0001118070D01*
X0002072722Y0001119195D01*
X0002067097Y0001119195D01*
X0002063723Y0001118070D01*
X0002040101Y0001097823D02*
X0002041226Y0001096698D01*
X0002044600Y0001095573D01*
X0002046850Y0001095573D01*
X0002050224Y0001096698D01*
X0002052474Y0001098948D01*
X0002053599Y0001101197D01*
X0002054724Y0001105697D01*
X0002054724Y0001109072D01*
X0002053599Y0001113571D01*
X0002052474Y0001115821D01*
X0002050224Y0001118070D01*
X0002046850Y0001119195D01*
X0002044600Y0001119195D01*
X0002041226Y0001118070D01*
X0002040101Y0001116946D01*
X0002029977Y0001095573D02*
X0002029977Y0001119195D01*
X0002016479Y0001095573D02*
X0002026602Y0001109072D01*
X0002016479Y0001119195D02*
X0002029977Y0001105697D01*
X0002101158Y0001195573D02*
X0002109032Y0001206822D01*
X0002114656Y0001195573D02*
X0002114656Y0001219195D01*
X0002105657Y0001219195D01*
X0002103408Y0001218070D01*
X0002102283Y0001216945D01*
X0002101158Y0001214696D01*
X0002101158Y0001211321D01*
X0002102283Y0001209072D01*
X0002103408Y0001207947D01*
X0002105657Y0001206822D01*
X0002114656Y0001206822D01*
X0002091034Y0001207947D02*
X0002083160Y0001207947D01*
X0002079786Y0001195573D02*
X0002091034Y0001195573D01*
X0002091034Y0001219195D01*
X0002079786Y0001219195D01*
X0002070787Y0001196698D02*
X0002067412Y0001195573D01*
X0002061788Y0001195573D01*
X0002059538Y0001196698D01*
X0002058413Y0001197823D01*
X0002057289Y0001200073D01*
X0002057289Y0001202322D01*
X0002058413Y0001204572D01*
X0002059538Y0001205697D01*
X0002061788Y0001206822D01*
X0002066287Y0001207947D01*
X0002068537Y0001209072D01*
X0002069662Y0001210196D01*
X0002070787Y0001212446D01*
X0002070787Y0001214696D01*
X0002069662Y0001216945D01*
X0002068537Y0001218070D01*
X0002066287Y0001219195D01*
X0002060663Y0001219195D01*
X0002057289Y0001218070D01*
X0002047165Y0001207947D02*
X0002039291Y0001207947D01*
X0002035916Y0001195573D02*
X0002047165Y0001195573D01*
X0002047165Y0001219195D01*
X0002035916Y0001219195D01*
X0002029167Y0001219195D02*
X0002015669Y0001219195D01*
X0002022418Y0001195573D02*
X0002022418Y0001219195D01*
X0002088970Y0001390573D02*
X0002088970Y0001414195D01*
X0002081096Y0001397322D01*
X0002073222Y0001414195D01*
X0002073222Y0001390573D01*
X0002057474Y0001414195D02*
X0002052975Y0001414195D01*
X0002050725Y0001413070D01*
X0002048475Y0001410821D01*
X0002047350Y0001406321D01*
X0002047350Y0001398447D01*
X0002048475Y0001393948D01*
X0002050725Y0001391698D01*
X0002052975Y0001390573D01*
X0002057474Y0001390573D01*
X0002059724Y0001391698D01*
X0002061974Y0001393948D01*
X0002063098Y0001398447D01*
X0002063098Y0001406321D01*
X0002061974Y0001410821D01*
X0002059724Y0001413070D01*
X0002057474Y0001414195D01*
X0002038352Y0001391698D02*
X0002034977Y0001390573D01*
X0002029353Y0001390573D01*
X0002027103Y0001391698D01*
X0002025978Y0001392823D01*
X0002024853Y0001395073D01*
X0002024853Y0001397322D01*
X0002025978Y0001399572D01*
X0002027103Y0001400697D01*
X0002029353Y0001401822D01*
X0002033852Y0001402947D01*
X0002036102Y0001404071D01*
X0002037227Y0001405196D01*
X0002038352Y0001407446D01*
X0002038352Y0001409696D01*
X0002037227Y0001411946D01*
X0002036102Y0001413070D01*
X0002033852Y0001414195D01*
X0002028228Y0001414195D01*
X0002024853Y0001413070D01*
X0002014729Y0001390573D02*
X0002014729Y0001414195D01*
D28*
X0002338188Y0000177165D02*
X0002338188Y0000322293D01*
X0002472834Y0000177165D02*
X0002472834Y0000322293D01*
X0002228789Y0000090157D02*
X0002208218Y0000090157D01*
X0002228789Y0000146062D02*
X0002208218Y0000146062D01*
X0002195324Y0000357874D02*
X0002174753Y0000357874D01*
X0002195324Y0000413779D02*
X0002174753Y0000413779D01*
X0002591978Y0000564566D02*
X0002571407Y0000564566D01*
X0002591978Y0000620472D02*
X0002571407Y0000620472D01*
D26*
X0002661811Y0000697559D02*
X0002031889Y0000697559D01*
X0002031889Y0000697559D02*
X0002031889Y0001445590D01*
X0002031889Y0001445590D02*
X0002661811Y0001445590D01*
X0002661811Y0001445590D02*
X0002661811Y0000697559D01*
D28*
X0002279921Y0000288582D02*
X0002279921Y0000192913D01*
X0002159055Y0000219291D02*
X0002159055Y0000288582D01*
D26*
X0002513123Y0000123547D02*
X0002528121Y0000123547D01*
X0002528121Y0000155043D01*
X0002486126Y0000123547D02*
X0002504124Y0000123547D01*
X0002495125Y0000123547D02*
X0002495125Y0000155043D01*
X0002498125Y0000150543D01*
X0002501124Y0000147544D01*
X0002504124Y0000146044D01*
X0002229002Y0000037120D02*
X0002230877Y0000035245D01*
X0002236501Y0000033370D01*
X0002240251Y0000033370D01*
X0002245875Y0000035245D01*
X0002249625Y0000038995D01*
X0002251499Y0000042744D01*
X0002253374Y0000050243D01*
X0002253374Y0000055868D01*
X0002251499Y0000063367D01*
X0002249625Y0000067116D01*
X0002245875Y0000070866D01*
X0002240251Y0000072740D01*
X0002236501Y0000072740D01*
X0002230877Y0000070866D01*
X0002229002Y0000068991D01*
X0002215879Y0000072740D02*
X0002189632Y0000072740D01*
X0002206505Y0000033370D01*
X0002193569Y0000430821D02*
X0002195444Y0000428946D01*
X0002201068Y0000427071D01*
X0002204818Y0000427071D01*
X0002210442Y0000428946D01*
X0002214191Y0000432695D01*
X0002216066Y0000436445D01*
X0002217941Y0000443944D01*
X0002217941Y0000449568D01*
X0002216066Y0000457067D01*
X0002214191Y0000460817D01*
X0002210442Y0000464566D01*
X0002204818Y0000466441D01*
X0002201068Y0000466441D01*
X0002195444Y0000464566D01*
X0002193569Y0000462692D01*
X0002159823Y0000466441D02*
X0002167322Y0000466441D01*
X0002171072Y0000464566D01*
X0002172947Y0000462692D01*
X0002176696Y0000457067D01*
X0002178571Y0000449568D01*
X0002178571Y0000434570D01*
X0002176696Y0000430821D01*
X0002174821Y0000428946D01*
X0002171072Y0000427071D01*
X0002163573Y0000427071D01*
X0002159823Y0000428946D01*
X0002157948Y0000430821D01*
X0002156074Y0000434570D01*
X0002156074Y0000443944D01*
X0002157948Y0000447694D01*
X0002159823Y0000449568D01*
X0002163573Y0000451443D01*
X0002171072Y0000451443D01*
X0002174821Y0000449568D01*
X0002176696Y0000447694D01*
X0002178571Y0000443944D01*
X0002587270Y0000513498D02*
X0002589145Y0000511623D01*
X0002594769Y0000509748D01*
X0002598518Y0000509748D01*
X0002604143Y0000511623D01*
X0002607892Y0000515373D01*
X0002609767Y0000519122D01*
X0002611642Y0000526621D01*
X0002611642Y0000532245D01*
X0002609767Y0000539745D01*
X0002607892Y0000543494D01*
X0002604143Y0000547244D01*
X0002598518Y0000549118D01*
X0002594769Y0000549118D01*
X0002589145Y0000547244D01*
X0002587270Y0000545369D01*
X0002574146Y0000549118D02*
X0002549775Y0000549118D01*
X0002562898Y0000534120D01*
X0002557274Y0000534120D01*
X0002553524Y0000532245D01*
X0002551649Y0000530371D01*
X0002549775Y0000526621D01*
X0002549775Y0000517247D01*
X0002551649Y0000513498D01*
X0002553524Y0000511623D01*
X0002557274Y0000509748D01*
X0002568522Y0000509748D01*
X0002572272Y0000511623D01*
X0002574146Y0000513498D01*
X0002402230Y0000560554D02*
X0002402230Y0000538057D01*
X0002403730Y0000533558D01*
X0002406730Y0000530558D01*
X0002411229Y0000529058D01*
X0002414229Y0000529058D01*
X0002387232Y0000529058D02*
X0002387232Y0000560554D01*
X0002375234Y0000560554D01*
X0002372234Y0000559055D01*
X0002370734Y0000557555D01*
X0002369235Y0000554555D01*
X0002369235Y0000550056D01*
X0002370734Y0000547056D01*
X0002372234Y0000545556D01*
X0002375234Y0000544056D01*
X0002387232Y0000544056D01*
X0002339238Y0000529058D02*
X0002357236Y0000529058D01*
X0002348237Y0000529058D02*
X0002348237Y0000560554D01*
X0002351237Y0000556055D01*
X0002354236Y0000553055D01*
X0002357236Y0000551556D01*
X0002385283Y0000955339D02*
X0002385283Y0000994709D01*
X0002344038Y0000959088D02*
X0002345912Y0000957214D01*
X0002351537Y0000955339D01*
X0002355286Y0000955339D01*
X0002360911Y0000957214D01*
X0002364660Y0000960963D01*
X0002366535Y0000964713D01*
X0002368410Y0000972212D01*
X0002368410Y0000977836D01*
X0002366535Y0000985335D01*
X0002364660Y0000989085D01*
X0002360911Y0000992834D01*
X0002355286Y0000994709D01*
X0002351537Y0000994709D01*
X0002345912Y0000992834D01*
X0002344038Y0000990959D01*
X0002329040Y0000990959D02*
X0002327165Y0000992834D01*
X0002323415Y0000994709D01*
X0002314041Y0000994709D01*
X0002310292Y0000992834D01*
X0002308417Y0000990959D01*
X0002306542Y0000987210D01*
X0002306542Y0000983460D01*
X0002308417Y0000977836D01*
X0002330914Y0000955339D01*
X0002306542Y0000955339D01*
X0002114641Y0000279902D02*
X0002140138Y0000279902D01*
X0002143138Y0000278402D01*
X0002144638Y0000276902D01*
X0002146137Y0000273903D01*
X0002146137Y0000267903D01*
X0002144638Y0000264904D01*
X0002143138Y0000263404D01*
X0002140138Y0000261904D01*
X0002114641Y0000261904D01*
X0002146137Y0000230408D02*
X0002146137Y0000248406D01*
X0002146137Y0000239407D02*
X0002114641Y0000239407D01*
X0002119141Y0000242407D01*
X0002122140Y0000245406D01*
X0002123640Y0000248406D01*
G04 next file*
G04 #@! TF.GenerationSoftware,KiCad,Pcbnew,(5.1.2)-2*
G04 #@! TF.CreationDate,2019-11-25T21:55:28+01:00*
G04 #@! TF.ProjectId,HM-LC-SW1-BA-PCB_mini_MAX1724,484d2d4c-432d-4535-9731-2d42412d5043,rev?*
G04 #@! TF.SameCoordinates,Original*
G04 #@! TF.FileFunction,Legend,Bot*
G04 #@! TF.FilePolarity,Positive*
G04 Gerber Fmt 4.6, Leading zero omitted, Abs format (unit mm)*
G04 Created by KiCad (PCBNEW (5.1.2)-2) date 2019-11-25 21:55:28*
G04 APERTURE LIST*
G04 APERTURE END LIST*
D29*
X0002930164Y0000905949D02*
X0002930164Y0000945319D01*
X0002913292Y0000907824D02*
X0002907667Y0000905949D01*
X0002898293Y0000905949D01*
X0002894544Y0000907824D01*
X0002892669Y0000909699D01*
X0002890794Y0000913448D01*
X0002890794Y0000917198D01*
X0002892669Y0000920947D01*
X0002894544Y0000922822D01*
X0002898293Y0000924697D01*
X0002905792Y0000926572D01*
X0002909542Y0000928446D01*
X0002911417Y0000930321D01*
X0002913292Y0000934071D01*
X0002913292Y0000937820D01*
X0002911417Y0000941570D01*
X0002909542Y0000943444D01*
X0002905792Y0000945319D01*
X0002896419Y0000945319D01*
X0002890794Y0000943444D01*
X0002873921Y0000905949D02*
X0002873921Y0000945319D01*
X0002858923Y0000945319D01*
X0002855174Y0000943444D01*
X0002853299Y0000941570D01*
X0002851424Y0000937820D01*
X0002851424Y0000932196D01*
X0002853299Y0000928446D01*
X0002855174Y0000926572D01*
X0002858923Y0000924697D01*
X0002873921Y0000924697D01*
D30*
X0003033852Y0000995573D02*
X0003033852Y0001019195D01*
X0003025978Y0001002322D01*
X0003018104Y0001019195D01*
X0003018104Y0000995573D01*
X0003006855Y0000995573D02*
X0003006855Y0001019195D01*
X0002996732Y0000996698D02*
X0002993357Y0000995573D01*
X0002987733Y0000995573D01*
X0002985483Y0000996698D01*
X0002984358Y0000997823D01*
X0002983233Y0001000073D01*
X0002983233Y0001002322D01*
X0002984358Y0001004572D01*
X0002985483Y0001005697D01*
X0002987733Y0001006822D01*
X0002992232Y0001007947D01*
X0002994482Y0001009072D01*
X0002995607Y0001010196D01*
X0002996732Y0001012446D01*
X0002996732Y0001014696D01*
X0002995607Y0001016945D01*
X0002994482Y0001018070D01*
X0002992232Y0001019195D01*
X0002986608Y0001019195D01*
X0002983233Y0001018070D01*
X0002968610Y0001019195D02*
X0002964111Y0001019195D01*
X0002961861Y0001018070D01*
X0002959611Y0001015821D01*
X0002958487Y0001011321D01*
X0002958487Y0001003447D01*
X0002959611Y0000998948D01*
X0002961861Y0000996698D01*
X0002964111Y0000995573D01*
X0002968610Y0000995573D01*
X0002970860Y0000996698D01*
X0002973110Y0000998948D01*
X0002974235Y0001003447D01*
X0002974235Y0001011321D01*
X0002973110Y0001015821D01*
X0002970860Y0001018070D01*
X0002968610Y0001019195D01*
X0003022103Y0001096698D02*
X0003018728Y0001095573D01*
X0003013104Y0001095573D01*
X0003010854Y0001096698D01*
X0003009730Y0001097823D01*
X0003008605Y0001100073D01*
X0003008605Y0001102322D01*
X0003009730Y0001104572D01*
X0003010854Y0001105697D01*
X0003013104Y0001106822D01*
X0003017604Y0001107947D01*
X0003019853Y0001109072D01*
X0003020978Y0001110196D01*
X0003022103Y0001112446D01*
X0003022103Y0001114696D01*
X0003020978Y0001116946D01*
X0003019853Y0001118070D01*
X0003017604Y0001119195D01*
X0003011979Y0001119195D01*
X0003008605Y0001118070D01*
X0002984983Y0001097823D02*
X0002986107Y0001096698D01*
X0002989482Y0001095573D01*
X0002991732Y0001095573D01*
X0002995106Y0001096698D01*
X0002997356Y0001098948D01*
X0002998481Y0001101197D01*
X0002999606Y0001105697D01*
X0002999606Y0001109072D01*
X0002998481Y0001113571D01*
X0002997356Y0001115821D01*
X0002995106Y0001118070D01*
X0002991732Y0001119195D01*
X0002989482Y0001119195D01*
X0002986107Y0001118070D01*
X0002984983Y0001116946D01*
X0002974859Y0001095573D02*
X0002974859Y0001119195D01*
X0002961361Y0001095573D02*
X0002971484Y0001109072D01*
X0002961361Y0001119195D02*
X0002974859Y0001105697D01*
X0003046040Y0001195573D02*
X0003053914Y0001206822D01*
X0003059538Y0001195573D02*
X0003059538Y0001219195D01*
X0003050539Y0001219195D01*
X0003048290Y0001218070D01*
X0003047165Y0001216945D01*
X0003046040Y0001214696D01*
X0003046040Y0001211321D01*
X0003047165Y0001209072D01*
X0003048290Y0001207947D01*
X0003050539Y0001206822D01*
X0003059538Y0001206822D01*
X0003035916Y0001207947D02*
X0003028042Y0001207947D01*
X0003024668Y0001195573D02*
X0003035916Y0001195573D01*
X0003035916Y0001219195D01*
X0003024668Y0001219195D01*
X0003015669Y0001196698D02*
X0003012294Y0001195573D01*
X0003006670Y0001195573D01*
X0003004420Y0001196698D01*
X0003003295Y0001197823D01*
X0003002170Y0001200073D01*
X0003002170Y0001202322D01*
X0003003295Y0001204572D01*
X0003004420Y0001205697D01*
X0003006670Y0001206822D01*
X0003011169Y0001207947D01*
X0003013419Y0001209072D01*
X0003014544Y0001210196D01*
X0003015669Y0001212446D01*
X0003015669Y0001214696D01*
X0003014544Y0001216945D01*
X0003013419Y0001218070D01*
X0003011169Y0001219195D01*
X0003005545Y0001219195D01*
X0003002170Y0001218070D01*
X0002992047Y0001207947D02*
X0002984173Y0001207947D01*
X0002980798Y0001195573D02*
X0002992047Y0001195573D01*
X0002992047Y0001219195D01*
X0002980798Y0001219195D01*
X0002974049Y0001219195D02*
X0002960551Y0001219195D01*
X0002967300Y0001195573D02*
X0002967300Y0001219195D01*
X0003033852Y0001390573D02*
X0003033852Y0001414195D01*
X0003025978Y0001397322D01*
X0003018104Y0001414195D01*
X0003018104Y0001390573D01*
X0003002356Y0001414195D02*
X0002997857Y0001414195D01*
X0002995607Y0001413070D01*
X0002993357Y0001410821D01*
X0002992232Y0001406321D01*
X0002992232Y0001398447D01*
X0002993357Y0001393948D01*
X0002995607Y0001391698D01*
X0002997857Y0001390573D01*
X0003002356Y0001390573D01*
X0003004606Y0001391698D01*
X0003006855Y0001393948D01*
X0003007980Y0001398447D01*
X0003007980Y0001406321D01*
X0003006855Y0001410821D01*
X0003004606Y0001413070D01*
X0003002356Y0001414195D01*
X0002983233Y0001391698D02*
X0002979859Y0001390573D01*
X0002974235Y0001390573D01*
X0002971985Y0001391698D01*
X0002970860Y0001392823D01*
X0002969735Y0001395073D01*
X0002969735Y0001397322D01*
X0002970860Y0001399572D01*
X0002971985Y0001400697D01*
X0002974235Y0001401822D01*
X0002978734Y0001402947D01*
X0002980984Y0001404071D01*
X0002982109Y0001405196D01*
X0002983233Y0001407446D01*
X0002983233Y0001409696D01*
X0002982109Y0001411946D01*
X0002980984Y0001413070D01*
X0002978734Y0001414195D01*
X0002973110Y0001414195D01*
X0002969735Y0001413070D01*
X0002959611Y0001390573D02*
X0002959611Y0001414195D01*
D31*
X0003283070Y0000177165D02*
X0003283070Y0000322293D01*
X0003417716Y0000177165D02*
X0003417716Y0000322293D01*
X0003173671Y0000090157D02*
X0003153100Y0000090157D01*
X0003173671Y0000146062D02*
X0003153100Y0000146062D01*
X0003140206Y0000357874D02*
X0003119635Y0000357874D01*
X0003140206Y0000413779D02*
X0003119635Y0000413779D01*
X0003536860Y0000564566D02*
X0003516289Y0000564566D01*
X0003536860Y0000620472D02*
X0003516289Y0000620472D01*
D29*
X0003606692Y0000697559D02*
X0002976771Y0000697559D01*
X0002976771Y0000697559D02*
X0002976771Y0001445590D01*
X0002976771Y0001445590D02*
X0003606692Y0001445590D01*
X0003606692Y0001445590D02*
X0003606692Y0000697559D01*
D31*
X0003224803Y0000288582D02*
X0003224803Y0000192913D01*
X0003103937Y0000219291D02*
X0003103937Y0000288582D01*
D29*
X0003458005Y0000123547D02*
X0003473003Y0000123547D01*
X0003473003Y0000155043D01*
X0003431008Y0000123547D02*
X0003449006Y0000123547D01*
X0003440007Y0000123547D02*
X0003440007Y0000155043D01*
X0003443007Y0000150543D01*
X0003446006Y0000147544D01*
X0003449006Y0000146044D01*
X0003173884Y0000037120D02*
X0003175759Y0000035245D01*
X0003181383Y0000033370D01*
X0003185133Y0000033370D01*
X0003190757Y0000035245D01*
X0003194506Y0000038995D01*
X0003196381Y0000042744D01*
X0003198256Y0000050243D01*
X0003198256Y0000055868D01*
X0003196381Y0000063367D01*
X0003194506Y0000067116D01*
X0003190757Y0000070866D01*
X0003185133Y0000072740D01*
X0003181383Y0000072740D01*
X0003175759Y0000070866D01*
X0003173884Y0000068991D01*
X0003160761Y0000072740D02*
X0003134514Y0000072740D01*
X0003151387Y0000033370D01*
X0003138451Y0000430821D02*
X0003140326Y0000428946D01*
X0003145950Y0000427071D01*
X0003149699Y0000427071D01*
X0003155324Y0000428946D01*
X0003159073Y0000432695D01*
X0003160948Y0000436445D01*
X0003162823Y0000443944D01*
X0003162823Y0000449568D01*
X0003160948Y0000457067D01*
X0003159073Y0000460817D01*
X0003155324Y0000464566D01*
X0003149699Y0000466441D01*
X0003145950Y0000466441D01*
X0003140326Y0000464566D01*
X0003138451Y0000462692D01*
X0003104705Y0000466441D02*
X0003112204Y0000466441D01*
X0003115954Y0000464566D01*
X0003117829Y0000462692D01*
X0003121578Y0000457067D01*
X0003123453Y0000449568D01*
X0003123453Y0000434570D01*
X0003121578Y0000430821D01*
X0003119703Y0000428946D01*
X0003115954Y0000427071D01*
X0003108455Y0000427071D01*
X0003104705Y0000428946D01*
X0003102830Y0000430821D01*
X0003100956Y0000434570D01*
X0003100956Y0000443944D01*
X0003102830Y0000447694D01*
X0003104705Y0000449568D01*
X0003108455Y0000451443D01*
X0003115954Y0000451443D01*
X0003119703Y0000449568D01*
X0003121578Y0000447694D01*
X0003123453Y0000443944D01*
X0003532152Y0000513498D02*
X0003534026Y0000511623D01*
X0003539651Y0000509748D01*
X0003543400Y0000509748D01*
X0003549025Y0000511623D01*
X0003552774Y0000515373D01*
X0003554649Y0000519122D01*
X0003556524Y0000526621D01*
X0003556524Y0000532245D01*
X0003554649Y0000539745D01*
X0003552774Y0000543494D01*
X0003549025Y0000547244D01*
X0003543400Y0000549118D01*
X0003539651Y0000549118D01*
X0003534026Y0000547244D01*
X0003532152Y0000545369D01*
X0003519028Y0000549118D02*
X0003494656Y0000549118D01*
X0003507780Y0000534120D01*
X0003502155Y0000534120D01*
X0003498406Y0000532245D01*
X0003496531Y0000530371D01*
X0003494656Y0000526621D01*
X0003494656Y0000517247D01*
X0003496531Y0000513498D01*
X0003498406Y0000511623D01*
X0003502155Y0000509748D01*
X0003513404Y0000509748D01*
X0003517154Y0000511623D01*
X0003519028Y0000513498D01*
X0003347112Y0000560554D02*
X0003347112Y0000538057D01*
X0003348612Y0000533558D01*
X0003351612Y0000530558D01*
X0003356111Y0000529058D01*
X0003359111Y0000529058D01*
X0003332114Y0000529058D02*
X0003332114Y0000560554D01*
X0003320116Y0000560554D01*
X0003317116Y0000559055D01*
X0003315616Y0000557555D01*
X0003314116Y0000554555D01*
X0003314116Y0000550056D01*
X0003315616Y0000547056D01*
X0003317116Y0000545556D01*
X0003320116Y0000544056D01*
X0003332114Y0000544056D01*
X0003284120Y0000529058D02*
X0003302118Y0000529058D01*
X0003293119Y0000529058D02*
X0003293119Y0000560554D01*
X0003296119Y0000556055D01*
X0003299118Y0000553055D01*
X0003302118Y0000551556D01*
X0003330164Y0000955339D02*
X0003330164Y0000994709D01*
X0003288920Y0000959088D02*
X0003290794Y0000957214D01*
X0003296419Y0000955339D01*
X0003300168Y0000955339D01*
X0003305792Y0000957214D01*
X0003309542Y0000960963D01*
X0003311417Y0000964713D01*
X0003313292Y0000972212D01*
X0003313292Y0000977836D01*
X0003311417Y0000985335D01*
X0003309542Y0000989085D01*
X0003305792Y0000992834D01*
X0003300168Y0000994709D01*
X0003296419Y0000994709D01*
X0003290794Y0000992834D01*
X0003288920Y0000990959D01*
X0003273922Y0000990959D02*
X0003272047Y0000992834D01*
X0003268297Y0000994709D01*
X0003258923Y0000994709D01*
X0003255174Y0000992834D01*
X0003253299Y0000990959D01*
X0003251424Y0000987210D01*
X0003251424Y0000983460D01*
X0003253299Y0000977836D01*
X0003275796Y0000955339D01*
X0003251424Y0000955339D01*
X0003059523Y0000279902D02*
X0003085020Y0000279902D01*
X0003088020Y0000278402D01*
X0003089520Y0000276902D01*
X0003091019Y0000273903D01*
X0003091019Y0000267903D01*
X0003089520Y0000264904D01*
X0003088020Y0000263404D01*
X0003085020Y0000261904D01*
X0003059523Y0000261904D01*
X0003091019Y0000230408D02*
X0003091019Y0000248406D01*
X0003091019Y0000239407D02*
X0003059523Y0000239407D01*
X0003064023Y0000242407D01*
X0003067022Y0000245406D01*
X0003068522Y0000248406D01*
G04 next file*
G04 #@! TF.GenerationSoftware,KiCad,Pcbnew,(5.1.2)-2*
G04 #@! TF.CreationDate,2019-11-25T21:55:28+01:00*
G04 #@! TF.ProjectId,HM-LC-SW1-BA-PCB_mini_MAX1724,484d2d4c-432d-4535-9731-2d42412d5043,rev?*
G04 #@! TF.SameCoordinates,Original*
G04 #@! TF.FileFunction,Legend,Bot*
G04 #@! TF.FilePolarity,Positive*
G04 Gerber Fmt 4.6, Leading zero omitted, Abs format (unit mm)*
G04 Created by KiCad (PCBNEW (5.1.2)-2) date 2019-11-25 21:55:28*
G04 APERTURE LIST*
G04 APERTURE END LIST*
D32*
X0000095519Y0002638233D02*
X0000095519Y0002677603D01*
X0000078646Y0002640107D02*
X0000073022Y0002638233D01*
X0000063648Y0002638233D01*
X0000059898Y0002640107D01*
X0000058023Y0002641982D01*
X0000056149Y0002645732D01*
X0000056149Y0002649481D01*
X0000058023Y0002653231D01*
X0000059898Y0002655105D01*
X0000063648Y0002656980D01*
X0000071147Y0002658855D01*
X0000074896Y0002660730D01*
X0000076771Y0002662605D01*
X0000078646Y0002666354D01*
X0000078646Y0002670104D01*
X0000076771Y0002673853D01*
X0000074896Y0002675728D01*
X0000071147Y0002677603D01*
X0000061773Y0002677603D01*
X0000056149Y0002675728D01*
X0000039276Y0002638233D02*
X0000039276Y0002677603D01*
X0000024278Y0002677603D01*
X0000020528Y0002675728D01*
X0000018653Y0002673853D01*
X0000016779Y0002670104D01*
X0000016779Y0002664479D01*
X0000018653Y0002660730D01*
X0000020528Y0002658855D01*
X0000024278Y0002656980D01*
X0000039276Y0002656980D01*
D33*
X0000199206Y0002727857D02*
X0000199206Y0002751479D01*
X0000191332Y0002734606D01*
X0000183458Y0002751479D01*
X0000183458Y0002727857D01*
X0000172210Y0002727857D02*
X0000172210Y0002751479D01*
X0000162086Y0002728982D02*
X0000158711Y0002727857D01*
X0000153087Y0002727857D01*
X0000150837Y0002728982D01*
X0000149713Y0002730106D01*
X0000148588Y0002732356D01*
X0000148588Y0002734606D01*
X0000149713Y0002736856D01*
X0000150837Y0002737980D01*
X0000153087Y0002739105D01*
X0000157587Y0002740230D01*
X0000159836Y0002741355D01*
X0000160961Y0002742480D01*
X0000162086Y0002744730D01*
X0000162086Y0002746979D01*
X0000160961Y0002749229D01*
X0000159836Y0002750354D01*
X0000157587Y0002751479D01*
X0000151962Y0002751479D01*
X0000148588Y0002750354D01*
X0000133965Y0002751479D02*
X0000129465Y0002751479D01*
X0000127215Y0002750354D01*
X0000124966Y0002748104D01*
X0000123841Y0002743605D01*
X0000123841Y0002735731D01*
X0000124966Y0002731231D01*
X0000127215Y0002728982D01*
X0000129465Y0002727857D01*
X0000133965Y0002727857D01*
X0000136214Y0002728982D01*
X0000138464Y0002731231D01*
X0000139589Y0002735731D01*
X0000139589Y0002743605D01*
X0000138464Y0002748104D01*
X0000136214Y0002750354D01*
X0000133965Y0002751479D01*
X0000187457Y0002828982D02*
X0000184083Y0002827857D01*
X0000178458Y0002827857D01*
X0000176209Y0002828982D01*
X0000175084Y0002830106D01*
X0000173959Y0002832356D01*
X0000173959Y0002834606D01*
X0000175084Y0002836856D01*
X0000176209Y0002837980D01*
X0000178458Y0002839105D01*
X0000182958Y0002840230D01*
X0000185208Y0002841355D01*
X0000186332Y0002842480D01*
X0000187457Y0002844730D01*
X0000187457Y0002846979D01*
X0000186332Y0002849229D01*
X0000185208Y0002850354D01*
X0000182958Y0002851479D01*
X0000177334Y0002851479D01*
X0000173959Y0002850354D01*
X0000150337Y0002830106D02*
X0000151462Y0002828982D01*
X0000154836Y0002827857D01*
X0000157086Y0002827857D01*
X0000160461Y0002828982D01*
X0000162710Y0002831231D01*
X0000163835Y0002833481D01*
X0000164960Y0002837980D01*
X0000164960Y0002841355D01*
X0000163835Y0002845854D01*
X0000162710Y0002848104D01*
X0000160461Y0002850354D01*
X0000157086Y0002851479D01*
X0000154836Y0002851479D01*
X0000151462Y0002850354D01*
X0000150337Y0002849229D01*
X0000140213Y0002827857D02*
X0000140213Y0002851479D01*
X0000126715Y0002827857D02*
X0000136839Y0002841355D01*
X0000126715Y0002851479D02*
X0000140213Y0002837980D01*
X0000211394Y0002927857D02*
X0000219268Y0002939105D01*
X0000224893Y0002927857D02*
X0000224893Y0002951479D01*
X0000215894Y0002951479D01*
X0000213644Y0002950354D01*
X0000212519Y0002949229D01*
X0000211394Y0002946979D01*
X0000211394Y0002943605D01*
X0000212519Y0002941355D01*
X0000213644Y0002940230D01*
X0000215894Y0002939105D01*
X0000224893Y0002939105D01*
X0000201271Y0002940230D02*
X0000193397Y0002940230D01*
X0000190022Y0002927857D02*
X0000201271Y0002927857D01*
X0000201271Y0002951479D01*
X0000190022Y0002951479D01*
X0000181023Y0002928982D02*
X0000177648Y0002927857D01*
X0000172024Y0002927857D01*
X0000169775Y0002928982D01*
X0000168650Y0002930106D01*
X0000167525Y0002932356D01*
X0000167525Y0002934606D01*
X0000168650Y0002936856D01*
X0000169775Y0002937980D01*
X0000172024Y0002939105D01*
X0000176524Y0002940230D01*
X0000178773Y0002941355D01*
X0000179898Y0002942480D01*
X0000181023Y0002944730D01*
X0000181023Y0002946979D01*
X0000179898Y0002949229D01*
X0000178773Y0002950354D01*
X0000176524Y0002951479D01*
X0000170899Y0002951479D01*
X0000167525Y0002950354D01*
X0000157401Y0002940230D02*
X0000149527Y0002940230D01*
X0000146152Y0002927857D02*
X0000157401Y0002927857D01*
X0000157401Y0002951479D01*
X0000146152Y0002951479D01*
X0000139403Y0002951479D02*
X0000125905Y0002951479D01*
X0000132654Y0002927857D02*
X0000132654Y0002951479D01*
X0000199206Y0003122857D02*
X0000199206Y0003146479D01*
X0000191332Y0003129606D01*
X0000183458Y0003146479D01*
X0000183458Y0003122857D01*
X0000167710Y0003146479D02*
X0000163211Y0003146479D01*
X0000160961Y0003145354D01*
X0000158711Y0003143104D01*
X0000157587Y0003138605D01*
X0000157587Y0003130731D01*
X0000158711Y0003126231D01*
X0000160961Y0003123982D01*
X0000163211Y0003122857D01*
X0000167710Y0003122857D01*
X0000169960Y0003123982D01*
X0000172210Y0003126231D01*
X0000173335Y0003130731D01*
X0000173335Y0003138605D01*
X0000172210Y0003143104D01*
X0000169960Y0003145354D01*
X0000167710Y0003146479D01*
X0000148588Y0003123982D02*
X0000145213Y0003122857D01*
X0000139589Y0003122857D01*
X0000137339Y0003123982D01*
X0000136214Y0003125106D01*
X0000135089Y0003127356D01*
X0000135089Y0003129606D01*
X0000136214Y0003131856D01*
X0000137339Y0003132980D01*
X0000139589Y0003134105D01*
X0000144088Y0003135230D01*
X0000146338Y0003136355D01*
X0000147463Y0003137480D01*
X0000148588Y0003139730D01*
X0000148588Y0003141979D01*
X0000147463Y0003144229D01*
X0000146338Y0003145354D01*
X0000144088Y0003146479D01*
X0000138464Y0003146479D01*
X0000135089Y0003145354D01*
X0000124966Y0003122857D02*
X0000124966Y0003146479D01*
D34*
X0000448425Y0001909448D02*
X0000448425Y0002054576D01*
X0000583070Y0001909448D02*
X0000583070Y0002054576D01*
X0000339025Y0001822440D02*
X0000318454Y0001822440D01*
X0000339025Y0001878346D02*
X0000318454Y0001878346D01*
X0000305561Y0002090157D02*
X0000284990Y0002090157D01*
X0000305561Y0002146062D02*
X0000284990Y0002146062D01*
X0000702214Y0002296850D02*
X0000681643Y0002296850D01*
X0000702214Y0002352755D02*
X0000681643Y0002352755D01*
D32*
X0000772047Y0002429842D02*
X0000142125Y0002429842D01*
X0000142125Y0002429842D02*
X0000142125Y0003177874D01*
X0000142125Y0003177874D02*
X0000772047Y0003177874D01*
X0000772047Y0003177874D02*
X0000772047Y0002429842D01*
D34*
X0000390157Y0002020866D02*
X0000390157Y0001925196D01*
X0000269291Y0001951574D02*
X0000269291Y0002020866D01*
D32*
X0000623359Y0001855830D02*
X0000638357Y0001855830D01*
X0000638357Y0001887326D01*
X0000596362Y0001855830D02*
X0000614360Y0001855830D01*
X0000605361Y0001855830D02*
X0000605361Y0001887326D01*
X0000608361Y0001882827D01*
X0000611361Y0001879827D01*
X0000614360Y0001878327D01*
X0000339238Y0001769403D02*
X0000341113Y0001767529D01*
X0000346737Y0001765654D01*
X0000350487Y0001765654D01*
X0000356111Y0001767529D01*
X0000359861Y0001771278D01*
X0000361736Y0001775028D01*
X0000363610Y0001782527D01*
X0000363610Y0001788151D01*
X0000361736Y0001795650D01*
X0000359861Y0001799400D01*
X0000356111Y0001803149D01*
X0000350487Y0001805024D01*
X0000346737Y0001805024D01*
X0000341113Y0001803149D01*
X0000339238Y0001801274D01*
X0000326115Y0001805024D02*
X0000299868Y0001805024D01*
X0000316741Y0001765654D01*
X0000303805Y0002163104D02*
X0000305680Y0002161229D01*
X0000311304Y0002159355D01*
X0000315054Y0002159355D01*
X0000320678Y0002161229D01*
X0000324428Y0002164979D01*
X0000326302Y0002168728D01*
X0000328177Y0002176227D01*
X0000328177Y0002181852D01*
X0000326302Y0002189351D01*
X0000324428Y0002193100D01*
X0000320678Y0002196850D01*
X0000315054Y0002198725D01*
X0000311304Y0002198725D01*
X0000305680Y0002196850D01*
X0000303805Y0002194975D01*
X0000270059Y0002198725D02*
X0000277559Y0002198725D01*
X0000281308Y0002196850D01*
X0000283183Y0002194975D01*
X0000286932Y0002189351D01*
X0000288807Y0002181852D01*
X0000288807Y0002166854D01*
X0000286932Y0002163104D01*
X0000285058Y0002161229D01*
X0000281308Y0002159355D01*
X0000273809Y0002159355D01*
X0000270059Y0002161229D01*
X0000268185Y0002163104D01*
X0000266310Y0002166854D01*
X0000266310Y0002176227D01*
X0000268185Y0002179977D01*
X0000270059Y0002181852D01*
X0000273809Y0002183727D01*
X0000281308Y0002183727D01*
X0000285058Y0002181852D01*
X0000286932Y0002179977D01*
X0000288807Y0002176227D01*
X0000697506Y0002245781D02*
X0000699381Y0002243907D01*
X0000705005Y0002242032D01*
X0000708755Y0002242032D01*
X0000714379Y0002243907D01*
X0000718128Y0002247656D01*
X0000720003Y0002251406D01*
X0000721878Y0002258905D01*
X0000721878Y0002264529D01*
X0000720003Y0002272028D01*
X0000718128Y0002275778D01*
X0000714379Y0002279527D01*
X0000708755Y0002281402D01*
X0000705005Y0002281402D01*
X0000699381Y0002279527D01*
X0000697506Y0002277652D01*
X0000684383Y0002281402D02*
X0000660011Y0002281402D01*
X0000673134Y0002266404D01*
X0000667510Y0002266404D01*
X0000663760Y0002264529D01*
X0000661885Y0002262654D01*
X0000660011Y0002258905D01*
X0000660011Y0002249531D01*
X0000661885Y0002245781D01*
X0000663760Y0002243907D01*
X0000667510Y0002242032D01*
X0000678758Y0002242032D01*
X0000682508Y0002243907D01*
X0000684383Y0002245781D01*
X0000512467Y0002292838D02*
X0000512467Y0002270341D01*
X0000513966Y0002265841D01*
X0000516966Y0002262842D01*
X0000521466Y0002261342D01*
X0000524465Y0002261342D01*
X0000497469Y0002261342D02*
X0000497469Y0002292838D01*
X0000485470Y0002292838D01*
X0000482470Y0002291338D01*
X0000480971Y0002289838D01*
X0000479471Y0002286839D01*
X0000479471Y0002282339D01*
X0000480971Y0002279340D01*
X0000482470Y0002277840D01*
X0000485470Y0002276340D01*
X0000497469Y0002276340D01*
X0000449475Y0002261342D02*
X0000467472Y0002261342D01*
X0000458473Y0002261342D02*
X0000458473Y0002292838D01*
X0000461473Y0002288338D01*
X0000464473Y0002285339D01*
X0000467472Y0002283839D01*
X0000495519Y0002687622D02*
X0000495519Y0002726992D01*
X0000454274Y0002691372D02*
X0000456149Y0002689497D01*
X0000461773Y0002687622D01*
X0000465523Y0002687622D01*
X0000471147Y0002689497D01*
X0000474896Y0002693247D01*
X0000476771Y0002696996D01*
X0000478646Y0002704495D01*
X0000478646Y0002710120D01*
X0000476771Y0002717619D01*
X0000474896Y0002721368D01*
X0000471147Y0002725118D01*
X0000465523Y0002726992D01*
X0000461773Y0002726992D01*
X0000456149Y0002725118D01*
X0000454274Y0002723243D01*
X0000439276Y0002723243D02*
X0000437401Y0002725118D01*
X0000433651Y0002726992D01*
X0000424278Y0002726992D01*
X0000420528Y0002725118D01*
X0000418653Y0002723243D01*
X0000416779Y0002719493D01*
X0000416779Y0002715744D01*
X0000418653Y0002710120D01*
X0000441151Y0002687622D01*
X0000416779Y0002687622D01*
X0000224878Y0002012185D02*
X0000250374Y0002012185D01*
X0000253374Y0002010686D01*
X0000254874Y0002009186D01*
X0000256374Y0002006186D01*
X0000256374Y0002000187D01*
X0000254874Y0001997187D01*
X0000253374Y0001995688D01*
X0000250374Y0001994188D01*
X0000224878Y0001994188D01*
X0000256374Y0001962692D02*
X0000256374Y0001980689D01*
X0000256374Y0001971691D02*
X0000224878Y0001971691D01*
X0000229377Y0001974690D01*
X0000232377Y0001977690D01*
X0000233876Y0001980689D01*
G04 next file*
G04 #@! TF.GenerationSoftware,KiCad,Pcbnew,(5.1.2)-2*
G04 #@! TF.CreationDate,2019-11-25T21:55:28+01:00*
G04 #@! TF.ProjectId,HM-LC-SW1-BA-PCB_mini_MAX1724,484d2d4c-432d-4535-9731-2d42412d5043,rev?*
G04 #@! TF.SameCoordinates,Original*
G04 #@! TF.FileFunction,Legend,Bot*
G04 #@! TF.FilePolarity,Positive*
G04 Gerber Fmt 4.6, Leading zero omitted, Abs format (unit mm)*
G04 Created by KiCad (PCBNEW (5.1.2)-2) date 2019-11-25 21:55:28*
G04 APERTURE LIST*
G04 APERTURE END LIST*
D35*
X0001040401Y0002638233D02*
X0001040401Y0002677603D01*
X0001023528Y0002640107D02*
X0001017903Y0002638233D01*
X0001008530Y0002638233D01*
X0001004780Y0002640107D01*
X0001002905Y0002641982D01*
X0001001031Y0002645732D01*
X0001001031Y0002649481D01*
X0001002905Y0002653231D01*
X0001004780Y0002655105D01*
X0001008530Y0002656980D01*
X0001016029Y0002658855D01*
X0001019778Y0002660730D01*
X0001021653Y0002662605D01*
X0001023528Y0002666354D01*
X0001023528Y0002670104D01*
X0001021653Y0002673853D01*
X0001019778Y0002675728D01*
X0001016029Y0002677603D01*
X0001006655Y0002677603D01*
X0001001031Y0002675728D01*
X0000984158Y0002638233D02*
X0000984158Y0002677603D01*
X0000969160Y0002677603D01*
X0000965410Y0002675728D01*
X0000963535Y0002673853D01*
X0000961660Y0002670104D01*
X0000961660Y0002664479D01*
X0000963535Y0002660730D01*
X0000965410Y0002658855D01*
X0000969160Y0002656980D01*
X0000984158Y0002656980D01*
D36*
X0001144088Y0002727857D02*
X0001144088Y0002751479D01*
X0001136214Y0002734606D01*
X0001128340Y0002751479D01*
X0001128340Y0002727857D01*
X0001117092Y0002727857D02*
X0001117092Y0002751479D01*
X0001106968Y0002728982D02*
X0001103593Y0002727857D01*
X0001097969Y0002727857D01*
X0001095719Y0002728982D01*
X0001094595Y0002730106D01*
X0001093470Y0002732356D01*
X0001093470Y0002734606D01*
X0001094595Y0002736856D01*
X0001095719Y0002737980D01*
X0001097969Y0002739105D01*
X0001102469Y0002740230D01*
X0001104718Y0002741355D01*
X0001105843Y0002742480D01*
X0001106968Y0002744730D01*
X0001106968Y0002746979D01*
X0001105843Y0002749229D01*
X0001104718Y0002750354D01*
X0001102469Y0002751479D01*
X0001096844Y0002751479D01*
X0001093470Y0002750354D01*
X0001078847Y0002751479D02*
X0001074347Y0002751479D01*
X0001072097Y0002750354D01*
X0001069848Y0002748104D01*
X0001068723Y0002743605D01*
X0001068723Y0002735731D01*
X0001069848Y0002731231D01*
X0001072097Y0002728982D01*
X0001074347Y0002727857D01*
X0001078847Y0002727857D01*
X0001081096Y0002728982D01*
X0001083346Y0002731231D01*
X0001084471Y0002735731D01*
X0001084471Y0002743605D01*
X0001083346Y0002748104D01*
X0001081096Y0002750354D01*
X0001078847Y0002751479D01*
X0001132339Y0002828982D02*
X0001128965Y0002827857D01*
X0001123340Y0002827857D01*
X0001121091Y0002828982D01*
X0001119966Y0002830106D01*
X0001118841Y0002832356D01*
X0001118841Y0002834606D01*
X0001119966Y0002836856D01*
X0001121091Y0002837980D01*
X0001123340Y0002839105D01*
X0001127840Y0002840230D01*
X0001130089Y0002841355D01*
X0001131214Y0002842480D01*
X0001132339Y0002844730D01*
X0001132339Y0002846979D01*
X0001131214Y0002849229D01*
X0001130089Y0002850354D01*
X0001127840Y0002851479D01*
X0001122215Y0002851479D01*
X0001118841Y0002850354D01*
X0001095219Y0002830106D02*
X0001096344Y0002828982D01*
X0001099718Y0002827857D01*
X0001101968Y0002827857D01*
X0001105343Y0002828982D01*
X0001107592Y0002831231D01*
X0001108717Y0002833481D01*
X0001109842Y0002837980D01*
X0001109842Y0002841355D01*
X0001108717Y0002845854D01*
X0001107592Y0002848104D01*
X0001105343Y0002850354D01*
X0001101968Y0002851479D01*
X0001099718Y0002851479D01*
X0001096344Y0002850354D01*
X0001095219Y0002849229D01*
X0001085095Y0002827857D02*
X0001085095Y0002851479D01*
X0001071597Y0002827857D02*
X0001081721Y0002841355D01*
X0001071597Y0002851479D02*
X0001085095Y0002837980D01*
X0001156276Y0002927857D02*
X0001164150Y0002939105D01*
X0001169775Y0002927857D02*
X0001169775Y0002951479D01*
X0001160776Y0002951479D01*
X0001158526Y0002950354D01*
X0001157401Y0002949229D01*
X0001156276Y0002946979D01*
X0001156276Y0002943605D01*
X0001157401Y0002941355D01*
X0001158526Y0002940230D01*
X0001160776Y0002939105D01*
X0001169775Y0002939105D01*
X0001146152Y0002940230D02*
X0001138278Y0002940230D01*
X0001134904Y0002927857D02*
X0001146152Y0002927857D01*
X0001146152Y0002951479D01*
X0001134904Y0002951479D01*
X0001125905Y0002928982D02*
X0001122530Y0002927857D01*
X0001116906Y0002927857D01*
X0001114656Y0002928982D01*
X0001113532Y0002930106D01*
X0001112407Y0002932356D01*
X0001112407Y0002934606D01*
X0001113532Y0002936856D01*
X0001114656Y0002937980D01*
X0001116906Y0002939105D01*
X0001121406Y0002940230D01*
X0001123655Y0002941355D01*
X0001124780Y0002942480D01*
X0001125905Y0002944730D01*
X0001125905Y0002946979D01*
X0001124780Y0002949229D01*
X0001123655Y0002950354D01*
X0001121406Y0002951479D01*
X0001115781Y0002951479D01*
X0001112407Y0002950354D01*
X0001102283Y0002940230D02*
X0001094409Y0002940230D01*
X0001091034Y0002927857D02*
X0001102283Y0002927857D01*
X0001102283Y0002951479D01*
X0001091034Y0002951479D01*
X0001084285Y0002951479D02*
X0001070787Y0002951479D01*
X0001077536Y0002927857D02*
X0001077536Y0002951479D01*
X0001144088Y0003122857D02*
X0001144088Y0003146479D01*
X0001136214Y0003129606D01*
X0001128340Y0003146479D01*
X0001128340Y0003122857D01*
X0001112592Y0003146479D02*
X0001108093Y0003146479D01*
X0001105843Y0003145354D01*
X0001103593Y0003143104D01*
X0001102469Y0003138605D01*
X0001102469Y0003130731D01*
X0001103593Y0003126231D01*
X0001105843Y0003123982D01*
X0001108093Y0003122857D01*
X0001112592Y0003122857D01*
X0001114842Y0003123982D01*
X0001117092Y0003126231D01*
X0001118217Y0003130731D01*
X0001118217Y0003138605D01*
X0001117092Y0003143104D01*
X0001114842Y0003145354D01*
X0001112592Y0003146479D01*
X0001093470Y0003123982D02*
X0001090095Y0003122857D01*
X0001084471Y0003122857D01*
X0001082221Y0003123982D01*
X0001081096Y0003125106D01*
X0001079971Y0003127356D01*
X0001079971Y0003129606D01*
X0001081096Y0003131856D01*
X0001082221Y0003132980D01*
X0001084471Y0003134105D01*
X0001088970Y0003135230D01*
X0001091220Y0003136355D01*
X0001092345Y0003137480D01*
X0001093470Y0003139730D01*
X0001093470Y0003141979D01*
X0001092345Y0003144229D01*
X0001091220Y0003145354D01*
X0001088970Y0003146479D01*
X0001083346Y0003146479D01*
X0001079971Y0003145354D01*
X0001069848Y0003122857D02*
X0001069848Y0003146479D01*
D37*
X0001393307Y0001909448D02*
X0001393307Y0002054576D01*
X0001527952Y0001909448D02*
X0001527952Y0002054576D01*
X0001283907Y0001822440D02*
X0001263336Y0001822440D01*
X0001283907Y0001878346D02*
X0001263336Y0001878346D01*
X0001250442Y0002090157D02*
X0001229871Y0002090157D01*
X0001250442Y0002146062D02*
X0001229871Y0002146062D01*
X0001647096Y0002296850D02*
X0001626525Y0002296850D01*
X0001647096Y0002352755D02*
X0001626525Y0002352755D01*
D35*
X0001716929Y0002429842D02*
X0001087007Y0002429842D01*
X0001087007Y0002429842D02*
X0001087007Y0003177874D01*
X0001087007Y0003177874D02*
X0001716929Y0003177874D01*
X0001716929Y0003177874D02*
X0001716929Y0002429842D01*
D37*
X0001335039Y0002020866D02*
X0001335039Y0001925196D01*
X0001214173Y0001951574D02*
X0001214173Y0002020866D01*
D35*
X0001568241Y0001855830D02*
X0001583239Y0001855830D01*
X0001583239Y0001887326D01*
X0001541244Y0001855830D02*
X0001559242Y0001855830D01*
X0001550243Y0001855830D02*
X0001550243Y0001887326D01*
X0001553243Y0001882827D01*
X0001556242Y0001879827D01*
X0001559242Y0001878327D01*
X0001284120Y0001769403D02*
X0001285995Y0001767529D01*
X0001291619Y0001765654D01*
X0001295369Y0001765654D01*
X0001300993Y0001767529D01*
X0001304743Y0001771278D01*
X0001306617Y0001775028D01*
X0001308492Y0001782527D01*
X0001308492Y0001788151D01*
X0001306617Y0001795650D01*
X0001304743Y0001799400D01*
X0001300993Y0001803149D01*
X0001295369Y0001805024D01*
X0001291619Y0001805024D01*
X0001285995Y0001803149D01*
X0001284120Y0001801274D01*
X0001270997Y0001805024D02*
X0001244750Y0001805024D01*
X0001261623Y0001765654D01*
X0001248687Y0002163104D02*
X0001250562Y0002161229D01*
X0001256186Y0002159355D01*
X0001259936Y0002159355D01*
X0001265560Y0002161229D01*
X0001269310Y0002164979D01*
X0001271184Y0002168728D01*
X0001273059Y0002176227D01*
X0001273059Y0002181852D01*
X0001271184Y0002189351D01*
X0001269310Y0002193100D01*
X0001265560Y0002196850D01*
X0001259936Y0002198725D01*
X0001256186Y0002198725D01*
X0001250562Y0002196850D01*
X0001248687Y0002194975D01*
X0001214941Y0002198725D02*
X0001222440Y0002198725D01*
X0001226190Y0002196850D01*
X0001228065Y0002194975D01*
X0001231814Y0002189351D01*
X0001233689Y0002181852D01*
X0001233689Y0002166854D01*
X0001231814Y0002163104D01*
X0001229940Y0002161229D01*
X0001226190Y0002159355D01*
X0001218691Y0002159355D01*
X0001214941Y0002161229D01*
X0001213067Y0002163104D01*
X0001211192Y0002166854D01*
X0001211192Y0002176227D01*
X0001213067Y0002179977D01*
X0001214941Y0002181852D01*
X0001218691Y0002183727D01*
X0001226190Y0002183727D01*
X0001229940Y0002181852D01*
X0001231814Y0002179977D01*
X0001233689Y0002176227D01*
X0001642388Y0002245781D02*
X0001644263Y0002243907D01*
X0001649887Y0002242032D01*
X0001653636Y0002242032D01*
X0001659261Y0002243907D01*
X0001663010Y0002247656D01*
X0001664885Y0002251406D01*
X0001666760Y0002258905D01*
X0001666760Y0002264529D01*
X0001664885Y0002272028D01*
X0001663010Y0002275778D01*
X0001659261Y0002279527D01*
X0001653636Y0002281402D01*
X0001649887Y0002281402D01*
X0001644263Y0002279527D01*
X0001642388Y0002277652D01*
X0001629265Y0002281402D02*
X0001604893Y0002281402D01*
X0001618016Y0002266404D01*
X0001612392Y0002266404D01*
X0001608642Y0002264529D01*
X0001606767Y0002262654D01*
X0001604893Y0002258905D01*
X0001604893Y0002249531D01*
X0001606767Y0002245781D01*
X0001608642Y0002243907D01*
X0001612392Y0002242032D01*
X0001623640Y0002242032D01*
X0001627390Y0002243907D01*
X0001629265Y0002245781D01*
X0001457349Y0002292838D02*
X0001457349Y0002270341D01*
X0001458848Y0002265841D01*
X0001461848Y0002262842D01*
X0001466347Y0002261342D01*
X0001469347Y0002261342D01*
X0001442350Y0002261342D02*
X0001442350Y0002292838D01*
X0001430352Y0002292838D01*
X0001427352Y0002291338D01*
X0001425852Y0002289838D01*
X0001424353Y0002286839D01*
X0001424353Y0002282339D01*
X0001425852Y0002279340D01*
X0001427352Y0002277840D01*
X0001430352Y0002276340D01*
X0001442350Y0002276340D01*
X0001394356Y0002261342D02*
X0001412354Y0002261342D01*
X0001403355Y0002261342D02*
X0001403355Y0002292838D01*
X0001406355Y0002288338D01*
X0001409355Y0002285339D01*
X0001412354Y0002283839D01*
X0001440401Y0002687622D02*
X0001440401Y0002726992D01*
X0001399156Y0002691372D02*
X0001401031Y0002689497D01*
X0001406655Y0002687622D01*
X0001410404Y0002687622D01*
X0001416029Y0002689497D01*
X0001419778Y0002693247D01*
X0001421653Y0002696996D01*
X0001423528Y0002704495D01*
X0001423528Y0002710120D01*
X0001421653Y0002717619D01*
X0001419778Y0002721368D01*
X0001416029Y0002725118D01*
X0001410404Y0002726992D01*
X0001406655Y0002726992D01*
X0001401031Y0002725118D01*
X0001399156Y0002723243D01*
X0001384158Y0002723243D02*
X0001382283Y0002725118D01*
X0001378533Y0002726992D01*
X0001369160Y0002726992D01*
X0001365410Y0002725118D01*
X0001363535Y0002723243D01*
X0001361660Y0002719493D01*
X0001361660Y0002715744D01*
X0001363535Y0002710120D01*
X0001386032Y0002687622D01*
X0001361660Y0002687622D01*
X0001169760Y0002012185D02*
X0001195256Y0002012185D01*
X0001198256Y0002010686D01*
X0001199756Y0002009186D01*
X0001201256Y0002006186D01*
X0001201256Y0002000187D01*
X0001199756Y0001997187D01*
X0001198256Y0001995688D01*
X0001195256Y0001994188D01*
X0001169760Y0001994188D01*
X0001201256Y0001962692D02*
X0001201256Y0001980689D01*
X0001201256Y0001971691D02*
X0001169760Y0001971691D01*
X0001174259Y0001974690D01*
X0001177259Y0001977690D01*
X0001178758Y0001980689D01*
G04 next file*
G04 #@! TF.GenerationSoftware,KiCad,Pcbnew,(5.1.2)-2*
G04 #@! TF.CreationDate,2019-11-25T21:55:28+01:00*
G04 #@! TF.ProjectId,HM-LC-SW1-BA-PCB_mini_MAX1724,484d2d4c-432d-4535-9731-2d42412d5043,rev?*
G04 #@! TF.SameCoordinates,Original*
G04 #@! TF.FileFunction,Legend,Bot*
G04 #@! TF.FilePolarity,Positive*
G04 Gerber Fmt 4.6, Leading zero omitted, Abs format (unit mm)*
G04 Created by KiCad (PCBNEW (5.1.2)-2) date 2019-11-25 21:55:28*
G04 APERTURE LIST*
G04 APERTURE END LIST*
D38*
X0001985283Y0002638233D02*
X0001985283Y0002677603D01*
X0001968410Y0002640107D02*
X0001962785Y0002638233D01*
X0001953412Y0002638233D01*
X0001949662Y0002640107D01*
X0001947787Y0002641982D01*
X0001945912Y0002645732D01*
X0001945912Y0002649481D01*
X0001947787Y0002653231D01*
X0001949662Y0002655105D01*
X0001953412Y0002656980D01*
X0001960911Y0002658855D01*
X0001964660Y0002660730D01*
X0001966535Y0002662605D01*
X0001968410Y0002666354D01*
X0001968410Y0002670104D01*
X0001966535Y0002673853D01*
X0001964660Y0002675728D01*
X0001960911Y0002677603D01*
X0001951537Y0002677603D01*
X0001945912Y0002675728D01*
X0001929040Y0002638233D02*
X0001929040Y0002677603D01*
X0001914041Y0002677603D01*
X0001910292Y0002675728D01*
X0001908417Y0002673853D01*
X0001906542Y0002670104D01*
X0001906542Y0002664479D01*
X0001908417Y0002660730D01*
X0001910292Y0002658855D01*
X0001914041Y0002656980D01*
X0001929040Y0002656980D01*
D39*
X0002088970Y0002727857D02*
X0002088970Y0002751479D01*
X0002081096Y0002734606D01*
X0002073222Y0002751479D01*
X0002073222Y0002727857D01*
X0002061974Y0002727857D02*
X0002061974Y0002751479D01*
X0002051850Y0002728982D02*
X0002048475Y0002727857D01*
X0002042851Y0002727857D01*
X0002040601Y0002728982D01*
X0002039476Y0002730106D01*
X0002038352Y0002732356D01*
X0002038352Y0002734606D01*
X0002039476Y0002736856D01*
X0002040601Y0002737980D01*
X0002042851Y0002739105D01*
X0002047350Y0002740230D01*
X0002049600Y0002741355D01*
X0002050725Y0002742480D01*
X0002051850Y0002744730D01*
X0002051850Y0002746979D01*
X0002050725Y0002749229D01*
X0002049600Y0002750354D01*
X0002047350Y0002751479D01*
X0002041726Y0002751479D01*
X0002038352Y0002750354D01*
X0002023728Y0002751479D02*
X0002019229Y0002751479D01*
X0002016979Y0002750354D01*
X0002014729Y0002748104D01*
X0002013605Y0002743605D01*
X0002013605Y0002735731D01*
X0002014729Y0002731231D01*
X0002016979Y0002728982D01*
X0002019229Y0002727857D01*
X0002023728Y0002727857D01*
X0002025978Y0002728982D01*
X0002028228Y0002731231D01*
X0002029353Y0002735731D01*
X0002029353Y0002743605D01*
X0002028228Y0002748104D01*
X0002025978Y0002750354D01*
X0002023728Y0002751479D01*
X0002077221Y0002828982D02*
X0002073847Y0002827857D01*
X0002068222Y0002827857D01*
X0002065972Y0002828982D01*
X0002064848Y0002830106D01*
X0002063723Y0002832356D01*
X0002063723Y0002834606D01*
X0002064848Y0002836856D01*
X0002065972Y0002837980D01*
X0002068222Y0002839105D01*
X0002072722Y0002840230D01*
X0002074971Y0002841355D01*
X0002076096Y0002842480D01*
X0002077221Y0002844730D01*
X0002077221Y0002846979D01*
X0002076096Y0002849229D01*
X0002074971Y0002850354D01*
X0002072722Y0002851479D01*
X0002067097Y0002851479D01*
X0002063723Y0002850354D01*
X0002040101Y0002830106D02*
X0002041226Y0002828982D01*
X0002044600Y0002827857D01*
X0002046850Y0002827857D01*
X0002050224Y0002828982D01*
X0002052474Y0002831231D01*
X0002053599Y0002833481D01*
X0002054724Y0002837980D01*
X0002054724Y0002841355D01*
X0002053599Y0002845854D01*
X0002052474Y0002848104D01*
X0002050224Y0002850354D01*
X0002046850Y0002851479D01*
X0002044600Y0002851479D01*
X0002041226Y0002850354D01*
X0002040101Y0002849229D01*
X0002029977Y0002827857D02*
X0002029977Y0002851479D01*
X0002016479Y0002827857D02*
X0002026602Y0002841355D01*
X0002016479Y0002851479D02*
X0002029977Y0002837980D01*
X0002101158Y0002927857D02*
X0002109032Y0002939105D01*
X0002114656Y0002927857D02*
X0002114656Y0002951479D01*
X0002105657Y0002951479D01*
X0002103408Y0002950354D01*
X0002102283Y0002949229D01*
X0002101158Y0002946979D01*
X0002101158Y0002943605D01*
X0002102283Y0002941355D01*
X0002103408Y0002940230D01*
X0002105657Y0002939105D01*
X0002114656Y0002939105D01*
X0002091034Y0002940230D02*
X0002083160Y0002940230D01*
X0002079786Y0002927857D02*
X0002091034Y0002927857D01*
X0002091034Y0002951479D01*
X0002079786Y0002951479D01*
X0002070787Y0002928982D02*
X0002067412Y0002927857D01*
X0002061788Y0002927857D01*
X0002059538Y0002928982D01*
X0002058413Y0002930106D01*
X0002057289Y0002932356D01*
X0002057289Y0002934606D01*
X0002058413Y0002936856D01*
X0002059538Y0002937980D01*
X0002061788Y0002939105D01*
X0002066287Y0002940230D01*
X0002068537Y0002941355D01*
X0002069662Y0002942480D01*
X0002070787Y0002944730D01*
X0002070787Y0002946979D01*
X0002069662Y0002949229D01*
X0002068537Y0002950354D01*
X0002066287Y0002951479D01*
X0002060663Y0002951479D01*
X0002057289Y0002950354D01*
X0002047165Y0002940230D02*
X0002039291Y0002940230D01*
X0002035916Y0002927857D02*
X0002047165Y0002927857D01*
X0002047165Y0002951479D01*
X0002035916Y0002951479D01*
X0002029167Y0002951479D02*
X0002015669Y0002951479D01*
X0002022418Y0002927857D02*
X0002022418Y0002951479D01*
X0002088970Y0003122857D02*
X0002088970Y0003146479D01*
X0002081096Y0003129606D01*
X0002073222Y0003146479D01*
X0002073222Y0003122857D01*
X0002057474Y0003146479D02*
X0002052975Y0003146479D01*
X0002050725Y0003145354D01*
X0002048475Y0003143104D01*
X0002047350Y0003138605D01*
X0002047350Y0003130731D01*
X0002048475Y0003126231D01*
X0002050725Y0003123982D01*
X0002052975Y0003122857D01*
X0002057474Y0003122857D01*
X0002059724Y0003123982D01*
X0002061974Y0003126231D01*
X0002063098Y0003130731D01*
X0002063098Y0003138605D01*
X0002061974Y0003143104D01*
X0002059724Y0003145354D01*
X0002057474Y0003146479D01*
X0002038352Y0003123982D02*
X0002034977Y0003122857D01*
X0002029353Y0003122857D01*
X0002027103Y0003123982D01*
X0002025978Y0003125106D01*
X0002024853Y0003127356D01*
X0002024853Y0003129606D01*
X0002025978Y0003131856D01*
X0002027103Y0003132980D01*
X0002029353Y0003134105D01*
X0002033852Y0003135230D01*
X0002036102Y0003136355D01*
X0002037227Y0003137480D01*
X0002038352Y0003139730D01*
X0002038352Y0003141979D01*
X0002037227Y0003144229D01*
X0002036102Y0003145354D01*
X0002033852Y0003146479D01*
X0002028228Y0003146479D01*
X0002024853Y0003145354D01*
X0002014729Y0003122857D02*
X0002014729Y0003146479D01*
D40*
X0002338188Y0001909448D02*
X0002338188Y0002054576D01*
X0002472834Y0001909448D02*
X0002472834Y0002054576D01*
X0002228789Y0001822440D02*
X0002208218Y0001822440D01*
X0002228789Y0001878346D02*
X0002208218Y0001878346D01*
X0002195324Y0002090157D02*
X0002174753Y0002090157D01*
X0002195324Y0002146062D02*
X0002174753Y0002146062D01*
X0002591978Y0002296850D02*
X0002571407Y0002296850D01*
X0002591978Y0002352755D02*
X0002571407Y0002352755D01*
D38*
X0002661811Y0002429842D02*
X0002031889Y0002429842D01*
X0002031889Y0002429842D02*
X0002031889Y0003177874D01*
X0002031889Y0003177874D02*
X0002661811Y0003177874D01*
X0002661811Y0003177874D02*
X0002661811Y0002429842D01*
D40*
X0002279921Y0002020866D02*
X0002279921Y0001925196D01*
X0002159055Y0001951574D02*
X0002159055Y0002020866D01*
D38*
X0002513123Y0001855830D02*
X0002528121Y0001855830D01*
X0002528121Y0001887326D01*
X0002486126Y0001855830D02*
X0002504124Y0001855830D01*
X0002495125Y0001855830D02*
X0002495125Y0001887326D01*
X0002498125Y0001882827D01*
X0002501124Y0001879827D01*
X0002504124Y0001878327D01*
X0002229002Y0001769403D02*
X0002230877Y0001767529D01*
X0002236501Y0001765654D01*
X0002240251Y0001765654D01*
X0002245875Y0001767529D01*
X0002249625Y0001771278D01*
X0002251499Y0001775028D01*
X0002253374Y0001782527D01*
X0002253374Y0001788151D01*
X0002251499Y0001795650D01*
X0002249625Y0001799400D01*
X0002245875Y0001803149D01*
X0002240251Y0001805024D01*
X0002236501Y0001805024D01*
X0002230877Y0001803149D01*
X0002229002Y0001801274D01*
X0002215879Y0001805024D02*
X0002189632Y0001805024D01*
X0002206505Y0001765654D01*
X0002193569Y0002163104D02*
X0002195444Y0002161229D01*
X0002201068Y0002159355D01*
X0002204818Y0002159355D01*
X0002210442Y0002161229D01*
X0002214191Y0002164979D01*
X0002216066Y0002168728D01*
X0002217941Y0002176227D01*
X0002217941Y0002181852D01*
X0002216066Y0002189351D01*
X0002214191Y0002193100D01*
X0002210442Y0002196850D01*
X0002204818Y0002198725D01*
X0002201068Y0002198725D01*
X0002195444Y0002196850D01*
X0002193569Y0002194975D01*
X0002159823Y0002198725D02*
X0002167322Y0002198725D01*
X0002171072Y0002196850D01*
X0002172947Y0002194975D01*
X0002176696Y0002189351D01*
X0002178571Y0002181852D01*
X0002178571Y0002166854D01*
X0002176696Y0002163104D01*
X0002174821Y0002161229D01*
X0002171072Y0002159355D01*
X0002163573Y0002159355D01*
X0002159823Y0002161229D01*
X0002157948Y0002163104D01*
X0002156074Y0002166854D01*
X0002156074Y0002176227D01*
X0002157948Y0002179977D01*
X0002159823Y0002181852D01*
X0002163573Y0002183727D01*
X0002171072Y0002183727D01*
X0002174821Y0002181852D01*
X0002176696Y0002179977D01*
X0002178571Y0002176227D01*
X0002587270Y0002245781D02*
X0002589145Y0002243907D01*
X0002594769Y0002242032D01*
X0002598518Y0002242032D01*
X0002604143Y0002243907D01*
X0002607892Y0002247656D01*
X0002609767Y0002251406D01*
X0002611642Y0002258905D01*
X0002611642Y0002264529D01*
X0002609767Y0002272028D01*
X0002607892Y0002275778D01*
X0002604143Y0002279527D01*
X0002598518Y0002281402D01*
X0002594769Y0002281402D01*
X0002589145Y0002279527D01*
X0002587270Y0002277652D01*
X0002574146Y0002281402D02*
X0002549775Y0002281402D01*
X0002562898Y0002266404D01*
X0002557274Y0002266404D01*
X0002553524Y0002264529D01*
X0002551649Y0002262654D01*
X0002549775Y0002258905D01*
X0002549775Y0002249531D01*
X0002551649Y0002245781D01*
X0002553524Y0002243907D01*
X0002557274Y0002242032D01*
X0002568522Y0002242032D01*
X0002572272Y0002243907D01*
X0002574146Y0002245781D01*
X0002402230Y0002292838D02*
X0002402230Y0002270341D01*
X0002403730Y0002265841D01*
X0002406730Y0002262842D01*
X0002411229Y0002261342D01*
X0002414229Y0002261342D01*
X0002387232Y0002261342D02*
X0002387232Y0002292838D01*
X0002375234Y0002292838D01*
X0002372234Y0002291338D01*
X0002370734Y0002289838D01*
X0002369235Y0002286839D01*
X0002369235Y0002282339D01*
X0002370734Y0002279340D01*
X0002372234Y0002277840D01*
X0002375234Y0002276340D01*
X0002387232Y0002276340D01*
X0002339238Y0002261342D02*
X0002357236Y0002261342D01*
X0002348237Y0002261342D02*
X0002348237Y0002292838D01*
X0002351237Y0002288338D01*
X0002354236Y0002285339D01*
X0002357236Y0002283839D01*
X0002385283Y0002687622D02*
X0002385283Y0002726992D01*
X0002344038Y0002691372D02*
X0002345912Y0002689497D01*
X0002351537Y0002687622D01*
X0002355286Y0002687622D01*
X0002360911Y0002689497D01*
X0002364660Y0002693247D01*
X0002366535Y0002696996D01*
X0002368410Y0002704495D01*
X0002368410Y0002710120D01*
X0002366535Y0002717619D01*
X0002364660Y0002721368D01*
X0002360911Y0002725118D01*
X0002355286Y0002726992D01*
X0002351537Y0002726992D01*
X0002345912Y0002725118D01*
X0002344038Y0002723243D01*
X0002329040Y0002723243D02*
X0002327165Y0002725118D01*
X0002323415Y0002726992D01*
X0002314041Y0002726992D01*
X0002310292Y0002725118D01*
X0002308417Y0002723243D01*
X0002306542Y0002719493D01*
X0002306542Y0002715744D01*
X0002308417Y0002710120D01*
X0002330914Y0002687622D01*
X0002306542Y0002687622D01*
X0002114641Y0002012185D02*
X0002140138Y0002012185D01*
X0002143138Y0002010686D01*
X0002144638Y0002009186D01*
X0002146137Y0002006186D01*
X0002146137Y0002000187D01*
X0002144638Y0001997187D01*
X0002143138Y0001995688D01*
X0002140138Y0001994188D01*
X0002114641Y0001994188D01*
X0002146137Y0001962692D02*
X0002146137Y0001980689D01*
X0002146137Y0001971691D02*
X0002114641Y0001971691D01*
X0002119141Y0001974690D01*
X0002122140Y0001977690D01*
X0002123640Y0001980689D01*
G04 next file*
G04 #@! TF.GenerationSoftware,KiCad,Pcbnew,(5.1.2)-2*
G04 #@! TF.CreationDate,2019-11-25T21:55:28+01:00*
G04 #@! TF.ProjectId,HM-LC-SW1-BA-PCB_mini_MAX1724,484d2d4c-432d-4535-9731-2d42412d5043,rev?*
G04 #@! TF.SameCoordinates,Original*
G04 #@! TF.FileFunction,Legend,Bot*
G04 #@! TF.FilePolarity,Positive*
G04 Gerber Fmt 4.6, Leading zero omitted, Abs format (unit mm)*
G04 Created by KiCad (PCBNEW (5.1.2)-2) date 2019-11-25 21:55:28*
G04 APERTURE LIST*
G04 APERTURE END LIST*
D41*
X0002930164Y0002638233D02*
X0002930164Y0002677603D01*
X0002913292Y0002640107D02*
X0002907667Y0002638233D01*
X0002898293Y0002638233D01*
X0002894544Y0002640107D01*
X0002892669Y0002641982D01*
X0002890794Y0002645732D01*
X0002890794Y0002649481D01*
X0002892669Y0002653231D01*
X0002894544Y0002655105D01*
X0002898293Y0002656980D01*
X0002905792Y0002658855D01*
X0002909542Y0002660730D01*
X0002911417Y0002662605D01*
X0002913292Y0002666354D01*
X0002913292Y0002670104D01*
X0002911417Y0002673853D01*
X0002909542Y0002675728D01*
X0002905792Y0002677603D01*
X0002896419Y0002677603D01*
X0002890794Y0002675728D01*
X0002873921Y0002638233D02*
X0002873921Y0002677603D01*
X0002858923Y0002677603D01*
X0002855174Y0002675728D01*
X0002853299Y0002673853D01*
X0002851424Y0002670104D01*
X0002851424Y0002664479D01*
X0002853299Y0002660730D01*
X0002855174Y0002658855D01*
X0002858923Y0002656980D01*
X0002873921Y0002656980D01*
D42*
X0003033852Y0002727857D02*
X0003033852Y0002751479D01*
X0003025978Y0002734606D01*
X0003018104Y0002751479D01*
X0003018104Y0002727857D01*
X0003006855Y0002727857D02*
X0003006855Y0002751479D01*
X0002996732Y0002728982D02*
X0002993357Y0002727857D01*
X0002987733Y0002727857D01*
X0002985483Y0002728982D01*
X0002984358Y0002730106D01*
X0002983233Y0002732356D01*
X0002983233Y0002734606D01*
X0002984358Y0002736856D01*
X0002985483Y0002737980D01*
X0002987733Y0002739105D01*
X0002992232Y0002740230D01*
X0002994482Y0002741355D01*
X0002995607Y0002742480D01*
X0002996732Y0002744730D01*
X0002996732Y0002746979D01*
X0002995607Y0002749229D01*
X0002994482Y0002750354D01*
X0002992232Y0002751479D01*
X0002986608Y0002751479D01*
X0002983233Y0002750354D01*
X0002968610Y0002751479D02*
X0002964111Y0002751479D01*
X0002961861Y0002750354D01*
X0002959611Y0002748104D01*
X0002958487Y0002743605D01*
X0002958487Y0002735731D01*
X0002959611Y0002731231D01*
X0002961861Y0002728982D01*
X0002964111Y0002727857D01*
X0002968610Y0002727857D01*
X0002970860Y0002728982D01*
X0002973110Y0002731231D01*
X0002974235Y0002735731D01*
X0002974235Y0002743605D01*
X0002973110Y0002748104D01*
X0002970860Y0002750354D01*
X0002968610Y0002751479D01*
X0003022103Y0002828982D02*
X0003018728Y0002827857D01*
X0003013104Y0002827857D01*
X0003010854Y0002828982D01*
X0003009730Y0002830106D01*
X0003008605Y0002832356D01*
X0003008605Y0002834606D01*
X0003009730Y0002836856D01*
X0003010854Y0002837980D01*
X0003013104Y0002839105D01*
X0003017604Y0002840230D01*
X0003019853Y0002841355D01*
X0003020978Y0002842480D01*
X0003022103Y0002844730D01*
X0003022103Y0002846979D01*
X0003020978Y0002849229D01*
X0003019853Y0002850354D01*
X0003017604Y0002851479D01*
X0003011979Y0002851479D01*
X0003008605Y0002850354D01*
X0002984983Y0002830106D02*
X0002986107Y0002828982D01*
X0002989482Y0002827857D01*
X0002991732Y0002827857D01*
X0002995106Y0002828982D01*
X0002997356Y0002831231D01*
X0002998481Y0002833481D01*
X0002999606Y0002837980D01*
X0002999606Y0002841355D01*
X0002998481Y0002845854D01*
X0002997356Y0002848104D01*
X0002995106Y0002850354D01*
X0002991732Y0002851479D01*
X0002989482Y0002851479D01*
X0002986107Y0002850354D01*
X0002984983Y0002849229D01*
X0002974859Y0002827857D02*
X0002974859Y0002851479D01*
X0002961361Y0002827857D02*
X0002971484Y0002841355D01*
X0002961361Y0002851479D02*
X0002974859Y0002837980D01*
X0003046040Y0002927857D02*
X0003053914Y0002939105D01*
X0003059538Y0002927857D02*
X0003059538Y0002951479D01*
X0003050539Y0002951479D01*
X0003048290Y0002950354D01*
X0003047165Y0002949229D01*
X0003046040Y0002946979D01*
X0003046040Y0002943605D01*
X0003047165Y0002941355D01*
X0003048290Y0002940230D01*
X0003050539Y0002939105D01*
X0003059538Y0002939105D01*
X0003035916Y0002940230D02*
X0003028042Y0002940230D01*
X0003024668Y0002927857D02*
X0003035916Y0002927857D01*
X0003035916Y0002951479D01*
X0003024668Y0002951479D01*
X0003015669Y0002928982D02*
X0003012294Y0002927857D01*
X0003006670Y0002927857D01*
X0003004420Y0002928982D01*
X0003003295Y0002930106D01*
X0003002170Y0002932356D01*
X0003002170Y0002934606D01*
X0003003295Y0002936856D01*
X0003004420Y0002937980D01*
X0003006670Y0002939105D01*
X0003011169Y0002940230D01*
X0003013419Y0002941355D01*
X0003014544Y0002942480D01*
X0003015669Y0002944730D01*
X0003015669Y0002946979D01*
X0003014544Y0002949229D01*
X0003013419Y0002950354D01*
X0003011169Y0002951479D01*
X0003005545Y0002951479D01*
X0003002170Y0002950354D01*
X0002992047Y0002940230D02*
X0002984173Y0002940230D01*
X0002980798Y0002927857D02*
X0002992047Y0002927857D01*
X0002992047Y0002951479D01*
X0002980798Y0002951479D01*
X0002974049Y0002951479D02*
X0002960551Y0002951479D01*
X0002967300Y0002927857D02*
X0002967300Y0002951479D01*
X0003033852Y0003122857D02*
X0003033852Y0003146479D01*
X0003025978Y0003129606D01*
X0003018104Y0003146479D01*
X0003018104Y0003122857D01*
X0003002356Y0003146479D02*
X0002997857Y0003146479D01*
X0002995607Y0003145354D01*
X0002993357Y0003143104D01*
X0002992232Y0003138605D01*
X0002992232Y0003130731D01*
X0002993357Y0003126231D01*
X0002995607Y0003123982D01*
X0002997857Y0003122857D01*
X0003002356Y0003122857D01*
X0003004606Y0003123982D01*
X0003006855Y0003126231D01*
X0003007980Y0003130731D01*
X0003007980Y0003138605D01*
X0003006855Y0003143104D01*
X0003004606Y0003145354D01*
X0003002356Y0003146479D01*
X0002983233Y0003123982D02*
X0002979859Y0003122857D01*
X0002974235Y0003122857D01*
X0002971985Y0003123982D01*
X0002970860Y0003125106D01*
X0002969735Y0003127356D01*
X0002969735Y0003129606D01*
X0002970860Y0003131856D01*
X0002971985Y0003132980D01*
X0002974235Y0003134105D01*
X0002978734Y0003135230D01*
X0002980984Y0003136355D01*
X0002982109Y0003137480D01*
X0002983233Y0003139730D01*
X0002983233Y0003141979D01*
X0002982109Y0003144229D01*
X0002980984Y0003145354D01*
X0002978734Y0003146479D01*
X0002973110Y0003146479D01*
X0002969735Y0003145354D01*
X0002959611Y0003122857D02*
X0002959611Y0003146479D01*
D43*
X0003283070Y0001909448D02*
X0003283070Y0002054576D01*
X0003417716Y0001909448D02*
X0003417716Y0002054576D01*
X0003173671Y0001822440D02*
X0003153100Y0001822440D01*
X0003173671Y0001878346D02*
X0003153100Y0001878346D01*
X0003140206Y0002090157D02*
X0003119635Y0002090157D01*
X0003140206Y0002146062D02*
X0003119635Y0002146062D01*
X0003536860Y0002296850D02*
X0003516289Y0002296850D01*
X0003536860Y0002352755D02*
X0003516289Y0002352755D01*
D41*
X0003606692Y0002429842D02*
X0002976771Y0002429842D01*
X0002976771Y0002429842D02*
X0002976771Y0003177874D01*
X0002976771Y0003177874D02*
X0003606692Y0003177874D01*
X0003606692Y0003177874D02*
X0003606692Y0002429842D01*
D43*
X0003224803Y0002020866D02*
X0003224803Y0001925196D01*
X0003103937Y0001951574D02*
X0003103937Y0002020866D01*
D41*
X0003458005Y0001855830D02*
X0003473003Y0001855830D01*
X0003473003Y0001887326D01*
X0003431008Y0001855830D02*
X0003449006Y0001855830D01*
X0003440007Y0001855830D02*
X0003440007Y0001887326D01*
X0003443007Y0001882827D01*
X0003446006Y0001879827D01*
X0003449006Y0001878327D01*
X0003173884Y0001769403D02*
X0003175759Y0001767529D01*
X0003181383Y0001765654D01*
X0003185133Y0001765654D01*
X0003190757Y0001767529D01*
X0003194506Y0001771278D01*
X0003196381Y0001775028D01*
X0003198256Y0001782527D01*
X0003198256Y0001788151D01*
X0003196381Y0001795650D01*
X0003194506Y0001799400D01*
X0003190757Y0001803149D01*
X0003185133Y0001805024D01*
X0003181383Y0001805024D01*
X0003175759Y0001803149D01*
X0003173884Y0001801274D01*
X0003160761Y0001805024D02*
X0003134514Y0001805024D01*
X0003151387Y0001765654D01*
X0003138451Y0002163104D02*
X0003140326Y0002161229D01*
X0003145950Y0002159355D01*
X0003149699Y0002159355D01*
X0003155324Y0002161229D01*
X0003159073Y0002164979D01*
X0003160948Y0002168728D01*
X0003162823Y0002176227D01*
X0003162823Y0002181852D01*
X0003160948Y0002189351D01*
X0003159073Y0002193100D01*
X0003155324Y0002196850D01*
X0003149699Y0002198725D01*
X0003145950Y0002198725D01*
X0003140326Y0002196850D01*
X0003138451Y0002194975D01*
X0003104705Y0002198725D02*
X0003112204Y0002198725D01*
X0003115954Y0002196850D01*
X0003117829Y0002194975D01*
X0003121578Y0002189351D01*
X0003123453Y0002181852D01*
X0003123453Y0002166854D01*
X0003121578Y0002163104D01*
X0003119703Y0002161229D01*
X0003115954Y0002159355D01*
X0003108455Y0002159355D01*
X0003104705Y0002161229D01*
X0003102830Y0002163104D01*
X0003100956Y0002166854D01*
X0003100956Y0002176227D01*
X0003102830Y0002179977D01*
X0003104705Y0002181852D01*
X0003108455Y0002183727D01*
X0003115954Y0002183727D01*
X0003119703Y0002181852D01*
X0003121578Y0002179977D01*
X0003123453Y0002176227D01*
X0003532152Y0002245781D02*
X0003534026Y0002243907D01*
X0003539651Y0002242032D01*
X0003543400Y0002242032D01*
X0003549025Y0002243907D01*
X0003552774Y0002247656D01*
X0003554649Y0002251406D01*
X0003556524Y0002258905D01*
X0003556524Y0002264529D01*
X0003554649Y0002272028D01*
X0003552774Y0002275778D01*
X0003549025Y0002279527D01*
X0003543400Y0002281402D01*
X0003539651Y0002281402D01*
X0003534026Y0002279527D01*
X0003532152Y0002277652D01*
X0003519028Y0002281402D02*
X0003494656Y0002281402D01*
X0003507780Y0002266404D01*
X0003502155Y0002266404D01*
X0003498406Y0002264529D01*
X0003496531Y0002262654D01*
X0003494656Y0002258905D01*
X0003494656Y0002249531D01*
X0003496531Y0002245781D01*
X0003498406Y0002243907D01*
X0003502155Y0002242032D01*
X0003513404Y0002242032D01*
X0003517154Y0002243907D01*
X0003519028Y0002245781D01*
X0003347112Y0002292838D02*
X0003347112Y0002270341D01*
X0003348612Y0002265841D01*
X0003351612Y0002262842D01*
X0003356111Y0002261342D01*
X0003359111Y0002261342D01*
X0003332114Y0002261342D02*
X0003332114Y0002292838D01*
X0003320116Y0002292838D01*
X0003317116Y0002291338D01*
X0003315616Y0002289838D01*
X0003314116Y0002286839D01*
X0003314116Y0002282339D01*
X0003315616Y0002279340D01*
X0003317116Y0002277840D01*
X0003320116Y0002276340D01*
X0003332114Y0002276340D01*
X0003284120Y0002261342D02*
X0003302118Y0002261342D01*
X0003293119Y0002261342D02*
X0003293119Y0002292838D01*
X0003296119Y0002288338D01*
X0003299118Y0002285339D01*
X0003302118Y0002283839D01*
X0003330164Y0002687622D02*
X0003330164Y0002726992D01*
X0003288920Y0002691372D02*
X0003290794Y0002689497D01*
X0003296419Y0002687622D01*
X0003300168Y0002687622D01*
X0003305792Y0002689497D01*
X0003309542Y0002693247D01*
X0003311417Y0002696996D01*
X0003313292Y0002704495D01*
X0003313292Y0002710120D01*
X0003311417Y0002717619D01*
X0003309542Y0002721368D01*
X0003305792Y0002725118D01*
X0003300168Y0002726992D01*
X0003296419Y0002726992D01*
X0003290794Y0002725118D01*
X0003288920Y0002723243D01*
X0003273922Y0002723243D02*
X0003272047Y0002725118D01*
X0003268297Y0002726992D01*
X0003258923Y0002726992D01*
X0003255174Y0002725118D01*
X0003253299Y0002723243D01*
X0003251424Y0002719493D01*
X0003251424Y0002715744D01*
X0003253299Y0002710120D01*
X0003275796Y0002687622D01*
X0003251424Y0002687622D01*
X0003059523Y0002012185D02*
X0003085020Y0002012185D01*
X0003088020Y0002010686D01*
X0003089520Y0002009186D01*
X0003091019Y0002006186D01*
X0003091019Y0002000187D01*
X0003089520Y0001997187D01*
X0003088020Y0001995688D01*
X0003085020Y0001994188D01*
X0003059523Y0001994188D01*
X0003091019Y0001962692D02*
X0003091019Y0001980689D01*
X0003091019Y0001971691D02*
X0003059523Y0001971691D01*
X0003064023Y0001974690D01*
X0003067022Y0001977690D01*
X0003068522Y0001980689D01*
M02*