%MOIN*%
%OFA0B0*%
%FSLAX46Y46*%
%IPPOS*%
%LPD*%
%ADD10C,0.005905511811023622*%
%ADD11C,0.0039370078740157488*%
%ADD12C,0.0047244094488188976*%
%ADD23C,0.005905511811023622*%
%ADD24C,0.0039370078740157488*%
%ADD25C,0.0047244094488188976*%
%ADD36C,0.005905511811023622*%
%ADD37C,0.0039370078740157488*%
%ADD38C,0.0047244094488188976*%
%ADD49C,0.005905511811023622*%
%ADD50C,0.0039370078740157488*%
%ADD51C,0.0047244094488188976*%
%ADD62C,0.005905511811023622*%
%ADD63C,0.0039370078740157488*%
%ADD64C,0.0047244094488188976*%
%ADD75C,0.005905511811023622*%
%ADD76C,0.0039370078740157488*%
%ADD77C,0.0047244094488188976*%
%ADD88C,0.005905511811023622*%
%ADD89C,0.0039370078740157488*%
%ADD90C,0.0047244094488188976*%
%ADD101C,0.005905511811023622*%
%ADD102C,0.0039370078740157488*%
%ADD103C,0.0047244094488188976*%
%LPD*%
D10*
X0000608698Y0001347111D02*
X0000593700Y0001347111D01*
X0000611698Y0001338114D02*
X0000601199Y0001369610D01*
X0000590701Y0001338114D01*
X0000580202Y0001338114D02*
X0000580202Y0001369610D01*
X0000562204Y0001338114D01*
X0000562204Y0001369610D01*
X0000551705Y0001369610D02*
X0000533708Y0001369610D01*
X0000542707Y0001338114D02*
X0000542707Y0001369610D01*
X0000523209Y0001341113D02*
X0000521709Y0001339613D01*
X0000523209Y0001338114D01*
X0000524709Y0001339613D01*
X0000523209Y0001341113D01*
X0000523209Y0001338114D01*
X0000523209Y0001357610D02*
X0000521709Y0001356111D01*
X0000523209Y0001354611D01*
X0000524709Y0001356111D01*
X0000523209Y0001357610D01*
X0000523209Y0001354611D01*
X0000487214Y0001369610D02*
X0000466216Y0001369610D01*
X0000479715Y0001338114D01*
X0000455718Y0001366610D02*
X0000454218Y0001368110D01*
X0000451218Y0001369610D01*
X0000443719Y0001369610D01*
X0000440719Y0001368110D01*
X0000439220Y0001366610D01*
X0000437720Y0001363610D01*
X0000437720Y0001360611D01*
X0000439220Y0001356111D01*
X0000457216Y0001338114D01*
X0000437720Y0001338114D01*
X0000424221Y0001338114D02*
X0000424221Y0001359111D01*
X0000424221Y0001356111D02*
X0000422722Y0001357610D01*
X0000419722Y0001359111D01*
X0000415223Y0001359111D01*
X0000412223Y0001357610D01*
X0000410723Y0001354611D01*
X0000410723Y0001338114D01*
X0000410723Y0001354611D02*
X0000409223Y0001357610D01*
X0000406224Y0001359111D01*
X0000401724Y0001359111D01*
X0000398725Y0001357610D01*
X0000397225Y0001354611D01*
X0000397225Y0001338114D01*
X0000382227Y0001338114D02*
X0000382227Y0001359111D01*
X0000382227Y0001356111D02*
X0000380727Y0001357610D01*
X0000377727Y0001359111D01*
X0000373227Y0001359111D01*
X0000370227Y0001357610D01*
X0000368727Y0001354611D01*
X0000368727Y0001338114D01*
X0000368727Y0001354611D02*
X0000367229Y0001357610D01*
X0000364229Y0001359111D01*
X0000359730Y0001359111D01*
X0000356730Y0001357610D01*
X0000355230Y0001354611D01*
X0000355230Y0001338114D01*
X0000319235Y0001369610D02*
X0000311735Y0001338114D01*
X0000305736Y0001360611D01*
X0000299737Y0001338114D01*
X0000292238Y0001369610D01*
X0000280239Y0001338114D02*
X0000280239Y0001359111D01*
X0000280239Y0001369610D02*
X0000281739Y0001368110D01*
X0000280239Y0001366610D01*
X0000278740Y0001368110D01*
X0000280239Y0001369610D01*
X0000280239Y0001366610D01*
X0000265241Y0001338114D02*
X0000265241Y0001359111D01*
X0000265241Y0001353111D02*
X0000263742Y0001356111D01*
X0000262242Y0001357610D01*
X0000259241Y0001359111D01*
X0000256242Y0001359111D01*
X0000233745Y0001339613D02*
X0000236745Y0001338114D01*
X0000242744Y0001338114D01*
X0000245744Y0001339613D01*
X0000247244Y0001342613D01*
X0000247244Y0001354611D01*
X0000245744Y0001357610D01*
X0000242744Y0001359111D01*
X0000236745Y0001359111D01*
X0000233745Y0001357610D01*
X0000232245Y0001354611D01*
X0000232245Y0001351612D01*
X0000247244Y0001348612D01*
X0000095519Y0000905949D02*
X0000095519Y0000945318D01*
X0000078646Y0000907824D02*
X0000073022Y0000905949D01*
X0000063646Y0000905949D01*
X0000059898Y0000907824D01*
X0000058023Y0000909699D01*
X0000056149Y0000913448D01*
X0000056149Y0000917198D01*
X0000058023Y0000920947D01*
X0000059898Y0000922822D01*
X0000063646Y0000924697D01*
X0000071147Y0000926571D01*
X0000074896Y0000928446D01*
X0000076771Y0000930321D01*
X0000078646Y0000934071D01*
X0000078646Y0000937820D01*
X0000076771Y0000941570D01*
X0000074896Y0000943444D01*
X0000071147Y0000945318D01*
X0000061773Y0000945318D01*
X0000056149Y0000943444D01*
X0000039276Y0000905949D02*
X0000039276Y0000945318D01*
X0000024278Y0000945318D01*
X0000020528Y0000943444D01*
X0000018653Y0000941570D01*
X0000016779Y0000937820D01*
X0000016779Y0000932195D01*
X0000018653Y0000928446D01*
X0000020528Y0000926571D01*
X0000024278Y0000924697D01*
X0000039276Y0000924697D01*
D11*
X0000199206Y0000995573D02*
X0000199206Y0001019195D01*
X0000191332Y0001002321D01*
X0000183457Y0001019195D01*
X0000183457Y0000995573D01*
X0000172210Y0000995573D02*
X0000172210Y0001019195D01*
X0000162086Y0000996698D02*
X0000158711Y0000995573D01*
X0000153087Y0000995573D01*
X0000150837Y0000996698D01*
X0000149713Y0000997823D01*
X0000148588Y0001000073D01*
X0000148588Y0001002321D01*
X0000149713Y0001004572D01*
X0000150837Y0001005697D01*
X0000153087Y0001006822D01*
X0000157587Y0001007946D01*
X0000159836Y0001009072D01*
X0000160961Y0001010196D01*
X0000162086Y0001012446D01*
X0000162086Y0001014696D01*
X0000160961Y0001016945D01*
X0000159836Y0001018070D01*
X0000157587Y0001019195D01*
X0000151962Y0001019195D01*
X0000148588Y0001018070D01*
X0000133965Y0001019195D02*
X0000129465Y0001019195D01*
X0000127215Y0001018070D01*
X0000124966Y0001015821D01*
X0000123841Y0001011320D01*
X0000123841Y0001003447D01*
X0000124966Y0000998948D01*
X0000127215Y0000996698D01*
X0000129465Y0000995573D01*
X0000133965Y0000995573D01*
X0000136214Y0000996698D01*
X0000138464Y0000998948D01*
X0000139589Y0001003447D01*
X0000139589Y0001011320D01*
X0000138464Y0001015821D01*
X0000136214Y0001018070D01*
X0000133965Y0001019195D01*
X0000187457Y0001096698D02*
X0000184083Y0001095573D01*
X0000178458Y0001095573D01*
X0000176209Y0001096698D01*
X0000175084Y0001097823D01*
X0000173959Y0001100073D01*
X0000173959Y0001102322D01*
X0000175084Y0001104572D01*
X0000176209Y0001105697D01*
X0000178458Y0001106822D01*
X0000182958Y0001107947D01*
X0000185208Y0001109072D01*
X0000186332Y0001110196D01*
X0000187457Y0001112446D01*
X0000187457Y0001114696D01*
X0000186332Y0001116946D01*
X0000185208Y0001118070D01*
X0000182958Y0001119195D01*
X0000177334Y0001119195D01*
X0000173959Y0001118070D01*
X0000150337Y0001097823D02*
X0000151462Y0001096698D01*
X0000154836Y0001095573D01*
X0000157086Y0001095573D01*
X0000160460Y0001096698D01*
X0000162710Y0001098948D01*
X0000163835Y0001101197D01*
X0000164960Y0001105697D01*
X0000164960Y0001109072D01*
X0000163835Y0001113571D01*
X0000162710Y0001115821D01*
X0000160460Y0001118070D01*
X0000157086Y0001119195D01*
X0000154836Y0001119195D01*
X0000151462Y0001118070D01*
X0000150337Y0001116946D01*
X0000140213Y0001095573D02*
X0000140213Y0001119195D01*
X0000126715Y0001095573D02*
X0000136839Y0001109072D01*
X0000126715Y0001119195D02*
X0000140213Y0001105697D01*
X0000211394Y0001195573D02*
X0000219268Y0001206822D01*
X0000224893Y0001195573D02*
X0000224893Y0001219195D01*
X0000215894Y0001219195D01*
X0000213644Y0001218070D01*
X0000212519Y0001216945D01*
X0000211394Y0001214696D01*
X0000211394Y0001211321D01*
X0000212519Y0001209072D01*
X0000213644Y0001207947D01*
X0000215894Y0001206822D01*
X0000224893Y0001206822D01*
X0000201271Y0001207947D02*
X0000193397Y0001207947D01*
X0000190022Y0001195573D02*
X0000201271Y0001195573D01*
X0000201271Y0001219195D01*
X0000190022Y0001219195D01*
X0000181022Y0001196698D02*
X0000177648Y0001195573D01*
X0000172024Y0001195573D01*
X0000169775Y0001196698D01*
X0000168649Y0001197823D01*
X0000167525Y0001200073D01*
X0000167525Y0001202322D01*
X0000168649Y0001204572D01*
X0000169775Y0001205697D01*
X0000172024Y0001206822D01*
X0000176524Y0001207947D01*
X0000178772Y0001209072D01*
X0000179898Y0001210196D01*
X0000181022Y0001212446D01*
X0000181022Y0001214696D01*
X0000179898Y0001216945D01*
X0000178772Y0001218070D01*
X0000176524Y0001219195D01*
X0000170899Y0001219195D01*
X0000167525Y0001218070D01*
X0000157401Y0001207947D02*
X0000149527Y0001207947D01*
X0000146152Y0001195573D02*
X0000157401Y0001195573D01*
X0000157401Y0001219195D01*
X0000146152Y0001219195D01*
X0000139403Y0001219195D02*
X0000125903Y0001219195D01*
X0000132654Y0001195573D02*
X0000132654Y0001219195D01*
X0000199206Y0001390572D02*
X0000199206Y0001414195D01*
X0000191332Y0001397322D01*
X0000183457Y0001414195D01*
X0000183457Y0001390572D01*
X0000167710Y0001414195D02*
X0000163211Y0001414195D01*
X0000160961Y0001413070D01*
X0000158711Y0001410821D01*
X0000157587Y0001406320D01*
X0000157587Y0001398446D01*
X0000158711Y0001393948D01*
X0000160961Y0001391698D01*
X0000163211Y0001390572D01*
X0000167710Y0001390572D01*
X0000169960Y0001391698D01*
X0000172210Y0001393948D01*
X0000173335Y0001398446D01*
X0000173335Y0001406320D01*
X0000172210Y0001410821D01*
X0000169960Y0001413070D01*
X0000167710Y0001414195D01*
X0000148588Y0001391698D02*
X0000145213Y0001390572D01*
X0000139589Y0001390572D01*
X0000137339Y0001391698D01*
X0000136214Y0001392823D01*
X0000135089Y0001395073D01*
X0000135089Y0001397322D01*
X0000136214Y0001399572D01*
X0000137339Y0001400697D01*
X0000139589Y0001401822D01*
X0000144088Y0001402947D01*
X0000146338Y0001404071D01*
X0000147463Y0001405196D01*
X0000148588Y0001407446D01*
X0000148588Y0001409695D01*
X0000147463Y0001411946D01*
X0000146338Y0001413070D01*
X0000144088Y0001414195D01*
X0000138464Y0001414195D01*
X0000135089Y0001413070D01*
X0000124966Y0001390572D02*
X0000124966Y0001414195D01*
D12*
X0000449606Y0000199606D02*
X0000449606Y0000344734D01*
X0000584251Y0000199606D02*
X0000584251Y0000344734D01*
X0000339025Y0000090157D02*
X0000318453Y0000090157D01*
X0000339025Y0000146062D02*
X0000318453Y0000146062D01*
X0000305561Y0000357874D02*
X0000284990Y0000357874D01*
X0000305561Y0000413779D02*
X0000284990Y0000413779D01*
X0000702214Y0000564566D02*
X0000681643Y0000564566D01*
X0000702214Y0000620472D02*
X0000681643Y0000620472D01*
D10*
X0000772047Y0000697559D02*
X0000142125Y0000697559D01*
X0000142125Y0000697559D02*
X0000142125Y0001445590D01*
X0000142125Y0001445590D02*
X0000772047Y0001445590D01*
X0000772047Y0001445590D02*
X0000772047Y0000697559D01*
D12*
X0000390157Y0000288582D02*
X0000390157Y0000192913D01*
X0000269291Y0000219291D02*
X0000269291Y0000288582D01*
D10*
X0000624540Y0000145987D02*
X0000639538Y0000145987D01*
X0000639538Y0000177484D01*
X0000597544Y0000145987D02*
X0000615541Y0000145987D01*
X0000606542Y0000145987D02*
X0000606542Y0000177484D01*
X0000609542Y0000172984D01*
X0000612542Y0000169985D01*
X0000615541Y0000168485D01*
X0000339238Y0000037120D02*
X0000341113Y0000035245D01*
X0000346737Y0000033370D01*
X0000350487Y0000033370D01*
X0000356111Y0000035245D01*
X0000359861Y0000038995D01*
X0000361736Y0000042744D01*
X0000363610Y0000050243D01*
X0000363610Y0000055867D01*
X0000361736Y0000063367D01*
X0000359861Y0000067116D01*
X0000356111Y0000070866D01*
X0000350487Y0000072740D01*
X0000346737Y0000072740D01*
X0000341113Y0000070866D01*
X0000339238Y0000068991D01*
X0000326115Y0000072740D02*
X0000299868Y0000072740D01*
X0000316741Y0000033370D01*
X0000303805Y0000430820D02*
X0000305680Y0000428946D01*
X0000311304Y0000427071D01*
X0000315054Y0000427071D01*
X0000320678Y0000428946D01*
X0000324428Y0000432695D01*
X0000326302Y0000436445D01*
X0000328177Y0000443943D01*
X0000328177Y0000449568D01*
X0000326302Y0000457066D01*
X0000324428Y0000460817D01*
X0000320678Y0000464566D01*
X0000315054Y0000466441D01*
X0000311304Y0000466441D01*
X0000305680Y0000464566D01*
X0000303805Y0000462692D01*
X0000270059Y0000466441D02*
X0000277559Y0000466441D01*
X0000281308Y0000464566D01*
X0000283183Y0000462692D01*
X0000286932Y0000457066D01*
X0000288807Y0000449568D01*
X0000288807Y0000434570D01*
X0000286932Y0000430820D01*
X0000285058Y0000428946D01*
X0000281308Y0000427071D01*
X0000273809Y0000427071D01*
X0000270059Y0000428946D01*
X0000268185Y0000430820D01*
X0000266310Y0000434570D01*
X0000266310Y0000443943D01*
X0000268185Y0000447694D01*
X0000270059Y0000449568D01*
X0000273809Y0000451443D01*
X0000281308Y0000451443D01*
X0000285058Y0000449568D01*
X0000286932Y0000447694D01*
X0000288807Y0000443943D01*
X0000697506Y0000513498D02*
X0000699381Y0000511623D01*
X0000705005Y0000509748D01*
X0000708755Y0000509748D01*
X0000714379Y0000511623D01*
X0000718128Y0000515372D01*
X0000720003Y0000519122D01*
X0000721878Y0000526621D01*
X0000721878Y0000532245D01*
X0000720003Y0000539745D01*
X0000718128Y0000543494D01*
X0000714379Y0000547244D01*
X0000708755Y0000549118D01*
X0000705005Y0000549118D01*
X0000699381Y0000547244D01*
X0000697506Y0000545369D01*
X0000684383Y0000549118D02*
X0000660011Y0000549118D01*
X0000673134Y0000534120D01*
X0000667510Y0000534120D01*
X0000663760Y0000532245D01*
X0000661885Y0000530371D01*
X0000660011Y0000526621D01*
X0000660011Y0000517247D01*
X0000661885Y0000513498D01*
X0000663760Y0000511623D01*
X0000667510Y0000509748D01*
X0000678758Y0000509748D01*
X0000682507Y0000511623D01*
X0000684383Y0000513498D01*
X0000512467Y0000560554D02*
X0000512467Y0000538057D01*
X0000513966Y0000533558D01*
X0000516966Y0000530558D01*
X0000521466Y0000529058D01*
X0000524465Y0000529058D01*
X0000497469Y0000529058D02*
X0000497469Y0000560554D01*
X0000485470Y0000560554D01*
X0000482470Y0000559055D01*
X0000480970Y0000557555D01*
X0000479470Y0000554555D01*
X0000479470Y0000550056D01*
X0000480970Y0000547056D01*
X0000482470Y0000545556D01*
X0000485470Y0000544056D01*
X0000497469Y0000544056D01*
X0000449475Y0000529058D02*
X0000467472Y0000529058D01*
X0000458473Y0000529058D02*
X0000458473Y0000560554D01*
X0000461473Y0000556055D01*
X0000464473Y0000553055D01*
X0000467472Y0000551556D01*
X0000495519Y0000955339D02*
X0000495519Y0000994709D01*
X0000454274Y0000959088D02*
X0000456149Y0000957214D01*
X0000461773Y0000955339D01*
X0000465523Y0000955339D01*
X0000471147Y0000957214D01*
X0000474896Y0000960963D01*
X0000476771Y0000964713D01*
X0000478646Y0000972212D01*
X0000478646Y0000977836D01*
X0000476771Y0000985335D01*
X0000474896Y0000989085D01*
X0000471147Y0000992834D01*
X0000465523Y0000994709D01*
X0000461773Y0000994709D01*
X0000456149Y0000992834D01*
X0000454274Y0000990959D01*
X0000439276Y0000990959D02*
X0000437401Y0000992834D01*
X0000433651Y0000994709D01*
X0000424278Y0000994709D01*
X0000420528Y0000992834D01*
X0000418653Y0000990959D01*
X0000416779Y0000987210D01*
X0000416779Y0000983460D01*
X0000418653Y0000977836D01*
X0000441151Y0000955339D01*
X0000416779Y0000955339D01*
X0000224878Y0000279902D02*
X0000250374Y0000279902D01*
X0000253374Y0000278402D01*
X0000254874Y0000276902D01*
X0000256374Y0000273903D01*
X0000256374Y0000267903D01*
X0000254874Y0000264904D01*
X0000253374Y0000263404D01*
X0000250374Y0000261904D01*
X0000224878Y0000261904D01*
X0000256374Y0000230408D02*
X0000256374Y0000248406D01*
X0000256374Y0000239407D02*
X0000224878Y0000239407D01*
X0000229377Y0000242407D01*
X0000232377Y0000245406D01*
X0000233876Y0000248406D01*
D23*
X0000608698Y0003040026D02*
X0000593700Y0003040026D01*
X0000611698Y0003031027D02*
X0000601199Y0003062523D01*
X0000590701Y0003031027D01*
X0000580202Y0003031027D02*
X0000580202Y0003062523D01*
X0000562204Y0003031027D01*
X0000562204Y0003062523D01*
X0000551705Y0003062523D02*
X0000533708Y0003062523D01*
X0000542707Y0003031027D02*
X0000542707Y0003062523D01*
X0000523209Y0003034027D02*
X0000521709Y0003032527D01*
X0000523209Y0003031027D01*
X0000524709Y0003032527D01*
X0000523209Y0003034027D01*
X0000523209Y0003031027D01*
X0000523209Y0003050523D02*
X0000521709Y0003049025D01*
X0000523209Y0003047525D01*
X0000524709Y0003049025D01*
X0000523209Y0003050523D01*
X0000523209Y0003047525D01*
X0000487214Y0003062523D02*
X0000466216Y0003062523D01*
X0000479715Y0003031027D01*
X0000455718Y0003059523D02*
X0000454218Y0003061023D01*
X0000451218Y0003062523D01*
X0000443719Y0003062523D01*
X0000440719Y0003061023D01*
X0000439220Y0003059523D01*
X0000437720Y0003056524D01*
X0000437720Y0003053524D01*
X0000439220Y0003049025D01*
X0000457216Y0003031027D01*
X0000437720Y0003031027D01*
X0000424221Y0003031027D02*
X0000424221Y0003052024D01*
X0000424221Y0003049025D02*
X0000422722Y0003050523D01*
X0000419722Y0003052024D01*
X0000415223Y0003052024D01*
X0000412223Y0003050523D01*
X0000410723Y0003047525D01*
X0000410723Y0003031027D01*
X0000410723Y0003047525D02*
X0000409223Y0003050523D01*
X0000406224Y0003052024D01*
X0000401724Y0003052024D01*
X0000398725Y0003050523D01*
X0000397225Y0003047525D01*
X0000397225Y0003031027D01*
X0000382227Y0003031027D02*
X0000382227Y0003052024D01*
X0000382227Y0003049025D02*
X0000380727Y0003050523D01*
X0000377727Y0003052024D01*
X0000373227Y0003052024D01*
X0000370227Y0003050523D01*
X0000368727Y0003047525D01*
X0000368727Y0003031027D01*
X0000368727Y0003047525D02*
X0000367229Y0003050523D01*
X0000364229Y0003052024D01*
X0000359730Y0003052024D01*
X0000356730Y0003050523D01*
X0000355230Y0003047525D01*
X0000355230Y0003031027D01*
X0000319235Y0003062523D02*
X0000311735Y0003031027D01*
X0000305736Y0003053524D01*
X0000299737Y0003031027D01*
X0000292238Y0003062523D01*
X0000280239Y0003031027D02*
X0000280239Y0003052024D01*
X0000280239Y0003062523D02*
X0000281739Y0003061023D01*
X0000280239Y0003059523D01*
X0000278740Y0003061023D01*
X0000280239Y0003062523D01*
X0000280239Y0003059523D01*
X0000265241Y0003031027D02*
X0000265241Y0003052024D01*
X0000265241Y0003046025D02*
X0000263742Y0003049025D01*
X0000262242Y0003050523D01*
X0000259241Y0003052024D01*
X0000256242Y0003052024D01*
X0000233745Y0003032527D02*
X0000236745Y0003031027D01*
X0000242744Y0003031027D01*
X0000245744Y0003032527D01*
X0000247244Y0003035526D01*
X0000247244Y0003047525D01*
X0000245744Y0003050523D01*
X0000242744Y0003052024D01*
X0000236745Y0003052024D01*
X0000233745Y0003050523D01*
X0000232245Y0003047525D01*
X0000232245Y0003044525D01*
X0000247244Y0003041526D01*
X0000095519Y0002598862D02*
X0000095519Y0002638233D01*
X0000078646Y0002600736D02*
X0000073022Y0002598862D01*
X0000063646Y0002598862D01*
X0000059898Y0002600736D01*
X0000058023Y0002602612D01*
X0000056149Y0002606362D01*
X0000056149Y0002610111D01*
X0000058023Y0002613861D01*
X0000059898Y0002615735D01*
X0000063646Y0002617610D01*
X0000071147Y0002619485D01*
X0000074896Y0002621360D01*
X0000076771Y0002623234D01*
X0000078646Y0002626984D01*
X0000078646Y0002630733D01*
X0000076771Y0002634483D01*
X0000074896Y0002636358D01*
X0000071147Y0002638233D01*
X0000061773Y0002638233D01*
X0000056149Y0002636358D01*
X0000039276Y0002598862D02*
X0000039276Y0002638233D01*
X0000024278Y0002638233D01*
X0000020528Y0002636358D01*
X0000018653Y0002634483D01*
X0000016779Y0002630733D01*
X0000016779Y0002625108D01*
X0000018653Y0002621360D01*
X0000020528Y0002619485D01*
X0000024278Y0002617610D01*
X0000039276Y0002617610D01*
D24*
X0000199206Y0002688486D02*
X0000199206Y0002712109D01*
X0000191332Y0002695236D01*
X0000183457Y0002712109D01*
X0000183457Y0002688486D01*
X0000172210Y0002688486D02*
X0000172210Y0002712109D01*
X0000162086Y0002689611D02*
X0000158711Y0002688486D01*
X0000153087Y0002688486D01*
X0000150837Y0002689611D01*
X0000149713Y0002690736D01*
X0000148588Y0002692985D01*
X0000148588Y0002695236D01*
X0000149713Y0002697485D01*
X0000150837Y0002698610D01*
X0000153087Y0002699735D01*
X0000157587Y0002700860D01*
X0000159836Y0002701985D01*
X0000160961Y0002703109D01*
X0000162086Y0002705359D01*
X0000162086Y0002707608D01*
X0000160961Y0002709859D01*
X0000159836Y0002710984D01*
X0000157587Y0002712109D01*
X0000151962Y0002712109D01*
X0000148588Y0002710984D01*
X0000133965Y0002712109D02*
X0000129465Y0002712109D01*
X0000127215Y0002710984D01*
X0000124966Y0002708734D01*
X0000123841Y0002704235D01*
X0000123841Y0002696361D01*
X0000124966Y0002691861D01*
X0000127215Y0002689611D01*
X0000129465Y0002688486D01*
X0000133965Y0002688486D01*
X0000136214Y0002689611D01*
X0000138464Y0002691861D01*
X0000139589Y0002696361D01*
X0000139589Y0002704235D01*
X0000138464Y0002708734D01*
X0000136214Y0002710984D01*
X0000133965Y0002712109D01*
X0000187457Y0002789611D02*
X0000184083Y0002788487D01*
X0000178458Y0002788487D01*
X0000176209Y0002789611D01*
X0000175084Y0002790735D01*
X0000173959Y0002792986D01*
X0000173959Y0002795236D01*
X0000175084Y0002797485D01*
X0000176209Y0002798610D01*
X0000178458Y0002799735D01*
X0000182958Y0002800860D01*
X0000185208Y0002801985D01*
X0000186332Y0002803110D01*
X0000187457Y0002805358D01*
X0000187457Y0002807609D01*
X0000186332Y0002809859D01*
X0000185208Y0002810984D01*
X0000182958Y0002812109D01*
X0000177334Y0002812109D01*
X0000173959Y0002810984D01*
X0000150337Y0002790735D02*
X0000151462Y0002789611D01*
X0000154836Y0002788487D01*
X0000157086Y0002788487D01*
X0000160460Y0002789611D01*
X0000162710Y0002791861D01*
X0000163835Y0002794111D01*
X0000164960Y0002798610D01*
X0000164960Y0002801985D01*
X0000163835Y0002806484D01*
X0000162710Y0002808734D01*
X0000160460Y0002810984D01*
X0000157086Y0002812109D01*
X0000154836Y0002812109D01*
X0000151462Y0002810984D01*
X0000150337Y0002809859D01*
X0000140213Y0002788487D02*
X0000140213Y0002812109D01*
X0000126715Y0002788487D02*
X0000136839Y0002801985D01*
X0000126715Y0002812109D02*
X0000140213Y0002798610D01*
X0000211394Y0002888487D02*
X0000219268Y0002899734D01*
X0000224893Y0002888487D02*
X0000224893Y0002912109D01*
X0000215894Y0002912109D01*
X0000213644Y0002910983D01*
X0000212519Y0002909859D01*
X0000211394Y0002907609D01*
X0000211394Y0002904235D01*
X0000212519Y0002901985D01*
X0000213644Y0002900860D01*
X0000215894Y0002899734D01*
X0000224893Y0002899734D01*
X0000201271Y0002900860D02*
X0000193397Y0002900860D01*
X0000190022Y0002888487D02*
X0000201271Y0002888487D01*
X0000201271Y0002912109D01*
X0000190022Y0002912109D01*
X0000181022Y0002889611D02*
X0000177648Y0002888487D01*
X0000172024Y0002888487D01*
X0000169775Y0002889611D01*
X0000168649Y0002890736D01*
X0000167525Y0002892986D01*
X0000167525Y0002895235D01*
X0000168649Y0002897485D01*
X0000169775Y0002898610D01*
X0000172024Y0002899734D01*
X0000176524Y0002900860D01*
X0000178772Y0002901985D01*
X0000179898Y0002903110D01*
X0000181022Y0002905359D01*
X0000181022Y0002907609D01*
X0000179898Y0002909859D01*
X0000178772Y0002910983D01*
X0000176524Y0002912109D01*
X0000170899Y0002912109D01*
X0000167525Y0002910983D01*
X0000157401Y0002900860D02*
X0000149527Y0002900860D01*
X0000146152Y0002888487D02*
X0000157401Y0002888487D01*
X0000157401Y0002912109D01*
X0000146152Y0002912109D01*
X0000139403Y0002912109D02*
X0000125903Y0002912109D01*
X0000132654Y0002888487D02*
X0000132654Y0002912109D01*
X0000199206Y0003083487D02*
X0000199206Y0003107109D01*
X0000191332Y0003090236D01*
X0000183457Y0003107109D01*
X0000183457Y0003083487D01*
X0000167710Y0003107109D02*
X0000163211Y0003107109D01*
X0000160961Y0003105984D01*
X0000158711Y0003103734D01*
X0000157587Y0003099235D01*
X0000157587Y0003091361D01*
X0000158711Y0003086860D01*
X0000160961Y0003084611D01*
X0000163211Y0003083487D01*
X0000167710Y0003083487D01*
X0000169960Y0003084611D01*
X0000172210Y0003086860D01*
X0000173335Y0003091361D01*
X0000173335Y0003099235D01*
X0000172210Y0003103734D01*
X0000169960Y0003105984D01*
X0000167710Y0003107109D01*
X0000148588Y0003084611D02*
X0000145213Y0003083487D01*
X0000139589Y0003083487D01*
X0000137339Y0003084611D01*
X0000136214Y0003085736D01*
X0000135089Y0003087986D01*
X0000135089Y0003090236D01*
X0000136214Y0003092485D01*
X0000137339Y0003093610D01*
X0000139589Y0003094735D01*
X0000144088Y0003095860D01*
X0000146338Y0003096985D01*
X0000147463Y0003098110D01*
X0000148588Y0003100359D01*
X0000148588Y0003102609D01*
X0000147463Y0003104859D01*
X0000146338Y0003105984D01*
X0000144088Y0003107109D01*
X0000138464Y0003107109D01*
X0000135089Y0003105984D01*
X0000124966Y0003083487D02*
X0000124966Y0003107109D01*
D25*
X0000449606Y0001892518D02*
X0000449606Y0002037647D01*
X0000584251Y0001892518D02*
X0000584251Y0002037647D01*
X0000339025Y0001783070D02*
X0000318453Y0001783070D01*
X0000339025Y0001838976D02*
X0000318453Y0001838976D01*
X0000305561Y0002050787D02*
X0000284990Y0002050787D01*
X0000305561Y0002106692D02*
X0000284990Y0002106692D01*
X0000702214Y0002257480D02*
X0000681643Y0002257480D01*
X0000702214Y0002313385D02*
X0000681643Y0002313385D01*
D23*
X0000772047Y0002390472D02*
X0000142125Y0002390472D01*
X0000142125Y0002390472D02*
X0000142125Y0003138503D01*
X0000142125Y0003138503D02*
X0000772047Y0003138503D01*
X0000772047Y0003138503D02*
X0000772047Y0002390472D01*
D25*
X0000390157Y0001981496D02*
X0000390157Y0001885826D01*
X0000269291Y0001912204D02*
X0000269291Y0001981496D01*
D23*
X0000624540Y0001838901D02*
X0000639538Y0001838901D01*
X0000639538Y0001870397D01*
X0000597544Y0001838901D02*
X0000615541Y0001838901D01*
X0000606542Y0001838901D02*
X0000606542Y0001870397D01*
X0000609542Y0001865898D01*
X0000612542Y0001862897D01*
X0000615541Y0001861398D01*
X0000339238Y0001730033D02*
X0000341113Y0001728159D01*
X0000346737Y0001726284D01*
X0000350487Y0001726284D01*
X0000356111Y0001728159D01*
X0000359861Y0001731908D01*
X0000361736Y0001735658D01*
X0000363610Y0001743157D01*
X0000363610Y0001748781D01*
X0000361736Y0001756280D01*
X0000359861Y0001760030D01*
X0000356111Y0001763779D01*
X0000350487Y0001765654D01*
X0000346737Y0001765654D01*
X0000341113Y0001763779D01*
X0000339238Y0001761904D01*
X0000326115Y0001765654D02*
X0000299868Y0001765654D01*
X0000316741Y0001726284D01*
X0000303805Y0002123734D02*
X0000305680Y0002121859D01*
X0000311304Y0002119985D01*
X0000315054Y0002119985D01*
X0000320678Y0002121859D01*
X0000324428Y0002125609D01*
X0000326302Y0002129358D01*
X0000328177Y0002136857D01*
X0000328177Y0002142482D01*
X0000326302Y0002149981D01*
X0000324428Y0002153730D01*
X0000320678Y0002157480D01*
X0000315054Y0002159355D01*
X0000311304Y0002159355D01*
X0000305680Y0002157480D01*
X0000303805Y0002155605D01*
X0000270059Y0002159355D02*
X0000277559Y0002159355D01*
X0000281308Y0002157480D01*
X0000283183Y0002155605D01*
X0000286932Y0002149981D01*
X0000288807Y0002142482D01*
X0000288807Y0002127484D01*
X0000286932Y0002123734D01*
X0000285058Y0002121859D01*
X0000281308Y0002119985D01*
X0000273809Y0002119985D01*
X0000270059Y0002121859D01*
X0000268185Y0002123734D01*
X0000266310Y0002127484D01*
X0000266310Y0002136857D01*
X0000268185Y0002140607D01*
X0000270059Y0002142482D01*
X0000273809Y0002144356D01*
X0000281308Y0002144356D01*
X0000285058Y0002142482D01*
X0000286932Y0002140607D01*
X0000288807Y0002136857D01*
X0000697506Y0002206411D02*
X0000699381Y0002204536D01*
X0000705005Y0002202662D01*
X0000708755Y0002202662D01*
X0000714379Y0002204536D01*
X0000718128Y0002208286D01*
X0000720003Y0002212036D01*
X0000721878Y0002219535D01*
X0000721878Y0002225159D01*
X0000720003Y0002232658D01*
X0000718128Y0002236407D01*
X0000714379Y0002240157D01*
X0000708755Y0002242032D01*
X0000705005Y0002242032D01*
X0000699381Y0002240157D01*
X0000697506Y0002238282D01*
X0000684383Y0002242032D02*
X0000660011Y0002242032D01*
X0000673134Y0002227034D01*
X0000667510Y0002227034D01*
X0000663760Y0002225159D01*
X0000661885Y0002223284D01*
X0000660011Y0002219535D01*
X0000660011Y0002210161D01*
X0000661885Y0002206411D01*
X0000663760Y0002204536D01*
X0000667510Y0002202662D01*
X0000678758Y0002202662D01*
X0000682507Y0002204536D01*
X0000684383Y0002206411D01*
X0000512467Y0002253468D02*
X0000512467Y0002230971D01*
X0000513966Y0002226471D01*
X0000516966Y0002223472D01*
X0000521466Y0002221972D01*
X0000524465Y0002221972D01*
X0000497469Y0002221972D02*
X0000497469Y0002253468D01*
X0000485470Y0002253468D01*
X0000482470Y0002251968D01*
X0000480970Y0002250468D01*
X0000479470Y0002247469D01*
X0000479470Y0002242969D01*
X0000480970Y0002239970D01*
X0000482470Y0002238470D01*
X0000485470Y0002236970D01*
X0000497469Y0002236970D01*
X0000449475Y0002221972D02*
X0000467472Y0002221972D01*
X0000458473Y0002221972D02*
X0000458473Y0002253468D01*
X0000461473Y0002248968D01*
X0000464473Y0002245969D01*
X0000467472Y0002244469D01*
X0000495519Y0002648252D02*
X0000495519Y0002687622D01*
X0000454274Y0002652002D02*
X0000456149Y0002650127D01*
X0000461773Y0002648252D01*
X0000465523Y0002648252D01*
X0000471147Y0002650127D01*
X0000474896Y0002653876D01*
X0000476771Y0002657626D01*
X0000478646Y0002665125D01*
X0000478646Y0002670749D01*
X0000476771Y0002678248D01*
X0000474896Y0002681998D01*
X0000471147Y0002685748D01*
X0000465523Y0002687622D01*
X0000461773Y0002687622D01*
X0000456149Y0002685748D01*
X0000454274Y0002683873D01*
X0000439276Y0002683873D02*
X0000437401Y0002685748D01*
X0000433651Y0002687622D01*
X0000424278Y0002687622D01*
X0000420528Y0002685748D01*
X0000418653Y0002683873D01*
X0000416779Y0002680122D01*
X0000416779Y0002676374D01*
X0000418653Y0002670749D01*
X0000441151Y0002648252D01*
X0000416779Y0002648252D01*
X0000224878Y0001972815D02*
X0000250374Y0001972815D01*
X0000253374Y0001971316D01*
X0000254874Y0001969816D01*
X0000256374Y0001966816D01*
X0000256374Y0001960817D01*
X0000254874Y0001957817D01*
X0000253374Y0001956317D01*
X0000250374Y0001954818D01*
X0000224878Y0001954818D01*
X0000256374Y0001923322D02*
X0000256374Y0001941317D01*
X0000256374Y0001932320D02*
X0000224878Y0001932320D01*
X0000229377Y0001935320D01*
X0000232377Y0001938320D01*
X0000233876Y0001941317D01*
D36*
X0001514210Y0001347111D02*
X0001499212Y0001347111D01*
X0001517210Y0001338114D02*
X0001506711Y0001369610D01*
X0001496212Y0001338114D01*
X0001485714Y0001338114D02*
X0001485714Y0001369610D01*
X0001467716Y0001338114D01*
X0001467716Y0001369610D01*
X0001457217Y0001369610D02*
X0001439220Y0001369610D01*
X0001448216Y0001338114D02*
X0001448216Y0001369610D01*
X0001428721Y0001341113D02*
X0001427221Y0001339613D01*
X0001428721Y0001338114D01*
X0001430221Y0001339613D01*
X0001428721Y0001341113D01*
X0001428721Y0001338114D01*
X0001428721Y0001357610D02*
X0001427221Y0001356111D01*
X0001428721Y0001354611D01*
X0001430221Y0001356111D01*
X0001428721Y0001357610D01*
X0001428721Y0001354611D01*
X0001392725Y0001369610D02*
X0001371728Y0001369610D01*
X0001385226Y0001338114D01*
X0001361229Y0001366610D02*
X0001359729Y0001368110D01*
X0001356730Y0001369610D01*
X0001349231Y0001369610D01*
X0001346229Y0001368110D01*
X0001344731Y0001366610D01*
X0001343232Y0001363610D01*
X0001343232Y0001360611D01*
X0001344731Y0001356111D01*
X0001362729Y0001338114D01*
X0001343232Y0001338114D01*
X0001329733Y0001338114D02*
X0001329733Y0001359111D01*
X0001329733Y0001356111D02*
X0001328233Y0001357610D01*
X0001325234Y0001359111D01*
X0001320734Y0001359111D01*
X0001317735Y0001357610D01*
X0001316235Y0001354611D01*
X0001316235Y0001338114D01*
X0001316235Y0001354611D02*
X0001314735Y0001357610D01*
X0001311736Y0001359111D01*
X0001307236Y0001359111D01*
X0001304236Y0001357610D01*
X0001302737Y0001354611D01*
X0001302737Y0001338114D01*
X0001287737Y0001338114D02*
X0001287737Y0001359111D01*
X0001287737Y0001356111D02*
X0001286239Y0001357610D01*
X0001283239Y0001359111D01*
X0001278740Y0001359111D01*
X0001275740Y0001357610D01*
X0001274240Y0001354611D01*
X0001274240Y0001338114D01*
X0001274240Y0001354611D02*
X0001272740Y0001357610D01*
X0001269741Y0001359111D01*
X0001265241Y0001359111D01*
X0001262242Y0001357610D01*
X0001260742Y0001354611D01*
X0001260742Y0001338114D01*
X0001224746Y0001369610D02*
X0001217247Y0001338114D01*
X0001211248Y0001360611D01*
X0001205249Y0001338114D01*
X0001197750Y0001369610D01*
X0001185751Y0001338114D02*
X0001185751Y0001359111D01*
X0001185751Y0001369610D02*
X0001187251Y0001368110D01*
X0001185751Y0001366610D01*
X0001184251Y0001368110D01*
X0001185751Y0001369610D01*
X0001185751Y0001366610D01*
X0001170753Y0001338114D02*
X0001170753Y0001359111D01*
X0001170753Y0001353111D02*
X0001169253Y0001356111D01*
X0001167754Y0001357610D01*
X0001164754Y0001359111D01*
X0001161754Y0001359111D01*
X0001139257Y0001339613D02*
X0001142257Y0001338114D01*
X0001148256Y0001338114D01*
X0001151256Y0001339613D01*
X0001152755Y0001342613D01*
X0001152755Y0001354611D01*
X0001151256Y0001357610D01*
X0001148256Y0001359111D01*
X0001142257Y0001359111D01*
X0001139257Y0001357610D01*
X0001137757Y0001354611D01*
X0001137757Y0001351612D01*
X0001152755Y0001348612D01*
X0001001031Y0000905949D02*
X0001001031Y0000945318D01*
X0000984157Y0000907824D02*
X0000978533Y0000905949D01*
X0000969160Y0000905949D01*
X0000965410Y0000907824D01*
X0000963535Y0000909699D01*
X0000961660Y0000913448D01*
X0000961660Y0000917198D01*
X0000963535Y0000920947D01*
X0000965410Y0000922822D01*
X0000969160Y0000924697D01*
X0000976659Y0000926571D01*
X0000980408Y0000928446D01*
X0000982283Y0000930321D01*
X0000984157Y0000934071D01*
X0000984157Y0000937820D01*
X0000982283Y0000941570D01*
X0000980408Y0000943444D01*
X0000976659Y0000945318D01*
X0000967285Y0000945318D01*
X0000961660Y0000943444D01*
X0000944788Y0000905949D02*
X0000944788Y0000945318D01*
X0000929790Y0000945318D01*
X0000926040Y0000943444D01*
X0000924165Y0000941570D01*
X0000922290Y0000937820D01*
X0000922290Y0000932195D01*
X0000924165Y0000928446D01*
X0000926040Y0000926571D01*
X0000929790Y0000924697D01*
X0000944788Y0000924697D01*
D37*
X0001104718Y0000995573D02*
X0001104718Y0001019195D01*
X0001096844Y0001002321D01*
X0001088970Y0001019195D01*
X0001088970Y0000995573D01*
X0001077722Y0000995573D02*
X0001077722Y0001019195D01*
X0001067598Y0000996698D02*
X0001064223Y0000995573D01*
X0001058599Y0000995573D01*
X0001056349Y0000996698D01*
X0001055224Y0000997823D01*
X0001054100Y0001000073D01*
X0001054100Y0001002321D01*
X0001055224Y0001004572D01*
X0001056349Y0001005697D01*
X0001058599Y0001006822D01*
X0001063098Y0001007946D01*
X0001065348Y0001009072D01*
X0001066473Y0001010196D01*
X0001067598Y0001012446D01*
X0001067598Y0001014696D01*
X0001066473Y0001016945D01*
X0001065348Y0001018070D01*
X0001063098Y0001019195D01*
X0001057474Y0001019195D01*
X0001054100Y0001018070D01*
X0001039476Y0001019195D02*
X0001034977Y0001019195D01*
X0001032727Y0001018070D01*
X0001030477Y0001015821D01*
X0001029353Y0001011320D01*
X0001029353Y0001003447D01*
X0001030477Y0000998948D01*
X0001032727Y0000996698D01*
X0001034977Y0000995573D01*
X0001039476Y0000995573D01*
X0001041725Y0000996698D01*
X0001043976Y0000998948D01*
X0001045101Y0001003447D01*
X0001045101Y0001011320D01*
X0001043976Y0001015821D01*
X0001041725Y0001018070D01*
X0001039476Y0001019195D01*
X0001092969Y0001096698D02*
X0001089595Y0001095573D01*
X0001083970Y0001095573D01*
X0001081721Y0001096698D01*
X0001080596Y0001097823D01*
X0001079471Y0001100073D01*
X0001079471Y0001102322D01*
X0001080596Y0001104572D01*
X0001081721Y0001105697D01*
X0001083970Y0001106822D01*
X0001088470Y0001107947D01*
X0001090719Y0001109072D01*
X0001091844Y0001110196D01*
X0001092969Y0001112446D01*
X0001092969Y0001114696D01*
X0001091844Y0001116946D01*
X0001090719Y0001118070D01*
X0001088470Y0001119195D01*
X0001082845Y0001119195D01*
X0001079471Y0001118070D01*
X0001055849Y0001097823D02*
X0001056974Y0001096698D01*
X0001060348Y0001095573D01*
X0001062598Y0001095573D01*
X0001065972Y0001096698D01*
X0001068222Y0001098948D01*
X0001069347Y0001101197D01*
X0001070472Y0001105697D01*
X0001070472Y0001109072D01*
X0001069347Y0001113571D01*
X0001068222Y0001115821D01*
X0001065972Y0001118070D01*
X0001062598Y0001119195D01*
X0001060348Y0001119195D01*
X0001056974Y0001118070D01*
X0001055849Y0001116946D01*
X0001045725Y0001095573D02*
X0001045725Y0001119195D01*
X0001032227Y0001095573D02*
X0001042350Y0001109072D01*
X0001032227Y0001119195D02*
X0001045725Y0001105697D01*
X0001116906Y0001195573D02*
X0001124780Y0001206822D01*
X0001130404Y0001195573D02*
X0001130404Y0001219195D01*
X0001121406Y0001219195D01*
X0001119156Y0001218070D01*
X0001118031Y0001216945D01*
X0001116906Y0001214696D01*
X0001116906Y0001211321D01*
X0001118031Y0001209072D01*
X0001119156Y0001207947D01*
X0001121406Y0001206822D01*
X0001130404Y0001206822D01*
X0001106782Y0001207947D02*
X0001098908Y0001207947D01*
X0001095534Y0001195573D02*
X0001106782Y0001195573D01*
X0001106782Y0001219195D01*
X0001095534Y0001219195D01*
X0001086535Y0001196698D02*
X0001083160Y0001195573D01*
X0001077536Y0001195573D01*
X0001075286Y0001196698D01*
X0001074161Y0001197823D01*
X0001073037Y0001200073D01*
X0001073037Y0001202322D01*
X0001074161Y0001204572D01*
X0001075286Y0001205697D01*
X0001077536Y0001206822D01*
X0001082035Y0001207947D01*
X0001084285Y0001209072D01*
X0001085410Y0001210196D01*
X0001086535Y0001212446D01*
X0001086535Y0001214696D01*
X0001085410Y0001216945D01*
X0001084285Y0001218070D01*
X0001082035Y0001219195D01*
X0001076411Y0001219195D01*
X0001073037Y0001218070D01*
X0001062913Y0001207947D02*
X0001055039Y0001207947D01*
X0001051664Y0001195573D02*
X0001062913Y0001195573D01*
X0001062913Y0001219195D01*
X0001051664Y0001219195D01*
X0001044915Y0001219195D02*
X0001031417Y0001219195D01*
X0001038165Y0001195573D02*
X0001038165Y0001219195D01*
X0001104718Y0001390572D02*
X0001104718Y0001414195D01*
X0001096844Y0001397322D01*
X0001088970Y0001414195D01*
X0001088970Y0001390572D01*
X0001073222Y0001414195D02*
X0001068723Y0001414195D01*
X0001066473Y0001413070D01*
X0001064223Y0001410821D01*
X0001063098Y0001406320D01*
X0001063098Y0001398446D01*
X0001064223Y0001393948D01*
X0001066473Y0001391698D01*
X0001068723Y0001390572D01*
X0001073222Y0001390572D01*
X0001075472Y0001391698D01*
X0001077722Y0001393948D01*
X0001078847Y0001398446D01*
X0001078847Y0001406320D01*
X0001077722Y0001410821D01*
X0001075472Y0001413070D01*
X0001073222Y0001414195D01*
X0001054100Y0001391698D02*
X0001050725Y0001390572D01*
X0001045101Y0001390572D01*
X0001042851Y0001391698D01*
X0001041725Y0001392823D01*
X0001040601Y0001395073D01*
X0001040601Y0001397322D01*
X0001041725Y0001399572D01*
X0001042851Y0001400697D01*
X0001045101Y0001401822D01*
X0001049600Y0001402947D01*
X0001051850Y0001404071D01*
X0001052975Y0001405196D01*
X0001054100Y0001407446D01*
X0001054100Y0001409695D01*
X0001052975Y0001411946D01*
X0001051850Y0001413070D01*
X0001049600Y0001414195D01*
X0001043976Y0001414195D01*
X0001040601Y0001413070D01*
X0001030477Y0001390572D02*
X0001030477Y0001414195D01*
D38*
X0001355118Y0000199606D02*
X0001355118Y0000344734D01*
X0001489763Y0000199606D02*
X0001489763Y0000344734D01*
X0001244537Y0000090157D02*
X0001223966Y0000090157D01*
X0001244537Y0000146062D02*
X0001223966Y0000146062D01*
X0001211072Y0000357874D02*
X0001190501Y0000357874D01*
X0001211072Y0000413779D02*
X0001190501Y0000413779D01*
X0001607725Y0000564566D02*
X0001587155Y0000564566D01*
X0001607725Y0000620472D02*
X0001587155Y0000620472D01*
D36*
X0001677559Y0000697559D02*
X0001047636Y0000697559D01*
X0001047636Y0000697559D02*
X0001047636Y0001445590D01*
X0001047636Y0001445590D02*
X0001677559Y0001445590D01*
X0001677559Y0001445590D02*
X0001677559Y0000697559D01*
D38*
X0001295669Y0000288582D02*
X0001295669Y0000192913D01*
X0001174803Y0000219291D02*
X0001174803Y0000288582D01*
D36*
X0001530052Y0000145987D02*
X0001545050Y0000145987D01*
X0001545050Y0000177484D01*
X0001503055Y0000145987D02*
X0001521053Y0000145987D01*
X0001512054Y0000145987D02*
X0001512054Y0000177484D01*
X0001515054Y0000172984D01*
X0001518053Y0000169985D01*
X0001521053Y0000168485D01*
X0001244750Y0000037120D02*
X0001246625Y0000035245D01*
X0001252249Y0000033370D01*
X0001255999Y0000033370D01*
X0001261623Y0000035245D01*
X0001265373Y0000038995D01*
X0001267247Y0000042744D01*
X0001269122Y0000050243D01*
X0001269122Y0000055867D01*
X0001267247Y0000063367D01*
X0001265373Y0000067116D01*
X0001261623Y0000070866D01*
X0001255999Y0000072740D01*
X0001252249Y0000072740D01*
X0001246625Y0000070866D01*
X0001244750Y0000068991D01*
X0001231627Y0000072740D02*
X0001205380Y0000072740D01*
X0001222253Y0000033370D01*
X0001209317Y0000430820D02*
X0001211192Y0000428946D01*
X0001216816Y0000427071D01*
X0001220566Y0000427071D01*
X0001226190Y0000428946D01*
X0001229940Y0000432695D01*
X0001231814Y0000436445D01*
X0001233689Y0000443943D01*
X0001233689Y0000449568D01*
X0001231814Y0000457066D01*
X0001229940Y0000460817D01*
X0001226190Y0000464566D01*
X0001220566Y0000466441D01*
X0001216816Y0000466441D01*
X0001211192Y0000464566D01*
X0001209317Y0000462692D01*
X0001175571Y0000466441D02*
X0001183070Y0000466441D01*
X0001186820Y0000464566D01*
X0001188695Y0000462692D01*
X0001192444Y0000457066D01*
X0001194319Y0000449568D01*
X0001194319Y0000434570D01*
X0001192444Y0000430820D01*
X0001190569Y0000428946D01*
X0001186820Y0000427071D01*
X0001179321Y0000427071D01*
X0001175571Y0000428946D01*
X0001173697Y0000430820D01*
X0001171822Y0000434570D01*
X0001171822Y0000443943D01*
X0001173697Y0000447694D01*
X0001175571Y0000449568D01*
X0001179321Y0000451443D01*
X0001186820Y0000451443D01*
X0001190569Y0000449568D01*
X0001192444Y0000447694D01*
X0001194319Y0000443943D01*
X0001603018Y0000513498D02*
X0001604893Y0000511623D01*
X0001610517Y0000509748D01*
X0001614266Y0000509748D01*
X0001619891Y0000511623D01*
X0001623640Y0000515372D01*
X0001625515Y0000519122D01*
X0001627390Y0000526621D01*
X0001627390Y0000532245D01*
X0001625515Y0000539745D01*
X0001623640Y0000543494D01*
X0001619891Y0000547244D01*
X0001614266Y0000549118D01*
X0001610517Y0000549118D01*
X0001604893Y0000547244D01*
X0001603018Y0000545369D01*
X0001589894Y0000549118D02*
X0001565523Y0000549118D01*
X0001578646Y0000534120D01*
X0001573022Y0000534120D01*
X0001569272Y0000532245D01*
X0001567397Y0000530371D01*
X0001565523Y0000526621D01*
X0001565523Y0000517247D01*
X0001567397Y0000513498D01*
X0001569272Y0000511623D01*
X0001573022Y0000509748D01*
X0001584270Y0000509748D01*
X0001588020Y0000511623D01*
X0001589894Y0000513498D01*
X0001417978Y0000560554D02*
X0001417978Y0000538057D01*
X0001419477Y0000533558D01*
X0001422478Y0000530558D01*
X0001426977Y0000529058D01*
X0001429977Y0000529058D01*
X0001402980Y0000529058D02*
X0001402980Y0000560554D01*
X0001390982Y0000560554D01*
X0001387982Y0000559055D01*
X0001386482Y0000557555D01*
X0001384983Y0000554555D01*
X0001384983Y0000550056D01*
X0001386482Y0000547056D01*
X0001387982Y0000545556D01*
X0001390982Y0000544056D01*
X0001402980Y0000544056D01*
X0001354985Y0000529058D02*
X0001372984Y0000529058D01*
X0001363985Y0000529058D02*
X0001363985Y0000560554D01*
X0001366985Y0000556055D01*
X0001369985Y0000553055D01*
X0001372984Y0000551556D01*
X0001401029Y0000955339D02*
X0001401029Y0000994709D01*
X0001359786Y0000959088D02*
X0001361660Y0000957214D01*
X0001367285Y0000955339D01*
X0001371034Y0000955339D01*
X0001376659Y0000957214D01*
X0001380408Y0000960963D01*
X0001382283Y0000964713D01*
X0001384158Y0000972212D01*
X0001384158Y0000977836D01*
X0001382283Y0000985335D01*
X0001380408Y0000989085D01*
X0001376659Y0000992834D01*
X0001371034Y0000994709D01*
X0001367285Y0000994709D01*
X0001361660Y0000992834D01*
X0001359786Y0000990959D01*
X0001344788Y0000990959D02*
X0001342913Y0000992834D01*
X0001339163Y0000994709D01*
X0001329790Y0000994709D01*
X0001326040Y0000992834D01*
X0001324165Y0000990959D01*
X0001322290Y0000987210D01*
X0001322290Y0000983460D01*
X0001324165Y0000977836D01*
X0001346662Y0000955339D01*
X0001322290Y0000955339D01*
X0001130389Y0000279902D02*
X0001155886Y0000279902D01*
X0001158886Y0000278402D01*
X0001160386Y0000276902D01*
X0001161885Y0000273903D01*
X0001161885Y0000267903D01*
X0001160386Y0000264904D01*
X0001158886Y0000263404D01*
X0001155886Y0000261904D01*
X0001130389Y0000261904D01*
X0001161885Y0000230408D02*
X0001161885Y0000248406D01*
X0001161885Y0000239407D02*
X0001130389Y0000239407D01*
X0001134889Y0000242407D01*
X0001137888Y0000245406D01*
X0001139388Y0000248406D01*
D49*
X0002419722Y0001347111D02*
X0002404724Y0001347111D01*
X0002422722Y0001338114D02*
X0002412223Y0001369610D01*
X0002401724Y0001338114D01*
X0002391226Y0001338114D02*
X0002391226Y0001369610D01*
X0002373228Y0001338114D01*
X0002373228Y0001369610D01*
X0002362729Y0001369610D02*
X0002344731Y0001369610D01*
X0002353730Y0001338114D02*
X0002353730Y0001369610D01*
X0002334233Y0001341113D02*
X0002332733Y0001339613D01*
X0002334233Y0001338114D01*
X0002335733Y0001339613D01*
X0002334233Y0001341113D01*
X0002334233Y0001338114D01*
X0002334233Y0001357610D02*
X0002332733Y0001356111D01*
X0002334233Y0001354611D01*
X0002335733Y0001356111D01*
X0002334233Y0001357610D01*
X0002334233Y0001354611D01*
X0002298237Y0001369610D02*
X0002277240Y0001369610D01*
X0002290738Y0001338114D01*
X0002266741Y0001366610D02*
X0002265241Y0001368110D01*
X0002262242Y0001369610D01*
X0002254743Y0001369610D01*
X0002251743Y0001368110D01*
X0002250243Y0001366610D01*
X0002248743Y0001363610D01*
X0002248743Y0001360611D01*
X0002250243Y0001356111D01*
X0002268241Y0001338114D01*
X0002248743Y0001338114D01*
X0002235245Y0001338114D02*
X0002235245Y0001359111D01*
X0002235245Y0001356111D02*
X0002233745Y0001357610D01*
X0002230746Y0001359111D01*
X0002226246Y0001359111D01*
X0002223247Y0001357610D01*
X0002221747Y0001354611D01*
X0002221747Y0001338114D01*
X0002221747Y0001354611D02*
X0002220247Y0001357610D01*
X0002217247Y0001359111D01*
X0002212748Y0001359111D01*
X0002209748Y0001357610D01*
X0002208248Y0001354611D01*
X0002208248Y0001338114D01*
X0002193250Y0001338114D02*
X0002193250Y0001359111D01*
X0002193250Y0001356111D02*
X0002191751Y0001357610D01*
X0002188751Y0001359111D01*
X0002184251Y0001359111D01*
X0002181252Y0001357610D01*
X0002179752Y0001354611D01*
X0002179752Y0001338114D01*
X0002179752Y0001354611D02*
X0002178252Y0001357610D01*
X0002175253Y0001359111D01*
X0002170753Y0001359111D01*
X0002167753Y0001357610D01*
X0002166254Y0001354611D01*
X0002166254Y0001338114D01*
X0002130258Y0001369610D02*
X0002122759Y0001338114D01*
X0002116760Y0001360611D01*
X0002110761Y0001338114D01*
X0002103262Y0001369610D01*
X0002091263Y0001338114D02*
X0002091263Y0001359111D01*
X0002091263Y0001369610D02*
X0002092763Y0001368110D01*
X0002091263Y0001366610D01*
X0002089763Y0001368110D01*
X0002091263Y0001369610D01*
X0002091263Y0001366610D01*
X0002076264Y0001338114D02*
X0002076264Y0001359111D01*
X0002076264Y0001353111D02*
X0002074765Y0001356111D01*
X0002073265Y0001357610D01*
X0002070266Y0001359111D01*
X0002067266Y0001359111D01*
X0002044769Y0001339613D02*
X0002047768Y0001338114D01*
X0002053767Y0001338114D01*
X0002056766Y0001339613D01*
X0002058266Y0001342613D01*
X0002058266Y0001354611D01*
X0002056766Y0001357610D01*
X0002053767Y0001359111D01*
X0002047768Y0001359111D01*
X0002044769Y0001357610D01*
X0002043269Y0001354611D01*
X0002043269Y0001351612D01*
X0002058266Y0001348612D01*
X0001906542Y0000905949D02*
X0001906542Y0000945318D01*
X0001889670Y0000907824D02*
X0001884045Y0000905949D01*
X0001874669Y0000905949D01*
X0001870922Y0000907824D01*
X0001869047Y0000909699D01*
X0001867172Y0000913448D01*
X0001867172Y0000917198D01*
X0001869047Y0000920947D01*
X0001870922Y0000922822D01*
X0001874669Y0000924697D01*
X0001882170Y0000926571D01*
X0001885920Y0000928446D01*
X0001887795Y0000930321D01*
X0001889670Y0000934071D01*
X0001889670Y0000937820D01*
X0001887795Y0000941570D01*
X0001885920Y0000943444D01*
X0001882170Y0000945318D01*
X0001872797Y0000945318D01*
X0001867172Y0000943444D01*
X0001850297Y0000905949D02*
X0001850297Y0000945318D01*
X0001835300Y0000945318D01*
X0001831552Y0000943444D01*
X0001829677Y0000941570D01*
X0001827802Y0000937820D01*
X0001827802Y0000932195D01*
X0001829677Y0000928446D01*
X0001831552Y0000926571D01*
X0001835300Y0000924697D01*
X0001850297Y0000924697D01*
D50*
X0002010230Y0000995573D02*
X0002010230Y0001019195D01*
X0002002355Y0001002321D01*
X0001994482Y0001019195D01*
X0001994482Y0000995573D01*
X0001983233Y0000995573D02*
X0001983233Y0001019195D01*
X0001973110Y0000996698D02*
X0001969733Y0000995573D01*
X0001964111Y0000995573D01*
X0001961861Y0000996698D01*
X0001960736Y0000997823D01*
X0001959611Y0001000073D01*
X0001959611Y0001002321D01*
X0001960736Y0001004572D01*
X0001961861Y0001005697D01*
X0001964111Y0001006822D01*
X0001968610Y0001007946D01*
X0001970860Y0001009072D01*
X0001971985Y0001010196D01*
X0001973110Y0001012446D01*
X0001973110Y0001014696D01*
X0001971985Y0001016945D01*
X0001970860Y0001018070D01*
X0001968610Y0001019195D01*
X0001962986Y0001019195D01*
X0001959611Y0001018070D01*
X0001944988Y0001019195D02*
X0001940489Y0001019195D01*
X0001938238Y0001018070D01*
X0001935989Y0001015821D01*
X0001934864Y0001011320D01*
X0001934864Y0001003447D01*
X0001935989Y0000998948D01*
X0001938238Y0000996698D01*
X0001940489Y0000995573D01*
X0001944988Y0000995573D01*
X0001947238Y0000996698D01*
X0001949488Y0000998948D01*
X0001950610Y0001003447D01*
X0001950610Y0001011320D01*
X0001949488Y0001015821D01*
X0001947238Y0001018070D01*
X0001944988Y0001019195D01*
X0001998481Y0001096698D02*
X0001995106Y0001095573D01*
X0001989482Y0001095573D01*
X0001987232Y0001096698D01*
X0001986107Y0001097823D01*
X0001984983Y0001100073D01*
X0001984983Y0001102322D01*
X0001986107Y0001104572D01*
X0001987232Y0001105697D01*
X0001989482Y0001106822D01*
X0001993981Y0001107947D01*
X0001996231Y0001109072D01*
X0001997356Y0001110196D01*
X0001998481Y0001112446D01*
X0001998481Y0001114696D01*
X0001997356Y0001116946D01*
X0001996231Y0001118070D01*
X0001993981Y0001119195D01*
X0001988357Y0001119195D01*
X0001984983Y0001118070D01*
X0001961361Y0001097823D02*
X0001962485Y0001096698D01*
X0001965860Y0001095573D01*
X0001968110Y0001095573D01*
X0001971484Y0001096698D01*
X0001973734Y0001098948D01*
X0001974859Y0001101197D01*
X0001975984Y0001105697D01*
X0001975984Y0001109072D01*
X0001974859Y0001113571D01*
X0001973734Y0001115821D01*
X0001971484Y0001118070D01*
X0001968110Y0001119195D01*
X0001965860Y0001119195D01*
X0001962485Y0001118070D01*
X0001961361Y0001116946D01*
X0001951237Y0001095573D02*
X0001951237Y0001119195D01*
X0001937739Y0001095573D02*
X0001947862Y0001109072D01*
X0001937739Y0001119195D02*
X0001951237Y0001105697D01*
X0002022418Y0001195573D02*
X0002030292Y0001206822D01*
X0002035915Y0001195573D02*
X0002035915Y0001219195D01*
X0002026917Y0001219195D01*
X0002024668Y0001218070D01*
X0002023543Y0001216945D01*
X0002022418Y0001214696D01*
X0002022418Y0001211321D01*
X0002023543Y0001209072D01*
X0002024668Y0001207947D01*
X0002026917Y0001206822D01*
X0002035915Y0001206822D01*
X0002012293Y0001207947D02*
X0002004420Y0001207947D01*
X0002001046Y0001195573D02*
X0002012293Y0001195573D01*
X0002012293Y0001219195D01*
X0002001046Y0001219195D01*
X0001992047Y0001196698D02*
X0001988671Y0001195573D01*
X0001983048Y0001195573D01*
X0001980797Y0001196698D01*
X0001979673Y0001197823D01*
X0001978548Y0001200073D01*
X0001978548Y0001202322D01*
X0001979673Y0001204572D01*
X0001980797Y0001205697D01*
X0001983048Y0001206822D01*
X0001987547Y0001207947D01*
X0001989797Y0001209072D01*
X0001990922Y0001210196D01*
X0001992047Y0001212446D01*
X0001992047Y0001214696D01*
X0001990922Y0001216945D01*
X0001989797Y0001218070D01*
X0001987547Y0001219195D01*
X0001981923Y0001219195D01*
X0001978548Y0001218070D01*
X0001968425Y0001207947D02*
X0001960551Y0001207947D01*
X0001957176Y0001195573D02*
X0001968425Y0001195573D01*
X0001968425Y0001219195D01*
X0001957176Y0001219195D01*
X0001950427Y0001219195D02*
X0001936929Y0001219195D01*
X0001943678Y0001195573D02*
X0001943678Y0001219195D01*
X0002010230Y0001390572D02*
X0002010230Y0001414195D01*
X0002002355Y0001397322D01*
X0001994482Y0001414195D01*
X0001994482Y0001390572D01*
X0001978734Y0001414195D02*
X0001974235Y0001414195D01*
X0001971985Y0001413070D01*
X0001969733Y0001410821D01*
X0001968610Y0001406320D01*
X0001968610Y0001398446D01*
X0001969733Y0001393948D01*
X0001971985Y0001391698D01*
X0001974235Y0001390572D01*
X0001978734Y0001390572D01*
X0001980984Y0001391698D01*
X0001983233Y0001393948D01*
X0001984358Y0001398446D01*
X0001984358Y0001406320D01*
X0001983233Y0001410821D01*
X0001980984Y0001413070D01*
X0001978734Y0001414195D01*
X0001959611Y0001391698D02*
X0001956237Y0001390572D01*
X0001950610Y0001390572D01*
X0001948363Y0001391698D01*
X0001947238Y0001392823D01*
X0001946113Y0001395073D01*
X0001946113Y0001397322D01*
X0001947238Y0001399572D01*
X0001948363Y0001400697D01*
X0001950610Y0001401822D01*
X0001955112Y0001402947D01*
X0001957362Y0001404071D01*
X0001958487Y0001405196D01*
X0001959611Y0001407446D01*
X0001959611Y0001409695D01*
X0001958487Y0001411946D01*
X0001957362Y0001413070D01*
X0001955112Y0001414195D01*
X0001949488Y0001414195D01*
X0001946113Y0001413070D01*
X0001935989Y0001390572D02*
X0001935989Y0001414195D01*
D51*
X0002260629Y0000199606D02*
X0002260629Y0000344734D01*
X0002395275Y0000199606D02*
X0002395275Y0000344734D01*
X0002150049Y0000090157D02*
X0002129478Y0000090157D01*
X0002150049Y0000146062D02*
X0002129478Y0000146062D01*
X0002116584Y0000357874D02*
X0002096013Y0000357874D01*
X0002116584Y0000413779D02*
X0002096013Y0000413779D01*
X0002513238Y0000564566D02*
X0002492667Y0000564566D01*
X0002513238Y0000620472D02*
X0002492667Y0000620472D01*
D49*
X0002583070Y0000697559D02*
X0001953149Y0000697559D01*
X0001953149Y0000697559D02*
X0001953149Y0001445590D01*
X0001953149Y0001445590D02*
X0002583070Y0001445590D01*
X0002583070Y0001445590D02*
X0002583070Y0000697559D01*
D51*
X0002201181Y0000288582D02*
X0002201181Y0000192913D01*
X0002080314Y0000219291D02*
X0002080314Y0000288582D01*
D49*
X0002435564Y0000145987D02*
X0002450562Y0000145987D01*
X0002450562Y0000177484D01*
X0002408567Y0000145987D02*
X0002426565Y0000145987D01*
X0002417566Y0000145987D02*
X0002417566Y0000177484D01*
X0002420566Y0000172984D01*
X0002423565Y0000169985D01*
X0002426565Y0000168485D01*
X0002150262Y0000037120D02*
X0002152137Y0000035245D01*
X0002157761Y0000033370D01*
X0002161510Y0000033370D01*
X0002167135Y0000035245D01*
X0002170884Y0000038995D01*
X0002172759Y0000042744D01*
X0002174634Y0000050243D01*
X0002174634Y0000055867D01*
X0002172759Y0000063367D01*
X0002170884Y0000067116D01*
X0002167135Y0000070866D01*
X0002161510Y0000072740D01*
X0002157761Y0000072740D01*
X0002152137Y0000070866D01*
X0002150262Y0000068991D01*
X0002137139Y0000072740D02*
X0002110892Y0000072740D01*
X0002127765Y0000033370D01*
X0002114829Y0000430820D02*
X0002116704Y0000428946D01*
X0002122328Y0000427071D01*
X0002126077Y0000427071D01*
X0002131702Y0000428946D01*
X0002135451Y0000432695D01*
X0002137326Y0000436445D01*
X0002139201Y0000443943D01*
X0002139201Y0000449568D01*
X0002137326Y0000457066D01*
X0002135451Y0000460817D01*
X0002131702Y0000464566D01*
X0002126077Y0000466441D01*
X0002122328Y0000466441D01*
X0002116704Y0000464566D01*
X0002114829Y0000462692D01*
X0002081083Y0000466441D02*
X0002088582Y0000466441D01*
X0002092331Y0000464566D01*
X0002094205Y0000462692D01*
X0002097956Y0000457066D01*
X0002099831Y0000449568D01*
X0002099831Y0000434570D01*
X0002097956Y0000430820D01*
X0002096080Y0000428946D01*
X0002092331Y0000427071D01*
X0002084833Y0000427071D01*
X0002081083Y0000428946D01*
X0002079208Y0000430820D01*
X0002077334Y0000434570D01*
X0002077334Y0000443943D01*
X0002079208Y0000447694D01*
X0002081083Y0000449568D01*
X0002084833Y0000451443D01*
X0002092331Y0000451443D01*
X0002096080Y0000449568D01*
X0002097956Y0000447694D01*
X0002099831Y0000443943D01*
X0002508530Y0000513498D02*
X0002510404Y0000511623D01*
X0002516029Y0000509748D01*
X0002519778Y0000509748D01*
X0002525403Y0000511623D01*
X0002529152Y0000515372D01*
X0002531027Y0000519122D01*
X0002532902Y0000526621D01*
X0002532902Y0000532245D01*
X0002531027Y0000539745D01*
X0002529152Y0000543494D01*
X0002525403Y0000547244D01*
X0002519778Y0000549118D01*
X0002516029Y0000549118D01*
X0002510404Y0000547244D01*
X0002508530Y0000545369D01*
X0002495406Y0000549118D02*
X0002471034Y0000549118D01*
X0002484158Y0000534120D01*
X0002478533Y0000534120D01*
X0002474784Y0000532245D01*
X0002472909Y0000530371D01*
X0002471034Y0000526621D01*
X0002471034Y0000517247D01*
X0002472909Y0000513498D01*
X0002474784Y0000511623D01*
X0002478533Y0000509748D01*
X0002489782Y0000509748D01*
X0002493532Y0000511623D01*
X0002495406Y0000513498D01*
X0002323490Y0000560554D02*
X0002323490Y0000538057D01*
X0002324990Y0000533558D01*
X0002327990Y0000530558D01*
X0002332489Y0000529058D01*
X0002335489Y0000529058D01*
X0002308492Y0000529058D02*
X0002308492Y0000560554D01*
X0002296494Y0000560554D01*
X0002293494Y0000559055D01*
X0002291994Y0000557555D01*
X0002290494Y0000554555D01*
X0002290494Y0000550056D01*
X0002291994Y0000547056D01*
X0002293494Y0000545556D01*
X0002296494Y0000544056D01*
X0002308492Y0000544056D01*
X0002260498Y0000529058D02*
X0002278496Y0000529058D01*
X0002269497Y0000529058D02*
X0002269497Y0000560554D01*
X0002272497Y0000556055D01*
X0002275496Y0000553055D01*
X0002278496Y0000551556D01*
X0002306542Y0000955339D02*
X0002306542Y0000994709D01*
X0002265298Y0000959088D02*
X0002267172Y0000957214D01*
X0002272797Y0000955339D01*
X0002276546Y0000955339D01*
X0002282170Y0000957214D01*
X0002285920Y0000960963D01*
X0002287795Y0000964713D01*
X0002289670Y0000972212D01*
X0002289670Y0000977836D01*
X0002287795Y0000985335D01*
X0002285920Y0000989085D01*
X0002282170Y0000992834D01*
X0002276546Y0000994709D01*
X0002272797Y0000994709D01*
X0002267172Y0000992834D01*
X0002265298Y0000990959D01*
X0002250299Y0000990959D02*
X0002248425Y0000992834D01*
X0002244675Y0000994709D01*
X0002235301Y0000994709D01*
X0002231552Y0000992834D01*
X0002229677Y0000990959D01*
X0002227802Y0000987210D01*
X0002227802Y0000983460D01*
X0002229677Y0000977836D01*
X0002252174Y0000955339D01*
X0002227802Y0000955339D01*
X0002035901Y0000279902D02*
X0002061398Y0000279902D01*
X0002064398Y0000278402D01*
X0002065897Y0000276902D01*
X0002067397Y0000273903D01*
X0002067397Y0000267903D01*
X0002065897Y0000264904D01*
X0002064398Y0000263404D01*
X0002061398Y0000261904D01*
X0002035901Y0000261904D01*
X0002067397Y0000230408D02*
X0002067397Y0000248406D01*
X0002067397Y0000239407D02*
X0002035901Y0000239407D01*
X0002040401Y0000242407D01*
X0002043400Y0000245406D01*
X0002044900Y0000248406D01*
G04 next file*
%LPD*%
D62*
X0003325234Y0001347111D02*
X0003310236Y0001347111D01*
X0003328233Y0001338114D02*
X0003317735Y0001369610D01*
X0003307236Y0001338114D01*
X0003296737Y0001338114D02*
X0003296737Y0001369610D01*
X0003278740Y0001338114D01*
X0003278740Y0001369610D01*
X0003268241Y0001369610D02*
X0003250243Y0001369610D01*
X0003259242Y0001338114D02*
X0003259242Y0001369610D01*
X0003239745Y0001341113D02*
X0003238245Y0001339613D01*
X0003239745Y0001338114D01*
X0003241243Y0001339613D01*
X0003239745Y0001341113D01*
X0003239745Y0001338114D01*
X0003239745Y0001357610D02*
X0003238245Y0001356111D01*
X0003239745Y0001354611D01*
X0003241243Y0001356111D01*
X0003239745Y0001357610D01*
X0003239745Y0001354611D01*
X0003203749Y0001369610D02*
X0003182752Y0001369610D01*
X0003196250Y0001338114D01*
X0003172252Y0001366610D02*
X0003170753Y0001368110D01*
X0003167753Y0001369610D01*
X0003160254Y0001369610D01*
X0003157255Y0001368110D01*
X0003155755Y0001366610D01*
X0003154255Y0001363610D01*
X0003154255Y0001360611D01*
X0003155755Y0001356111D01*
X0003173753Y0001338114D01*
X0003154255Y0001338114D01*
X0003140757Y0001338114D02*
X0003140757Y0001359111D01*
X0003140757Y0001356111D02*
X0003139257Y0001357610D01*
X0003136257Y0001359111D01*
X0003131758Y0001359111D01*
X0003128758Y0001357610D01*
X0003127259Y0001354611D01*
X0003127259Y0001338114D01*
X0003127259Y0001354611D02*
X0003125759Y0001357610D01*
X0003122759Y0001359111D01*
X0003118260Y0001359111D01*
X0003115260Y0001357610D01*
X0003113759Y0001354611D01*
X0003113759Y0001338114D01*
X0003098762Y0001338114D02*
X0003098762Y0001359111D01*
X0003098762Y0001356111D02*
X0003097262Y0001357610D01*
X0003094263Y0001359111D01*
X0003089763Y0001359111D01*
X0003086764Y0001357610D01*
X0003085264Y0001354611D01*
X0003085264Y0001338114D01*
X0003085264Y0001354611D02*
X0003083764Y0001357610D01*
X0003080764Y0001359111D01*
X0003076265Y0001359111D01*
X0003073265Y0001357610D01*
X0003071765Y0001354611D01*
X0003071765Y0001338114D01*
X0003035770Y0001369610D02*
X0003028271Y0001338114D01*
X0003022272Y0001360611D01*
X0003016272Y0001338114D01*
X0003008773Y0001369610D01*
X0002996775Y0001338114D02*
X0002996775Y0001359111D01*
X0002996775Y0001369610D02*
X0002998275Y0001368110D01*
X0002996775Y0001366610D01*
X0002995275Y0001368110D01*
X0002996775Y0001369610D01*
X0002996775Y0001366610D01*
X0002981777Y0001338114D02*
X0002981777Y0001359111D01*
X0002981777Y0001353111D02*
X0002980277Y0001356111D01*
X0002978776Y0001357610D01*
X0002975777Y0001359111D01*
X0002972778Y0001359111D01*
X0002950281Y0001339613D02*
X0002953280Y0001338114D01*
X0002959280Y0001338114D01*
X0002962279Y0001339613D01*
X0002963779Y0001342613D01*
X0002963779Y0001354611D01*
X0002962279Y0001357610D01*
X0002959280Y0001359111D01*
X0002953280Y0001359111D01*
X0002950281Y0001357610D01*
X0002948781Y0001354611D01*
X0002948781Y0001351612D01*
X0002963779Y0001348612D01*
X0002812054Y0000905949D02*
X0002812054Y0000945318D01*
X0002795181Y0000907824D02*
X0002789557Y0000905949D01*
X0002780183Y0000905949D01*
X0002776433Y0000907824D01*
X0002774559Y0000909699D01*
X0002772684Y0000913448D01*
X0002772684Y0000917198D01*
X0002774559Y0000920947D01*
X0002776433Y0000922822D01*
X0002780183Y0000924697D01*
X0002787682Y0000926571D01*
X0002791432Y0000928446D01*
X0002793307Y0000930321D01*
X0002795181Y0000934071D01*
X0002795181Y0000937820D01*
X0002793307Y0000941570D01*
X0002791432Y0000943444D01*
X0002787682Y0000945318D01*
X0002778307Y0000945318D01*
X0002772684Y0000943444D01*
X0002755811Y0000905949D02*
X0002755811Y0000945318D01*
X0002740813Y0000945318D01*
X0002737064Y0000943444D01*
X0002735189Y0000941570D01*
X0002733314Y0000937820D01*
X0002733314Y0000932195D01*
X0002735189Y0000928446D01*
X0002737064Y0000926571D01*
X0002740813Y0000924697D01*
X0002755811Y0000924697D01*
D63*
X0002915742Y0000995573D02*
X0002915742Y0001019195D01*
X0002907868Y0001002321D01*
X0002899994Y0001019195D01*
X0002899994Y0000995573D01*
X0002888745Y0000995573D02*
X0002888745Y0001019195D01*
X0002878621Y0000996698D02*
X0002875247Y0000995573D01*
X0002869623Y0000995573D01*
X0002867373Y0000996698D01*
X0002866247Y0000997823D01*
X0002865123Y0001000073D01*
X0002865123Y0001002321D01*
X0002866247Y0001004572D01*
X0002867373Y0001005697D01*
X0002869623Y0001006822D01*
X0002874122Y0001007946D01*
X0002876372Y0001009072D01*
X0002877497Y0001010196D01*
X0002878621Y0001012446D01*
X0002878621Y0001014696D01*
X0002877497Y0001016945D01*
X0002876372Y0001018070D01*
X0002874122Y0001019195D01*
X0002868498Y0001019195D01*
X0002865123Y0001018070D01*
X0002850500Y0001019195D02*
X0002846001Y0001019195D01*
X0002843751Y0001018070D01*
X0002841501Y0001015821D01*
X0002840375Y0001011320D01*
X0002840375Y0001003447D01*
X0002841501Y0000998948D01*
X0002843751Y0000996698D01*
X0002846001Y0000995573D01*
X0002850500Y0000995573D01*
X0002852750Y0000996698D01*
X0002855000Y0000998948D01*
X0002856123Y0001003447D01*
X0002856123Y0001011320D01*
X0002855000Y0001015821D01*
X0002852750Y0001018070D01*
X0002850500Y0001019195D01*
X0002903993Y0001096698D02*
X0002900618Y0001095573D01*
X0002894994Y0001095573D01*
X0002892743Y0001096698D01*
X0002891619Y0001097823D01*
X0002890494Y0001100073D01*
X0002890494Y0001102322D01*
X0002891619Y0001104572D01*
X0002892743Y0001105697D01*
X0002894994Y0001106822D01*
X0002899493Y0001107947D01*
X0002901743Y0001109072D01*
X0002902868Y0001110196D01*
X0002903993Y0001112446D01*
X0002903993Y0001114696D01*
X0002902868Y0001116946D01*
X0002901743Y0001118070D01*
X0002899493Y0001119195D01*
X0002893869Y0001119195D01*
X0002890494Y0001118070D01*
X0002866872Y0001097823D02*
X0002867997Y0001096698D01*
X0002871372Y0001095573D01*
X0002873622Y0001095573D01*
X0002876996Y0001096698D01*
X0002879246Y0001098948D01*
X0002880371Y0001101197D01*
X0002881496Y0001105697D01*
X0002881496Y0001109072D01*
X0002880371Y0001113571D01*
X0002879246Y0001115821D01*
X0002876996Y0001118070D01*
X0002873622Y0001119195D01*
X0002871372Y0001119195D01*
X0002867997Y0001118070D01*
X0002866872Y0001116946D01*
X0002856748Y0001095573D02*
X0002856748Y0001119195D01*
X0002843250Y0001095573D02*
X0002853374Y0001109072D01*
X0002843250Y0001119195D02*
X0002856748Y0001105697D01*
X0002927930Y0001195573D02*
X0002935804Y0001206822D01*
X0002941428Y0001195573D02*
X0002941428Y0001219195D01*
X0002932428Y0001219195D01*
X0002930179Y0001218070D01*
X0002929055Y0001216945D01*
X0002927930Y0001214696D01*
X0002927930Y0001211321D01*
X0002929055Y0001209072D01*
X0002930179Y0001207947D01*
X0002932428Y0001206822D01*
X0002941428Y0001206822D01*
X0002917806Y0001207947D02*
X0002909932Y0001207947D01*
X0002906556Y0001195573D02*
X0002917806Y0001195573D01*
X0002917806Y0001219195D01*
X0002906556Y0001219195D01*
X0002897559Y0001196698D02*
X0002894184Y0001195573D01*
X0002888560Y0001195573D01*
X0002886309Y0001196698D01*
X0002885185Y0001197823D01*
X0002884060Y0001200073D01*
X0002884060Y0001202322D01*
X0002885185Y0001204572D01*
X0002886309Y0001205697D01*
X0002888560Y0001206822D01*
X0002893059Y0001207947D01*
X0002895309Y0001209072D01*
X0002896433Y0001210196D01*
X0002897559Y0001212446D01*
X0002897559Y0001214696D01*
X0002896433Y0001216945D01*
X0002895309Y0001218070D01*
X0002893059Y0001219195D01*
X0002887435Y0001219195D01*
X0002884060Y0001218070D01*
X0002873936Y0001207947D02*
X0002866062Y0001207947D01*
X0002862688Y0001195573D02*
X0002873936Y0001195573D01*
X0002873936Y0001219195D01*
X0002862688Y0001219195D01*
X0002855938Y0001219195D02*
X0002842440Y0001219195D01*
X0002849190Y0001195573D02*
X0002849190Y0001219195D01*
X0002915742Y0001390572D02*
X0002915742Y0001414195D01*
X0002907868Y0001397322D01*
X0002899994Y0001414195D01*
X0002899994Y0001390572D01*
X0002884246Y0001414195D02*
X0002879746Y0001414195D01*
X0002877497Y0001413070D01*
X0002875247Y0001410821D01*
X0002874122Y0001406320D01*
X0002874122Y0001398446D01*
X0002875247Y0001393948D01*
X0002877497Y0001391698D01*
X0002879746Y0001390572D01*
X0002884246Y0001390572D01*
X0002886496Y0001391698D01*
X0002888745Y0001393948D01*
X0002889870Y0001398446D01*
X0002889870Y0001406320D01*
X0002888745Y0001410821D01*
X0002886496Y0001413070D01*
X0002884246Y0001414195D01*
X0002865123Y0001391698D02*
X0002861749Y0001390572D01*
X0002856123Y0001390572D01*
X0002853875Y0001391698D01*
X0002852750Y0001392823D01*
X0002851624Y0001395073D01*
X0002851624Y0001397322D01*
X0002852750Y0001399572D01*
X0002853875Y0001400697D01*
X0002856123Y0001401822D01*
X0002860624Y0001402947D01*
X0002862874Y0001404071D01*
X0002863998Y0001405196D01*
X0002865123Y0001407446D01*
X0002865123Y0001409695D01*
X0002863998Y0001411946D01*
X0002862874Y0001413070D01*
X0002860624Y0001414195D01*
X0002855000Y0001414195D01*
X0002851624Y0001413070D01*
X0002841501Y0001390572D02*
X0002841501Y0001414195D01*
D64*
X0003166141Y0000199606D02*
X0003166141Y0000344734D01*
X0003300787Y0000199606D02*
X0003300787Y0000344734D01*
X0003055561Y0000090157D02*
X0003034990Y0000090157D01*
X0003055561Y0000146062D02*
X0003034990Y0000146062D01*
X0003022096Y0000357874D02*
X0003001525Y0000357874D01*
X0003022096Y0000413779D02*
X0003001525Y0000413779D01*
X0003418749Y0000564566D02*
X0003398179Y0000564566D01*
X0003418749Y0000620472D02*
X0003398179Y0000620472D01*
D62*
X0003488582Y0000697559D02*
X0002858661Y0000697559D01*
X0002858661Y0000697559D02*
X0002858661Y0001445590D01*
X0002858661Y0001445590D02*
X0003488582Y0001445590D01*
X0003488582Y0001445590D02*
X0003488582Y0000697559D01*
D64*
X0003106692Y0000288582D02*
X0003106692Y0000192913D01*
X0002985826Y0000219291D02*
X0002985826Y0000288582D01*
D62*
X0003341076Y0000145987D02*
X0003356074Y0000145987D01*
X0003356074Y0000177484D01*
X0003314079Y0000145987D02*
X0003332077Y0000145987D01*
X0003323078Y0000145987D02*
X0003323078Y0000177484D01*
X0003326076Y0000172984D01*
X0003329077Y0000169985D01*
X0003332077Y0000168485D01*
X0003055774Y0000037120D02*
X0003057649Y0000035245D01*
X0003063272Y0000033370D01*
X0003067022Y0000033370D01*
X0003072647Y0000035245D01*
X0003076396Y0000038995D01*
X0003078271Y0000042744D01*
X0003080146Y0000050243D01*
X0003080146Y0000055867D01*
X0003078271Y0000063367D01*
X0003076396Y0000067116D01*
X0003072647Y0000070866D01*
X0003067022Y0000072740D01*
X0003063272Y0000072740D01*
X0003057649Y0000070866D01*
X0003055774Y0000068991D01*
X0003042650Y0000072740D02*
X0003016404Y0000072740D01*
X0003033277Y0000033370D01*
X0003020341Y0000430820D02*
X0003022215Y0000428946D01*
X0003027840Y0000427071D01*
X0003031589Y0000427071D01*
X0003037214Y0000428946D01*
X0003040963Y0000432695D01*
X0003042838Y0000436445D01*
X0003044713Y0000443943D01*
X0003044713Y0000449568D01*
X0003042838Y0000457066D01*
X0003040963Y0000460817D01*
X0003037214Y0000464566D01*
X0003031589Y0000466441D01*
X0003027840Y0000466441D01*
X0003022215Y0000464566D01*
X0003020341Y0000462692D01*
X0002986595Y0000466441D02*
X0002994094Y0000466441D01*
X0002997844Y0000464566D01*
X0002999718Y0000462692D01*
X0003003468Y0000457066D01*
X0003005343Y0000449568D01*
X0003005343Y0000434570D01*
X0003003468Y0000430820D01*
X0003001593Y0000428946D01*
X0002997844Y0000427071D01*
X0002990343Y0000427071D01*
X0002986595Y0000428946D01*
X0002984720Y0000430820D01*
X0002982845Y0000434570D01*
X0002982845Y0000443943D01*
X0002984720Y0000447694D01*
X0002986595Y0000449568D01*
X0002990343Y0000451443D01*
X0002997844Y0000451443D01*
X0003001593Y0000449568D01*
X0003003468Y0000447694D01*
X0003005343Y0000443943D01*
X0003414041Y0000513498D02*
X0003415916Y0000511623D01*
X0003421541Y0000509748D01*
X0003425290Y0000509748D01*
X0003430914Y0000511623D01*
X0003434663Y0000515372D01*
X0003436539Y0000519122D01*
X0003438413Y0000526621D01*
X0003438413Y0000532245D01*
X0003436539Y0000539745D01*
X0003434663Y0000543494D01*
X0003430914Y0000547244D01*
X0003425290Y0000549118D01*
X0003421541Y0000549118D01*
X0003415916Y0000547244D01*
X0003414041Y0000545369D01*
X0003400918Y0000549118D02*
X0003376546Y0000549118D01*
X0003389670Y0000534120D01*
X0003384045Y0000534120D01*
X0003380296Y0000532245D01*
X0003378421Y0000530371D01*
X0003376546Y0000526621D01*
X0003376546Y0000517247D01*
X0003378421Y0000513498D01*
X0003380296Y0000511623D01*
X0003384045Y0000509748D01*
X0003395294Y0000509748D01*
X0003399043Y0000511623D01*
X0003400918Y0000513498D01*
X0003229002Y0000560554D02*
X0003229002Y0000538057D01*
X0003230502Y0000533558D01*
X0003233502Y0000530558D01*
X0003238001Y0000529058D01*
X0003241001Y0000529058D01*
X0003214004Y0000529058D02*
X0003214004Y0000560554D01*
X0003202005Y0000560554D01*
X0003199006Y0000559055D01*
X0003197506Y0000557555D01*
X0003196006Y0000554555D01*
X0003196006Y0000550056D01*
X0003197506Y0000547056D01*
X0003199006Y0000545556D01*
X0003202005Y0000544056D01*
X0003214004Y0000544056D01*
X0003166010Y0000529058D02*
X0003184008Y0000529058D01*
X0003175009Y0000529058D02*
X0003175009Y0000560554D01*
X0003178008Y0000556055D01*
X0003181008Y0000553055D01*
X0003184008Y0000551556D01*
X0003212054Y0000955339D02*
X0003212054Y0000994709D01*
X0003170809Y0000959088D02*
X0003172684Y0000957214D01*
X0003178308Y0000955339D01*
X0003182058Y0000955339D01*
X0003187682Y0000957214D01*
X0003191432Y0000960963D01*
X0003193307Y0000964713D01*
X0003195181Y0000972212D01*
X0003195181Y0000977836D01*
X0003193307Y0000985335D01*
X0003191432Y0000989085D01*
X0003187682Y0000992834D01*
X0003182058Y0000994709D01*
X0003178308Y0000994709D01*
X0003172684Y0000992834D01*
X0003170809Y0000990959D01*
X0003155811Y0000990959D02*
X0003153937Y0000992834D01*
X0003150187Y0000994709D01*
X0003140812Y0000994709D01*
X0003137064Y0000992834D01*
X0003135189Y0000990959D01*
X0003133314Y0000987210D01*
X0003133314Y0000983460D01*
X0003135189Y0000977836D01*
X0003157686Y0000955339D01*
X0003133314Y0000955339D01*
X0002941412Y0000279902D02*
X0002966910Y0000279902D01*
X0002969909Y0000278402D01*
X0002971409Y0000276902D01*
X0002972909Y0000273903D01*
X0002972909Y0000267903D01*
X0002971409Y0000264904D01*
X0002969909Y0000263404D01*
X0002966910Y0000261904D01*
X0002941412Y0000261904D01*
X0002972909Y0000230408D02*
X0002972909Y0000248406D01*
X0002972909Y0000239407D02*
X0002941412Y0000239407D01*
X0002945911Y0000242407D01*
X0002948912Y0000245406D01*
X0002950412Y0000248406D01*
D75*
X0001514210Y0003040026D02*
X0001499212Y0003040026D01*
X0001517210Y0003031027D02*
X0001506711Y0003062523D01*
X0001496212Y0003031027D01*
X0001485714Y0003031027D02*
X0001485714Y0003062523D01*
X0001467716Y0003031027D01*
X0001467716Y0003062523D01*
X0001457217Y0003062523D02*
X0001439220Y0003062523D01*
X0001448216Y0003031027D02*
X0001448216Y0003062523D01*
X0001428721Y0003034027D02*
X0001427221Y0003032527D01*
X0001428721Y0003031027D01*
X0001430221Y0003032527D01*
X0001428721Y0003034027D01*
X0001428721Y0003031027D01*
X0001428721Y0003050523D02*
X0001427221Y0003049025D01*
X0001428721Y0003047525D01*
X0001430221Y0003049025D01*
X0001428721Y0003050523D01*
X0001428721Y0003047525D01*
X0001392725Y0003062523D02*
X0001371728Y0003062523D01*
X0001385226Y0003031027D01*
X0001361229Y0003059523D02*
X0001359729Y0003061023D01*
X0001356730Y0003062523D01*
X0001349231Y0003062523D01*
X0001346229Y0003061023D01*
X0001344731Y0003059523D01*
X0001343232Y0003056524D01*
X0001343232Y0003053524D01*
X0001344731Y0003049025D01*
X0001362729Y0003031027D01*
X0001343232Y0003031027D01*
X0001329733Y0003031027D02*
X0001329733Y0003052024D01*
X0001329733Y0003049025D02*
X0001328233Y0003050523D01*
X0001325234Y0003052024D01*
X0001320734Y0003052024D01*
X0001317735Y0003050523D01*
X0001316235Y0003047525D01*
X0001316235Y0003031027D01*
X0001316235Y0003047525D02*
X0001314735Y0003050523D01*
X0001311736Y0003052024D01*
X0001307236Y0003052024D01*
X0001304236Y0003050523D01*
X0001302737Y0003047525D01*
X0001302737Y0003031027D01*
X0001287737Y0003031027D02*
X0001287737Y0003052024D01*
X0001287737Y0003049025D02*
X0001286239Y0003050523D01*
X0001283239Y0003052024D01*
X0001278740Y0003052024D01*
X0001275740Y0003050523D01*
X0001274240Y0003047525D01*
X0001274240Y0003031027D01*
X0001274240Y0003047525D02*
X0001272740Y0003050523D01*
X0001269741Y0003052024D01*
X0001265241Y0003052024D01*
X0001262242Y0003050523D01*
X0001260742Y0003047525D01*
X0001260742Y0003031027D01*
X0001224746Y0003062523D02*
X0001217247Y0003031027D01*
X0001211248Y0003053524D01*
X0001205249Y0003031027D01*
X0001197750Y0003062523D01*
X0001185751Y0003031027D02*
X0001185751Y0003052024D01*
X0001185751Y0003062523D02*
X0001187251Y0003061023D01*
X0001185751Y0003059523D01*
X0001184251Y0003061023D01*
X0001185751Y0003062523D01*
X0001185751Y0003059523D01*
X0001170753Y0003031027D02*
X0001170753Y0003052024D01*
X0001170753Y0003046025D02*
X0001169253Y0003049025D01*
X0001167754Y0003050523D01*
X0001164754Y0003052024D01*
X0001161754Y0003052024D01*
X0001139257Y0003032527D02*
X0001142257Y0003031027D01*
X0001148256Y0003031027D01*
X0001151256Y0003032527D01*
X0001152755Y0003035526D01*
X0001152755Y0003047525D01*
X0001151256Y0003050523D01*
X0001148256Y0003052024D01*
X0001142257Y0003052024D01*
X0001139257Y0003050523D01*
X0001137757Y0003047525D01*
X0001137757Y0003044525D01*
X0001152755Y0003041526D01*
X0001001031Y0002598862D02*
X0001001031Y0002638233D01*
X0000984157Y0002600736D02*
X0000978533Y0002598862D01*
X0000969160Y0002598862D01*
X0000965410Y0002600736D01*
X0000963535Y0002602612D01*
X0000961660Y0002606362D01*
X0000961660Y0002610111D01*
X0000963535Y0002613861D01*
X0000965410Y0002615735D01*
X0000969160Y0002617610D01*
X0000976659Y0002619485D01*
X0000980408Y0002621360D01*
X0000982283Y0002623234D01*
X0000984157Y0002626984D01*
X0000984157Y0002630733D01*
X0000982283Y0002634483D01*
X0000980408Y0002636358D01*
X0000976659Y0002638233D01*
X0000967285Y0002638233D01*
X0000961660Y0002636358D01*
X0000944788Y0002598862D02*
X0000944788Y0002638233D01*
X0000929790Y0002638233D01*
X0000926040Y0002636358D01*
X0000924165Y0002634483D01*
X0000922290Y0002630733D01*
X0000922290Y0002625108D01*
X0000924165Y0002621360D01*
X0000926040Y0002619485D01*
X0000929790Y0002617610D01*
X0000944788Y0002617610D01*
D76*
X0001104718Y0002688486D02*
X0001104718Y0002712109D01*
X0001096844Y0002695236D01*
X0001088970Y0002712109D01*
X0001088970Y0002688486D01*
X0001077722Y0002688486D02*
X0001077722Y0002712109D01*
X0001067598Y0002689611D02*
X0001064223Y0002688486D01*
X0001058599Y0002688486D01*
X0001056349Y0002689611D01*
X0001055224Y0002690736D01*
X0001054100Y0002692985D01*
X0001054100Y0002695236D01*
X0001055224Y0002697485D01*
X0001056349Y0002698610D01*
X0001058599Y0002699735D01*
X0001063098Y0002700860D01*
X0001065348Y0002701985D01*
X0001066473Y0002703109D01*
X0001067598Y0002705359D01*
X0001067598Y0002707608D01*
X0001066473Y0002709859D01*
X0001065348Y0002710984D01*
X0001063098Y0002712109D01*
X0001057474Y0002712109D01*
X0001054100Y0002710984D01*
X0001039476Y0002712109D02*
X0001034977Y0002712109D01*
X0001032727Y0002710984D01*
X0001030477Y0002708734D01*
X0001029353Y0002704235D01*
X0001029353Y0002696361D01*
X0001030477Y0002691861D01*
X0001032727Y0002689611D01*
X0001034977Y0002688486D01*
X0001039476Y0002688486D01*
X0001041725Y0002689611D01*
X0001043976Y0002691861D01*
X0001045101Y0002696361D01*
X0001045101Y0002704235D01*
X0001043976Y0002708734D01*
X0001041725Y0002710984D01*
X0001039476Y0002712109D01*
X0001092969Y0002789611D02*
X0001089595Y0002788487D01*
X0001083970Y0002788487D01*
X0001081721Y0002789611D01*
X0001080596Y0002790735D01*
X0001079471Y0002792986D01*
X0001079471Y0002795236D01*
X0001080596Y0002797485D01*
X0001081721Y0002798610D01*
X0001083970Y0002799735D01*
X0001088470Y0002800860D01*
X0001090719Y0002801985D01*
X0001091844Y0002803110D01*
X0001092969Y0002805358D01*
X0001092969Y0002807609D01*
X0001091844Y0002809859D01*
X0001090719Y0002810984D01*
X0001088470Y0002812109D01*
X0001082845Y0002812109D01*
X0001079471Y0002810984D01*
X0001055849Y0002790735D02*
X0001056974Y0002789611D01*
X0001060348Y0002788487D01*
X0001062598Y0002788487D01*
X0001065972Y0002789611D01*
X0001068222Y0002791861D01*
X0001069347Y0002794111D01*
X0001070472Y0002798610D01*
X0001070472Y0002801985D01*
X0001069347Y0002806484D01*
X0001068222Y0002808734D01*
X0001065972Y0002810984D01*
X0001062598Y0002812109D01*
X0001060348Y0002812109D01*
X0001056974Y0002810984D01*
X0001055849Y0002809859D01*
X0001045725Y0002788487D02*
X0001045725Y0002812109D01*
X0001032227Y0002788487D02*
X0001042350Y0002801985D01*
X0001032227Y0002812109D02*
X0001045725Y0002798610D01*
X0001116906Y0002888487D02*
X0001124780Y0002899734D01*
X0001130404Y0002888487D02*
X0001130404Y0002912109D01*
X0001121406Y0002912109D01*
X0001119156Y0002910983D01*
X0001118031Y0002909859D01*
X0001116906Y0002907609D01*
X0001116906Y0002904235D01*
X0001118031Y0002901985D01*
X0001119156Y0002900860D01*
X0001121406Y0002899734D01*
X0001130404Y0002899734D01*
X0001106782Y0002900860D02*
X0001098908Y0002900860D01*
X0001095534Y0002888487D02*
X0001106782Y0002888487D01*
X0001106782Y0002912109D01*
X0001095534Y0002912109D01*
X0001086535Y0002889611D02*
X0001083160Y0002888487D01*
X0001077536Y0002888487D01*
X0001075286Y0002889611D01*
X0001074161Y0002890736D01*
X0001073037Y0002892986D01*
X0001073037Y0002895235D01*
X0001074161Y0002897485D01*
X0001075286Y0002898610D01*
X0001077536Y0002899734D01*
X0001082035Y0002900860D01*
X0001084285Y0002901985D01*
X0001085410Y0002903110D01*
X0001086535Y0002905359D01*
X0001086535Y0002907609D01*
X0001085410Y0002909859D01*
X0001084285Y0002910983D01*
X0001082035Y0002912109D01*
X0001076411Y0002912109D01*
X0001073037Y0002910983D01*
X0001062913Y0002900860D02*
X0001055039Y0002900860D01*
X0001051664Y0002888487D02*
X0001062913Y0002888487D01*
X0001062913Y0002912109D01*
X0001051664Y0002912109D01*
X0001044915Y0002912109D02*
X0001031417Y0002912109D01*
X0001038165Y0002888487D02*
X0001038165Y0002912109D01*
X0001104718Y0003083487D02*
X0001104718Y0003107109D01*
X0001096844Y0003090236D01*
X0001088970Y0003107109D01*
X0001088970Y0003083487D01*
X0001073222Y0003107109D02*
X0001068723Y0003107109D01*
X0001066473Y0003105984D01*
X0001064223Y0003103734D01*
X0001063098Y0003099235D01*
X0001063098Y0003091361D01*
X0001064223Y0003086860D01*
X0001066473Y0003084611D01*
X0001068723Y0003083487D01*
X0001073222Y0003083487D01*
X0001075472Y0003084611D01*
X0001077722Y0003086860D01*
X0001078847Y0003091361D01*
X0001078847Y0003099235D01*
X0001077722Y0003103734D01*
X0001075472Y0003105984D01*
X0001073222Y0003107109D01*
X0001054100Y0003084611D02*
X0001050725Y0003083487D01*
X0001045101Y0003083487D01*
X0001042851Y0003084611D01*
X0001041725Y0003085736D01*
X0001040601Y0003087986D01*
X0001040601Y0003090236D01*
X0001041725Y0003092485D01*
X0001042851Y0003093610D01*
X0001045101Y0003094735D01*
X0001049600Y0003095860D01*
X0001051850Y0003096985D01*
X0001052975Y0003098110D01*
X0001054100Y0003100359D01*
X0001054100Y0003102609D01*
X0001052975Y0003104859D01*
X0001051850Y0003105984D01*
X0001049600Y0003107109D01*
X0001043976Y0003107109D01*
X0001040601Y0003105984D01*
X0001030477Y0003083487D02*
X0001030477Y0003107109D01*
D77*
X0001355118Y0001892518D02*
X0001355118Y0002037647D01*
X0001489763Y0001892518D02*
X0001489763Y0002037647D01*
X0001244537Y0001783070D02*
X0001223966Y0001783070D01*
X0001244537Y0001838976D02*
X0001223966Y0001838976D01*
X0001211072Y0002050787D02*
X0001190501Y0002050787D01*
X0001211072Y0002106692D02*
X0001190501Y0002106692D01*
X0001607725Y0002257480D02*
X0001587155Y0002257480D01*
X0001607725Y0002313385D02*
X0001587155Y0002313385D01*
D75*
X0001677559Y0002390472D02*
X0001047636Y0002390472D01*
X0001047636Y0002390472D02*
X0001047636Y0003138503D01*
X0001047636Y0003138503D02*
X0001677559Y0003138503D01*
X0001677559Y0003138503D02*
X0001677559Y0002390472D01*
D77*
X0001295669Y0001981496D02*
X0001295669Y0001885826D01*
X0001174803Y0001912204D02*
X0001174803Y0001981496D01*
D75*
X0001530052Y0001838901D02*
X0001545050Y0001838901D01*
X0001545050Y0001870397D01*
X0001503055Y0001838901D02*
X0001521053Y0001838901D01*
X0001512054Y0001838901D02*
X0001512054Y0001870397D01*
X0001515054Y0001865898D01*
X0001518053Y0001862897D01*
X0001521053Y0001861398D01*
X0001244750Y0001730033D02*
X0001246625Y0001728159D01*
X0001252249Y0001726284D01*
X0001255999Y0001726284D01*
X0001261623Y0001728159D01*
X0001265373Y0001731908D01*
X0001267247Y0001735658D01*
X0001269122Y0001743157D01*
X0001269122Y0001748781D01*
X0001267247Y0001756280D01*
X0001265373Y0001760030D01*
X0001261623Y0001763779D01*
X0001255999Y0001765654D01*
X0001252249Y0001765654D01*
X0001246625Y0001763779D01*
X0001244750Y0001761904D01*
X0001231627Y0001765654D02*
X0001205380Y0001765654D01*
X0001222253Y0001726284D01*
X0001209317Y0002123734D02*
X0001211192Y0002121859D01*
X0001216816Y0002119985D01*
X0001220566Y0002119985D01*
X0001226190Y0002121859D01*
X0001229940Y0002125609D01*
X0001231814Y0002129358D01*
X0001233689Y0002136857D01*
X0001233689Y0002142482D01*
X0001231814Y0002149981D01*
X0001229940Y0002153730D01*
X0001226190Y0002157480D01*
X0001220566Y0002159355D01*
X0001216816Y0002159355D01*
X0001211192Y0002157480D01*
X0001209317Y0002155605D01*
X0001175571Y0002159355D02*
X0001183070Y0002159355D01*
X0001186820Y0002157480D01*
X0001188695Y0002155605D01*
X0001192444Y0002149981D01*
X0001194319Y0002142482D01*
X0001194319Y0002127484D01*
X0001192444Y0002123734D01*
X0001190569Y0002121859D01*
X0001186820Y0002119985D01*
X0001179321Y0002119985D01*
X0001175571Y0002121859D01*
X0001173697Y0002123734D01*
X0001171822Y0002127484D01*
X0001171822Y0002136857D01*
X0001173697Y0002140607D01*
X0001175571Y0002142482D01*
X0001179321Y0002144356D01*
X0001186820Y0002144356D01*
X0001190569Y0002142482D01*
X0001192444Y0002140607D01*
X0001194319Y0002136857D01*
X0001603018Y0002206411D02*
X0001604893Y0002204536D01*
X0001610517Y0002202662D01*
X0001614266Y0002202662D01*
X0001619891Y0002204536D01*
X0001623640Y0002208286D01*
X0001625515Y0002212036D01*
X0001627390Y0002219535D01*
X0001627390Y0002225159D01*
X0001625515Y0002232658D01*
X0001623640Y0002236407D01*
X0001619891Y0002240157D01*
X0001614266Y0002242032D01*
X0001610517Y0002242032D01*
X0001604893Y0002240157D01*
X0001603018Y0002238282D01*
X0001589894Y0002242032D02*
X0001565523Y0002242032D01*
X0001578646Y0002227034D01*
X0001573022Y0002227034D01*
X0001569272Y0002225159D01*
X0001567397Y0002223284D01*
X0001565523Y0002219535D01*
X0001565523Y0002210161D01*
X0001567397Y0002206411D01*
X0001569272Y0002204536D01*
X0001573022Y0002202662D01*
X0001584270Y0002202662D01*
X0001588020Y0002204536D01*
X0001589894Y0002206411D01*
X0001417978Y0002253468D02*
X0001417978Y0002230971D01*
X0001419477Y0002226471D01*
X0001422478Y0002223472D01*
X0001426977Y0002221972D01*
X0001429977Y0002221972D01*
X0001402980Y0002221972D02*
X0001402980Y0002253468D01*
X0001390982Y0002253468D01*
X0001387982Y0002251968D01*
X0001386482Y0002250468D01*
X0001384983Y0002247469D01*
X0001384983Y0002242969D01*
X0001386482Y0002239970D01*
X0001387982Y0002238470D01*
X0001390982Y0002236970D01*
X0001402980Y0002236970D01*
X0001354985Y0002221972D02*
X0001372984Y0002221972D01*
X0001363985Y0002221972D02*
X0001363985Y0002253468D01*
X0001366985Y0002248968D01*
X0001369985Y0002245969D01*
X0001372984Y0002244469D01*
X0001401029Y0002648252D02*
X0001401029Y0002687622D01*
X0001359786Y0002652002D02*
X0001361660Y0002650127D01*
X0001367285Y0002648252D01*
X0001371034Y0002648252D01*
X0001376659Y0002650127D01*
X0001380408Y0002653876D01*
X0001382283Y0002657626D01*
X0001384158Y0002665125D01*
X0001384158Y0002670749D01*
X0001382283Y0002678248D01*
X0001380408Y0002681998D01*
X0001376659Y0002685748D01*
X0001371034Y0002687622D01*
X0001367285Y0002687622D01*
X0001361660Y0002685748D01*
X0001359786Y0002683873D01*
X0001344788Y0002683873D02*
X0001342913Y0002685748D01*
X0001339163Y0002687622D01*
X0001329790Y0002687622D01*
X0001326040Y0002685748D01*
X0001324165Y0002683873D01*
X0001322290Y0002680122D01*
X0001322290Y0002676374D01*
X0001324165Y0002670749D01*
X0001346662Y0002648252D01*
X0001322290Y0002648252D01*
X0001130389Y0001972815D02*
X0001155886Y0001972815D01*
X0001158886Y0001971316D01*
X0001160386Y0001969816D01*
X0001161885Y0001966816D01*
X0001161885Y0001960817D01*
X0001160386Y0001957817D01*
X0001158886Y0001956317D01*
X0001155886Y0001954818D01*
X0001130389Y0001954818D01*
X0001161885Y0001923322D02*
X0001161885Y0001941317D01*
X0001161885Y0001932320D02*
X0001130389Y0001932320D01*
X0001134889Y0001935320D01*
X0001137888Y0001938320D01*
X0001139388Y0001941317D01*
G04 next file*
D88*
X0002419722Y0003040026D02*
X0002404724Y0003040026D01*
X0002422722Y0003031027D02*
X0002412223Y0003062523D01*
X0002401724Y0003031027D01*
X0002391226Y0003031027D02*
X0002391226Y0003062523D01*
X0002373228Y0003031027D01*
X0002373228Y0003062523D01*
X0002362729Y0003062523D02*
X0002344731Y0003062523D01*
X0002353730Y0003031027D02*
X0002353730Y0003062523D01*
X0002334233Y0003034027D02*
X0002332733Y0003032527D01*
X0002334233Y0003031027D01*
X0002335733Y0003032527D01*
X0002334233Y0003034027D01*
X0002334233Y0003031027D01*
X0002334233Y0003050523D02*
X0002332733Y0003049025D01*
X0002334233Y0003047525D01*
X0002335733Y0003049025D01*
X0002334233Y0003050523D01*
X0002334233Y0003047525D01*
X0002298237Y0003062523D02*
X0002277240Y0003062523D01*
X0002290738Y0003031027D01*
X0002266741Y0003059523D02*
X0002265241Y0003061023D01*
X0002262242Y0003062523D01*
X0002254743Y0003062523D01*
X0002251743Y0003061023D01*
X0002250243Y0003059523D01*
X0002248743Y0003056524D01*
X0002248743Y0003053524D01*
X0002250243Y0003049025D01*
X0002268241Y0003031027D01*
X0002248743Y0003031027D01*
X0002235245Y0003031027D02*
X0002235245Y0003052024D01*
X0002235245Y0003049025D02*
X0002233745Y0003050523D01*
X0002230746Y0003052024D01*
X0002226246Y0003052024D01*
X0002223247Y0003050523D01*
X0002221747Y0003047525D01*
X0002221747Y0003031027D01*
X0002221747Y0003047525D02*
X0002220247Y0003050523D01*
X0002217247Y0003052024D01*
X0002212748Y0003052024D01*
X0002209748Y0003050523D01*
X0002208248Y0003047525D01*
X0002208248Y0003031027D01*
X0002193250Y0003031027D02*
X0002193250Y0003052024D01*
X0002193250Y0003049025D02*
X0002191751Y0003050523D01*
X0002188751Y0003052024D01*
X0002184251Y0003052024D01*
X0002181252Y0003050523D01*
X0002179752Y0003047525D01*
X0002179752Y0003031027D01*
X0002179752Y0003047525D02*
X0002178252Y0003050523D01*
X0002175253Y0003052024D01*
X0002170753Y0003052024D01*
X0002167753Y0003050523D01*
X0002166254Y0003047525D01*
X0002166254Y0003031027D01*
X0002130258Y0003062523D02*
X0002122759Y0003031027D01*
X0002116760Y0003053524D01*
X0002110761Y0003031027D01*
X0002103262Y0003062523D01*
X0002091263Y0003031027D02*
X0002091263Y0003052024D01*
X0002091263Y0003062523D02*
X0002092763Y0003061023D01*
X0002091263Y0003059523D01*
X0002089763Y0003061023D01*
X0002091263Y0003062523D01*
X0002091263Y0003059523D01*
X0002076264Y0003031027D02*
X0002076264Y0003052024D01*
X0002076264Y0003046025D02*
X0002074765Y0003049025D01*
X0002073265Y0003050523D01*
X0002070266Y0003052024D01*
X0002067266Y0003052024D01*
X0002044769Y0003032527D02*
X0002047768Y0003031027D01*
X0002053767Y0003031027D01*
X0002056766Y0003032527D01*
X0002058266Y0003035526D01*
X0002058266Y0003047525D01*
X0002056766Y0003050523D01*
X0002053767Y0003052024D01*
X0002047768Y0003052024D01*
X0002044769Y0003050523D01*
X0002043269Y0003047525D01*
X0002043269Y0003044525D01*
X0002058266Y0003041526D01*
X0001906542Y0002598862D02*
X0001906542Y0002638233D01*
X0001889670Y0002600736D02*
X0001884045Y0002598862D01*
X0001874669Y0002598862D01*
X0001870922Y0002600736D01*
X0001869047Y0002602612D01*
X0001867172Y0002606362D01*
X0001867172Y0002610111D01*
X0001869047Y0002613861D01*
X0001870922Y0002615735D01*
X0001874669Y0002617610D01*
X0001882170Y0002619485D01*
X0001885920Y0002621360D01*
X0001887795Y0002623234D01*
X0001889670Y0002626984D01*
X0001889670Y0002630733D01*
X0001887795Y0002634483D01*
X0001885920Y0002636358D01*
X0001882170Y0002638233D01*
X0001872797Y0002638233D01*
X0001867172Y0002636358D01*
X0001850297Y0002598862D02*
X0001850297Y0002638233D01*
X0001835300Y0002638233D01*
X0001831552Y0002636358D01*
X0001829677Y0002634483D01*
X0001827802Y0002630733D01*
X0001827802Y0002625108D01*
X0001829677Y0002621360D01*
X0001831552Y0002619485D01*
X0001835300Y0002617610D01*
X0001850297Y0002617610D01*
D89*
X0002010230Y0002688486D02*
X0002010230Y0002712109D01*
X0002002355Y0002695236D01*
X0001994482Y0002712109D01*
X0001994482Y0002688486D01*
X0001983233Y0002688486D02*
X0001983233Y0002712109D01*
X0001973110Y0002689611D02*
X0001969733Y0002688486D01*
X0001964111Y0002688486D01*
X0001961861Y0002689611D01*
X0001960736Y0002690736D01*
X0001959611Y0002692985D01*
X0001959611Y0002695236D01*
X0001960736Y0002697485D01*
X0001961861Y0002698610D01*
X0001964111Y0002699735D01*
X0001968610Y0002700860D01*
X0001970860Y0002701985D01*
X0001971985Y0002703109D01*
X0001973110Y0002705359D01*
X0001973110Y0002707608D01*
X0001971985Y0002709859D01*
X0001970860Y0002710984D01*
X0001968610Y0002712109D01*
X0001962986Y0002712109D01*
X0001959611Y0002710984D01*
X0001944988Y0002712109D02*
X0001940489Y0002712109D01*
X0001938238Y0002710984D01*
X0001935989Y0002708734D01*
X0001934864Y0002704235D01*
X0001934864Y0002696361D01*
X0001935989Y0002691861D01*
X0001938238Y0002689611D01*
X0001940489Y0002688486D01*
X0001944988Y0002688486D01*
X0001947238Y0002689611D01*
X0001949488Y0002691861D01*
X0001950610Y0002696361D01*
X0001950610Y0002704235D01*
X0001949488Y0002708734D01*
X0001947238Y0002710984D01*
X0001944988Y0002712109D01*
X0001998481Y0002789611D02*
X0001995106Y0002788487D01*
X0001989482Y0002788487D01*
X0001987232Y0002789611D01*
X0001986107Y0002790735D01*
X0001984983Y0002792986D01*
X0001984983Y0002795236D01*
X0001986107Y0002797485D01*
X0001987232Y0002798610D01*
X0001989482Y0002799735D01*
X0001993981Y0002800860D01*
X0001996231Y0002801985D01*
X0001997356Y0002803110D01*
X0001998481Y0002805358D01*
X0001998481Y0002807609D01*
X0001997356Y0002809859D01*
X0001996231Y0002810984D01*
X0001993981Y0002812109D01*
X0001988357Y0002812109D01*
X0001984983Y0002810984D01*
X0001961361Y0002790735D02*
X0001962485Y0002789611D01*
X0001965860Y0002788487D01*
X0001968110Y0002788487D01*
X0001971484Y0002789611D01*
X0001973734Y0002791861D01*
X0001974859Y0002794111D01*
X0001975984Y0002798610D01*
X0001975984Y0002801985D01*
X0001974859Y0002806484D01*
X0001973734Y0002808734D01*
X0001971484Y0002810984D01*
X0001968110Y0002812109D01*
X0001965860Y0002812109D01*
X0001962485Y0002810984D01*
X0001961361Y0002809859D01*
X0001951237Y0002788487D02*
X0001951237Y0002812109D01*
X0001937739Y0002788487D02*
X0001947862Y0002801985D01*
X0001937739Y0002812109D02*
X0001951237Y0002798610D01*
X0002022418Y0002888487D02*
X0002030292Y0002899734D01*
X0002035915Y0002888487D02*
X0002035915Y0002912109D01*
X0002026917Y0002912109D01*
X0002024668Y0002910983D01*
X0002023543Y0002909859D01*
X0002022418Y0002907609D01*
X0002022418Y0002904235D01*
X0002023543Y0002901985D01*
X0002024668Y0002900860D01*
X0002026917Y0002899734D01*
X0002035915Y0002899734D01*
X0002012293Y0002900860D02*
X0002004420Y0002900860D01*
X0002001046Y0002888487D02*
X0002012293Y0002888487D01*
X0002012293Y0002912109D01*
X0002001046Y0002912109D01*
X0001992047Y0002889611D02*
X0001988671Y0002888487D01*
X0001983048Y0002888487D01*
X0001980797Y0002889611D01*
X0001979673Y0002890736D01*
X0001978548Y0002892986D01*
X0001978548Y0002895235D01*
X0001979673Y0002897485D01*
X0001980797Y0002898610D01*
X0001983048Y0002899734D01*
X0001987547Y0002900860D01*
X0001989797Y0002901985D01*
X0001990922Y0002903110D01*
X0001992047Y0002905359D01*
X0001992047Y0002907609D01*
X0001990922Y0002909859D01*
X0001989797Y0002910983D01*
X0001987547Y0002912109D01*
X0001981923Y0002912109D01*
X0001978548Y0002910983D01*
X0001968425Y0002900860D02*
X0001960551Y0002900860D01*
X0001957176Y0002888487D02*
X0001968425Y0002888487D01*
X0001968425Y0002912109D01*
X0001957176Y0002912109D01*
X0001950427Y0002912109D02*
X0001936929Y0002912109D01*
X0001943678Y0002888487D02*
X0001943678Y0002912109D01*
X0002010230Y0003083487D02*
X0002010230Y0003107109D01*
X0002002355Y0003090236D01*
X0001994482Y0003107109D01*
X0001994482Y0003083487D01*
X0001978734Y0003107109D02*
X0001974235Y0003107109D01*
X0001971985Y0003105984D01*
X0001969733Y0003103734D01*
X0001968610Y0003099235D01*
X0001968610Y0003091361D01*
X0001969733Y0003086860D01*
X0001971985Y0003084611D01*
X0001974235Y0003083487D01*
X0001978734Y0003083487D01*
X0001980984Y0003084611D01*
X0001983233Y0003086860D01*
X0001984358Y0003091361D01*
X0001984358Y0003099235D01*
X0001983233Y0003103734D01*
X0001980984Y0003105984D01*
X0001978734Y0003107109D01*
X0001959611Y0003084611D02*
X0001956237Y0003083487D01*
X0001950610Y0003083487D01*
X0001948363Y0003084611D01*
X0001947238Y0003085736D01*
X0001946113Y0003087986D01*
X0001946113Y0003090236D01*
X0001947238Y0003092485D01*
X0001948363Y0003093610D01*
X0001950610Y0003094735D01*
X0001955112Y0003095860D01*
X0001957362Y0003096985D01*
X0001958487Y0003098110D01*
X0001959611Y0003100359D01*
X0001959611Y0003102609D01*
X0001958487Y0003104859D01*
X0001957362Y0003105984D01*
X0001955112Y0003107109D01*
X0001949488Y0003107109D01*
X0001946113Y0003105984D01*
X0001935989Y0003083487D02*
X0001935989Y0003107109D01*
D90*
X0002260629Y0001892518D02*
X0002260629Y0002037647D01*
X0002395275Y0001892518D02*
X0002395275Y0002037647D01*
X0002150049Y0001783070D02*
X0002129478Y0001783070D01*
X0002150049Y0001838976D02*
X0002129478Y0001838976D01*
X0002116584Y0002050787D02*
X0002096013Y0002050787D01*
X0002116584Y0002106692D02*
X0002096013Y0002106692D01*
X0002513238Y0002257480D02*
X0002492667Y0002257480D01*
X0002513238Y0002313385D02*
X0002492667Y0002313385D01*
D88*
X0002583070Y0002390472D02*
X0001953149Y0002390472D01*
X0001953149Y0002390472D02*
X0001953149Y0003138503D01*
X0001953149Y0003138503D02*
X0002583070Y0003138503D01*
X0002583070Y0003138503D02*
X0002583070Y0002390472D01*
D90*
X0002201181Y0001981496D02*
X0002201181Y0001885826D01*
X0002080314Y0001912204D02*
X0002080314Y0001981496D01*
D88*
X0002435564Y0001838901D02*
X0002450562Y0001838901D01*
X0002450562Y0001870397D01*
X0002408567Y0001838901D02*
X0002426565Y0001838901D01*
X0002417566Y0001838901D02*
X0002417566Y0001870397D01*
X0002420566Y0001865898D01*
X0002423565Y0001862897D01*
X0002426565Y0001861398D01*
X0002150262Y0001730033D02*
X0002152137Y0001728159D01*
X0002157761Y0001726284D01*
X0002161510Y0001726284D01*
X0002167135Y0001728159D01*
X0002170884Y0001731908D01*
X0002172759Y0001735658D01*
X0002174634Y0001743157D01*
X0002174634Y0001748781D01*
X0002172759Y0001756280D01*
X0002170884Y0001760030D01*
X0002167135Y0001763779D01*
X0002161510Y0001765654D01*
X0002157761Y0001765654D01*
X0002152137Y0001763779D01*
X0002150262Y0001761904D01*
X0002137139Y0001765654D02*
X0002110892Y0001765654D01*
X0002127765Y0001726284D01*
X0002114829Y0002123734D02*
X0002116704Y0002121859D01*
X0002122328Y0002119985D01*
X0002126077Y0002119985D01*
X0002131702Y0002121859D01*
X0002135451Y0002125609D01*
X0002137326Y0002129358D01*
X0002139201Y0002136857D01*
X0002139201Y0002142482D01*
X0002137326Y0002149981D01*
X0002135451Y0002153730D01*
X0002131702Y0002157480D01*
X0002126077Y0002159355D01*
X0002122328Y0002159355D01*
X0002116704Y0002157480D01*
X0002114829Y0002155605D01*
X0002081083Y0002159355D02*
X0002088582Y0002159355D01*
X0002092331Y0002157480D01*
X0002094205Y0002155605D01*
X0002097956Y0002149981D01*
X0002099831Y0002142482D01*
X0002099831Y0002127484D01*
X0002097956Y0002123734D01*
X0002096080Y0002121859D01*
X0002092331Y0002119985D01*
X0002084833Y0002119985D01*
X0002081083Y0002121859D01*
X0002079208Y0002123734D01*
X0002077334Y0002127484D01*
X0002077334Y0002136857D01*
X0002079208Y0002140607D01*
X0002081083Y0002142482D01*
X0002084833Y0002144356D01*
X0002092331Y0002144356D01*
X0002096080Y0002142482D01*
X0002097956Y0002140607D01*
X0002099831Y0002136857D01*
X0002508530Y0002206411D02*
X0002510404Y0002204536D01*
X0002516029Y0002202662D01*
X0002519778Y0002202662D01*
X0002525403Y0002204536D01*
X0002529152Y0002208286D01*
X0002531027Y0002212036D01*
X0002532902Y0002219535D01*
X0002532902Y0002225159D01*
X0002531027Y0002232658D01*
X0002529152Y0002236407D01*
X0002525403Y0002240157D01*
X0002519778Y0002242032D01*
X0002516029Y0002242032D01*
X0002510404Y0002240157D01*
X0002508530Y0002238282D01*
X0002495406Y0002242032D02*
X0002471034Y0002242032D01*
X0002484158Y0002227034D01*
X0002478533Y0002227034D01*
X0002474784Y0002225159D01*
X0002472909Y0002223284D01*
X0002471034Y0002219535D01*
X0002471034Y0002210161D01*
X0002472909Y0002206411D01*
X0002474784Y0002204536D01*
X0002478533Y0002202662D01*
X0002489782Y0002202662D01*
X0002493532Y0002204536D01*
X0002495406Y0002206411D01*
X0002323490Y0002253468D02*
X0002323490Y0002230971D01*
X0002324990Y0002226471D01*
X0002327990Y0002223472D01*
X0002332489Y0002221972D01*
X0002335489Y0002221972D01*
X0002308492Y0002221972D02*
X0002308492Y0002253468D01*
X0002296494Y0002253468D01*
X0002293494Y0002251968D01*
X0002291994Y0002250468D01*
X0002290494Y0002247469D01*
X0002290494Y0002242969D01*
X0002291994Y0002239970D01*
X0002293494Y0002238470D01*
X0002296494Y0002236970D01*
X0002308492Y0002236970D01*
X0002260498Y0002221972D02*
X0002278496Y0002221972D01*
X0002269497Y0002221972D02*
X0002269497Y0002253468D01*
X0002272497Y0002248968D01*
X0002275496Y0002245969D01*
X0002278496Y0002244469D01*
X0002306542Y0002648252D02*
X0002306542Y0002687622D01*
X0002265298Y0002652002D02*
X0002267172Y0002650127D01*
X0002272797Y0002648252D01*
X0002276546Y0002648252D01*
X0002282170Y0002650127D01*
X0002285920Y0002653876D01*
X0002287795Y0002657626D01*
X0002289670Y0002665125D01*
X0002289670Y0002670749D01*
X0002287795Y0002678248D01*
X0002285920Y0002681998D01*
X0002282170Y0002685748D01*
X0002276546Y0002687622D01*
X0002272797Y0002687622D01*
X0002267172Y0002685748D01*
X0002265298Y0002683873D01*
X0002250299Y0002683873D02*
X0002248425Y0002685748D01*
X0002244675Y0002687622D01*
X0002235301Y0002687622D01*
X0002231552Y0002685748D01*
X0002229677Y0002683873D01*
X0002227802Y0002680122D01*
X0002227802Y0002676374D01*
X0002229677Y0002670749D01*
X0002252174Y0002648252D01*
X0002227802Y0002648252D01*
X0002035901Y0001972815D02*
X0002061398Y0001972815D01*
X0002064398Y0001971316D01*
X0002065897Y0001969816D01*
X0002067397Y0001966816D01*
X0002067397Y0001960817D01*
X0002065897Y0001957817D01*
X0002064398Y0001956317D01*
X0002061398Y0001954818D01*
X0002035901Y0001954818D01*
X0002067397Y0001923322D02*
X0002067397Y0001941317D01*
X0002067397Y0001932320D02*
X0002035901Y0001932320D01*
X0002040401Y0001935320D01*
X0002043400Y0001938320D01*
X0002044900Y0001941317D01*
G04 next file*
G04 #@! TF.GenerationSoftware,KiCad,Pcbnew,(5.1.4)-1*
G04 #@! TF.CreationDate,2019-12-09T09:49:54+01:00*
G04 #@! TF.ProjectId,HM-LC-SW1-BA-PCB_mini_MAX1724,484d2d4c-432d-4535-9731-2d42412d5043,rev?*
G04 #@! TF.SameCoordinates,Original*
G04 #@! TF.FileFunction,Legend,Bot*
G04 #@! TF.FilePolarity,Positive*
G04 Gerber Fmt 4.6, Leading zero omitted, Abs format (unit mm)*
G04 Created by KiCad (PCBNEW (5.1.4)-1) date 2019-12-09 09:49:54*
G04 APERTURE LIST*
G04 APERTURE END LIST*
D101*
X0003325234Y0003040026D02*
X0003310236Y0003040026D01*
X0003328233Y0003031027D02*
X0003317735Y0003062523D01*
X0003307236Y0003031027D01*
X0003296737Y0003031027D02*
X0003296737Y0003062523D01*
X0003278740Y0003031027D01*
X0003278740Y0003062523D01*
X0003268241Y0003062523D02*
X0003250243Y0003062523D01*
X0003259242Y0003031027D02*
X0003259242Y0003062523D01*
X0003239745Y0003034027D02*
X0003238245Y0003032527D01*
X0003239745Y0003031027D01*
X0003241243Y0003032527D01*
X0003239745Y0003034027D01*
X0003239745Y0003031027D01*
X0003239745Y0003050523D02*
X0003238245Y0003049025D01*
X0003239745Y0003047525D01*
X0003241243Y0003049025D01*
X0003239745Y0003050523D01*
X0003239745Y0003047525D01*
X0003203749Y0003062523D02*
X0003182752Y0003062523D01*
X0003196250Y0003031027D01*
X0003172252Y0003059523D02*
X0003170753Y0003061023D01*
X0003167753Y0003062523D01*
X0003160254Y0003062523D01*
X0003157255Y0003061023D01*
X0003155755Y0003059523D01*
X0003154255Y0003056524D01*
X0003154255Y0003053524D01*
X0003155755Y0003049025D01*
X0003173753Y0003031027D01*
X0003154255Y0003031027D01*
X0003140757Y0003031027D02*
X0003140757Y0003052024D01*
X0003140757Y0003049025D02*
X0003139257Y0003050523D01*
X0003136257Y0003052024D01*
X0003131758Y0003052024D01*
X0003128758Y0003050523D01*
X0003127259Y0003047525D01*
X0003127259Y0003031027D01*
X0003127259Y0003047525D02*
X0003125759Y0003050523D01*
X0003122759Y0003052024D01*
X0003118260Y0003052024D01*
X0003115260Y0003050523D01*
X0003113759Y0003047525D01*
X0003113759Y0003031027D01*
X0003098762Y0003031027D02*
X0003098762Y0003052024D01*
X0003098762Y0003049025D02*
X0003097262Y0003050523D01*
X0003094263Y0003052024D01*
X0003089763Y0003052024D01*
X0003086764Y0003050523D01*
X0003085264Y0003047525D01*
X0003085264Y0003031027D01*
X0003085264Y0003047525D02*
X0003083764Y0003050523D01*
X0003080764Y0003052024D01*
X0003076265Y0003052024D01*
X0003073265Y0003050523D01*
X0003071765Y0003047525D01*
X0003071765Y0003031027D01*
X0003035770Y0003062523D02*
X0003028271Y0003031027D01*
X0003022272Y0003053524D01*
X0003016272Y0003031027D01*
X0003008773Y0003062523D01*
X0002996775Y0003031027D02*
X0002996775Y0003052024D01*
X0002996775Y0003062523D02*
X0002998275Y0003061023D01*
X0002996775Y0003059523D01*
X0002995275Y0003061023D01*
X0002996775Y0003062523D01*
X0002996775Y0003059523D01*
X0002981777Y0003031027D02*
X0002981777Y0003052024D01*
X0002981777Y0003046025D02*
X0002980277Y0003049025D01*
X0002978776Y0003050523D01*
X0002975777Y0003052024D01*
X0002972778Y0003052024D01*
X0002950281Y0003032527D02*
X0002953280Y0003031027D01*
X0002959280Y0003031027D01*
X0002962279Y0003032527D01*
X0002963779Y0003035526D01*
X0002963779Y0003047525D01*
X0002962279Y0003050523D01*
X0002959280Y0003052024D01*
X0002953280Y0003052024D01*
X0002950281Y0003050523D01*
X0002948781Y0003047525D01*
X0002948781Y0003044525D01*
X0002963779Y0003041526D01*
X0002812054Y0002598862D02*
X0002812054Y0002638233D01*
X0002795181Y0002600736D02*
X0002789557Y0002598862D01*
X0002780183Y0002598862D01*
X0002776433Y0002600736D01*
X0002774559Y0002602612D01*
X0002772684Y0002606362D01*
X0002772684Y0002610111D01*
X0002774559Y0002613861D01*
X0002776433Y0002615735D01*
X0002780183Y0002617610D01*
X0002787682Y0002619485D01*
X0002791432Y0002621360D01*
X0002793307Y0002623234D01*
X0002795181Y0002626984D01*
X0002795181Y0002630733D01*
X0002793307Y0002634483D01*
X0002791432Y0002636358D01*
X0002787682Y0002638233D01*
X0002778307Y0002638233D01*
X0002772684Y0002636358D01*
X0002755811Y0002598862D02*
X0002755811Y0002638233D01*
X0002740813Y0002638233D01*
X0002737064Y0002636358D01*
X0002735189Y0002634483D01*
X0002733314Y0002630733D01*
X0002733314Y0002625108D01*
X0002735189Y0002621360D01*
X0002737064Y0002619485D01*
X0002740813Y0002617610D01*
X0002755811Y0002617610D01*
D102*
X0002915742Y0002688486D02*
X0002915742Y0002712109D01*
X0002907868Y0002695236D01*
X0002899994Y0002712109D01*
X0002899994Y0002688486D01*
X0002888745Y0002688486D02*
X0002888745Y0002712109D01*
X0002878621Y0002689611D02*
X0002875247Y0002688486D01*
X0002869623Y0002688486D01*
X0002867373Y0002689611D01*
X0002866247Y0002690736D01*
X0002865123Y0002692985D01*
X0002865123Y0002695236D01*
X0002866247Y0002697485D01*
X0002867373Y0002698610D01*
X0002869623Y0002699735D01*
X0002874122Y0002700860D01*
X0002876372Y0002701985D01*
X0002877497Y0002703109D01*
X0002878621Y0002705359D01*
X0002878621Y0002707608D01*
X0002877497Y0002709859D01*
X0002876372Y0002710984D01*
X0002874122Y0002712109D01*
X0002868498Y0002712109D01*
X0002865123Y0002710984D01*
X0002850500Y0002712109D02*
X0002846001Y0002712109D01*
X0002843751Y0002710984D01*
X0002841501Y0002708734D01*
X0002840375Y0002704235D01*
X0002840375Y0002696361D01*
X0002841501Y0002691861D01*
X0002843751Y0002689611D01*
X0002846001Y0002688486D01*
X0002850500Y0002688486D01*
X0002852750Y0002689611D01*
X0002855000Y0002691861D01*
X0002856123Y0002696361D01*
X0002856123Y0002704235D01*
X0002855000Y0002708734D01*
X0002852750Y0002710984D01*
X0002850500Y0002712109D01*
X0002903993Y0002789611D02*
X0002900618Y0002788487D01*
X0002894994Y0002788487D01*
X0002892743Y0002789611D01*
X0002891619Y0002790735D01*
X0002890494Y0002792986D01*
X0002890494Y0002795236D01*
X0002891619Y0002797485D01*
X0002892743Y0002798610D01*
X0002894994Y0002799735D01*
X0002899493Y0002800860D01*
X0002901743Y0002801985D01*
X0002902868Y0002803110D01*
X0002903993Y0002805358D01*
X0002903993Y0002807609D01*
X0002902868Y0002809859D01*
X0002901743Y0002810984D01*
X0002899493Y0002812109D01*
X0002893869Y0002812109D01*
X0002890494Y0002810984D01*
X0002866872Y0002790735D02*
X0002867997Y0002789611D01*
X0002871372Y0002788487D01*
X0002873622Y0002788487D01*
X0002876996Y0002789611D01*
X0002879246Y0002791861D01*
X0002880371Y0002794111D01*
X0002881496Y0002798610D01*
X0002881496Y0002801985D01*
X0002880371Y0002806484D01*
X0002879246Y0002808734D01*
X0002876996Y0002810984D01*
X0002873622Y0002812109D01*
X0002871372Y0002812109D01*
X0002867997Y0002810984D01*
X0002866872Y0002809859D01*
X0002856748Y0002788487D02*
X0002856748Y0002812109D01*
X0002843250Y0002788487D02*
X0002853374Y0002801985D01*
X0002843250Y0002812109D02*
X0002856748Y0002798610D01*
X0002927930Y0002888487D02*
X0002935804Y0002899734D01*
X0002941428Y0002888487D02*
X0002941428Y0002912109D01*
X0002932428Y0002912109D01*
X0002930179Y0002910983D01*
X0002929055Y0002909859D01*
X0002927930Y0002907609D01*
X0002927930Y0002904235D01*
X0002929055Y0002901985D01*
X0002930179Y0002900860D01*
X0002932428Y0002899734D01*
X0002941428Y0002899734D01*
X0002917806Y0002900860D02*
X0002909932Y0002900860D01*
X0002906556Y0002888487D02*
X0002917806Y0002888487D01*
X0002917806Y0002912109D01*
X0002906556Y0002912109D01*
X0002897559Y0002889611D02*
X0002894184Y0002888487D01*
X0002888560Y0002888487D01*
X0002886309Y0002889611D01*
X0002885185Y0002890736D01*
X0002884060Y0002892986D01*
X0002884060Y0002895235D01*
X0002885185Y0002897485D01*
X0002886309Y0002898610D01*
X0002888560Y0002899734D01*
X0002893059Y0002900860D01*
X0002895309Y0002901985D01*
X0002896433Y0002903110D01*
X0002897559Y0002905359D01*
X0002897559Y0002907609D01*
X0002896433Y0002909859D01*
X0002895309Y0002910983D01*
X0002893059Y0002912109D01*
X0002887435Y0002912109D01*
X0002884060Y0002910983D01*
X0002873936Y0002900860D02*
X0002866062Y0002900860D01*
X0002862688Y0002888487D02*
X0002873936Y0002888487D01*
X0002873936Y0002912109D01*
X0002862688Y0002912109D01*
X0002855938Y0002912109D02*
X0002842440Y0002912109D01*
X0002849190Y0002888487D02*
X0002849190Y0002912109D01*
X0002915742Y0003083487D02*
X0002915742Y0003107109D01*
X0002907868Y0003090236D01*
X0002899994Y0003107109D01*
X0002899994Y0003083487D01*
X0002884246Y0003107109D02*
X0002879746Y0003107109D01*
X0002877497Y0003105984D01*
X0002875247Y0003103734D01*
X0002874122Y0003099235D01*
X0002874122Y0003091361D01*
X0002875247Y0003086860D01*
X0002877497Y0003084611D01*
X0002879746Y0003083487D01*
X0002884246Y0003083487D01*
X0002886496Y0003084611D01*
X0002888745Y0003086860D01*
X0002889870Y0003091361D01*
X0002889870Y0003099235D01*
X0002888745Y0003103734D01*
X0002886496Y0003105984D01*
X0002884246Y0003107109D01*
X0002865123Y0003084611D02*
X0002861749Y0003083487D01*
X0002856123Y0003083487D01*
X0002853875Y0003084611D01*
X0002852750Y0003085736D01*
X0002851624Y0003087986D01*
X0002851624Y0003090236D01*
X0002852750Y0003092485D01*
X0002853875Y0003093610D01*
X0002856123Y0003094735D01*
X0002860624Y0003095860D01*
X0002862874Y0003096985D01*
X0002863998Y0003098110D01*
X0002865123Y0003100359D01*
X0002865123Y0003102609D01*
X0002863998Y0003104859D01*
X0002862874Y0003105984D01*
X0002860624Y0003107109D01*
X0002855000Y0003107109D01*
X0002851624Y0003105984D01*
X0002841501Y0003083487D02*
X0002841501Y0003107109D01*
D103*
X0003166141Y0001892518D02*
X0003166141Y0002037647D01*
X0003300787Y0001892518D02*
X0003300787Y0002037647D01*
X0003055561Y0001783070D02*
X0003034990Y0001783070D01*
X0003055561Y0001838976D02*
X0003034990Y0001838976D01*
X0003022096Y0002050787D02*
X0003001525Y0002050787D01*
X0003022096Y0002106692D02*
X0003001525Y0002106692D01*
X0003418749Y0002257480D02*
X0003398179Y0002257480D01*
X0003418749Y0002313385D02*
X0003398179Y0002313385D01*
D101*
X0003488582Y0002390472D02*
X0002858661Y0002390472D01*
X0002858661Y0002390472D02*
X0002858661Y0003138503D01*
X0002858661Y0003138503D02*
X0003488582Y0003138503D01*
X0003488582Y0003138503D02*
X0003488582Y0002390472D01*
D103*
X0003106692Y0001981496D02*
X0003106692Y0001885826D01*
X0002985826Y0001912204D02*
X0002985826Y0001981496D01*
D101*
X0003341076Y0001838901D02*
X0003356074Y0001838901D01*
X0003356074Y0001870397D01*
X0003314079Y0001838901D02*
X0003332077Y0001838901D01*
X0003323078Y0001838901D02*
X0003323078Y0001870397D01*
X0003326076Y0001865898D01*
X0003329077Y0001862897D01*
X0003332077Y0001861398D01*
X0003055774Y0001730033D02*
X0003057649Y0001728159D01*
X0003063272Y0001726284D01*
X0003067022Y0001726284D01*
X0003072647Y0001728159D01*
X0003076396Y0001731908D01*
X0003078271Y0001735658D01*
X0003080146Y0001743157D01*
X0003080146Y0001748781D01*
X0003078271Y0001756280D01*
X0003076396Y0001760030D01*
X0003072647Y0001763779D01*
X0003067022Y0001765654D01*
X0003063272Y0001765654D01*
X0003057649Y0001763779D01*
X0003055774Y0001761904D01*
X0003042650Y0001765654D02*
X0003016404Y0001765654D01*
X0003033277Y0001726284D01*
X0003020341Y0002123734D02*
X0003022215Y0002121859D01*
X0003027840Y0002119985D01*
X0003031589Y0002119985D01*
X0003037214Y0002121859D01*
X0003040963Y0002125609D01*
X0003042838Y0002129358D01*
X0003044713Y0002136857D01*
X0003044713Y0002142482D01*
X0003042838Y0002149981D01*
X0003040963Y0002153730D01*
X0003037214Y0002157480D01*
X0003031589Y0002159355D01*
X0003027840Y0002159355D01*
X0003022215Y0002157480D01*
X0003020341Y0002155605D01*
X0002986595Y0002159355D02*
X0002994094Y0002159355D01*
X0002997844Y0002157480D01*
X0002999718Y0002155605D01*
X0003003468Y0002149981D01*
X0003005343Y0002142482D01*
X0003005343Y0002127484D01*
X0003003468Y0002123734D01*
X0003001593Y0002121859D01*
X0002997844Y0002119985D01*
X0002990343Y0002119985D01*
X0002986595Y0002121859D01*
X0002984720Y0002123734D01*
X0002982845Y0002127484D01*
X0002982845Y0002136857D01*
X0002984720Y0002140607D01*
X0002986595Y0002142482D01*
X0002990343Y0002144356D01*
X0002997844Y0002144356D01*
X0003001593Y0002142482D01*
X0003003468Y0002140607D01*
X0003005343Y0002136857D01*
X0003414041Y0002206411D02*
X0003415916Y0002204536D01*
X0003421541Y0002202662D01*
X0003425290Y0002202662D01*
X0003430914Y0002204536D01*
X0003434663Y0002208286D01*
X0003436539Y0002212036D01*
X0003438413Y0002219535D01*
X0003438413Y0002225159D01*
X0003436539Y0002232658D01*
X0003434663Y0002236407D01*
X0003430914Y0002240157D01*
X0003425290Y0002242032D01*
X0003421541Y0002242032D01*
X0003415916Y0002240157D01*
X0003414041Y0002238282D01*
X0003400918Y0002242032D02*
X0003376546Y0002242032D01*
X0003389670Y0002227034D01*
X0003384045Y0002227034D01*
X0003380296Y0002225159D01*
X0003378421Y0002223284D01*
X0003376546Y0002219535D01*
X0003376546Y0002210161D01*
X0003378421Y0002206411D01*
X0003380296Y0002204536D01*
X0003384045Y0002202662D01*
X0003395294Y0002202662D01*
X0003399043Y0002204536D01*
X0003400918Y0002206411D01*
X0003229002Y0002253468D02*
X0003229002Y0002230971D01*
X0003230502Y0002226471D01*
X0003233502Y0002223472D01*
X0003238001Y0002221972D01*
X0003241001Y0002221972D01*
X0003214004Y0002221972D02*
X0003214004Y0002253468D01*
X0003202005Y0002253468D01*
X0003199006Y0002251968D01*
X0003197506Y0002250468D01*
X0003196006Y0002247469D01*
X0003196006Y0002242969D01*
X0003197506Y0002239970D01*
X0003199006Y0002238470D01*
X0003202005Y0002236970D01*
X0003214004Y0002236970D01*
X0003166010Y0002221972D02*
X0003184008Y0002221972D01*
X0003175009Y0002221972D02*
X0003175009Y0002253468D01*
X0003178008Y0002248968D01*
X0003181008Y0002245969D01*
X0003184008Y0002244469D01*
X0003212054Y0002648252D02*
X0003212054Y0002687622D01*
X0003170809Y0002652002D02*
X0003172684Y0002650127D01*
X0003178308Y0002648252D01*
X0003182058Y0002648252D01*
X0003187682Y0002650127D01*
X0003191432Y0002653876D01*
X0003193307Y0002657626D01*
X0003195181Y0002665125D01*
X0003195181Y0002670749D01*
X0003193307Y0002678248D01*
X0003191432Y0002681998D01*
X0003187682Y0002685748D01*
X0003182058Y0002687622D01*
X0003178308Y0002687622D01*
X0003172684Y0002685748D01*
X0003170809Y0002683873D01*
X0003155811Y0002683873D02*
X0003153937Y0002685748D01*
X0003150187Y0002687622D01*
X0003140812Y0002687622D01*
X0003137064Y0002685748D01*
X0003135189Y0002683873D01*
X0003133314Y0002680122D01*
X0003133314Y0002676374D01*
X0003135189Y0002670749D01*
X0003157686Y0002648252D01*
X0003133314Y0002648252D01*
X0002941412Y0001972815D02*
X0002966910Y0001972815D01*
X0002969909Y0001971316D01*
X0002971409Y0001969816D01*
X0002972909Y0001966816D01*
X0002972909Y0001960817D01*
X0002971409Y0001957817D01*
X0002969909Y0001956317D01*
X0002966910Y0001954818D01*
X0002941412Y0001954818D01*
X0002972909Y0001923322D02*
X0002972909Y0001941317D01*
X0002972909Y0001932320D02*
X0002941412Y0001932320D01*
X0002945911Y0001935320D01*
X0002948912Y0001938320D01*
X0002950412Y0001941317D01*
M02*