%
M48
METRIC,000.000
T01C2.20
T10C0.40
T11C0.80
T12C1.00
%
T01
X018086Y038259
X001957Y001810
X042086Y038259
X025957Y001810
X066086Y038259
X049957Y001810
X090086Y038259
X073957Y001810
X018086Y082259
X001957Y045810
X042086Y082259
X025957Y045810
X066086Y082259
X049957Y045810
X090086Y082259
X073957Y045810
T10
X000713Y037192
X000898Y023199
X000898Y022399
X000898Y021599
X001899Y019399
X001899Y017999
X001899Y016399
X001899Y014799
X003400Y014050
X003542Y029216
X004000Y015350
X004299Y021200
X004398Y034400
X004398Y008800
X004398Y006475
X004736Y030898
X004751Y030029
X004795Y029216
X005099Y010148
X005242Y037700
X005699Y004499
X005801Y023001
X005801Y021799
X006499Y014400
X007225Y020491
X007899Y026100
X007934Y020019
X007965Y020816
X008173Y021639
X008699Y036801
X009806Y023364
X011051Y001649
X011300Y020499
X011300Y011213
X011800Y004499
X012199Y020400
X012610Y036717
X013100Y020400
X014200Y020900
X015262Y019953
X016400Y025800
X016601Y022749
X016750Y017100
X017401Y030699
X017624Y024075
X017799Y001251
X018198Y021200
X018224Y022549
X018650Y002150
X018650Y001251
X024713Y037192
X024898Y023199
X024898Y022399
X024898Y021599
X025899Y019399
X025899Y017999
X025899Y016399
X025899Y014799
X027400Y014050
X027542Y029216
X028000Y015350
X028299Y021200
X028398Y034400
X028398Y008800
X028398Y006475
X028736Y030898
X028751Y030029
X028795Y029216
X029099Y010148
X029242Y037700
X029699Y004499
X029801Y023001
X029801Y021799
X030499Y014400
X031225Y020491
X031899Y026100
X031934Y020019
X031965Y020816
X032173Y021639
X032698Y036801
X033806Y023364
X035051Y001649
X035300Y020499
X035300Y011213
X035800Y004499
X036199Y020400
X036610Y036717
X037100Y020400
X038200Y020900
X039262Y019953
X040400Y025800
X040601Y022749
X040750Y017100
X041401Y030699
X041624Y024075
X041799Y001251
X042198Y021200
X042224Y022549
X042650Y002150
X042650Y001251
X048713Y037192
X048898Y023199
X048898Y022399
X048898Y021599
X049899Y019399
X049899Y017999
X049899Y016399
X049899Y014799
X051400Y014050
X051542Y029216
X052000Y015350
X052299Y021200
X052398Y034400
X052398Y008800
X052398Y006475
X052736Y030898
X052751Y030029
X052795Y029216
X053099Y010148
X053242Y037700
X053699Y004499
X053801Y023001
X053801Y021799
X054499Y014400
X055225Y020491
X055899Y026100
X055934Y020019
X055965Y020816
X056173Y021639
X056699Y036801
X057806Y023364
X059051Y001649
X059300Y020499
X059300Y011213
X059800Y004499
X060199Y020400
X060610Y036717
X061100Y020400
X062200Y020900
X063262Y019953
X064400Y025800
X064601Y022749
X064750Y017100
X065400Y030699
X065624Y024075
X065799Y001251
X066198Y021200
X066224Y022549
X066650Y002150
X066650Y001251
X072713Y037192
X072898Y023199
X072898Y022399
X072898Y021599
X073899Y019399
X073899Y017999
X073899Y016399
X073899Y014799
X075400Y014050
X075542Y029216
X076000Y015350
X076299Y021200
X076398Y034400
X076398Y008800
X076398Y006475
X076736Y030898
X076751Y030029
X076795Y029216
X077099Y010148
X077242Y037700
X077699Y004499
X077801Y023001
X077801Y021799
X078499Y014400
X079225Y020491
X079899Y026100
X079934Y020019
X079965Y020816
X080173Y021639
X080699Y036801
X081806Y023364
X083051Y001649
X083300Y020499
X083300Y011213
X083800Y004499
X084199Y020400
X084610Y036717
X085100Y020400
X086200Y020900
X087262Y019953
X088400Y025800
X088601Y022749
X088750Y017100
X089401Y030699
X089624Y024075
X089799Y001251
X090198Y021200
X090224Y022549
X090650Y002150
X090650Y001251
X000713Y081192
X000898Y067199
X000898Y066399
X000898Y065599
X001899Y063399
X001899Y061999
X001899Y060399
X001899Y058799
X003400Y058050
X003542Y073216
X004000Y059350
X004299Y065200
X004398Y078400
X004398Y052800
X004398Y050475
X004736Y074898
X004751Y074029
X004795Y073216
X005099Y054148
X005242Y081700
X005699Y048499
X005801Y067001
X005801Y065799
X006499Y058400
X007225Y064491
X007899Y070100
X007934Y064019
X007965Y064816
X008173Y065639
X008699Y080801
X009806Y067364
X011051Y045649
X011300Y064498
X011300Y055213
X011800Y048499
X012199Y064400
X012610Y080717
X013100Y064400
X014200Y064900
X015262Y063953
X016400Y069800
X016601Y066749
X016750Y061100
X017401Y074699
X017624Y068075
X017799Y045251
X018198Y065200
X018224Y066549
X018650Y046150
X018650Y045251
X024713Y081192
X024898Y067199
X024898Y066399
X024898Y065599
X025899Y063399
X025899Y061999
X025899Y060399
X025899Y058799
X027400Y058050
X027542Y073216
X028000Y059350
X028299Y065200
X028398Y078400
X028398Y052800
X028398Y050475
X028736Y074898
X028751Y074029
X028795Y073216
X029099Y054148
X029242Y081700
X029699Y048499
X029801Y067001
X029801Y065799
X030499Y058400
X031225Y064491
X031899Y070100
X031934Y064019
X031965Y064816
X032173Y065639
X032698Y080801
X033806Y067364
X035051Y045649
X035300Y064498
X035300Y055213
X035800Y048499
X036199Y064400
X036610Y080717
X037100Y064400
X038200Y064900
X039262Y063953
X040400Y069800
X040601Y066749
X040750Y061100
X041401Y074699
X041624Y068075
X041799Y045251
X042198Y065200
X042224Y066549
X042650Y046150
X042650Y045251
X048713Y081192
X048898Y067199
X048898Y066399
X048898Y065599
X049899Y063399
X049899Y061999
X049899Y060399
X049899Y058799
X051400Y058050
X051542Y073216
X052000Y059350
X052299Y065200
X052398Y078400
X052398Y052800
X052398Y050475
X052736Y074898
X052751Y074029
X052795Y073216
X053099Y054148
X053242Y081700
X053699Y048499
X053801Y067001
X053801Y065799
X054499Y058400
X055225Y064491
X055899Y070100
X055934Y064019
X055965Y064816
X056173Y065639
X056699Y080801
X057806Y067364
X059051Y045649
X059300Y064498
X059300Y055213
X059800Y048499
X060199Y064400
X060610Y080717
X061100Y064400
X062200Y064900
X063262Y063953
X064400Y069800
X064601Y066749
X064750Y061100
X065400Y074699
X065624Y068075
X065799Y045251
X066198Y065200
X066224Y066549
X066650Y046150
X066650Y045251
X072713Y081192
X072898Y067199
X072898Y066399
X072898Y065599
X073899Y063399
X073899Y061999
X073899Y060399
X073899Y058799
X075400Y058050
X075542Y073216
X076000Y059350
X076299Y065200
X076398Y078400
X076398Y052800
X076398Y050475
X076736Y074898
X076751Y074029
X076795Y073216
X077099Y054148
X077242Y081700
X077699Y048499
X077801Y067001
X077801Y065799
X078499Y058400
X079225Y064491
X079899Y070100
X079934Y064019
X079965Y064816
X080173Y065639
X080699Y080801
X081806Y067364
X083051Y045649
X083300Y064498
X083300Y055213
X083800Y048499
X084199Y064400
X084610Y080717
X085100Y064400
X086200Y064900
X087262Y063953
X088400Y069800
X088601Y066749
X088750Y061100
X089401Y074699
X089624Y068075
X089799Y045251
X090198Y065200
X090224Y066549
X090650Y046150
X090650Y045251
T11
X001830Y038576
X025830Y038576
X049830Y038576
X073830Y038576
X001830Y082576
X025830Y082576
X049830Y082576
X073830Y082576
T12
X001300Y011401
X001300Y008861
X001300Y006321
X018658Y011398
X018658Y008858
X018658Y006318
X025300Y011401
X025300Y008861
X025300Y006321
X042658Y011398
X042658Y008858
X042658Y006318
X049300Y011401
X049300Y008861
X049300Y006321
X066658Y011398
X066658Y008858
X066658Y006318
X073300Y011401
X073300Y008861
X073300Y006321
X090658Y011398
X090658Y008858
X090658Y006318
X001300Y055401
X001300Y052861
X001300Y050321
X018658Y055398
X018658Y052858
X018658Y050318
X025300Y055401
X025300Y052861
X025300Y050321
X042658Y055398
X042658Y052858
X042658Y050318
X049300Y055401
X049300Y052861
X049300Y050321
X066658Y055398
X066658Y052858
X066658Y050318
X073300Y055401
X073300Y052861
X073300Y050321
X090658Y055398
X090658Y052858
X090658Y050318
M30