%MOIN*%
%OFA0B0*%
%FSLAX46Y46*%
%IPPOS*%
%LPD*%
%ADD10O,0.082677165354330714X0.082677165354330714*%
%ADD11C,0.005905511811023622*%
%ADD12C,0.094488188976377951*%
%ADD13C,0.0610236220472441*%
%ADD14C,0.01968503937007874*%
%ADD15R,0.062992125984251982X0.11511811023622047*%
%ADD16R,0.041338582677165357X0.063779527559055124*%
%ADD17R,0.13385826771653545X0.082677165354330714*%
%ADD18C,0.10236220472440946*%
%ADD19R,0.068897637795275593X0.068897637795275593*%
%ADD30O,0.082677165354330714X0.082677165354330714*%
%ADD31C,0.005905511811023622*%
%ADD32C,0.094488188976377951*%
%ADD33C,0.0610236220472441*%
%ADD34C,0.01968503937007874*%
%ADD35R,0.062992125984251982X0.11511811023622047*%
%ADD36R,0.041338582677165357X0.063779527559055124*%
%ADD37R,0.13385826771653545X0.082677165354330714*%
%ADD38C,0.10236220472440946*%
%ADD39R,0.068897637795275593X0.068897637795275593*%
%ADD40O,0.082677165354330714X0.082677165354330714*%
%ADD41C,0.005905511811023622*%
%ADD42C,0.094488188976377951*%
%ADD43C,0.0610236220472441*%
%ADD44C,0.01968503937007874*%
%ADD45R,0.062992125984251982X0.11511811023622047*%
%ADD46R,0.041338582677165357X0.063779527559055124*%
%ADD47R,0.13385826771653545X0.082677165354330714*%
%ADD48C,0.10236220472440946*%
%ADD49R,0.068897637795275593X0.068897637795275593*%
%ADD50O,0.082677165354330714X0.082677165354330714*%
%ADD51C,0.005905511811023622*%
%ADD52C,0.094488188976377951*%
%ADD53C,0.0610236220472441*%
%ADD54C,0.01968503937007874*%
%ADD55R,0.062992125984251982X0.11511811023622047*%
%ADD56R,0.041338582677165357X0.063779527559055124*%
%ADD57R,0.13385826771653545X0.082677165354330714*%
%ADD58C,0.10236220472440946*%
%ADD59R,0.068897637795275593X0.068897637795275593*%
%ADD60O,0.082677165354330714X0.082677165354330714*%
%ADD61C,0.005905511811023622*%
%ADD62C,0.094488188976377951*%
%ADD63C,0.0610236220472441*%
%ADD64C,0.01968503937007874*%
%ADD65R,0.062992125984251982X0.11511811023622047*%
%ADD66R,0.041338582677165357X0.063779527559055124*%
%ADD67R,0.13385826771653545X0.082677165354330714*%
%ADD68C,0.10236220472440946*%
%ADD69R,0.068897637795275593X0.068897637795275593*%
%ADD70O,0.082677165354330714X0.082677165354330714*%
%ADD71C,0.005905511811023622*%
%ADD72C,0.094488188976377951*%
%ADD73C,0.0610236220472441*%
%ADD74C,0.01968503937007874*%
%ADD75R,0.062992125984251982X0.11511811023622047*%
%ADD76R,0.041338582677165357X0.063779527559055124*%
%ADD77R,0.13385826771653545X0.082677165354330714*%
%ADD78C,0.10236220472440946*%
%ADD79R,0.068897637795275593X0.068897637795275593*%
%ADD80O,0.082677165354330714X0.082677165354330714*%
%ADD81C,0.005905511811023622*%
%ADD82C,0.094488188976377951*%
%ADD83C,0.0610236220472441*%
%ADD84C,0.01968503937007874*%
%ADD85R,0.062992125984251982X0.11511811023622047*%
%ADD86R,0.041338582677165357X0.063779527559055124*%
%ADD87R,0.13385826771653545X0.082677165354330714*%
%ADD88C,0.10236220472440946*%
%ADD89R,0.068897637795275593X0.068897637795275593*%
%ADD90O,0.082677165354330714X0.082677165354330714*%
%ADD91C,0.005905511811023622*%
%ADD92C,0.094488188976377951*%
%ADD93C,0.0610236220472441*%
%ADD94C,0.01968503937007874*%
%ADD95R,0.062992125984251982X0.11511811023622047*%
%ADD96R,0.041338582677165357X0.063779527559055124*%
%ADD97R,0.13385826771653545X0.082677165354330714*%
%ADD98C,0.10236220472440946*%
%ADD99R,0.068897637795275593X0.068897637795275593*%
D10*
X-0006692913Y0004921259D02*
X0000051181Y0000248818D03*
X0000051181Y0000348818D03*
X0000051181Y0000448818D03*
D11*
G36*
X0000574187Y0000389676D02*
G01*
X0000575948Y0000389415D01*
X0000577675Y0000388982D01*
X0000579352Y0000388382D01*
X0000580961Y0000387621D01*
X0000582488Y0000386706D01*
X0000583918Y0000385645D01*
X0000585237Y0000384450D01*
X0000586433Y0000383130D01*
X0000587493Y0000381701D01*
X0000588409Y0000380173D01*
X0000589170Y0000378564D01*
X0000589769Y0000376888D01*
X0000590202Y0000375161D01*
X0000590463Y0000373400D01*
X0000590551Y0000371622D01*
X0000590551Y0000313417D01*
X0000590463Y0000311639D01*
X0000590202Y0000309878D01*
X0000589769Y0000308151D01*
X0000589170Y0000306474D01*
X0000588409Y0000304865D01*
X0000587493Y0000303338D01*
X0000586433Y0000301908D01*
X0000585237Y0000300589D01*
X0000583918Y0000299393D01*
X0000582488Y0000298332D01*
X0000580961Y0000297417D01*
X0000579352Y0000296656D01*
X0000577675Y0000296056D01*
X0000575948Y0000295624D01*
X0000574187Y0000295362D01*
X0000572409Y0000295275D01*
X0000459086Y0000295275D01*
X0000457308Y0000295362D01*
X0000455547Y0000295624D01*
X0000453820Y0000296056D01*
X0000452144Y0000296656D01*
X0000450534Y0000297417D01*
X0000449007Y0000298332D01*
X0000447577Y0000299393D01*
X0000446258Y0000300589D01*
X0000445062Y0000301908D01*
X0000444002Y0000303338D01*
X0000443087Y0000304865D01*
X0000442325Y0000306474D01*
X0000441726Y0000308151D01*
X0000441293Y0000309878D01*
X0000441032Y0000311639D01*
X0000440944Y0000313417D01*
X0000440944Y0000371622D01*
X0000441032Y0000373400D01*
X0000441293Y0000375161D01*
X0000441726Y0000376888D01*
X0000442325Y0000378564D01*
X0000443087Y0000380173D01*
X0000444002Y0000381701D01*
X0000445062Y0000383130D01*
X0000446258Y0000384450D01*
X0000447577Y0000385645D01*
X0000449007Y0000386706D01*
X0000450534Y0000387621D01*
X0000452144Y0000388382D01*
X0000453820Y0000388982D01*
X0000455547Y0000389415D01*
X0000457308Y0000389676D01*
X0000459086Y0000389763D01*
X0000572409Y0000389763D01*
X0000574187Y0000389676D01*
X0000574187Y0000389676D01*
G37*
D12*
X0000515747Y0000342519D03*
D11*
G36*
X0000574187Y0000204637D02*
G01*
X0000575948Y0000204375D01*
X0000577675Y0000203943D01*
X0000579352Y0000203343D01*
X0000580961Y0000202582D01*
X0000582488Y0000201666D01*
X0000583918Y0000200606D01*
X0000585237Y0000199410D01*
X0000586433Y0000198091D01*
X0000587493Y0000196661D01*
X0000588409Y0000195134D01*
X0000589170Y0000193525D01*
X0000589769Y0000191848D01*
X0000590202Y0000190121D01*
X0000590463Y0000188360D01*
X0000590551Y0000186582D01*
X0000590551Y0000128377D01*
X0000590463Y0000126599D01*
X0000590202Y0000124838D01*
X0000589769Y0000123111D01*
X0000589170Y0000121435D01*
X0000588409Y0000119825D01*
X0000587493Y0000118298D01*
X0000586433Y0000116868D01*
X0000585237Y0000115549D01*
X0000583918Y0000114354D01*
X0000582488Y0000113293D01*
X0000580961Y0000112378D01*
X0000579352Y0000111617D01*
X0000577675Y0000111017D01*
X0000575948Y0000110584D01*
X0000574187Y0000110323D01*
X0000572409Y0000110236D01*
X0000459086Y0000110236D01*
X0000457308Y0000110323D01*
X0000455547Y0000110584D01*
X0000453820Y0000111017D01*
X0000452144Y0000111617D01*
X0000450534Y0000112378D01*
X0000449007Y0000113293D01*
X0000447577Y0000114354D01*
X0000446258Y0000115549D01*
X0000445062Y0000116868D01*
X0000444002Y0000118298D01*
X0000443087Y0000119825D01*
X0000442325Y0000121435D01*
X0000441726Y0000123111D01*
X0000441293Y0000124838D01*
X0000441032Y0000126599D01*
X0000440944Y0000128377D01*
X0000440944Y0000186582D01*
X0000441032Y0000188360D01*
X0000441293Y0000190121D01*
X0000441726Y0000191848D01*
X0000442325Y0000193525D01*
X0000443087Y0000195134D01*
X0000444002Y0000196661D01*
X0000445062Y0000198091D01*
X0000446258Y0000199410D01*
X0000447577Y0000200606D01*
X0000449007Y0000201666D01*
X0000450534Y0000202582D01*
X0000452144Y0000203343D01*
X0000453820Y0000203943D01*
X0000455547Y0000204375D01*
X0000457308Y0000204637D01*
X0000459086Y0000204724D01*
X0000572409Y0000204724D01*
X0000574187Y0000204637D01*
X0000574187Y0000204637D01*
G37*
D12*
X0000515747Y0000157480D03*
D11*
G36*
X0000306931Y0000153479D02*
G01*
X0000308219Y0000153288D01*
X0000309482Y0000152972D01*
X0000310708Y0000152533D01*
X0000311885Y0000151976D01*
X0000313001Y0000151307D01*
X0000314047Y0000150532D01*
X0000315012Y0000149657D01*
X0000315886Y0000148693D01*
X0000316661Y0000147647D01*
X0000317331Y0000146530D01*
X0000317887Y0000145353D01*
X0000318326Y0000144128D01*
X0000318642Y0000142865D01*
X0000318833Y0000141577D01*
X0000318897Y0000140277D01*
X0000318897Y0000095943D01*
X0000318833Y0000094642D01*
X0000318642Y0000093355D01*
X0000318326Y0000092092D01*
X0000317887Y0000090866D01*
X0000317331Y0000089689D01*
X0000316661Y0000088572D01*
X0000315886Y0000087527D01*
X0000315012Y0000086562D01*
X0000314047Y0000085688D01*
X0000313001Y0000084912D01*
X0000311885Y0000084243D01*
X0000310708Y0000083686D01*
X0000309482Y0000083248D01*
X0000308219Y0000082932D01*
X0000306931Y0000082741D01*
X0000305631Y0000082677D01*
X0000271139Y0000082677D01*
X0000269839Y0000082741D01*
X0000268551Y0000082932D01*
X0000267289Y0000083248D01*
X0000266063Y0000083686D01*
X0000264886Y0000084243D01*
X0000263769Y0000084912D01*
X0000262724Y0000085688D01*
X0000261759Y0000086562D01*
X0000260885Y0000087527D01*
X0000260109Y0000088572D01*
X0000259440Y0000089689D01*
X0000258883Y0000090866D01*
X0000258445Y0000092092D01*
X0000258128Y0000093355D01*
X0000257937Y0000094642D01*
X0000257874Y0000095943D01*
X0000257874Y0000140277D01*
X0000257937Y0000141577D01*
X0000258128Y0000142865D01*
X0000258445Y0000144128D01*
X0000258883Y0000145353D01*
X0000259440Y0000146530D01*
X0000260109Y0000147647D01*
X0000260885Y0000148693D01*
X0000261759Y0000149657D01*
X0000262724Y0000150532D01*
X0000263769Y0000151307D01*
X0000264886Y0000151976D01*
X0000266063Y0000152533D01*
X0000267289Y0000152972D01*
X0000268551Y0000153288D01*
X0000269839Y0000153479D01*
X0000271139Y0000153543D01*
X0000305631Y0000153543D01*
X0000306931Y0000153479D01*
X0000306931Y0000153479D01*
G37*
D13*
X0000288385Y0000118110D03*
D11*
G36*
X0000387640Y0000153479D02*
G01*
X0000388928Y0000153288D01*
X0000390191Y0000152972D01*
X0000391416Y0000152533D01*
X0000392593Y0000151976D01*
X0000393710Y0000151307D01*
X0000394756Y0000150532D01*
X0000395720Y0000149657D01*
X0000396595Y0000148693D01*
X0000397370Y0000147647D01*
X0000398039Y0000146530D01*
X0000398596Y0000145353D01*
X0000399035Y0000144128D01*
X0000399351Y0000142865D01*
X0000399542Y0000141577D01*
X0000399606Y0000140277D01*
X0000399606Y0000095943D01*
X0000399542Y0000094642D01*
X0000399351Y0000093355D01*
X0000399035Y0000092092D01*
X0000398596Y0000090866D01*
X0000398039Y0000089689D01*
X0000397370Y0000088572D01*
X0000396595Y0000087527D01*
X0000395720Y0000086562D01*
X0000394756Y0000085688D01*
X0000393710Y0000084912D01*
X0000392593Y0000084243D01*
X0000391416Y0000083686D01*
X0000390191Y0000083248D01*
X0000388928Y0000082932D01*
X0000387640Y0000082741D01*
X0000386340Y0000082677D01*
X0000351848Y0000082677D01*
X0000350548Y0000082741D01*
X0000349260Y0000082932D01*
X0000347997Y0000083248D01*
X0000346771Y0000083686D01*
X0000345595Y0000084243D01*
X0000344478Y0000084912D01*
X0000343432Y0000085688D01*
X0000342468Y0000086562D01*
X0000341593Y0000087527D01*
X0000340818Y0000088572D01*
X0000340149Y0000089689D01*
X0000339592Y0000090866D01*
X0000339153Y0000092092D01*
X0000338837Y0000093355D01*
X0000338646Y0000094642D01*
X0000338582Y0000095943D01*
X0000338582Y0000140277D01*
X0000338646Y0000141577D01*
X0000338837Y0000142865D01*
X0000339153Y0000144128D01*
X0000339592Y0000145353D01*
X0000340149Y0000146530D01*
X0000340818Y0000147647D01*
X0000341593Y0000148693D01*
X0000342468Y0000149657D01*
X0000343432Y0000150532D01*
X0000344478Y0000151307D01*
X0000345595Y0000151976D01*
X0000346771Y0000152533D01*
X0000347997Y0000152972D01*
X0000349260Y0000153288D01*
X0000350548Y0000153479D01*
X0000351848Y0000153543D01*
X0000386340Y0000153543D01*
X0000387640Y0000153479D01*
X0000387640Y0000153479D01*
G37*
D13*
X0000369094Y0000118110D03*
D11*
G36*
X0000273467Y0000421195D02*
G01*
X0000274755Y0000421004D01*
X0000276017Y0000420688D01*
X0000277243Y0000420250D01*
X0000278420Y0000419693D01*
X0000279537Y0000419024D01*
X0000280582Y0000418248D01*
X0000281547Y0000417374D01*
X0000282421Y0000416409D01*
X0000283197Y0000415364D01*
X0000283866Y0000414247D01*
X0000284423Y0000413070D01*
X0000284861Y0000411844D01*
X0000285178Y0000410581D01*
X0000285369Y0000409294D01*
X0000285433Y0000407993D01*
X0000285433Y0000363659D01*
X0000285369Y0000362359D01*
X0000285178Y0000361071D01*
X0000284861Y0000359808D01*
X0000284423Y0000358582D01*
X0000283866Y0000357406D01*
X0000283197Y0000356289D01*
X0000282421Y0000355243D01*
X0000281547Y0000354279D01*
X0000280582Y0000353404D01*
X0000279537Y0000352629D01*
X0000278420Y0000351960D01*
X0000277243Y0000351403D01*
X0000276017Y0000350964D01*
X0000274755Y0000350648D01*
X0000273467Y0000350457D01*
X0000272167Y0000350393D01*
X0000237675Y0000350393D01*
X0000236375Y0000350457D01*
X0000235087Y0000350648D01*
X0000233824Y0000350964D01*
X0000232598Y0000351403D01*
X0000231421Y0000351960D01*
X0000230305Y0000352629D01*
X0000229259Y0000353404D01*
X0000228294Y0000354279D01*
X0000227420Y0000355243D01*
X0000226645Y0000356289D01*
X0000225975Y0000357406D01*
X0000225419Y0000358582D01*
X0000224980Y0000359808D01*
X0000224664Y0000361071D01*
X0000224473Y0000362359D01*
X0000224409Y0000363659D01*
X0000224409Y0000407993D01*
X0000224473Y0000409294D01*
X0000224664Y0000410581D01*
X0000224980Y0000411844D01*
X0000225419Y0000413070D01*
X0000225975Y0000414247D01*
X0000226645Y0000415364D01*
X0000227420Y0000416409D01*
X0000228294Y0000417374D01*
X0000229259Y0000418248D01*
X0000230305Y0000419024D01*
X0000231421Y0000419693D01*
X0000232598Y0000420250D01*
X0000233824Y0000420688D01*
X0000235087Y0000421004D01*
X0000236375Y0000421195D01*
X0000237675Y0000421259D01*
X0000272167Y0000421259D01*
X0000273467Y0000421195D01*
X0000273467Y0000421195D01*
G37*
D13*
X0000254921Y0000385826D03*
D11*
G36*
X0000354176Y0000421195D02*
G01*
X0000355463Y0000421004D01*
X0000356726Y0000420688D01*
X0000357952Y0000420250D01*
X0000359129Y0000419693D01*
X0000360245Y0000419024D01*
X0000361291Y0000418248D01*
X0000362256Y0000417374D01*
X0000363130Y0000416409D01*
X0000363905Y0000415364D01*
X0000364575Y0000414247D01*
X0000365131Y0000413070D01*
X0000365570Y0000411844D01*
X0000365886Y0000410581D01*
X0000366077Y0000409294D01*
X0000366141Y0000407993D01*
X0000366141Y0000363659D01*
X0000366077Y0000362359D01*
X0000365886Y0000361071D01*
X0000365570Y0000359808D01*
X0000365131Y0000358582D01*
X0000364575Y0000357406D01*
X0000363905Y0000356289D01*
X0000363130Y0000355243D01*
X0000362256Y0000354279D01*
X0000361291Y0000353404D01*
X0000360245Y0000352629D01*
X0000359129Y0000351960D01*
X0000357952Y0000351403D01*
X0000356726Y0000350964D01*
X0000355463Y0000350648D01*
X0000354176Y0000350457D01*
X0000352875Y0000350393D01*
X0000318384Y0000350393D01*
X0000317083Y0000350457D01*
X0000315796Y0000350648D01*
X0000314533Y0000350964D01*
X0000313307Y0000351403D01*
X0000312130Y0000351960D01*
X0000311013Y0000352629D01*
X0000309968Y0000353404D01*
X0000309003Y0000354279D01*
X0000308129Y0000355243D01*
X0000307353Y0000356289D01*
X0000306684Y0000357406D01*
X0000306127Y0000358582D01*
X0000305689Y0000359808D01*
X0000305372Y0000361071D01*
X0000305181Y0000362359D01*
X0000305118Y0000363659D01*
X0000305118Y0000407993D01*
X0000305181Y0000409294D01*
X0000305372Y0000410581D01*
X0000305689Y0000411844D01*
X0000306127Y0000413070D01*
X0000306684Y0000414247D01*
X0000307353Y0000415364D01*
X0000308129Y0000416409D01*
X0000309003Y0000417374D01*
X0000309968Y0000418248D01*
X0000311013Y0000419024D01*
X0000312130Y0000419693D01*
X0000313307Y0000420250D01*
X0000314533Y0000420688D01*
X0000315796Y0000421004D01*
X0000317083Y0000421195D01*
X0000318384Y0000421259D01*
X0000352875Y0000421259D01*
X0000354176Y0000421195D01*
X0000354176Y0000421195D01*
G37*
D13*
X0000335629Y0000385826D03*
D11*
G36*
X0000670120Y0000627888D02*
G01*
X0000671408Y0000627697D01*
X0000672671Y0000627381D01*
X0000673897Y0000626942D01*
X0000675074Y0000626386D01*
X0000676190Y0000625717D01*
X0000677236Y0000624941D01*
X0000678201Y0000624067D01*
X0000679075Y0000623102D01*
X0000679850Y0000622056D01*
X0000680520Y0000620940D01*
X0000681076Y0000619763D01*
X0000681515Y0000618537D01*
X0000681831Y0000617274D01*
X0000682022Y0000615987D01*
X0000682086Y0000614686D01*
X0000682086Y0000570352D01*
X0000682022Y0000569052D01*
X0000681831Y0000567764D01*
X0000681515Y0000566501D01*
X0000681076Y0000565275D01*
X0000680520Y0000564099D01*
X0000679850Y0000562982D01*
X0000679075Y0000561936D01*
X0000678201Y0000560972D01*
X0000677236Y0000560097D01*
X0000676190Y0000559322D01*
X0000675074Y0000558652D01*
X0000673897Y0000558096D01*
X0000672671Y0000557657D01*
X0000671408Y0000557341D01*
X0000670120Y0000557150D01*
X0000668820Y0000557086D01*
X0000634328Y0000557086D01*
X0000633028Y0000557150D01*
X0000631740Y0000557341D01*
X0000630478Y0000557657D01*
X0000629252Y0000558096D01*
X0000628075Y0000558652D01*
X0000626958Y0000559322D01*
X0000625913Y0000560097D01*
X0000624948Y0000560972D01*
X0000624074Y0000561936D01*
X0000623298Y0000562982D01*
X0000622629Y0000564099D01*
X0000622072Y0000565275D01*
X0000621634Y0000566501D01*
X0000621317Y0000567764D01*
X0000621126Y0000569052D01*
X0000621062Y0000570352D01*
X0000621062Y0000614686D01*
X0000621126Y0000615987D01*
X0000621317Y0000617274D01*
X0000621634Y0000618537D01*
X0000622072Y0000619763D01*
X0000622629Y0000620940D01*
X0000623298Y0000622056D01*
X0000624074Y0000623102D01*
X0000624948Y0000624067D01*
X0000625913Y0000624941D01*
X0000626958Y0000625717D01*
X0000628075Y0000626386D01*
X0000629252Y0000626942D01*
X0000630478Y0000627381D01*
X0000631740Y0000627697D01*
X0000633028Y0000627888D01*
X0000634328Y0000627952D01*
X0000668820Y0000627952D01*
X0000670120Y0000627888D01*
X0000670120Y0000627888D01*
G37*
D13*
X0000651574Y0000592519D03*
D11*
G36*
X0000750829Y0000627888D02*
G01*
X0000752117Y0000627697D01*
X0000753380Y0000627381D01*
X0000754605Y0000626942D01*
X0000755782Y0000626386D01*
X0000756899Y0000625717D01*
X0000757945Y0000624941D01*
X0000758909Y0000624067D01*
X0000759784Y0000623102D01*
X0000760559Y0000622056D01*
X0000761228Y0000620940D01*
X0000761785Y0000619763D01*
X0000762224Y0000618537D01*
X0000762540Y0000617274D01*
X0000762731Y0000615987D01*
X0000762795Y0000614686D01*
X0000762795Y0000570352D01*
X0000762731Y0000569052D01*
X0000762540Y0000567764D01*
X0000762224Y0000566501D01*
X0000761785Y0000565275D01*
X0000761228Y0000564099D01*
X0000760559Y0000562982D01*
X0000759784Y0000561936D01*
X0000758909Y0000560972D01*
X0000757945Y0000560097D01*
X0000756899Y0000559322D01*
X0000755782Y0000558652D01*
X0000754605Y0000558096D01*
X0000753380Y0000557657D01*
X0000752117Y0000557341D01*
X0000750829Y0000557150D01*
X0000749529Y0000557086D01*
X0000715037Y0000557086D01*
X0000713737Y0000557150D01*
X0000712449Y0000557341D01*
X0000711186Y0000557657D01*
X0000709960Y0000558096D01*
X0000708784Y0000558652D01*
X0000707667Y0000559322D01*
X0000706621Y0000560097D01*
X0000705657Y0000560972D01*
X0000704782Y0000561936D01*
X0000704007Y0000562982D01*
X0000703338Y0000564099D01*
X0000702781Y0000565275D01*
X0000702342Y0000566501D01*
X0000702026Y0000567764D01*
X0000701835Y0000569052D01*
X0000701771Y0000570352D01*
X0000701771Y0000614686D01*
X0000701835Y0000615987D01*
X0000702026Y0000617274D01*
X0000702342Y0000618537D01*
X0000702781Y0000619763D01*
X0000703338Y0000620940D01*
X0000704007Y0000622056D01*
X0000704782Y0000623102D01*
X0000705657Y0000624067D01*
X0000706621Y0000624941D01*
X0000707667Y0000625717D01*
X0000708784Y0000626386D01*
X0000709960Y0000626942D01*
X0000711186Y0000627381D01*
X0000712449Y0000627697D01*
X0000713737Y0000627888D01*
X0000715037Y0000627952D01*
X0000749529Y0000627952D01*
X0000750829Y0000627888D01*
X0000750829Y0000627888D01*
G37*
D13*
X0000732283Y0000592519D03*
D14*
X0000529527Y0000486220D03*
D11*
G36*
X0000529286Y0000448842D02*
G01*
X0000528561Y0000448842D01*
X0000527789Y0000448880D01*
X0000525867Y0000449069D01*
X0000525103Y0000449183D01*
X0000523208Y0000449560D01*
X0000522458Y0000449747D01*
X0000520610Y0000450308D01*
X0000519882Y0000450568D01*
X0000518097Y0000451308D01*
X0000517399Y0000451638D01*
X0000515695Y0000452549D01*
X0000515032Y0000452946D01*
X0000513426Y0000454019D01*
X0000512805Y0000454480D01*
X0000511312Y0000455705D01*
X0000510740Y0000456224D01*
X0000509374Y0000457590D01*
X0000508855Y0000458163D01*
X0000507629Y0000459656D01*
X0000507169Y0000460277D01*
X0000506096Y0000461883D01*
X0000505698Y0000462545D01*
X0000504788Y0000464249D01*
X0000504457Y0000464948D01*
X0000503718Y0000466733D01*
X0000503458Y0000467460D01*
X0000502897Y0000469309D01*
X0000502709Y0000470058D01*
X0000502332Y0000471953D01*
X0000502219Y0000472717D01*
X0000502030Y0000474640D01*
X0000501992Y0000475412D01*
X0000501992Y0000476137D01*
X0000501968Y0000476377D01*
X0000501968Y0000496062D01*
X0000501992Y0000496303D01*
X0000501992Y0000497028D01*
X0000502030Y0000497800D01*
X0000502219Y0000499723D01*
X0000502332Y0000500487D01*
X0000502709Y0000502382D01*
X0000502897Y0000503131D01*
X0000503458Y0000504980D01*
X0000503718Y0000505707D01*
X0000504457Y0000507492D01*
X0000504788Y0000508191D01*
X0000505698Y0000509895D01*
X0000506096Y0000510557D01*
X0000507169Y0000512163D01*
X0000507629Y0000512784D01*
X0000508855Y0000514277D01*
X0000509374Y0000514850D01*
X0000510740Y0000516216D01*
X0000511312Y0000516735D01*
X0000512805Y0000517960D01*
X0000513426Y0000518421D01*
X0000515032Y0000519494D01*
X0000515695Y0000519891D01*
X0000517399Y0000520802D01*
X0000518097Y0000521132D01*
X0000519882Y0000521872D01*
X0000520610Y0000522132D01*
X0000522458Y0000522693D01*
X0000523208Y0000522880D01*
X0000525103Y0000523257D01*
X0000525867Y0000523371D01*
X0000527789Y0000523560D01*
X0000528561Y0000523598D01*
X0000529286Y0000523598D01*
X0000529527Y0000523622D01*
X0000549212Y0000523622D01*
X0000550748Y0000523470D01*
X0000552225Y0000523022D01*
X0000553587Y0000522295D01*
X0000554780Y0000521315D01*
X0000555759Y0000520122D01*
X0000556487Y0000518761D01*
X0000556935Y0000517284D01*
X0000557086Y0000515747D01*
X0000557086Y0000456692D01*
X0000556935Y0000455156D01*
X0000556487Y0000453679D01*
X0000555759Y0000452318D01*
X0000554780Y0000451125D01*
X0000553587Y0000450145D01*
X0000552225Y0000449418D01*
X0000550748Y0000448970D01*
X0000549212Y0000448818D01*
X0000529527Y0000448818D01*
X0000529286Y0000448842D01*
X0000529286Y0000448842D01*
G37*
D14*
X0000580708Y0000486220D03*
D11*
G36*
X0000559487Y0000448970D02*
G01*
X0000558010Y0000449418D01*
X0000556649Y0000450145D01*
X0000555455Y0000451125D01*
X0000554476Y0000452318D01*
X0000553748Y0000453679D01*
X0000553300Y0000455156D01*
X0000553149Y0000456692D01*
X0000553149Y0000515747D01*
X0000553300Y0000517284D01*
X0000553748Y0000518761D01*
X0000554476Y0000520122D01*
X0000555455Y0000521315D01*
X0000556649Y0000522295D01*
X0000558010Y0000523022D01*
X0000559487Y0000523470D01*
X0000561023Y0000523622D01*
X0000580708Y0000523622D01*
X0000580949Y0000523598D01*
X0000581674Y0000523598D01*
X0000582446Y0000523560D01*
X0000584368Y0000523371D01*
X0000585133Y0000523257D01*
X0000587027Y0000522880D01*
X0000587777Y0000522693D01*
X0000589626Y0000522132D01*
X0000590353Y0000521872D01*
X0000592138Y0000521132D01*
X0000592837Y0000520802D01*
X0000594540Y0000519891D01*
X0000595203Y0000519494D01*
X0000596809Y0000518421D01*
X0000597430Y0000517960D01*
X0000598923Y0000516735D01*
X0000599496Y0000516216D01*
X0000600862Y0000514850D01*
X0000601380Y0000514277D01*
X0000602606Y0000512784D01*
X0000603066Y0000512163D01*
X0000604140Y0000510557D01*
X0000604537Y0000509895D01*
X0000605447Y0000508191D01*
X0000605778Y0000507492D01*
X0000606517Y0000505707D01*
X0000606777Y0000504980D01*
X0000607338Y0000503131D01*
X0000607526Y0000502382D01*
X0000607903Y0000500487D01*
X0000608016Y0000499723D01*
X0000608206Y0000497800D01*
X0000608244Y0000497028D01*
X0000608244Y0000496303D01*
X0000608267Y0000496062D01*
X0000608267Y0000476377D01*
X0000608244Y0000476137D01*
X0000608244Y0000475412D01*
X0000608206Y0000474640D01*
X0000608016Y0000472717D01*
X0000607903Y0000471953D01*
X0000607526Y0000470058D01*
X0000607338Y0000469309D01*
X0000606777Y0000467460D01*
X0000606517Y0000466733D01*
X0000605778Y0000464948D01*
X0000605447Y0000464249D01*
X0000604537Y0000462545D01*
X0000604140Y0000461883D01*
X0000603066Y0000460277D01*
X0000602606Y0000459656D01*
X0000601380Y0000458163D01*
X0000600862Y0000457590D01*
X0000599496Y0000456224D01*
X0000598923Y0000455705D01*
X0000597430Y0000454480D01*
X0000596809Y0000454019D01*
X0000595203Y0000452946D01*
X0000594540Y0000452549D01*
X0000592837Y0000451638D01*
X0000592138Y0000451308D01*
X0000590353Y0000450568D01*
X0000589626Y0000450308D01*
X0000587777Y0000449747D01*
X0000587027Y0000449560D01*
X0000585133Y0000449183D01*
X0000584368Y0000449069D01*
X0000582446Y0000448880D01*
X0000581674Y0000448842D01*
X0000580949Y0000448842D01*
X0000580708Y0000448818D01*
X0000561023Y0000448818D01*
X0000559487Y0000448970D01*
X0000559487Y0000448970D01*
G37*
D10*
X0000734586Y0000248759D03*
X0000734586Y0000348759D03*
X0000734586Y0000448759D03*
D15*
X0000732677Y0000697559D03*
X0000653937Y0000697559D03*
X0000575196Y0000697559D03*
X0000496456Y0000697559D03*
X0000417716Y0000697559D03*
X0000338976Y0000697559D03*
X0000260236Y0000697559D03*
X0000181496Y0000697559D03*
X0000417716Y0001445590D03*
X0000496456Y0001445590D03*
X0000338976Y0001445590D03*
D16*
X0000368110Y0000305511D03*
X0000293307Y0000305511D03*
X0000293307Y0000202362D03*
X0000330708Y0000202362D03*
X0000368110Y0000202362D03*
D17*
X0000055531Y0001006259D03*
X0000055531Y0001206259D03*
X0000055531Y0001406259D03*
X0000054586Y0001106259D03*
X0000054586Y0001306259D03*
D18*
X0000712086Y0001506259D03*
X0000077086Y0000071259D03*
D19*
X0000072086Y0001518759D03*
G04 next file*
G04 #@! TF.GenerationSoftware,KiCad,Pcbnew,(5.1.2)-2*
G04 #@! TF.CreationDate,2019-11-25T21:39:26+01:00*
G04 #@! TF.ProjectId,HM-LC-SW1-BA-PCB_mini_MAX1724,484d2d4c-432d-4535-9731-2d42412d5043,rev?*
G04 #@! TF.SameCoordinates,Original*
G04 #@! TF.FileFunction,Soldermask,Bot*
G04 #@! TF.FilePolarity,Negative*
G04 Gerber Fmt 4.6, Leading zero omitted, Abs format (unit mm)*
G04 Created by KiCad (PCBNEW (5.1.2)-2) date 2019-11-25 21:39:26*
G04 APERTURE LIST*
G04 APERTURE END LIST*
D30*
X-0005748031Y0004921259D02*
X0000996062Y0000248818D03*
X0000996062Y0000348818D03*
X0000996062Y0000448818D03*
D31*
G36*
X0001519069Y0000389676D02*
G01*
X0001520830Y0000389415D01*
X0001522557Y0000388982D01*
X0001524233Y0000388382D01*
X0001525843Y0000387621D01*
X0001527370Y0000386706D01*
X0001528800Y0000385645D01*
X0001530119Y0000384450D01*
X0001531315Y0000383130D01*
X0001532375Y0000381701D01*
X0001533290Y0000380173D01*
X0001534052Y0000378564D01*
X0001534651Y0000376888D01*
X0001535084Y0000375161D01*
X0001535345Y0000373400D01*
X0001535433Y0000371622D01*
X0001535433Y0000313417D01*
X0001535345Y0000311639D01*
X0001535084Y0000309878D01*
X0001534651Y0000308151D01*
X0001534052Y0000306474D01*
X0001533290Y0000304865D01*
X0001532375Y0000303338D01*
X0001531315Y0000301908D01*
X0001530119Y0000300589D01*
X0001528800Y0000299393D01*
X0001527370Y0000298332D01*
X0001525843Y0000297417D01*
X0001524233Y0000296656D01*
X0001522557Y0000296056D01*
X0001520830Y0000295624D01*
X0001519069Y0000295362D01*
X0001517291Y0000295275D01*
X0001403968Y0000295275D01*
X0001402190Y0000295362D01*
X0001400429Y0000295624D01*
X0001398702Y0000296056D01*
X0001397025Y0000296656D01*
X0001395416Y0000297417D01*
X0001393889Y0000298332D01*
X0001392459Y0000299393D01*
X0001391140Y0000300589D01*
X0001389944Y0000301908D01*
X0001388884Y0000303338D01*
X0001387968Y0000304865D01*
X0001387207Y0000306474D01*
X0001386607Y0000308151D01*
X0001386175Y0000309878D01*
X0001385914Y0000311639D01*
X0001385826Y0000313417D01*
X0001385826Y0000371622D01*
X0001385914Y0000373400D01*
X0001386175Y0000375161D01*
X0001386607Y0000376888D01*
X0001387207Y0000378564D01*
X0001387968Y0000380173D01*
X0001388884Y0000381701D01*
X0001389944Y0000383130D01*
X0001391140Y0000384450D01*
X0001392459Y0000385645D01*
X0001393889Y0000386706D01*
X0001395416Y0000387621D01*
X0001397025Y0000388382D01*
X0001398702Y0000388982D01*
X0001400429Y0000389415D01*
X0001402190Y0000389676D01*
X0001403968Y0000389763D01*
X0001517291Y0000389763D01*
X0001519069Y0000389676D01*
X0001519069Y0000389676D01*
G37*
D32*
X0001460629Y0000342519D03*
D31*
G36*
X0001519069Y0000204637D02*
G01*
X0001520830Y0000204375D01*
X0001522557Y0000203943D01*
X0001524233Y0000203343D01*
X0001525843Y0000202582D01*
X0001527370Y0000201666D01*
X0001528800Y0000200606D01*
X0001530119Y0000199410D01*
X0001531315Y0000198091D01*
X0001532375Y0000196661D01*
X0001533290Y0000195134D01*
X0001534052Y0000193525D01*
X0001534651Y0000191848D01*
X0001535084Y0000190121D01*
X0001535345Y0000188360D01*
X0001535433Y0000186582D01*
X0001535433Y0000128377D01*
X0001535345Y0000126599D01*
X0001535084Y0000124838D01*
X0001534651Y0000123111D01*
X0001534052Y0000121435D01*
X0001533290Y0000119825D01*
X0001532375Y0000118298D01*
X0001531315Y0000116868D01*
X0001530119Y0000115549D01*
X0001528800Y0000114354D01*
X0001527370Y0000113293D01*
X0001525843Y0000112378D01*
X0001524233Y0000111617D01*
X0001522557Y0000111017D01*
X0001520830Y0000110584D01*
X0001519069Y0000110323D01*
X0001517291Y0000110236D01*
X0001403968Y0000110236D01*
X0001402190Y0000110323D01*
X0001400429Y0000110584D01*
X0001398702Y0000111017D01*
X0001397025Y0000111617D01*
X0001395416Y0000112378D01*
X0001393889Y0000113293D01*
X0001392459Y0000114354D01*
X0001391140Y0000115549D01*
X0001389944Y0000116868D01*
X0001388884Y0000118298D01*
X0001387968Y0000119825D01*
X0001387207Y0000121435D01*
X0001386607Y0000123111D01*
X0001386175Y0000124838D01*
X0001385914Y0000126599D01*
X0001385826Y0000128377D01*
X0001385826Y0000186582D01*
X0001385914Y0000188360D01*
X0001386175Y0000190121D01*
X0001386607Y0000191848D01*
X0001387207Y0000193525D01*
X0001387968Y0000195134D01*
X0001388884Y0000196661D01*
X0001389944Y0000198091D01*
X0001391140Y0000199410D01*
X0001392459Y0000200606D01*
X0001393889Y0000201666D01*
X0001395416Y0000202582D01*
X0001397025Y0000203343D01*
X0001398702Y0000203943D01*
X0001400429Y0000204375D01*
X0001402190Y0000204637D01*
X0001403968Y0000204724D01*
X0001517291Y0000204724D01*
X0001519069Y0000204637D01*
X0001519069Y0000204637D01*
G37*
D32*
X0001460629Y0000157480D03*
D31*
G36*
X0001251813Y0000153479D02*
G01*
X0001253101Y0000153288D01*
X0001254364Y0000152972D01*
X0001255590Y0000152533D01*
X0001256767Y0000151976D01*
X0001257883Y0000151307D01*
X0001258929Y0000150532D01*
X0001259893Y0000149657D01*
X0001260768Y0000148693D01*
X0001261543Y0000147647D01*
X0001262213Y0000146530D01*
X0001262769Y0000145353D01*
X0001263208Y0000144128D01*
X0001263524Y0000142865D01*
X0001263715Y0000141577D01*
X0001263779Y0000140277D01*
X0001263779Y0000095943D01*
X0001263715Y0000094642D01*
X0001263524Y0000093355D01*
X0001263208Y0000092092D01*
X0001262769Y0000090866D01*
X0001262213Y0000089689D01*
X0001261543Y0000088572D01*
X0001260768Y0000087527D01*
X0001259893Y0000086562D01*
X0001258929Y0000085688D01*
X0001257883Y0000084912D01*
X0001256767Y0000084243D01*
X0001255590Y0000083686D01*
X0001254364Y0000083248D01*
X0001253101Y0000082932D01*
X0001251813Y0000082741D01*
X0001250513Y0000082677D01*
X0001216021Y0000082677D01*
X0001214721Y0000082741D01*
X0001213433Y0000082932D01*
X0001212170Y0000083248D01*
X0001210945Y0000083686D01*
X0001209768Y0000084243D01*
X0001208651Y0000084912D01*
X0001207605Y0000085688D01*
X0001206641Y0000086562D01*
X0001205767Y0000087527D01*
X0001204991Y0000088572D01*
X0001204322Y0000089689D01*
X0001203765Y0000090866D01*
X0001203327Y0000092092D01*
X0001203010Y0000093355D01*
X0001202819Y0000094642D01*
X0001202755Y0000095943D01*
X0001202755Y0000140277D01*
X0001202819Y0000141577D01*
X0001203010Y0000142865D01*
X0001203327Y0000144128D01*
X0001203765Y0000145353D01*
X0001204322Y0000146530D01*
X0001204991Y0000147647D01*
X0001205767Y0000148693D01*
X0001206641Y0000149657D01*
X0001207605Y0000150532D01*
X0001208651Y0000151307D01*
X0001209768Y0000151976D01*
X0001210945Y0000152533D01*
X0001212170Y0000152972D01*
X0001213433Y0000153288D01*
X0001214721Y0000153479D01*
X0001216021Y0000153543D01*
X0001250513Y0000153543D01*
X0001251813Y0000153479D01*
X0001251813Y0000153479D01*
G37*
D33*
X0001233267Y0000118110D03*
D31*
G36*
X0001332522Y0000153479D02*
G01*
X0001333810Y0000153288D01*
X0001335073Y0000152972D01*
X0001336298Y0000152533D01*
X0001337475Y0000151976D01*
X0001338592Y0000151307D01*
X0001339638Y0000150532D01*
X0001340602Y0000149657D01*
X0001341476Y0000148693D01*
X0001342252Y0000147647D01*
X0001342921Y0000146530D01*
X0001343478Y0000145353D01*
X0001343916Y0000144128D01*
X0001344233Y0000142865D01*
X0001344424Y0000141577D01*
X0001344488Y0000140277D01*
X0001344488Y0000095943D01*
X0001344424Y0000094642D01*
X0001344233Y0000093355D01*
X0001343916Y0000092092D01*
X0001343478Y0000090866D01*
X0001342921Y0000089689D01*
X0001342252Y0000088572D01*
X0001341476Y0000087527D01*
X0001340602Y0000086562D01*
X0001339638Y0000085688D01*
X0001338592Y0000084912D01*
X0001337475Y0000084243D01*
X0001336298Y0000083686D01*
X0001335073Y0000083248D01*
X0001333810Y0000082932D01*
X0001332522Y0000082741D01*
X0001331222Y0000082677D01*
X0001296730Y0000082677D01*
X0001295430Y0000082741D01*
X0001294142Y0000082932D01*
X0001292879Y0000083248D01*
X0001291653Y0000083686D01*
X0001290477Y0000084243D01*
X0001289360Y0000084912D01*
X0001288314Y0000085688D01*
X0001287350Y0000086562D01*
X0001286475Y0000087527D01*
X0001285700Y0000088572D01*
X0001285030Y0000089689D01*
X0001284474Y0000090866D01*
X0001284035Y0000092092D01*
X0001283719Y0000093355D01*
X0001283528Y0000094642D01*
X0001283464Y0000095943D01*
X0001283464Y0000140277D01*
X0001283528Y0000141577D01*
X0001283719Y0000142865D01*
X0001284035Y0000144128D01*
X0001284474Y0000145353D01*
X0001285030Y0000146530D01*
X0001285700Y0000147647D01*
X0001286475Y0000148693D01*
X0001287350Y0000149657D01*
X0001288314Y0000150532D01*
X0001289360Y0000151307D01*
X0001290477Y0000151976D01*
X0001291653Y0000152533D01*
X0001292879Y0000152972D01*
X0001294142Y0000153288D01*
X0001295430Y0000153479D01*
X0001296730Y0000153543D01*
X0001331222Y0000153543D01*
X0001332522Y0000153479D01*
X0001332522Y0000153479D01*
G37*
D33*
X0001313976Y0000118110D03*
D31*
G36*
X0001218349Y0000421195D02*
G01*
X0001219637Y0000421004D01*
X0001220899Y0000420688D01*
X0001222125Y0000420250D01*
X0001223302Y0000419693D01*
X0001224419Y0000419024D01*
X0001225464Y0000418248D01*
X0001226429Y0000417374D01*
X0001227303Y0000416409D01*
X0001228079Y0000415364D01*
X0001228748Y0000414247D01*
X0001229305Y0000413070D01*
X0001229743Y0000411844D01*
X0001230060Y0000410581D01*
X0001230251Y0000409294D01*
X0001230314Y0000407993D01*
X0001230314Y0000363659D01*
X0001230251Y0000362359D01*
X0001230060Y0000361071D01*
X0001229743Y0000359808D01*
X0001229305Y0000358582D01*
X0001228748Y0000357406D01*
X0001228079Y0000356289D01*
X0001227303Y0000355243D01*
X0001226429Y0000354279D01*
X0001225464Y0000353404D01*
X0001224419Y0000352629D01*
X0001223302Y0000351960D01*
X0001222125Y0000351403D01*
X0001220899Y0000350964D01*
X0001219637Y0000350648D01*
X0001218349Y0000350457D01*
X0001217048Y0000350393D01*
X0001182557Y0000350393D01*
X0001181257Y0000350457D01*
X0001179969Y0000350648D01*
X0001178706Y0000350964D01*
X0001177480Y0000351403D01*
X0001176303Y0000351960D01*
X0001175187Y0000352629D01*
X0001174141Y0000353404D01*
X0001173176Y0000354279D01*
X0001172302Y0000355243D01*
X0001171527Y0000356289D01*
X0001170857Y0000357406D01*
X0001170301Y0000358582D01*
X0001169862Y0000359808D01*
X0001169546Y0000361071D01*
X0001169355Y0000362359D01*
X0001169291Y0000363659D01*
X0001169291Y0000407993D01*
X0001169355Y0000409294D01*
X0001169546Y0000410581D01*
X0001169862Y0000411844D01*
X0001170301Y0000413070D01*
X0001170857Y0000414247D01*
X0001171527Y0000415364D01*
X0001172302Y0000416409D01*
X0001173176Y0000417374D01*
X0001174141Y0000418248D01*
X0001175187Y0000419024D01*
X0001176303Y0000419693D01*
X0001177480Y0000420250D01*
X0001178706Y0000420688D01*
X0001179969Y0000421004D01*
X0001181257Y0000421195D01*
X0001182557Y0000421259D01*
X0001217048Y0000421259D01*
X0001218349Y0000421195D01*
X0001218349Y0000421195D01*
G37*
D33*
X0001199803Y0000385826D03*
D31*
G36*
X0001299057Y0000421195D02*
G01*
X0001300345Y0000421004D01*
X0001301608Y0000420688D01*
X0001302834Y0000420250D01*
X0001304011Y0000419693D01*
X0001305127Y0000419024D01*
X0001306173Y0000418248D01*
X0001307138Y0000417374D01*
X0001308012Y0000416409D01*
X0001308787Y0000415364D01*
X0001309457Y0000414247D01*
X0001310013Y0000413070D01*
X0001310452Y0000411844D01*
X0001310768Y0000410581D01*
X0001310959Y0000409294D01*
X0001311023Y0000407993D01*
X0001311023Y0000363659D01*
X0001310959Y0000362359D01*
X0001310768Y0000361071D01*
X0001310452Y0000359808D01*
X0001310013Y0000358582D01*
X0001309457Y0000357406D01*
X0001308787Y0000356289D01*
X0001308012Y0000355243D01*
X0001307138Y0000354279D01*
X0001306173Y0000353404D01*
X0001305127Y0000352629D01*
X0001304011Y0000351960D01*
X0001302834Y0000351403D01*
X0001301608Y0000350964D01*
X0001300345Y0000350648D01*
X0001299057Y0000350457D01*
X0001297757Y0000350393D01*
X0001263265Y0000350393D01*
X0001261965Y0000350457D01*
X0001260677Y0000350648D01*
X0001259415Y0000350964D01*
X0001258189Y0000351403D01*
X0001257012Y0000351960D01*
X0001255895Y0000352629D01*
X0001254850Y0000353404D01*
X0001253885Y0000354279D01*
X0001253011Y0000355243D01*
X0001252235Y0000356289D01*
X0001251566Y0000357406D01*
X0001251009Y0000358582D01*
X0001250571Y0000359808D01*
X0001250254Y0000361071D01*
X0001250063Y0000362359D01*
X0001250000Y0000363659D01*
X0001250000Y0000407993D01*
X0001250063Y0000409294D01*
X0001250254Y0000410581D01*
X0001250571Y0000411844D01*
X0001251009Y0000413070D01*
X0001251566Y0000414247D01*
X0001252235Y0000415364D01*
X0001253011Y0000416409D01*
X0001253885Y0000417374D01*
X0001254850Y0000418248D01*
X0001255895Y0000419024D01*
X0001257012Y0000419693D01*
X0001258189Y0000420250D01*
X0001259415Y0000420688D01*
X0001260677Y0000421004D01*
X0001261965Y0000421195D01*
X0001263265Y0000421259D01*
X0001297757Y0000421259D01*
X0001299057Y0000421195D01*
X0001299057Y0000421195D01*
G37*
D33*
X0001280511Y0000385826D03*
D31*
G36*
X0001615002Y0000627888D02*
G01*
X0001616290Y0000627697D01*
X0001617553Y0000627381D01*
X0001618779Y0000626942D01*
X0001619956Y0000626386D01*
X0001621072Y0000625717D01*
X0001622118Y0000624941D01*
X0001623082Y0000624067D01*
X0001623957Y0000623102D01*
X0001624732Y0000622056D01*
X0001625402Y0000620940D01*
X0001625958Y0000619763D01*
X0001626397Y0000618537D01*
X0001626713Y0000617274D01*
X0001626904Y0000615987D01*
X0001626968Y0000614686D01*
X0001626968Y0000570352D01*
X0001626904Y0000569052D01*
X0001626713Y0000567764D01*
X0001626397Y0000566501D01*
X0001625958Y0000565275D01*
X0001625402Y0000564099D01*
X0001624732Y0000562982D01*
X0001623957Y0000561936D01*
X0001623082Y0000560972D01*
X0001622118Y0000560097D01*
X0001621072Y0000559322D01*
X0001619956Y0000558652D01*
X0001618779Y0000558096D01*
X0001617553Y0000557657D01*
X0001616290Y0000557341D01*
X0001615002Y0000557150D01*
X0001613702Y0000557086D01*
X0001579210Y0000557086D01*
X0001577910Y0000557150D01*
X0001576622Y0000557341D01*
X0001575359Y0000557657D01*
X0001574134Y0000558096D01*
X0001572957Y0000558652D01*
X0001571840Y0000559322D01*
X0001570794Y0000560097D01*
X0001569830Y0000560972D01*
X0001568956Y0000561936D01*
X0001568180Y0000562982D01*
X0001567511Y0000564099D01*
X0001566954Y0000565275D01*
X0001566516Y0000566501D01*
X0001566199Y0000567764D01*
X0001566008Y0000569052D01*
X0001565944Y0000570352D01*
X0001565944Y0000614686D01*
X0001566008Y0000615987D01*
X0001566199Y0000617274D01*
X0001566516Y0000618537D01*
X0001566954Y0000619763D01*
X0001567511Y0000620940D01*
X0001568180Y0000622056D01*
X0001568956Y0000623102D01*
X0001569830Y0000624067D01*
X0001570794Y0000624941D01*
X0001571840Y0000625717D01*
X0001572957Y0000626386D01*
X0001574134Y0000626942D01*
X0001575359Y0000627381D01*
X0001576622Y0000627697D01*
X0001577910Y0000627888D01*
X0001579210Y0000627952D01*
X0001613702Y0000627952D01*
X0001615002Y0000627888D01*
X0001615002Y0000627888D01*
G37*
D33*
X0001596456Y0000592519D03*
D31*
G36*
X0001695711Y0000627888D02*
G01*
X0001696999Y0000627697D01*
X0001698262Y0000627381D01*
X0001699487Y0000626942D01*
X0001700664Y0000626386D01*
X0001701781Y0000625717D01*
X0001702827Y0000624941D01*
X0001703791Y0000624067D01*
X0001704665Y0000623102D01*
X0001705441Y0000622056D01*
X0001706110Y0000620940D01*
X0001706667Y0000619763D01*
X0001707105Y0000618537D01*
X0001707422Y0000617274D01*
X0001707613Y0000615987D01*
X0001707677Y0000614686D01*
X0001707677Y0000570352D01*
X0001707613Y0000569052D01*
X0001707422Y0000567764D01*
X0001707105Y0000566501D01*
X0001706667Y0000565275D01*
X0001706110Y0000564099D01*
X0001705441Y0000562982D01*
X0001704665Y0000561936D01*
X0001703791Y0000560972D01*
X0001702827Y0000560097D01*
X0001701781Y0000559322D01*
X0001700664Y0000558652D01*
X0001699487Y0000558096D01*
X0001698262Y0000557657D01*
X0001696999Y0000557341D01*
X0001695711Y0000557150D01*
X0001694411Y0000557086D01*
X0001659919Y0000557086D01*
X0001658619Y0000557150D01*
X0001657331Y0000557341D01*
X0001656068Y0000557657D01*
X0001654842Y0000558096D01*
X0001653665Y0000558652D01*
X0001652549Y0000559322D01*
X0001651503Y0000560097D01*
X0001650539Y0000560972D01*
X0001649664Y0000561936D01*
X0001648889Y0000562982D01*
X0001648219Y0000564099D01*
X0001647663Y0000565275D01*
X0001647224Y0000566501D01*
X0001646908Y0000567764D01*
X0001646717Y0000569052D01*
X0001646653Y0000570352D01*
X0001646653Y0000614686D01*
X0001646717Y0000615987D01*
X0001646908Y0000617274D01*
X0001647224Y0000618537D01*
X0001647663Y0000619763D01*
X0001648219Y0000620940D01*
X0001648889Y0000622056D01*
X0001649664Y0000623102D01*
X0001650539Y0000624067D01*
X0001651503Y0000624941D01*
X0001652549Y0000625717D01*
X0001653665Y0000626386D01*
X0001654842Y0000626942D01*
X0001656068Y0000627381D01*
X0001657331Y0000627697D01*
X0001658619Y0000627888D01*
X0001659919Y0000627952D01*
X0001694411Y0000627952D01*
X0001695711Y0000627888D01*
X0001695711Y0000627888D01*
G37*
D33*
X0001677165Y0000592519D03*
D34*
X0001474409Y0000486220D03*
D31*
G36*
X0001474168Y0000448842D02*
G01*
X0001473443Y0000448842D01*
X0001472671Y0000448880D01*
X0001470749Y0000449069D01*
X0001469984Y0000449183D01*
X0001468090Y0000449560D01*
X0001467340Y0000449747D01*
X0001465492Y0000450308D01*
X0001464764Y0000450568D01*
X0001462979Y0000451308D01*
X0001462281Y0000451638D01*
X0001460577Y0000452549D01*
X0001459914Y0000452946D01*
X0001458308Y0000454019D01*
X0001457687Y0000454480D01*
X0001456194Y0000455705D01*
X0001455622Y0000456224D01*
X0001454256Y0000457590D01*
X0001453737Y0000458163D01*
X0001452511Y0000459656D01*
X0001452051Y0000460277D01*
X0001450977Y0000461883D01*
X0001450580Y0000462545D01*
X0001449670Y0000464249D01*
X0001449339Y0000464948D01*
X0001448600Y0000466733D01*
X0001448340Y0000467460D01*
X0001447779Y0000469309D01*
X0001447591Y0000470058D01*
X0001447214Y0000471953D01*
X0001447101Y0000472717D01*
X0001446912Y0000474640D01*
X0001446874Y0000475412D01*
X0001446874Y0000476137D01*
X0001446850Y0000476377D01*
X0001446850Y0000496062D01*
X0001446874Y0000496303D01*
X0001446874Y0000497028D01*
X0001446912Y0000497800D01*
X0001447101Y0000499723D01*
X0001447214Y0000500487D01*
X0001447591Y0000502382D01*
X0001447779Y0000503131D01*
X0001448340Y0000504980D01*
X0001448600Y0000505707D01*
X0001449339Y0000507492D01*
X0001449670Y0000508191D01*
X0001450580Y0000509895D01*
X0001450977Y0000510557D01*
X0001452051Y0000512163D01*
X0001452511Y0000512784D01*
X0001453737Y0000514277D01*
X0001454256Y0000514850D01*
X0001455622Y0000516216D01*
X0001456194Y0000516735D01*
X0001457687Y0000517960D01*
X0001458308Y0000518421D01*
X0001459914Y0000519494D01*
X0001460577Y0000519891D01*
X0001462281Y0000520802D01*
X0001462979Y0000521132D01*
X0001464764Y0000521872D01*
X0001465492Y0000522132D01*
X0001467340Y0000522693D01*
X0001468090Y0000522880D01*
X0001469984Y0000523257D01*
X0001470749Y0000523371D01*
X0001472671Y0000523560D01*
X0001473443Y0000523598D01*
X0001474168Y0000523598D01*
X0001474409Y0000523622D01*
X0001494094Y0000523622D01*
X0001495630Y0000523470D01*
X0001497107Y0000523022D01*
X0001498469Y0000522295D01*
X0001499662Y0000521315D01*
X0001500641Y0000520122D01*
X0001501369Y0000518761D01*
X0001501817Y0000517284D01*
X0001501968Y0000515747D01*
X0001501968Y0000456692D01*
X0001501817Y0000455156D01*
X0001501369Y0000453679D01*
X0001500641Y0000452318D01*
X0001499662Y0000451125D01*
X0001498469Y0000450145D01*
X0001497107Y0000449418D01*
X0001495630Y0000448970D01*
X0001494094Y0000448818D01*
X0001474409Y0000448818D01*
X0001474168Y0000448842D01*
X0001474168Y0000448842D01*
G37*
D34*
X0001525590Y0000486220D03*
D31*
G36*
X0001504369Y0000448970D02*
G01*
X0001502892Y0000449418D01*
X0001501530Y0000450145D01*
X0001500337Y0000451125D01*
X0001499358Y0000452318D01*
X0001498630Y0000453679D01*
X0001498182Y0000455156D01*
X0001498031Y0000456692D01*
X0001498031Y0000515747D01*
X0001498182Y0000517284D01*
X0001498630Y0000518761D01*
X0001499358Y0000520122D01*
X0001500337Y0000521315D01*
X0001501530Y0000522295D01*
X0001502892Y0000523022D01*
X0001504369Y0000523470D01*
X0001505905Y0000523622D01*
X0001525590Y0000523622D01*
X0001525831Y0000523598D01*
X0001526556Y0000523598D01*
X0001527328Y0000523560D01*
X0001529250Y0000523371D01*
X0001530014Y0000523257D01*
X0001531909Y0000522880D01*
X0001532659Y0000522693D01*
X0001534507Y0000522132D01*
X0001535235Y0000521872D01*
X0001537020Y0000521132D01*
X0001537718Y0000520802D01*
X0001539422Y0000519891D01*
X0001540085Y0000519494D01*
X0001541691Y0000518421D01*
X0001542312Y0000517960D01*
X0001543805Y0000516735D01*
X0001544377Y0000516216D01*
X0001545743Y0000514850D01*
X0001546262Y0000514277D01*
X0001547488Y0000512784D01*
X0001547948Y0000512163D01*
X0001549022Y0000510557D01*
X0001549419Y0000509895D01*
X0001550329Y0000508191D01*
X0001550660Y0000507492D01*
X0001551399Y0000505707D01*
X0001551659Y0000504980D01*
X0001552220Y0000503131D01*
X0001552408Y0000502382D01*
X0001552785Y0000500487D01*
X0001552898Y0000499723D01*
X0001553087Y0000497800D01*
X0001553125Y0000497028D01*
X0001553125Y0000496303D01*
X0001553149Y0000496062D01*
X0001553149Y0000476377D01*
X0001553125Y0000476137D01*
X0001553125Y0000475412D01*
X0001553087Y0000474640D01*
X0001552898Y0000472717D01*
X0001552785Y0000471953D01*
X0001552408Y0000470058D01*
X0001552220Y0000469309D01*
X0001551659Y0000467460D01*
X0001551399Y0000466733D01*
X0001550660Y0000464948D01*
X0001550329Y0000464249D01*
X0001549419Y0000462545D01*
X0001549022Y0000461883D01*
X0001547948Y0000460277D01*
X0001547488Y0000459656D01*
X0001546262Y0000458163D01*
X0001545743Y0000457590D01*
X0001544377Y0000456224D01*
X0001543805Y0000455705D01*
X0001542312Y0000454480D01*
X0001541691Y0000454019D01*
X0001540085Y0000452946D01*
X0001539422Y0000452549D01*
X0001537718Y0000451638D01*
X0001537020Y0000451308D01*
X0001535235Y0000450568D01*
X0001534507Y0000450308D01*
X0001532659Y0000449747D01*
X0001531909Y0000449560D01*
X0001530014Y0000449183D01*
X0001529250Y0000449069D01*
X0001527328Y0000448880D01*
X0001526556Y0000448842D01*
X0001525831Y0000448842D01*
X0001525590Y0000448818D01*
X0001505905Y0000448818D01*
X0001504369Y0000448970D01*
X0001504369Y0000448970D01*
G37*
D30*
X0001679468Y0000248759D03*
X0001679468Y0000348759D03*
X0001679468Y0000448759D03*
D35*
X0001677559Y0000697559D03*
X0001598818Y0000697559D03*
X0001520078Y0000697559D03*
X0001441338Y0000697559D03*
X0001362598Y0000697559D03*
X0001283858Y0000697559D03*
X0001205118Y0000697559D03*
X0001126377Y0000697559D03*
X0001362598Y0001445590D03*
X0001441338Y0001445590D03*
X0001283858Y0001445590D03*
D36*
X0001312992Y0000305511D03*
X0001238188Y0000305511D03*
X0001238188Y0000202362D03*
X0001275590Y0000202362D03*
X0001312992Y0000202362D03*
D37*
X0001000413Y0001006259D03*
X0001000413Y0001206259D03*
X0001000413Y0001406259D03*
X0000999468Y0001106259D03*
X0000999468Y0001306259D03*
D38*
X0001656968Y0001506259D03*
X0001021968Y0000071259D03*
D39*
X0001016968Y0001518759D03*
G04 next file*
G04 #@! TF.GenerationSoftware,KiCad,Pcbnew,(5.1.2)-2*
G04 #@! TF.CreationDate,2019-11-25T21:39:26+01:00*
G04 #@! TF.ProjectId,HM-LC-SW1-BA-PCB_mini_MAX1724,484d2d4c-432d-4535-9731-2d42412d5043,rev?*
G04 #@! TF.SameCoordinates,Original*
G04 #@! TF.FileFunction,Soldermask,Bot*
G04 #@! TF.FilePolarity,Negative*
G04 Gerber Fmt 4.6, Leading zero omitted, Abs format (unit mm)*
G04 Created by KiCad (PCBNEW (5.1.2)-2) date 2019-11-25 21:39:26*
G04 APERTURE LIST*
G04 APERTURE END LIST*
D40*
X-0004803149Y0004921259D02*
X0001940944Y0000248818D03*
X0001940944Y0000348818D03*
X0001940944Y0000448818D03*
D41*
G36*
X0002463951Y0000389676D02*
G01*
X0002465712Y0000389415D01*
X0002467439Y0000388982D01*
X0002469115Y0000388382D01*
X0002470725Y0000387621D01*
X0002472252Y0000386706D01*
X0002473682Y0000385645D01*
X0002475001Y0000384450D01*
X0002476196Y0000383130D01*
X0002477257Y0000381701D01*
X0002478172Y0000380173D01*
X0002478934Y0000378564D01*
X0002479533Y0000376888D01*
X0002479966Y0000375161D01*
X0002480227Y0000373400D01*
X0002480314Y0000371622D01*
X0002480314Y0000313417D01*
X0002480227Y0000311639D01*
X0002479966Y0000309878D01*
X0002479533Y0000308151D01*
X0002478934Y0000306474D01*
X0002478172Y0000304865D01*
X0002477257Y0000303338D01*
X0002476196Y0000301908D01*
X0002475001Y0000300589D01*
X0002473682Y0000299393D01*
X0002472252Y0000298332D01*
X0002470725Y0000297417D01*
X0002469115Y0000296656D01*
X0002467439Y0000296056D01*
X0002465712Y0000295624D01*
X0002463951Y0000295362D01*
X0002462173Y0000295275D01*
X0002348850Y0000295275D01*
X0002347072Y0000295362D01*
X0002345311Y0000295624D01*
X0002343584Y0000296056D01*
X0002341907Y0000296656D01*
X0002340298Y0000297417D01*
X0002338771Y0000298332D01*
X0002337341Y0000299393D01*
X0002336022Y0000300589D01*
X0002334826Y0000301908D01*
X0002333766Y0000303338D01*
X0002332850Y0000304865D01*
X0002332089Y0000306474D01*
X0002331489Y0000308151D01*
X0002331057Y0000309878D01*
X0002330796Y0000311639D01*
X0002330708Y0000313417D01*
X0002330708Y0000371622D01*
X0002330796Y0000373400D01*
X0002331057Y0000375161D01*
X0002331489Y0000376888D01*
X0002332089Y0000378564D01*
X0002332850Y0000380173D01*
X0002333766Y0000381701D01*
X0002334826Y0000383130D01*
X0002336022Y0000384450D01*
X0002337341Y0000385645D01*
X0002338771Y0000386706D01*
X0002340298Y0000387621D01*
X0002341907Y0000388382D01*
X0002343584Y0000388982D01*
X0002345311Y0000389415D01*
X0002347072Y0000389676D01*
X0002348850Y0000389763D01*
X0002462173Y0000389763D01*
X0002463951Y0000389676D01*
X0002463951Y0000389676D01*
G37*
D42*
X0002405511Y0000342519D03*
D41*
G36*
X0002463951Y0000204637D02*
G01*
X0002465712Y0000204375D01*
X0002467439Y0000203943D01*
X0002469115Y0000203343D01*
X0002470725Y0000202582D01*
X0002472252Y0000201666D01*
X0002473682Y0000200606D01*
X0002475001Y0000199410D01*
X0002476196Y0000198091D01*
X0002477257Y0000196661D01*
X0002478172Y0000195134D01*
X0002478934Y0000193525D01*
X0002479533Y0000191848D01*
X0002479966Y0000190121D01*
X0002480227Y0000188360D01*
X0002480314Y0000186582D01*
X0002480314Y0000128377D01*
X0002480227Y0000126599D01*
X0002479966Y0000124838D01*
X0002479533Y0000123111D01*
X0002478934Y0000121435D01*
X0002478172Y0000119825D01*
X0002477257Y0000118298D01*
X0002476196Y0000116868D01*
X0002475001Y0000115549D01*
X0002473682Y0000114354D01*
X0002472252Y0000113293D01*
X0002470725Y0000112378D01*
X0002469115Y0000111617D01*
X0002467439Y0000111017D01*
X0002465712Y0000110584D01*
X0002463951Y0000110323D01*
X0002462173Y0000110236D01*
X0002348850Y0000110236D01*
X0002347072Y0000110323D01*
X0002345311Y0000110584D01*
X0002343584Y0000111017D01*
X0002341907Y0000111617D01*
X0002340298Y0000112378D01*
X0002338771Y0000113293D01*
X0002337341Y0000114354D01*
X0002336022Y0000115549D01*
X0002334826Y0000116868D01*
X0002333766Y0000118298D01*
X0002332850Y0000119825D01*
X0002332089Y0000121435D01*
X0002331489Y0000123111D01*
X0002331057Y0000124838D01*
X0002330796Y0000126599D01*
X0002330708Y0000128377D01*
X0002330708Y0000186582D01*
X0002330796Y0000188360D01*
X0002331057Y0000190121D01*
X0002331489Y0000191848D01*
X0002332089Y0000193525D01*
X0002332850Y0000195134D01*
X0002333766Y0000196661D01*
X0002334826Y0000198091D01*
X0002336022Y0000199410D01*
X0002337341Y0000200606D01*
X0002338771Y0000201666D01*
X0002340298Y0000202582D01*
X0002341907Y0000203343D01*
X0002343584Y0000203943D01*
X0002345311Y0000204375D01*
X0002347072Y0000204637D01*
X0002348850Y0000204724D01*
X0002462173Y0000204724D01*
X0002463951Y0000204637D01*
X0002463951Y0000204637D01*
G37*
D42*
X0002405511Y0000157480D03*
D41*
G36*
X0002196695Y0000153479D02*
G01*
X0002197983Y0000153288D01*
X0002199246Y0000152972D01*
X0002200472Y0000152533D01*
X0002201648Y0000151976D01*
X0002202765Y0000151307D01*
X0002203811Y0000150532D01*
X0002204775Y0000149657D01*
X0002205650Y0000148693D01*
X0002206425Y0000147647D01*
X0002207095Y0000146530D01*
X0002207651Y0000145353D01*
X0002208090Y0000144128D01*
X0002208406Y0000142865D01*
X0002208597Y0000141577D01*
X0002208661Y0000140277D01*
X0002208661Y0000095943D01*
X0002208597Y0000094642D01*
X0002208406Y0000093355D01*
X0002208090Y0000092092D01*
X0002207651Y0000090866D01*
X0002207095Y0000089689D01*
X0002206425Y0000088572D01*
X0002205650Y0000087527D01*
X0002204775Y0000086562D01*
X0002203811Y0000085688D01*
X0002202765Y0000084912D01*
X0002201648Y0000084243D01*
X0002200472Y0000083686D01*
X0002199246Y0000083248D01*
X0002197983Y0000082932D01*
X0002196695Y0000082741D01*
X0002195395Y0000082677D01*
X0002160903Y0000082677D01*
X0002159603Y0000082741D01*
X0002158315Y0000082932D01*
X0002157052Y0000083248D01*
X0002155827Y0000083686D01*
X0002154650Y0000084243D01*
X0002153533Y0000084912D01*
X0002152487Y0000085688D01*
X0002151523Y0000086562D01*
X0002150649Y0000087527D01*
X0002149873Y0000088572D01*
X0002149204Y0000089689D01*
X0002148647Y0000090866D01*
X0002148208Y0000092092D01*
X0002147892Y0000093355D01*
X0002147701Y0000094642D01*
X0002147637Y0000095943D01*
X0002147637Y0000140277D01*
X0002147701Y0000141577D01*
X0002147892Y0000142865D01*
X0002148208Y0000144128D01*
X0002148647Y0000145353D01*
X0002149204Y0000146530D01*
X0002149873Y0000147647D01*
X0002150649Y0000148693D01*
X0002151523Y0000149657D01*
X0002152487Y0000150532D01*
X0002153533Y0000151307D01*
X0002154650Y0000151976D01*
X0002155827Y0000152533D01*
X0002157052Y0000152972D01*
X0002158315Y0000153288D01*
X0002159603Y0000153479D01*
X0002160903Y0000153543D01*
X0002195395Y0000153543D01*
X0002196695Y0000153479D01*
X0002196695Y0000153479D01*
G37*
D43*
X0002178149Y0000118110D03*
D41*
G36*
X0002277404Y0000153479D02*
G01*
X0002278692Y0000153288D01*
X0002279954Y0000152972D01*
X0002281180Y0000152533D01*
X0002282357Y0000151976D01*
X0002283474Y0000151307D01*
X0002284519Y0000150532D01*
X0002285484Y0000149657D01*
X0002286358Y0000148693D01*
X0002287134Y0000147647D01*
X0002287803Y0000146530D01*
X0002288360Y0000145353D01*
X0002288798Y0000144128D01*
X0002289115Y0000142865D01*
X0002289306Y0000141577D01*
X0002289370Y0000140277D01*
X0002289370Y0000095943D01*
X0002289306Y0000094642D01*
X0002289115Y0000093355D01*
X0002288798Y0000092092D01*
X0002288360Y0000090866D01*
X0002287803Y0000089689D01*
X0002287134Y0000088572D01*
X0002286358Y0000087527D01*
X0002285484Y0000086562D01*
X0002284519Y0000085688D01*
X0002283474Y0000084912D01*
X0002282357Y0000084243D01*
X0002281180Y0000083686D01*
X0002279954Y0000083248D01*
X0002278692Y0000082932D01*
X0002277404Y0000082741D01*
X0002276104Y0000082677D01*
X0002241612Y0000082677D01*
X0002240312Y0000082741D01*
X0002239024Y0000082932D01*
X0002237761Y0000083248D01*
X0002236535Y0000083686D01*
X0002235358Y0000084243D01*
X0002234242Y0000084912D01*
X0002233196Y0000085688D01*
X0002232231Y0000086562D01*
X0002231357Y0000087527D01*
X0002230582Y0000088572D01*
X0002229912Y0000089689D01*
X0002229356Y0000090866D01*
X0002228917Y0000092092D01*
X0002228601Y0000093355D01*
X0002228410Y0000094642D01*
X0002228346Y0000095943D01*
X0002228346Y0000140277D01*
X0002228410Y0000141577D01*
X0002228601Y0000142865D01*
X0002228917Y0000144128D01*
X0002229356Y0000145353D01*
X0002229912Y0000146530D01*
X0002230582Y0000147647D01*
X0002231357Y0000148693D01*
X0002232231Y0000149657D01*
X0002233196Y0000150532D01*
X0002234242Y0000151307D01*
X0002235358Y0000151976D01*
X0002236535Y0000152533D01*
X0002237761Y0000152972D01*
X0002239024Y0000153288D01*
X0002240312Y0000153479D01*
X0002241612Y0000153543D01*
X0002276104Y0000153543D01*
X0002277404Y0000153479D01*
X0002277404Y0000153479D01*
G37*
D43*
X0002258858Y0000118110D03*
D41*
G36*
X0002163231Y0000421195D02*
G01*
X0002164518Y0000421004D01*
X0002165781Y0000420688D01*
X0002167007Y0000420250D01*
X0002168184Y0000419693D01*
X0002169301Y0000419024D01*
X0002170346Y0000418248D01*
X0002171311Y0000417374D01*
X0002172185Y0000416409D01*
X0002172961Y0000415364D01*
X0002173630Y0000414247D01*
X0002174187Y0000413070D01*
X0002174625Y0000411844D01*
X0002174941Y0000410581D01*
X0002175132Y0000409294D01*
X0002175196Y0000407993D01*
X0002175196Y0000363659D01*
X0002175132Y0000362359D01*
X0002174941Y0000361071D01*
X0002174625Y0000359808D01*
X0002174187Y0000358582D01*
X0002173630Y0000357406D01*
X0002172961Y0000356289D01*
X0002172185Y0000355243D01*
X0002171311Y0000354279D01*
X0002170346Y0000353404D01*
X0002169301Y0000352629D01*
X0002168184Y0000351960D01*
X0002167007Y0000351403D01*
X0002165781Y0000350964D01*
X0002164518Y0000350648D01*
X0002163231Y0000350457D01*
X0002161930Y0000350393D01*
X0002127439Y0000350393D01*
X0002126138Y0000350457D01*
X0002124851Y0000350648D01*
X0002123588Y0000350964D01*
X0002122362Y0000351403D01*
X0002121185Y0000351960D01*
X0002120068Y0000352629D01*
X0002119023Y0000353404D01*
X0002118058Y0000354279D01*
X0002117184Y0000355243D01*
X0002116408Y0000356289D01*
X0002115739Y0000357406D01*
X0002115183Y0000358582D01*
X0002114744Y0000359808D01*
X0002114428Y0000361071D01*
X0002114237Y0000362359D01*
X0002114173Y0000363659D01*
X0002114173Y0000407993D01*
X0002114237Y0000409294D01*
X0002114428Y0000410581D01*
X0002114744Y0000411844D01*
X0002115183Y0000413070D01*
X0002115739Y0000414247D01*
X0002116408Y0000415364D01*
X0002117184Y0000416409D01*
X0002118058Y0000417374D01*
X0002119023Y0000418248D01*
X0002120068Y0000419024D01*
X0002121185Y0000419693D01*
X0002122362Y0000420250D01*
X0002123588Y0000420688D01*
X0002124851Y0000421004D01*
X0002126138Y0000421195D01*
X0002127439Y0000421259D01*
X0002161930Y0000421259D01*
X0002163231Y0000421195D01*
X0002163231Y0000421195D01*
G37*
D43*
X0002144685Y0000385826D03*
D41*
G36*
X0002243939Y0000421195D02*
G01*
X0002245227Y0000421004D01*
X0002246490Y0000420688D01*
X0002247716Y0000420250D01*
X0002248893Y0000419693D01*
X0002250009Y0000419024D01*
X0002251055Y0000418248D01*
X0002252020Y0000417374D01*
X0002252894Y0000416409D01*
X0002253669Y0000415364D01*
X0002254339Y0000414247D01*
X0002254895Y0000413070D01*
X0002255334Y0000411844D01*
X0002255650Y0000410581D01*
X0002255841Y0000409294D01*
X0002255905Y0000407993D01*
X0002255905Y0000363659D01*
X0002255841Y0000362359D01*
X0002255650Y0000361071D01*
X0002255334Y0000359808D01*
X0002254895Y0000358582D01*
X0002254339Y0000357406D01*
X0002253669Y0000356289D01*
X0002252894Y0000355243D01*
X0002252020Y0000354279D01*
X0002251055Y0000353404D01*
X0002250009Y0000352629D01*
X0002248893Y0000351960D01*
X0002247716Y0000351403D01*
X0002246490Y0000350964D01*
X0002245227Y0000350648D01*
X0002243939Y0000350457D01*
X0002242639Y0000350393D01*
X0002208147Y0000350393D01*
X0002206847Y0000350457D01*
X0002205559Y0000350648D01*
X0002204296Y0000350964D01*
X0002203071Y0000351403D01*
X0002201894Y0000351960D01*
X0002200777Y0000352629D01*
X0002199731Y0000353404D01*
X0002198767Y0000354279D01*
X0002197893Y0000355243D01*
X0002197117Y0000356289D01*
X0002196448Y0000357406D01*
X0002195891Y0000358582D01*
X0002195453Y0000359808D01*
X0002195136Y0000361071D01*
X0002194945Y0000362359D01*
X0002194881Y0000363659D01*
X0002194881Y0000407993D01*
X0002194945Y0000409294D01*
X0002195136Y0000410581D01*
X0002195453Y0000411844D01*
X0002195891Y0000413070D01*
X0002196448Y0000414247D01*
X0002197117Y0000415364D01*
X0002197893Y0000416409D01*
X0002198767Y0000417374D01*
X0002199731Y0000418248D01*
X0002200777Y0000419024D01*
X0002201894Y0000419693D01*
X0002203071Y0000420250D01*
X0002204296Y0000420688D01*
X0002205559Y0000421004D01*
X0002206847Y0000421195D01*
X0002208147Y0000421259D01*
X0002242639Y0000421259D01*
X0002243939Y0000421195D01*
X0002243939Y0000421195D01*
G37*
D43*
X0002225393Y0000385826D03*
D41*
G36*
X0002559884Y0000627888D02*
G01*
X0002561172Y0000627697D01*
X0002562435Y0000627381D01*
X0002563661Y0000626942D01*
X0002564837Y0000626386D01*
X0002565954Y0000625717D01*
X0002567000Y0000624941D01*
X0002567964Y0000624067D01*
X0002568839Y0000623102D01*
X0002569614Y0000622056D01*
X0002570283Y0000620940D01*
X0002570840Y0000619763D01*
X0002571279Y0000618537D01*
X0002571595Y0000617274D01*
X0002571786Y0000615987D01*
X0002571850Y0000614686D01*
X0002571850Y0000570352D01*
X0002571786Y0000569052D01*
X0002571595Y0000567764D01*
X0002571279Y0000566501D01*
X0002570840Y0000565275D01*
X0002570283Y0000564099D01*
X0002569614Y0000562982D01*
X0002568839Y0000561936D01*
X0002567964Y0000560972D01*
X0002567000Y0000560097D01*
X0002565954Y0000559322D01*
X0002564837Y0000558652D01*
X0002563661Y0000558096D01*
X0002562435Y0000557657D01*
X0002561172Y0000557341D01*
X0002559884Y0000557150D01*
X0002558584Y0000557086D01*
X0002524092Y0000557086D01*
X0002522792Y0000557150D01*
X0002521504Y0000557341D01*
X0002520241Y0000557657D01*
X0002519016Y0000558096D01*
X0002517839Y0000558652D01*
X0002516722Y0000559322D01*
X0002515676Y0000560097D01*
X0002514712Y0000560972D01*
X0002513837Y0000561936D01*
X0002513062Y0000562982D01*
X0002512393Y0000564099D01*
X0002511836Y0000565275D01*
X0002511397Y0000566501D01*
X0002511081Y0000567764D01*
X0002510890Y0000569052D01*
X0002510826Y0000570352D01*
X0002510826Y0000614686D01*
X0002510890Y0000615987D01*
X0002511081Y0000617274D01*
X0002511397Y0000618537D01*
X0002511836Y0000619763D01*
X0002512393Y0000620940D01*
X0002513062Y0000622056D01*
X0002513837Y0000623102D01*
X0002514712Y0000624067D01*
X0002515676Y0000624941D01*
X0002516722Y0000625717D01*
X0002517839Y0000626386D01*
X0002519016Y0000626942D01*
X0002520241Y0000627381D01*
X0002521504Y0000627697D01*
X0002522792Y0000627888D01*
X0002524092Y0000627952D01*
X0002558584Y0000627952D01*
X0002559884Y0000627888D01*
X0002559884Y0000627888D01*
G37*
D43*
X0002541338Y0000592519D03*
D41*
G36*
X0002640593Y0000627888D02*
G01*
X0002641881Y0000627697D01*
X0002643143Y0000627381D01*
X0002644369Y0000626942D01*
X0002645546Y0000626386D01*
X0002646663Y0000625717D01*
X0002647708Y0000624941D01*
X0002648673Y0000624067D01*
X0002649547Y0000623102D01*
X0002650323Y0000622056D01*
X0002650992Y0000620940D01*
X0002651549Y0000619763D01*
X0002651987Y0000618537D01*
X0002652304Y0000617274D01*
X0002652495Y0000615987D01*
X0002652559Y0000614686D01*
X0002652559Y0000570352D01*
X0002652495Y0000569052D01*
X0002652304Y0000567764D01*
X0002651987Y0000566501D01*
X0002651549Y0000565275D01*
X0002650992Y0000564099D01*
X0002650323Y0000562982D01*
X0002649547Y0000561936D01*
X0002648673Y0000560972D01*
X0002647708Y0000560097D01*
X0002646663Y0000559322D01*
X0002645546Y0000558652D01*
X0002644369Y0000558096D01*
X0002643143Y0000557657D01*
X0002641881Y0000557341D01*
X0002640593Y0000557150D01*
X0002639293Y0000557086D01*
X0002604801Y0000557086D01*
X0002603501Y0000557150D01*
X0002602213Y0000557341D01*
X0002600950Y0000557657D01*
X0002599724Y0000558096D01*
X0002598547Y0000558652D01*
X0002597431Y0000559322D01*
X0002596385Y0000560097D01*
X0002595420Y0000560972D01*
X0002594546Y0000561936D01*
X0002593771Y0000562982D01*
X0002593101Y0000564099D01*
X0002592545Y0000565275D01*
X0002592106Y0000566501D01*
X0002591790Y0000567764D01*
X0002591599Y0000569052D01*
X0002591535Y0000570352D01*
X0002591535Y0000614686D01*
X0002591599Y0000615987D01*
X0002591790Y0000617274D01*
X0002592106Y0000618537D01*
X0002592545Y0000619763D01*
X0002593101Y0000620940D01*
X0002593771Y0000622056D01*
X0002594546Y0000623102D01*
X0002595420Y0000624067D01*
X0002596385Y0000624941D01*
X0002597431Y0000625717D01*
X0002598547Y0000626386D01*
X0002599724Y0000626942D01*
X0002600950Y0000627381D01*
X0002602213Y0000627697D01*
X0002603501Y0000627888D01*
X0002604801Y0000627952D01*
X0002639293Y0000627952D01*
X0002640593Y0000627888D01*
X0002640593Y0000627888D01*
G37*
D43*
X0002622047Y0000592519D03*
D44*
X0002419291Y0000486220D03*
D41*
G36*
X0002419050Y0000448842D02*
G01*
X0002418325Y0000448842D01*
X0002417553Y0000448880D01*
X0002415631Y0000449069D01*
X0002414866Y0000449183D01*
X0002412972Y0000449560D01*
X0002412222Y0000449747D01*
X0002410373Y0000450308D01*
X0002409646Y0000450568D01*
X0002407861Y0000451308D01*
X0002407162Y0000451638D01*
X0002405459Y0000452549D01*
X0002404796Y0000452946D01*
X0002403190Y0000454019D01*
X0002402569Y0000454480D01*
X0002401076Y0000455705D01*
X0002400503Y0000456224D01*
X0002399137Y0000457590D01*
X0002398619Y0000458163D01*
X0002397393Y0000459656D01*
X0002396933Y0000460277D01*
X0002395859Y0000461883D01*
X0002395462Y0000462545D01*
X0002394552Y0000464249D01*
X0002394221Y0000464948D01*
X0002393482Y0000466733D01*
X0002393222Y0000467460D01*
X0002392661Y0000469309D01*
X0002392473Y0000470058D01*
X0002392096Y0000471953D01*
X0002391983Y0000472717D01*
X0002391793Y0000474640D01*
X0002391755Y0000475412D01*
X0002391755Y0000476137D01*
X0002391732Y0000476377D01*
X0002391732Y0000496062D01*
X0002391755Y0000496303D01*
X0002391755Y0000497028D01*
X0002391793Y0000497800D01*
X0002391983Y0000499723D01*
X0002392096Y0000500487D01*
X0002392473Y0000502382D01*
X0002392661Y0000503131D01*
X0002393222Y0000504980D01*
X0002393482Y0000505707D01*
X0002394221Y0000507492D01*
X0002394552Y0000508191D01*
X0002395462Y0000509895D01*
X0002395859Y0000510557D01*
X0002396933Y0000512163D01*
X0002397393Y0000512784D01*
X0002398619Y0000514277D01*
X0002399137Y0000514850D01*
X0002400503Y0000516216D01*
X0002401076Y0000516735D01*
X0002402569Y0000517960D01*
X0002403190Y0000518421D01*
X0002404796Y0000519494D01*
X0002405459Y0000519891D01*
X0002407162Y0000520802D01*
X0002407861Y0000521132D01*
X0002409646Y0000521872D01*
X0002410373Y0000522132D01*
X0002412222Y0000522693D01*
X0002412972Y0000522880D01*
X0002414866Y0000523257D01*
X0002415631Y0000523371D01*
X0002417553Y0000523560D01*
X0002418325Y0000523598D01*
X0002419050Y0000523598D01*
X0002419291Y0000523622D01*
X0002438976Y0000523622D01*
X0002440512Y0000523470D01*
X0002441989Y0000523022D01*
X0002443350Y0000522295D01*
X0002444544Y0000521315D01*
X0002445523Y0000520122D01*
X0002446250Y0000518761D01*
X0002446699Y0000517284D01*
X0002446850Y0000515747D01*
X0002446850Y0000456692D01*
X0002446699Y0000455156D01*
X0002446250Y0000453679D01*
X0002445523Y0000452318D01*
X0002444544Y0000451125D01*
X0002443350Y0000450145D01*
X0002441989Y0000449418D01*
X0002440512Y0000448970D01*
X0002438976Y0000448818D01*
X0002419291Y0000448818D01*
X0002419050Y0000448842D01*
X0002419050Y0000448842D01*
G37*
D44*
X0002470472Y0000486220D03*
D41*
G36*
X0002449251Y0000448970D02*
G01*
X0002447774Y0000449418D01*
X0002446412Y0000450145D01*
X0002445219Y0000451125D01*
X0002444240Y0000452318D01*
X0002443512Y0000453679D01*
X0002443064Y0000455156D01*
X0002442913Y0000456692D01*
X0002442913Y0000515747D01*
X0002443064Y0000517284D01*
X0002443512Y0000518761D01*
X0002444240Y0000520122D01*
X0002445219Y0000521315D01*
X0002446412Y0000522295D01*
X0002447774Y0000523022D01*
X0002449251Y0000523470D01*
X0002450787Y0000523622D01*
X0002470472Y0000523622D01*
X0002470713Y0000523598D01*
X0002471438Y0000523598D01*
X0002472210Y0000523560D01*
X0002474132Y0000523371D01*
X0002474896Y0000523257D01*
X0002476791Y0000522880D01*
X0002477541Y0000522693D01*
X0002479389Y0000522132D01*
X0002480117Y0000521872D01*
X0002481902Y0000521132D01*
X0002482600Y0000520802D01*
X0002484304Y0000519891D01*
X0002484967Y0000519494D01*
X0002486573Y0000518421D01*
X0002487194Y0000517960D01*
X0002488687Y0000516735D01*
X0002489259Y0000516216D01*
X0002490625Y0000514850D01*
X0002491144Y0000514277D01*
X0002492370Y0000512784D01*
X0002492830Y0000512163D01*
X0002493903Y0000510557D01*
X0002494300Y0000509895D01*
X0002495211Y0000508191D01*
X0002495542Y0000507492D01*
X0002496281Y0000505707D01*
X0002496541Y0000504980D01*
X0002497102Y0000503131D01*
X0002497290Y0000502382D01*
X0002497667Y0000500487D01*
X0002497780Y0000499723D01*
X0002497969Y0000497800D01*
X0002498007Y0000497028D01*
X0002498007Y0000496303D01*
X0002498031Y0000496062D01*
X0002498031Y0000476377D01*
X0002498007Y0000476137D01*
X0002498007Y0000475412D01*
X0002497969Y0000474640D01*
X0002497780Y0000472717D01*
X0002497667Y0000471953D01*
X0002497290Y0000470058D01*
X0002497102Y0000469309D01*
X0002496541Y0000467460D01*
X0002496281Y0000466733D01*
X0002495542Y0000464948D01*
X0002495211Y0000464249D01*
X0002494300Y0000462545D01*
X0002493903Y0000461883D01*
X0002492830Y0000460277D01*
X0002492370Y0000459656D01*
X0002491144Y0000458163D01*
X0002490625Y0000457590D01*
X0002489259Y0000456224D01*
X0002488687Y0000455705D01*
X0002487194Y0000454480D01*
X0002486573Y0000454019D01*
X0002484967Y0000452946D01*
X0002484304Y0000452549D01*
X0002482600Y0000451638D01*
X0002481902Y0000451308D01*
X0002480117Y0000450568D01*
X0002479389Y0000450308D01*
X0002477541Y0000449747D01*
X0002476791Y0000449560D01*
X0002474896Y0000449183D01*
X0002474132Y0000449069D01*
X0002472210Y0000448880D01*
X0002471438Y0000448842D01*
X0002470713Y0000448842D01*
X0002470472Y0000448818D01*
X0002450787Y0000448818D01*
X0002449251Y0000448970D01*
X0002449251Y0000448970D01*
G37*
D40*
X0002624350Y0000248759D03*
X0002624350Y0000348759D03*
X0002624350Y0000448759D03*
D45*
X0002622440Y0000697559D03*
X0002543700Y0000697559D03*
X0002464960Y0000697559D03*
X0002386220Y0000697559D03*
X0002307480Y0000697559D03*
X0002228740Y0000697559D03*
X0002150000Y0000697559D03*
X0002071259Y0000697559D03*
X0002307480Y0001445590D03*
X0002386220Y0001445590D03*
X0002228740Y0001445590D03*
D46*
X0002257873Y0000305511D03*
X0002183070Y0000305511D03*
X0002183070Y0000202362D03*
X0002220472Y0000202362D03*
X0002257873Y0000202362D03*
D47*
X0001945295Y0001006259D03*
X0001945295Y0001206259D03*
X0001945295Y0001406259D03*
X0001944350Y0001106259D03*
X0001944350Y0001306259D03*
D48*
X0002601850Y0001506259D03*
X0001966850Y0000071259D03*
D49*
X0001961850Y0001518759D03*
G04 next file*
G04 #@! TF.GenerationSoftware,KiCad,Pcbnew,(5.1.2)-2*
G04 #@! TF.CreationDate,2019-11-25T21:39:26+01:00*
G04 #@! TF.ProjectId,HM-LC-SW1-BA-PCB_mini_MAX1724,484d2d4c-432d-4535-9731-2d42412d5043,rev?*
G04 #@! TF.SameCoordinates,Original*
G04 #@! TF.FileFunction,Soldermask,Bot*
G04 #@! TF.FilePolarity,Negative*
G04 Gerber Fmt 4.6, Leading zero omitted, Abs format (unit mm)*
G04 Created by KiCad (PCBNEW (5.1.2)-2) date 2019-11-25 21:39:26*
G04 APERTURE LIST*
G04 APERTURE END LIST*
D50*
X-0003858267Y0004921259D02*
X0002885826Y0000248818D03*
X0002885826Y0000348818D03*
X0002885826Y0000448818D03*
D51*
G36*
X0003408833Y0000389676D02*
G01*
X0003410594Y0000389415D01*
X0003412321Y0000388982D01*
X0003413997Y0000388382D01*
X0003415607Y0000387621D01*
X0003417134Y0000386706D01*
X0003418564Y0000385645D01*
X0003419883Y0000384450D01*
X0003421078Y0000383130D01*
X0003422139Y0000381701D01*
X0003423054Y0000380173D01*
X0003423815Y0000378564D01*
X0003424415Y0000376888D01*
X0003424848Y0000375161D01*
X0003425109Y0000373400D01*
X0003425196Y0000371622D01*
X0003425196Y0000313417D01*
X0003425109Y0000311639D01*
X0003424848Y0000309878D01*
X0003424415Y0000308151D01*
X0003423815Y0000306474D01*
X0003423054Y0000304865D01*
X0003422139Y0000303338D01*
X0003421078Y0000301908D01*
X0003419883Y0000300589D01*
X0003418564Y0000299393D01*
X0003417134Y0000298332D01*
X0003415607Y0000297417D01*
X0003413997Y0000296656D01*
X0003412321Y0000296056D01*
X0003410594Y0000295624D01*
X0003408833Y0000295362D01*
X0003407055Y0000295275D01*
X0003293732Y0000295275D01*
X0003291954Y0000295362D01*
X0003290192Y0000295624D01*
X0003288466Y0000296056D01*
X0003286789Y0000296656D01*
X0003285180Y0000297417D01*
X0003283653Y0000298332D01*
X0003282223Y0000299393D01*
X0003280904Y0000300589D01*
X0003279708Y0000301908D01*
X0003278647Y0000303338D01*
X0003277732Y0000304865D01*
X0003276971Y0000306474D01*
X0003276371Y0000308151D01*
X0003275939Y0000309878D01*
X0003275677Y0000311639D01*
X0003275590Y0000313417D01*
X0003275590Y0000371622D01*
X0003275677Y0000373400D01*
X0003275939Y0000375161D01*
X0003276371Y0000376888D01*
X0003276971Y0000378564D01*
X0003277732Y0000380173D01*
X0003278647Y0000381701D01*
X0003279708Y0000383130D01*
X0003280904Y0000384450D01*
X0003282223Y0000385645D01*
X0003283653Y0000386706D01*
X0003285180Y0000387621D01*
X0003286789Y0000388382D01*
X0003288466Y0000388982D01*
X0003290192Y0000389415D01*
X0003291954Y0000389676D01*
X0003293732Y0000389763D01*
X0003407055Y0000389763D01*
X0003408833Y0000389676D01*
X0003408833Y0000389676D01*
G37*
D52*
X0003350393Y0000342519D03*
D51*
G36*
X0003408833Y0000204637D02*
G01*
X0003410594Y0000204375D01*
X0003412321Y0000203943D01*
X0003413997Y0000203343D01*
X0003415607Y0000202582D01*
X0003417134Y0000201666D01*
X0003418564Y0000200606D01*
X0003419883Y0000199410D01*
X0003421078Y0000198091D01*
X0003422139Y0000196661D01*
X0003423054Y0000195134D01*
X0003423815Y0000193525D01*
X0003424415Y0000191848D01*
X0003424848Y0000190121D01*
X0003425109Y0000188360D01*
X0003425196Y0000186582D01*
X0003425196Y0000128377D01*
X0003425109Y0000126599D01*
X0003424848Y0000124838D01*
X0003424415Y0000123111D01*
X0003423815Y0000121435D01*
X0003423054Y0000119825D01*
X0003422139Y0000118298D01*
X0003421078Y0000116868D01*
X0003419883Y0000115549D01*
X0003418564Y0000114354D01*
X0003417134Y0000113293D01*
X0003415607Y0000112378D01*
X0003413997Y0000111617D01*
X0003412321Y0000111017D01*
X0003410594Y0000110584D01*
X0003408833Y0000110323D01*
X0003407055Y0000110236D01*
X0003293732Y0000110236D01*
X0003291954Y0000110323D01*
X0003290192Y0000110584D01*
X0003288466Y0000111017D01*
X0003286789Y0000111617D01*
X0003285180Y0000112378D01*
X0003283653Y0000113293D01*
X0003282223Y0000114354D01*
X0003280904Y0000115549D01*
X0003279708Y0000116868D01*
X0003278647Y0000118298D01*
X0003277732Y0000119825D01*
X0003276971Y0000121435D01*
X0003276371Y0000123111D01*
X0003275939Y0000124838D01*
X0003275677Y0000126599D01*
X0003275590Y0000128377D01*
X0003275590Y0000186582D01*
X0003275677Y0000188360D01*
X0003275939Y0000190121D01*
X0003276371Y0000191848D01*
X0003276971Y0000193525D01*
X0003277732Y0000195134D01*
X0003278647Y0000196661D01*
X0003279708Y0000198091D01*
X0003280904Y0000199410D01*
X0003282223Y0000200606D01*
X0003283653Y0000201666D01*
X0003285180Y0000202582D01*
X0003286789Y0000203343D01*
X0003288466Y0000203943D01*
X0003290192Y0000204375D01*
X0003291954Y0000204637D01*
X0003293732Y0000204724D01*
X0003407055Y0000204724D01*
X0003408833Y0000204637D01*
X0003408833Y0000204637D01*
G37*
D52*
X0003350393Y0000157480D03*
D51*
G36*
X0003141577Y0000153479D02*
G01*
X0003142865Y0000153288D01*
X0003144128Y0000152972D01*
X0003145353Y0000152533D01*
X0003146530Y0000151976D01*
X0003147647Y0000151307D01*
X0003148693Y0000150532D01*
X0003149657Y0000149657D01*
X0003150532Y0000148693D01*
X0003151307Y0000147647D01*
X0003151976Y0000146530D01*
X0003152533Y0000145353D01*
X0003152972Y0000144128D01*
X0003153288Y0000142865D01*
X0003153479Y0000141577D01*
X0003153543Y0000140277D01*
X0003153543Y0000095943D01*
X0003153479Y0000094642D01*
X0003153288Y0000093355D01*
X0003152972Y0000092092D01*
X0003152533Y0000090866D01*
X0003151976Y0000089689D01*
X0003151307Y0000088572D01*
X0003150532Y0000087527D01*
X0003149657Y0000086562D01*
X0003148693Y0000085688D01*
X0003147647Y0000084912D01*
X0003146530Y0000084243D01*
X0003145353Y0000083686D01*
X0003144128Y0000083248D01*
X0003142865Y0000082932D01*
X0003141577Y0000082741D01*
X0003140277Y0000082677D01*
X0003105785Y0000082677D01*
X0003104485Y0000082741D01*
X0003103197Y0000082932D01*
X0003101934Y0000083248D01*
X0003100708Y0000083686D01*
X0003099532Y0000084243D01*
X0003098415Y0000084912D01*
X0003097369Y0000085688D01*
X0003096405Y0000086562D01*
X0003095530Y0000087527D01*
X0003094755Y0000088572D01*
X0003094086Y0000089689D01*
X0003093529Y0000090866D01*
X0003093090Y0000092092D01*
X0003092774Y0000093355D01*
X0003092583Y0000094642D01*
X0003092519Y0000095943D01*
X0003092519Y0000140277D01*
X0003092583Y0000141577D01*
X0003092774Y0000142865D01*
X0003093090Y0000144128D01*
X0003093529Y0000145353D01*
X0003094086Y0000146530D01*
X0003094755Y0000147647D01*
X0003095530Y0000148693D01*
X0003096405Y0000149657D01*
X0003097369Y0000150532D01*
X0003098415Y0000151307D01*
X0003099532Y0000151976D01*
X0003100708Y0000152533D01*
X0003101934Y0000152972D01*
X0003103197Y0000153288D01*
X0003104485Y0000153479D01*
X0003105785Y0000153543D01*
X0003140277Y0000153543D01*
X0003141577Y0000153479D01*
X0003141577Y0000153479D01*
G37*
D53*
X0003123031Y0000118110D03*
D51*
G36*
X0003222286Y0000153479D02*
G01*
X0003223574Y0000153288D01*
X0003224836Y0000152972D01*
X0003226062Y0000152533D01*
X0003227239Y0000151976D01*
X0003228356Y0000151307D01*
X0003229401Y0000150532D01*
X0003230366Y0000149657D01*
X0003231240Y0000148693D01*
X0003232016Y0000147647D01*
X0003232685Y0000146530D01*
X0003233242Y0000145353D01*
X0003233680Y0000144128D01*
X0003233997Y0000142865D01*
X0003234188Y0000141577D01*
X0003234251Y0000140277D01*
X0003234251Y0000095943D01*
X0003234188Y0000094642D01*
X0003233997Y0000093355D01*
X0003233680Y0000092092D01*
X0003233242Y0000090866D01*
X0003232685Y0000089689D01*
X0003232016Y0000088572D01*
X0003231240Y0000087527D01*
X0003230366Y0000086562D01*
X0003229401Y0000085688D01*
X0003228356Y0000084912D01*
X0003227239Y0000084243D01*
X0003226062Y0000083686D01*
X0003224836Y0000083248D01*
X0003223574Y0000082932D01*
X0003222286Y0000082741D01*
X0003220985Y0000082677D01*
X0003186494Y0000082677D01*
X0003185194Y0000082741D01*
X0003183906Y0000082932D01*
X0003182643Y0000083248D01*
X0003181417Y0000083686D01*
X0003180240Y0000084243D01*
X0003179124Y0000084912D01*
X0003178078Y0000085688D01*
X0003177113Y0000086562D01*
X0003176239Y0000087527D01*
X0003175464Y0000088572D01*
X0003174794Y0000089689D01*
X0003174238Y0000090866D01*
X0003173799Y0000092092D01*
X0003173483Y0000093355D01*
X0003173292Y0000094642D01*
X0003173228Y0000095943D01*
X0003173228Y0000140277D01*
X0003173292Y0000141577D01*
X0003173483Y0000142865D01*
X0003173799Y0000144128D01*
X0003174238Y0000145353D01*
X0003174794Y0000146530D01*
X0003175464Y0000147647D01*
X0003176239Y0000148693D01*
X0003177113Y0000149657D01*
X0003178078Y0000150532D01*
X0003179124Y0000151307D01*
X0003180240Y0000151976D01*
X0003181417Y0000152533D01*
X0003182643Y0000152972D01*
X0003183906Y0000153288D01*
X0003185194Y0000153479D01*
X0003186494Y0000153543D01*
X0003220985Y0000153543D01*
X0003222286Y0000153479D01*
X0003222286Y0000153479D01*
G37*
D53*
X0003203740Y0000118110D03*
D51*
G36*
X0003108112Y0000421195D02*
G01*
X0003109400Y0000421004D01*
X0003110663Y0000420688D01*
X0003111889Y0000420250D01*
X0003113066Y0000419693D01*
X0003114182Y0000419024D01*
X0003115228Y0000418248D01*
X0003116193Y0000417374D01*
X0003117067Y0000416409D01*
X0003117842Y0000415364D01*
X0003118512Y0000414247D01*
X0003119068Y0000413070D01*
X0003119507Y0000411844D01*
X0003119823Y0000410581D01*
X0003120014Y0000409294D01*
X0003120078Y0000407993D01*
X0003120078Y0000363659D01*
X0003120014Y0000362359D01*
X0003119823Y0000361071D01*
X0003119507Y0000359808D01*
X0003119068Y0000358582D01*
X0003118512Y0000357406D01*
X0003117842Y0000356289D01*
X0003117067Y0000355243D01*
X0003116193Y0000354279D01*
X0003115228Y0000353404D01*
X0003114182Y0000352629D01*
X0003113066Y0000351960D01*
X0003111889Y0000351403D01*
X0003110663Y0000350964D01*
X0003109400Y0000350648D01*
X0003108112Y0000350457D01*
X0003106812Y0000350393D01*
X0003072321Y0000350393D01*
X0003071020Y0000350457D01*
X0003069732Y0000350648D01*
X0003068470Y0000350964D01*
X0003067244Y0000351403D01*
X0003066067Y0000351960D01*
X0003064950Y0000352629D01*
X0003063905Y0000353404D01*
X0003062940Y0000354279D01*
X0003062066Y0000355243D01*
X0003061290Y0000356289D01*
X0003060621Y0000357406D01*
X0003060064Y0000358582D01*
X0003059626Y0000359808D01*
X0003059310Y0000361071D01*
X0003059119Y0000362359D01*
X0003059055Y0000363659D01*
X0003059055Y0000407993D01*
X0003059119Y0000409294D01*
X0003059310Y0000410581D01*
X0003059626Y0000411844D01*
X0003060064Y0000413070D01*
X0003060621Y0000414247D01*
X0003061290Y0000415364D01*
X0003062066Y0000416409D01*
X0003062940Y0000417374D01*
X0003063905Y0000418248D01*
X0003064950Y0000419024D01*
X0003066067Y0000419693D01*
X0003067244Y0000420250D01*
X0003068470Y0000420688D01*
X0003069732Y0000421004D01*
X0003071020Y0000421195D01*
X0003072321Y0000421259D01*
X0003106812Y0000421259D01*
X0003108112Y0000421195D01*
X0003108112Y0000421195D01*
G37*
D53*
X0003089566Y0000385826D03*
D51*
G36*
X0003188821Y0000421195D02*
G01*
X0003190109Y0000421004D01*
X0003191372Y0000420688D01*
X0003192598Y0000420250D01*
X0003193774Y0000419693D01*
X0003194891Y0000419024D01*
X0003195937Y0000418248D01*
X0003196901Y0000417374D01*
X0003197776Y0000416409D01*
X0003198551Y0000415364D01*
X0003199220Y0000414247D01*
X0003199777Y0000413070D01*
X0003200216Y0000411844D01*
X0003200532Y0000410581D01*
X0003200723Y0000409294D01*
X0003200787Y0000407993D01*
X0003200787Y0000363659D01*
X0003200723Y0000362359D01*
X0003200532Y0000361071D01*
X0003200216Y0000359808D01*
X0003199777Y0000358582D01*
X0003199220Y0000357406D01*
X0003198551Y0000356289D01*
X0003197776Y0000355243D01*
X0003196901Y0000354279D01*
X0003195937Y0000353404D01*
X0003194891Y0000352629D01*
X0003193774Y0000351960D01*
X0003192598Y0000351403D01*
X0003191372Y0000350964D01*
X0003190109Y0000350648D01*
X0003188821Y0000350457D01*
X0003187521Y0000350393D01*
X0003153029Y0000350393D01*
X0003151729Y0000350457D01*
X0003150441Y0000350648D01*
X0003149178Y0000350964D01*
X0003147953Y0000351403D01*
X0003146776Y0000351960D01*
X0003145659Y0000352629D01*
X0003144613Y0000353404D01*
X0003143649Y0000354279D01*
X0003142774Y0000355243D01*
X0003141999Y0000356289D01*
X0003141330Y0000357406D01*
X0003140773Y0000358582D01*
X0003140335Y0000359808D01*
X0003140018Y0000361071D01*
X0003139827Y0000362359D01*
X0003139763Y0000363659D01*
X0003139763Y0000407993D01*
X0003139827Y0000409294D01*
X0003140018Y0000410581D01*
X0003140335Y0000411844D01*
X0003140773Y0000413070D01*
X0003141330Y0000414247D01*
X0003141999Y0000415364D01*
X0003142774Y0000416409D01*
X0003143649Y0000417374D01*
X0003144613Y0000418248D01*
X0003145659Y0000419024D01*
X0003146776Y0000419693D01*
X0003147953Y0000420250D01*
X0003149178Y0000420688D01*
X0003150441Y0000421004D01*
X0003151729Y0000421195D01*
X0003153029Y0000421259D01*
X0003187521Y0000421259D01*
X0003188821Y0000421195D01*
X0003188821Y0000421195D01*
G37*
D53*
X0003170275Y0000385826D03*
D51*
G36*
X0003504766Y0000627888D02*
G01*
X0003506054Y0000627697D01*
X0003507317Y0000627381D01*
X0003508542Y0000626942D01*
X0003509719Y0000626386D01*
X0003510836Y0000625717D01*
X0003511882Y0000624941D01*
X0003512846Y0000624067D01*
X0003513721Y0000623102D01*
X0003514496Y0000622056D01*
X0003515165Y0000620940D01*
X0003515722Y0000619763D01*
X0003516161Y0000618537D01*
X0003516477Y0000617274D01*
X0003516668Y0000615987D01*
X0003516732Y0000614686D01*
X0003516732Y0000570352D01*
X0003516668Y0000569052D01*
X0003516477Y0000567764D01*
X0003516161Y0000566501D01*
X0003515722Y0000565275D01*
X0003515165Y0000564099D01*
X0003514496Y0000562982D01*
X0003513721Y0000561936D01*
X0003512846Y0000560972D01*
X0003511882Y0000560097D01*
X0003510836Y0000559322D01*
X0003509719Y0000558652D01*
X0003508542Y0000558096D01*
X0003507317Y0000557657D01*
X0003506054Y0000557341D01*
X0003504766Y0000557150D01*
X0003503466Y0000557086D01*
X0003468974Y0000557086D01*
X0003467674Y0000557150D01*
X0003466386Y0000557341D01*
X0003465123Y0000557657D01*
X0003463897Y0000558096D01*
X0003462721Y0000558652D01*
X0003461604Y0000559322D01*
X0003460558Y0000560097D01*
X0003459594Y0000560972D01*
X0003458719Y0000561936D01*
X0003457944Y0000562982D01*
X0003457275Y0000564099D01*
X0003456718Y0000565275D01*
X0003456279Y0000566501D01*
X0003455963Y0000567764D01*
X0003455772Y0000569052D01*
X0003455708Y0000570352D01*
X0003455708Y0000614686D01*
X0003455772Y0000615987D01*
X0003455963Y0000617274D01*
X0003456279Y0000618537D01*
X0003456718Y0000619763D01*
X0003457275Y0000620940D01*
X0003457944Y0000622056D01*
X0003458719Y0000623102D01*
X0003459594Y0000624067D01*
X0003460558Y0000624941D01*
X0003461604Y0000625717D01*
X0003462721Y0000626386D01*
X0003463897Y0000626942D01*
X0003465123Y0000627381D01*
X0003466386Y0000627697D01*
X0003467674Y0000627888D01*
X0003468974Y0000627952D01*
X0003503466Y0000627952D01*
X0003504766Y0000627888D01*
X0003504766Y0000627888D01*
G37*
D53*
X0003486220Y0000592519D03*
D51*
G36*
X0003585475Y0000627888D02*
G01*
X0003586763Y0000627697D01*
X0003588025Y0000627381D01*
X0003589251Y0000626942D01*
X0003590428Y0000626386D01*
X0003591545Y0000625717D01*
X0003592590Y0000624941D01*
X0003593555Y0000624067D01*
X0003594429Y0000623102D01*
X0003595205Y0000622056D01*
X0003595874Y0000620940D01*
X0003596431Y0000619763D01*
X0003596869Y0000618537D01*
X0003597186Y0000617274D01*
X0003597377Y0000615987D01*
X0003597440Y0000614686D01*
X0003597440Y0000570352D01*
X0003597377Y0000569052D01*
X0003597186Y0000567764D01*
X0003596869Y0000566501D01*
X0003596431Y0000565275D01*
X0003595874Y0000564099D01*
X0003595205Y0000562982D01*
X0003594429Y0000561936D01*
X0003593555Y0000560972D01*
X0003592590Y0000560097D01*
X0003591545Y0000559322D01*
X0003590428Y0000558652D01*
X0003589251Y0000558096D01*
X0003588025Y0000557657D01*
X0003586763Y0000557341D01*
X0003585475Y0000557150D01*
X0003584174Y0000557086D01*
X0003549683Y0000557086D01*
X0003548383Y0000557150D01*
X0003547095Y0000557341D01*
X0003545832Y0000557657D01*
X0003544606Y0000558096D01*
X0003543429Y0000558652D01*
X0003542313Y0000559322D01*
X0003541267Y0000560097D01*
X0003540302Y0000560972D01*
X0003539428Y0000561936D01*
X0003538653Y0000562982D01*
X0003537983Y0000564099D01*
X0003537427Y0000565275D01*
X0003536988Y0000566501D01*
X0003536672Y0000567764D01*
X0003536481Y0000569052D01*
X0003536417Y0000570352D01*
X0003536417Y0000614686D01*
X0003536481Y0000615987D01*
X0003536672Y0000617274D01*
X0003536988Y0000618537D01*
X0003537427Y0000619763D01*
X0003537983Y0000620940D01*
X0003538653Y0000622056D01*
X0003539428Y0000623102D01*
X0003540302Y0000624067D01*
X0003541267Y0000624941D01*
X0003542313Y0000625717D01*
X0003543429Y0000626386D01*
X0003544606Y0000626942D01*
X0003545832Y0000627381D01*
X0003547095Y0000627697D01*
X0003548383Y0000627888D01*
X0003549683Y0000627952D01*
X0003584174Y0000627952D01*
X0003585475Y0000627888D01*
X0003585475Y0000627888D01*
G37*
D53*
X0003566929Y0000592519D03*
D54*
X0003364173Y0000486220D03*
D51*
G36*
X0003363932Y0000448842D02*
G01*
X0003363207Y0000448842D01*
X0003362435Y0000448880D01*
X0003360512Y0000449069D01*
X0003359748Y0000449183D01*
X0003357854Y0000449560D01*
X0003357104Y0000449747D01*
X0003355255Y0000450308D01*
X0003354528Y0000450568D01*
X0003352743Y0000451308D01*
X0003352044Y0000451638D01*
X0003350341Y0000452549D01*
X0003349678Y0000452946D01*
X0003348072Y0000454019D01*
X0003347451Y0000454480D01*
X0003345958Y0000455705D01*
X0003345385Y0000456224D01*
X0003344019Y0000457590D01*
X0003343500Y0000458163D01*
X0003342275Y0000459656D01*
X0003341814Y0000460277D01*
X0003340741Y0000461883D01*
X0003340344Y0000462545D01*
X0003339433Y0000464249D01*
X0003339103Y0000464948D01*
X0003338364Y0000466733D01*
X0003338103Y0000467460D01*
X0003337543Y0000469309D01*
X0003337355Y0000470058D01*
X0003336978Y0000471953D01*
X0003336865Y0000472717D01*
X0003336675Y0000474640D01*
X0003336637Y0000475412D01*
X0003336637Y0000476137D01*
X0003336614Y0000476377D01*
X0003336614Y0000496062D01*
X0003336637Y0000496303D01*
X0003336637Y0000497028D01*
X0003336675Y0000497800D01*
X0003336865Y0000499723D01*
X0003336978Y0000500487D01*
X0003337355Y0000502382D01*
X0003337543Y0000503131D01*
X0003338103Y0000504980D01*
X0003338364Y0000505707D01*
X0003339103Y0000507492D01*
X0003339433Y0000508191D01*
X0003340344Y0000509895D01*
X0003340741Y0000510557D01*
X0003341814Y0000512163D01*
X0003342275Y0000512784D01*
X0003343500Y0000514277D01*
X0003344019Y0000514850D01*
X0003345385Y0000516216D01*
X0003345958Y0000516735D01*
X0003347451Y0000517960D01*
X0003348072Y0000518421D01*
X0003349678Y0000519494D01*
X0003350341Y0000519891D01*
X0003352044Y0000520802D01*
X0003352743Y0000521132D01*
X0003354528Y0000521872D01*
X0003355255Y0000522132D01*
X0003357104Y0000522693D01*
X0003357854Y0000522880D01*
X0003359748Y0000523257D01*
X0003360512Y0000523371D01*
X0003362435Y0000523560D01*
X0003363207Y0000523598D01*
X0003363932Y0000523598D01*
X0003364173Y0000523622D01*
X0003383858Y0000523622D01*
X0003385394Y0000523470D01*
X0003386871Y0000523022D01*
X0003388232Y0000522295D01*
X0003389426Y0000521315D01*
X0003390405Y0000520122D01*
X0003391132Y0000518761D01*
X0003391580Y0000517284D01*
X0003391732Y0000515747D01*
X0003391732Y0000456692D01*
X0003391580Y0000455156D01*
X0003391132Y0000453679D01*
X0003390405Y0000452318D01*
X0003389426Y0000451125D01*
X0003388232Y0000450145D01*
X0003386871Y0000449418D01*
X0003385394Y0000448970D01*
X0003383858Y0000448818D01*
X0003364173Y0000448818D01*
X0003363932Y0000448842D01*
X0003363932Y0000448842D01*
G37*
D54*
X0003415354Y0000486220D03*
D51*
G36*
X0003394133Y0000448970D02*
G01*
X0003392656Y0000449418D01*
X0003391294Y0000450145D01*
X0003390101Y0000451125D01*
X0003389122Y0000452318D01*
X0003388394Y0000453679D01*
X0003387946Y0000455156D01*
X0003387795Y0000456692D01*
X0003387795Y0000515747D01*
X0003387946Y0000517284D01*
X0003388394Y0000518761D01*
X0003389122Y0000520122D01*
X0003390101Y0000521315D01*
X0003391294Y0000522295D01*
X0003392656Y0000523022D01*
X0003394133Y0000523470D01*
X0003395669Y0000523622D01*
X0003415354Y0000523622D01*
X0003415594Y0000523598D01*
X0003416320Y0000523598D01*
X0003417092Y0000523560D01*
X0003419014Y0000523371D01*
X0003419778Y0000523257D01*
X0003421673Y0000522880D01*
X0003422423Y0000522693D01*
X0003424271Y0000522132D01*
X0003424999Y0000521872D01*
X0003426783Y0000521132D01*
X0003427482Y0000520802D01*
X0003429186Y0000519891D01*
X0003429848Y0000519494D01*
X0003431455Y0000518421D01*
X0003432075Y0000517960D01*
X0003433569Y0000516735D01*
X0003434141Y0000516216D01*
X0003435507Y0000514850D01*
X0003436026Y0000514277D01*
X0003437252Y0000512784D01*
X0003437712Y0000512163D01*
X0003438785Y0000510557D01*
X0003439182Y0000509895D01*
X0003440093Y0000508191D01*
X0003440424Y0000507492D01*
X0003441163Y0000505707D01*
X0003441423Y0000504980D01*
X0003441984Y0000503131D01*
X0003442172Y0000502382D01*
X0003442549Y0000500487D01*
X0003442662Y0000499723D01*
X0003442851Y0000497800D01*
X0003442889Y0000497028D01*
X0003442889Y0000496303D01*
X0003442913Y0000496062D01*
X0003442913Y0000476377D01*
X0003442889Y0000476137D01*
X0003442889Y0000475412D01*
X0003442851Y0000474640D01*
X0003442662Y0000472717D01*
X0003442549Y0000471953D01*
X0003442172Y0000470058D01*
X0003441984Y0000469309D01*
X0003441423Y0000467460D01*
X0003441163Y0000466733D01*
X0003440424Y0000464948D01*
X0003440093Y0000464249D01*
X0003439182Y0000462545D01*
X0003438785Y0000461883D01*
X0003437712Y0000460277D01*
X0003437252Y0000459656D01*
X0003436026Y0000458163D01*
X0003435507Y0000457590D01*
X0003434141Y0000456224D01*
X0003433569Y0000455705D01*
X0003432075Y0000454480D01*
X0003431455Y0000454019D01*
X0003429848Y0000452946D01*
X0003429186Y0000452549D01*
X0003427482Y0000451638D01*
X0003426783Y0000451308D01*
X0003424999Y0000450568D01*
X0003424271Y0000450308D01*
X0003422423Y0000449747D01*
X0003421673Y0000449560D01*
X0003419778Y0000449183D01*
X0003419014Y0000449069D01*
X0003417092Y0000448880D01*
X0003416320Y0000448842D01*
X0003415594Y0000448842D01*
X0003415354Y0000448818D01*
X0003395669Y0000448818D01*
X0003394133Y0000448970D01*
X0003394133Y0000448970D01*
G37*
D50*
X0003569232Y0000248759D03*
X0003569232Y0000348759D03*
X0003569232Y0000448759D03*
D55*
X0003567322Y0000697559D03*
X0003488582Y0000697559D03*
X0003409842Y0000697559D03*
X0003331102Y0000697559D03*
X0003252362Y0000697559D03*
X0003173622Y0000697559D03*
X0003094881Y0000697559D03*
X0003016141Y0000697559D03*
X0003252362Y0001445590D03*
X0003331102Y0001445590D03*
X0003173622Y0001445590D03*
D56*
X0003202755Y0000305511D03*
X0003127952Y0000305511D03*
X0003127952Y0000202362D03*
X0003165354Y0000202362D03*
X0003202755Y0000202362D03*
D57*
X0002890177Y0001006259D03*
X0002890177Y0001206259D03*
X0002890177Y0001406259D03*
X0002889232Y0001106259D03*
X0002889232Y0001306259D03*
D58*
X0003546732Y0001506259D03*
X0002911732Y0000071259D03*
D59*
X0002906732Y0001518759D03*
G04 next file*
G04 #@! TF.GenerationSoftware,KiCad,Pcbnew,(5.1.2)-2*
G04 #@! TF.CreationDate,2019-11-25T21:39:26+01:00*
G04 #@! TF.ProjectId,HM-LC-SW1-BA-PCB_mini_MAX1724,484d2d4c-432d-4535-9731-2d42412d5043,rev?*
G04 #@! TF.SameCoordinates,Original*
G04 #@! TF.FileFunction,Soldermask,Bot*
G04 #@! TF.FilePolarity,Negative*
G04 Gerber Fmt 4.6, Leading zero omitted, Abs format (unit mm)*
G04 Created by KiCad (PCBNEW (5.1.2)-2) date 2019-11-25 21:39:26*
G04 APERTURE LIST*
G04 APERTURE END LIST*
D60*
X-0006692913Y0006653543D02*
X0000051181Y0001981102D03*
X0000051181Y0002081102D03*
X0000051181Y0002181102D03*
D61*
G36*
X0000574187Y0002121959D02*
G01*
X0000575948Y0002121698D01*
X0000577675Y0002121266D01*
X0000579352Y0002120666D01*
X0000580961Y0002119905D01*
X0000582488Y0002118989D01*
X0000583918Y0002117929D01*
X0000585237Y0002116733D01*
X0000586433Y0002115414D01*
X0000587493Y0002113984D01*
X0000588409Y0002112457D01*
X0000589170Y0002110848D01*
X0000589769Y0002109171D01*
X0000590202Y0002107444D01*
X0000590463Y0002105683D01*
X0000590551Y0002103905D01*
X0000590551Y0002045700D01*
X0000590463Y0002043922D01*
X0000590202Y0002042161D01*
X0000589769Y0002040434D01*
X0000589170Y0002038758D01*
X0000588409Y0002037148D01*
X0000587493Y0002035621D01*
X0000586433Y0002034191D01*
X0000585237Y0002032872D01*
X0000583918Y0002031677D01*
X0000582488Y0002030616D01*
X0000580961Y0002029701D01*
X0000579352Y0002028940D01*
X0000577675Y0002028340D01*
X0000575948Y0002027907D01*
X0000574187Y0002027646D01*
X0000572409Y0002027559D01*
X0000459086Y0002027559D01*
X0000457308Y0002027646D01*
X0000455547Y0002027907D01*
X0000453820Y0002028340D01*
X0000452144Y0002028940D01*
X0000450534Y0002029701D01*
X0000449007Y0002030616D01*
X0000447577Y0002031677D01*
X0000446258Y0002032872D01*
X0000445062Y0002034191D01*
X0000444002Y0002035621D01*
X0000443087Y0002037148D01*
X0000442325Y0002038758D01*
X0000441726Y0002040434D01*
X0000441293Y0002042161D01*
X0000441032Y0002043922D01*
X0000440944Y0002045700D01*
X0000440944Y0002103905D01*
X0000441032Y0002105683D01*
X0000441293Y0002107444D01*
X0000441726Y0002109171D01*
X0000442325Y0002110848D01*
X0000443087Y0002112457D01*
X0000444002Y0002113984D01*
X0000445062Y0002115414D01*
X0000446258Y0002116733D01*
X0000447577Y0002117929D01*
X0000449007Y0002118989D01*
X0000450534Y0002119905D01*
X0000452144Y0002120666D01*
X0000453820Y0002121266D01*
X0000455547Y0002121698D01*
X0000457308Y0002121959D01*
X0000459086Y0002122047D01*
X0000572409Y0002122047D01*
X0000574187Y0002121959D01*
X0000574187Y0002121959D01*
G37*
D62*
X0000515747Y0002074803D03*
D61*
G36*
X0000574187Y0001936920D02*
G01*
X0000575948Y0001936659D01*
X0000577675Y0001936226D01*
X0000579352Y0001935626D01*
X0000580961Y0001934865D01*
X0000582488Y0001933950D01*
X0000583918Y0001932889D01*
X0000585237Y0001931694D01*
X0000586433Y0001930375D01*
X0000587493Y0001928945D01*
X0000588409Y0001927418D01*
X0000589170Y0001925808D01*
X0000589769Y0001924132D01*
X0000590202Y0001922405D01*
X0000590463Y0001920644D01*
X0000590551Y0001918866D01*
X0000590551Y0001860661D01*
X0000590463Y0001858883D01*
X0000590202Y0001857122D01*
X0000589769Y0001855395D01*
X0000589170Y0001853718D01*
X0000588409Y0001852109D01*
X0000587493Y0001850582D01*
X0000586433Y0001849152D01*
X0000585237Y0001847833D01*
X0000583918Y0001846637D01*
X0000582488Y0001845577D01*
X0000580961Y0001844661D01*
X0000579352Y0001843900D01*
X0000577675Y0001843300D01*
X0000575948Y0001842868D01*
X0000574187Y0001842607D01*
X0000572409Y0001842519D01*
X0000459086Y0001842519D01*
X0000457308Y0001842607D01*
X0000455547Y0001842868D01*
X0000453820Y0001843300D01*
X0000452144Y0001843900D01*
X0000450534Y0001844661D01*
X0000449007Y0001845577D01*
X0000447577Y0001846637D01*
X0000446258Y0001847833D01*
X0000445062Y0001849152D01*
X0000444002Y0001850582D01*
X0000443087Y0001852109D01*
X0000442325Y0001853718D01*
X0000441726Y0001855395D01*
X0000441293Y0001857122D01*
X0000441032Y0001858883D01*
X0000440944Y0001860661D01*
X0000440944Y0001918866D01*
X0000441032Y0001920644D01*
X0000441293Y0001922405D01*
X0000441726Y0001924132D01*
X0000442325Y0001925808D01*
X0000443087Y0001927418D01*
X0000444002Y0001928945D01*
X0000445062Y0001930375D01*
X0000446258Y0001931694D01*
X0000447577Y0001932889D01*
X0000449007Y0001933950D01*
X0000450534Y0001934865D01*
X0000452144Y0001935626D01*
X0000453820Y0001936226D01*
X0000455547Y0001936659D01*
X0000457308Y0001936920D01*
X0000459086Y0001937007D01*
X0000572409Y0001937007D01*
X0000574187Y0001936920D01*
X0000574187Y0001936920D01*
G37*
D62*
X0000515747Y0001889763D03*
D61*
G36*
X0000306931Y0001885762D02*
G01*
X0000308219Y0001885571D01*
X0000309482Y0001885255D01*
X0000310708Y0001884816D01*
X0000311885Y0001884260D01*
X0000313001Y0001883591D01*
X0000314047Y0001882815D01*
X0000315012Y0001881941D01*
X0000315886Y0001880976D01*
X0000316661Y0001879930D01*
X0000317331Y0001878814D01*
X0000317887Y0001877637D01*
X0000318326Y0001876411D01*
X0000318642Y0001875148D01*
X0000318833Y0001873861D01*
X0000318897Y0001872560D01*
X0000318897Y0001828226D01*
X0000318833Y0001826926D01*
X0000318642Y0001825638D01*
X0000318326Y0001824375D01*
X0000317887Y0001823149D01*
X0000317331Y0001821973D01*
X0000316661Y0001820856D01*
X0000315886Y0001819810D01*
X0000315012Y0001818846D01*
X0000314047Y0001817971D01*
X0000313001Y0001817196D01*
X0000311885Y0001816527D01*
X0000310708Y0001815970D01*
X0000309482Y0001815531D01*
X0000308219Y0001815215D01*
X0000306931Y0001815024D01*
X0000305631Y0001814960D01*
X0000271139Y0001814960D01*
X0000269839Y0001815024D01*
X0000268551Y0001815215D01*
X0000267289Y0001815531D01*
X0000266063Y0001815970D01*
X0000264886Y0001816527D01*
X0000263769Y0001817196D01*
X0000262724Y0001817971D01*
X0000261759Y0001818846D01*
X0000260885Y0001819810D01*
X0000260109Y0001820856D01*
X0000259440Y0001821973D01*
X0000258883Y0001823149D01*
X0000258445Y0001824375D01*
X0000258128Y0001825638D01*
X0000257937Y0001826926D01*
X0000257874Y0001828226D01*
X0000257874Y0001872560D01*
X0000257937Y0001873861D01*
X0000258128Y0001875148D01*
X0000258445Y0001876411D01*
X0000258883Y0001877637D01*
X0000259440Y0001878814D01*
X0000260109Y0001879930D01*
X0000260885Y0001880976D01*
X0000261759Y0001881941D01*
X0000262724Y0001882815D01*
X0000263769Y0001883591D01*
X0000264886Y0001884260D01*
X0000266063Y0001884816D01*
X0000267289Y0001885255D01*
X0000268551Y0001885571D01*
X0000269839Y0001885762D01*
X0000271139Y0001885826D01*
X0000305631Y0001885826D01*
X0000306931Y0001885762D01*
X0000306931Y0001885762D01*
G37*
D63*
X0000288385Y0001850393D03*
D61*
G36*
X0000387640Y0001885762D02*
G01*
X0000388928Y0001885571D01*
X0000390191Y0001885255D01*
X0000391416Y0001884816D01*
X0000392593Y0001884260D01*
X0000393710Y0001883591D01*
X0000394756Y0001882815D01*
X0000395720Y0001881941D01*
X0000396595Y0001880976D01*
X0000397370Y0001879930D01*
X0000398039Y0001878814D01*
X0000398596Y0001877637D01*
X0000399035Y0001876411D01*
X0000399351Y0001875148D01*
X0000399542Y0001873861D01*
X0000399606Y0001872560D01*
X0000399606Y0001828226D01*
X0000399542Y0001826926D01*
X0000399351Y0001825638D01*
X0000399035Y0001824375D01*
X0000398596Y0001823149D01*
X0000398039Y0001821973D01*
X0000397370Y0001820856D01*
X0000396595Y0001819810D01*
X0000395720Y0001818846D01*
X0000394756Y0001817971D01*
X0000393710Y0001817196D01*
X0000392593Y0001816527D01*
X0000391416Y0001815970D01*
X0000390191Y0001815531D01*
X0000388928Y0001815215D01*
X0000387640Y0001815024D01*
X0000386340Y0001814960D01*
X0000351848Y0001814960D01*
X0000350548Y0001815024D01*
X0000349260Y0001815215D01*
X0000347997Y0001815531D01*
X0000346771Y0001815970D01*
X0000345595Y0001816527D01*
X0000344478Y0001817196D01*
X0000343432Y0001817971D01*
X0000342468Y0001818846D01*
X0000341593Y0001819810D01*
X0000340818Y0001820856D01*
X0000340149Y0001821973D01*
X0000339592Y0001823149D01*
X0000339153Y0001824375D01*
X0000338837Y0001825638D01*
X0000338646Y0001826926D01*
X0000338582Y0001828226D01*
X0000338582Y0001872560D01*
X0000338646Y0001873861D01*
X0000338837Y0001875148D01*
X0000339153Y0001876411D01*
X0000339592Y0001877637D01*
X0000340149Y0001878814D01*
X0000340818Y0001879930D01*
X0000341593Y0001880976D01*
X0000342468Y0001881941D01*
X0000343432Y0001882815D01*
X0000344478Y0001883591D01*
X0000345595Y0001884260D01*
X0000346771Y0001884816D01*
X0000347997Y0001885255D01*
X0000349260Y0001885571D01*
X0000350548Y0001885762D01*
X0000351848Y0001885826D01*
X0000386340Y0001885826D01*
X0000387640Y0001885762D01*
X0000387640Y0001885762D01*
G37*
D63*
X0000369094Y0001850393D03*
D61*
G36*
X0000273467Y0002153479D02*
G01*
X0000274755Y0002153288D01*
X0000276017Y0002152972D01*
X0000277243Y0002152533D01*
X0000278420Y0002151976D01*
X0000279537Y0002151307D01*
X0000280582Y0002150532D01*
X0000281547Y0002149657D01*
X0000282421Y0002148693D01*
X0000283197Y0002147647D01*
X0000283866Y0002146530D01*
X0000284423Y0002145353D01*
X0000284861Y0002144128D01*
X0000285178Y0002142865D01*
X0000285369Y0002141577D01*
X0000285433Y0002140277D01*
X0000285433Y0002095943D01*
X0000285369Y0002094642D01*
X0000285178Y0002093355D01*
X0000284861Y0002092092D01*
X0000284423Y0002090866D01*
X0000283866Y0002089689D01*
X0000283197Y0002088572D01*
X0000282421Y0002087527D01*
X0000281547Y0002086562D01*
X0000280582Y0002085688D01*
X0000279537Y0002084912D01*
X0000278420Y0002084243D01*
X0000277243Y0002083686D01*
X0000276017Y0002083248D01*
X0000274755Y0002082932D01*
X0000273467Y0002082741D01*
X0000272167Y0002082677D01*
X0000237675Y0002082677D01*
X0000236375Y0002082741D01*
X0000235087Y0002082932D01*
X0000233824Y0002083248D01*
X0000232598Y0002083686D01*
X0000231421Y0002084243D01*
X0000230305Y0002084912D01*
X0000229259Y0002085688D01*
X0000228294Y0002086562D01*
X0000227420Y0002087527D01*
X0000226645Y0002088572D01*
X0000225975Y0002089689D01*
X0000225419Y0002090866D01*
X0000224980Y0002092092D01*
X0000224664Y0002093355D01*
X0000224473Y0002094642D01*
X0000224409Y0002095943D01*
X0000224409Y0002140277D01*
X0000224473Y0002141577D01*
X0000224664Y0002142865D01*
X0000224980Y0002144128D01*
X0000225419Y0002145353D01*
X0000225975Y0002146530D01*
X0000226645Y0002147647D01*
X0000227420Y0002148693D01*
X0000228294Y0002149657D01*
X0000229259Y0002150532D01*
X0000230305Y0002151307D01*
X0000231421Y0002151976D01*
X0000232598Y0002152533D01*
X0000233824Y0002152972D01*
X0000235087Y0002153288D01*
X0000236375Y0002153479D01*
X0000237675Y0002153543D01*
X0000272167Y0002153543D01*
X0000273467Y0002153479D01*
X0000273467Y0002153479D01*
G37*
D63*
X0000254921Y0002118110D03*
D61*
G36*
X0000354176Y0002153479D02*
G01*
X0000355463Y0002153288D01*
X0000356726Y0002152972D01*
X0000357952Y0002152533D01*
X0000359129Y0002151976D01*
X0000360245Y0002151307D01*
X0000361291Y0002150532D01*
X0000362256Y0002149657D01*
X0000363130Y0002148693D01*
X0000363905Y0002147647D01*
X0000364575Y0002146530D01*
X0000365131Y0002145353D01*
X0000365570Y0002144128D01*
X0000365886Y0002142865D01*
X0000366077Y0002141577D01*
X0000366141Y0002140277D01*
X0000366141Y0002095943D01*
X0000366077Y0002094642D01*
X0000365886Y0002093355D01*
X0000365570Y0002092092D01*
X0000365131Y0002090866D01*
X0000364575Y0002089689D01*
X0000363905Y0002088572D01*
X0000363130Y0002087527D01*
X0000362256Y0002086562D01*
X0000361291Y0002085688D01*
X0000360245Y0002084912D01*
X0000359129Y0002084243D01*
X0000357952Y0002083686D01*
X0000356726Y0002083248D01*
X0000355463Y0002082932D01*
X0000354176Y0002082741D01*
X0000352875Y0002082677D01*
X0000318384Y0002082677D01*
X0000317083Y0002082741D01*
X0000315796Y0002082932D01*
X0000314533Y0002083248D01*
X0000313307Y0002083686D01*
X0000312130Y0002084243D01*
X0000311013Y0002084912D01*
X0000309968Y0002085688D01*
X0000309003Y0002086562D01*
X0000308129Y0002087527D01*
X0000307353Y0002088572D01*
X0000306684Y0002089689D01*
X0000306127Y0002090866D01*
X0000305689Y0002092092D01*
X0000305372Y0002093355D01*
X0000305181Y0002094642D01*
X0000305118Y0002095943D01*
X0000305118Y0002140277D01*
X0000305181Y0002141577D01*
X0000305372Y0002142865D01*
X0000305689Y0002144128D01*
X0000306127Y0002145353D01*
X0000306684Y0002146530D01*
X0000307353Y0002147647D01*
X0000308129Y0002148693D01*
X0000309003Y0002149657D01*
X0000309968Y0002150532D01*
X0000311013Y0002151307D01*
X0000312130Y0002151976D01*
X0000313307Y0002152533D01*
X0000314533Y0002152972D01*
X0000315796Y0002153288D01*
X0000317083Y0002153479D01*
X0000318384Y0002153543D01*
X0000352875Y0002153543D01*
X0000354176Y0002153479D01*
X0000354176Y0002153479D01*
G37*
D63*
X0000335629Y0002118110D03*
D61*
G36*
X0000670120Y0002360172D02*
G01*
X0000671408Y0002359981D01*
X0000672671Y0002359665D01*
X0000673897Y0002359226D01*
X0000675074Y0002358669D01*
X0000676190Y0002358000D01*
X0000677236Y0002357225D01*
X0000678201Y0002356350D01*
X0000679075Y0002355386D01*
X0000679850Y0002354340D01*
X0000680520Y0002353223D01*
X0000681076Y0002352046D01*
X0000681515Y0002350821D01*
X0000681831Y0002349558D01*
X0000682022Y0002348270D01*
X0000682086Y0002346970D01*
X0000682086Y0002302636D01*
X0000682022Y0002301335D01*
X0000681831Y0002300047D01*
X0000681515Y0002298785D01*
X0000681076Y0002297559D01*
X0000680520Y0002296382D01*
X0000679850Y0002295265D01*
X0000679075Y0002294220D01*
X0000678201Y0002293255D01*
X0000677236Y0002292381D01*
X0000676190Y0002291605D01*
X0000675074Y0002290936D01*
X0000673897Y0002290379D01*
X0000672671Y0002289941D01*
X0000671408Y0002289625D01*
X0000670120Y0002289433D01*
X0000668820Y0002289370D01*
X0000634328Y0002289370D01*
X0000633028Y0002289433D01*
X0000631740Y0002289625D01*
X0000630478Y0002289941D01*
X0000629252Y0002290379D01*
X0000628075Y0002290936D01*
X0000626958Y0002291605D01*
X0000625913Y0002292381D01*
X0000624948Y0002293255D01*
X0000624074Y0002294220D01*
X0000623298Y0002295265D01*
X0000622629Y0002296382D01*
X0000622072Y0002297559D01*
X0000621634Y0002298785D01*
X0000621317Y0002300047D01*
X0000621126Y0002301335D01*
X0000621062Y0002302636D01*
X0000621062Y0002346970D01*
X0000621126Y0002348270D01*
X0000621317Y0002349558D01*
X0000621634Y0002350821D01*
X0000622072Y0002352046D01*
X0000622629Y0002353223D01*
X0000623298Y0002354340D01*
X0000624074Y0002355386D01*
X0000624948Y0002356350D01*
X0000625913Y0002357225D01*
X0000626958Y0002358000D01*
X0000628075Y0002358669D01*
X0000629252Y0002359226D01*
X0000630478Y0002359665D01*
X0000631740Y0002359981D01*
X0000633028Y0002360172D01*
X0000634328Y0002360236D01*
X0000668820Y0002360236D01*
X0000670120Y0002360172D01*
X0000670120Y0002360172D01*
G37*
D63*
X0000651574Y0002324803D03*
D61*
G36*
X0000750829Y0002360172D02*
G01*
X0000752117Y0002359981D01*
X0000753380Y0002359665D01*
X0000754605Y0002359226D01*
X0000755782Y0002358669D01*
X0000756899Y0002358000D01*
X0000757945Y0002357225D01*
X0000758909Y0002356350D01*
X0000759784Y0002355386D01*
X0000760559Y0002354340D01*
X0000761228Y0002353223D01*
X0000761785Y0002352046D01*
X0000762224Y0002350821D01*
X0000762540Y0002349558D01*
X0000762731Y0002348270D01*
X0000762795Y0002346970D01*
X0000762795Y0002302636D01*
X0000762731Y0002301335D01*
X0000762540Y0002300047D01*
X0000762224Y0002298785D01*
X0000761785Y0002297559D01*
X0000761228Y0002296382D01*
X0000760559Y0002295265D01*
X0000759784Y0002294220D01*
X0000758909Y0002293255D01*
X0000757945Y0002292381D01*
X0000756899Y0002291605D01*
X0000755782Y0002290936D01*
X0000754605Y0002290379D01*
X0000753380Y0002289941D01*
X0000752117Y0002289625D01*
X0000750829Y0002289433D01*
X0000749529Y0002289370D01*
X0000715037Y0002289370D01*
X0000713737Y0002289433D01*
X0000712449Y0002289625D01*
X0000711186Y0002289941D01*
X0000709960Y0002290379D01*
X0000708784Y0002290936D01*
X0000707667Y0002291605D01*
X0000706621Y0002292381D01*
X0000705657Y0002293255D01*
X0000704782Y0002294220D01*
X0000704007Y0002295265D01*
X0000703338Y0002296382D01*
X0000702781Y0002297559D01*
X0000702342Y0002298785D01*
X0000702026Y0002300047D01*
X0000701835Y0002301335D01*
X0000701771Y0002302636D01*
X0000701771Y0002346970D01*
X0000701835Y0002348270D01*
X0000702026Y0002349558D01*
X0000702342Y0002350821D01*
X0000702781Y0002352046D01*
X0000703338Y0002353223D01*
X0000704007Y0002354340D01*
X0000704782Y0002355386D01*
X0000705657Y0002356350D01*
X0000706621Y0002357225D01*
X0000707667Y0002358000D01*
X0000708784Y0002358669D01*
X0000709960Y0002359226D01*
X0000711186Y0002359665D01*
X0000712449Y0002359981D01*
X0000713737Y0002360172D01*
X0000715037Y0002360236D01*
X0000749529Y0002360236D01*
X0000750829Y0002360172D01*
X0000750829Y0002360172D01*
G37*
D63*
X0000732283Y0002324803D03*
D64*
X0000529527Y0002218503D03*
D61*
G36*
X0000529286Y0002181126D02*
G01*
X0000528561Y0002181126D01*
X0000527789Y0002181163D01*
X0000525867Y0002181353D01*
X0000525103Y0002181466D01*
X0000523208Y0002181843D01*
X0000522458Y0002182031D01*
X0000520610Y0002182592D01*
X0000519882Y0002182852D01*
X0000518097Y0002183591D01*
X0000517399Y0002183922D01*
X0000515695Y0002184832D01*
X0000515032Y0002185229D01*
X0000513426Y0002186303D01*
X0000512805Y0002186763D01*
X0000511312Y0002187989D01*
X0000510740Y0002188507D01*
X0000509374Y0002189874D01*
X0000508855Y0002190446D01*
X0000507629Y0002191939D01*
X0000507169Y0002192560D01*
X0000506096Y0002194166D01*
X0000505698Y0002194829D01*
X0000504788Y0002196533D01*
X0000504457Y0002197231D01*
X0000503718Y0002199016D01*
X0000503458Y0002199743D01*
X0000502897Y0002201592D01*
X0000502709Y0002202342D01*
X0000502332Y0002204237D01*
X0000502219Y0002205001D01*
X0000502030Y0002206923D01*
X0000501992Y0002207695D01*
X0000501992Y0002208420D01*
X0000501968Y0002208661D01*
X0000501968Y0002228346D01*
X0000501992Y0002228587D01*
X0000501992Y0002229312D01*
X0000502030Y0002230084D01*
X0000502219Y0002232006D01*
X0000502332Y0002232770D01*
X0000502709Y0002234665D01*
X0000502897Y0002235415D01*
X0000503458Y0002237263D01*
X0000503718Y0002237991D01*
X0000504457Y0002239776D01*
X0000504788Y0002240474D01*
X0000505698Y0002242178D01*
X0000506096Y0002242841D01*
X0000507169Y0002244447D01*
X0000507629Y0002245068D01*
X0000508855Y0002246561D01*
X0000509374Y0002247133D01*
X0000510740Y0002248499D01*
X0000511312Y0002249018D01*
X0000512805Y0002250244D01*
X0000513426Y0002250704D01*
X0000515032Y0002251777D01*
X0000515695Y0002252175D01*
X0000517399Y0002253085D01*
X0000518097Y0002253416D01*
X0000519882Y0002254155D01*
X0000520610Y0002254415D01*
X0000522458Y0002254976D01*
X0000523208Y0002255164D01*
X0000525103Y0002255541D01*
X0000525867Y0002255654D01*
X0000527789Y0002255843D01*
X0000528561Y0002255881D01*
X0000529286Y0002255881D01*
X0000529527Y0002255905D01*
X0000549212Y0002255905D01*
X0000550748Y0002255754D01*
X0000552225Y0002255306D01*
X0000553587Y0002254578D01*
X0000554780Y0002253599D01*
X0000555759Y0002252406D01*
X0000556487Y0002251044D01*
X0000556935Y0002249567D01*
X0000557086Y0002248031D01*
X0000557086Y0002188976D01*
X0000556935Y0002187440D01*
X0000556487Y0002185963D01*
X0000555759Y0002184601D01*
X0000554780Y0002183408D01*
X0000553587Y0002182429D01*
X0000552225Y0002181701D01*
X0000550748Y0002181253D01*
X0000549212Y0002181102D01*
X0000529527Y0002181102D01*
X0000529286Y0002181126D01*
X0000529286Y0002181126D01*
G37*
D64*
X0000580708Y0002218503D03*
D61*
G36*
X0000559487Y0002181253D02*
G01*
X0000558010Y0002181701D01*
X0000556649Y0002182429D01*
X0000555455Y0002183408D01*
X0000554476Y0002184601D01*
X0000553748Y0002185963D01*
X0000553300Y0002187440D01*
X0000553149Y0002188976D01*
X0000553149Y0002248031D01*
X0000553300Y0002249567D01*
X0000553748Y0002251044D01*
X0000554476Y0002252406D01*
X0000555455Y0002253599D01*
X0000556649Y0002254578D01*
X0000558010Y0002255306D01*
X0000559487Y0002255754D01*
X0000561023Y0002255905D01*
X0000580708Y0002255905D01*
X0000580949Y0002255881D01*
X0000581674Y0002255881D01*
X0000582446Y0002255843D01*
X0000584368Y0002255654D01*
X0000585133Y0002255541D01*
X0000587027Y0002255164D01*
X0000587777Y0002254976D01*
X0000589626Y0002254415D01*
X0000590353Y0002254155D01*
X0000592138Y0002253416D01*
X0000592837Y0002253085D01*
X0000594540Y0002252175D01*
X0000595203Y0002251777D01*
X0000596809Y0002250704D01*
X0000597430Y0002250244D01*
X0000598923Y0002249018D01*
X0000599496Y0002248499D01*
X0000600862Y0002247133D01*
X0000601380Y0002246561D01*
X0000602606Y0002245068D01*
X0000603066Y0002244447D01*
X0000604140Y0002242841D01*
X0000604537Y0002242178D01*
X0000605447Y0002240474D01*
X0000605778Y0002239776D01*
X0000606517Y0002237991D01*
X0000606777Y0002237263D01*
X0000607338Y0002235415D01*
X0000607526Y0002234665D01*
X0000607903Y0002232770D01*
X0000608016Y0002232006D01*
X0000608206Y0002230084D01*
X0000608244Y0002229312D01*
X0000608244Y0002228587D01*
X0000608267Y0002228346D01*
X0000608267Y0002208661D01*
X0000608244Y0002208420D01*
X0000608244Y0002207695D01*
X0000608206Y0002206923D01*
X0000608016Y0002205001D01*
X0000607903Y0002204237D01*
X0000607526Y0002202342D01*
X0000607338Y0002201592D01*
X0000606777Y0002199743D01*
X0000606517Y0002199016D01*
X0000605778Y0002197231D01*
X0000605447Y0002196533D01*
X0000604537Y0002194829D01*
X0000604140Y0002194166D01*
X0000603066Y0002192560D01*
X0000602606Y0002191939D01*
X0000601380Y0002190446D01*
X0000600862Y0002189874D01*
X0000599496Y0002188507D01*
X0000598923Y0002187989D01*
X0000597430Y0002186763D01*
X0000596809Y0002186303D01*
X0000595203Y0002185229D01*
X0000594540Y0002184832D01*
X0000592837Y0002183922D01*
X0000592138Y0002183591D01*
X0000590353Y0002182852D01*
X0000589626Y0002182592D01*
X0000587777Y0002182031D01*
X0000587027Y0002181843D01*
X0000585133Y0002181466D01*
X0000584368Y0002181353D01*
X0000582446Y0002181163D01*
X0000581674Y0002181126D01*
X0000580949Y0002181126D01*
X0000580708Y0002181102D01*
X0000561023Y0002181102D01*
X0000559487Y0002181253D01*
X0000559487Y0002181253D01*
G37*
D60*
X0000734586Y0001981043D03*
X0000734586Y0002081043D03*
X0000734586Y0002181043D03*
D65*
X0000732677Y0002429842D03*
X0000653937Y0002429842D03*
X0000575196Y0002429842D03*
X0000496456Y0002429842D03*
X0000417716Y0002429842D03*
X0000338976Y0002429842D03*
X0000260236Y0002429842D03*
X0000181496Y0002429842D03*
X0000417716Y0003177874D03*
X0000496456Y0003177874D03*
X0000338976Y0003177874D03*
D66*
X0000368110Y0002037795D03*
X0000293307Y0002037795D03*
X0000293307Y0001934645D03*
X0000330708Y0001934645D03*
X0000368110Y0001934645D03*
D67*
X0000055531Y0002738543D03*
X0000055531Y0002938543D03*
X0000055531Y0003138543D03*
X0000054586Y0002838543D03*
X0000054586Y0003038543D03*
D68*
X0000712086Y0003238543D03*
X0000077086Y0001803543D03*
D69*
X0000072086Y0003251043D03*
G04 next file*
G04 #@! TF.GenerationSoftware,KiCad,Pcbnew,(5.1.2)-2*
G04 #@! TF.CreationDate,2019-11-25T21:39:26+01:00*
G04 #@! TF.ProjectId,HM-LC-SW1-BA-PCB_mini_MAX1724,484d2d4c-432d-4535-9731-2d42412d5043,rev?*
G04 #@! TF.SameCoordinates,Original*
G04 #@! TF.FileFunction,Soldermask,Bot*
G04 #@! TF.FilePolarity,Negative*
G04 Gerber Fmt 4.6, Leading zero omitted, Abs format (unit mm)*
G04 Created by KiCad (PCBNEW (5.1.2)-2) date 2019-11-25 21:39:26*
G04 APERTURE LIST*
G04 APERTURE END LIST*
D70*
X-0005748031Y0006653543D02*
X0000996062Y0001981102D03*
X0000996062Y0002081102D03*
X0000996062Y0002181102D03*
D71*
G36*
X0001519069Y0002121959D02*
G01*
X0001520830Y0002121698D01*
X0001522557Y0002121266D01*
X0001524233Y0002120666D01*
X0001525843Y0002119905D01*
X0001527370Y0002118989D01*
X0001528800Y0002117929D01*
X0001530119Y0002116733D01*
X0001531315Y0002115414D01*
X0001532375Y0002113984D01*
X0001533290Y0002112457D01*
X0001534052Y0002110848D01*
X0001534651Y0002109171D01*
X0001535084Y0002107444D01*
X0001535345Y0002105683D01*
X0001535433Y0002103905D01*
X0001535433Y0002045700D01*
X0001535345Y0002043922D01*
X0001535084Y0002042161D01*
X0001534651Y0002040434D01*
X0001534052Y0002038758D01*
X0001533290Y0002037148D01*
X0001532375Y0002035621D01*
X0001531315Y0002034191D01*
X0001530119Y0002032872D01*
X0001528800Y0002031677D01*
X0001527370Y0002030616D01*
X0001525843Y0002029701D01*
X0001524233Y0002028940D01*
X0001522557Y0002028340D01*
X0001520830Y0002027907D01*
X0001519069Y0002027646D01*
X0001517291Y0002027559D01*
X0001403968Y0002027559D01*
X0001402190Y0002027646D01*
X0001400429Y0002027907D01*
X0001398702Y0002028340D01*
X0001397025Y0002028940D01*
X0001395416Y0002029701D01*
X0001393889Y0002030616D01*
X0001392459Y0002031677D01*
X0001391140Y0002032872D01*
X0001389944Y0002034191D01*
X0001388884Y0002035621D01*
X0001387968Y0002037148D01*
X0001387207Y0002038758D01*
X0001386607Y0002040434D01*
X0001386175Y0002042161D01*
X0001385914Y0002043922D01*
X0001385826Y0002045700D01*
X0001385826Y0002103905D01*
X0001385914Y0002105683D01*
X0001386175Y0002107444D01*
X0001386607Y0002109171D01*
X0001387207Y0002110848D01*
X0001387968Y0002112457D01*
X0001388884Y0002113984D01*
X0001389944Y0002115414D01*
X0001391140Y0002116733D01*
X0001392459Y0002117929D01*
X0001393889Y0002118989D01*
X0001395416Y0002119905D01*
X0001397025Y0002120666D01*
X0001398702Y0002121266D01*
X0001400429Y0002121698D01*
X0001402190Y0002121959D01*
X0001403968Y0002122047D01*
X0001517291Y0002122047D01*
X0001519069Y0002121959D01*
X0001519069Y0002121959D01*
G37*
D72*
X0001460629Y0002074803D03*
D71*
G36*
X0001519069Y0001936920D02*
G01*
X0001520830Y0001936659D01*
X0001522557Y0001936226D01*
X0001524233Y0001935626D01*
X0001525843Y0001934865D01*
X0001527370Y0001933950D01*
X0001528800Y0001932889D01*
X0001530119Y0001931694D01*
X0001531315Y0001930375D01*
X0001532375Y0001928945D01*
X0001533290Y0001927418D01*
X0001534052Y0001925808D01*
X0001534651Y0001924132D01*
X0001535084Y0001922405D01*
X0001535345Y0001920644D01*
X0001535433Y0001918866D01*
X0001535433Y0001860661D01*
X0001535345Y0001858883D01*
X0001535084Y0001857122D01*
X0001534651Y0001855395D01*
X0001534052Y0001853718D01*
X0001533290Y0001852109D01*
X0001532375Y0001850582D01*
X0001531315Y0001849152D01*
X0001530119Y0001847833D01*
X0001528800Y0001846637D01*
X0001527370Y0001845577D01*
X0001525843Y0001844661D01*
X0001524233Y0001843900D01*
X0001522557Y0001843300D01*
X0001520830Y0001842868D01*
X0001519069Y0001842607D01*
X0001517291Y0001842519D01*
X0001403968Y0001842519D01*
X0001402190Y0001842607D01*
X0001400429Y0001842868D01*
X0001398702Y0001843300D01*
X0001397025Y0001843900D01*
X0001395416Y0001844661D01*
X0001393889Y0001845577D01*
X0001392459Y0001846637D01*
X0001391140Y0001847833D01*
X0001389944Y0001849152D01*
X0001388884Y0001850582D01*
X0001387968Y0001852109D01*
X0001387207Y0001853718D01*
X0001386607Y0001855395D01*
X0001386175Y0001857122D01*
X0001385914Y0001858883D01*
X0001385826Y0001860661D01*
X0001385826Y0001918866D01*
X0001385914Y0001920644D01*
X0001386175Y0001922405D01*
X0001386607Y0001924132D01*
X0001387207Y0001925808D01*
X0001387968Y0001927418D01*
X0001388884Y0001928945D01*
X0001389944Y0001930375D01*
X0001391140Y0001931694D01*
X0001392459Y0001932889D01*
X0001393889Y0001933950D01*
X0001395416Y0001934865D01*
X0001397025Y0001935626D01*
X0001398702Y0001936226D01*
X0001400429Y0001936659D01*
X0001402190Y0001936920D01*
X0001403968Y0001937007D01*
X0001517291Y0001937007D01*
X0001519069Y0001936920D01*
X0001519069Y0001936920D01*
G37*
D72*
X0001460629Y0001889763D03*
D71*
G36*
X0001251813Y0001885762D02*
G01*
X0001253101Y0001885571D01*
X0001254364Y0001885255D01*
X0001255590Y0001884816D01*
X0001256767Y0001884260D01*
X0001257883Y0001883591D01*
X0001258929Y0001882815D01*
X0001259893Y0001881941D01*
X0001260768Y0001880976D01*
X0001261543Y0001879930D01*
X0001262213Y0001878814D01*
X0001262769Y0001877637D01*
X0001263208Y0001876411D01*
X0001263524Y0001875148D01*
X0001263715Y0001873861D01*
X0001263779Y0001872560D01*
X0001263779Y0001828226D01*
X0001263715Y0001826926D01*
X0001263524Y0001825638D01*
X0001263208Y0001824375D01*
X0001262769Y0001823149D01*
X0001262213Y0001821973D01*
X0001261543Y0001820856D01*
X0001260768Y0001819810D01*
X0001259893Y0001818846D01*
X0001258929Y0001817971D01*
X0001257883Y0001817196D01*
X0001256767Y0001816527D01*
X0001255590Y0001815970D01*
X0001254364Y0001815531D01*
X0001253101Y0001815215D01*
X0001251813Y0001815024D01*
X0001250513Y0001814960D01*
X0001216021Y0001814960D01*
X0001214721Y0001815024D01*
X0001213433Y0001815215D01*
X0001212170Y0001815531D01*
X0001210945Y0001815970D01*
X0001209768Y0001816527D01*
X0001208651Y0001817196D01*
X0001207605Y0001817971D01*
X0001206641Y0001818846D01*
X0001205767Y0001819810D01*
X0001204991Y0001820856D01*
X0001204322Y0001821973D01*
X0001203765Y0001823149D01*
X0001203327Y0001824375D01*
X0001203010Y0001825638D01*
X0001202819Y0001826926D01*
X0001202755Y0001828226D01*
X0001202755Y0001872560D01*
X0001202819Y0001873861D01*
X0001203010Y0001875148D01*
X0001203327Y0001876411D01*
X0001203765Y0001877637D01*
X0001204322Y0001878814D01*
X0001204991Y0001879930D01*
X0001205767Y0001880976D01*
X0001206641Y0001881941D01*
X0001207605Y0001882815D01*
X0001208651Y0001883591D01*
X0001209768Y0001884260D01*
X0001210945Y0001884816D01*
X0001212170Y0001885255D01*
X0001213433Y0001885571D01*
X0001214721Y0001885762D01*
X0001216021Y0001885826D01*
X0001250513Y0001885826D01*
X0001251813Y0001885762D01*
X0001251813Y0001885762D01*
G37*
D73*
X0001233267Y0001850393D03*
D71*
G36*
X0001332522Y0001885762D02*
G01*
X0001333810Y0001885571D01*
X0001335073Y0001885255D01*
X0001336298Y0001884816D01*
X0001337475Y0001884260D01*
X0001338592Y0001883591D01*
X0001339638Y0001882815D01*
X0001340602Y0001881941D01*
X0001341476Y0001880976D01*
X0001342252Y0001879930D01*
X0001342921Y0001878814D01*
X0001343478Y0001877637D01*
X0001343916Y0001876411D01*
X0001344233Y0001875148D01*
X0001344424Y0001873861D01*
X0001344488Y0001872560D01*
X0001344488Y0001828226D01*
X0001344424Y0001826926D01*
X0001344233Y0001825638D01*
X0001343916Y0001824375D01*
X0001343478Y0001823149D01*
X0001342921Y0001821973D01*
X0001342252Y0001820856D01*
X0001341476Y0001819810D01*
X0001340602Y0001818846D01*
X0001339638Y0001817971D01*
X0001338592Y0001817196D01*
X0001337475Y0001816527D01*
X0001336298Y0001815970D01*
X0001335073Y0001815531D01*
X0001333810Y0001815215D01*
X0001332522Y0001815024D01*
X0001331222Y0001814960D01*
X0001296730Y0001814960D01*
X0001295430Y0001815024D01*
X0001294142Y0001815215D01*
X0001292879Y0001815531D01*
X0001291653Y0001815970D01*
X0001290477Y0001816527D01*
X0001289360Y0001817196D01*
X0001288314Y0001817971D01*
X0001287350Y0001818846D01*
X0001286475Y0001819810D01*
X0001285700Y0001820856D01*
X0001285030Y0001821973D01*
X0001284474Y0001823149D01*
X0001284035Y0001824375D01*
X0001283719Y0001825638D01*
X0001283528Y0001826926D01*
X0001283464Y0001828226D01*
X0001283464Y0001872560D01*
X0001283528Y0001873861D01*
X0001283719Y0001875148D01*
X0001284035Y0001876411D01*
X0001284474Y0001877637D01*
X0001285030Y0001878814D01*
X0001285700Y0001879930D01*
X0001286475Y0001880976D01*
X0001287350Y0001881941D01*
X0001288314Y0001882815D01*
X0001289360Y0001883591D01*
X0001290477Y0001884260D01*
X0001291653Y0001884816D01*
X0001292879Y0001885255D01*
X0001294142Y0001885571D01*
X0001295430Y0001885762D01*
X0001296730Y0001885826D01*
X0001331222Y0001885826D01*
X0001332522Y0001885762D01*
X0001332522Y0001885762D01*
G37*
D73*
X0001313976Y0001850393D03*
D71*
G36*
X0001218349Y0002153479D02*
G01*
X0001219637Y0002153288D01*
X0001220899Y0002152972D01*
X0001222125Y0002152533D01*
X0001223302Y0002151976D01*
X0001224419Y0002151307D01*
X0001225464Y0002150532D01*
X0001226429Y0002149657D01*
X0001227303Y0002148693D01*
X0001228079Y0002147647D01*
X0001228748Y0002146530D01*
X0001229305Y0002145353D01*
X0001229743Y0002144128D01*
X0001230060Y0002142865D01*
X0001230251Y0002141577D01*
X0001230314Y0002140277D01*
X0001230314Y0002095943D01*
X0001230251Y0002094642D01*
X0001230060Y0002093355D01*
X0001229743Y0002092092D01*
X0001229305Y0002090866D01*
X0001228748Y0002089689D01*
X0001228079Y0002088572D01*
X0001227303Y0002087527D01*
X0001226429Y0002086562D01*
X0001225464Y0002085688D01*
X0001224419Y0002084912D01*
X0001223302Y0002084243D01*
X0001222125Y0002083686D01*
X0001220899Y0002083248D01*
X0001219637Y0002082932D01*
X0001218349Y0002082741D01*
X0001217048Y0002082677D01*
X0001182557Y0002082677D01*
X0001181257Y0002082741D01*
X0001179969Y0002082932D01*
X0001178706Y0002083248D01*
X0001177480Y0002083686D01*
X0001176303Y0002084243D01*
X0001175187Y0002084912D01*
X0001174141Y0002085688D01*
X0001173176Y0002086562D01*
X0001172302Y0002087527D01*
X0001171527Y0002088572D01*
X0001170857Y0002089689D01*
X0001170301Y0002090866D01*
X0001169862Y0002092092D01*
X0001169546Y0002093355D01*
X0001169355Y0002094642D01*
X0001169291Y0002095943D01*
X0001169291Y0002140277D01*
X0001169355Y0002141577D01*
X0001169546Y0002142865D01*
X0001169862Y0002144128D01*
X0001170301Y0002145353D01*
X0001170857Y0002146530D01*
X0001171527Y0002147647D01*
X0001172302Y0002148693D01*
X0001173176Y0002149657D01*
X0001174141Y0002150532D01*
X0001175187Y0002151307D01*
X0001176303Y0002151976D01*
X0001177480Y0002152533D01*
X0001178706Y0002152972D01*
X0001179969Y0002153288D01*
X0001181257Y0002153479D01*
X0001182557Y0002153543D01*
X0001217048Y0002153543D01*
X0001218349Y0002153479D01*
X0001218349Y0002153479D01*
G37*
D73*
X0001199803Y0002118110D03*
D71*
G36*
X0001299057Y0002153479D02*
G01*
X0001300345Y0002153288D01*
X0001301608Y0002152972D01*
X0001302834Y0002152533D01*
X0001304011Y0002151976D01*
X0001305127Y0002151307D01*
X0001306173Y0002150532D01*
X0001307138Y0002149657D01*
X0001308012Y0002148693D01*
X0001308787Y0002147647D01*
X0001309457Y0002146530D01*
X0001310013Y0002145353D01*
X0001310452Y0002144128D01*
X0001310768Y0002142865D01*
X0001310959Y0002141577D01*
X0001311023Y0002140277D01*
X0001311023Y0002095943D01*
X0001310959Y0002094642D01*
X0001310768Y0002093355D01*
X0001310452Y0002092092D01*
X0001310013Y0002090866D01*
X0001309457Y0002089689D01*
X0001308787Y0002088572D01*
X0001308012Y0002087527D01*
X0001307138Y0002086562D01*
X0001306173Y0002085688D01*
X0001305127Y0002084912D01*
X0001304011Y0002084243D01*
X0001302834Y0002083686D01*
X0001301608Y0002083248D01*
X0001300345Y0002082932D01*
X0001299057Y0002082741D01*
X0001297757Y0002082677D01*
X0001263265Y0002082677D01*
X0001261965Y0002082741D01*
X0001260677Y0002082932D01*
X0001259415Y0002083248D01*
X0001258189Y0002083686D01*
X0001257012Y0002084243D01*
X0001255895Y0002084912D01*
X0001254850Y0002085688D01*
X0001253885Y0002086562D01*
X0001253011Y0002087527D01*
X0001252235Y0002088572D01*
X0001251566Y0002089689D01*
X0001251009Y0002090866D01*
X0001250571Y0002092092D01*
X0001250254Y0002093355D01*
X0001250063Y0002094642D01*
X0001250000Y0002095943D01*
X0001250000Y0002140277D01*
X0001250063Y0002141577D01*
X0001250254Y0002142865D01*
X0001250571Y0002144128D01*
X0001251009Y0002145353D01*
X0001251566Y0002146530D01*
X0001252235Y0002147647D01*
X0001253011Y0002148693D01*
X0001253885Y0002149657D01*
X0001254850Y0002150532D01*
X0001255895Y0002151307D01*
X0001257012Y0002151976D01*
X0001258189Y0002152533D01*
X0001259415Y0002152972D01*
X0001260677Y0002153288D01*
X0001261965Y0002153479D01*
X0001263265Y0002153543D01*
X0001297757Y0002153543D01*
X0001299057Y0002153479D01*
X0001299057Y0002153479D01*
G37*
D73*
X0001280511Y0002118110D03*
D71*
G36*
X0001615002Y0002360172D02*
G01*
X0001616290Y0002359981D01*
X0001617553Y0002359665D01*
X0001618779Y0002359226D01*
X0001619956Y0002358669D01*
X0001621072Y0002358000D01*
X0001622118Y0002357225D01*
X0001623082Y0002356350D01*
X0001623957Y0002355386D01*
X0001624732Y0002354340D01*
X0001625402Y0002353223D01*
X0001625958Y0002352046D01*
X0001626397Y0002350821D01*
X0001626713Y0002349558D01*
X0001626904Y0002348270D01*
X0001626968Y0002346970D01*
X0001626968Y0002302636D01*
X0001626904Y0002301335D01*
X0001626713Y0002300047D01*
X0001626397Y0002298785D01*
X0001625958Y0002297559D01*
X0001625402Y0002296382D01*
X0001624732Y0002295265D01*
X0001623957Y0002294220D01*
X0001623082Y0002293255D01*
X0001622118Y0002292381D01*
X0001621072Y0002291605D01*
X0001619956Y0002290936D01*
X0001618779Y0002290379D01*
X0001617553Y0002289941D01*
X0001616290Y0002289625D01*
X0001615002Y0002289433D01*
X0001613702Y0002289370D01*
X0001579210Y0002289370D01*
X0001577910Y0002289433D01*
X0001576622Y0002289625D01*
X0001575359Y0002289941D01*
X0001574134Y0002290379D01*
X0001572957Y0002290936D01*
X0001571840Y0002291605D01*
X0001570794Y0002292381D01*
X0001569830Y0002293255D01*
X0001568956Y0002294220D01*
X0001568180Y0002295265D01*
X0001567511Y0002296382D01*
X0001566954Y0002297559D01*
X0001566516Y0002298785D01*
X0001566199Y0002300047D01*
X0001566008Y0002301335D01*
X0001565944Y0002302636D01*
X0001565944Y0002346970D01*
X0001566008Y0002348270D01*
X0001566199Y0002349558D01*
X0001566516Y0002350821D01*
X0001566954Y0002352046D01*
X0001567511Y0002353223D01*
X0001568180Y0002354340D01*
X0001568956Y0002355386D01*
X0001569830Y0002356350D01*
X0001570794Y0002357225D01*
X0001571840Y0002358000D01*
X0001572957Y0002358669D01*
X0001574134Y0002359226D01*
X0001575359Y0002359665D01*
X0001576622Y0002359981D01*
X0001577910Y0002360172D01*
X0001579210Y0002360236D01*
X0001613702Y0002360236D01*
X0001615002Y0002360172D01*
X0001615002Y0002360172D01*
G37*
D73*
X0001596456Y0002324803D03*
D71*
G36*
X0001695711Y0002360172D02*
G01*
X0001696999Y0002359981D01*
X0001698262Y0002359665D01*
X0001699487Y0002359226D01*
X0001700664Y0002358669D01*
X0001701781Y0002358000D01*
X0001702827Y0002357225D01*
X0001703791Y0002356350D01*
X0001704665Y0002355386D01*
X0001705441Y0002354340D01*
X0001706110Y0002353223D01*
X0001706667Y0002352046D01*
X0001707105Y0002350821D01*
X0001707422Y0002349558D01*
X0001707613Y0002348270D01*
X0001707677Y0002346970D01*
X0001707677Y0002302636D01*
X0001707613Y0002301335D01*
X0001707422Y0002300047D01*
X0001707105Y0002298785D01*
X0001706667Y0002297559D01*
X0001706110Y0002296382D01*
X0001705441Y0002295265D01*
X0001704665Y0002294220D01*
X0001703791Y0002293255D01*
X0001702827Y0002292381D01*
X0001701781Y0002291605D01*
X0001700664Y0002290936D01*
X0001699487Y0002290379D01*
X0001698262Y0002289941D01*
X0001696999Y0002289625D01*
X0001695711Y0002289433D01*
X0001694411Y0002289370D01*
X0001659919Y0002289370D01*
X0001658619Y0002289433D01*
X0001657331Y0002289625D01*
X0001656068Y0002289941D01*
X0001654842Y0002290379D01*
X0001653665Y0002290936D01*
X0001652549Y0002291605D01*
X0001651503Y0002292381D01*
X0001650539Y0002293255D01*
X0001649664Y0002294220D01*
X0001648889Y0002295265D01*
X0001648219Y0002296382D01*
X0001647663Y0002297559D01*
X0001647224Y0002298785D01*
X0001646908Y0002300047D01*
X0001646717Y0002301335D01*
X0001646653Y0002302636D01*
X0001646653Y0002346970D01*
X0001646717Y0002348270D01*
X0001646908Y0002349558D01*
X0001647224Y0002350821D01*
X0001647663Y0002352046D01*
X0001648219Y0002353223D01*
X0001648889Y0002354340D01*
X0001649664Y0002355386D01*
X0001650539Y0002356350D01*
X0001651503Y0002357225D01*
X0001652549Y0002358000D01*
X0001653665Y0002358669D01*
X0001654842Y0002359226D01*
X0001656068Y0002359665D01*
X0001657331Y0002359981D01*
X0001658619Y0002360172D01*
X0001659919Y0002360236D01*
X0001694411Y0002360236D01*
X0001695711Y0002360172D01*
X0001695711Y0002360172D01*
G37*
D73*
X0001677165Y0002324803D03*
D74*
X0001474409Y0002218503D03*
D71*
G36*
X0001474168Y0002181126D02*
G01*
X0001473443Y0002181126D01*
X0001472671Y0002181163D01*
X0001470749Y0002181353D01*
X0001469984Y0002181466D01*
X0001468090Y0002181843D01*
X0001467340Y0002182031D01*
X0001465492Y0002182592D01*
X0001464764Y0002182852D01*
X0001462979Y0002183591D01*
X0001462281Y0002183922D01*
X0001460577Y0002184832D01*
X0001459914Y0002185229D01*
X0001458308Y0002186303D01*
X0001457687Y0002186763D01*
X0001456194Y0002187989D01*
X0001455622Y0002188507D01*
X0001454256Y0002189874D01*
X0001453737Y0002190446D01*
X0001452511Y0002191939D01*
X0001452051Y0002192560D01*
X0001450977Y0002194166D01*
X0001450580Y0002194829D01*
X0001449670Y0002196533D01*
X0001449339Y0002197231D01*
X0001448600Y0002199016D01*
X0001448340Y0002199743D01*
X0001447779Y0002201592D01*
X0001447591Y0002202342D01*
X0001447214Y0002204237D01*
X0001447101Y0002205001D01*
X0001446912Y0002206923D01*
X0001446874Y0002207695D01*
X0001446874Y0002208420D01*
X0001446850Y0002208661D01*
X0001446850Y0002228346D01*
X0001446874Y0002228587D01*
X0001446874Y0002229312D01*
X0001446912Y0002230084D01*
X0001447101Y0002232006D01*
X0001447214Y0002232770D01*
X0001447591Y0002234665D01*
X0001447779Y0002235415D01*
X0001448340Y0002237263D01*
X0001448600Y0002237991D01*
X0001449339Y0002239776D01*
X0001449670Y0002240474D01*
X0001450580Y0002242178D01*
X0001450977Y0002242841D01*
X0001452051Y0002244447D01*
X0001452511Y0002245068D01*
X0001453737Y0002246561D01*
X0001454256Y0002247133D01*
X0001455622Y0002248499D01*
X0001456194Y0002249018D01*
X0001457687Y0002250244D01*
X0001458308Y0002250704D01*
X0001459914Y0002251777D01*
X0001460577Y0002252175D01*
X0001462281Y0002253085D01*
X0001462979Y0002253416D01*
X0001464764Y0002254155D01*
X0001465492Y0002254415D01*
X0001467340Y0002254976D01*
X0001468090Y0002255164D01*
X0001469984Y0002255541D01*
X0001470749Y0002255654D01*
X0001472671Y0002255843D01*
X0001473443Y0002255881D01*
X0001474168Y0002255881D01*
X0001474409Y0002255905D01*
X0001494094Y0002255905D01*
X0001495630Y0002255754D01*
X0001497107Y0002255306D01*
X0001498469Y0002254578D01*
X0001499662Y0002253599D01*
X0001500641Y0002252406D01*
X0001501369Y0002251044D01*
X0001501817Y0002249567D01*
X0001501968Y0002248031D01*
X0001501968Y0002188976D01*
X0001501817Y0002187440D01*
X0001501369Y0002185963D01*
X0001500641Y0002184601D01*
X0001499662Y0002183408D01*
X0001498469Y0002182429D01*
X0001497107Y0002181701D01*
X0001495630Y0002181253D01*
X0001494094Y0002181102D01*
X0001474409Y0002181102D01*
X0001474168Y0002181126D01*
X0001474168Y0002181126D01*
G37*
D74*
X0001525590Y0002218503D03*
D71*
G36*
X0001504369Y0002181253D02*
G01*
X0001502892Y0002181701D01*
X0001501530Y0002182429D01*
X0001500337Y0002183408D01*
X0001499358Y0002184601D01*
X0001498630Y0002185963D01*
X0001498182Y0002187440D01*
X0001498031Y0002188976D01*
X0001498031Y0002248031D01*
X0001498182Y0002249567D01*
X0001498630Y0002251044D01*
X0001499358Y0002252406D01*
X0001500337Y0002253599D01*
X0001501530Y0002254578D01*
X0001502892Y0002255306D01*
X0001504369Y0002255754D01*
X0001505905Y0002255905D01*
X0001525590Y0002255905D01*
X0001525831Y0002255881D01*
X0001526556Y0002255881D01*
X0001527328Y0002255843D01*
X0001529250Y0002255654D01*
X0001530014Y0002255541D01*
X0001531909Y0002255164D01*
X0001532659Y0002254976D01*
X0001534507Y0002254415D01*
X0001535235Y0002254155D01*
X0001537020Y0002253416D01*
X0001537718Y0002253085D01*
X0001539422Y0002252175D01*
X0001540085Y0002251777D01*
X0001541691Y0002250704D01*
X0001542312Y0002250244D01*
X0001543805Y0002249018D01*
X0001544377Y0002248499D01*
X0001545743Y0002247133D01*
X0001546262Y0002246561D01*
X0001547488Y0002245068D01*
X0001547948Y0002244447D01*
X0001549022Y0002242841D01*
X0001549419Y0002242178D01*
X0001550329Y0002240474D01*
X0001550660Y0002239776D01*
X0001551399Y0002237991D01*
X0001551659Y0002237263D01*
X0001552220Y0002235415D01*
X0001552408Y0002234665D01*
X0001552785Y0002232770D01*
X0001552898Y0002232006D01*
X0001553087Y0002230084D01*
X0001553125Y0002229312D01*
X0001553125Y0002228587D01*
X0001553149Y0002228346D01*
X0001553149Y0002208661D01*
X0001553125Y0002208420D01*
X0001553125Y0002207695D01*
X0001553087Y0002206923D01*
X0001552898Y0002205001D01*
X0001552785Y0002204237D01*
X0001552408Y0002202342D01*
X0001552220Y0002201592D01*
X0001551659Y0002199743D01*
X0001551399Y0002199016D01*
X0001550660Y0002197231D01*
X0001550329Y0002196533D01*
X0001549419Y0002194829D01*
X0001549022Y0002194166D01*
X0001547948Y0002192560D01*
X0001547488Y0002191939D01*
X0001546262Y0002190446D01*
X0001545743Y0002189874D01*
X0001544377Y0002188507D01*
X0001543805Y0002187989D01*
X0001542312Y0002186763D01*
X0001541691Y0002186303D01*
X0001540085Y0002185229D01*
X0001539422Y0002184832D01*
X0001537718Y0002183922D01*
X0001537020Y0002183591D01*
X0001535235Y0002182852D01*
X0001534507Y0002182592D01*
X0001532659Y0002182031D01*
X0001531909Y0002181843D01*
X0001530014Y0002181466D01*
X0001529250Y0002181353D01*
X0001527328Y0002181163D01*
X0001526556Y0002181126D01*
X0001525831Y0002181126D01*
X0001525590Y0002181102D01*
X0001505905Y0002181102D01*
X0001504369Y0002181253D01*
X0001504369Y0002181253D01*
G37*
D70*
X0001679468Y0001981043D03*
X0001679468Y0002081043D03*
X0001679468Y0002181043D03*
D75*
X0001677559Y0002429842D03*
X0001598818Y0002429842D03*
X0001520078Y0002429842D03*
X0001441338Y0002429842D03*
X0001362598Y0002429842D03*
X0001283858Y0002429842D03*
X0001205118Y0002429842D03*
X0001126377Y0002429842D03*
X0001362598Y0003177874D03*
X0001441338Y0003177874D03*
X0001283858Y0003177874D03*
D76*
X0001312992Y0002037795D03*
X0001238188Y0002037795D03*
X0001238188Y0001934645D03*
X0001275590Y0001934645D03*
X0001312992Y0001934645D03*
D77*
X0001000413Y0002738543D03*
X0001000413Y0002938543D03*
X0001000413Y0003138543D03*
X0000999468Y0002838543D03*
X0000999468Y0003038543D03*
D78*
X0001656968Y0003238543D03*
X0001021968Y0001803543D03*
D79*
X0001016968Y0003251043D03*
G04 next file*
G04 #@! TF.GenerationSoftware,KiCad,Pcbnew,(5.1.2)-2*
G04 #@! TF.CreationDate,2019-11-25T21:39:26+01:00*
G04 #@! TF.ProjectId,HM-LC-SW1-BA-PCB_mini_MAX1724,484d2d4c-432d-4535-9731-2d42412d5043,rev?*
G04 #@! TF.SameCoordinates,Original*
G04 #@! TF.FileFunction,Soldermask,Bot*
G04 #@! TF.FilePolarity,Negative*
G04 Gerber Fmt 4.6, Leading zero omitted, Abs format (unit mm)*
G04 Created by KiCad (PCBNEW (5.1.2)-2) date 2019-11-25 21:39:26*
G04 APERTURE LIST*
G04 APERTURE END LIST*
D80*
X-0004803149Y0006653543D02*
X0001940944Y0001981102D03*
X0001940944Y0002081102D03*
X0001940944Y0002181102D03*
D81*
G36*
X0002463951Y0002121959D02*
G01*
X0002465712Y0002121698D01*
X0002467439Y0002121266D01*
X0002469115Y0002120666D01*
X0002470725Y0002119905D01*
X0002472252Y0002118989D01*
X0002473682Y0002117929D01*
X0002475001Y0002116733D01*
X0002476196Y0002115414D01*
X0002477257Y0002113984D01*
X0002478172Y0002112457D01*
X0002478934Y0002110848D01*
X0002479533Y0002109171D01*
X0002479966Y0002107444D01*
X0002480227Y0002105683D01*
X0002480314Y0002103905D01*
X0002480314Y0002045700D01*
X0002480227Y0002043922D01*
X0002479966Y0002042161D01*
X0002479533Y0002040434D01*
X0002478934Y0002038758D01*
X0002478172Y0002037148D01*
X0002477257Y0002035621D01*
X0002476196Y0002034191D01*
X0002475001Y0002032872D01*
X0002473682Y0002031677D01*
X0002472252Y0002030616D01*
X0002470725Y0002029701D01*
X0002469115Y0002028940D01*
X0002467439Y0002028340D01*
X0002465712Y0002027907D01*
X0002463951Y0002027646D01*
X0002462173Y0002027559D01*
X0002348850Y0002027559D01*
X0002347072Y0002027646D01*
X0002345311Y0002027907D01*
X0002343584Y0002028340D01*
X0002341907Y0002028940D01*
X0002340298Y0002029701D01*
X0002338771Y0002030616D01*
X0002337341Y0002031677D01*
X0002336022Y0002032872D01*
X0002334826Y0002034191D01*
X0002333766Y0002035621D01*
X0002332850Y0002037148D01*
X0002332089Y0002038758D01*
X0002331489Y0002040434D01*
X0002331057Y0002042161D01*
X0002330796Y0002043922D01*
X0002330708Y0002045700D01*
X0002330708Y0002103905D01*
X0002330796Y0002105683D01*
X0002331057Y0002107444D01*
X0002331489Y0002109171D01*
X0002332089Y0002110848D01*
X0002332850Y0002112457D01*
X0002333766Y0002113984D01*
X0002334826Y0002115414D01*
X0002336022Y0002116733D01*
X0002337341Y0002117929D01*
X0002338771Y0002118989D01*
X0002340298Y0002119905D01*
X0002341907Y0002120666D01*
X0002343584Y0002121266D01*
X0002345311Y0002121698D01*
X0002347072Y0002121959D01*
X0002348850Y0002122047D01*
X0002462173Y0002122047D01*
X0002463951Y0002121959D01*
X0002463951Y0002121959D01*
G37*
D82*
X0002405511Y0002074803D03*
D81*
G36*
X0002463951Y0001936920D02*
G01*
X0002465712Y0001936659D01*
X0002467439Y0001936226D01*
X0002469115Y0001935626D01*
X0002470725Y0001934865D01*
X0002472252Y0001933950D01*
X0002473682Y0001932889D01*
X0002475001Y0001931694D01*
X0002476196Y0001930375D01*
X0002477257Y0001928945D01*
X0002478172Y0001927418D01*
X0002478934Y0001925808D01*
X0002479533Y0001924132D01*
X0002479966Y0001922405D01*
X0002480227Y0001920644D01*
X0002480314Y0001918866D01*
X0002480314Y0001860661D01*
X0002480227Y0001858883D01*
X0002479966Y0001857122D01*
X0002479533Y0001855395D01*
X0002478934Y0001853718D01*
X0002478172Y0001852109D01*
X0002477257Y0001850582D01*
X0002476196Y0001849152D01*
X0002475001Y0001847833D01*
X0002473682Y0001846637D01*
X0002472252Y0001845577D01*
X0002470725Y0001844661D01*
X0002469115Y0001843900D01*
X0002467439Y0001843300D01*
X0002465712Y0001842868D01*
X0002463951Y0001842607D01*
X0002462173Y0001842519D01*
X0002348850Y0001842519D01*
X0002347072Y0001842607D01*
X0002345311Y0001842868D01*
X0002343584Y0001843300D01*
X0002341907Y0001843900D01*
X0002340298Y0001844661D01*
X0002338771Y0001845577D01*
X0002337341Y0001846637D01*
X0002336022Y0001847833D01*
X0002334826Y0001849152D01*
X0002333766Y0001850582D01*
X0002332850Y0001852109D01*
X0002332089Y0001853718D01*
X0002331489Y0001855395D01*
X0002331057Y0001857122D01*
X0002330796Y0001858883D01*
X0002330708Y0001860661D01*
X0002330708Y0001918866D01*
X0002330796Y0001920644D01*
X0002331057Y0001922405D01*
X0002331489Y0001924132D01*
X0002332089Y0001925808D01*
X0002332850Y0001927418D01*
X0002333766Y0001928945D01*
X0002334826Y0001930375D01*
X0002336022Y0001931694D01*
X0002337341Y0001932889D01*
X0002338771Y0001933950D01*
X0002340298Y0001934865D01*
X0002341907Y0001935626D01*
X0002343584Y0001936226D01*
X0002345311Y0001936659D01*
X0002347072Y0001936920D01*
X0002348850Y0001937007D01*
X0002462173Y0001937007D01*
X0002463951Y0001936920D01*
X0002463951Y0001936920D01*
G37*
D82*
X0002405511Y0001889763D03*
D81*
G36*
X0002196695Y0001885762D02*
G01*
X0002197983Y0001885571D01*
X0002199246Y0001885255D01*
X0002200472Y0001884816D01*
X0002201648Y0001884260D01*
X0002202765Y0001883591D01*
X0002203811Y0001882815D01*
X0002204775Y0001881941D01*
X0002205650Y0001880976D01*
X0002206425Y0001879930D01*
X0002207095Y0001878814D01*
X0002207651Y0001877637D01*
X0002208090Y0001876411D01*
X0002208406Y0001875148D01*
X0002208597Y0001873861D01*
X0002208661Y0001872560D01*
X0002208661Y0001828226D01*
X0002208597Y0001826926D01*
X0002208406Y0001825638D01*
X0002208090Y0001824375D01*
X0002207651Y0001823149D01*
X0002207095Y0001821973D01*
X0002206425Y0001820856D01*
X0002205650Y0001819810D01*
X0002204775Y0001818846D01*
X0002203811Y0001817971D01*
X0002202765Y0001817196D01*
X0002201648Y0001816527D01*
X0002200472Y0001815970D01*
X0002199246Y0001815531D01*
X0002197983Y0001815215D01*
X0002196695Y0001815024D01*
X0002195395Y0001814960D01*
X0002160903Y0001814960D01*
X0002159603Y0001815024D01*
X0002158315Y0001815215D01*
X0002157052Y0001815531D01*
X0002155827Y0001815970D01*
X0002154650Y0001816527D01*
X0002153533Y0001817196D01*
X0002152487Y0001817971D01*
X0002151523Y0001818846D01*
X0002150649Y0001819810D01*
X0002149873Y0001820856D01*
X0002149204Y0001821973D01*
X0002148647Y0001823149D01*
X0002148208Y0001824375D01*
X0002147892Y0001825638D01*
X0002147701Y0001826926D01*
X0002147637Y0001828226D01*
X0002147637Y0001872560D01*
X0002147701Y0001873861D01*
X0002147892Y0001875148D01*
X0002148208Y0001876411D01*
X0002148647Y0001877637D01*
X0002149204Y0001878814D01*
X0002149873Y0001879930D01*
X0002150649Y0001880976D01*
X0002151523Y0001881941D01*
X0002152487Y0001882815D01*
X0002153533Y0001883591D01*
X0002154650Y0001884260D01*
X0002155827Y0001884816D01*
X0002157052Y0001885255D01*
X0002158315Y0001885571D01*
X0002159603Y0001885762D01*
X0002160903Y0001885826D01*
X0002195395Y0001885826D01*
X0002196695Y0001885762D01*
X0002196695Y0001885762D01*
G37*
D83*
X0002178149Y0001850393D03*
D81*
G36*
X0002277404Y0001885762D02*
G01*
X0002278692Y0001885571D01*
X0002279954Y0001885255D01*
X0002281180Y0001884816D01*
X0002282357Y0001884260D01*
X0002283474Y0001883591D01*
X0002284519Y0001882815D01*
X0002285484Y0001881941D01*
X0002286358Y0001880976D01*
X0002287134Y0001879930D01*
X0002287803Y0001878814D01*
X0002288360Y0001877637D01*
X0002288798Y0001876411D01*
X0002289115Y0001875148D01*
X0002289306Y0001873861D01*
X0002289370Y0001872560D01*
X0002289370Y0001828226D01*
X0002289306Y0001826926D01*
X0002289115Y0001825638D01*
X0002288798Y0001824375D01*
X0002288360Y0001823149D01*
X0002287803Y0001821973D01*
X0002287134Y0001820856D01*
X0002286358Y0001819810D01*
X0002285484Y0001818846D01*
X0002284519Y0001817971D01*
X0002283474Y0001817196D01*
X0002282357Y0001816527D01*
X0002281180Y0001815970D01*
X0002279954Y0001815531D01*
X0002278692Y0001815215D01*
X0002277404Y0001815024D01*
X0002276104Y0001814960D01*
X0002241612Y0001814960D01*
X0002240312Y0001815024D01*
X0002239024Y0001815215D01*
X0002237761Y0001815531D01*
X0002236535Y0001815970D01*
X0002235358Y0001816527D01*
X0002234242Y0001817196D01*
X0002233196Y0001817971D01*
X0002232231Y0001818846D01*
X0002231357Y0001819810D01*
X0002230582Y0001820856D01*
X0002229912Y0001821973D01*
X0002229356Y0001823149D01*
X0002228917Y0001824375D01*
X0002228601Y0001825638D01*
X0002228410Y0001826926D01*
X0002228346Y0001828226D01*
X0002228346Y0001872560D01*
X0002228410Y0001873861D01*
X0002228601Y0001875148D01*
X0002228917Y0001876411D01*
X0002229356Y0001877637D01*
X0002229912Y0001878814D01*
X0002230582Y0001879930D01*
X0002231357Y0001880976D01*
X0002232231Y0001881941D01*
X0002233196Y0001882815D01*
X0002234242Y0001883591D01*
X0002235358Y0001884260D01*
X0002236535Y0001884816D01*
X0002237761Y0001885255D01*
X0002239024Y0001885571D01*
X0002240312Y0001885762D01*
X0002241612Y0001885826D01*
X0002276104Y0001885826D01*
X0002277404Y0001885762D01*
X0002277404Y0001885762D01*
G37*
D83*
X0002258858Y0001850393D03*
D81*
G36*
X0002163231Y0002153479D02*
G01*
X0002164518Y0002153288D01*
X0002165781Y0002152972D01*
X0002167007Y0002152533D01*
X0002168184Y0002151976D01*
X0002169301Y0002151307D01*
X0002170346Y0002150532D01*
X0002171311Y0002149657D01*
X0002172185Y0002148693D01*
X0002172961Y0002147647D01*
X0002173630Y0002146530D01*
X0002174187Y0002145353D01*
X0002174625Y0002144128D01*
X0002174941Y0002142865D01*
X0002175132Y0002141577D01*
X0002175196Y0002140277D01*
X0002175196Y0002095943D01*
X0002175132Y0002094642D01*
X0002174941Y0002093355D01*
X0002174625Y0002092092D01*
X0002174187Y0002090866D01*
X0002173630Y0002089689D01*
X0002172961Y0002088572D01*
X0002172185Y0002087527D01*
X0002171311Y0002086562D01*
X0002170346Y0002085688D01*
X0002169301Y0002084912D01*
X0002168184Y0002084243D01*
X0002167007Y0002083686D01*
X0002165781Y0002083248D01*
X0002164518Y0002082932D01*
X0002163231Y0002082741D01*
X0002161930Y0002082677D01*
X0002127439Y0002082677D01*
X0002126138Y0002082741D01*
X0002124851Y0002082932D01*
X0002123588Y0002083248D01*
X0002122362Y0002083686D01*
X0002121185Y0002084243D01*
X0002120068Y0002084912D01*
X0002119023Y0002085688D01*
X0002118058Y0002086562D01*
X0002117184Y0002087527D01*
X0002116408Y0002088572D01*
X0002115739Y0002089689D01*
X0002115183Y0002090866D01*
X0002114744Y0002092092D01*
X0002114428Y0002093355D01*
X0002114237Y0002094642D01*
X0002114173Y0002095943D01*
X0002114173Y0002140277D01*
X0002114237Y0002141577D01*
X0002114428Y0002142865D01*
X0002114744Y0002144128D01*
X0002115183Y0002145353D01*
X0002115739Y0002146530D01*
X0002116408Y0002147647D01*
X0002117184Y0002148693D01*
X0002118058Y0002149657D01*
X0002119023Y0002150532D01*
X0002120068Y0002151307D01*
X0002121185Y0002151976D01*
X0002122362Y0002152533D01*
X0002123588Y0002152972D01*
X0002124851Y0002153288D01*
X0002126138Y0002153479D01*
X0002127439Y0002153543D01*
X0002161930Y0002153543D01*
X0002163231Y0002153479D01*
X0002163231Y0002153479D01*
G37*
D83*
X0002144685Y0002118110D03*
D81*
G36*
X0002243939Y0002153479D02*
G01*
X0002245227Y0002153288D01*
X0002246490Y0002152972D01*
X0002247716Y0002152533D01*
X0002248893Y0002151976D01*
X0002250009Y0002151307D01*
X0002251055Y0002150532D01*
X0002252020Y0002149657D01*
X0002252894Y0002148693D01*
X0002253669Y0002147647D01*
X0002254339Y0002146530D01*
X0002254895Y0002145353D01*
X0002255334Y0002144128D01*
X0002255650Y0002142865D01*
X0002255841Y0002141577D01*
X0002255905Y0002140277D01*
X0002255905Y0002095943D01*
X0002255841Y0002094642D01*
X0002255650Y0002093355D01*
X0002255334Y0002092092D01*
X0002254895Y0002090866D01*
X0002254339Y0002089689D01*
X0002253669Y0002088572D01*
X0002252894Y0002087527D01*
X0002252020Y0002086562D01*
X0002251055Y0002085688D01*
X0002250009Y0002084912D01*
X0002248893Y0002084243D01*
X0002247716Y0002083686D01*
X0002246490Y0002083248D01*
X0002245227Y0002082932D01*
X0002243939Y0002082741D01*
X0002242639Y0002082677D01*
X0002208147Y0002082677D01*
X0002206847Y0002082741D01*
X0002205559Y0002082932D01*
X0002204296Y0002083248D01*
X0002203071Y0002083686D01*
X0002201894Y0002084243D01*
X0002200777Y0002084912D01*
X0002199731Y0002085688D01*
X0002198767Y0002086562D01*
X0002197893Y0002087527D01*
X0002197117Y0002088572D01*
X0002196448Y0002089689D01*
X0002195891Y0002090866D01*
X0002195453Y0002092092D01*
X0002195136Y0002093355D01*
X0002194945Y0002094642D01*
X0002194881Y0002095943D01*
X0002194881Y0002140277D01*
X0002194945Y0002141577D01*
X0002195136Y0002142865D01*
X0002195453Y0002144128D01*
X0002195891Y0002145353D01*
X0002196448Y0002146530D01*
X0002197117Y0002147647D01*
X0002197893Y0002148693D01*
X0002198767Y0002149657D01*
X0002199731Y0002150532D01*
X0002200777Y0002151307D01*
X0002201894Y0002151976D01*
X0002203071Y0002152533D01*
X0002204296Y0002152972D01*
X0002205559Y0002153288D01*
X0002206847Y0002153479D01*
X0002208147Y0002153543D01*
X0002242639Y0002153543D01*
X0002243939Y0002153479D01*
X0002243939Y0002153479D01*
G37*
D83*
X0002225393Y0002118110D03*
D81*
G36*
X0002559884Y0002360172D02*
G01*
X0002561172Y0002359981D01*
X0002562435Y0002359665D01*
X0002563661Y0002359226D01*
X0002564837Y0002358669D01*
X0002565954Y0002358000D01*
X0002567000Y0002357225D01*
X0002567964Y0002356350D01*
X0002568839Y0002355386D01*
X0002569614Y0002354340D01*
X0002570283Y0002353223D01*
X0002570840Y0002352046D01*
X0002571279Y0002350821D01*
X0002571595Y0002349558D01*
X0002571786Y0002348270D01*
X0002571850Y0002346970D01*
X0002571850Y0002302636D01*
X0002571786Y0002301335D01*
X0002571595Y0002300047D01*
X0002571279Y0002298785D01*
X0002570840Y0002297559D01*
X0002570283Y0002296382D01*
X0002569614Y0002295265D01*
X0002568839Y0002294220D01*
X0002567964Y0002293255D01*
X0002567000Y0002292381D01*
X0002565954Y0002291605D01*
X0002564837Y0002290936D01*
X0002563661Y0002290379D01*
X0002562435Y0002289941D01*
X0002561172Y0002289625D01*
X0002559884Y0002289433D01*
X0002558584Y0002289370D01*
X0002524092Y0002289370D01*
X0002522792Y0002289433D01*
X0002521504Y0002289625D01*
X0002520241Y0002289941D01*
X0002519016Y0002290379D01*
X0002517839Y0002290936D01*
X0002516722Y0002291605D01*
X0002515676Y0002292381D01*
X0002514712Y0002293255D01*
X0002513837Y0002294220D01*
X0002513062Y0002295265D01*
X0002512393Y0002296382D01*
X0002511836Y0002297559D01*
X0002511397Y0002298785D01*
X0002511081Y0002300047D01*
X0002510890Y0002301335D01*
X0002510826Y0002302636D01*
X0002510826Y0002346970D01*
X0002510890Y0002348270D01*
X0002511081Y0002349558D01*
X0002511397Y0002350821D01*
X0002511836Y0002352046D01*
X0002512393Y0002353223D01*
X0002513062Y0002354340D01*
X0002513837Y0002355386D01*
X0002514712Y0002356350D01*
X0002515676Y0002357225D01*
X0002516722Y0002358000D01*
X0002517839Y0002358669D01*
X0002519016Y0002359226D01*
X0002520241Y0002359665D01*
X0002521504Y0002359981D01*
X0002522792Y0002360172D01*
X0002524092Y0002360236D01*
X0002558584Y0002360236D01*
X0002559884Y0002360172D01*
X0002559884Y0002360172D01*
G37*
D83*
X0002541338Y0002324803D03*
D81*
G36*
X0002640593Y0002360172D02*
G01*
X0002641881Y0002359981D01*
X0002643143Y0002359665D01*
X0002644369Y0002359226D01*
X0002645546Y0002358669D01*
X0002646663Y0002358000D01*
X0002647708Y0002357225D01*
X0002648673Y0002356350D01*
X0002649547Y0002355386D01*
X0002650323Y0002354340D01*
X0002650992Y0002353223D01*
X0002651549Y0002352046D01*
X0002651987Y0002350821D01*
X0002652304Y0002349558D01*
X0002652495Y0002348270D01*
X0002652559Y0002346970D01*
X0002652559Y0002302636D01*
X0002652495Y0002301335D01*
X0002652304Y0002300047D01*
X0002651987Y0002298785D01*
X0002651549Y0002297559D01*
X0002650992Y0002296382D01*
X0002650323Y0002295265D01*
X0002649547Y0002294220D01*
X0002648673Y0002293255D01*
X0002647708Y0002292381D01*
X0002646663Y0002291605D01*
X0002645546Y0002290936D01*
X0002644369Y0002290379D01*
X0002643143Y0002289941D01*
X0002641881Y0002289625D01*
X0002640593Y0002289433D01*
X0002639293Y0002289370D01*
X0002604801Y0002289370D01*
X0002603501Y0002289433D01*
X0002602213Y0002289625D01*
X0002600950Y0002289941D01*
X0002599724Y0002290379D01*
X0002598547Y0002290936D01*
X0002597431Y0002291605D01*
X0002596385Y0002292381D01*
X0002595420Y0002293255D01*
X0002594546Y0002294220D01*
X0002593771Y0002295265D01*
X0002593101Y0002296382D01*
X0002592545Y0002297559D01*
X0002592106Y0002298785D01*
X0002591790Y0002300047D01*
X0002591599Y0002301335D01*
X0002591535Y0002302636D01*
X0002591535Y0002346970D01*
X0002591599Y0002348270D01*
X0002591790Y0002349558D01*
X0002592106Y0002350821D01*
X0002592545Y0002352046D01*
X0002593101Y0002353223D01*
X0002593771Y0002354340D01*
X0002594546Y0002355386D01*
X0002595420Y0002356350D01*
X0002596385Y0002357225D01*
X0002597431Y0002358000D01*
X0002598547Y0002358669D01*
X0002599724Y0002359226D01*
X0002600950Y0002359665D01*
X0002602213Y0002359981D01*
X0002603501Y0002360172D01*
X0002604801Y0002360236D01*
X0002639293Y0002360236D01*
X0002640593Y0002360172D01*
X0002640593Y0002360172D01*
G37*
D83*
X0002622047Y0002324803D03*
D84*
X0002419291Y0002218503D03*
D81*
G36*
X0002419050Y0002181126D02*
G01*
X0002418325Y0002181126D01*
X0002417553Y0002181163D01*
X0002415631Y0002181353D01*
X0002414866Y0002181466D01*
X0002412972Y0002181843D01*
X0002412222Y0002182031D01*
X0002410373Y0002182592D01*
X0002409646Y0002182852D01*
X0002407861Y0002183591D01*
X0002407162Y0002183922D01*
X0002405459Y0002184832D01*
X0002404796Y0002185229D01*
X0002403190Y0002186303D01*
X0002402569Y0002186763D01*
X0002401076Y0002187989D01*
X0002400503Y0002188507D01*
X0002399137Y0002189874D01*
X0002398619Y0002190446D01*
X0002397393Y0002191939D01*
X0002396933Y0002192560D01*
X0002395859Y0002194166D01*
X0002395462Y0002194829D01*
X0002394552Y0002196533D01*
X0002394221Y0002197231D01*
X0002393482Y0002199016D01*
X0002393222Y0002199743D01*
X0002392661Y0002201592D01*
X0002392473Y0002202342D01*
X0002392096Y0002204237D01*
X0002391983Y0002205001D01*
X0002391793Y0002206923D01*
X0002391755Y0002207695D01*
X0002391755Y0002208420D01*
X0002391732Y0002208661D01*
X0002391732Y0002228346D01*
X0002391755Y0002228587D01*
X0002391755Y0002229312D01*
X0002391793Y0002230084D01*
X0002391983Y0002232006D01*
X0002392096Y0002232770D01*
X0002392473Y0002234665D01*
X0002392661Y0002235415D01*
X0002393222Y0002237263D01*
X0002393482Y0002237991D01*
X0002394221Y0002239776D01*
X0002394552Y0002240474D01*
X0002395462Y0002242178D01*
X0002395859Y0002242841D01*
X0002396933Y0002244447D01*
X0002397393Y0002245068D01*
X0002398619Y0002246561D01*
X0002399137Y0002247133D01*
X0002400503Y0002248499D01*
X0002401076Y0002249018D01*
X0002402569Y0002250244D01*
X0002403190Y0002250704D01*
X0002404796Y0002251777D01*
X0002405459Y0002252175D01*
X0002407162Y0002253085D01*
X0002407861Y0002253416D01*
X0002409646Y0002254155D01*
X0002410373Y0002254415D01*
X0002412222Y0002254976D01*
X0002412972Y0002255164D01*
X0002414866Y0002255541D01*
X0002415631Y0002255654D01*
X0002417553Y0002255843D01*
X0002418325Y0002255881D01*
X0002419050Y0002255881D01*
X0002419291Y0002255905D01*
X0002438976Y0002255905D01*
X0002440512Y0002255754D01*
X0002441989Y0002255306D01*
X0002443350Y0002254578D01*
X0002444544Y0002253599D01*
X0002445523Y0002252406D01*
X0002446250Y0002251044D01*
X0002446699Y0002249567D01*
X0002446850Y0002248031D01*
X0002446850Y0002188976D01*
X0002446699Y0002187440D01*
X0002446250Y0002185963D01*
X0002445523Y0002184601D01*
X0002444544Y0002183408D01*
X0002443350Y0002182429D01*
X0002441989Y0002181701D01*
X0002440512Y0002181253D01*
X0002438976Y0002181102D01*
X0002419291Y0002181102D01*
X0002419050Y0002181126D01*
X0002419050Y0002181126D01*
G37*
D84*
X0002470472Y0002218503D03*
D81*
G36*
X0002449251Y0002181253D02*
G01*
X0002447774Y0002181701D01*
X0002446412Y0002182429D01*
X0002445219Y0002183408D01*
X0002444240Y0002184601D01*
X0002443512Y0002185963D01*
X0002443064Y0002187440D01*
X0002442913Y0002188976D01*
X0002442913Y0002248031D01*
X0002443064Y0002249567D01*
X0002443512Y0002251044D01*
X0002444240Y0002252406D01*
X0002445219Y0002253599D01*
X0002446412Y0002254578D01*
X0002447774Y0002255306D01*
X0002449251Y0002255754D01*
X0002450787Y0002255905D01*
X0002470472Y0002255905D01*
X0002470713Y0002255881D01*
X0002471438Y0002255881D01*
X0002472210Y0002255843D01*
X0002474132Y0002255654D01*
X0002474896Y0002255541D01*
X0002476791Y0002255164D01*
X0002477541Y0002254976D01*
X0002479389Y0002254415D01*
X0002480117Y0002254155D01*
X0002481902Y0002253416D01*
X0002482600Y0002253085D01*
X0002484304Y0002252175D01*
X0002484967Y0002251777D01*
X0002486573Y0002250704D01*
X0002487194Y0002250244D01*
X0002488687Y0002249018D01*
X0002489259Y0002248499D01*
X0002490625Y0002247133D01*
X0002491144Y0002246561D01*
X0002492370Y0002245068D01*
X0002492830Y0002244447D01*
X0002493903Y0002242841D01*
X0002494300Y0002242178D01*
X0002495211Y0002240474D01*
X0002495542Y0002239776D01*
X0002496281Y0002237991D01*
X0002496541Y0002237263D01*
X0002497102Y0002235415D01*
X0002497290Y0002234665D01*
X0002497667Y0002232770D01*
X0002497780Y0002232006D01*
X0002497969Y0002230084D01*
X0002498007Y0002229312D01*
X0002498007Y0002228587D01*
X0002498031Y0002228346D01*
X0002498031Y0002208661D01*
X0002498007Y0002208420D01*
X0002498007Y0002207695D01*
X0002497969Y0002206923D01*
X0002497780Y0002205001D01*
X0002497667Y0002204237D01*
X0002497290Y0002202342D01*
X0002497102Y0002201592D01*
X0002496541Y0002199743D01*
X0002496281Y0002199016D01*
X0002495542Y0002197231D01*
X0002495211Y0002196533D01*
X0002494300Y0002194829D01*
X0002493903Y0002194166D01*
X0002492830Y0002192560D01*
X0002492370Y0002191939D01*
X0002491144Y0002190446D01*
X0002490625Y0002189874D01*
X0002489259Y0002188507D01*
X0002488687Y0002187989D01*
X0002487194Y0002186763D01*
X0002486573Y0002186303D01*
X0002484967Y0002185229D01*
X0002484304Y0002184832D01*
X0002482600Y0002183922D01*
X0002481902Y0002183591D01*
X0002480117Y0002182852D01*
X0002479389Y0002182592D01*
X0002477541Y0002182031D01*
X0002476791Y0002181843D01*
X0002474896Y0002181466D01*
X0002474132Y0002181353D01*
X0002472210Y0002181163D01*
X0002471438Y0002181126D01*
X0002470713Y0002181126D01*
X0002470472Y0002181102D01*
X0002450787Y0002181102D01*
X0002449251Y0002181253D01*
X0002449251Y0002181253D01*
G37*
D80*
X0002624350Y0001981043D03*
X0002624350Y0002081043D03*
X0002624350Y0002181043D03*
D85*
X0002622440Y0002429842D03*
X0002543700Y0002429842D03*
X0002464960Y0002429842D03*
X0002386220Y0002429842D03*
X0002307480Y0002429842D03*
X0002228740Y0002429842D03*
X0002150000Y0002429842D03*
X0002071259Y0002429842D03*
X0002307480Y0003177874D03*
X0002386220Y0003177874D03*
X0002228740Y0003177874D03*
D86*
X0002257873Y0002037795D03*
X0002183070Y0002037795D03*
X0002183070Y0001934645D03*
X0002220472Y0001934645D03*
X0002257873Y0001934645D03*
D87*
X0001945295Y0002738543D03*
X0001945295Y0002938543D03*
X0001945295Y0003138543D03*
X0001944350Y0002838543D03*
X0001944350Y0003038543D03*
D88*
X0002601850Y0003238543D03*
X0001966850Y0001803543D03*
D89*
X0001961850Y0003251043D03*
G04 next file*
G04 #@! TF.GenerationSoftware,KiCad,Pcbnew,(5.1.2)-2*
G04 #@! TF.CreationDate,2019-11-25T21:39:26+01:00*
G04 #@! TF.ProjectId,HM-LC-SW1-BA-PCB_mini_MAX1724,484d2d4c-432d-4535-9731-2d42412d5043,rev?*
G04 #@! TF.SameCoordinates,Original*
G04 #@! TF.FileFunction,Soldermask,Bot*
G04 #@! TF.FilePolarity,Negative*
G04 Gerber Fmt 4.6, Leading zero omitted, Abs format (unit mm)*
G04 Created by KiCad (PCBNEW (5.1.2)-2) date 2019-11-25 21:39:26*
G04 APERTURE LIST*
G04 APERTURE END LIST*
D90*
X-0003858267Y0006653543D02*
X0002885826Y0001981102D03*
X0002885826Y0002081102D03*
X0002885826Y0002181102D03*
D91*
G36*
X0003408833Y0002121959D02*
G01*
X0003410594Y0002121698D01*
X0003412321Y0002121266D01*
X0003413997Y0002120666D01*
X0003415607Y0002119905D01*
X0003417134Y0002118989D01*
X0003418564Y0002117929D01*
X0003419883Y0002116733D01*
X0003421078Y0002115414D01*
X0003422139Y0002113984D01*
X0003423054Y0002112457D01*
X0003423815Y0002110848D01*
X0003424415Y0002109171D01*
X0003424848Y0002107444D01*
X0003425109Y0002105683D01*
X0003425196Y0002103905D01*
X0003425196Y0002045700D01*
X0003425109Y0002043922D01*
X0003424848Y0002042161D01*
X0003424415Y0002040434D01*
X0003423815Y0002038758D01*
X0003423054Y0002037148D01*
X0003422139Y0002035621D01*
X0003421078Y0002034191D01*
X0003419883Y0002032872D01*
X0003418564Y0002031677D01*
X0003417134Y0002030616D01*
X0003415607Y0002029701D01*
X0003413997Y0002028940D01*
X0003412321Y0002028340D01*
X0003410594Y0002027907D01*
X0003408833Y0002027646D01*
X0003407055Y0002027559D01*
X0003293732Y0002027559D01*
X0003291954Y0002027646D01*
X0003290192Y0002027907D01*
X0003288466Y0002028340D01*
X0003286789Y0002028940D01*
X0003285180Y0002029701D01*
X0003283653Y0002030616D01*
X0003282223Y0002031677D01*
X0003280904Y0002032872D01*
X0003279708Y0002034191D01*
X0003278647Y0002035621D01*
X0003277732Y0002037148D01*
X0003276971Y0002038758D01*
X0003276371Y0002040434D01*
X0003275939Y0002042161D01*
X0003275677Y0002043922D01*
X0003275590Y0002045700D01*
X0003275590Y0002103905D01*
X0003275677Y0002105683D01*
X0003275939Y0002107444D01*
X0003276371Y0002109171D01*
X0003276971Y0002110848D01*
X0003277732Y0002112457D01*
X0003278647Y0002113984D01*
X0003279708Y0002115414D01*
X0003280904Y0002116733D01*
X0003282223Y0002117929D01*
X0003283653Y0002118989D01*
X0003285180Y0002119905D01*
X0003286789Y0002120666D01*
X0003288466Y0002121266D01*
X0003290192Y0002121698D01*
X0003291954Y0002121959D01*
X0003293732Y0002122047D01*
X0003407055Y0002122047D01*
X0003408833Y0002121959D01*
X0003408833Y0002121959D01*
G37*
D92*
X0003350393Y0002074803D03*
D91*
G36*
X0003408833Y0001936920D02*
G01*
X0003410594Y0001936659D01*
X0003412321Y0001936226D01*
X0003413997Y0001935626D01*
X0003415607Y0001934865D01*
X0003417134Y0001933950D01*
X0003418564Y0001932889D01*
X0003419883Y0001931694D01*
X0003421078Y0001930375D01*
X0003422139Y0001928945D01*
X0003423054Y0001927418D01*
X0003423815Y0001925808D01*
X0003424415Y0001924132D01*
X0003424848Y0001922405D01*
X0003425109Y0001920644D01*
X0003425196Y0001918866D01*
X0003425196Y0001860661D01*
X0003425109Y0001858883D01*
X0003424848Y0001857122D01*
X0003424415Y0001855395D01*
X0003423815Y0001853718D01*
X0003423054Y0001852109D01*
X0003422139Y0001850582D01*
X0003421078Y0001849152D01*
X0003419883Y0001847833D01*
X0003418564Y0001846637D01*
X0003417134Y0001845577D01*
X0003415607Y0001844661D01*
X0003413997Y0001843900D01*
X0003412321Y0001843300D01*
X0003410594Y0001842868D01*
X0003408833Y0001842607D01*
X0003407055Y0001842519D01*
X0003293732Y0001842519D01*
X0003291954Y0001842607D01*
X0003290192Y0001842868D01*
X0003288466Y0001843300D01*
X0003286789Y0001843900D01*
X0003285180Y0001844661D01*
X0003283653Y0001845577D01*
X0003282223Y0001846637D01*
X0003280904Y0001847833D01*
X0003279708Y0001849152D01*
X0003278647Y0001850582D01*
X0003277732Y0001852109D01*
X0003276971Y0001853718D01*
X0003276371Y0001855395D01*
X0003275939Y0001857122D01*
X0003275677Y0001858883D01*
X0003275590Y0001860661D01*
X0003275590Y0001918866D01*
X0003275677Y0001920644D01*
X0003275939Y0001922405D01*
X0003276371Y0001924132D01*
X0003276971Y0001925808D01*
X0003277732Y0001927418D01*
X0003278647Y0001928945D01*
X0003279708Y0001930375D01*
X0003280904Y0001931694D01*
X0003282223Y0001932889D01*
X0003283653Y0001933950D01*
X0003285180Y0001934865D01*
X0003286789Y0001935626D01*
X0003288466Y0001936226D01*
X0003290192Y0001936659D01*
X0003291954Y0001936920D01*
X0003293732Y0001937007D01*
X0003407055Y0001937007D01*
X0003408833Y0001936920D01*
X0003408833Y0001936920D01*
G37*
D92*
X0003350393Y0001889763D03*
D91*
G36*
X0003141577Y0001885762D02*
G01*
X0003142865Y0001885571D01*
X0003144128Y0001885255D01*
X0003145353Y0001884816D01*
X0003146530Y0001884260D01*
X0003147647Y0001883591D01*
X0003148693Y0001882815D01*
X0003149657Y0001881941D01*
X0003150532Y0001880976D01*
X0003151307Y0001879930D01*
X0003151976Y0001878814D01*
X0003152533Y0001877637D01*
X0003152972Y0001876411D01*
X0003153288Y0001875148D01*
X0003153479Y0001873861D01*
X0003153543Y0001872560D01*
X0003153543Y0001828226D01*
X0003153479Y0001826926D01*
X0003153288Y0001825638D01*
X0003152972Y0001824375D01*
X0003152533Y0001823149D01*
X0003151976Y0001821973D01*
X0003151307Y0001820856D01*
X0003150532Y0001819810D01*
X0003149657Y0001818846D01*
X0003148693Y0001817971D01*
X0003147647Y0001817196D01*
X0003146530Y0001816527D01*
X0003145353Y0001815970D01*
X0003144128Y0001815531D01*
X0003142865Y0001815215D01*
X0003141577Y0001815024D01*
X0003140277Y0001814960D01*
X0003105785Y0001814960D01*
X0003104485Y0001815024D01*
X0003103197Y0001815215D01*
X0003101934Y0001815531D01*
X0003100708Y0001815970D01*
X0003099532Y0001816527D01*
X0003098415Y0001817196D01*
X0003097369Y0001817971D01*
X0003096405Y0001818846D01*
X0003095530Y0001819810D01*
X0003094755Y0001820856D01*
X0003094086Y0001821973D01*
X0003093529Y0001823149D01*
X0003093090Y0001824375D01*
X0003092774Y0001825638D01*
X0003092583Y0001826926D01*
X0003092519Y0001828226D01*
X0003092519Y0001872560D01*
X0003092583Y0001873861D01*
X0003092774Y0001875148D01*
X0003093090Y0001876411D01*
X0003093529Y0001877637D01*
X0003094086Y0001878814D01*
X0003094755Y0001879930D01*
X0003095530Y0001880976D01*
X0003096405Y0001881941D01*
X0003097369Y0001882815D01*
X0003098415Y0001883591D01*
X0003099532Y0001884260D01*
X0003100708Y0001884816D01*
X0003101934Y0001885255D01*
X0003103197Y0001885571D01*
X0003104485Y0001885762D01*
X0003105785Y0001885826D01*
X0003140277Y0001885826D01*
X0003141577Y0001885762D01*
X0003141577Y0001885762D01*
G37*
D93*
X0003123031Y0001850393D03*
D91*
G36*
X0003222286Y0001885762D02*
G01*
X0003223574Y0001885571D01*
X0003224836Y0001885255D01*
X0003226062Y0001884816D01*
X0003227239Y0001884260D01*
X0003228356Y0001883591D01*
X0003229401Y0001882815D01*
X0003230366Y0001881941D01*
X0003231240Y0001880976D01*
X0003232016Y0001879930D01*
X0003232685Y0001878814D01*
X0003233242Y0001877637D01*
X0003233680Y0001876411D01*
X0003233997Y0001875148D01*
X0003234188Y0001873861D01*
X0003234251Y0001872560D01*
X0003234251Y0001828226D01*
X0003234188Y0001826926D01*
X0003233997Y0001825638D01*
X0003233680Y0001824375D01*
X0003233242Y0001823149D01*
X0003232685Y0001821973D01*
X0003232016Y0001820856D01*
X0003231240Y0001819810D01*
X0003230366Y0001818846D01*
X0003229401Y0001817971D01*
X0003228356Y0001817196D01*
X0003227239Y0001816527D01*
X0003226062Y0001815970D01*
X0003224836Y0001815531D01*
X0003223574Y0001815215D01*
X0003222286Y0001815024D01*
X0003220985Y0001814960D01*
X0003186494Y0001814960D01*
X0003185194Y0001815024D01*
X0003183906Y0001815215D01*
X0003182643Y0001815531D01*
X0003181417Y0001815970D01*
X0003180240Y0001816527D01*
X0003179124Y0001817196D01*
X0003178078Y0001817971D01*
X0003177113Y0001818846D01*
X0003176239Y0001819810D01*
X0003175464Y0001820856D01*
X0003174794Y0001821973D01*
X0003174238Y0001823149D01*
X0003173799Y0001824375D01*
X0003173483Y0001825638D01*
X0003173292Y0001826926D01*
X0003173228Y0001828226D01*
X0003173228Y0001872560D01*
X0003173292Y0001873861D01*
X0003173483Y0001875148D01*
X0003173799Y0001876411D01*
X0003174238Y0001877637D01*
X0003174794Y0001878814D01*
X0003175464Y0001879930D01*
X0003176239Y0001880976D01*
X0003177113Y0001881941D01*
X0003178078Y0001882815D01*
X0003179124Y0001883591D01*
X0003180240Y0001884260D01*
X0003181417Y0001884816D01*
X0003182643Y0001885255D01*
X0003183906Y0001885571D01*
X0003185194Y0001885762D01*
X0003186494Y0001885826D01*
X0003220985Y0001885826D01*
X0003222286Y0001885762D01*
X0003222286Y0001885762D01*
G37*
D93*
X0003203740Y0001850393D03*
D91*
G36*
X0003108112Y0002153479D02*
G01*
X0003109400Y0002153288D01*
X0003110663Y0002152972D01*
X0003111889Y0002152533D01*
X0003113066Y0002151976D01*
X0003114182Y0002151307D01*
X0003115228Y0002150532D01*
X0003116193Y0002149657D01*
X0003117067Y0002148693D01*
X0003117842Y0002147647D01*
X0003118512Y0002146530D01*
X0003119068Y0002145353D01*
X0003119507Y0002144128D01*
X0003119823Y0002142865D01*
X0003120014Y0002141577D01*
X0003120078Y0002140277D01*
X0003120078Y0002095943D01*
X0003120014Y0002094642D01*
X0003119823Y0002093355D01*
X0003119507Y0002092092D01*
X0003119068Y0002090866D01*
X0003118512Y0002089689D01*
X0003117842Y0002088572D01*
X0003117067Y0002087527D01*
X0003116193Y0002086562D01*
X0003115228Y0002085688D01*
X0003114182Y0002084912D01*
X0003113066Y0002084243D01*
X0003111889Y0002083686D01*
X0003110663Y0002083248D01*
X0003109400Y0002082932D01*
X0003108112Y0002082741D01*
X0003106812Y0002082677D01*
X0003072321Y0002082677D01*
X0003071020Y0002082741D01*
X0003069732Y0002082932D01*
X0003068470Y0002083248D01*
X0003067244Y0002083686D01*
X0003066067Y0002084243D01*
X0003064950Y0002084912D01*
X0003063905Y0002085688D01*
X0003062940Y0002086562D01*
X0003062066Y0002087527D01*
X0003061290Y0002088572D01*
X0003060621Y0002089689D01*
X0003060064Y0002090866D01*
X0003059626Y0002092092D01*
X0003059310Y0002093355D01*
X0003059119Y0002094642D01*
X0003059055Y0002095943D01*
X0003059055Y0002140277D01*
X0003059119Y0002141577D01*
X0003059310Y0002142865D01*
X0003059626Y0002144128D01*
X0003060064Y0002145353D01*
X0003060621Y0002146530D01*
X0003061290Y0002147647D01*
X0003062066Y0002148693D01*
X0003062940Y0002149657D01*
X0003063905Y0002150532D01*
X0003064950Y0002151307D01*
X0003066067Y0002151976D01*
X0003067244Y0002152533D01*
X0003068470Y0002152972D01*
X0003069732Y0002153288D01*
X0003071020Y0002153479D01*
X0003072321Y0002153543D01*
X0003106812Y0002153543D01*
X0003108112Y0002153479D01*
X0003108112Y0002153479D01*
G37*
D93*
X0003089566Y0002118110D03*
D91*
G36*
X0003188821Y0002153479D02*
G01*
X0003190109Y0002153288D01*
X0003191372Y0002152972D01*
X0003192598Y0002152533D01*
X0003193774Y0002151976D01*
X0003194891Y0002151307D01*
X0003195937Y0002150532D01*
X0003196901Y0002149657D01*
X0003197776Y0002148693D01*
X0003198551Y0002147647D01*
X0003199220Y0002146530D01*
X0003199777Y0002145353D01*
X0003200216Y0002144128D01*
X0003200532Y0002142865D01*
X0003200723Y0002141577D01*
X0003200787Y0002140277D01*
X0003200787Y0002095943D01*
X0003200723Y0002094642D01*
X0003200532Y0002093355D01*
X0003200216Y0002092092D01*
X0003199777Y0002090866D01*
X0003199220Y0002089689D01*
X0003198551Y0002088572D01*
X0003197776Y0002087527D01*
X0003196901Y0002086562D01*
X0003195937Y0002085688D01*
X0003194891Y0002084912D01*
X0003193774Y0002084243D01*
X0003192598Y0002083686D01*
X0003191372Y0002083248D01*
X0003190109Y0002082932D01*
X0003188821Y0002082741D01*
X0003187521Y0002082677D01*
X0003153029Y0002082677D01*
X0003151729Y0002082741D01*
X0003150441Y0002082932D01*
X0003149178Y0002083248D01*
X0003147953Y0002083686D01*
X0003146776Y0002084243D01*
X0003145659Y0002084912D01*
X0003144613Y0002085688D01*
X0003143649Y0002086562D01*
X0003142774Y0002087527D01*
X0003141999Y0002088572D01*
X0003141330Y0002089689D01*
X0003140773Y0002090866D01*
X0003140335Y0002092092D01*
X0003140018Y0002093355D01*
X0003139827Y0002094642D01*
X0003139763Y0002095943D01*
X0003139763Y0002140277D01*
X0003139827Y0002141577D01*
X0003140018Y0002142865D01*
X0003140335Y0002144128D01*
X0003140773Y0002145353D01*
X0003141330Y0002146530D01*
X0003141999Y0002147647D01*
X0003142774Y0002148693D01*
X0003143649Y0002149657D01*
X0003144613Y0002150532D01*
X0003145659Y0002151307D01*
X0003146776Y0002151976D01*
X0003147953Y0002152533D01*
X0003149178Y0002152972D01*
X0003150441Y0002153288D01*
X0003151729Y0002153479D01*
X0003153029Y0002153543D01*
X0003187521Y0002153543D01*
X0003188821Y0002153479D01*
X0003188821Y0002153479D01*
G37*
D93*
X0003170275Y0002118110D03*
D91*
G36*
X0003504766Y0002360172D02*
G01*
X0003506054Y0002359981D01*
X0003507317Y0002359665D01*
X0003508542Y0002359226D01*
X0003509719Y0002358669D01*
X0003510836Y0002358000D01*
X0003511882Y0002357225D01*
X0003512846Y0002356350D01*
X0003513721Y0002355386D01*
X0003514496Y0002354340D01*
X0003515165Y0002353223D01*
X0003515722Y0002352046D01*
X0003516161Y0002350821D01*
X0003516477Y0002349558D01*
X0003516668Y0002348270D01*
X0003516732Y0002346970D01*
X0003516732Y0002302636D01*
X0003516668Y0002301335D01*
X0003516477Y0002300047D01*
X0003516161Y0002298785D01*
X0003515722Y0002297559D01*
X0003515165Y0002296382D01*
X0003514496Y0002295265D01*
X0003513721Y0002294220D01*
X0003512846Y0002293255D01*
X0003511882Y0002292381D01*
X0003510836Y0002291605D01*
X0003509719Y0002290936D01*
X0003508542Y0002290379D01*
X0003507317Y0002289941D01*
X0003506054Y0002289625D01*
X0003504766Y0002289433D01*
X0003503466Y0002289370D01*
X0003468974Y0002289370D01*
X0003467674Y0002289433D01*
X0003466386Y0002289625D01*
X0003465123Y0002289941D01*
X0003463897Y0002290379D01*
X0003462721Y0002290936D01*
X0003461604Y0002291605D01*
X0003460558Y0002292381D01*
X0003459594Y0002293255D01*
X0003458719Y0002294220D01*
X0003457944Y0002295265D01*
X0003457275Y0002296382D01*
X0003456718Y0002297559D01*
X0003456279Y0002298785D01*
X0003455963Y0002300047D01*
X0003455772Y0002301335D01*
X0003455708Y0002302636D01*
X0003455708Y0002346970D01*
X0003455772Y0002348270D01*
X0003455963Y0002349558D01*
X0003456279Y0002350821D01*
X0003456718Y0002352046D01*
X0003457275Y0002353223D01*
X0003457944Y0002354340D01*
X0003458719Y0002355386D01*
X0003459594Y0002356350D01*
X0003460558Y0002357225D01*
X0003461604Y0002358000D01*
X0003462721Y0002358669D01*
X0003463897Y0002359226D01*
X0003465123Y0002359665D01*
X0003466386Y0002359981D01*
X0003467674Y0002360172D01*
X0003468974Y0002360236D01*
X0003503466Y0002360236D01*
X0003504766Y0002360172D01*
X0003504766Y0002360172D01*
G37*
D93*
X0003486220Y0002324803D03*
D91*
G36*
X0003585475Y0002360172D02*
G01*
X0003586763Y0002359981D01*
X0003588025Y0002359665D01*
X0003589251Y0002359226D01*
X0003590428Y0002358669D01*
X0003591545Y0002358000D01*
X0003592590Y0002357225D01*
X0003593555Y0002356350D01*
X0003594429Y0002355386D01*
X0003595205Y0002354340D01*
X0003595874Y0002353223D01*
X0003596431Y0002352046D01*
X0003596869Y0002350821D01*
X0003597186Y0002349558D01*
X0003597377Y0002348270D01*
X0003597440Y0002346970D01*
X0003597440Y0002302636D01*
X0003597377Y0002301335D01*
X0003597186Y0002300047D01*
X0003596869Y0002298785D01*
X0003596431Y0002297559D01*
X0003595874Y0002296382D01*
X0003595205Y0002295265D01*
X0003594429Y0002294220D01*
X0003593555Y0002293255D01*
X0003592590Y0002292381D01*
X0003591545Y0002291605D01*
X0003590428Y0002290936D01*
X0003589251Y0002290379D01*
X0003588025Y0002289941D01*
X0003586763Y0002289625D01*
X0003585475Y0002289433D01*
X0003584174Y0002289370D01*
X0003549683Y0002289370D01*
X0003548383Y0002289433D01*
X0003547095Y0002289625D01*
X0003545832Y0002289941D01*
X0003544606Y0002290379D01*
X0003543429Y0002290936D01*
X0003542313Y0002291605D01*
X0003541267Y0002292381D01*
X0003540302Y0002293255D01*
X0003539428Y0002294220D01*
X0003538653Y0002295265D01*
X0003537983Y0002296382D01*
X0003537427Y0002297559D01*
X0003536988Y0002298785D01*
X0003536672Y0002300047D01*
X0003536481Y0002301335D01*
X0003536417Y0002302636D01*
X0003536417Y0002346970D01*
X0003536481Y0002348270D01*
X0003536672Y0002349558D01*
X0003536988Y0002350821D01*
X0003537427Y0002352046D01*
X0003537983Y0002353223D01*
X0003538653Y0002354340D01*
X0003539428Y0002355386D01*
X0003540302Y0002356350D01*
X0003541267Y0002357225D01*
X0003542313Y0002358000D01*
X0003543429Y0002358669D01*
X0003544606Y0002359226D01*
X0003545832Y0002359665D01*
X0003547095Y0002359981D01*
X0003548383Y0002360172D01*
X0003549683Y0002360236D01*
X0003584174Y0002360236D01*
X0003585475Y0002360172D01*
X0003585475Y0002360172D01*
G37*
D93*
X0003566929Y0002324803D03*
D94*
X0003364173Y0002218503D03*
D91*
G36*
X0003363932Y0002181126D02*
G01*
X0003363207Y0002181126D01*
X0003362435Y0002181163D01*
X0003360512Y0002181353D01*
X0003359748Y0002181466D01*
X0003357854Y0002181843D01*
X0003357104Y0002182031D01*
X0003355255Y0002182592D01*
X0003354528Y0002182852D01*
X0003352743Y0002183591D01*
X0003352044Y0002183922D01*
X0003350341Y0002184832D01*
X0003349678Y0002185229D01*
X0003348072Y0002186303D01*
X0003347451Y0002186763D01*
X0003345958Y0002187989D01*
X0003345385Y0002188507D01*
X0003344019Y0002189874D01*
X0003343500Y0002190446D01*
X0003342275Y0002191939D01*
X0003341814Y0002192560D01*
X0003340741Y0002194166D01*
X0003340344Y0002194829D01*
X0003339433Y0002196533D01*
X0003339103Y0002197231D01*
X0003338364Y0002199016D01*
X0003338103Y0002199743D01*
X0003337543Y0002201592D01*
X0003337355Y0002202342D01*
X0003336978Y0002204237D01*
X0003336865Y0002205001D01*
X0003336675Y0002206923D01*
X0003336637Y0002207695D01*
X0003336637Y0002208420D01*
X0003336614Y0002208661D01*
X0003336614Y0002228346D01*
X0003336637Y0002228587D01*
X0003336637Y0002229312D01*
X0003336675Y0002230084D01*
X0003336865Y0002232006D01*
X0003336978Y0002232770D01*
X0003337355Y0002234665D01*
X0003337543Y0002235415D01*
X0003338103Y0002237263D01*
X0003338364Y0002237991D01*
X0003339103Y0002239776D01*
X0003339433Y0002240474D01*
X0003340344Y0002242178D01*
X0003340741Y0002242841D01*
X0003341814Y0002244447D01*
X0003342275Y0002245068D01*
X0003343500Y0002246561D01*
X0003344019Y0002247133D01*
X0003345385Y0002248499D01*
X0003345958Y0002249018D01*
X0003347451Y0002250244D01*
X0003348072Y0002250704D01*
X0003349678Y0002251777D01*
X0003350341Y0002252175D01*
X0003352044Y0002253085D01*
X0003352743Y0002253416D01*
X0003354528Y0002254155D01*
X0003355255Y0002254415D01*
X0003357104Y0002254976D01*
X0003357854Y0002255164D01*
X0003359748Y0002255541D01*
X0003360512Y0002255654D01*
X0003362435Y0002255843D01*
X0003363207Y0002255881D01*
X0003363932Y0002255881D01*
X0003364173Y0002255905D01*
X0003383858Y0002255905D01*
X0003385394Y0002255754D01*
X0003386871Y0002255306D01*
X0003388232Y0002254578D01*
X0003389426Y0002253599D01*
X0003390405Y0002252406D01*
X0003391132Y0002251044D01*
X0003391580Y0002249567D01*
X0003391732Y0002248031D01*
X0003391732Y0002188976D01*
X0003391580Y0002187440D01*
X0003391132Y0002185963D01*
X0003390405Y0002184601D01*
X0003389426Y0002183408D01*
X0003388232Y0002182429D01*
X0003386871Y0002181701D01*
X0003385394Y0002181253D01*
X0003383858Y0002181102D01*
X0003364173Y0002181102D01*
X0003363932Y0002181126D01*
X0003363932Y0002181126D01*
G37*
D94*
X0003415354Y0002218503D03*
D91*
G36*
X0003394133Y0002181253D02*
G01*
X0003392656Y0002181701D01*
X0003391294Y0002182429D01*
X0003390101Y0002183408D01*
X0003389122Y0002184601D01*
X0003388394Y0002185963D01*
X0003387946Y0002187440D01*
X0003387795Y0002188976D01*
X0003387795Y0002248031D01*
X0003387946Y0002249567D01*
X0003388394Y0002251044D01*
X0003389122Y0002252406D01*
X0003390101Y0002253599D01*
X0003391294Y0002254578D01*
X0003392656Y0002255306D01*
X0003394133Y0002255754D01*
X0003395669Y0002255905D01*
X0003415354Y0002255905D01*
X0003415594Y0002255881D01*
X0003416320Y0002255881D01*
X0003417092Y0002255843D01*
X0003419014Y0002255654D01*
X0003419778Y0002255541D01*
X0003421673Y0002255164D01*
X0003422423Y0002254976D01*
X0003424271Y0002254415D01*
X0003424999Y0002254155D01*
X0003426783Y0002253416D01*
X0003427482Y0002253085D01*
X0003429186Y0002252175D01*
X0003429848Y0002251777D01*
X0003431455Y0002250704D01*
X0003432075Y0002250244D01*
X0003433569Y0002249018D01*
X0003434141Y0002248499D01*
X0003435507Y0002247133D01*
X0003436026Y0002246561D01*
X0003437252Y0002245068D01*
X0003437712Y0002244447D01*
X0003438785Y0002242841D01*
X0003439182Y0002242178D01*
X0003440093Y0002240474D01*
X0003440424Y0002239776D01*
X0003441163Y0002237991D01*
X0003441423Y0002237263D01*
X0003441984Y0002235415D01*
X0003442172Y0002234665D01*
X0003442549Y0002232770D01*
X0003442662Y0002232006D01*
X0003442851Y0002230084D01*
X0003442889Y0002229312D01*
X0003442889Y0002228587D01*
X0003442913Y0002228346D01*
X0003442913Y0002208661D01*
X0003442889Y0002208420D01*
X0003442889Y0002207695D01*
X0003442851Y0002206923D01*
X0003442662Y0002205001D01*
X0003442549Y0002204237D01*
X0003442172Y0002202342D01*
X0003441984Y0002201592D01*
X0003441423Y0002199743D01*
X0003441163Y0002199016D01*
X0003440424Y0002197231D01*
X0003440093Y0002196533D01*
X0003439182Y0002194829D01*
X0003438785Y0002194166D01*
X0003437712Y0002192560D01*
X0003437252Y0002191939D01*
X0003436026Y0002190446D01*
X0003435507Y0002189874D01*
X0003434141Y0002188507D01*
X0003433569Y0002187989D01*
X0003432075Y0002186763D01*
X0003431455Y0002186303D01*
X0003429848Y0002185229D01*
X0003429186Y0002184832D01*
X0003427482Y0002183922D01*
X0003426783Y0002183591D01*
X0003424999Y0002182852D01*
X0003424271Y0002182592D01*
X0003422423Y0002182031D01*
X0003421673Y0002181843D01*
X0003419778Y0002181466D01*
X0003419014Y0002181353D01*
X0003417092Y0002181163D01*
X0003416320Y0002181126D01*
X0003415594Y0002181126D01*
X0003415354Y0002181102D01*
X0003395669Y0002181102D01*
X0003394133Y0002181253D01*
X0003394133Y0002181253D01*
G37*
D90*
X0003569232Y0001981043D03*
X0003569232Y0002081043D03*
X0003569232Y0002181043D03*
D95*
X0003567322Y0002429842D03*
X0003488582Y0002429842D03*
X0003409842Y0002429842D03*
X0003331102Y0002429842D03*
X0003252362Y0002429842D03*
X0003173622Y0002429842D03*
X0003094881Y0002429842D03*
X0003016141Y0002429842D03*
X0003252362Y0003177874D03*
X0003331102Y0003177874D03*
X0003173622Y0003177874D03*
D96*
X0003202755Y0002037795D03*
X0003127952Y0002037795D03*
X0003127952Y0001934645D03*
X0003165354Y0001934645D03*
X0003202755Y0001934645D03*
D97*
X0002890177Y0002738543D03*
X0002890177Y0002938543D03*
X0002890177Y0003138543D03*
X0002889232Y0002838543D03*
X0002889232Y0003038543D03*
D98*
X0003546732Y0003238543D03*
X0002911732Y0001803543D03*
D99*
X0002906732Y0003251043D03*
M02*