%
M48
METRIC,000.000
T01C0.40
T02C0.80
T03C1.00
T04C2.20
%
T01
X000713Y037192
X000898Y023199
X000898Y022399
X000898Y021599
X001899Y019399
X001899Y017999
X001899Y016399
X001899Y014799
X003400Y014050
X003542Y029216
X004000Y015350
X004299Y021200
X004398Y034400
X004398Y008800
X004398Y006750
X004736Y030898
X004751Y030029
X004795Y029216
X005099Y010148
X005242Y037700
X005699Y004499
X005801Y023001
X005801Y021799
X006499Y014400
X007225Y020491
X007899Y026100
X007934Y020019
X007965Y020816
X008173Y021639
X008699Y036801
X009806Y023364
X011051Y001649
X011300Y020499
X011300Y011213
X011800Y004499
X012199Y020400
X012610Y036717
X013100Y020400
X014200Y020900
X015262Y019953
X016400Y025800
X016601Y022749
X016750Y017100
X017401Y030699
X017624Y024075
X017799Y001251
X018198Y021200
X018224Y022549
X018650Y002150
X018650Y001251
X000713Y079192
X000898Y065199
X000898Y064399
X000898Y063599
X001899Y061399
X001899Y059999
X001899Y058399
X001899Y056799
X003400Y056050
X003542Y071216
X004000Y057350
X004299Y063200
X004398Y076400
X004398Y050800
X004398Y048750
X004736Y072898
X004751Y072029
X004795Y071216
X005099Y052148
X005242Y079700
X005699Y046499
X005801Y065001
X005801Y063799
X006499Y056400
X007225Y062491
X007899Y068100
X007934Y062019
X007965Y062816
X008173Y063639
X008699Y078801
X009806Y065364
X011051Y043649
X011300Y062499
X011300Y053213
X011800Y046499
X012199Y062400
X012610Y078717
X013100Y062400
X014200Y062900
X015262Y061953
X016400Y067800
X016601Y064748
X016750Y059100
X017401Y072699
X017624Y066075
X017799Y043251
X018198Y063200
X018224Y064549
X018650Y044150
X018650Y043251
X022713Y037192
X022898Y023199
X022898Y022399
X022898Y021599
X023899Y019399
X023899Y017999
X023899Y016399
X023899Y014799
X025400Y014050
X025542Y029216
X026000Y015350
X026299Y021200
X026398Y034400
X026398Y008800
X026398Y006750
X026736Y030898
X026751Y030029
X026795Y029216
X027099Y010148
X027242Y037700
X027699Y004499
X027801Y023001
X027801Y021799
X028499Y014400
X029225Y020491
X029899Y026100
X029934Y020019
X029965Y020816
X030173Y021639
X030699Y036801
X031806Y023364
X033051Y001649
X033300Y020499
X033300Y011213
X033800Y004499
X034199Y020400
X034610Y036717
X035100Y020400
X036200Y020900
X037262Y019953
X038400Y025800
X038601Y022749
X038750Y017100
X039401Y030699
X039624Y024075
X039799Y001251
X040198Y021200
X040224Y022549
X040650Y002150
X040650Y001251
X044713Y037192
X044898Y023199
X044898Y022399
X044898Y021599
X045899Y019399
X045899Y017999
X045899Y016399
X045899Y014799
X047400Y014050
X047542Y029216
X048000Y015350
X048299Y021200
X048398Y034400
X048398Y008800
X048398Y006750
X048736Y030898
X048751Y030029
X048795Y029216
X049099Y010148
X049242Y037700
X049699Y004499
X049801Y023001
X049801Y021799
X050499Y014400
X051225Y020491
X051899Y026100
X051934Y020019
X051965Y020816
X052173Y021639
X052699Y036801
X053806Y023364
X055051Y001649
X055300Y020499
X055300Y011213
X055800Y004499
X056199Y020400
X056610Y036717
X057100Y020400
X058200Y020900
X059262Y019953
X060400Y025800
X060601Y022749
X060750Y017100
X061401Y030699
X061624Y024075
X061799Y001251
X062198Y021200
X062224Y022549
X062650Y002150
X062650Y001251
X066713Y037192
X066898Y023199
X066898Y022399
X066898Y021599
X067899Y019399
X067899Y017999
X067899Y016399
X067899Y014799
X069400Y014050
X069542Y029216
X070000Y015350
X070299Y021200
X070398Y034400
X070398Y008800
X070398Y006750
X070736Y030898
X070751Y030029
X070795Y029216
X071099Y010148
X071242Y037700
X071699Y004499
X071801Y023001
X071801Y021799
X072499Y014400
X073225Y020491
X073899Y026100
X073934Y020019
X073965Y020816
X074173Y021639
X074699Y036801
X075806Y023364
X077051Y001649
X077300Y020499
X077300Y011213
X077800Y004499
X078199Y020400
X078610Y036717
X079100Y020400
X080200Y020900
X081262Y019953
X082400Y025800
X082601Y022749
X082750Y017100
X083401Y030699
X083624Y024075
X083799Y001251
X084198Y021200
X084224Y022549
X084650Y002150
X084650Y001251
X022713Y079192
X022898Y065199
X022898Y064399
X022898Y063599
X023899Y061399
X023899Y059999
X023899Y058399
X023899Y056799
X025400Y056050
X025542Y071216
X026000Y057350
X026299Y063200
X026398Y076400
X026398Y050800
X026398Y048750
X026736Y072898
X026751Y072029
X026795Y071216
X027099Y052148
X027242Y079700
X027699Y046499
X027801Y065001
X027801Y063799
X028499Y056400
X029225Y062491
X029899Y068100
X029934Y062019
X029965Y062816
X030173Y063639
X030699Y078801
X031806Y065364
X033051Y043649
X033300Y062499
X033300Y053213
X033800Y046499
X034199Y062400
X034610Y078717
X035100Y062400
X036200Y062900
X037262Y061953
X038400Y067800
X038601Y064748
X038750Y059100
X039401Y072699
X039624Y066075
X039799Y043251
X040198Y063200
X040224Y064549
X040650Y044150
X040650Y043251
X044713Y079192
X044898Y065199
X044898Y064399
X044898Y063599
X045899Y061399
X045899Y059999
X045899Y058399
X045899Y056799
X047400Y056050
X047542Y071216
X048000Y057350
X048299Y063200
X048398Y076400
X048398Y050800
X048398Y048750
X048736Y072898
X048751Y072029
X048795Y071216
X049099Y052148
X049242Y079700
X049699Y046499
X049801Y065001
X049801Y063799
X050499Y056400
X051225Y062491
X051899Y068100
X051934Y062019
X051965Y062816
X052173Y063639
X052699Y078801
X053806Y065364
X055051Y043649
X055300Y062499
X055300Y053213
X055800Y046499
X056199Y062400
X056610Y078717
X057100Y062400
X058200Y062900
X059262Y061953
X060400Y067800
X060601Y064748
X060750Y059100
X061401Y072699
X061624Y066075
X061799Y043251
X062198Y063200
X062224Y064549
X062650Y044150
X062650Y043251
X066713Y079192
X066898Y065199
X066898Y064399
X066898Y063599
X067899Y061399
X067899Y059999
X067899Y058399
X067899Y056799
X069400Y056050
X069542Y071216
X070000Y057350
X070299Y063200
X070398Y076400
X070398Y050800
X070398Y048750
X070736Y072898
X070751Y072029
X070795Y071216
X071099Y052148
X071242Y079700
X071699Y046499
X071801Y065001
X071801Y063799
X072499Y056400
X073225Y062491
X073899Y068100
X073934Y062019
X073965Y062816
X074173Y063639
X074699Y078801
X075806Y065364
X077051Y043649
X077300Y062499
X077300Y053213
X077800Y046499
X078199Y062400
X078610Y078717
X079100Y062400
X080200Y062900
X081262Y061953
X082400Y067800
X082601Y064748
X082750Y059100
X083401Y072699
X083624Y066075
X083799Y043251
X084198Y063200
X084224Y064549
X084650Y044150
X084650Y043251
T02
X001830Y038576
X001830Y080576
X023830Y038576
X045830Y038576
X067830Y038576
X023830Y080576
X045830Y080576
X067830Y080576
T03
X018658Y011398
X018658Y008858
X018658Y006318
X001300Y011401
X001300Y008861
X001300Y006321
X018658Y053398
X018658Y050858
X018658Y048318
X001300Y053401
X001300Y050861
X001300Y048321
X040658Y011398
X040658Y008858
X040658Y006318
X023300Y011401
X023300Y008861
X023300Y006321
X062658Y011398
X062658Y008858
X062658Y006318
X045300Y011401
X045300Y008861
X045300Y006321
X084658Y011398
X084658Y008858
X084658Y006318
X067300Y011401
X067300Y008861
X067300Y006321
X040658Y053398
X040658Y050858
X040658Y048318
X023300Y053401
X023300Y050861
X023300Y048321
X062658Y053398
X062658Y050858
X062658Y048318
X045300Y053401
X045300Y050861
X045300Y048321
X084658Y053398
X084658Y050858
X084658Y048318
X067300Y053401
X067300Y050861
X067300Y048321
T04
X001957Y001810
X018086Y038259
X001957Y043810
X018086Y080259
X023957Y001810
X040086Y038259
X045957Y001810
X062086Y038259
X067957Y001810
X084086Y038259
X023957Y043810
X040086Y080259
X045957Y043810
X062086Y080259
X067957Y043810
X084086Y080259
M30