%MOIN*%
%OFA0B0*%
%FSLAX46Y46*%
%IPPOS*%
%LPD*%
%ADD10O,0.082677165354330714X0.082677165354330714*%
%ADD11C,0.005905511811023622*%
%ADD12C,0.094488188976377951*%
%ADD13C,0.0610236220472441*%
%ADD14C,0.01968503937007874*%
%ADD15R,0.062992125984251982X0.11511811023622047*%
%ADD16R,0.041338582677165357X0.063779527559055124*%
%ADD17R,0.13385826771653545X0.082677165354330714*%
%ADD18C,0.10236220472440946*%
%ADD19R,0.068897637795275593X0.068897637795275593*%
%ADD30O,0.082677165354330714X0.082677165354330714*%
%ADD31C,0.005905511811023622*%
%ADD32C,0.094488188976377951*%
%ADD33C,0.0610236220472441*%
%ADD34C,0.01968503937007874*%
%ADD35R,0.062992125984251982X0.11511811023622047*%
%ADD36R,0.041338582677165357X0.063779527559055124*%
%ADD37R,0.13385826771653545X0.082677165354330714*%
%ADD38C,0.10236220472440946*%
%ADD39R,0.068897637795275593X0.068897637795275593*%
%ADD50O,0.082677165354330714X0.082677165354330714*%
%ADD51C,0.005905511811023622*%
%ADD52C,0.094488188976377951*%
%ADD53C,0.0610236220472441*%
%ADD54C,0.01968503937007874*%
%ADD55R,0.062992125984251982X0.11511811023622047*%
%ADD56R,0.041338582677165357X0.063779527559055124*%
%ADD57R,0.13385826771653545X0.082677165354330714*%
%ADD58C,0.10236220472440946*%
%ADD59R,0.068897637795275593X0.068897637795275593*%
%ADD70O,0.082677165354330714X0.082677165354330714*%
%ADD71C,0.005905511811023622*%
%ADD72C,0.094488188976377951*%
%ADD73C,0.0610236220472441*%
%ADD74C,0.01968503937007874*%
%ADD75R,0.062992125984251982X0.11511811023622047*%
%ADD76R,0.041338582677165357X0.063779527559055124*%
%ADD77R,0.13385826771653545X0.082677165354330714*%
%ADD78C,0.10236220472440946*%
%ADD79R,0.068897637795275593X0.068897637795275593*%
%ADD90O,0.082677165354330714X0.082677165354330714*%
%ADD91C,0.005905511811023622*%
%ADD92C,0.094488188976377951*%
%ADD93C,0.0610236220472441*%
%ADD94C,0.01968503937007874*%
%ADD95R,0.062992125984251982X0.11511811023622047*%
%ADD96R,0.041338582677165357X0.063779527559055124*%
%ADD97R,0.13385826771653545X0.082677165354330714*%
%ADD98C,0.10236220472440946*%
%ADD99R,0.068897637795275593X0.068897637795275593*%
%ADD110O,0.082677165354330714X0.082677165354330714*%
%ADD111C,0.005905511811023622*%
%ADD112C,0.094488188976377951*%
%ADD113C,0.0610236220472441*%
%ADD114C,0.01968503937007874*%
%ADD115R,0.062992125984251982X0.11511811023622047*%
%ADD116R,0.041338582677165357X0.063779527559055124*%
%ADD117R,0.13385826771653545X0.082677165354330714*%
%ADD118C,0.10236220472440946*%
%ADD119R,0.068897637795275593X0.068897637795275593*%
%ADD130O,0.082677165354330714X0.082677165354330714*%
%ADD131C,0.005905511811023622*%
%ADD132C,0.094488188976377951*%
%ADD133C,0.0610236220472441*%
%ADD134C,0.01968503937007874*%
%ADD135R,0.062992125984251982X0.11511811023622047*%
%ADD136R,0.041338582677165357X0.063779527559055124*%
%ADD137R,0.13385826771653545X0.082677165354330714*%
%ADD138C,0.10236220472440946*%
%ADD139R,0.068897637795275593X0.068897637795275593*%
%ADD150O,0.082677165354330714X0.082677165354330714*%
%ADD151C,0.005905511811023622*%
%ADD152C,0.094488188976377951*%
%ADD153C,0.0610236220472441*%
%ADD154C,0.01968503937007874*%
%ADD155R,0.062992125984251982X0.11511811023622047*%
%ADD156R,0.041338582677165357X0.063779527559055124*%
%ADD157R,0.13385826771653545X0.082677165354330714*%
%ADD158C,0.10236220472440946*%
%ADD159R,0.068897637795275593X0.068897637795275593*%
%LPD*%
D10*
X-0006692913Y0004921259D02*
X0000051181Y0000248818D03*
X0000051181Y0000348818D03*
X0000051181Y0000448818D03*
D11*
G36*
X0000575368Y0000412117D02*
G01*
X0000577129Y0000411856D01*
X0000578856Y0000411423D01*
X0000580533Y0000410823D01*
X0000582142Y0000410061D01*
X0000583669Y0000409147D01*
X0000585099Y0000408086D01*
X0000586418Y0000406891D01*
X0000587614Y0000405571D01*
X0000588674Y0000404142D01*
X0000589590Y0000402614D01*
X0000590351Y0000401004D01*
X0000590951Y0000399329D01*
X0000591383Y0000397602D01*
X0000591644Y0000395841D01*
X0000591732Y0000394062D01*
X0000591732Y0000335858D01*
X0000591644Y0000334080D01*
X0000591383Y0000332318D01*
X0000590951Y0000330591D01*
X0000590351Y0000328915D01*
X0000589590Y0000327306D01*
X0000588674Y0000325779D01*
X0000587614Y0000324349D01*
X0000586418Y0000323029D01*
X0000585099Y0000321834D01*
X0000583669Y0000320773D01*
X0000582142Y0000319858D01*
X0000580533Y0000319097D01*
X0000578856Y0000318497D01*
X0000577129Y0000318064D01*
X0000575368Y0000317803D01*
X0000573590Y0000317716D01*
X0000460266Y0000317716D01*
X0000458489Y0000317803D01*
X0000456728Y0000318064D01*
X0000455001Y0000318497D01*
X0000453325Y0000319097D01*
X0000451715Y0000319858D01*
X0000450188Y0000320773D01*
X0000448758Y0000321834D01*
X0000447439Y0000323029D01*
X0000446243Y0000324349D01*
X0000445183Y0000325779D01*
X0000444268Y0000327306D01*
X0000443506Y0000328915D01*
X0000442907Y0000330591D01*
X0000442474Y0000332318D01*
X0000442213Y0000334080D01*
X0000442125Y0000335858D01*
X0000442125Y0000394062D01*
X0000442213Y0000395841D01*
X0000442474Y0000397602D01*
X0000442907Y0000399329D01*
X0000443506Y0000401004D01*
X0000444268Y0000402614D01*
X0000445183Y0000404142D01*
X0000446243Y0000405571D01*
X0000447439Y0000406891D01*
X0000448758Y0000408086D01*
X0000450188Y0000409147D01*
X0000451715Y0000410061D01*
X0000453325Y0000410823D01*
X0000455001Y0000411423D01*
X0000456728Y0000411856D01*
X0000458489Y0000412117D01*
X0000460266Y0000412204D01*
X0000573590Y0000412204D01*
X0000575368Y0000412117D01*
X0000575368Y0000412117D01*
G37*
D12*
X0000516929Y0000364960D03*
D11*
G36*
X0000575368Y0000227077D02*
G01*
X0000577129Y0000226816D01*
X0000578856Y0000226384D01*
X0000580533Y0000225783D01*
X0000582142Y0000225023D01*
X0000583669Y0000224107D01*
X0000585099Y0000223047D01*
X0000586418Y0000221851D01*
X0000587614Y0000220532D01*
X0000588674Y0000219102D01*
X0000589590Y0000217575D01*
X0000590351Y0000215965D01*
X0000590951Y0000214289D01*
X0000591383Y0000212561D01*
X0000591644Y0000210801D01*
X0000591732Y0000209023D01*
X0000591732Y0000150818D01*
X0000591644Y0000149040D01*
X0000591383Y0000147279D01*
X0000590951Y0000145552D01*
X0000590351Y0000143876D01*
X0000589590Y0000142266D01*
X0000588674Y0000140739D01*
X0000587614Y0000139309D01*
X0000586418Y0000137990D01*
X0000585099Y0000136795D01*
X0000583669Y0000135734D01*
X0000582142Y0000134819D01*
X0000580533Y0000134058D01*
X0000578856Y0000133458D01*
X0000577129Y0000133025D01*
X0000575368Y0000132764D01*
X0000573590Y0000132677D01*
X0000460266Y0000132677D01*
X0000458489Y0000132764D01*
X0000456728Y0000133025D01*
X0000455001Y0000133458D01*
X0000453325Y0000134058D01*
X0000451715Y0000134819D01*
X0000450188Y0000135734D01*
X0000448758Y0000136795D01*
X0000447439Y0000137990D01*
X0000446243Y0000139309D01*
X0000445183Y0000140739D01*
X0000444268Y0000142266D01*
X0000443506Y0000143876D01*
X0000442907Y0000145552D01*
X0000442474Y0000147279D01*
X0000442213Y0000149040D01*
X0000442125Y0000150818D01*
X0000442125Y0000209023D01*
X0000442213Y0000210801D01*
X0000442474Y0000212561D01*
X0000442907Y0000214289D01*
X0000443506Y0000215965D01*
X0000444268Y0000217575D01*
X0000445183Y0000219102D01*
X0000446243Y0000220532D01*
X0000447439Y0000221851D01*
X0000448758Y0000223047D01*
X0000450188Y0000224107D01*
X0000451715Y0000225023D01*
X0000453325Y0000225783D01*
X0000455001Y0000226384D01*
X0000456728Y0000226816D01*
X0000458489Y0000227077D01*
X0000460266Y0000227165D01*
X0000573590Y0000227165D01*
X0000575368Y0000227077D01*
X0000575368Y0000227077D01*
G37*
D12*
X0000516929Y0000179921D03*
D11*
G36*
X0000306931Y0000153479D02*
G01*
X0000308219Y0000153288D01*
X0000309482Y0000152972D01*
X0000310708Y0000152533D01*
X0000311885Y0000151976D01*
X0000313001Y0000151307D01*
X0000314047Y0000150532D01*
X0000315012Y0000149657D01*
X0000315886Y0000148693D01*
X0000316661Y0000147647D01*
X0000317331Y0000146530D01*
X0000317887Y0000145353D01*
X0000318326Y0000144128D01*
X0000318641Y0000142865D01*
X0000318833Y0000141577D01*
X0000318897Y0000140277D01*
X0000318897Y0000095943D01*
X0000318833Y0000094642D01*
X0000318641Y0000093355D01*
X0000318326Y0000092092D01*
X0000317887Y0000090866D01*
X0000317331Y0000089689D01*
X0000316661Y0000088572D01*
X0000315886Y0000087527D01*
X0000315012Y0000086562D01*
X0000314047Y0000085688D01*
X0000313001Y0000084912D01*
X0000311885Y0000084243D01*
X0000310708Y0000083686D01*
X0000309482Y0000083248D01*
X0000308219Y0000082932D01*
X0000306931Y0000082741D01*
X0000305631Y0000082677D01*
X0000271139Y0000082677D01*
X0000269839Y0000082741D01*
X0000268551Y0000082932D01*
X0000267289Y0000083248D01*
X0000266063Y0000083686D01*
X0000264886Y0000084243D01*
X0000263769Y0000084912D01*
X0000262724Y0000085688D01*
X0000261759Y0000086562D01*
X0000260884Y0000087527D01*
X0000260108Y0000088572D01*
X0000259440Y0000089689D01*
X0000258882Y0000090866D01*
X0000258444Y0000092092D01*
X0000258128Y0000093355D01*
X0000257937Y0000094642D01*
X0000257874Y0000095943D01*
X0000257874Y0000140277D01*
X0000257937Y0000141577D01*
X0000258128Y0000142865D01*
X0000258444Y0000144128D01*
X0000258882Y0000145353D01*
X0000259440Y0000146530D01*
X0000260108Y0000147647D01*
X0000260884Y0000148693D01*
X0000261759Y0000149657D01*
X0000262724Y0000150532D01*
X0000263769Y0000151307D01*
X0000264886Y0000151976D01*
X0000266063Y0000152533D01*
X0000267289Y0000152972D01*
X0000268551Y0000153288D01*
X0000269839Y0000153479D01*
X0000271139Y0000153543D01*
X0000305631Y0000153543D01*
X0000306931Y0000153479D01*
X0000306931Y0000153479D01*
G37*
D13*
X0000288385Y0000118110D03*
D11*
G36*
X0000387640Y0000153479D02*
G01*
X0000388928Y0000153288D01*
X0000390191Y0000152972D01*
X0000391415Y0000152533D01*
X0000392593Y0000151976D01*
X0000393710Y0000151307D01*
X0000394756Y0000150532D01*
X0000395720Y0000149657D01*
X0000396595Y0000148693D01*
X0000397370Y0000147647D01*
X0000398039Y0000146530D01*
X0000398596Y0000145353D01*
X0000399034Y0000144128D01*
X0000399351Y0000142865D01*
X0000399542Y0000141577D01*
X0000399606Y0000140277D01*
X0000399606Y0000095943D01*
X0000399542Y0000094642D01*
X0000399351Y0000093355D01*
X0000399034Y0000092092D01*
X0000398596Y0000090866D01*
X0000398039Y0000089689D01*
X0000397370Y0000088572D01*
X0000396595Y0000087527D01*
X0000395720Y0000086562D01*
X0000394756Y0000085688D01*
X0000393710Y0000084912D01*
X0000392593Y0000084243D01*
X0000391415Y0000083686D01*
X0000390191Y0000083248D01*
X0000388928Y0000082932D01*
X0000387640Y0000082741D01*
X0000386340Y0000082677D01*
X0000351848Y0000082677D01*
X0000350548Y0000082741D01*
X0000349260Y0000082932D01*
X0000347997Y0000083248D01*
X0000346771Y0000083686D01*
X0000345595Y0000084243D01*
X0000344478Y0000084912D01*
X0000343432Y0000085688D01*
X0000342468Y0000086562D01*
X0000341593Y0000087527D01*
X0000340818Y0000088572D01*
X0000340149Y0000089689D01*
X0000339591Y0000090866D01*
X0000339152Y0000092092D01*
X0000338837Y0000093355D01*
X0000338646Y0000094642D01*
X0000338582Y0000095943D01*
X0000338582Y0000140277D01*
X0000338646Y0000141577D01*
X0000338837Y0000142865D01*
X0000339152Y0000144128D01*
X0000339591Y0000145353D01*
X0000340149Y0000146530D01*
X0000340818Y0000147647D01*
X0000341593Y0000148693D01*
X0000342468Y0000149657D01*
X0000343432Y0000150532D01*
X0000344478Y0000151307D01*
X0000345595Y0000151976D01*
X0000346771Y0000152533D01*
X0000347997Y0000152972D01*
X0000349260Y0000153288D01*
X0000350548Y0000153479D01*
X0000351848Y0000153543D01*
X0000386340Y0000153543D01*
X0000387640Y0000153479D01*
X0000387640Y0000153479D01*
G37*
D13*
X0000369094Y0000118110D03*
D11*
G36*
X0000273467Y0000421195D02*
G01*
X0000274755Y0000421004D01*
X0000276017Y0000420688D01*
X0000277243Y0000420250D01*
X0000278420Y0000419693D01*
X0000279537Y0000419023D01*
X0000280582Y0000418248D01*
X0000281547Y0000417374D01*
X0000282421Y0000416409D01*
X0000283197Y0000415364D01*
X0000283866Y0000414246D01*
X0000284423Y0000413070D01*
X0000284861Y0000411844D01*
X0000285178Y0000410581D01*
X0000285369Y0000409294D01*
X0000285433Y0000407993D01*
X0000285433Y0000363659D01*
X0000285369Y0000362359D01*
X0000285178Y0000361071D01*
X0000284861Y0000359808D01*
X0000284423Y0000358582D01*
X0000283866Y0000357406D01*
X0000283197Y0000356289D01*
X0000282421Y0000355243D01*
X0000281547Y0000354279D01*
X0000280582Y0000353403D01*
X0000279537Y0000352629D01*
X0000278420Y0000351960D01*
X0000277243Y0000351403D01*
X0000276017Y0000350964D01*
X0000274755Y0000350648D01*
X0000273467Y0000350457D01*
X0000272167Y0000350393D01*
X0000237675Y0000350393D01*
X0000236375Y0000350457D01*
X0000235087Y0000350648D01*
X0000233823Y0000350964D01*
X0000232598Y0000351403D01*
X0000231421Y0000351960D01*
X0000230305Y0000352629D01*
X0000229259Y0000353403D01*
X0000228294Y0000354279D01*
X0000227420Y0000355243D01*
X0000226645Y0000356289D01*
X0000225975Y0000357406D01*
X0000225419Y0000358582D01*
X0000224980Y0000359808D01*
X0000224664Y0000361071D01*
X0000224473Y0000362359D01*
X0000224409Y0000363659D01*
X0000224409Y0000407993D01*
X0000224473Y0000409294D01*
X0000224664Y0000410581D01*
X0000224980Y0000411844D01*
X0000225419Y0000413070D01*
X0000225975Y0000414246D01*
X0000226645Y0000415364D01*
X0000227420Y0000416409D01*
X0000228294Y0000417374D01*
X0000229259Y0000418248D01*
X0000230305Y0000419023D01*
X0000231421Y0000419693D01*
X0000232598Y0000420250D01*
X0000233823Y0000420688D01*
X0000235087Y0000421004D01*
X0000236375Y0000421195D01*
X0000237675Y0000421259D01*
X0000272167Y0000421259D01*
X0000273467Y0000421195D01*
X0000273467Y0000421195D01*
G37*
D13*
X0000254921Y0000385826D03*
D11*
G36*
X0000354176Y0000421195D02*
G01*
X0000355463Y0000421004D01*
X0000356726Y0000420688D01*
X0000357952Y0000420250D01*
X0000359129Y0000419693D01*
X0000360245Y0000419023D01*
X0000361291Y0000418248D01*
X0000362256Y0000417374D01*
X0000363130Y0000416409D01*
X0000363905Y0000415364D01*
X0000364575Y0000414246D01*
X0000365131Y0000413070D01*
X0000365570Y0000411844D01*
X0000365886Y0000410581D01*
X0000366077Y0000409294D01*
X0000366141Y0000407993D01*
X0000366141Y0000363659D01*
X0000366077Y0000362359D01*
X0000365886Y0000361071D01*
X0000365570Y0000359808D01*
X0000365131Y0000358582D01*
X0000364575Y0000357406D01*
X0000363905Y0000356289D01*
X0000363130Y0000355243D01*
X0000362256Y0000354279D01*
X0000361291Y0000353403D01*
X0000360245Y0000352629D01*
X0000359129Y0000351960D01*
X0000357952Y0000351403D01*
X0000356726Y0000350964D01*
X0000355463Y0000350648D01*
X0000354176Y0000350457D01*
X0000352875Y0000350393D01*
X0000318384Y0000350393D01*
X0000317083Y0000350457D01*
X0000315796Y0000350648D01*
X0000314533Y0000350964D01*
X0000313307Y0000351403D01*
X0000312130Y0000351960D01*
X0000311013Y0000352629D01*
X0000309968Y0000353403D01*
X0000309003Y0000354279D01*
X0000308129Y0000355243D01*
X0000307353Y0000356289D01*
X0000306684Y0000357406D01*
X0000306127Y0000358582D01*
X0000305689Y0000359808D01*
X0000305372Y0000361071D01*
X0000305181Y0000362359D01*
X0000305118Y0000363659D01*
X0000305118Y0000407993D01*
X0000305181Y0000409294D01*
X0000305372Y0000410581D01*
X0000305689Y0000411844D01*
X0000306127Y0000413070D01*
X0000306684Y0000414246D01*
X0000307353Y0000415364D01*
X0000308129Y0000416409D01*
X0000309003Y0000417374D01*
X0000309968Y0000418248D01*
X0000311013Y0000419023D01*
X0000312130Y0000419693D01*
X0000313307Y0000420250D01*
X0000314533Y0000420688D01*
X0000315796Y0000421004D01*
X0000317083Y0000421195D01*
X0000318384Y0000421259D01*
X0000352875Y0000421259D01*
X0000354176Y0000421195D01*
X0000354176Y0000421195D01*
G37*
D13*
X0000335629Y0000385826D03*
D11*
G36*
X0000670120Y0000627888D02*
G01*
X0000671408Y0000627697D01*
X0000672671Y0000627381D01*
X0000673897Y0000626942D01*
X0000675074Y0000626386D01*
X0000676190Y0000625717D01*
X0000677236Y0000624941D01*
X0000678201Y0000624067D01*
X0000679075Y0000623102D01*
X0000679850Y0000622056D01*
X0000680520Y0000620940D01*
X0000681076Y0000619763D01*
X0000681515Y0000618537D01*
X0000681831Y0000617274D01*
X0000682022Y0000615987D01*
X0000682086Y0000614686D01*
X0000682086Y0000570352D01*
X0000682022Y0000569052D01*
X0000681831Y0000567764D01*
X0000681515Y0000566501D01*
X0000681076Y0000565275D01*
X0000680520Y0000564099D01*
X0000679850Y0000562982D01*
X0000679075Y0000561936D01*
X0000678201Y0000560972D01*
X0000677236Y0000560097D01*
X0000676190Y0000559322D01*
X0000675074Y0000558652D01*
X0000673897Y0000558096D01*
X0000672671Y0000557657D01*
X0000671408Y0000557341D01*
X0000670120Y0000557150D01*
X0000668820Y0000557086D01*
X0000634328Y0000557086D01*
X0000633028Y0000557150D01*
X0000631740Y0000557341D01*
X0000630478Y0000557657D01*
X0000629252Y0000558096D01*
X0000628075Y0000558652D01*
X0000626958Y0000559322D01*
X0000625913Y0000560097D01*
X0000624948Y0000560972D01*
X0000624074Y0000561936D01*
X0000623298Y0000562982D01*
X0000622629Y0000564099D01*
X0000622072Y0000565275D01*
X0000621634Y0000566501D01*
X0000621317Y0000567764D01*
X0000621126Y0000569052D01*
X0000621062Y0000570352D01*
X0000621062Y0000614686D01*
X0000621126Y0000615987D01*
X0000621317Y0000617274D01*
X0000621634Y0000618537D01*
X0000622072Y0000619763D01*
X0000622629Y0000620940D01*
X0000623298Y0000622056D01*
X0000624074Y0000623102D01*
X0000624948Y0000624067D01*
X0000625913Y0000624941D01*
X0000626958Y0000625717D01*
X0000628075Y0000626386D01*
X0000629252Y0000626942D01*
X0000630478Y0000627381D01*
X0000631740Y0000627697D01*
X0000633028Y0000627888D01*
X0000634328Y0000627952D01*
X0000668820Y0000627952D01*
X0000670120Y0000627888D01*
X0000670120Y0000627888D01*
G37*
D13*
X0000651574Y0000592519D03*
D11*
G36*
X0000750829Y0000627888D02*
G01*
X0000752117Y0000627697D01*
X0000753380Y0000627381D01*
X0000754605Y0000626942D01*
X0000755782Y0000626386D01*
X0000756899Y0000625717D01*
X0000757945Y0000624941D01*
X0000758909Y0000624067D01*
X0000759784Y0000623102D01*
X0000760559Y0000622056D01*
X0000761228Y0000620940D01*
X0000761785Y0000619763D01*
X0000762223Y0000618537D01*
X0000762540Y0000617274D01*
X0000762731Y0000615987D01*
X0000762795Y0000614686D01*
X0000762795Y0000570352D01*
X0000762731Y0000569052D01*
X0000762540Y0000567764D01*
X0000762223Y0000566501D01*
X0000761785Y0000565275D01*
X0000761228Y0000564099D01*
X0000760559Y0000562982D01*
X0000759784Y0000561936D01*
X0000758909Y0000560972D01*
X0000757945Y0000560097D01*
X0000756899Y0000559322D01*
X0000755782Y0000558652D01*
X0000754605Y0000558096D01*
X0000753380Y0000557657D01*
X0000752117Y0000557341D01*
X0000750829Y0000557150D01*
X0000749529Y0000557086D01*
X0000715037Y0000557086D01*
X0000713737Y0000557150D01*
X0000712449Y0000557341D01*
X0000711186Y0000557657D01*
X0000709960Y0000558096D01*
X0000708784Y0000558652D01*
X0000707667Y0000559322D01*
X0000706621Y0000560097D01*
X0000705657Y0000560972D01*
X0000704782Y0000561936D01*
X0000704007Y0000562982D01*
X0000703338Y0000564099D01*
X0000702781Y0000565275D01*
X0000702342Y0000566501D01*
X0000702026Y0000567764D01*
X0000701835Y0000569052D01*
X0000701771Y0000570352D01*
X0000701771Y0000614686D01*
X0000701835Y0000615987D01*
X0000702026Y0000617274D01*
X0000702342Y0000618537D01*
X0000702781Y0000619763D01*
X0000703338Y0000620940D01*
X0000704007Y0000622056D01*
X0000704782Y0000623102D01*
X0000705657Y0000624067D01*
X0000706621Y0000624941D01*
X0000707667Y0000625717D01*
X0000708784Y0000626386D01*
X0000709960Y0000626942D01*
X0000711186Y0000627381D01*
X0000712449Y0000627697D01*
X0000713737Y0000627888D01*
X0000715037Y0000627952D01*
X0000749529Y0000627952D01*
X0000750829Y0000627888D01*
X0000750829Y0000627888D01*
G37*
D13*
X0000732283Y0000592519D03*
D14*
X0000529527Y0000486220D03*
D11*
G36*
X0000529286Y0000448842D02*
G01*
X0000528561Y0000448842D01*
X0000527789Y0000448880D01*
X0000525867Y0000449069D01*
X0000525103Y0000449182D01*
X0000523208Y0000449559D01*
X0000522458Y0000449747D01*
X0000520610Y0000450308D01*
X0000519881Y0000450568D01*
X0000518097Y0000451308D01*
X0000517399Y0000451638D01*
X0000515695Y0000452549D01*
X0000515032Y0000452946D01*
X0000513426Y0000454019D01*
X0000512804Y0000454480D01*
X0000511312Y0000455705D01*
X0000510740Y0000456224D01*
X0000509374Y0000457590D01*
X0000508854Y0000458163D01*
X0000507629Y0000459656D01*
X0000507169Y0000460277D01*
X0000506096Y0000461883D01*
X0000505698Y0000462545D01*
X0000504788Y0000464249D01*
X0000504457Y0000464948D01*
X0000503718Y0000466733D01*
X0000503457Y0000467460D01*
X0000502897Y0000469309D01*
X0000502708Y0000470058D01*
X0000502332Y0000471953D01*
X0000502219Y0000472717D01*
X0000502030Y0000474640D01*
X0000501992Y0000475412D01*
X0000501992Y0000476137D01*
X0000501967Y0000476377D01*
X0000501967Y0000496062D01*
X0000501992Y0000496303D01*
X0000501992Y0000497028D01*
X0000502030Y0000497800D01*
X0000502219Y0000499723D01*
X0000502332Y0000500487D01*
X0000502708Y0000502382D01*
X0000502897Y0000503131D01*
X0000503457Y0000504980D01*
X0000503718Y0000505707D01*
X0000504457Y0000507492D01*
X0000504788Y0000508190D01*
X0000505698Y0000509895D01*
X0000506096Y0000510557D01*
X0000507169Y0000512163D01*
X0000507629Y0000512784D01*
X0000508854Y0000514277D01*
X0000509374Y0000514850D01*
X0000510740Y0000516216D01*
X0000511312Y0000516735D01*
X0000512804Y0000517960D01*
X0000513426Y0000518421D01*
X0000515032Y0000519494D01*
X0000515695Y0000519891D01*
X0000517399Y0000520802D01*
X0000518097Y0000521132D01*
X0000519881Y0000521872D01*
X0000520610Y0000522132D01*
X0000522458Y0000522692D01*
X0000523208Y0000522880D01*
X0000525103Y0000523257D01*
X0000525867Y0000523371D01*
X0000527789Y0000523560D01*
X0000528561Y0000523598D01*
X0000529286Y0000523598D01*
X0000529527Y0000523622D01*
X0000549212Y0000523622D01*
X0000550748Y0000523470D01*
X0000552225Y0000523022D01*
X0000553587Y0000522294D01*
X0000554780Y0000521315D01*
X0000555759Y0000520122D01*
X0000556487Y0000518761D01*
X0000556935Y0000517283D01*
X0000557086Y0000515746D01*
X0000557086Y0000456692D01*
X0000556935Y0000455156D01*
X0000556487Y0000453679D01*
X0000555759Y0000452318D01*
X0000554780Y0000451125D01*
X0000553587Y0000450145D01*
X0000552225Y0000449418D01*
X0000550748Y0000448970D01*
X0000549212Y0000448818D01*
X0000529527Y0000448818D01*
X0000529286Y0000448842D01*
X0000529286Y0000448842D01*
G37*
D14*
X0000580708Y0000486220D03*
D11*
G36*
X0000559487Y0000448970D02*
G01*
X0000558010Y0000449418D01*
X0000556649Y0000450145D01*
X0000555455Y0000451125D01*
X0000554476Y0000452318D01*
X0000553748Y0000453679D01*
X0000553300Y0000455156D01*
X0000553149Y0000456692D01*
X0000553149Y0000515746D01*
X0000553300Y0000517283D01*
X0000553748Y0000518761D01*
X0000554476Y0000520122D01*
X0000555455Y0000521315D01*
X0000556649Y0000522294D01*
X0000558010Y0000523022D01*
X0000559487Y0000523470D01*
X0000561023Y0000523622D01*
X0000580708Y0000523622D01*
X0000580949Y0000523598D01*
X0000581674Y0000523598D01*
X0000582446Y0000523560D01*
X0000584368Y0000523371D01*
X0000585133Y0000523257D01*
X0000587027Y0000522880D01*
X0000587777Y0000522692D01*
X0000589626Y0000522132D01*
X0000590353Y0000521872D01*
X0000592138Y0000521132D01*
X0000592837Y0000520802D01*
X0000594540Y0000519891D01*
X0000595203Y0000519494D01*
X0000596809Y0000518421D01*
X0000597430Y0000517960D01*
X0000598923Y0000516735D01*
X0000599496Y0000516216D01*
X0000600862Y0000514850D01*
X0000601380Y0000514277D01*
X0000602606Y0000512784D01*
X0000603066Y0000512163D01*
X0000604140Y0000510557D01*
X0000604537Y0000509895D01*
X0000605447Y0000508190D01*
X0000605778Y0000507492D01*
X0000606517Y0000505707D01*
X0000606777Y0000504980D01*
X0000607338Y0000503131D01*
X0000607526Y0000502382D01*
X0000607903Y0000500487D01*
X0000608016Y0000499723D01*
X0000608206Y0000497800D01*
X0000608244Y0000497028D01*
X0000608244Y0000496303D01*
X0000608267Y0000496062D01*
X0000608267Y0000476377D01*
X0000608244Y0000476137D01*
X0000608244Y0000475412D01*
X0000608206Y0000474640D01*
X0000608016Y0000472717D01*
X0000607903Y0000471953D01*
X0000607526Y0000470058D01*
X0000607338Y0000469309D01*
X0000606777Y0000467460D01*
X0000606517Y0000466733D01*
X0000605778Y0000464948D01*
X0000605447Y0000464249D01*
X0000604537Y0000462545D01*
X0000604140Y0000461883D01*
X0000603066Y0000460277D01*
X0000602606Y0000459656D01*
X0000601380Y0000458163D01*
X0000600862Y0000457590D01*
X0000599496Y0000456224D01*
X0000598923Y0000455705D01*
X0000597430Y0000454480D01*
X0000596809Y0000454019D01*
X0000595203Y0000452946D01*
X0000594540Y0000452549D01*
X0000592837Y0000451638D01*
X0000592138Y0000451308D01*
X0000590353Y0000450568D01*
X0000589626Y0000450308D01*
X0000587777Y0000449747D01*
X0000587027Y0000449559D01*
X0000585133Y0000449182D01*
X0000584368Y0000449069D01*
X0000582446Y0000448880D01*
X0000581674Y0000448842D01*
X0000580949Y0000448842D01*
X0000580708Y0000448818D01*
X0000561023Y0000448818D01*
X0000559487Y0000448970D01*
X0000559487Y0000448970D01*
G37*
D10*
X0000734586Y0000248759D03*
X0000734586Y0000348759D03*
X0000734586Y0000448759D03*
D15*
X0000732677Y0000697559D03*
X0000653936Y0000697559D03*
X0000575196Y0000697559D03*
X0000496456Y0000697559D03*
X0000417716Y0000697559D03*
X0000338976Y0000697559D03*
X0000260236Y0000697559D03*
X0000181496Y0000697559D03*
X0000417716Y0001445590D03*
X0000496456Y0001445590D03*
X0000338976Y0001445590D03*
D16*
X0000368110Y0000305511D03*
X0000293307Y0000305511D03*
X0000293307Y0000202362D03*
X0000330708Y0000202362D03*
X0000368110Y0000202362D03*
D17*
X0000055531Y0001006259D03*
X0000055531Y0001206259D03*
X0000055531Y0001406258D03*
X0000054586Y0001106259D03*
X0000054586Y0001306259D03*
D18*
X0000712086Y0001506259D03*
X0000077086Y0000071259D03*
D19*
X0000072086Y0001518759D03*
D30*
X-0006692913Y0006614173D02*
X0000051181Y0001941731D03*
X0000051181Y0002041732D03*
X0000051181Y0002141732D03*
D31*
G36*
X0000575368Y0002105030D02*
G01*
X0000577129Y0002104769D01*
X0000578856Y0002104336D01*
X0000580533Y0002103737D01*
X0000582142Y0002102975D01*
X0000583669Y0002102060D01*
X0000585099Y0002101000D01*
X0000586418Y0002099804D01*
X0000587614Y0002098485D01*
X0000588674Y0002097055D01*
X0000589590Y0002095527D01*
X0000590351Y0002093918D01*
X0000590951Y0002092242D01*
X0000591383Y0002090515D01*
X0000591644Y0002088754D01*
X0000591732Y0002086976D01*
X0000591732Y0002028770D01*
X0000591644Y0002026993D01*
X0000591383Y0002025232D01*
X0000590951Y0002023505D01*
X0000590351Y0002021828D01*
X0000589590Y0002020219D01*
X0000588674Y0002018692D01*
X0000587614Y0002017262D01*
X0000586418Y0002015943D01*
X0000585099Y0002014746D01*
X0000583669Y0002013687D01*
X0000582142Y0002012772D01*
X0000580533Y0002012010D01*
X0000578856Y0002011410D01*
X0000577129Y0002010978D01*
X0000575368Y0002010717D01*
X0000573590Y0002010629D01*
X0000460266Y0002010629D01*
X0000458489Y0002010717D01*
X0000456728Y0002010978D01*
X0000455001Y0002011410D01*
X0000453325Y0002012010D01*
X0000451715Y0002012772D01*
X0000450188Y0002013687D01*
X0000448758Y0002014746D01*
X0000447439Y0002015943D01*
X0000446243Y0002017262D01*
X0000445183Y0002018692D01*
X0000444268Y0002020219D01*
X0000443506Y0002021828D01*
X0000442907Y0002023505D01*
X0000442474Y0002025232D01*
X0000442213Y0002026993D01*
X0000442125Y0002028770D01*
X0000442125Y0002086976D01*
X0000442213Y0002088754D01*
X0000442474Y0002090515D01*
X0000442907Y0002092242D01*
X0000443506Y0002093918D01*
X0000444268Y0002095527D01*
X0000445183Y0002097055D01*
X0000446243Y0002098485D01*
X0000447439Y0002099804D01*
X0000448758Y0002101000D01*
X0000450188Y0002102060D01*
X0000451715Y0002102975D01*
X0000453325Y0002103737D01*
X0000455001Y0002104336D01*
X0000456728Y0002104769D01*
X0000458489Y0002105030D01*
X0000460266Y0002105118D01*
X0000573590Y0002105118D01*
X0000575368Y0002105030D01*
X0000575368Y0002105030D01*
G37*
D32*
X0000516929Y0002057872D03*
D31*
G36*
X0000575368Y0001919991D02*
G01*
X0000577129Y0001919729D01*
X0000578856Y0001919297D01*
X0000580533Y0001918697D01*
X0000582142Y0001917936D01*
X0000583669Y0001917021D01*
X0000585099Y0001915960D01*
X0000586418Y0001914765D01*
X0000587614Y0001913445D01*
X0000588674Y0001912016D01*
X0000589590Y0001910488D01*
X0000590351Y0001908879D01*
X0000590951Y0001907203D01*
X0000591383Y0001905476D01*
X0000591644Y0001903715D01*
X0000591732Y0001901937D01*
X0000591732Y0001843732D01*
X0000591644Y0001841954D01*
X0000591383Y0001840191D01*
X0000590951Y0001838465D01*
X0000590351Y0001836789D01*
X0000589590Y0001835180D01*
X0000588674Y0001833653D01*
X0000587614Y0001832221D01*
X0000586418Y0001830904D01*
X0000585099Y0001829708D01*
X0000583669Y0001828647D01*
X0000582142Y0001827732D01*
X0000580533Y0001826971D01*
X0000578856Y0001826371D01*
X0000577129Y0001825939D01*
X0000575368Y0001825677D01*
X0000573590Y0001825590D01*
X0000460266Y0001825590D01*
X0000458489Y0001825677D01*
X0000456728Y0001825939D01*
X0000455001Y0001826371D01*
X0000453325Y0001826971D01*
X0000451715Y0001827732D01*
X0000450188Y0001828647D01*
X0000448758Y0001829708D01*
X0000447439Y0001830904D01*
X0000446243Y0001832221D01*
X0000445183Y0001833653D01*
X0000444268Y0001835180D01*
X0000443506Y0001836789D01*
X0000442907Y0001838465D01*
X0000442474Y0001840191D01*
X0000442213Y0001841954D01*
X0000442125Y0001843732D01*
X0000442125Y0001901937D01*
X0000442213Y0001903715D01*
X0000442474Y0001905476D01*
X0000442907Y0001907203D01*
X0000443506Y0001908879D01*
X0000444268Y0001910488D01*
X0000445183Y0001912016D01*
X0000446243Y0001913445D01*
X0000447439Y0001914765D01*
X0000448758Y0001915960D01*
X0000450188Y0001917021D01*
X0000451715Y0001917936D01*
X0000453325Y0001918697D01*
X0000455001Y0001919297D01*
X0000456728Y0001919729D01*
X0000458489Y0001919991D01*
X0000460266Y0001920078D01*
X0000573590Y0001920078D01*
X0000575368Y0001919991D01*
X0000575368Y0001919991D01*
G37*
D32*
X0000516929Y0001872834D03*
D31*
G36*
X0000306931Y0001846391D02*
G01*
X0000308219Y0001846201D01*
X0000309482Y0001845885D01*
X0000310708Y0001845446D01*
X0000311885Y0001844890D01*
X0000313001Y0001844220D01*
X0000314047Y0001843445D01*
X0000315012Y0001842571D01*
X0000315886Y0001841606D01*
X0000316661Y0001840560D01*
X0000317331Y0001839444D01*
X0000317887Y0001838267D01*
X0000318326Y0001837041D01*
X0000318641Y0001835778D01*
X0000318833Y0001834490D01*
X0000318897Y0001833190D01*
X0000318897Y0001788856D01*
X0000318833Y0001787556D01*
X0000318641Y0001786267D01*
X0000318326Y0001785005D01*
X0000317887Y0001783779D01*
X0000317331Y0001782602D01*
X0000316661Y0001781486D01*
X0000315886Y0001780438D01*
X0000315012Y0001779476D01*
X0000314047Y0001778601D01*
X0000313001Y0001777826D01*
X0000311885Y0001777156D01*
X0000310708Y0001776600D01*
X0000309482Y0001776160D01*
X0000308219Y0001775845D01*
X0000306931Y0001775654D01*
X0000305631Y0001775589D01*
X0000271139Y0001775589D01*
X0000269839Y0001775654D01*
X0000268551Y0001775845D01*
X0000267289Y0001776160D01*
X0000266063Y0001776600D01*
X0000264886Y0001777156D01*
X0000263769Y0001777826D01*
X0000262724Y0001778601D01*
X0000261759Y0001779476D01*
X0000260884Y0001780438D01*
X0000260108Y0001781486D01*
X0000259440Y0001782602D01*
X0000258882Y0001783779D01*
X0000258444Y0001785005D01*
X0000258128Y0001786267D01*
X0000257937Y0001787556D01*
X0000257874Y0001788856D01*
X0000257874Y0001833190D01*
X0000257937Y0001834490D01*
X0000258128Y0001835778D01*
X0000258444Y0001837041D01*
X0000258882Y0001838267D01*
X0000259440Y0001839444D01*
X0000260108Y0001840560D01*
X0000260884Y0001841606D01*
X0000261759Y0001842571D01*
X0000262724Y0001843445D01*
X0000263769Y0001844220D01*
X0000264886Y0001844890D01*
X0000266063Y0001845446D01*
X0000267289Y0001845885D01*
X0000268551Y0001846201D01*
X0000269839Y0001846391D01*
X0000271139Y0001846456D01*
X0000305631Y0001846456D01*
X0000306931Y0001846391D01*
X0000306931Y0001846391D01*
G37*
D33*
X0000288385Y0001811023D03*
D31*
G36*
X0000387640Y0001846391D02*
G01*
X0000388928Y0001846201D01*
X0000390191Y0001845885D01*
X0000391415Y0001845446D01*
X0000392593Y0001844890D01*
X0000393710Y0001844220D01*
X0000394756Y0001843445D01*
X0000395720Y0001842571D01*
X0000396595Y0001841606D01*
X0000397370Y0001840560D01*
X0000398039Y0001839444D01*
X0000398596Y0001838267D01*
X0000399034Y0001837041D01*
X0000399351Y0001835778D01*
X0000399542Y0001834490D01*
X0000399606Y0001833190D01*
X0000399606Y0001788856D01*
X0000399542Y0001787556D01*
X0000399351Y0001786267D01*
X0000399034Y0001785005D01*
X0000398596Y0001783779D01*
X0000398039Y0001782602D01*
X0000397370Y0001781486D01*
X0000396595Y0001780438D01*
X0000395720Y0001779476D01*
X0000394756Y0001778601D01*
X0000393710Y0001777826D01*
X0000392593Y0001777156D01*
X0000391415Y0001776600D01*
X0000390191Y0001776160D01*
X0000388928Y0001775845D01*
X0000387640Y0001775654D01*
X0000386340Y0001775589D01*
X0000351848Y0001775589D01*
X0000350548Y0001775654D01*
X0000349260Y0001775845D01*
X0000347997Y0001776160D01*
X0000346771Y0001776600D01*
X0000345595Y0001777156D01*
X0000344478Y0001777826D01*
X0000343432Y0001778601D01*
X0000342468Y0001779476D01*
X0000341593Y0001780438D01*
X0000340818Y0001781486D01*
X0000340149Y0001782602D01*
X0000339591Y0001783779D01*
X0000339152Y0001785005D01*
X0000338837Y0001786267D01*
X0000338646Y0001787556D01*
X0000338582Y0001788856D01*
X0000338582Y0001833190D01*
X0000338646Y0001834490D01*
X0000338837Y0001835778D01*
X0000339152Y0001837041D01*
X0000339591Y0001838267D01*
X0000340149Y0001839444D01*
X0000340818Y0001840560D01*
X0000341593Y0001841606D01*
X0000342468Y0001842571D01*
X0000343432Y0001843445D01*
X0000344478Y0001844220D01*
X0000345595Y0001844890D01*
X0000346771Y0001845446D01*
X0000347997Y0001845885D01*
X0000349260Y0001846201D01*
X0000350548Y0001846391D01*
X0000351848Y0001846456D01*
X0000386340Y0001846456D01*
X0000387640Y0001846391D01*
X0000387640Y0001846391D01*
G37*
D33*
X0000369094Y0001811023D03*
D31*
G36*
X0000273467Y0002114109D02*
G01*
X0000274755Y0002113918D01*
X0000276017Y0002113602D01*
X0000277243Y0002113163D01*
X0000278420Y0002112606D01*
X0000279537Y0002111937D01*
X0000280582Y0002111162D01*
X0000281547Y0002110287D01*
X0000282421Y0002109323D01*
X0000283197Y0002108277D01*
X0000283866Y0002107160D01*
X0000284423Y0002105983D01*
X0000284861Y0002104758D01*
X0000285178Y0002103495D01*
X0000285369Y0002102207D01*
X0000285433Y0002100907D01*
X0000285433Y0002056573D01*
X0000285369Y0002055272D01*
X0000285178Y0002053983D01*
X0000284861Y0002052722D01*
X0000284423Y0002051496D01*
X0000283866Y0002050319D01*
X0000283197Y0002049202D01*
X0000282421Y0002048156D01*
X0000281547Y0002047192D01*
X0000280582Y0002046317D01*
X0000279537Y0002045542D01*
X0000278420Y0002044873D01*
X0000277243Y0002044315D01*
X0000276017Y0002043877D01*
X0000274755Y0002043562D01*
X0000273467Y0002043370D01*
X0000272167Y0002043307D01*
X0000237675Y0002043307D01*
X0000236375Y0002043370D01*
X0000235087Y0002043562D01*
X0000233823Y0002043877D01*
X0000232598Y0002044315D01*
X0000231421Y0002044873D01*
X0000230305Y0002045542D01*
X0000229259Y0002046317D01*
X0000228294Y0002047192D01*
X0000227420Y0002048156D01*
X0000226645Y0002049202D01*
X0000225975Y0002050319D01*
X0000225419Y0002051496D01*
X0000224980Y0002052722D01*
X0000224664Y0002053983D01*
X0000224473Y0002055272D01*
X0000224409Y0002056573D01*
X0000224409Y0002100907D01*
X0000224473Y0002102207D01*
X0000224664Y0002103495D01*
X0000224980Y0002104758D01*
X0000225419Y0002105983D01*
X0000225975Y0002107160D01*
X0000226645Y0002108277D01*
X0000227420Y0002109323D01*
X0000228294Y0002110287D01*
X0000229259Y0002111162D01*
X0000230305Y0002111937D01*
X0000231421Y0002112606D01*
X0000232598Y0002113163D01*
X0000233823Y0002113602D01*
X0000235087Y0002113918D01*
X0000236375Y0002114109D01*
X0000237675Y0002114173D01*
X0000272167Y0002114173D01*
X0000273467Y0002114109D01*
X0000273467Y0002114109D01*
G37*
D33*
X0000254921Y0002078739D03*
D31*
G36*
X0000354176Y0002114109D02*
G01*
X0000355463Y0002113918D01*
X0000356726Y0002113602D01*
X0000357952Y0002113163D01*
X0000359129Y0002112606D01*
X0000360245Y0002111937D01*
X0000361291Y0002111162D01*
X0000362256Y0002110287D01*
X0000363130Y0002109323D01*
X0000363905Y0002108277D01*
X0000364575Y0002107160D01*
X0000365131Y0002105983D01*
X0000365570Y0002104758D01*
X0000365886Y0002103495D01*
X0000366077Y0002102207D01*
X0000366141Y0002100907D01*
X0000366141Y0002056573D01*
X0000366077Y0002055272D01*
X0000365886Y0002053983D01*
X0000365570Y0002052722D01*
X0000365131Y0002051496D01*
X0000364575Y0002050319D01*
X0000363905Y0002049202D01*
X0000363130Y0002048156D01*
X0000362256Y0002047192D01*
X0000361291Y0002046317D01*
X0000360245Y0002045542D01*
X0000359129Y0002044873D01*
X0000357952Y0002044315D01*
X0000356726Y0002043877D01*
X0000355463Y0002043562D01*
X0000354176Y0002043370D01*
X0000352875Y0002043307D01*
X0000318384Y0002043307D01*
X0000317083Y0002043370D01*
X0000315796Y0002043562D01*
X0000314533Y0002043877D01*
X0000313307Y0002044315D01*
X0000312130Y0002044873D01*
X0000311013Y0002045542D01*
X0000309968Y0002046317D01*
X0000309003Y0002047192D01*
X0000308129Y0002048156D01*
X0000307353Y0002049202D01*
X0000306684Y0002050319D01*
X0000306127Y0002051496D01*
X0000305689Y0002052722D01*
X0000305372Y0002053983D01*
X0000305181Y0002055272D01*
X0000305118Y0002056573D01*
X0000305118Y0002100907D01*
X0000305181Y0002102207D01*
X0000305372Y0002103495D01*
X0000305689Y0002104758D01*
X0000306127Y0002105983D01*
X0000306684Y0002107160D01*
X0000307353Y0002108277D01*
X0000308129Y0002109323D01*
X0000309003Y0002110287D01*
X0000309968Y0002111162D01*
X0000311013Y0002111937D01*
X0000312130Y0002112606D01*
X0000313307Y0002113163D01*
X0000314533Y0002113602D01*
X0000315796Y0002113918D01*
X0000317083Y0002114109D01*
X0000318384Y0002114173D01*
X0000352875Y0002114173D01*
X0000354176Y0002114109D01*
X0000354176Y0002114109D01*
G37*
D33*
X0000335629Y0002078739D03*
D31*
G36*
X0000670120Y0002320802D02*
G01*
X0000671408Y0002320611D01*
X0000672671Y0002320294D01*
X0000673897Y0002319856D01*
X0000675074Y0002319299D01*
X0000676190Y0002318630D01*
X0000677236Y0002317854D01*
X0000678201Y0002316980D01*
X0000679075Y0002316016D01*
X0000679850Y0002314970D01*
X0000680520Y0002313853D01*
X0000681076Y0002312676D01*
X0000681515Y0002311451D01*
X0000681831Y0002310188D01*
X0000682022Y0002308900D01*
X0000682086Y0002307600D01*
X0000682086Y0002263265D01*
X0000682022Y0002261965D01*
X0000681831Y0002260677D01*
X0000681515Y0002259415D01*
X0000681076Y0002258189D01*
X0000680520Y0002257012D01*
X0000679850Y0002255895D01*
X0000679075Y0002254850D01*
X0000678201Y0002253885D01*
X0000677236Y0002253011D01*
X0000676190Y0002252235D01*
X0000675074Y0002251566D01*
X0000673897Y0002251009D01*
X0000672671Y0002250571D01*
X0000671408Y0002250254D01*
X0000670120Y0002250063D01*
X0000668820Y0002250000D01*
X0000634328Y0002250000D01*
X0000633028Y0002250063D01*
X0000631740Y0002250254D01*
X0000630478Y0002250571D01*
X0000629252Y0002251009D01*
X0000628075Y0002251566D01*
X0000626958Y0002252235D01*
X0000625913Y0002253011D01*
X0000624948Y0002253885D01*
X0000624074Y0002254850D01*
X0000623298Y0002255895D01*
X0000622629Y0002257012D01*
X0000622072Y0002258189D01*
X0000621634Y0002259415D01*
X0000621317Y0002260677D01*
X0000621126Y0002261965D01*
X0000621062Y0002263265D01*
X0000621062Y0002307600D01*
X0000621126Y0002308900D01*
X0000621317Y0002310188D01*
X0000621634Y0002311451D01*
X0000622072Y0002312676D01*
X0000622629Y0002313853D01*
X0000623298Y0002314970D01*
X0000624074Y0002316016D01*
X0000624948Y0002316980D01*
X0000625913Y0002317854D01*
X0000626958Y0002318630D01*
X0000628075Y0002319299D01*
X0000629252Y0002319856D01*
X0000630478Y0002320294D01*
X0000631740Y0002320611D01*
X0000633028Y0002320802D01*
X0000634328Y0002320866D01*
X0000668820Y0002320866D01*
X0000670120Y0002320802D01*
X0000670120Y0002320802D01*
G37*
D33*
X0000651574Y0002285433D03*
D31*
G36*
X0000750829Y0002320802D02*
G01*
X0000752117Y0002320611D01*
X0000753380Y0002320294D01*
X0000754605Y0002319856D01*
X0000755782Y0002319299D01*
X0000756899Y0002318630D01*
X0000757945Y0002317854D01*
X0000758909Y0002316980D01*
X0000759784Y0002316016D01*
X0000760559Y0002314970D01*
X0000761228Y0002313853D01*
X0000761785Y0002312676D01*
X0000762223Y0002311451D01*
X0000762540Y0002310188D01*
X0000762731Y0002308900D01*
X0000762795Y0002307600D01*
X0000762795Y0002263265D01*
X0000762731Y0002261965D01*
X0000762540Y0002260677D01*
X0000762223Y0002259415D01*
X0000761785Y0002258189D01*
X0000761228Y0002257012D01*
X0000760559Y0002255895D01*
X0000759784Y0002254850D01*
X0000758909Y0002253885D01*
X0000757945Y0002253011D01*
X0000756899Y0002252235D01*
X0000755782Y0002251566D01*
X0000754605Y0002251009D01*
X0000753380Y0002250571D01*
X0000752117Y0002250254D01*
X0000750829Y0002250063D01*
X0000749529Y0002250000D01*
X0000715037Y0002250000D01*
X0000713737Y0002250063D01*
X0000712449Y0002250254D01*
X0000711186Y0002250571D01*
X0000709960Y0002251009D01*
X0000708784Y0002251566D01*
X0000707667Y0002252235D01*
X0000706621Y0002253011D01*
X0000705657Y0002253885D01*
X0000704782Y0002254850D01*
X0000704007Y0002255895D01*
X0000703338Y0002257012D01*
X0000702781Y0002258189D01*
X0000702342Y0002259415D01*
X0000702026Y0002260677D01*
X0000701835Y0002261965D01*
X0000701771Y0002263265D01*
X0000701771Y0002307600D01*
X0000701835Y0002308900D01*
X0000702026Y0002310188D01*
X0000702342Y0002311451D01*
X0000702781Y0002312676D01*
X0000703338Y0002313853D01*
X0000704007Y0002314970D01*
X0000704782Y0002316016D01*
X0000705657Y0002316980D01*
X0000706621Y0002317854D01*
X0000707667Y0002318630D01*
X0000708784Y0002319299D01*
X0000709960Y0002319856D01*
X0000711186Y0002320294D01*
X0000712449Y0002320611D01*
X0000713737Y0002320802D01*
X0000715037Y0002320866D01*
X0000749529Y0002320866D01*
X0000750829Y0002320802D01*
X0000750829Y0002320802D01*
G37*
D33*
X0000732283Y0002285433D03*
D34*
X0000529527Y0002179133D03*
D31*
G36*
X0000529286Y0002141755D02*
G01*
X0000528561Y0002141755D01*
X0000527789Y0002141793D01*
X0000525867Y0002141983D01*
X0000525103Y0002142096D01*
X0000523208Y0002142473D01*
X0000522458Y0002142661D01*
X0000520610Y0002143222D01*
X0000519881Y0002143482D01*
X0000518097Y0002144221D01*
X0000517399Y0002144552D01*
X0000515695Y0002145462D01*
X0000515032Y0002145859D01*
X0000513426Y0002146933D01*
X0000512804Y0002147393D01*
X0000511312Y0002148619D01*
X0000510740Y0002149137D01*
X0000509374Y0002150503D01*
X0000508854Y0002151076D01*
X0000507629Y0002152569D01*
X0000507169Y0002153190D01*
X0000506096Y0002154796D01*
X0000505698Y0002155459D01*
X0000504788Y0002157162D01*
X0000504457Y0002157861D01*
X0000503718Y0002159646D01*
X0000503457Y0002160373D01*
X0000502897Y0002162222D01*
X0000502708Y0002162972D01*
X0000502332Y0002164866D01*
X0000502219Y0002165631D01*
X0000502030Y0002167553D01*
X0000501992Y0002168325D01*
X0000501992Y0002169050D01*
X0000501967Y0002169291D01*
X0000501967Y0002188976D01*
X0000501992Y0002189216D01*
X0000501992Y0002189942D01*
X0000502030Y0002190714D01*
X0000502219Y0002192636D01*
X0000502332Y0002193400D01*
X0000502708Y0002195295D01*
X0000502897Y0002196045D01*
X0000503457Y0002197893D01*
X0000503718Y0002198621D01*
X0000504457Y0002200406D01*
X0000504788Y0002201104D01*
X0000505698Y0002202808D01*
X0000506096Y0002203470D01*
X0000507169Y0002205077D01*
X0000507629Y0002205698D01*
X0000508854Y0002207191D01*
X0000509374Y0002207763D01*
X0000510740Y0002209129D01*
X0000511312Y0002209648D01*
X0000512804Y0002210874D01*
X0000513426Y0002211334D01*
X0000515032Y0002212407D01*
X0000515695Y0002212804D01*
X0000517399Y0002213715D01*
X0000518097Y0002214046D01*
X0000519881Y0002214785D01*
X0000520610Y0002215045D01*
X0000522458Y0002215606D01*
X0000523208Y0002215794D01*
X0000525103Y0002216171D01*
X0000525867Y0002216284D01*
X0000527789Y0002216473D01*
X0000528561Y0002216511D01*
X0000529286Y0002216511D01*
X0000529527Y0002216535D01*
X0000549212Y0002216535D01*
X0000550748Y0002216384D01*
X0000552225Y0002215936D01*
X0000553587Y0002215208D01*
X0000554780Y0002214229D01*
X0000555759Y0002213035D01*
X0000556487Y0002211674D01*
X0000556935Y0002210197D01*
X0000557086Y0002208661D01*
X0000557086Y0002149606D01*
X0000556935Y0002148070D01*
X0000556487Y0002146593D01*
X0000555759Y0002145231D01*
X0000554780Y0002144038D01*
X0000553587Y0002143059D01*
X0000552225Y0002142331D01*
X0000550748Y0002141883D01*
X0000549212Y0002141732D01*
X0000529527Y0002141732D01*
X0000529286Y0002141755D01*
X0000529286Y0002141755D01*
G37*
D34*
X0000580708Y0002179133D03*
D31*
G36*
X0000559487Y0002141883D02*
G01*
X0000558010Y0002142331D01*
X0000556649Y0002143059D01*
X0000555455Y0002144038D01*
X0000554476Y0002145231D01*
X0000553748Y0002146593D01*
X0000553300Y0002148070D01*
X0000553149Y0002149606D01*
X0000553149Y0002208661D01*
X0000553300Y0002210197D01*
X0000553748Y0002211674D01*
X0000554476Y0002213035D01*
X0000555455Y0002214229D01*
X0000556649Y0002215208D01*
X0000558010Y0002215936D01*
X0000559487Y0002216384D01*
X0000561023Y0002216535D01*
X0000580708Y0002216535D01*
X0000580949Y0002216511D01*
X0000581674Y0002216511D01*
X0000582446Y0002216473D01*
X0000584368Y0002216284D01*
X0000585133Y0002216171D01*
X0000587027Y0002215794D01*
X0000587777Y0002215606D01*
X0000589626Y0002215045D01*
X0000590353Y0002214785D01*
X0000592138Y0002214046D01*
X0000592837Y0002213715D01*
X0000594540Y0002212804D01*
X0000595203Y0002212407D01*
X0000596809Y0002211334D01*
X0000597430Y0002210874D01*
X0000598923Y0002209648D01*
X0000599496Y0002209129D01*
X0000600862Y0002207763D01*
X0000601380Y0002207191D01*
X0000602606Y0002205698D01*
X0000603066Y0002205077D01*
X0000604140Y0002203470D01*
X0000604537Y0002202808D01*
X0000605447Y0002201104D01*
X0000605778Y0002200406D01*
X0000606517Y0002198621D01*
X0000606777Y0002197893D01*
X0000607338Y0002196045D01*
X0000607526Y0002195295D01*
X0000607903Y0002193400D01*
X0000608016Y0002192636D01*
X0000608206Y0002190714D01*
X0000608244Y0002189942D01*
X0000608244Y0002189216D01*
X0000608267Y0002188976D01*
X0000608267Y0002169291D01*
X0000608244Y0002169050D01*
X0000608244Y0002168325D01*
X0000608206Y0002167553D01*
X0000608016Y0002165631D01*
X0000607903Y0002164866D01*
X0000607526Y0002162972D01*
X0000607338Y0002162222D01*
X0000606777Y0002160373D01*
X0000606517Y0002159646D01*
X0000605778Y0002157861D01*
X0000605447Y0002157162D01*
X0000604537Y0002155459D01*
X0000604140Y0002154796D01*
X0000603066Y0002153190D01*
X0000602606Y0002152569D01*
X0000601380Y0002151076D01*
X0000600862Y0002150503D01*
X0000599496Y0002149137D01*
X0000598923Y0002148619D01*
X0000597430Y0002147393D01*
X0000596809Y0002146933D01*
X0000595203Y0002145859D01*
X0000594540Y0002145462D01*
X0000592837Y0002144552D01*
X0000592138Y0002144221D01*
X0000590353Y0002143482D01*
X0000589626Y0002143222D01*
X0000587777Y0002142661D01*
X0000587027Y0002142473D01*
X0000585133Y0002142096D01*
X0000584368Y0002141983D01*
X0000582446Y0002141793D01*
X0000581674Y0002141755D01*
X0000580949Y0002141755D01*
X0000580708Y0002141732D01*
X0000561023Y0002141732D01*
X0000559487Y0002141883D01*
X0000559487Y0002141883D01*
G37*
D30*
X0000734586Y0001941673D03*
X0000734586Y0002041672D03*
X0000734586Y0002141673D03*
D35*
X0000732677Y0002390472D03*
X0000653936Y0002390472D03*
X0000575196Y0002390472D03*
X0000496456Y0002390472D03*
X0000417716Y0002390472D03*
X0000338976Y0002390472D03*
X0000260236Y0002390472D03*
X0000181496Y0002390472D03*
X0000417716Y0003138503D03*
X0000496456Y0003138503D03*
X0000338976Y0003138503D03*
D36*
X0000368110Y0001998425D03*
X0000293307Y0001998425D03*
X0000293307Y0001895275D03*
X0000330708Y0001895275D03*
X0000368110Y0001895275D03*
D37*
X0000055531Y0002699173D03*
X0000055531Y0002899173D03*
X0000055531Y0003099173D03*
X0000054586Y0002799172D03*
X0000054586Y0002999173D03*
D38*
X0000712086Y0003199173D03*
X0000077086Y0001764173D03*
D39*
X0000072086Y0003211673D03*
D50*
X-0005787401Y0004921259D02*
X0000956692Y0000248818D03*
X0000956692Y0000348818D03*
X0000956692Y0000448818D03*
D51*
G36*
X0001480880Y0000412117D02*
G01*
X0001482641Y0000411856D01*
X0001484368Y0000411423D01*
X0001486043Y0000410823D01*
X0001487654Y0000410061D01*
X0001489181Y0000409147D01*
X0001490611Y0000408086D01*
X0001491930Y0000406891D01*
X0001493124Y0000405571D01*
X0001494185Y0000404142D01*
X0001495101Y0000402614D01*
X0001495863Y0000401004D01*
X0001496462Y0000399329D01*
X0001496895Y0000397602D01*
X0001497154Y0000395841D01*
X0001497244Y0000394062D01*
X0001497244Y0000335858D01*
X0001497154Y0000334080D01*
X0001496895Y0000332318D01*
X0001496462Y0000330591D01*
X0001495863Y0000328915D01*
X0001495101Y0000327306D01*
X0001494185Y0000325779D01*
X0001493124Y0000324349D01*
X0001491930Y0000323029D01*
X0001490611Y0000321834D01*
X0001489181Y0000320773D01*
X0001487654Y0000319858D01*
X0001486043Y0000319097D01*
X0001484368Y0000318497D01*
X0001482641Y0000318064D01*
X0001480880Y0000317803D01*
X0001479102Y0000317716D01*
X0001365779Y0000317716D01*
X0001364001Y0000317803D01*
X0001362240Y0000318064D01*
X0001360513Y0000318497D01*
X0001358836Y0000319097D01*
X0001357227Y0000319858D01*
X0001355700Y0000320773D01*
X0001354270Y0000321834D01*
X0001352951Y0000323029D01*
X0001351754Y0000324349D01*
X0001350695Y0000325779D01*
X0001349779Y0000327306D01*
X0001349018Y0000328915D01*
X0001348418Y0000330591D01*
X0001347986Y0000332318D01*
X0001347724Y0000334080D01*
X0001347637Y0000335858D01*
X0001347637Y0000394062D01*
X0001347724Y0000395841D01*
X0001347986Y0000397602D01*
X0001348418Y0000399329D01*
X0001349018Y0000401004D01*
X0001349779Y0000402614D01*
X0001350695Y0000404142D01*
X0001351754Y0000405571D01*
X0001352951Y0000406891D01*
X0001354270Y0000408086D01*
X0001355700Y0000409147D01*
X0001357227Y0000410061D01*
X0001358836Y0000410823D01*
X0001360513Y0000411423D01*
X0001362240Y0000411856D01*
X0001364001Y0000412117D01*
X0001365779Y0000412204D01*
X0001479102Y0000412204D01*
X0001480880Y0000412117D01*
X0001480880Y0000412117D01*
G37*
D52*
X0001422440Y0000364960D03*
D51*
G36*
X0001480880Y0000227077D02*
G01*
X0001482641Y0000226816D01*
X0001484368Y0000226384D01*
X0001486043Y0000225783D01*
X0001487654Y0000225023D01*
X0001489181Y0000224107D01*
X0001490611Y0000223047D01*
X0001491930Y0000221851D01*
X0001493124Y0000220532D01*
X0001494185Y0000219102D01*
X0001495101Y0000217575D01*
X0001495863Y0000215965D01*
X0001496462Y0000214289D01*
X0001496895Y0000212561D01*
X0001497154Y0000210801D01*
X0001497244Y0000209023D01*
X0001497244Y0000150818D01*
X0001497154Y0000149040D01*
X0001496895Y0000147279D01*
X0001496462Y0000145552D01*
X0001495863Y0000143876D01*
X0001495101Y0000142266D01*
X0001494185Y0000140739D01*
X0001493124Y0000139309D01*
X0001491930Y0000137990D01*
X0001490611Y0000136795D01*
X0001489181Y0000135734D01*
X0001487654Y0000134819D01*
X0001486043Y0000134058D01*
X0001484368Y0000133458D01*
X0001482641Y0000133025D01*
X0001480880Y0000132764D01*
X0001479102Y0000132677D01*
X0001365779Y0000132677D01*
X0001364001Y0000132764D01*
X0001362240Y0000133025D01*
X0001360513Y0000133458D01*
X0001358836Y0000134058D01*
X0001357227Y0000134819D01*
X0001355700Y0000135734D01*
X0001354270Y0000136795D01*
X0001352951Y0000137990D01*
X0001351754Y0000139309D01*
X0001350695Y0000140739D01*
X0001349779Y0000142266D01*
X0001349018Y0000143876D01*
X0001348418Y0000145552D01*
X0001347986Y0000147279D01*
X0001347724Y0000149040D01*
X0001347637Y0000150818D01*
X0001347637Y0000209023D01*
X0001347724Y0000210801D01*
X0001347986Y0000212561D01*
X0001348418Y0000214289D01*
X0001349018Y0000215965D01*
X0001349779Y0000217575D01*
X0001350695Y0000219102D01*
X0001351754Y0000220532D01*
X0001352951Y0000221851D01*
X0001354270Y0000223047D01*
X0001355700Y0000224107D01*
X0001357227Y0000225023D01*
X0001358836Y0000225783D01*
X0001360513Y0000226384D01*
X0001362240Y0000226816D01*
X0001364001Y0000227077D01*
X0001365779Y0000227165D01*
X0001479102Y0000227165D01*
X0001480880Y0000227077D01*
X0001480880Y0000227077D01*
G37*
D52*
X0001422440Y0000179921D03*
D51*
G36*
X0001212443Y0000153479D02*
G01*
X0001213731Y0000153288D01*
X0001214994Y0000152972D01*
X0001216220Y0000152533D01*
X0001217397Y0000151976D01*
X0001218513Y0000151307D01*
X0001219559Y0000150532D01*
X0001220523Y0000149657D01*
X0001221398Y0000148693D01*
X0001222173Y0000147647D01*
X0001222843Y0000146530D01*
X0001223399Y0000145353D01*
X0001223838Y0000144128D01*
X0001224154Y0000142865D01*
X0001224345Y0000141577D01*
X0001224409Y0000140277D01*
X0001224409Y0000095943D01*
X0001224345Y0000094642D01*
X0001224154Y0000093355D01*
X0001223838Y0000092092D01*
X0001223399Y0000090866D01*
X0001222843Y0000089689D01*
X0001222173Y0000088572D01*
X0001221398Y0000087527D01*
X0001220523Y0000086562D01*
X0001219559Y0000085688D01*
X0001218513Y0000084912D01*
X0001217397Y0000084243D01*
X0001216220Y0000083686D01*
X0001214994Y0000083248D01*
X0001213731Y0000082932D01*
X0001212443Y0000082741D01*
X0001211143Y0000082677D01*
X0001176651Y0000082677D01*
X0001175351Y0000082741D01*
X0001174063Y0000082932D01*
X0001172800Y0000083248D01*
X0001171575Y0000083686D01*
X0001170398Y0000084243D01*
X0001169281Y0000084912D01*
X0001168235Y0000085688D01*
X0001167271Y0000086562D01*
X0001166397Y0000087527D01*
X0001165621Y0000088572D01*
X0001164952Y0000089689D01*
X0001164395Y0000090866D01*
X0001163957Y0000092092D01*
X0001163640Y0000093355D01*
X0001163449Y0000094642D01*
X0001163385Y0000095943D01*
X0001163385Y0000140277D01*
X0001163449Y0000141577D01*
X0001163640Y0000142865D01*
X0001163957Y0000144128D01*
X0001164395Y0000145353D01*
X0001164952Y0000146530D01*
X0001165621Y0000147647D01*
X0001166397Y0000148693D01*
X0001167271Y0000149657D01*
X0001168235Y0000150532D01*
X0001169281Y0000151307D01*
X0001170398Y0000151976D01*
X0001171575Y0000152533D01*
X0001172800Y0000152972D01*
X0001174063Y0000153288D01*
X0001175351Y0000153479D01*
X0001176651Y0000153543D01*
X0001211143Y0000153543D01*
X0001212443Y0000153479D01*
X0001212443Y0000153479D01*
G37*
D53*
X0001193897Y0000118110D03*
D51*
G36*
X0001293152Y0000153479D02*
G01*
X0001294440Y0000153288D01*
X0001295702Y0000152972D01*
X0001296928Y0000152533D01*
X0001298105Y0000151976D01*
X0001299222Y0000151307D01*
X0001300267Y0000150532D01*
X0001301232Y0000149657D01*
X0001302106Y0000148693D01*
X0001302882Y0000147647D01*
X0001303551Y0000146530D01*
X0001304108Y0000145353D01*
X0001304546Y0000144128D01*
X0001304863Y0000142865D01*
X0001305054Y0000141577D01*
X0001305118Y0000140277D01*
X0001305118Y0000095943D01*
X0001305054Y0000094642D01*
X0001304863Y0000093355D01*
X0001304546Y0000092092D01*
X0001304108Y0000090866D01*
X0001303551Y0000089689D01*
X0001302882Y0000088572D01*
X0001302106Y0000087527D01*
X0001301232Y0000086562D01*
X0001300267Y0000085688D01*
X0001299222Y0000084912D01*
X0001298105Y0000084243D01*
X0001296928Y0000083686D01*
X0001295702Y0000083248D01*
X0001294440Y0000082932D01*
X0001293152Y0000082741D01*
X0001291852Y0000082677D01*
X0001257360Y0000082677D01*
X0001256060Y0000082741D01*
X0001254772Y0000082932D01*
X0001253509Y0000083248D01*
X0001252283Y0000083686D01*
X0001251106Y0000084243D01*
X0001249990Y0000084912D01*
X0001248944Y0000085688D01*
X0001247979Y0000086562D01*
X0001247105Y0000087527D01*
X0001246330Y0000088572D01*
X0001245660Y0000089689D01*
X0001245104Y0000090866D01*
X0001244665Y0000092092D01*
X0001244349Y0000093355D01*
X0001244158Y0000094642D01*
X0001244094Y0000095943D01*
X0001244094Y0000140277D01*
X0001244158Y0000141577D01*
X0001244349Y0000142865D01*
X0001244665Y0000144128D01*
X0001245104Y0000145353D01*
X0001245660Y0000146530D01*
X0001246330Y0000147647D01*
X0001247105Y0000148693D01*
X0001247979Y0000149657D01*
X0001248944Y0000150532D01*
X0001249990Y0000151307D01*
X0001251106Y0000151976D01*
X0001252283Y0000152533D01*
X0001253509Y0000152972D01*
X0001254772Y0000153288D01*
X0001256060Y0000153479D01*
X0001257360Y0000153543D01*
X0001291852Y0000153543D01*
X0001293152Y0000153479D01*
X0001293152Y0000153479D01*
G37*
D53*
X0001274606Y0000118110D03*
D51*
G36*
X0001178979Y0000421195D02*
G01*
X0001180266Y0000421004D01*
X0001181529Y0000420688D01*
X0001182755Y0000420250D01*
X0001183932Y0000419693D01*
X0001185049Y0000419023D01*
X0001186094Y0000418248D01*
X0001187059Y0000417374D01*
X0001187933Y0000416409D01*
X0001188709Y0000415364D01*
X0001189378Y0000414246D01*
X0001189935Y0000413070D01*
X0001190373Y0000411844D01*
X0001190689Y0000410581D01*
X0001190880Y0000409294D01*
X0001190944Y0000407993D01*
X0001190944Y0000363659D01*
X0001190880Y0000362359D01*
X0001190689Y0000361071D01*
X0001190373Y0000359808D01*
X0001189935Y0000358582D01*
X0001189378Y0000357406D01*
X0001188709Y0000356289D01*
X0001187933Y0000355243D01*
X0001187059Y0000354279D01*
X0001186094Y0000353403D01*
X0001185049Y0000352629D01*
X0001183932Y0000351960D01*
X0001182755Y0000351403D01*
X0001181529Y0000350964D01*
X0001180266Y0000350648D01*
X0001178979Y0000350457D01*
X0001177678Y0000350393D01*
X0001143187Y0000350393D01*
X0001141886Y0000350457D01*
X0001140599Y0000350648D01*
X0001139336Y0000350964D01*
X0001138110Y0000351403D01*
X0001136933Y0000351960D01*
X0001135817Y0000352629D01*
X0001134771Y0000353403D01*
X0001133806Y0000354279D01*
X0001132932Y0000355243D01*
X0001132156Y0000356289D01*
X0001131487Y0000357406D01*
X0001130931Y0000358582D01*
X0001130492Y0000359808D01*
X0001130176Y0000361071D01*
X0001129985Y0000362359D01*
X0001129921Y0000363659D01*
X0001129921Y0000407993D01*
X0001129985Y0000409294D01*
X0001130176Y0000410581D01*
X0001130492Y0000411844D01*
X0001130931Y0000413070D01*
X0001131487Y0000414246D01*
X0001132156Y0000415364D01*
X0001132932Y0000416409D01*
X0001133806Y0000417374D01*
X0001134771Y0000418248D01*
X0001135817Y0000419023D01*
X0001136933Y0000419693D01*
X0001138110Y0000420250D01*
X0001139336Y0000420688D01*
X0001140599Y0000421004D01*
X0001141886Y0000421195D01*
X0001143187Y0000421259D01*
X0001177678Y0000421259D01*
X0001178979Y0000421195D01*
X0001178979Y0000421195D01*
G37*
D53*
X0001160433Y0000385826D03*
D51*
G36*
X0001259687Y0000421195D02*
G01*
X0001260975Y0000421004D01*
X0001262238Y0000420688D01*
X0001263464Y0000420250D01*
X0001264640Y0000419693D01*
X0001265757Y0000419023D01*
X0001266803Y0000418248D01*
X0001267767Y0000417374D01*
X0001268642Y0000416409D01*
X0001269417Y0000415364D01*
X0001270087Y0000414246D01*
X0001270643Y0000413070D01*
X0001271082Y0000411844D01*
X0001271397Y0000410581D01*
X0001271589Y0000409294D01*
X0001271653Y0000407993D01*
X0001271653Y0000363659D01*
X0001271589Y0000362359D01*
X0001271397Y0000361071D01*
X0001271082Y0000359808D01*
X0001270643Y0000358582D01*
X0001270087Y0000357406D01*
X0001269417Y0000356289D01*
X0001268642Y0000355243D01*
X0001267767Y0000354279D01*
X0001266803Y0000353403D01*
X0001265757Y0000352629D01*
X0001264640Y0000351960D01*
X0001263464Y0000351403D01*
X0001262238Y0000350964D01*
X0001260975Y0000350648D01*
X0001259687Y0000350457D01*
X0001258387Y0000350393D01*
X0001223895Y0000350393D01*
X0001222595Y0000350457D01*
X0001221307Y0000350648D01*
X0001220045Y0000350964D01*
X0001218819Y0000351403D01*
X0001217642Y0000351960D01*
X0001216525Y0000352629D01*
X0001215480Y0000353403D01*
X0001214515Y0000354279D01*
X0001213641Y0000355243D01*
X0001212865Y0000356289D01*
X0001212196Y0000357406D01*
X0001211639Y0000358582D01*
X0001211201Y0000359808D01*
X0001210884Y0000361071D01*
X0001210693Y0000362359D01*
X0001210629Y0000363659D01*
X0001210629Y0000407993D01*
X0001210693Y0000409294D01*
X0001210884Y0000410581D01*
X0001211201Y0000411844D01*
X0001211639Y0000413070D01*
X0001212196Y0000414246D01*
X0001212865Y0000415364D01*
X0001213641Y0000416409D01*
X0001214515Y0000417374D01*
X0001215480Y0000418248D01*
X0001216525Y0000419023D01*
X0001217642Y0000419693D01*
X0001218819Y0000420250D01*
X0001220045Y0000420688D01*
X0001221307Y0000421004D01*
X0001222595Y0000421195D01*
X0001223895Y0000421259D01*
X0001258387Y0000421259D01*
X0001259687Y0000421195D01*
X0001259687Y0000421195D01*
G37*
D53*
X0001241141Y0000385826D03*
D51*
G36*
X0001575631Y0000627888D02*
G01*
X0001576920Y0000627697D01*
X0001578183Y0000627381D01*
X0001579409Y0000626942D01*
X0001580584Y0000626386D01*
X0001581702Y0000625717D01*
X0001582748Y0000624941D01*
X0001583711Y0000624067D01*
X0001584586Y0000623102D01*
X0001585362Y0000622056D01*
X0001586032Y0000620940D01*
X0001586588Y0000619763D01*
X0001587027Y0000618537D01*
X0001587341Y0000617274D01*
X0001587534Y0000615987D01*
X0001587598Y0000614686D01*
X0001587598Y0000570352D01*
X0001587534Y0000569052D01*
X0001587341Y0000567764D01*
X0001587027Y0000566501D01*
X0001586588Y0000565275D01*
X0001586032Y0000564099D01*
X0001585362Y0000562982D01*
X0001584586Y0000561936D01*
X0001583711Y0000560972D01*
X0001582748Y0000560097D01*
X0001581702Y0000559322D01*
X0001580584Y0000558652D01*
X0001579409Y0000558096D01*
X0001578183Y0000557657D01*
X0001576920Y0000557341D01*
X0001575631Y0000557150D01*
X0001574332Y0000557086D01*
X0001539840Y0000557086D01*
X0001538540Y0000557150D01*
X0001537252Y0000557341D01*
X0001535989Y0000557657D01*
X0001534764Y0000558096D01*
X0001533587Y0000558652D01*
X0001532470Y0000559322D01*
X0001531424Y0000560097D01*
X0001530460Y0000560972D01*
X0001529586Y0000561936D01*
X0001528810Y0000562982D01*
X0001528140Y0000564099D01*
X0001527584Y0000565275D01*
X0001527146Y0000566501D01*
X0001526829Y0000567764D01*
X0001526638Y0000569052D01*
X0001526574Y0000570352D01*
X0001526574Y0000614686D01*
X0001526638Y0000615987D01*
X0001526829Y0000617274D01*
X0001527146Y0000618537D01*
X0001527584Y0000619763D01*
X0001528140Y0000620940D01*
X0001528810Y0000622056D01*
X0001529586Y0000623102D01*
X0001530460Y0000624067D01*
X0001531424Y0000624941D01*
X0001532470Y0000625717D01*
X0001533587Y0000626386D01*
X0001534764Y0000626942D01*
X0001535989Y0000627381D01*
X0001537252Y0000627697D01*
X0001538540Y0000627888D01*
X0001539840Y0000627952D01*
X0001574332Y0000627952D01*
X0001575631Y0000627888D01*
X0001575631Y0000627888D01*
G37*
D53*
X0001557086Y0000592519D03*
D51*
G36*
X0001656341Y0000627888D02*
G01*
X0001657629Y0000627697D01*
X0001658891Y0000627381D01*
X0001660117Y0000626942D01*
X0001661294Y0000626386D01*
X0001662411Y0000625717D01*
X0001663456Y0000624941D01*
X0001664421Y0000624067D01*
X0001665294Y0000623102D01*
X0001666071Y0000622056D01*
X0001666740Y0000620940D01*
X0001667297Y0000619763D01*
X0001667735Y0000618537D01*
X0001668052Y0000617274D01*
X0001668243Y0000615987D01*
X0001668307Y0000614686D01*
X0001668307Y0000570352D01*
X0001668243Y0000569052D01*
X0001668052Y0000567764D01*
X0001667735Y0000566501D01*
X0001667297Y0000565275D01*
X0001666740Y0000564099D01*
X0001666071Y0000562982D01*
X0001665294Y0000561936D01*
X0001664421Y0000560972D01*
X0001663456Y0000560097D01*
X0001662411Y0000559322D01*
X0001661294Y0000558652D01*
X0001660117Y0000558096D01*
X0001658891Y0000557657D01*
X0001657629Y0000557341D01*
X0001656341Y0000557150D01*
X0001655041Y0000557086D01*
X0001620549Y0000557086D01*
X0001619249Y0000557150D01*
X0001617961Y0000557341D01*
X0001616698Y0000557657D01*
X0001615472Y0000558096D01*
X0001614295Y0000558652D01*
X0001613179Y0000559322D01*
X0001612133Y0000560097D01*
X0001611168Y0000560972D01*
X0001610294Y0000561936D01*
X0001609519Y0000562982D01*
X0001608848Y0000564099D01*
X0001608293Y0000565275D01*
X0001607854Y0000566501D01*
X0001607538Y0000567764D01*
X0001607346Y0000569052D01*
X0001607283Y0000570352D01*
X0001607283Y0000614686D01*
X0001607346Y0000615987D01*
X0001607538Y0000617274D01*
X0001607854Y0000618537D01*
X0001608293Y0000619763D01*
X0001608848Y0000620940D01*
X0001609519Y0000622056D01*
X0001610294Y0000623102D01*
X0001611168Y0000624067D01*
X0001612133Y0000624941D01*
X0001613179Y0000625717D01*
X0001614295Y0000626386D01*
X0001615472Y0000626942D01*
X0001616698Y0000627381D01*
X0001617961Y0000627697D01*
X0001619249Y0000627888D01*
X0001620549Y0000627952D01*
X0001655041Y0000627952D01*
X0001656341Y0000627888D01*
X0001656341Y0000627888D01*
G37*
D53*
X0001637795Y0000592519D03*
D54*
X0001435039Y0000486220D03*
D51*
G36*
X0001434798Y0000448842D02*
G01*
X0001434073Y0000448842D01*
X0001433301Y0000448880D01*
X0001431379Y0000449069D01*
X0001430614Y0000449182D01*
X0001428720Y0000449559D01*
X0001427970Y0000449747D01*
X0001426121Y0000450308D01*
X0001425394Y0000450568D01*
X0001423609Y0000451308D01*
X0001422910Y0000451638D01*
X0001421207Y0000452549D01*
X0001420544Y0000452946D01*
X0001418938Y0000454019D01*
X0001418317Y0000454480D01*
X0001416824Y0000455705D01*
X0001416251Y0000456224D01*
X0001414885Y0000457590D01*
X0001414366Y0000458163D01*
X0001413139Y0000459656D01*
X0001412681Y0000460277D01*
X0001411607Y0000461883D01*
X0001411210Y0000462545D01*
X0001410300Y0000464249D01*
X0001409969Y0000464948D01*
X0001409230Y0000466733D01*
X0001408970Y0000467460D01*
X0001408409Y0000469309D01*
X0001408221Y0000470058D01*
X0001407844Y0000471953D01*
X0001407731Y0000472717D01*
X0001407541Y0000474640D01*
X0001407503Y0000475412D01*
X0001407503Y0000476137D01*
X0001407480Y0000476377D01*
X0001407480Y0000496062D01*
X0001407503Y0000496303D01*
X0001407503Y0000497028D01*
X0001407541Y0000497800D01*
X0001407731Y0000499723D01*
X0001407844Y0000500487D01*
X0001408221Y0000502382D01*
X0001408409Y0000503131D01*
X0001408970Y0000504980D01*
X0001409230Y0000505707D01*
X0001409969Y0000507492D01*
X0001410300Y0000508190D01*
X0001411210Y0000509895D01*
X0001411607Y0000510557D01*
X0001412681Y0000512163D01*
X0001413139Y0000512784D01*
X0001414366Y0000514277D01*
X0001414885Y0000514850D01*
X0001416251Y0000516216D01*
X0001416824Y0000516735D01*
X0001418317Y0000517960D01*
X0001418938Y0000518421D01*
X0001420544Y0000519494D01*
X0001421207Y0000519891D01*
X0001422910Y0000520802D01*
X0001423609Y0000521132D01*
X0001425394Y0000521872D01*
X0001426121Y0000522132D01*
X0001427970Y0000522692D01*
X0001428720Y0000522880D01*
X0001430614Y0000523257D01*
X0001431379Y0000523371D01*
X0001433301Y0000523560D01*
X0001434073Y0000523598D01*
X0001434798Y0000523598D01*
X0001435039Y0000523622D01*
X0001454724Y0000523622D01*
X0001456260Y0000523470D01*
X0001457737Y0000523022D01*
X0001459098Y0000522294D01*
X0001460292Y0000521315D01*
X0001461271Y0000520122D01*
X0001461999Y0000518761D01*
X0001462447Y0000517283D01*
X0001462598Y0000515746D01*
X0001462598Y0000456692D01*
X0001462447Y0000455156D01*
X0001461999Y0000453679D01*
X0001461271Y0000452318D01*
X0001460292Y0000451125D01*
X0001459098Y0000450145D01*
X0001457737Y0000449418D01*
X0001456260Y0000448970D01*
X0001454724Y0000448818D01*
X0001435039Y0000448818D01*
X0001434798Y0000448842D01*
X0001434798Y0000448842D01*
G37*
D54*
X0001486220Y0000486220D03*
D51*
G36*
X0001464998Y0000448970D02*
G01*
X0001463522Y0000449418D01*
X0001462160Y0000450145D01*
X0001460967Y0000451125D01*
X0001459988Y0000452318D01*
X0001459260Y0000453679D01*
X0001458812Y0000455156D01*
X0001458660Y0000456692D01*
X0001458660Y0000515746D01*
X0001458812Y0000517283D01*
X0001459260Y0000518761D01*
X0001459988Y0000520122D01*
X0001460967Y0000521315D01*
X0001462160Y0000522294D01*
X0001463522Y0000523022D01*
X0001464998Y0000523470D01*
X0001466535Y0000523622D01*
X0001486220Y0000523622D01*
X0001486461Y0000523598D01*
X0001487186Y0000523598D01*
X0001487958Y0000523560D01*
X0001489879Y0000523371D01*
X0001490644Y0000523257D01*
X0001492539Y0000522880D01*
X0001493289Y0000522692D01*
X0001495136Y0000522132D01*
X0001495865Y0000521872D01*
X0001497650Y0000521132D01*
X0001498348Y0000520802D01*
X0001500052Y0000519891D01*
X0001500715Y0000519494D01*
X0001502321Y0000518421D01*
X0001502940Y0000517960D01*
X0001504435Y0000516735D01*
X0001505007Y0000516216D01*
X0001506371Y0000514850D01*
X0001506892Y0000514277D01*
X0001508118Y0000512784D01*
X0001508578Y0000512163D01*
X0001509650Y0000510557D01*
X0001510049Y0000509895D01*
X0001510959Y0000508190D01*
X0001511290Y0000507492D01*
X0001512029Y0000505707D01*
X0001512289Y0000504980D01*
X0001512850Y0000503131D01*
X0001513038Y0000502382D01*
X0001513415Y0000500487D01*
X0001513528Y0000499723D01*
X0001513717Y0000497800D01*
X0001513755Y0000497028D01*
X0001513755Y0000496303D01*
X0001513779Y0000496062D01*
X0001513779Y0000476377D01*
X0001513755Y0000476137D01*
X0001513755Y0000475412D01*
X0001513717Y0000474640D01*
X0001513528Y0000472717D01*
X0001513415Y0000471953D01*
X0001513038Y0000470058D01*
X0001512850Y0000469309D01*
X0001512289Y0000467460D01*
X0001512029Y0000466733D01*
X0001511290Y0000464948D01*
X0001510959Y0000464249D01*
X0001510049Y0000462545D01*
X0001509650Y0000461883D01*
X0001508578Y0000460277D01*
X0001508118Y0000459656D01*
X0001506892Y0000458163D01*
X0001506371Y0000457590D01*
X0001505007Y0000456224D01*
X0001504435Y0000455705D01*
X0001502940Y0000454480D01*
X0001502321Y0000454019D01*
X0001500715Y0000452946D01*
X0001500052Y0000452549D01*
X0001498348Y0000451638D01*
X0001497650Y0000451308D01*
X0001495865Y0000450568D01*
X0001495136Y0000450308D01*
X0001493289Y0000449747D01*
X0001492539Y0000449559D01*
X0001490644Y0000449182D01*
X0001489879Y0000449069D01*
X0001487958Y0000448880D01*
X0001487186Y0000448842D01*
X0001486461Y0000448842D01*
X0001486220Y0000448818D01*
X0001466535Y0000448818D01*
X0001464998Y0000448970D01*
X0001464998Y0000448970D01*
G37*
D50*
X0001640098Y0000248759D03*
X0001640098Y0000348759D03*
X0001640098Y0000448759D03*
D55*
X0001638187Y0000697559D03*
X0001559448Y0000697559D03*
X0001480708Y0000697559D03*
X0001401968Y0000697559D03*
X0001323228Y0000697559D03*
X0001244488Y0000697559D03*
X0001165748Y0000697559D03*
X0001087007Y0000697559D03*
X0001323228Y0001445590D03*
X0001401968Y0001445590D03*
X0001244488Y0001445590D03*
D56*
X0001273622Y0000305511D03*
X0001198818Y0000305511D03*
X0001198818Y0000202362D03*
X0001236220Y0000202362D03*
X0001273622Y0000202362D03*
D57*
X0000961042Y0001006259D03*
X0000961042Y0001206259D03*
X0000961042Y0001406258D03*
X0000960098Y0001106259D03*
X0000960098Y0001306259D03*
D58*
X0001617598Y0001506259D03*
X0000982598Y0000071259D03*
D59*
X0000977598Y0001518759D03*
D70*
X-0004881889Y0004921259D02*
X0001862204Y0000248818D03*
X0001862204Y0000348818D03*
X0001862204Y0000448818D03*
D71*
G36*
X0002386392Y0000412117D02*
G01*
X0002388153Y0000411856D01*
X0002389880Y0000411423D01*
X0002391556Y0000410823D01*
X0002393166Y0000410061D01*
X0002394693Y0000409147D01*
X0002396123Y0000408086D01*
X0002397442Y0000406891D01*
X0002398637Y0000405571D01*
X0002399698Y0000404142D01*
X0002400613Y0000402614D01*
X0002401374Y0000401004D01*
X0002401974Y0000399329D01*
X0002402407Y0000397602D01*
X0002402668Y0000395841D01*
X0002402755Y0000394062D01*
X0002402755Y0000335858D01*
X0002402668Y0000334080D01*
X0002402407Y0000332318D01*
X0002401974Y0000330591D01*
X0002401374Y0000328915D01*
X0002400613Y0000327306D01*
X0002399698Y0000325779D01*
X0002398637Y0000324349D01*
X0002397442Y0000323029D01*
X0002396123Y0000321834D01*
X0002394693Y0000320773D01*
X0002393166Y0000319858D01*
X0002391556Y0000319097D01*
X0002389880Y0000318497D01*
X0002388153Y0000318064D01*
X0002386392Y0000317803D01*
X0002384614Y0000317716D01*
X0002271291Y0000317716D01*
X0002269513Y0000317803D01*
X0002267752Y0000318064D01*
X0002266025Y0000318497D01*
X0002264348Y0000319097D01*
X0002262739Y0000319858D01*
X0002261212Y0000320773D01*
X0002259782Y0000321834D01*
X0002258463Y0000323029D01*
X0002257267Y0000324349D01*
X0002256207Y0000325779D01*
X0002255291Y0000327306D01*
X0002254530Y0000328915D01*
X0002253930Y0000330591D01*
X0002253498Y0000332318D01*
X0002253236Y0000334080D01*
X0002253149Y0000335858D01*
X0002253149Y0000394062D01*
X0002253236Y0000395841D01*
X0002253498Y0000397602D01*
X0002253930Y0000399329D01*
X0002254530Y0000401004D01*
X0002255291Y0000402614D01*
X0002256207Y0000404142D01*
X0002257267Y0000405571D01*
X0002258463Y0000406891D01*
X0002259782Y0000408086D01*
X0002261212Y0000409147D01*
X0002262739Y0000410061D01*
X0002264348Y0000410823D01*
X0002266025Y0000411423D01*
X0002267752Y0000411856D01*
X0002269513Y0000412117D01*
X0002271291Y0000412204D01*
X0002384614Y0000412204D01*
X0002386392Y0000412117D01*
X0002386392Y0000412117D01*
G37*
D72*
X0002327952Y0000364960D03*
D71*
G36*
X0002386392Y0000227077D02*
G01*
X0002388153Y0000226816D01*
X0002389880Y0000226384D01*
X0002391556Y0000225783D01*
X0002393166Y0000225023D01*
X0002394693Y0000224107D01*
X0002396123Y0000223047D01*
X0002397442Y0000221851D01*
X0002398637Y0000220532D01*
X0002399698Y0000219102D01*
X0002400613Y0000217575D01*
X0002401374Y0000215965D01*
X0002401974Y0000214289D01*
X0002402407Y0000212561D01*
X0002402668Y0000210801D01*
X0002402755Y0000209023D01*
X0002402755Y0000150818D01*
X0002402668Y0000149040D01*
X0002402407Y0000147279D01*
X0002401974Y0000145552D01*
X0002401374Y0000143876D01*
X0002400613Y0000142266D01*
X0002399698Y0000140739D01*
X0002398637Y0000139309D01*
X0002397442Y0000137990D01*
X0002396123Y0000136795D01*
X0002394693Y0000135734D01*
X0002393166Y0000134819D01*
X0002391556Y0000134058D01*
X0002389880Y0000133458D01*
X0002388153Y0000133025D01*
X0002386392Y0000132764D01*
X0002384614Y0000132677D01*
X0002271291Y0000132677D01*
X0002269513Y0000132764D01*
X0002267752Y0000133025D01*
X0002266025Y0000133458D01*
X0002264348Y0000134058D01*
X0002262739Y0000134819D01*
X0002261212Y0000135734D01*
X0002259782Y0000136795D01*
X0002258463Y0000137990D01*
X0002257267Y0000139309D01*
X0002256207Y0000140739D01*
X0002255291Y0000142266D01*
X0002254530Y0000143876D01*
X0002253930Y0000145552D01*
X0002253498Y0000147279D01*
X0002253236Y0000149040D01*
X0002253149Y0000150818D01*
X0002253149Y0000209023D01*
X0002253236Y0000210801D01*
X0002253498Y0000212561D01*
X0002253930Y0000214289D01*
X0002254530Y0000215965D01*
X0002255291Y0000217575D01*
X0002256207Y0000219102D01*
X0002257267Y0000220532D01*
X0002258463Y0000221851D01*
X0002259782Y0000223047D01*
X0002261212Y0000224107D01*
X0002262739Y0000225023D01*
X0002264348Y0000225783D01*
X0002266025Y0000226384D01*
X0002267752Y0000226816D01*
X0002269513Y0000227077D01*
X0002271291Y0000227165D01*
X0002384614Y0000227165D01*
X0002386392Y0000227077D01*
X0002386392Y0000227077D01*
G37*
D72*
X0002327952Y0000179921D03*
D71*
G36*
X0002117955Y0000153479D02*
G01*
X0002119243Y0000153288D01*
X0002120506Y0000152972D01*
X0002121731Y0000152533D01*
X0002122908Y0000151976D01*
X0002124025Y0000151307D01*
X0002125071Y0000150532D01*
X0002126035Y0000149657D01*
X0002126910Y0000148693D01*
X0002127685Y0000147647D01*
X0002128354Y0000146530D01*
X0002128911Y0000145353D01*
X0002129350Y0000144128D01*
X0002129666Y0000142865D01*
X0002129857Y0000141577D01*
X0002129921Y0000140277D01*
X0002129921Y0000095943D01*
X0002129857Y0000094642D01*
X0002129666Y0000093355D01*
X0002129350Y0000092092D01*
X0002128911Y0000090866D01*
X0002128354Y0000089689D01*
X0002127685Y0000088572D01*
X0002126910Y0000087527D01*
X0002126035Y0000086562D01*
X0002125071Y0000085688D01*
X0002124025Y0000084912D01*
X0002122908Y0000084243D01*
X0002121731Y0000083686D01*
X0002120506Y0000083248D01*
X0002119243Y0000082932D01*
X0002117955Y0000082741D01*
X0002116655Y0000082677D01*
X0002082163Y0000082677D01*
X0002080863Y0000082741D01*
X0002079575Y0000082932D01*
X0002078312Y0000083248D01*
X0002077086Y0000083686D01*
X0002075910Y0000084243D01*
X0002074793Y0000084912D01*
X0002073747Y0000085688D01*
X0002072782Y0000086562D01*
X0002071908Y0000087527D01*
X0002071133Y0000088572D01*
X0002070463Y0000089689D01*
X0002069907Y0000090866D01*
X0002069468Y0000092092D01*
X0002069151Y0000093355D01*
X0002068960Y0000094642D01*
X0002068897Y0000095943D01*
X0002068897Y0000140277D01*
X0002068960Y0000141577D01*
X0002069151Y0000142865D01*
X0002069468Y0000144128D01*
X0002069907Y0000145353D01*
X0002070463Y0000146530D01*
X0002071133Y0000147647D01*
X0002071908Y0000148693D01*
X0002072782Y0000149657D01*
X0002073747Y0000150532D01*
X0002074793Y0000151307D01*
X0002075910Y0000151976D01*
X0002077086Y0000152533D01*
X0002078312Y0000152972D01*
X0002079575Y0000153288D01*
X0002080863Y0000153479D01*
X0002082163Y0000153543D01*
X0002116655Y0000153543D01*
X0002117955Y0000153479D01*
X0002117955Y0000153479D01*
G37*
D73*
X0002099409Y0000118110D03*
D71*
G36*
X0002198664Y0000153479D02*
G01*
X0002199952Y0000153288D01*
X0002201214Y0000152972D01*
X0002202440Y0000152533D01*
X0002203617Y0000151976D01*
X0002204734Y0000151307D01*
X0002205779Y0000150532D01*
X0002206744Y0000149657D01*
X0002207618Y0000148693D01*
X0002208394Y0000147647D01*
X0002209063Y0000146530D01*
X0002209620Y0000145353D01*
X0002210058Y0000144128D01*
X0002210375Y0000142865D01*
X0002210566Y0000141577D01*
X0002210629Y0000140277D01*
X0002210629Y0000095943D01*
X0002210566Y0000094642D01*
X0002210375Y0000093355D01*
X0002210058Y0000092092D01*
X0002209620Y0000090866D01*
X0002209063Y0000089689D01*
X0002208394Y0000088572D01*
X0002207618Y0000087527D01*
X0002206744Y0000086562D01*
X0002205779Y0000085688D01*
X0002204734Y0000084912D01*
X0002203617Y0000084243D01*
X0002202440Y0000083686D01*
X0002201214Y0000083248D01*
X0002199952Y0000082932D01*
X0002198664Y0000082741D01*
X0002197363Y0000082677D01*
X0002162872Y0000082677D01*
X0002161572Y0000082741D01*
X0002160284Y0000082932D01*
X0002159021Y0000083248D01*
X0002157795Y0000083686D01*
X0002156618Y0000084243D01*
X0002155502Y0000084912D01*
X0002154456Y0000085688D01*
X0002153491Y0000086562D01*
X0002152617Y0000087527D01*
X0002151842Y0000088572D01*
X0002151172Y0000089689D01*
X0002150616Y0000090866D01*
X0002150177Y0000092092D01*
X0002149861Y0000093355D01*
X0002149670Y0000094642D01*
X0002149606Y0000095943D01*
X0002149606Y0000140277D01*
X0002149670Y0000141577D01*
X0002149861Y0000142865D01*
X0002150177Y0000144128D01*
X0002150616Y0000145353D01*
X0002151172Y0000146530D01*
X0002151842Y0000147647D01*
X0002152617Y0000148693D01*
X0002153491Y0000149657D01*
X0002154456Y0000150532D01*
X0002155502Y0000151307D01*
X0002156618Y0000151976D01*
X0002157795Y0000152533D01*
X0002159021Y0000152972D01*
X0002160284Y0000153288D01*
X0002161572Y0000153479D01*
X0002162872Y0000153543D01*
X0002197363Y0000153543D01*
X0002198664Y0000153479D01*
X0002198664Y0000153479D01*
G37*
D73*
X0002180118Y0000118110D03*
D71*
G36*
X0002084490Y0000421195D02*
G01*
X0002085778Y0000421004D01*
X0002087041Y0000420688D01*
X0002088267Y0000420250D01*
X0002089443Y0000419693D01*
X0002090560Y0000419023D01*
X0002091606Y0000418248D01*
X0002092571Y0000417374D01*
X0002093445Y0000416409D01*
X0002094220Y0000415364D01*
X0002094890Y0000414246D01*
X0002095446Y0000413070D01*
X0002095885Y0000411844D01*
X0002096201Y0000410581D01*
X0002096391Y0000409294D01*
X0002096455Y0000407993D01*
X0002096455Y0000363659D01*
X0002096391Y0000362359D01*
X0002096201Y0000361071D01*
X0002095885Y0000359808D01*
X0002095446Y0000358582D01*
X0002094890Y0000357406D01*
X0002094220Y0000356289D01*
X0002093445Y0000355243D01*
X0002092571Y0000354279D01*
X0002091606Y0000353403D01*
X0002090560Y0000352629D01*
X0002089443Y0000351960D01*
X0002088267Y0000351403D01*
X0002087041Y0000350964D01*
X0002085778Y0000350648D01*
X0002084490Y0000350457D01*
X0002083190Y0000350393D01*
X0002048699Y0000350393D01*
X0002047397Y0000350457D01*
X0002046110Y0000350648D01*
X0002044848Y0000350964D01*
X0002043622Y0000351403D01*
X0002042444Y0000351960D01*
X0002041328Y0000352629D01*
X0002040283Y0000353403D01*
X0002039318Y0000354279D01*
X0002038444Y0000355243D01*
X0002037668Y0000356289D01*
X0002036998Y0000357406D01*
X0002036442Y0000358582D01*
X0002036004Y0000359808D01*
X0002035686Y0000361071D01*
X0002035496Y0000362359D01*
X0002035432Y0000363659D01*
X0002035432Y0000407993D01*
X0002035496Y0000409294D01*
X0002035686Y0000410581D01*
X0002036004Y0000411844D01*
X0002036442Y0000413070D01*
X0002036998Y0000414246D01*
X0002037668Y0000415364D01*
X0002038444Y0000416409D01*
X0002039318Y0000417374D01*
X0002040283Y0000418248D01*
X0002041328Y0000419023D01*
X0002042444Y0000419693D01*
X0002043622Y0000420250D01*
X0002044848Y0000420688D01*
X0002046110Y0000421004D01*
X0002047397Y0000421195D01*
X0002048699Y0000421259D01*
X0002083190Y0000421259D01*
X0002084490Y0000421195D01*
X0002084490Y0000421195D01*
G37*
D73*
X0002065944Y0000385826D03*
D71*
G36*
X0002165199Y0000421195D02*
G01*
X0002166487Y0000421004D01*
X0002167750Y0000420688D01*
X0002168976Y0000420250D01*
X0002170152Y0000419693D01*
X0002171269Y0000419023D01*
X0002172315Y0000418248D01*
X0002173279Y0000417374D01*
X0002174154Y0000416409D01*
X0002174929Y0000415364D01*
X0002175598Y0000414246D01*
X0002176155Y0000413070D01*
X0002176594Y0000411844D01*
X0002176910Y0000410581D01*
X0002177101Y0000409294D01*
X0002177165Y0000407993D01*
X0002177165Y0000363659D01*
X0002177101Y0000362359D01*
X0002176910Y0000361071D01*
X0002176594Y0000359808D01*
X0002176155Y0000358582D01*
X0002175598Y0000357406D01*
X0002174929Y0000356289D01*
X0002174154Y0000355243D01*
X0002173279Y0000354279D01*
X0002172315Y0000353403D01*
X0002171269Y0000352629D01*
X0002170152Y0000351960D01*
X0002168976Y0000351403D01*
X0002167750Y0000350964D01*
X0002166487Y0000350648D01*
X0002165199Y0000350457D01*
X0002163899Y0000350393D01*
X0002129407Y0000350393D01*
X0002128107Y0000350457D01*
X0002126819Y0000350648D01*
X0002125556Y0000350964D01*
X0002124331Y0000351403D01*
X0002123154Y0000351960D01*
X0002122037Y0000352629D01*
X0002120991Y0000353403D01*
X0002120027Y0000354279D01*
X0002119152Y0000355243D01*
X0002118377Y0000356289D01*
X0002117708Y0000357406D01*
X0002117151Y0000358582D01*
X0002116712Y0000359808D01*
X0002116396Y0000361071D01*
X0002116205Y0000362359D01*
X0002116141Y0000363659D01*
X0002116141Y0000407993D01*
X0002116205Y0000409294D01*
X0002116396Y0000410581D01*
X0002116712Y0000411844D01*
X0002117151Y0000413070D01*
X0002117708Y0000414246D01*
X0002118377Y0000415364D01*
X0002119152Y0000416409D01*
X0002120027Y0000417374D01*
X0002120991Y0000418248D01*
X0002122037Y0000419023D01*
X0002123154Y0000419693D01*
X0002124331Y0000420250D01*
X0002125556Y0000420688D01*
X0002126819Y0000421004D01*
X0002128107Y0000421195D01*
X0002129407Y0000421259D01*
X0002163899Y0000421259D01*
X0002165199Y0000421195D01*
X0002165199Y0000421195D01*
G37*
D73*
X0002146653Y0000385826D03*
D71*
G36*
X0002481144Y0000627888D02*
G01*
X0002482432Y0000627697D01*
X0002483695Y0000627381D01*
X0002484920Y0000626942D01*
X0002486097Y0000626386D01*
X0002487214Y0000625717D01*
X0002488260Y0000624941D01*
X0002489224Y0000624067D01*
X0002490099Y0000623102D01*
X0002490874Y0000622056D01*
X0002491543Y0000620940D01*
X0002492100Y0000619763D01*
X0002492539Y0000618537D01*
X0002492855Y0000617274D01*
X0002493046Y0000615987D01*
X0002493110Y0000614686D01*
X0002493110Y0000570352D01*
X0002493046Y0000569052D01*
X0002492855Y0000567764D01*
X0002492539Y0000566501D01*
X0002492100Y0000565275D01*
X0002491543Y0000564099D01*
X0002490874Y0000562982D01*
X0002490099Y0000561936D01*
X0002489224Y0000560972D01*
X0002488260Y0000560097D01*
X0002487214Y0000559322D01*
X0002486097Y0000558652D01*
X0002484920Y0000558096D01*
X0002483695Y0000557657D01*
X0002482432Y0000557341D01*
X0002481144Y0000557150D01*
X0002479844Y0000557086D01*
X0002445352Y0000557086D01*
X0002444052Y0000557150D01*
X0002442764Y0000557341D01*
X0002441501Y0000557657D01*
X0002440275Y0000558096D01*
X0002439099Y0000558652D01*
X0002437982Y0000559322D01*
X0002436936Y0000560097D01*
X0002435972Y0000560972D01*
X0002435097Y0000561936D01*
X0002434322Y0000562982D01*
X0002433652Y0000564099D01*
X0002433096Y0000565275D01*
X0002432657Y0000566501D01*
X0002432341Y0000567764D01*
X0002432150Y0000569052D01*
X0002432086Y0000570352D01*
X0002432086Y0000614686D01*
X0002432150Y0000615987D01*
X0002432341Y0000617274D01*
X0002432657Y0000618537D01*
X0002433096Y0000619763D01*
X0002433652Y0000620940D01*
X0002434322Y0000622056D01*
X0002435097Y0000623102D01*
X0002435972Y0000624067D01*
X0002436936Y0000624941D01*
X0002437982Y0000625717D01*
X0002439099Y0000626386D01*
X0002440275Y0000626942D01*
X0002441501Y0000627381D01*
X0002442764Y0000627697D01*
X0002444052Y0000627888D01*
X0002445352Y0000627952D01*
X0002479844Y0000627952D01*
X0002481144Y0000627888D01*
X0002481144Y0000627888D01*
G37*
D73*
X0002462598Y0000592519D03*
D71*
G36*
X0002561853Y0000627888D02*
G01*
X0002563140Y0000627697D01*
X0002564403Y0000627381D01*
X0002565629Y0000626942D01*
X0002566806Y0000626386D01*
X0002567923Y0000625717D01*
X0002568968Y0000624941D01*
X0002569932Y0000624067D01*
X0002570807Y0000623102D01*
X0002571583Y0000622056D01*
X0002572251Y0000620940D01*
X0002572809Y0000619763D01*
X0002573247Y0000618537D01*
X0002573563Y0000617274D01*
X0002573755Y0000615987D01*
X0002573818Y0000614686D01*
X0002573818Y0000570352D01*
X0002573755Y0000569052D01*
X0002573563Y0000567764D01*
X0002573247Y0000566501D01*
X0002572809Y0000565275D01*
X0002572251Y0000564099D01*
X0002571583Y0000562982D01*
X0002570807Y0000561936D01*
X0002569932Y0000560972D01*
X0002568968Y0000560097D01*
X0002567923Y0000559322D01*
X0002566806Y0000558652D01*
X0002565629Y0000558096D01*
X0002564403Y0000557657D01*
X0002563140Y0000557341D01*
X0002561853Y0000557150D01*
X0002560552Y0000557086D01*
X0002526061Y0000557086D01*
X0002524760Y0000557150D01*
X0002523472Y0000557341D01*
X0002522210Y0000557657D01*
X0002520984Y0000558096D01*
X0002519807Y0000558652D01*
X0002518691Y0000559322D01*
X0002517645Y0000560097D01*
X0002516680Y0000560972D01*
X0002515806Y0000561936D01*
X0002515030Y0000562982D01*
X0002514361Y0000564099D01*
X0002513805Y0000565275D01*
X0002513366Y0000566501D01*
X0002513050Y0000567764D01*
X0002512859Y0000569052D01*
X0002512795Y0000570352D01*
X0002512795Y0000614686D01*
X0002512859Y0000615987D01*
X0002513050Y0000617274D01*
X0002513366Y0000618537D01*
X0002513805Y0000619763D01*
X0002514361Y0000620940D01*
X0002515030Y0000622056D01*
X0002515806Y0000623102D01*
X0002516680Y0000624067D01*
X0002517645Y0000624941D01*
X0002518691Y0000625717D01*
X0002519807Y0000626386D01*
X0002520984Y0000626942D01*
X0002522210Y0000627381D01*
X0002523472Y0000627697D01*
X0002524760Y0000627888D01*
X0002526061Y0000627952D01*
X0002560552Y0000627952D01*
X0002561853Y0000627888D01*
X0002561853Y0000627888D01*
G37*
D73*
X0002543307Y0000592519D03*
D74*
X0002340551Y0000486220D03*
D71*
G36*
X0002340310Y0000448842D02*
G01*
X0002339585Y0000448842D01*
X0002338813Y0000448880D01*
X0002336890Y0000449069D01*
X0002336126Y0000449182D01*
X0002334232Y0000449559D01*
X0002333482Y0000449747D01*
X0002331633Y0000450308D01*
X0002330906Y0000450568D01*
X0002329121Y0000451308D01*
X0002328422Y0000451638D01*
X0002326719Y0000452549D01*
X0002326056Y0000452946D01*
X0002324450Y0000454019D01*
X0002323829Y0000454480D01*
X0002322336Y0000455705D01*
X0002321763Y0000456224D01*
X0002320397Y0000457590D01*
X0002319878Y0000458163D01*
X0002318653Y0000459656D01*
X0002318192Y0000460277D01*
X0002317119Y0000461883D01*
X0002316722Y0000462545D01*
X0002315811Y0000464249D01*
X0002315481Y0000464948D01*
X0002314742Y0000466733D01*
X0002314481Y0000467460D01*
X0002313921Y0000469309D01*
X0002313733Y0000470058D01*
X0002313356Y0000471953D01*
X0002313243Y0000472717D01*
X0002313053Y0000474640D01*
X0002313015Y0000475412D01*
X0002313015Y0000476137D01*
X0002312992Y0000476377D01*
X0002312992Y0000496062D01*
X0002313015Y0000496303D01*
X0002313015Y0000497028D01*
X0002313053Y0000497800D01*
X0002313243Y0000499723D01*
X0002313356Y0000500487D01*
X0002313733Y0000502382D01*
X0002313921Y0000503131D01*
X0002314481Y0000504980D01*
X0002314742Y0000505707D01*
X0002315481Y0000507492D01*
X0002315811Y0000508190D01*
X0002316722Y0000509895D01*
X0002317119Y0000510557D01*
X0002318192Y0000512163D01*
X0002318653Y0000512784D01*
X0002319878Y0000514277D01*
X0002320397Y0000514850D01*
X0002321763Y0000516216D01*
X0002322336Y0000516735D01*
X0002323829Y0000517960D01*
X0002324450Y0000518421D01*
X0002326056Y0000519494D01*
X0002326719Y0000519891D01*
X0002328422Y0000520802D01*
X0002329121Y0000521132D01*
X0002330906Y0000521872D01*
X0002331633Y0000522132D01*
X0002333482Y0000522692D01*
X0002334232Y0000522880D01*
X0002336126Y0000523257D01*
X0002336890Y0000523371D01*
X0002338813Y0000523560D01*
X0002339585Y0000523598D01*
X0002340310Y0000523598D01*
X0002340551Y0000523622D01*
X0002360236Y0000523622D01*
X0002361772Y0000523470D01*
X0002363249Y0000523022D01*
X0002364610Y0000522294D01*
X0002365803Y0000521315D01*
X0002366783Y0000520122D01*
X0002367510Y0000518761D01*
X0002367958Y0000517283D01*
X0002368110Y0000515746D01*
X0002368110Y0000456692D01*
X0002367958Y0000455156D01*
X0002367510Y0000453679D01*
X0002366783Y0000452318D01*
X0002365803Y0000451125D01*
X0002364610Y0000450145D01*
X0002363249Y0000449418D01*
X0002361772Y0000448970D01*
X0002360236Y0000448818D01*
X0002340551Y0000448818D01*
X0002340310Y0000448842D01*
X0002340310Y0000448842D01*
G37*
D74*
X0002391732Y0000486220D03*
D71*
G36*
X0002370511Y0000448970D02*
G01*
X0002369033Y0000449418D01*
X0002367672Y0000450145D01*
X0002366479Y0000451125D01*
X0002365500Y0000452318D01*
X0002364772Y0000453679D01*
X0002364324Y0000455156D01*
X0002364173Y0000456692D01*
X0002364173Y0000515746D01*
X0002364324Y0000517283D01*
X0002364772Y0000518761D01*
X0002365500Y0000520122D01*
X0002366479Y0000521315D01*
X0002367672Y0000522294D01*
X0002369033Y0000523022D01*
X0002370511Y0000523470D01*
X0002372047Y0000523622D01*
X0002391732Y0000523622D01*
X0002391972Y0000523598D01*
X0002392698Y0000523598D01*
X0002393470Y0000523560D01*
X0002395392Y0000523371D01*
X0002396156Y0000523257D01*
X0002398051Y0000522880D01*
X0002398801Y0000522692D01*
X0002400649Y0000522132D01*
X0002401377Y0000521872D01*
X0002403161Y0000521132D01*
X0002403860Y0000520802D01*
X0002405564Y0000519891D01*
X0002406226Y0000519494D01*
X0002407833Y0000518421D01*
X0002408453Y0000517960D01*
X0002409947Y0000516735D01*
X0002410519Y0000516216D01*
X0002411885Y0000514850D01*
X0002412404Y0000514277D01*
X0002413630Y0000512784D01*
X0002414090Y0000512163D01*
X0002415163Y0000510557D01*
X0002415560Y0000509895D01*
X0002416471Y0000508190D01*
X0002416802Y0000507492D01*
X0002417541Y0000505707D01*
X0002417801Y0000504980D01*
X0002418362Y0000503131D01*
X0002418550Y0000502382D01*
X0002418926Y0000500487D01*
X0002419040Y0000499723D01*
X0002419229Y0000497800D01*
X0002419267Y0000497028D01*
X0002419267Y0000496303D01*
X0002419291Y0000496062D01*
X0002419291Y0000476377D01*
X0002419267Y0000476137D01*
X0002419267Y0000475412D01*
X0002419229Y0000474640D01*
X0002419040Y0000472717D01*
X0002418926Y0000471953D01*
X0002418550Y0000470058D01*
X0002418362Y0000469309D01*
X0002417801Y0000467460D01*
X0002417541Y0000466733D01*
X0002416802Y0000464948D01*
X0002416471Y0000464249D01*
X0002415560Y0000462545D01*
X0002415163Y0000461883D01*
X0002414090Y0000460277D01*
X0002413630Y0000459656D01*
X0002412404Y0000458163D01*
X0002411885Y0000457590D01*
X0002410519Y0000456224D01*
X0002409947Y0000455705D01*
X0002408453Y0000454480D01*
X0002407833Y0000454019D01*
X0002406226Y0000452946D01*
X0002405564Y0000452549D01*
X0002403860Y0000451638D01*
X0002403161Y0000451308D01*
X0002401377Y0000450568D01*
X0002400649Y0000450308D01*
X0002398801Y0000449747D01*
X0002398051Y0000449559D01*
X0002396156Y0000449182D01*
X0002395392Y0000449069D01*
X0002393470Y0000448880D01*
X0002392698Y0000448842D01*
X0002391972Y0000448842D01*
X0002391732Y0000448818D01*
X0002372047Y0000448818D01*
X0002370511Y0000448970D01*
X0002370511Y0000448970D01*
G37*
D70*
X0002545610Y0000248759D03*
X0002545610Y0000348759D03*
X0002545610Y0000448759D03*
D75*
X0002543700Y0000697559D03*
X0002464960Y0000697559D03*
X0002386220Y0000697559D03*
X0002307480Y0000697559D03*
X0002228740Y0000697559D03*
X0002150000Y0000697559D03*
X0002071259Y0000697559D03*
X0001992519Y0000697559D03*
X0002228740Y0001445590D03*
X0002307480Y0001445590D03*
X0002150000Y0001445590D03*
D76*
X0002179133Y0000305511D03*
X0002104330Y0000305511D03*
X0002104330Y0000202362D03*
X0002141732Y0000202362D03*
X0002179133Y0000202362D03*
D77*
X0001866555Y0001006259D03*
X0001866555Y0001206259D03*
X0001866555Y0001406258D03*
X0001865610Y0001106259D03*
X0001865610Y0001306259D03*
D78*
X0002523110Y0001506259D03*
X0001888110Y0000071259D03*
D79*
X0001883110Y0001518759D03*
G04 next file*
%LPD*%
D90*
X-0003976377Y0004921259D02*
X0002767716Y0000248818D03*
X0002767716Y0000348818D03*
X0002767716Y0000448818D03*
D91*
G36*
X0003291904Y0000412117D02*
G01*
X0003293665Y0000411856D01*
X0003295392Y0000411423D01*
X0003297068Y0000410823D01*
X0003298677Y0000410061D01*
X0003300205Y0000409147D01*
X0003301634Y0000408086D01*
X0003302954Y0000406891D01*
X0003304149Y0000405571D01*
X0003305210Y0000404142D01*
X0003306125Y0000402614D01*
X0003306886Y0000401004D01*
X0003307485Y0000399329D01*
X0003307918Y0000397602D01*
X0003308180Y0000395841D01*
X0003308267Y0000394062D01*
X0003308267Y0000335858D01*
X0003308180Y0000334080D01*
X0003307918Y0000332318D01*
X0003307485Y0000330591D01*
X0003306886Y0000328915D01*
X0003306125Y0000327306D01*
X0003305210Y0000325779D01*
X0003304149Y0000324349D01*
X0003302954Y0000323029D01*
X0003301634Y0000321834D01*
X0003300205Y0000320773D01*
X0003298677Y0000319858D01*
X0003297068Y0000319097D01*
X0003295392Y0000318497D01*
X0003293665Y0000318064D01*
X0003291904Y0000317803D01*
X0003290125Y0000317716D01*
X0003176803Y0000317716D01*
X0003175024Y0000317803D01*
X0003173263Y0000318064D01*
X0003171536Y0000318497D01*
X0003169860Y0000319097D01*
X0003168251Y0000319858D01*
X0003166724Y0000320773D01*
X0003165294Y0000321834D01*
X0003163975Y0000323029D01*
X0003162779Y0000324349D01*
X0003161718Y0000325779D01*
X0003160803Y0000327306D01*
X0003160042Y0000328915D01*
X0003159442Y0000330591D01*
X0003159010Y0000332318D01*
X0003158748Y0000334080D01*
X0003158661Y0000335858D01*
X0003158661Y0000394062D01*
X0003158748Y0000395841D01*
X0003159010Y0000397602D01*
X0003159442Y0000399329D01*
X0003160042Y0000401004D01*
X0003160803Y0000402614D01*
X0003161718Y0000404142D01*
X0003162779Y0000405571D01*
X0003163975Y0000406891D01*
X0003165294Y0000408086D01*
X0003166724Y0000409147D01*
X0003168251Y0000410061D01*
X0003169860Y0000410823D01*
X0003171536Y0000411423D01*
X0003173263Y0000411856D01*
X0003175024Y0000412117D01*
X0003176803Y0000412204D01*
X0003290125Y0000412204D01*
X0003291904Y0000412117D01*
X0003291904Y0000412117D01*
G37*
D92*
X0003233464Y0000364960D03*
D91*
G36*
X0003291904Y0000227077D02*
G01*
X0003293665Y0000226816D01*
X0003295392Y0000226384D01*
X0003297068Y0000225783D01*
X0003298677Y0000225023D01*
X0003300205Y0000224107D01*
X0003301634Y0000223047D01*
X0003302954Y0000221851D01*
X0003304149Y0000220532D01*
X0003305210Y0000219102D01*
X0003306125Y0000217575D01*
X0003306886Y0000215965D01*
X0003307485Y0000214289D01*
X0003307918Y0000212561D01*
X0003308180Y0000210801D01*
X0003308267Y0000209023D01*
X0003308267Y0000150818D01*
X0003308180Y0000149040D01*
X0003307918Y0000147279D01*
X0003307485Y0000145552D01*
X0003306886Y0000143876D01*
X0003306125Y0000142266D01*
X0003305210Y0000140739D01*
X0003304149Y0000139309D01*
X0003302954Y0000137990D01*
X0003301634Y0000136795D01*
X0003300205Y0000135734D01*
X0003298677Y0000134819D01*
X0003297068Y0000134058D01*
X0003295392Y0000133458D01*
X0003293665Y0000133025D01*
X0003291904Y0000132764D01*
X0003290125Y0000132677D01*
X0003176803Y0000132677D01*
X0003175024Y0000132764D01*
X0003173263Y0000133025D01*
X0003171536Y0000133458D01*
X0003169860Y0000134058D01*
X0003168251Y0000134819D01*
X0003166724Y0000135734D01*
X0003165294Y0000136795D01*
X0003163975Y0000137990D01*
X0003162779Y0000139309D01*
X0003161718Y0000140739D01*
X0003160803Y0000142266D01*
X0003160042Y0000143876D01*
X0003159442Y0000145552D01*
X0003159010Y0000147279D01*
X0003158748Y0000149040D01*
X0003158661Y0000150818D01*
X0003158661Y0000209023D01*
X0003158748Y0000210801D01*
X0003159010Y0000212561D01*
X0003159442Y0000214289D01*
X0003160042Y0000215965D01*
X0003160803Y0000217575D01*
X0003161718Y0000219102D01*
X0003162779Y0000220532D01*
X0003163975Y0000221851D01*
X0003165294Y0000223047D01*
X0003166724Y0000224107D01*
X0003168251Y0000225023D01*
X0003169860Y0000225783D01*
X0003171536Y0000226384D01*
X0003173263Y0000226816D01*
X0003175024Y0000227077D01*
X0003176803Y0000227165D01*
X0003290125Y0000227165D01*
X0003291904Y0000227077D01*
X0003291904Y0000227077D01*
G37*
D92*
X0003233464Y0000179921D03*
D91*
G36*
X0003023467Y0000153479D02*
G01*
X0003024755Y0000153288D01*
X0003026017Y0000152972D01*
X0003027243Y0000152533D01*
X0003028420Y0000151976D01*
X0003029537Y0000151307D01*
X0003030582Y0000150532D01*
X0003031547Y0000149657D01*
X0003032421Y0000148693D01*
X0003033197Y0000147647D01*
X0003033866Y0000146530D01*
X0003034423Y0000145353D01*
X0003034861Y0000144128D01*
X0003035178Y0000142865D01*
X0003035369Y0000141577D01*
X0003035433Y0000140277D01*
X0003035433Y0000095943D01*
X0003035369Y0000094642D01*
X0003035178Y0000093355D01*
X0003034861Y0000092092D01*
X0003034423Y0000090866D01*
X0003033866Y0000089689D01*
X0003033197Y0000088572D01*
X0003032421Y0000087527D01*
X0003031547Y0000086562D01*
X0003030582Y0000085688D01*
X0003029537Y0000084912D01*
X0003028420Y0000084243D01*
X0003027243Y0000083686D01*
X0003026017Y0000083248D01*
X0003024755Y0000082932D01*
X0003023467Y0000082741D01*
X0003022167Y0000082677D01*
X0002987675Y0000082677D01*
X0002986375Y0000082741D01*
X0002985086Y0000082932D01*
X0002983824Y0000083248D01*
X0002982598Y0000083686D01*
X0002981420Y0000084243D01*
X0002980305Y0000084912D01*
X0002979258Y0000085688D01*
X0002978294Y0000086562D01*
X0002977419Y0000087527D01*
X0002976645Y0000088572D01*
X0002975975Y0000089689D01*
X0002975419Y0000090866D01*
X0002974980Y0000092092D01*
X0002974664Y0000093355D01*
X0002974473Y0000094642D01*
X0002974408Y0000095943D01*
X0002974408Y0000140277D01*
X0002974473Y0000141577D01*
X0002974664Y0000142865D01*
X0002974980Y0000144128D01*
X0002975419Y0000145353D01*
X0002975975Y0000146530D01*
X0002976645Y0000147647D01*
X0002977419Y0000148693D01*
X0002978294Y0000149657D01*
X0002979258Y0000150532D01*
X0002980305Y0000151307D01*
X0002981420Y0000151976D01*
X0002982598Y0000152533D01*
X0002983824Y0000152972D01*
X0002985086Y0000153288D01*
X0002986375Y0000153479D01*
X0002987675Y0000153543D01*
X0003022167Y0000153543D01*
X0003023467Y0000153479D01*
X0003023467Y0000153479D01*
G37*
D93*
X0003004921Y0000118110D03*
D91*
G36*
X0003104176Y0000153479D02*
G01*
X0003105463Y0000153288D01*
X0003106726Y0000152972D01*
X0003107952Y0000152533D01*
X0003109129Y0000151976D01*
X0003110245Y0000151307D01*
X0003111291Y0000150532D01*
X0003112256Y0000149657D01*
X0003113130Y0000148693D01*
X0003113905Y0000147647D01*
X0003114575Y0000146530D01*
X0003115131Y0000145353D01*
X0003115570Y0000144128D01*
X0003115886Y0000142865D01*
X0003116077Y0000141577D01*
X0003116141Y0000140277D01*
X0003116141Y0000095943D01*
X0003116077Y0000094642D01*
X0003115886Y0000093355D01*
X0003115570Y0000092092D01*
X0003115131Y0000090866D01*
X0003114575Y0000089689D01*
X0003113905Y0000088572D01*
X0003113130Y0000087527D01*
X0003112256Y0000086562D01*
X0003111291Y0000085688D01*
X0003110245Y0000084912D01*
X0003109129Y0000084243D01*
X0003107952Y0000083686D01*
X0003106726Y0000083248D01*
X0003105463Y0000082932D01*
X0003104176Y0000082741D01*
X0003102875Y0000082677D01*
X0003068384Y0000082677D01*
X0003067083Y0000082741D01*
X0003065796Y0000082932D01*
X0003064533Y0000083248D01*
X0003063307Y0000083686D01*
X0003062130Y0000084243D01*
X0003061013Y0000084912D01*
X0003059968Y0000085688D01*
X0003059003Y0000086562D01*
X0003058129Y0000087527D01*
X0003057353Y0000088572D01*
X0003056684Y0000089689D01*
X0003056127Y0000090866D01*
X0003055689Y0000092092D01*
X0003055372Y0000093355D01*
X0003055181Y0000094642D01*
X0003055118Y0000095943D01*
X0003055118Y0000140277D01*
X0003055181Y0000141577D01*
X0003055372Y0000142865D01*
X0003055689Y0000144128D01*
X0003056127Y0000145353D01*
X0003056684Y0000146530D01*
X0003057353Y0000147647D01*
X0003058129Y0000148693D01*
X0003059003Y0000149657D01*
X0003059968Y0000150532D01*
X0003061013Y0000151307D01*
X0003062130Y0000151976D01*
X0003063307Y0000152533D01*
X0003064533Y0000152972D01*
X0003065796Y0000153288D01*
X0003067083Y0000153479D01*
X0003068384Y0000153543D01*
X0003102875Y0000153543D01*
X0003104176Y0000153479D01*
X0003104176Y0000153479D01*
G37*
D93*
X0003085629Y0000118110D03*
D91*
G36*
X0002990002Y0000421195D02*
G01*
X0002991290Y0000421004D01*
X0002992553Y0000420688D01*
X0002993779Y0000420250D01*
X0002994956Y0000419693D01*
X0002996072Y0000419023D01*
X0002997118Y0000418248D01*
X0002998082Y0000417374D01*
X0002998957Y0000416409D01*
X0002999732Y0000415364D01*
X0003000401Y0000414246D01*
X0003000958Y0000413070D01*
X0003001397Y0000411844D01*
X0003001713Y0000410581D01*
X0003001904Y0000409294D01*
X0003001968Y0000407993D01*
X0003001968Y0000363659D01*
X0003001904Y0000362359D01*
X0003001713Y0000361071D01*
X0003001397Y0000359808D01*
X0003000958Y0000358582D01*
X0003000401Y0000357406D01*
X0002999732Y0000356289D01*
X0002998957Y0000355243D01*
X0002998082Y0000354279D01*
X0002997118Y0000353403D01*
X0002996072Y0000352629D01*
X0002994956Y0000351960D01*
X0002993779Y0000351403D01*
X0002992553Y0000350964D01*
X0002991290Y0000350648D01*
X0002990002Y0000350457D01*
X0002988702Y0000350393D01*
X0002954210Y0000350393D01*
X0002952910Y0000350457D01*
X0002951622Y0000350648D01*
X0002950359Y0000350964D01*
X0002949134Y0000351403D01*
X0002947957Y0000351960D01*
X0002946840Y0000352629D01*
X0002945795Y0000353403D01*
X0002944830Y0000354279D01*
X0002943956Y0000355243D01*
X0002943180Y0000356289D01*
X0002942511Y0000357406D01*
X0002941954Y0000358582D01*
X0002941515Y0000359808D01*
X0002941199Y0000361071D01*
X0002941008Y0000362359D01*
X0002940944Y0000363659D01*
X0002940944Y0000407993D01*
X0002941008Y0000409294D01*
X0002941199Y0000410581D01*
X0002941515Y0000411844D01*
X0002941954Y0000413070D01*
X0002942511Y0000414246D01*
X0002943180Y0000415364D01*
X0002943956Y0000416409D01*
X0002944830Y0000417374D01*
X0002945795Y0000418248D01*
X0002946840Y0000419023D01*
X0002947957Y0000419693D01*
X0002949134Y0000420250D01*
X0002950359Y0000420688D01*
X0002951622Y0000421004D01*
X0002952910Y0000421195D01*
X0002954210Y0000421259D01*
X0002988702Y0000421259D01*
X0002990002Y0000421195D01*
X0002990002Y0000421195D01*
G37*
D93*
X0002971456Y0000385826D03*
D91*
G36*
X0003070711Y0000421195D02*
G01*
X0003071999Y0000421004D01*
X0003073262Y0000420688D01*
X0003074487Y0000420250D01*
X0003075664Y0000419693D01*
X0003076781Y0000419023D01*
X0003077827Y0000418248D01*
X0003078791Y0000417374D01*
X0003079665Y0000416409D01*
X0003080440Y0000415364D01*
X0003081109Y0000414246D01*
X0003081666Y0000413070D01*
X0003082105Y0000411844D01*
X0003082422Y0000410581D01*
X0003082613Y0000409294D01*
X0003082677Y0000407993D01*
X0003082677Y0000363659D01*
X0003082613Y0000362359D01*
X0003082422Y0000361071D01*
X0003082105Y0000359808D01*
X0003081666Y0000358582D01*
X0003081109Y0000357406D01*
X0003080440Y0000356289D01*
X0003079665Y0000355243D01*
X0003078791Y0000354279D01*
X0003077827Y0000353403D01*
X0003076781Y0000352629D01*
X0003075664Y0000351960D01*
X0003074487Y0000351403D01*
X0003073262Y0000350964D01*
X0003071999Y0000350648D01*
X0003070711Y0000350457D01*
X0003069411Y0000350393D01*
X0003034919Y0000350393D01*
X0003033619Y0000350457D01*
X0003032331Y0000350648D01*
X0003031068Y0000350964D01*
X0003029842Y0000351403D01*
X0003028665Y0000351960D01*
X0003027548Y0000352629D01*
X0003026503Y0000353403D01*
X0003025539Y0000354279D01*
X0003024664Y0000355243D01*
X0003023889Y0000356289D01*
X0003023219Y0000357406D01*
X0003022663Y0000358582D01*
X0003022223Y0000359808D01*
X0003021907Y0000361071D01*
X0003021717Y0000362359D01*
X0003021653Y0000363659D01*
X0003021653Y0000407993D01*
X0003021717Y0000409294D01*
X0003021907Y0000410581D01*
X0003022223Y0000411844D01*
X0003022663Y0000413070D01*
X0003023219Y0000414246D01*
X0003023889Y0000415364D01*
X0003024664Y0000416409D01*
X0003025539Y0000417374D01*
X0003026503Y0000418248D01*
X0003027548Y0000419023D01*
X0003028665Y0000419693D01*
X0003029842Y0000420250D01*
X0003031068Y0000420688D01*
X0003032331Y0000421004D01*
X0003033619Y0000421195D01*
X0003034919Y0000421259D01*
X0003069411Y0000421259D01*
X0003070711Y0000421195D01*
X0003070711Y0000421195D01*
G37*
D93*
X0003052165Y0000385826D03*
D91*
G36*
X0003386656Y0000627888D02*
G01*
X0003387944Y0000627697D01*
X0003389206Y0000627381D01*
X0003390432Y0000626942D01*
X0003391609Y0000626386D01*
X0003392725Y0000625717D01*
X0003393771Y0000624941D01*
X0003394736Y0000624067D01*
X0003395610Y0000623102D01*
X0003396386Y0000622056D01*
X0003397055Y0000620940D01*
X0003397612Y0000619763D01*
X0003398050Y0000618537D01*
X0003398367Y0000617274D01*
X0003398558Y0000615987D01*
X0003398622Y0000614686D01*
X0003398622Y0000570352D01*
X0003398558Y0000569052D01*
X0003398367Y0000567764D01*
X0003398050Y0000566501D01*
X0003397612Y0000565275D01*
X0003397055Y0000564099D01*
X0003396386Y0000562982D01*
X0003395610Y0000561936D01*
X0003394736Y0000560972D01*
X0003393771Y0000560097D01*
X0003392725Y0000559322D01*
X0003391609Y0000558652D01*
X0003390432Y0000558096D01*
X0003389206Y0000557657D01*
X0003387944Y0000557341D01*
X0003386656Y0000557150D01*
X0003385355Y0000557086D01*
X0003350864Y0000557086D01*
X0003349564Y0000557150D01*
X0003348276Y0000557341D01*
X0003347013Y0000557657D01*
X0003345787Y0000558096D01*
X0003344610Y0000558652D01*
X0003343494Y0000559322D01*
X0003342448Y0000560097D01*
X0003341483Y0000560972D01*
X0003340609Y0000561936D01*
X0003339833Y0000562982D01*
X0003339164Y0000564099D01*
X0003338608Y0000565275D01*
X0003338169Y0000566501D01*
X0003337853Y0000567764D01*
X0003337662Y0000569052D01*
X0003337598Y0000570352D01*
X0003337598Y0000614686D01*
X0003337662Y0000615987D01*
X0003337853Y0000617274D01*
X0003338169Y0000618537D01*
X0003338608Y0000619763D01*
X0003339164Y0000620940D01*
X0003339833Y0000622056D01*
X0003340609Y0000623102D01*
X0003341483Y0000624067D01*
X0003342448Y0000624941D01*
X0003343494Y0000625717D01*
X0003344610Y0000626386D01*
X0003345787Y0000626942D01*
X0003347013Y0000627381D01*
X0003348276Y0000627697D01*
X0003349564Y0000627888D01*
X0003350864Y0000627952D01*
X0003385355Y0000627952D01*
X0003386656Y0000627888D01*
X0003386656Y0000627888D01*
G37*
D93*
X0003368110Y0000592519D03*
D91*
G36*
X0003467364Y0000627888D02*
G01*
X0003468652Y0000627697D01*
X0003469914Y0000627381D01*
X0003471140Y0000626942D01*
X0003472317Y0000626386D01*
X0003473433Y0000625717D01*
X0003474480Y0000624941D01*
X0003475445Y0000624067D01*
X0003476319Y0000623102D01*
X0003477094Y0000622056D01*
X0003477764Y0000620940D01*
X0003478320Y0000619763D01*
X0003478758Y0000618537D01*
X0003479075Y0000617274D01*
X0003479266Y0000615987D01*
X0003479330Y0000614686D01*
X0003479330Y0000570352D01*
X0003479266Y0000569052D01*
X0003479075Y0000567764D01*
X0003478758Y0000566501D01*
X0003478320Y0000565275D01*
X0003477764Y0000564099D01*
X0003477094Y0000562982D01*
X0003476319Y0000561936D01*
X0003475445Y0000560972D01*
X0003474480Y0000560097D01*
X0003473433Y0000559322D01*
X0003472317Y0000558652D01*
X0003471140Y0000558096D01*
X0003469914Y0000557657D01*
X0003468652Y0000557341D01*
X0003467364Y0000557150D01*
X0003466063Y0000557086D01*
X0003431573Y0000557086D01*
X0003430272Y0000557150D01*
X0003428984Y0000557341D01*
X0003427722Y0000557657D01*
X0003426496Y0000558096D01*
X0003425319Y0000558652D01*
X0003424202Y0000559322D01*
X0003423157Y0000560097D01*
X0003422192Y0000560972D01*
X0003421318Y0000561936D01*
X0003420541Y0000562982D01*
X0003419873Y0000564099D01*
X0003419316Y0000565275D01*
X0003418878Y0000566501D01*
X0003418562Y0000567764D01*
X0003418370Y0000569052D01*
X0003418307Y0000570352D01*
X0003418307Y0000614686D01*
X0003418370Y0000615987D01*
X0003418562Y0000617274D01*
X0003418878Y0000618537D01*
X0003419316Y0000619763D01*
X0003419873Y0000620940D01*
X0003420541Y0000622056D01*
X0003421318Y0000623102D01*
X0003422192Y0000624067D01*
X0003423157Y0000624941D01*
X0003424202Y0000625717D01*
X0003425319Y0000626386D01*
X0003426496Y0000626942D01*
X0003427722Y0000627381D01*
X0003428984Y0000627697D01*
X0003430272Y0000627888D01*
X0003431573Y0000627952D01*
X0003466063Y0000627952D01*
X0003467364Y0000627888D01*
X0003467364Y0000627888D01*
G37*
D93*
X0003448818Y0000592519D03*
D94*
X0003246062Y0000486220D03*
D91*
G36*
X0003245822Y0000448842D02*
G01*
X0003245097Y0000448842D01*
X0003244325Y0000448880D01*
X0003242401Y0000449069D01*
X0003241638Y0000449182D01*
X0003239743Y0000449559D01*
X0003238994Y0000449747D01*
X0003237144Y0000450308D01*
X0003236418Y0000450568D01*
X0003234633Y0000451308D01*
X0003233934Y0000451638D01*
X0003232230Y0000452549D01*
X0003231568Y0000452946D01*
X0003229962Y0000454019D01*
X0003229341Y0000454480D01*
X0003227848Y0000455705D01*
X0003227275Y0000456224D01*
X0003225909Y0000457590D01*
X0003225390Y0000458163D01*
X0003224164Y0000459656D01*
X0003223703Y0000460277D01*
X0003222631Y0000461883D01*
X0003222234Y0000462545D01*
X0003221323Y0000464249D01*
X0003220993Y0000464948D01*
X0003220252Y0000466733D01*
X0003219993Y0000467460D01*
X0003219432Y0000469309D01*
X0003219245Y0000470058D01*
X0003218867Y0000471953D01*
X0003218754Y0000472717D01*
X0003218565Y0000474640D01*
X0003218527Y0000475412D01*
X0003218527Y0000476137D01*
X0003218502Y0000476377D01*
X0003218502Y0000496062D01*
X0003218527Y0000496303D01*
X0003218527Y0000497028D01*
X0003218565Y0000497800D01*
X0003218754Y0000499723D01*
X0003218867Y0000500487D01*
X0003219245Y0000502382D01*
X0003219432Y0000503131D01*
X0003219993Y0000504980D01*
X0003220252Y0000505707D01*
X0003220993Y0000507492D01*
X0003221323Y0000508190D01*
X0003222234Y0000509895D01*
X0003222631Y0000510557D01*
X0003223703Y0000512163D01*
X0003224164Y0000512784D01*
X0003225390Y0000514277D01*
X0003225909Y0000514850D01*
X0003227275Y0000516216D01*
X0003227848Y0000516735D01*
X0003229341Y0000517960D01*
X0003229962Y0000518421D01*
X0003231568Y0000519494D01*
X0003232230Y0000519891D01*
X0003233934Y0000520802D01*
X0003234633Y0000521132D01*
X0003236418Y0000521872D01*
X0003237144Y0000522132D01*
X0003238994Y0000522692D01*
X0003239743Y0000522880D01*
X0003241638Y0000523257D01*
X0003242401Y0000523371D01*
X0003244325Y0000523560D01*
X0003245097Y0000523598D01*
X0003245822Y0000523598D01*
X0003246062Y0000523622D01*
X0003265747Y0000523622D01*
X0003267284Y0000523470D01*
X0003268761Y0000523022D01*
X0003270122Y0000522294D01*
X0003271315Y0000521315D01*
X0003272295Y0000520122D01*
X0003273022Y0000518761D01*
X0003273470Y0000517283D01*
X0003273622Y0000515746D01*
X0003273622Y0000456692D01*
X0003273470Y0000455156D01*
X0003273022Y0000453679D01*
X0003272295Y0000452318D01*
X0003271315Y0000451125D01*
X0003270122Y0000450145D01*
X0003268761Y0000449418D01*
X0003267284Y0000448970D01*
X0003265747Y0000448818D01*
X0003246062Y0000448818D01*
X0003245822Y0000448842D01*
X0003245822Y0000448842D01*
G37*
D94*
X0003297244Y0000486220D03*
D91*
G36*
X0003276022Y0000448970D02*
G01*
X0003274545Y0000449418D01*
X0003273184Y0000450145D01*
X0003271991Y0000451125D01*
X0003271012Y0000452318D01*
X0003270284Y0000453679D01*
X0003269836Y0000455156D01*
X0003269685Y0000456692D01*
X0003269685Y0000515746D01*
X0003269836Y0000517283D01*
X0003270284Y0000518761D01*
X0003271012Y0000520122D01*
X0003271991Y0000521315D01*
X0003273184Y0000522294D01*
X0003274545Y0000523022D01*
X0003276022Y0000523470D01*
X0003277559Y0000523622D01*
X0003297244Y0000523622D01*
X0003297483Y0000523598D01*
X0003298209Y0000523598D01*
X0003298981Y0000523560D01*
X0003300904Y0000523371D01*
X0003301668Y0000523257D01*
X0003303563Y0000522880D01*
X0003304312Y0000522692D01*
X0003306161Y0000522132D01*
X0003306888Y0000521872D01*
X0003308673Y0000521132D01*
X0003309371Y0000520802D01*
X0003311076Y0000519891D01*
X0003311738Y0000519494D01*
X0003313344Y0000518421D01*
X0003313965Y0000517960D01*
X0003315459Y0000516735D01*
X0003316031Y0000516216D01*
X0003317396Y0000514850D01*
X0003317915Y0000514277D01*
X0003319141Y0000512784D01*
X0003319602Y0000512163D01*
X0003320675Y0000510557D01*
X0003321072Y0000509895D01*
X0003321983Y0000508190D01*
X0003322313Y0000507492D01*
X0003323053Y0000505707D01*
X0003323313Y0000504980D01*
X0003323874Y0000503131D01*
X0003324061Y0000502382D01*
X0003324438Y0000500487D01*
X0003324552Y0000499723D01*
X0003324741Y0000497800D01*
X0003324779Y0000497028D01*
X0003324779Y0000496303D01*
X0003324803Y0000496062D01*
X0003324803Y0000476377D01*
X0003324779Y0000476137D01*
X0003324779Y0000475412D01*
X0003324741Y0000474640D01*
X0003324552Y0000472717D01*
X0003324438Y0000471953D01*
X0003324061Y0000470058D01*
X0003323874Y0000469309D01*
X0003323313Y0000467460D01*
X0003323053Y0000466733D01*
X0003322313Y0000464948D01*
X0003321983Y0000464249D01*
X0003321072Y0000462545D01*
X0003320675Y0000461883D01*
X0003319602Y0000460277D01*
X0003319141Y0000459656D01*
X0003317915Y0000458163D01*
X0003317396Y0000457590D01*
X0003316031Y0000456224D01*
X0003315459Y0000455705D01*
X0003313965Y0000454480D01*
X0003313344Y0000454019D01*
X0003311738Y0000452946D01*
X0003311076Y0000452549D01*
X0003309371Y0000451638D01*
X0003308673Y0000451308D01*
X0003306888Y0000450568D01*
X0003306161Y0000450308D01*
X0003304312Y0000449747D01*
X0003303563Y0000449559D01*
X0003301668Y0000449182D01*
X0003300904Y0000449069D01*
X0003298981Y0000448880D01*
X0003298209Y0000448842D01*
X0003297483Y0000448842D01*
X0003297244Y0000448818D01*
X0003277559Y0000448818D01*
X0003276022Y0000448970D01*
X0003276022Y0000448970D01*
G37*
D90*
X0003451122Y0000248759D03*
X0003451122Y0000348759D03*
X0003451122Y0000448759D03*
D95*
X0003449211Y0000697559D03*
X0003370472Y0000697559D03*
X0003291732Y0000697559D03*
X0003212992Y0000697559D03*
X0003134251Y0000697559D03*
X0003055511Y0000697559D03*
X0002976771Y0000697559D03*
X0002898031Y0000697559D03*
X0003134251Y0001445590D03*
X0003212992Y0001445590D03*
X0003055511Y0001445590D03*
D96*
X0003084645Y0000305511D03*
X0003009842Y0000305511D03*
X0003009842Y0000202362D03*
X0003047244Y0000202362D03*
X0003084645Y0000202362D03*
D97*
X0002772065Y0001006259D03*
X0002772065Y0001206259D03*
X0002772065Y0001406258D03*
X0002771122Y0001106259D03*
X0002771122Y0001306259D03*
D98*
X0003428622Y0001506259D03*
X0002793622Y0000071259D03*
D99*
X0002788622Y0001518759D03*
D110*
X-0005787401Y0006614173D02*
X0000956692Y0001941731D03*
X0000956692Y0002041732D03*
X0000956692Y0002141732D03*
D111*
G36*
X0001480880Y0002105030D02*
G01*
X0001482641Y0002104769D01*
X0001484368Y0002104336D01*
X0001486043Y0002103737D01*
X0001487654Y0002102975D01*
X0001489181Y0002102060D01*
X0001490611Y0002101000D01*
X0001491930Y0002099804D01*
X0001493124Y0002098485D01*
X0001494185Y0002097055D01*
X0001495101Y0002095527D01*
X0001495863Y0002093918D01*
X0001496462Y0002092242D01*
X0001496895Y0002090515D01*
X0001497154Y0002088754D01*
X0001497244Y0002086976D01*
X0001497244Y0002028770D01*
X0001497154Y0002026993D01*
X0001496895Y0002025232D01*
X0001496462Y0002023505D01*
X0001495863Y0002021828D01*
X0001495101Y0002020219D01*
X0001494185Y0002018692D01*
X0001493124Y0002017262D01*
X0001491930Y0002015943D01*
X0001490611Y0002014746D01*
X0001489181Y0002013687D01*
X0001487654Y0002012772D01*
X0001486043Y0002012010D01*
X0001484368Y0002011410D01*
X0001482641Y0002010978D01*
X0001480880Y0002010717D01*
X0001479102Y0002010629D01*
X0001365779Y0002010629D01*
X0001364001Y0002010717D01*
X0001362240Y0002010978D01*
X0001360513Y0002011410D01*
X0001358836Y0002012010D01*
X0001357227Y0002012772D01*
X0001355700Y0002013687D01*
X0001354270Y0002014746D01*
X0001352951Y0002015943D01*
X0001351754Y0002017262D01*
X0001350695Y0002018692D01*
X0001349779Y0002020219D01*
X0001349018Y0002021828D01*
X0001348418Y0002023505D01*
X0001347986Y0002025232D01*
X0001347724Y0002026993D01*
X0001347637Y0002028770D01*
X0001347637Y0002086976D01*
X0001347724Y0002088754D01*
X0001347986Y0002090515D01*
X0001348418Y0002092242D01*
X0001349018Y0002093918D01*
X0001349779Y0002095527D01*
X0001350695Y0002097055D01*
X0001351754Y0002098485D01*
X0001352951Y0002099804D01*
X0001354270Y0002101000D01*
X0001355700Y0002102060D01*
X0001357227Y0002102975D01*
X0001358836Y0002103737D01*
X0001360513Y0002104336D01*
X0001362240Y0002104769D01*
X0001364001Y0002105030D01*
X0001365779Y0002105118D01*
X0001479102Y0002105118D01*
X0001480880Y0002105030D01*
X0001480880Y0002105030D01*
G37*
D112*
X0001422440Y0002057872D03*
D111*
G36*
X0001480880Y0001919991D02*
G01*
X0001482641Y0001919729D01*
X0001484368Y0001919297D01*
X0001486043Y0001918697D01*
X0001487654Y0001917936D01*
X0001489181Y0001917021D01*
X0001490611Y0001915960D01*
X0001491930Y0001914765D01*
X0001493124Y0001913445D01*
X0001494185Y0001912016D01*
X0001495101Y0001910488D01*
X0001495863Y0001908879D01*
X0001496462Y0001907203D01*
X0001496895Y0001905476D01*
X0001497154Y0001903715D01*
X0001497244Y0001901937D01*
X0001497244Y0001843732D01*
X0001497154Y0001841954D01*
X0001496895Y0001840191D01*
X0001496462Y0001838465D01*
X0001495863Y0001836789D01*
X0001495101Y0001835180D01*
X0001494185Y0001833653D01*
X0001493124Y0001832221D01*
X0001491930Y0001830904D01*
X0001490611Y0001829708D01*
X0001489181Y0001828647D01*
X0001487654Y0001827732D01*
X0001486043Y0001826971D01*
X0001484368Y0001826371D01*
X0001482641Y0001825939D01*
X0001480880Y0001825677D01*
X0001479102Y0001825590D01*
X0001365779Y0001825590D01*
X0001364001Y0001825677D01*
X0001362240Y0001825939D01*
X0001360513Y0001826371D01*
X0001358836Y0001826971D01*
X0001357227Y0001827732D01*
X0001355700Y0001828647D01*
X0001354270Y0001829708D01*
X0001352951Y0001830904D01*
X0001351754Y0001832221D01*
X0001350695Y0001833653D01*
X0001349779Y0001835180D01*
X0001349018Y0001836789D01*
X0001348418Y0001838465D01*
X0001347986Y0001840191D01*
X0001347724Y0001841954D01*
X0001347637Y0001843732D01*
X0001347637Y0001901937D01*
X0001347724Y0001903715D01*
X0001347986Y0001905476D01*
X0001348418Y0001907203D01*
X0001349018Y0001908879D01*
X0001349779Y0001910488D01*
X0001350695Y0001912016D01*
X0001351754Y0001913445D01*
X0001352951Y0001914765D01*
X0001354270Y0001915960D01*
X0001355700Y0001917021D01*
X0001357227Y0001917936D01*
X0001358836Y0001918697D01*
X0001360513Y0001919297D01*
X0001362240Y0001919729D01*
X0001364001Y0001919991D01*
X0001365779Y0001920078D01*
X0001479102Y0001920078D01*
X0001480880Y0001919991D01*
X0001480880Y0001919991D01*
G37*
D112*
X0001422440Y0001872834D03*
D111*
G36*
X0001212443Y0001846391D02*
G01*
X0001213731Y0001846201D01*
X0001214994Y0001845885D01*
X0001216220Y0001845446D01*
X0001217397Y0001844890D01*
X0001218513Y0001844220D01*
X0001219559Y0001843445D01*
X0001220523Y0001842571D01*
X0001221398Y0001841606D01*
X0001222173Y0001840560D01*
X0001222843Y0001839444D01*
X0001223399Y0001838267D01*
X0001223838Y0001837041D01*
X0001224154Y0001835778D01*
X0001224345Y0001834490D01*
X0001224409Y0001833190D01*
X0001224409Y0001788856D01*
X0001224345Y0001787556D01*
X0001224154Y0001786267D01*
X0001223838Y0001785005D01*
X0001223399Y0001783779D01*
X0001222843Y0001782602D01*
X0001222173Y0001781486D01*
X0001221398Y0001780438D01*
X0001220523Y0001779476D01*
X0001219559Y0001778601D01*
X0001218513Y0001777826D01*
X0001217397Y0001777156D01*
X0001216220Y0001776600D01*
X0001214994Y0001776160D01*
X0001213731Y0001775845D01*
X0001212443Y0001775654D01*
X0001211143Y0001775589D01*
X0001176651Y0001775589D01*
X0001175351Y0001775654D01*
X0001174063Y0001775845D01*
X0001172800Y0001776160D01*
X0001171575Y0001776600D01*
X0001170398Y0001777156D01*
X0001169281Y0001777826D01*
X0001168235Y0001778601D01*
X0001167271Y0001779476D01*
X0001166397Y0001780438D01*
X0001165621Y0001781486D01*
X0001164952Y0001782602D01*
X0001164395Y0001783779D01*
X0001163957Y0001785005D01*
X0001163640Y0001786267D01*
X0001163449Y0001787556D01*
X0001163385Y0001788856D01*
X0001163385Y0001833190D01*
X0001163449Y0001834490D01*
X0001163640Y0001835778D01*
X0001163957Y0001837041D01*
X0001164395Y0001838267D01*
X0001164952Y0001839444D01*
X0001165621Y0001840560D01*
X0001166397Y0001841606D01*
X0001167271Y0001842571D01*
X0001168235Y0001843445D01*
X0001169281Y0001844220D01*
X0001170398Y0001844890D01*
X0001171575Y0001845446D01*
X0001172800Y0001845885D01*
X0001174063Y0001846201D01*
X0001175351Y0001846391D01*
X0001176651Y0001846456D01*
X0001211143Y0001846456D01*
X0001212443Y0001846391D01*
X0001212443Y0001846391D01*
G37*
D113*
X0001193897Y0001811023D03*
D111*
G36*
X0001293152Y0001846391D02*
G01*
X0001294440Y0001846201D01*
X0001295702Y0001845885D01*
X0001296928Y0001845446D01*
X0001298105Y0001844890D01*
X0001299222Y0001844220D01*
X0001300267Y0001843445D01*
X0001301232Y0001842571D01*
X0001302106Y0001841606D01*
X0001302882Y0001840560D01*
X0001303551Y0001839444D01*
X0001304108Y0001838267D01*
X0001304546Y0001837041D01*
X0001304863Y0001835778D01*
X0001305054Y0001834490D01*
X0001305118Y0001833190D01*
X0001305118Y0001788856D01*
X0001305054Y0001787556D01*
X0001304863Y0001786267D01*
X0001304546Y0001785005D01*
X0001304108Y0001783779D01*
X0001303551Y0001782602D01*
X0001302882Y0001781486D01*
X0001302106Y0001780438D01*
X0001301232Y0001779476D01*
X0001300267Y0001778601D01*
X0001299222Y0001777826D01*
X0001298105Y0001777156D01*
X0001296928Y0001776600D01*
X0001295702Y0001776160D01*
X0001294440Y0001775845D01*
X0001293152Y0001775654D01*
X0001291852Y0001775589D01*
X0001257360Y0001775589D01*
X0001256060Y0001775654D01*
X0001254772Y0001775845D01*
X0001253509Y0001776160D01*
X0001252283Y0001776600D01*
X0001251106Y0001777156D01*
X0001249990Y0001777826D01*
X0001248944Y0001778601D01*
X0001247979Y0001779476D01*
X0001247105Y0001780438D01*
X0001246330Y0001781486D01*
X0001245660Y0001782602D01*
X0001245104Y0001783779D01*
X0001244665Y0001785005D01*
X0001244349Y0001786267D01*
X0001244158Y0001787556D01*
X0001244094Y0001788856D01*
X0001244094Y0001833190D01*
X0001244158Y0001834490D01*
X0001244349Y0001835778D01*
X0001244665Y0001837041D01*
X0001245104Y0001838267D01*
X0001245660Y0001839444D01*
X0001246330Y0001840560D01*
X0001247105Y0001841606D01*
X0001247979Y0001842571D01*
X0001248944Y0001843445D01*
X0001249990Y0001844220D01*
X0001251106Y0001844890D01*
X0001252283Y0001845446D01*
X0001253509Y0001845885D01*
X0001254772Y0001846201D01*
X0001256060Y0001846391D01*
X0001257360Y0001846456D01*
X0001291852Y0001846456D01*
X0001293152Y0001846391D01*
X0001293152Y0001846391D01*
G37*
D113*
X0001274606Y0001811023D03*
D111*
G36*
X0001178979Y0002114109D02*
G01*
X0001180266Y0002113918D01*
X0001181529Y0002113602D01*
X0001182755Y0002113163D01*
X0001183932Y0002112606D01*
X0001185049Y0002111937D01*
X0001186094Y0002111162D01*
X0001187059Y0002110287D01*
X0001187933Y0002109323D01*
X0001188709Y0002108277D01*
X0001189378Y0002107160D01*
X0001189935Y0002105983D01*
X0001190373Y0002104758D01*
X0001190689Y0002103495D01*
X0001190880Y0002102207D01*
X0001190944Y0002100907D01*
X0001190944Y0002056573D01*
X0001190880Y0002055272D01*
X0001190689Y0002053983D01*
X0001190373Y0002052722D01*
X0001189935Y0002051496D01*
X0001189378Y0002050319D01*
X0001188709Y0002049202D01*
X0001187933Y0002048156D01*
X0001187059Y0002047192D01*
X0001186094Y0002046317D01*
X0001185049Y0002045542D01*
X0001183932Y0002044873D01*
X0001182755Y0002044315D01*
X0001181529Y0002043877D01*
X0001180266Y0002043562D01*
X0001178979Y0002043370D01*
X0001177678Y0002043307D01*
X0001143187Y0002043307D01*
X0001141886Y0002043370D01*
X0001140599Y0002043562D01*
X0001139336Y0002043877D01*
X0001138110Y0002044315D01*
X0001136933Y0002044873D01*
X0001135817Y0002045542D01*
X0001134771Y0002046317D01*
X0001133806Y0002047192D01*
X0001132932Y0002048156D01*
X0001132156Y0002049202D01*
X0001131487Y0002050319D01*
X0001130931Y0002051496D01*
X0001130492Y0002052722D01*
X0001130176Y0002053983D01*
X0001129985Y0002055272D01*
X0001129921Y0002056573D01*
X0001129921Y0002100907D01*
X0001129985Y0002102207D01*
X0001130176Y0002103495D01*
X0001130492Y0002104758D01*
X0001130931Y0002105983D01*
X0001131487Y0002107160D01*
X0001132156Y0002108277D01*
X0001132932Y0002109323D01*
X0001133806Y0002110287D01*
X0001134771Y0002111162D01*
X0001135817Y0002111937D01*
X0001136933Y0002112606D01*
X0001138110Y0002113163D01*
X0001139336Y0002113602D01*
X0001140599Y0002113918D01*
X0001141886Y0002114109D01*
X0001143187Y0002114173D01*
X0001177678Y0002114173D01*
X0001178979Y0002114109D01*
X0001178979Y0002114109D01*
G37*
D113*
X0001160433Y0002078739D03*
D111*
G36*
X0001259687Y0002114109D02*
G01*
X0001260975Y0002113918D01*
X0001262238Y0002113602D01*
X0001263464Y0002113163D01*
X0001264640Y0002112606D01*
X0001265757Y0002111937D01*
X0001266803Y0002111162D01*
X0001267767Y0002110287D01*
X0001268642Y0002109323D01*
X0001269417Y0002108277D01*
X0001270087Y0002107160D01*
X0001270643Y0002105983D01*
X0001271082Y0002104758D01*
X0001271397Y0002103495D01*
X0001271589Y0002102207D01*
X0001271653Y0002100907D01*
X0001271653Y0002056573D01*
X0001271589Y0002055272D01*
X0001271397Y0002053983D01*
X0001271082Y0002052722D01*
X0001270643Y0002051496D01*
X0001270087Y0002050319D01*
X0001269417Y0002049202D01*
X0001268642Y0002048156D01*
X0001267767Y0002047192D01*
X0001266803Y0002046317D01*
X0001265757Y0002045542D01*
X0001264640Y0002044873D01*
X0001263464Y0002044315D01*
X0001262238Y0002043877D01*
X0001260975Y0002043562D01*
X0001259687Y0002043370D01*
X0001258387Y0002043307D01*
X0001223895Y0002043307D01*
X0001222595Y0002043370D01*
X0001221307Y0002043562D01*
X0001220045Y0002043877D01*
X0001218819Y0002044315D01*
X0001217642Y0002044873D01*
X0001216525Y0002045542D01*
X0001215480Y0002046317D01*
X0001214515Y0002047192D01*
X0001213641Y0002048156D01*
X0001212865Y0002049202D01*
X0001212196Y0002050319D01*
X0001211639Y0002051496D01*
X0001211201Y0002052722D01*
X0001210884Y0002053983D01*
X0001210693Y0002055272D01*
X0001210629Y0002056573D01*
X0001210629Y0002100907D01*
X0001210693Y0002102207D01*
X0001210884Y0002103495D01*
X0001211201Y0002104758D01*
X0001211639Y0002105983D01*
X0001212196Y0002107160D01*
X0001212865Y0002108277D01*
X0001213641Y0002109323D01*
X0001214515Y0002110287D01*
X0001215480Y0002111162D01*
X0001216525Y0002111937D01*
X0001217642Y0002112606D01*
X0001218819Y0002113163D01*
X0001220045Y0002113602D01*
X0001221307Y0002113918D01*
X0001222595Y0002114109D01*
X0001223895Y0002114173D01*
X0001258387Y0002114173D01*
X0001259687Y0002114109D01*
X0001259687Y0002114109D01*
G37*
D113*
X0001241141Y0002078739D03*
D111*
G36*
X0001575631Y0002320802D02*
G01*
X0001576920Y0002320611D01*
X0001578183Y0002320294D01*
X0001579409Y0002319856D01*
X0001580584Y0002319299D01*
X0001581702Y0002318630D01*
X0001582748Y0002317854D01*
X0001583711Y0002316980D01*
X0001584586Y0002316016D01*
X0001585362Y0002314970D01*
X0001586032Y0002313853D01*
X0001586588Y0002312676D01*
X0001587027Y0002311451D01*
X0001587341Y0002310188D01*
X0001587534Y0002308900D01*
X0001587598Y0002307600D01*
X0001587598Y0002263265D01*
X0001587534Y0002261965D01*
X0001587341Y0002260677D01*
X0001587027Y0002259415D01*
X0001586588Y0002258189D01*
X0001586032Y0002257012D01*
X0001585362Y0002255895D01*
X0001584586Y0002254850D01*
X0001583711Y0002253885D01*
X0001582748Y0002253011D01*
X0001581702Y0002252235D01*
X0001580584Y0002251566D01*
X0001579409Y0002251009D01*
X0001578183Y0002250571D01*
X0001576920Y0002250254D01*
X0001575631Y0002250063D01*
X0001574332Y0002250000D01*
X0001539840Y0002250000D01*
X0001538540Y0002250063D01*
X0001537252Y0002250254D01*
X0001535989Y0002250571D01*
X0001534764Y0002251009D01*
X0001533587Y0002251566D01*
X0001532470Y0002252235D01*
X0001531424Y0002253011D01*
X0001530460Y0002253885D01*
X0001529586Y0002254850D01*
X0001528810Y0002255895D01*
X0001528140Y0002257012D01*
X0001527584Y0002258189D01*
X0001527146Y0002259415D01*
X0001526829Y0002260677D01*
X0001526638Y0002261965D01*
X0001526574Y0002263265D01*
X0001526574Y0002307600D01*
X0001526638Y0002308900D01*
X0001526829Y0002310188D01*
X0001527146Y0002311451D01*
X0001527584Y0002312676D01*
X0001528140Y0002313853D01*
X0001528810Y0002314970D01*
X0001529586Y0002316016D01*
X0001530460Y0002316980D01*
X0001531424Y0002317854D01*
X0001532470Y0002318630D01*
X0001533587Y0002319299D01*
X0001534764Y0002319856D01*
X0001535989Y0002320294D01*
X0001537252Y0002320611D01*
X0001538540Y0002320802D01*
X0001539840Y0002320866D01*
X0001574332Y0002320866D01*
X0001575631Y0002320802D01*
X0001575631Y0002320802D01*
G37*
D113*
X0001557086Y0002285433D03*
D111*
G36*
X0001656341Y0002320802D02*
G01*
X0001657629Y0002320611D01*
X0001658891Y0002320294D01*
X0001660117Y0002319856D01*
X0001661294Y0002319299D01*
X0001662411Y0002318630D01*
X0001663456Y0002317854D01*
X0001664421Y0002316980D01*
X0001665294Y0002316016D01*
X0001666071Y0002314970D01*
X0001666740Y0002313853D01*
X0001667297Y0002312676D01*
X0001667735Y0002311451D01*
X0001668052Y0002310188D01*
X0001668243Y0002308900D01*
X0001668307Y0002307600D01*
X0001668307Y0002263265D01*
X0001668243Y0002261965D01*
X0001668052Y0002260677D01*
X0001667735Y0002259415D01*
X0001667297Y0002258189D01*
X0001666740Y0002257012D01*
X0001666071Y0002255895D01*
X0001665294Y0002254850D01*
X0001664421Y0002253885D01*
X0001663456Y0002253011D01*
X0001662411Y0002252235D01*
X0001661294Y0002251566D01*
X0001660117Y0002251009D01*
X0001658891Y0002250571D01*
X0001657629Y0002250254D01*
X0001656341Y0002250063D01*
X0001655041Y0002250000D01*
X0001620549Y0002250000D01*
X0001619249Y0002250063D01*
X0001617961Y0002250254D01*
X0001616698Y0002250571D01*
X0001615472Y0002251009D01*
X0001614295Y0002251566D01*
X0001613179Y0002252235D01*
X0001612133Y0002253011D01*
X0001611168Y0002253885D01*
X0001610294Y0002254850D01*
X0001609519Y0002255895D01*
X0001608848Y0002257012D01*
X0001608293Y0002258189D01*
X0001607854Y0002259415D01*
X0001607538Y0002260677D01*
X0001607346Y0002261965D01*
X0001607283Y0002263265D01*
X0001607283Y0002307600D01*
X0001607346Y0002308900D01*
X0001607538Y0002310188D01*
X0001607854Y0002311451D01*
X0001608293Y0002312676D01*
X0001608848Y0002313853D01*
X0001609519Y0002314970D01*
X0001610294Y0002316016D01*
X0001611168Y0002316980D01*
X0001612133Y0002317854D01*
X0001613179Y0002318630D01*
X0001614295Y0002319299D01*
X0001615472Y0002319856D01*
X0001616698Y0002320294D01*
X0001617961Y0002320611D01*
X0001619249Y0002320802D01*
X0001620549Y0002320866D01*
X0001655041Y0002320866D01*
X0001656341Y0002320802D01*
X0001656341Y0002320802D01*
G37*
D113*
X0001637795Y0002285433D03*
D114*
X0001435039Y0002179133D03*
D111*
G36*
X0001434798Y0002141755D02*
G01*
X0001434073Y0002141755D01*
X0001433301Y0002141793D01*
X0001431379Y0002141983D01*
X0001430614Y0002142096D01*
X0001428720Y0002142473D01*
X0001427970Y0002142661D01*
X0001426121Y0002143222D01*
X0001425394Y0002143482D01*
X0001423609Y0002144221D01*
X0001422910Y0002144552D01*
X0001421207Y0002145462D01*
X0001420544Y0002145859D01*
X0001418938Y0002146933D01*
X0001418317Y0002147393D01*
X0001416824Y0002148619D01*
X0001416251Y0002149137D01*
X0001414885Y0002150503D01*
X0001414366Y0002151076D01*
X0001413139Y0002152569D01*
X0001412681Y0002153190D01*
X0001411607Y0002154796D01*
X0001411210Y0002155459D01*
X0001410300Y0002157162D01*
X0001409969Y0002157861D01*
X0001409230Y0002159646D01*
X0001408970Y0002160373D01*
X0001408409Y0002162222D01*
X0001408221Y0002162972D01*
X0001407844Y0002164866D01*
X0001407731Y0002165631D01*
X0001407541Y0002167553D01*
X0001407503Y0002168325D01*
X0001407503Y0002169050D01*
X0001407480Y0002169291D01*
X0001407480Y0002188976D01*
X0001407503Y0002189216D01*
X0001407503Y0002189942D01*
X0001407541Y0002190714D01*
X0001407731Y0002192636D01*
X0001407844Y0002193400D01*
X0001408221Y0002195295D01*
X0001408409Y0002196045D01*
X0001408970Y0002197893D01*
X0001409230Y0002198621D01*
X0001409969Y0002200406D01*
X0001410300Y0002201104D01*
X0001411210Y0002202808D01*
X0001411607Y0002203470D01*
X0001412681Y0002205077D01*
X0001413139Y0002205698D01*
X0001414366Y0002207191D01*
X0001414885Y0002207763D01*
X0001416251Y0002209129D01*
X0001416824Y0002209648D01*
X0001418317Y0002210874D01*
X0001418938Y0002211334D01*
X0001420544Y0002212407D01*
X0001421207Y0002212804D01*
X0001422910Y0002213715D01*
X0001423609Y0002214046D01*
X0001425394Y0002214785D01*
X0001426121Y0002215045D01*
X0001427970Y0002215606D01*
X0001428720Y0002215794D01*
X0001430614Y0002216171D01*
X0001431379Y0002216284D01*
X0001433301Y0002216473D01*
X0001434073Y0002216511D01*
X0001434798Y0002216511D01*
X0001435039Y0002216535D01*
X0001454724Y0002216535D01*
X0001456260Y0002216384D01*
X0001457737Y0002215936D01*
X0001459098Y0002215208D01*
X0001460292Y0002214229D01*
X0001461271Y0002213035D01*
X0001461999Y0002211674D01*
X0001462447Y0002210197D01*
X0001462598Y0002208661D01*
X0001462598Y0002149606D01*
X0001462447Y0002148070D01*
X0001461999Y0002146593D01*
X0001461271Y0002145231D01*
X0001460292Y0002144038D01*
X0001459098Y0002143059D01*
X0001457737Y0002142331D01*
X0001456260Y0002141883D01*
X0001454724Y0002141732D01*
X0001435039Y0002141732D01*
X0001434798Y0002141755D01*
X0001434798Y0002141755D01*
G37*
D114*
X0001486220Y0002179133D03*
D111*
G36*
X0001464998Y0002141883D02*
G01*
X0001463522Y0002142331D01*
X0001462160Y0002143059D01*
X0001460967Y0002144038D01*
X0001459988Y0002145231D01*
X0001459260Y0002146593D01*
X0001458812Y0002148070D01*
X0001458660Y0002149606D01*
X0001458660Y0002208661D01*
X0001458812Y0002210197D01*
X0001459260Y0002211674D01*
X0001459988Y0002213035D01*
X0001460967Y0002214229D01*
X0001462160Y0002215208D01*
X0001463522Y0002215936D01*
X0001464998Y0002216384D01*
X0001466535Y0002216535D01*
X0001486220Y0002216535D01*
X0001486461Y0002216511D01*
X0001487186Y0002216511D01*
X0001487958Y0002216473D01*
X0001489879Y0002216284D01*
X0001490644Y0002216171D01*
X0001492539Y0002215794D01*
X0001493289Y0002215606D01*
X0001495136Y0002215045D01*
X0001495865Y0002214785D01*
X0001497650Y0002214046D01*
X0001498348Y0002213715D01*
X0001500052Y0002212804D01*
X0001500715Y0002212407D01*
X0001502321Y0002211334D01*
X0001502940Y0002210874D01*
X0001504435Y0002209648D01*
X0001505007Y0002209129D01*
X0001506371Y0002207763D01*
X0001506892Y0002207191D01*
X0001508118Y0002205698D01*
X0001508578Y0002205077D01*
X0001509650Y0002203470D01*
X0001510049Y0002202808D01*
X0001510959Y0002201104D01*
X0001511290Y0002200406D01*
X0001512029Y0002198621D01*
X0001512289Y0002197893D01*
X0001512850Y0002196045D01*
X0001513038Y0002195295D01*
X0001513415Y0002193400D01*
X0001513528Y0002192636D01*
X0001513717Y0002190714D01*
X0001513755Y0002189942D01*
X0001513755Y0002189216D01*
X0001513779Y0002188976D01*
X0001513779Y0002169291D01*
X0001513755Y0002169050D01*
X0001513755Y0002168325D01*
X0001513717Y0002167553D01*
X0001513528Y0002165631D01*
X0001513415Y0002164866D01*
X0001513038Y0002162972D01*
X0001512850Y0002162222D01*
X0001512289Y0002160373D01*
X0001512029Y0002159646D01*
X0001511290Y0002157861D01*
X0001510959Y0002157162D01*
X0001510049Y0002155459D01*
X0001509650Y0002154796D01*
X0001508578Y0002153190D01*
X0001508118Y0002152569D01*
X0001506892Y0002151076D01*
X0001506371Y0002150503D01*
X0001505007Y0002149137D01*
X0001504435Y0002148619D01*
X0001502940Y0002147393D01*
X0001502321Y0002146933D01*
X0001500715Y0002145859D01*
X0001500052Y0002145462D01*
X0001498348Y0002144552D01*
X0001497650Y0002144221D01*
X0001495865Y0002143482D01*
X0001495136Y0002143222D01*
X0001493289Y0002142661D01*
X0001492539Y0002142473D01*
X0001490644Y0002142096D01*
X0001489879Y0002141983D01*
X0001487958Y0002141793D01*
X0001487186Y0002141755D01*
X0001486461Y0002141755D01*
X0001486220Y0002141732D01*
X0001466535Y0002141732D01*
X0001464998Y0002141883D01*
X0001464998Y0002141883D01*
G37*
D110*
X0001640098Y0001941673D03*
X0001640098Y0002041672D03*
X0001640098Y0002141673D03*
D115*
X0001638187Y0002390472D03*
X0001559448Y0002390472D03*
X0001480708Y0002390472D03*
X0001401968Y0002390472D03*
X0001323228Y0002390472D03*
X0001244488Y0002390472D03*
X0001165748Y0002390472D03*
X0001087007Y0002390472D03*
X0001323228Y0003138503D03*
X0001401968Y0003138503D03*
X0001244488Y0003138503D03*
D116*
X0001273622Y0001998425D03*
X0001198818Y0001998425D03*
X0001198818Y0001895275D03*
X0001236220Y0001895275D03*
X0001273622Y0001895275D03*
D117*
X0000961042Y0002699173D03*
X0000961042Y0002899173D03*
X0000961042Y0003099173D03*
X0000960098Y0002799172D03*
X0000960098Y0002999173D03*
D118*
X0001617598Y0003199173D03*
X0000982598Y0001764173D03*
D119*
X0000977598Y0003211673D03*
G04 next file*
D130*
X-0004881889Y0006614173D02*
X0001862204Y0001941731D03*
X0001862204Y0002041732D03*
X0001862204Y0002141732D03*
D131*
G36*
X0002386392Y0002105030D02*
G01*
X0002388153Y0002104769D01*
X0002389880Y0002104336D01*
X0002391556Y0002103737D01*
X0002393166Y0002102975D01*
X0002394693Y0002102060D01*
X0002396123Y0002101000D01*
X0002397442Y0002099804D01*
X0002398637Y0002098485D01*
X0002399698Y0002097055D01*
X0002400613Y0002095527D01*
X0002401374Y0002093918D01*
X0002401974Y0002092242D01*
X0002402407Y0002090515D01*
X0002402668Y0002088754D01*
X0002402755Y0002086976D01*
X0002402755Y0002028770D01*
X0002402668Y0002026993D01*
X0002402407Y0002025232D01*
X0002401974Y0002023505D01*
X0002401374Y0002021828D01*
X0002400613Y0002020219D01*
X0002399698Y0002018692D01*
X0002398637Y0002017262D01*
X0002397442Y0002015943D01*
X0002396123Y0002014746D01*
X0002394693Y0002013687D01*
X0002393166Y0002012772D01*
X0002391556Y0002012010D01*
X0002389880Y0002011410D01*
X0002388153Y0002010978D01*
X0002386392Y0002010717D01*
X0002384614Y0002010629D01*
X0002271291Y0002010629D01*
X0002269513Y0002010717D01*
X0002267752Y0002010978D01*
X0002266025Y0002011410D01*
X0002264348Y0002012010D01*
X0002262739Y0002012772D01*
X0002261212Y0002013687D01*
X0002259782Y0002014746D01*
X0002258463Y0002015943D01*
X0002257267Y0002017262D01*
X0002256207Y0002018692D01*
X0002255291Y0002020219D01*
X0002254530Y0002021828D01*
X0002253930Y0002023505D01*
X0002253498Y0002025232D01*
X0002253236Y0002026993D01*
X0002253149Y0002028770D01*
X0002253149Y0002086976D01*
X0002253236Y0002088754D01*
X0002253498Y0002090515D01*
X0002253930Y0002092242D01*
X0002254530Y0002093918D01*
X0002255291Y0002095527D01*
X0002256207Y0002097055D01*
X0002257267Y0002098485D01*
X0002258463Y0002099804D01*
X0002259782Y0002101000D01*
X0002261212Y0002102060D01*
X0002262739Y0002102975D01*
X0002264348Y0002103737D01*
X0002266025Y0002104336D01*
X0002267752Y0002104769D01*
X0002269513Y0002105030D01*
X0002271291Y0002105118D01*
X0002384614Y0002105118D01*
X0002386392Y0002105030D01*
X0002386392Y0002105030D01*
G37*
D132*
X0002327952Y0002057872D03*
D131*
G36*
X0002386392Y0001919991D02*
G01*
X0002388153Y0001919729D01*
X0002389880Y0001919297D01*
X0002391556Y0001918697D01*
X0002393166Y0001917936D01*
X0002394693Y0001917021D01*
X0002396123Y0001915960D01*
X0002397442Y0001914765D01*
X0002398637Y0001913445D01*
X0002399698Y0001912016D01*
X0002400613Y0001910488D01*
X0002401374Y0001908879D01*
X0002401974Y0001907203D01*
X0002402407Y0001905476D01*
X0002402668Y0001903715D01*
X0002402755Y0001901937D01*
X0002402755Y0001843732D01*
X0002402668Y0001841954D01*
X0002402407Y0001840191D01*
X0002401974Y0001838465D01*
X0002401374Y0001836789D01*
X0002400613Y0001835180D01*
X0002399698Y0001833653D01*
X0002398637Y0001832221D01*
X0002397442Y0001830904D01*
X0002396123Y0001829708D01*
X0002394693Y0001828647D01*
X0002393166Y0001827732D01*
X0002391556Y0001826971D01*
X0002389880Y0001826371D01*
X0002388153Y0001825939D01*
X0002386392Y0001825677D01*
X0002384614Y0001825590D01*
X0002271291Y0001825590D01*
X0002269513Y0001825677D01*
X0002267752Y0001825939D01*
X0002266025Y0001826371D01*
X0002264348Y0001826971D01*
X0002262739Y0001827732D01*
X0002261212Y0001828647D01*
X0002259782Y0001829708D01*
X0002258463Y0001830904D01*
X0002257267Y0001832221D01*
X0002256207Y0001833653D01*
X0002255291Y0001835180D01*
X0002254530Y0001836789D01*
X0002253930Y0001838465D01*
X0002253498Y0001840191D01*
X0002253236Y0001841954D01*
X0002253149Y0001843732D01*
X0002253149Y0001901937D01*
X0002253236Y0001903715D01*
X0002253498Y0001905476D01*
X0002253930Y0001907203D01*
X0002254530Y0001908879D01*
X0002255291Y0001910488D01*
X0002256207Y0001912016D01*
X0002257267Y0001913445D01*
X0002258463Y0001914765D01*
X0002259782Y0001915960D01*
X0002261212Y0001917021D01*
X0002262739Y0001917936D01*
X0002264348Y0001918697D01*
X0002266025Y0001919297D01*
X0002267752Y0001919729D01*
X0002269513Y0001919991D01*
X0002271291Y0001920078D01*
X0002384614Y0001920078D01*
X0002386392Y0001919991D01*
X0002386392Y0001919991D01*
G37*
D132*
X0002327952Y0001872834D03*
D131*
G36*
X0002117955Y0001846391D02*
G01*
X0002119243Y0001846201D01*
X0002120506Y0001845885D01*
X0002121731Y0001845446D01*
X0002122908Y0001844890D01*
X0002124025Y0001844220D01*
X0002125071Y0001843445D01*
X0002126035Y0001842571D01*
X0002126910Y0001841606D01*
X0002127685Y0001840560D01*
X0002128354Y0001839444D01*
X0002128911Y0001838267D01*
X0002129350Y0001837041D01*
X0002129666Y0001835778D01*
X0002129857Y0001834490D01*
X0002129921Y0001833190D01*
X0002129921Y0001788856D01*
X0002129857Y0001787556D01*
X0002129666Y0001786267D01*
X0002129350Y0001785005D01*
X0002128911Y0001783779D01*
X0002128354Y0001782602D01*
X0002127685Y0001781486D01*
X0002126910Y0001780438D01*
X0002126035Y0001779476D01*
X0002125071Y0001778601D01*
X0002124025Y0001777826D01*
X0002122908Y0001777156D01*
X0002121731Y0001776600D01*
X0002120506Y0001776160D01*
X0002119243Y0001775845D01*
X0002117955Y0001775654D01*
X0002116655Y0001775589D01*
X0002082163Y0001775589D01*
X0002080863Y0001775654D01*
X0002079575Y0001775845D01*
X0002078312Y0001776160D01*
X0002077086Y0001776600D01*
X0002075910Y0001777156D01*
X0002074793Y0001777826D01*
X0002073747Y0001778601D01*
X0002072782Y0001779476D01*
X0002071908Y0001780438D01*
X0002071133Y0001781486D01*
X0002070463Y0001782602D01*
X0002069907Y0001783779D01*
X0002069468Y0001785005D01*
X0002069151Y0001786267D01*
X0002068960Y0001787556D01*
X0002068897Y0001788856D01*
X0002068897Y0001833190D01*
X0002068960Y0001834490D01*
X0002069151Y0001835778D01*
X0002069468Y0001837041D01*
X0002069907Y0001838267D01*
X0002070463Y0001839444D01*
X0002071133Y0001840560D01*
X0002071908Y0001841606D01*
X0002072782Y0001842571D01*
X0002073747Y0001843445D01*
X0002074793Y0001844220D01*
X0002075910Y0001844890D01*
X0002077086Y0001845446D01*
X0002078312Y0001845885D01*
X0002079575Y0001846201D01*
X0002080863Y0001846391D01*
X0002082163Y0001846456D01*
X0002116655Y0001846456D01*
X0002117955Y0001846391D01*
X0002117955Y0001846391D01*
G37*
D133*
X0002099409Y0001811023D03*
D131*
G36*
X0002198664Y0001846391D02*
G01*
X0002199952Y0001846201D01*
X0002201214Y0001845885D01*
X0002202440Y0001845446D01*
X0002203617Y0001844890D01*
X0002204734Y0001844220D01*
X0002205779Y0001843445D01*
X0002206744Y0001842571D01*
X0002207618Y0001841606D01*
X0002208394Y0001840560D01*
X0002209063Y0001839444D01*
X0002209620Y0001838267D01*
X0002210058Y0001837041D01*
X0002210375Y0001835778D01*
X0002210566Y0001834490D01*
X0002210629Y0001833190D01*
X0002210629Y0001788856D01*
X0002210566Y0001787556D01*
X0002210375Y0001786267D01*
X0002210058Y0001785005D01*
X0002209620Y0001783779D01*
X0002209063Y0001782602D01*
X0002208394Y0001781486D01*
X0002207618Y0001780438D01*
X0002206744Y0001779476D01*
X0002205779Y0001778601D01*
X0002204734Y0001777826D01*
X0002203617Y0001777156D01*
X0002202440Y0001776600D01*
X0002201214Y0001776160D01*
X0002199952Y0001775845D01*
X0002198664Y0001775654D01*
X0002197363Y0001775589D01*
X0002162872Y0001775589D01*
X0002161572Y0001775654D01*
X0002160284Y0001775845D01*
X0002159021Y0001776160D01*
X0002157795Y0001776600D01*
X0002156618Y0001777156D01*
X0002155502Y0001777826D01*
X0002154456Y0001778601D01*
X0002153491Y0001779476D01*
X0002152617Y0001780438D01*
X0002151842Y0001781486D01*
X0002151172Y0001782602D01*
X0002150616Y0001783779D01*
X0002150177Y0001785005D01*
X0002149861Y0001786267D01*
X0002149670Y0001787556D01*
X0002149606Y0001788856D01*
X0002149606Y0001833190D01*
X0002149670Y0001834490D01*
X0002149861Y0001835778D01*
X0002150177Y0001837041D01*
X0002150616Y0001838267D01*
X0002151172Y0001839444D01*
X0002151842Y0001840560D01*
X0002152617Y0001841606D01*
X0002153491Y0001842571D01*
X0002154456Y0001843445D01*
X0002155502Y0001844220D01*
X0002156618Y0001844890D01*
X0002157795Y0001845446D01*
X0002159021Y0001845885D01*
X0002160284Y0001846201D01*
X0002161572Y0001846391D01*
X0002162872Y0001846456D01*
X0002197363Y0001846456D01*
X0002198664Y0001846391D01*
X0002198664Y0001846391D01*
G37*
D133*
X0002180118Y0001811023D03*
D131*
G36*
X0002084490Y0002114109D02*
G01*
X0002085778Y0002113918D01*
X0002087041Y0002113602D01*
X0002088267Y0002113163D01*
X0002089443Y0002112606D01*
X0002090560Y0002111937D01*
X0002091606Y0002111162D01*
X0002092571Y0002110287D01*
X0002093445Y0002109323D01*
X0002094220Y0002108277D01*
X0002094890Y0002107160D01*
X0002095446Y0002105983D01*
X0002095885Y0002104758D01*
X0002096201Y0002103495D01*
X0002096391Y0002102207D01*
X0002096455Y0002100907D01*
X0002096455Y0002056573D01*
X0002096391Y0002055272D01*
X0002096201Y0002053983D01*
X0002095885Y0002052722D01*
X0002095446Y0002051496D01*
X0002094890Y0002050319D01*
X0002094220Y0002049202D01*
X0002093445Y0002048156D01*
X0002092571Y0002047192D01*
X0002091606Y0002046317D01*
X0002090560Y0002045542D01*
X0002089443Y0002044873D01*
X0002088267Y0002044315D01*
X0002087041Y0002043877D01*
X0002085778Y0002043562D01*
X0002084490Y0002043370D01*
X0002083190Y0002043307D01*
X0002048699Y0002043307D01*
X0002047397Y0002043370D01*
X0002046110Y0002043562D01*
X0002044848Y0002043877D01*
X0002043622Y0002044315D01*
X0002042444Y0002044873D01*
X0002041328Y0002045542D01*
X0002040283Y0002046317D01*
X0002039318Y0002047192D01*
X0002038444Y0002048156D01*
X0002037668Y0002049202D01*
X0002036998Y0002050319D01*
X0002036442Y0002051496D01*
X0002036004Y0002052722D01*
X0002035686Y0002053983D01*
X0002035496Y0002055272D01*
X0002035432Y0002056573D01*
X0002035432Y0002100907D01*
X0002035496Y0002102207D01*
X0002035686Y0002103495D01*
X0002036004Y0002104758D01*
X0002036442Y0002105983D01*
X0002036998Y0002107160D01*
X0002037668Y0002108277D01*
X0002038444Y0002109323D01*
X0002039318Y0002110287D01*
X0002040283Y0002111162D01*
X0002041328Y0002111937D01*
X0002042444Y0002112606D01*
X0002043622Y0002113163D01*
X0002044848Y0002113602D01*
X0002046110Y0002113918D01*
X0002047397Y0002114109D01*
X0002048699Y0002114173D01*
X0002083190Y0002114173D01*
X0002084490Y0002114109D01*
X0002084490Y0002114109D01*
G37*
D133*
X0002065944Y0002078739D03*
D131*
G36*
X0002165199Y0002114109D02*
G01*
X0002166487Y0002113918D01*
X0002167750Y0002113602D01*
X0002168976Y0002113163D01*
X0002170152Y0002112606D01*
X0002171269Y0002111937D01*
X0002172315Y0002111162D01*
X0002173279Y0002110287D01*
X0002174154Y0002109323D01*
X0002174929Y0002108277D01*
X0002175598Y0002107160D01*
X0002176155Y0002105983D01*
X0002176594Y0002104758D01*
X0002176910Y0002103495D01*
X0002177101Y0002102207D01*
X0002177165Y0002100907D01*
X0002177165Y0002056573D01*
X0002177101Y0002055272D01*
X0002176910Y0002053983D01*
X0002176594Y0002052722D01*
X0002176155Y0002051496D01*
X0002175598Y0002050319D01*
X0002174929Y0002049202D01*
X0002174154Y0002048156D01*
X0002173279Y0002047192D01*
X0002172315Y0002046317D01*
X0002171269Y0002045542D01*
X0002170152Y0002044873D01*
X0002168976Y0002044315D01*
X0002167750Y0002043877D01*
X0002166487Y0002043562D01*
X0002165199Y0002043370D01*
X0002163899Y0002043307D01*
X0002129407Y0002043307D01*
X0002128107Y0002043370D01*
X0002126819Y0002043562D01*
X0002125556Y0002043877D01*
X0002124331Y0002044315D01*
X0002123154Y0002044873D01*
X0002122037Y0002045542D01*
X0002120991Y0002046317D01*
X0002120027Y0002047192D01*
X0002119152Y0002048156D01*
X0002118377Y0002049202D01*
X0002117708Y0002050319D01*
X0002117151Y0002051496D01*
X0002116712Y0002052722D01*
X0002116396Y0002053983D01*
X0002116205Y0002055272D01*
X0002116141Y0002056573D01*
X0002116141Y0002100907D01*
X0002116205Y0002102207D01*
X0002116396Y0002103495D01*
X0002116712Y0002104758D01*
X0002117151Y0002105983D01*
X0002117708Y0002107160D01*
X0002118377Y0002108277D01*
X0002119152Y0002109323D01*
X0002120027Y0002110287D01*
X0002120991Y0002111162D01*
X0002122037Y0002111937D01*
X0002123154Y0002112606D01*
X0002124331Y0002113163D01*
X0002125556Y0002113602D01*
X0002126819Y0002113918D01*
X0002128107Y0002114109D01*
X0002129407Y0002114173D01*
X0002163899Y0002114173D01*
X0002165199Y0002114109D01*
X0002165199Y0002114109D01*
G37*
D133*
X0002146653Y0002078739D03*
D131*
G36*
X0002481144Y0002320802D02*
G01*
X0002482432Y0002320611D01*
X0002483695Y0002320294D01*
X0002484920Y0002319856D01*
X0002486097Y0002319299D01*
X0002487214Y0002318630D01*
X0002488260Y0002317854D01*
X0002489224Y0002316980D01*
X0002490099Y0002316016D01*
X0002490874Y0002314970D01*
X0002491543Y0002313853D01*
X0002492100Y0002312676D01*
X0002492539Y0002311451D01*
X0002492855Y0002310188D01*
X0002493046Y0002308900D01*
X0002493110Y0002307600D01*
X0002493110Y0002263265D01*
X0002493046Y0002261965D01*
X0002492855Y0002260677D01*
X0002492539Y0002259415D01*
X0002492100Y0002258189D01*
X0002491543Y0002257012D01*
X0002490874Y0002255895D01*
X0002490099Y0002254850D01*
X0002489224Y0002253885D01*
X0002488260Y0002253011D01*
X0002487214Y0002252235D01*
X0002486097Y0002251566D01*
X0002484920Y0002251009D01*
X0002483695Y0002250571D01*
X0002482432Y0002250254D01*
X0002481144Y0002250063D01*
X0002479844Y0002250000D01*
X0002445352Y0002250000D01*
X0002444052Y0002250063D01*
X0002442764Y0002250254D01*
X0002441501Y0002250571D01*
X0002440275Y0002251009D01*
X0002439099Y0002251566D01*
X0002437982Y0002252235D01*
X0002436936Y0002253011D01*
X0002435972Y0002253885D01*
X0002435097Y0002254850D01*
X0002434322Y0002255895D01*
X0002433652Y0002257012D01*
X0002433096Y0002258189D01*
X0002432657Y0002259415D01*
X0002432341Y0002260677D01*
X0002432150Y0002261965D01*
X0002432086Y0002263265D01*
X0002432086Y0002307600D01*
X0002432150Y0002308900D01*
X0002432341Y0002310188D01*
X0002432657Y0002311451D01*
X0002433096Y0002312676D01*
X0002433652Y0002313853D01*
X0002434322Y0002314970D01*
X0002435097Y0002316016D01*
X0002435972Y0002316980D01*
X0002436936Y0002317854D01*
X0002437982Y0002318630D01*
X0002439099Y0002319299D01*
X0002440275Y0002319856D01*
X0002441501Y0002320294D01*
X0002442764Y0002320611D01*
X0002444052Y0002320802D01*
X0002445352Y0002320866D01*
X0002479844Y0002320866D01*
X0002481144Y0002320802D01*
X0002481144Y0002320802D01*
G37*
D133*
X0002462598Y0002285433D03*
D131*
G36*
X0002561853Y0002320802D02*
G01*
X0002563140Y0002320611D01*
X0002564403Y0002320294D01*
X0002565629Y0002319856D01*
X0002566806Y0002319299D01*
X0002567923Y0002318630D01*
X0002568968Y0002317854D01*
X0002569932Y0002316980D01*
X0002570807Y0002316016D01*
X0002571583Y0002314970D01*
X0002572251Y0002313853D01*
X0002572809Y0002312676D01*
X0002573247Y0002311451D01*
X0002573563Y0002310188D01*
X0002573755Y0002308900D01*
X0002573818Y0002307600D01*
X0002573818Y0002263265D01*
X0002573755Y0002261965D01*
X0002573563Y0002260677D01*
X0002573247Y0002259415D01*
X0002572809Y0002258189D01*
X0002572251Y0002257012D01*
X0002571583Y0002255895D01*
X0002570807Y0002254850D01*
X0002569932Y0002253885D01*
X0002568968Y0002253011D01*
X0002567923Y0002252235D01*
X0002566806Y0002251566D01*
X0002565629Y0002251009D01*
X0002564403Y0002250571D01*
X0002563140Y0002250254D01*
X0002561853Y0002250063D01*
X0002560552Y0002250000D01*
X0002526061Y0002250000D01*
X0002524760Y0002250063D01*
X0002523472Y0002250254D01*
X0002522210Y0002250571D01*
X0002520984Y0002251009D01*
X0002519807Y0002251566D01*
X0002518691Y0002252235D01*
X0002517645Y0002253011D01*
X0002516680Y0002253885D01*
X0002515806Y0002254850D01*
X0002515030Y0002255895D01*
X0002514361Y0002257012D01*
X0002513805Y0002258189D01*
X0002513366Y0002259415D01*
X0002513050Y0002260677D01*
X0002512859Y0002261965D01*
X0002512795Y0002263265D01*
X0002512795Y0002307600D01*
X0002512859Y0002308900D01*
X0002513050Y0002310188D01*
X0002513366Y0002311451D01*
X0002513805Y0002312676D01*
X0002514361Y0002313853D01*
X0002515030Y0002314970D01*
X0002515806Y0002316016D01*
X0002516680Y0002316980D01*
X0002517645Y0002317854D01*
X0002518691Y0002318630D01*
X0002519807Y0002319299D01*
X0002520984Y0002319856D01*
X0002522210Y0002320294D01*
X0002523472Y0002320611D01*
X0002524760Y0002320802D01*
X0002526061Y0002320866D01*
X0002560552Y0002320866D01*
X0002561853Y0002320802D01*
X0002561853Y0002320802D01*
G37*
D133*
X0002543307Y0002285433D03*
D134*
X0002340551Y0002179133D03*
D131*
G36*
X0002340310Y0002141755D02*
G01*
X0002339585Y0002141755D01*
X0002338813Y0002141793D01*
X0002336890Y0002141983D01*
X0002336126Y0002142096D01*
X0002334232Y0002142473D01*
X0002333482Y0002142661D01*
X0002331633Y0002143222D01*
X0002330906Y0002143482D01*
X0002329121Y0002144221D01*
X0002328422Y0002144552D01*
X0002326719Y0002145462D01*
X0002326056Y0002145859D01*
X0002324450Y0002146933D01*
X0002323829Y0002147393D01*
X0002322336Y0002148619D01*
X0002321763Y0002149137D01*
X0002320397Y0002150503D01*
X0002319878Y0002151076D01*
X0002318653Y0002152569D01*
X0002318192Y0002153190D01*
X0002317119Y0002154796D01*
X0002316722Y0002155459D01*
X0002315811Y0002157162D01*
X0002315481Y0002157861D01*
X0002314742Y0002159646D01*
X0002314481Y0002160373D01*
X0002313921Y0002162222D01*
X0002313733Y0002162972D01*
X0002313356Y0002164866D01*
X0002313243Y0002165631D01*
X0002313053Y0002167553D01*
X0002313015Y0002168325D01*
X0002313015Y0002169050D01*
X0002312992Y0002169291D01*
X0002312992Y0002188976D01*
X0002313015Y0002189216D01*
X0002313015Y0002189942D01*
X0002313053Y0002190714D01*
X0002313243Y0002192636D01*
X0002313356Y0002193400D01*
X0002313733Y0002195295D01*
X0002313921Y0002196045D01*
X0002314481Y0002197893D01*
X0002314742Y0002198621D01*
X0002315481Y0002200406D01*
X0002315811Y0002201104D01*
X0002316722Y0002202808D01*
X0002317119Y0002203470D01*
X0002318192Y0002205077D01*
X0002318653Y0002205698D01*
X0002319878Y0002207191D01*
X0002320397Y0002207763D01*
X0002321763Y0002209129D01*
X0002322336Y0002209648D01*
X0002323829Y0002210874D01*
X0002324450Y0002211334D01*
X0002326056Y0002212407D01*
X0002326719Y0002212804D01*
X0002328422Y0002213715D01*
X0002329121Y0002214046D01*
X0002330906Y0002214785D01*
X0002331633Y0002215045D01*
X0002333482Y0002215606D01*
X0002334232Y0002215794D01*
X0002336126Y0002216171D01*
X0002336890Y0002216284D01*
X0002338813Y0002216473D01*
X0002339585Y0002216511D01*
X0002340310Y0002216511D01*
X0002340551Y0002216535D01*
X0002360236Y0002216535D01*
X0002361772Y0002216384D01*
X0002363249Y0002215936D01*
X0002364610Y0002215208D01*
X0002365803Y0002214229D01*
X0002366783Y0002213035D01*
X0002367510Y0002211674D01*
X0002367958Y0002210197D01*
X0002368110Y0002208661D01*
X0002368110Y0002149606D01*
X0002367958Y0002148070D01*
X0002367510Y0002146593D01*
X0002366783Y0002145231D01*
X0002365803Y0002144038D01*
X0002364610Y0002143059D01*
X0002363249Y0002142331D01*
X0002361772Y0002141883D01*
X0002360236Y0002141732D01*
X0002340551Y0002141732D01*
X0002340310Y0002141755D01*
X0002340310Y0002141755D01*
G37*
D134*
X0002391732Y0002179133D03*
D131*
G36*
X0002370511Y0002141883D02*
G01*
X0002369033Y0002142331D01*
X0002367672Y0002143059D01*
X0002366479Y0002144038D01*
X0002365500Y0002145231D01*
X0002364772Y0002146593D01*
X0002364324Y0002148070D01*
X0002364173Y0002149606D01*
X0002364173Y0002208661D01*
X0002364324Y0002210197D01*
X0002364772Y0002211674D01*
X0002365500Y0002213035D01*
X0002366479Y0002214229D01*
X0002367672Y0002215208D01*
X0002369033Y0002215936D01*
X0002370511Y0002216384D01*
X0002372047Y0002216535D01*
X0002391732Y0002216535D01*
X0002391972Y0002216511D01*
X0002392698Y0002216511D01*
X0002393470Y0002216473D01*
X0002395392Y0002216284D01*
X0002396156Y0002216171D01*
X0002398051Y0002215794D01*
X0002398801Y0002215606D01*
X0002400649Y0002215045D01*
X0002401377Y0002214785D01*
X0002403161Y0002214046D01*
X0002403860Y0002213715D01*
X0002405564Y0002212804D01*
X0002406226Y0002212407D01*
X0002407833Y0002211334D01*
X0002408453Y0002210874D01*
X0002409947Y0002209648D01*
X0002410519Y0002209129D01*
X0002411885Y0002207763D01*
X0002412404Y0002207191D01*
X0002413630Y0002205698D01*
X0002414090Y0002205077D01*
X0002415163Y0002203470D01*
X0002415560Y0002202808D01*
X0002416471Y0002201104D01*
X0002416802Y0002200406D01*
X0002417541Y0002198621D01*
X0002417801Y0002197893D01*
X0002418362Y0002196045D01*
X0002418550Y0002195295D01*
X0002418926Y0002193400D01*
X0002419040Y0002192636D01*
X0002419229Y0002190714D01*
X0002419267Y0002189942D01*
X0002419267Y0002189216D01*
X0002419291Y0002188976D01*
X0002419291Y0002169291D01*
X0002419267Y0002169050D01*
X0002419267Y0002168325D01*
X0002419229Y0002167553D01*
X0002419040Y0002165631D01*
X0002418926Y0002164866D01*
X0002418550Y0002162972D01*
X0002418362Y0002162222D01*
X0002417801Y0002160373D01*
X0002417541Y0002159646D01*
X0002416802Y0002157861D01*
X0002416471Y0002157162D01*
X0002415560Y0002155459D01*
X0002415163Y0002154796D01*
X0002414090Y0002153190D01*
X0002413630Y0002152569D01*
X0002412404Y0002151076D01*
X0002411885Y0002150503D01*
X0002410519Y0002149137D01*
X0002409947Y0002148619D01*
X0002408453Y0002147393D01*
X0002407833Y0002146933D01*
X0002406226Y0002145859D01*
X0002405564Y0002145462D01*
X0002403860Y0002144552D01*
X0002403161Y0002144221D01*
X0002401377Y0002143482D01*
X0002400649Y0002143222D01*
X0002398801Y0002142661D01*
X0002398051Y0002142473D01*
X0002396156Y0002142096D01*
X0002395392Y0002141983D01*
X0002393470Y0002141793D01*
X0002392698Y0002141755D01*
X0002391972Y0002141755D01*
X0002391732Y0002141732D01*
X0002372047Y0002141732D01*
X0002370511Y0002141883D01*
X0002370511Y0002141883D01*
G37*
D130*
X0002545610Y0001941673D03*
X0002545610Y0002041672D03*
X0002545610Y0002141673D03*
D135*
X0002543700Y0002390472D03*
X0002464960Y0002390472D03*
X0002386220Y0002390472D03*
X0002307480Y0002390472D03*
X0002228740Y0002390472D03*
X0002150000Y0002390472D03*
X0002071259Y0002390472D03*
X0001992519Y0002390472D03*
X0002228740Y0003138503D03*
X0002307480Y0003138503D03*
X0002150000Y0003138503D03*
D136*
X0002179133Y0001998425D03*
X0002104330Y0001998425D03*
X0002104330Y0001895275D03*
X0002141732Y0001895275D03*
X0002179133Y0001895275D03*
D137*
X0001866555Y0002699173D03*
X0001866555Y0002899173D03*
X0001866555Y0003099173D03*
X0001865610Y0002799172D03*
X0001865610Y0002999173D03*
D138*
X0002523110Y0003199173D03*
X0001888110Y0001764173D03*
D139*
X0001883110Y0003211673D03*
G04 next file*
G04 #@! TF.GenerationSoftware,KiCad,Pcbnew,(5.1.4)-1*
G04 #@! TF.CreationDate,2019-12-09T09:49:54+01:00*
G04 #@! TF.ProjectId,HM-LC-SW1-BA-PCB_mini_MAX1724,484d2d4c-432d-4535-9731-2d42412d5043,rev?*
G04 #@! TF.SameCoordinates,Original*
G04 #@! TF.FileFunction,Soldermask,Bot*
G04 #@! TF.FilePolarity,Negative*
G04 Gerber Fmt 4.6, Leading zero omitted, Abs format (unit mm)*
G04 Created by KiCad (PCBNEW (5.1.4)-1) date 2019-12-09 09:49:54*
G04 APERTURE LIST*
G04 APERTURE END LIST*
D150*
X-0003976377Y0006614173D02*
X0002767716Y0001941731D03*
X0002767716Y0002041732D03*
X0002767716Y0002141732D03*
D151*
G36*
X0003291904Y0002105030D02*
G01*
X0003293665Y0002104769D01*
X0003295392Y0002104336D01*
X0003297068Y0002103737D01*
X0003298677Y0002102975D01*
X0003300205Y0002102060D01*
X0003301634Y0002101000D01*
X0003302954Y0002099804D01*
X0003304149Y0002098485D01*
X0003305210Y0002097055D01*
X0003306125Y0002095527D01*
X0003306886Y0002093918D01*
X0003307485Y0002092242D01*
X0003307918Y0002090515D01*
X0003308180Y0002088754D01*
X0003308267Y0002086976D01*
X0003308267Y0002028770D01*
X0003308180Y0002026993D01*
X0003307918Y0002025232D01*
X0003307485Y0002023505D01*
X0003306886Y0002021828D01*
X0003306125Y0002020219D01*
X0003305210Y0002018692D01*
X0003304149Y0002017262D01*
X0003302954Y0002015943D01*
X0003301634Y0002014746D01*
X0003300205Y0002013687D01*
X0003298677Y0002012772D01*
X0003297068Y0002012010D01*
X0003295392Y0002011410D01*
X0003293665Y0002010978D01*
X0003291904Y0002010717D01*
X0003290125Y0002010629D01*
X0003176803Y0002010629D01*
X0003175024Y0002010717D01*
X0003173263Y0002010978D01*
X0003171536Y0002011410D01*
X0003169860Y0002012010D01*
X0003168251Y0002012772D01*
X0003166724Y0002013687D01*
X0003165294Y0002014746D01*
X0003163975Y0002015943D01*
X0003162779Y0002017262D01*
X0003161718Y0002018692D01*
X0003160803Y0002020219D01*
X0003160042Y0002021828D01*
X0003159442Y0002023505D01*
X0003159010Y0002025232D01*
X0003158748Y0002026993D01*
X0003158661Y0002028770D01*
X0003158661Y0002086976D01*
X0003158748Y0002088754D01*
X0003159010Y0002090515D01*
X0003159442Y0002092242D01*
X0003160042Y0002093918D01*
X0003160803Y0002095527D01*
X0003161718Y0002097055D01*
X0003162779Y0002098485D01*
X0003163975Y0002099804D01*
X0003165294Y0002101000D01*
X0003166724Y0002102060D01*
X0003168251Y0002102975D01*
X0003169860Y0002103737D01*
X0003171536Y0002104336D01*
X0003173263Y0002104769D01*
X0003175024Y0002105030D01*
X0003176803Y0002105118D01*
X0003290125Y0002105118D01*
X0003291904Y0002105030D01*
X0003291904Y0002105030D01*
G37*
D152*
X0003233464Y0002057872D03*
D151*
G36*
X0003291904Y0001919991D02*
G01*
X0003293665Y0001919729D01*
X0003295392Y0001919297D01*
X0003297068Y0001918697D01*
X0003298677Y0001917936D01*
X0003300205Y0001917021D01*
X0003301634Y0001915960D01*
X0003302954Y0001914765D01*
X0003304149Y0001913445D01*
X0003305210Y0001912016D01*
X0003306125Y0001910488D01*
X0003306886Y0001908879D01*
X0003307485Y0001907203D01*
X0003307918Y0001905476D01*
X0003308180Y0001903715D01*
X0003308267Y0001901937D01*
X0003308267Y0001843732D01*
X0003308180Y0001841954D01*
X0003307918Y0001840191D01*
X0003307485Y0001838465D01*
X0003306886Y0001836789D01*
X0003306125Y0001835180D01*
X0003305210Y0001833653D01*
X0003304149Y0001832221D01*
X0003302954Y0001830904D01*
X0003301634Y0001829708D01*
X0003300205Y0001828647D01*
X0003298677Y0001827732D01*
X0003297068Y0001826971D01*
X0003295392Y0001826371D01*
X0003293665Y0001825939D01*
X0003291904Y0001825677D01*
X0003290125Y0001825590D01*
X0003176803Y0001825590D01*
X0003175024Y0001825677D01*
X0003173263Y0001825939D01*
X0003171536Y0001826371D01*
X0003169860Y0001826971D01*
X0003168251Y0001827732D01*
X0003166724Y0001828647D01*
X0003165294Y0001829708D01*
X0003163975Y0001830904D01*
X0003162779Y0001832221D01*
X0003161718Y0001833653D01*
X0003160803Y0001835180D01*
X0003160042Y0001836789D01*
X0003159442Y0001838465D01*
X0003159010Y0001840191D01*
X0003158748Y0001841954D01*
X0003158661Y0001843732D01*
X0003158661Y0001901937D01*
X0003158748Y0001903715D01*
X0003159010Y0001905476D01*
X0003159442Y0001907203D01*
X0003160042Y0001908879D01*
X0003160803Y0001910488D01*
X0003161718Y0001912016D01*
X0003162779Y0001913445D01*
X0003163975Y0001914765D01*
X0003165294Y0001915960D01*
X0003166724Y0001917021D01*
X0003168251Y0001917936D01*
X0003169860Y0001918697D01*
X0003171536Y0001919297D01*
X0003173263Y0001919729D01*
X0003175024Y0001919991D01*
X0003176803Y0001920078D01*
X0003290125Y0001920078D01*
X0003291904Y0001919991D01*
X0003291904Y0001919991D01*
G37*
D152*
X0003233464Y0001872834D03*
D151*
G36*
X0003023467Y0001846391D02*
G01*
X0003024755Y0001846201D01*
X0003026017Y0001845885D01*
X0003027243Y0001845446D01*
X0003028420Y0001844890D01*
X0003029537Y0001844220D01*
X0003030582Y0001843445D01*
X0003031547Y0001842571D01*
X0003032421Y0001841606D01*
X0003033197Y0001840560D01*
X0003033866Y0001839444D01*
X0003034423Y0001838267D01*
X0003034861Y0001837041D01*
X0003035178Y0001835778D01*
X0003035369Y0001834490D01*
X0003035433Y0001833190D01*
X0003035433Y0001788856D01*
X0003035369Y0001787556D01*
X0003035178Y0001786267D01*
X0003034861Y0001785005D01*
X0003034423Y0001783779D01*
X0003033866Y0001782602D01*
X0003033197Y0001781486D01*
X0003032421Y0001780438D01*
X0003031547Y0001779476D01*
X0003030582Y0001778601D01*
X0003029537Y0001777826D01*
X0003028420Y0001777156D01*
X0003027243Y0001776600D01*
X0003026017Y0001776160D01*
X0003024755Y0001775845D01*
X0003023467Y0001775654D01*
X0003022167Y0001775589D01*
X0002987675Y0001775589D01*
X0002986375Y0001775654D01*
X0002985086Y0001775845D01*
X0002983824Y0001776160D01*
X0002982598Y0001776600D01*
X0002981420Y0001777156D01*
X0002980305Y0001777826D01*
X0002979258Y0001778601D01*
X0002978294Y0001779476D01*
X0002977419Y0001780438D01*
X0002976645Y0001781486D01*
X0002975975Y0001782602D01*
X0002975419Y0001783779D01*
X0002974980Y0001785005D01*
X0002974664Y0001786267D01*
X0002974473Y0001787556D01*
X0002974408Y0001788856D01*
X0002974408Y0001833190D01*
X0002974473Y0001834490D01*
X0002974664Y0001835778D01*
X0002974980Y0001837041D01*
X0002975419Y0001838267D01*
X0002975975Y0001839444D01*
X0002976645Y0001840560D01*
X0002977419Y0001841606D01*
X0002978294Y0001842571D01*
X0002979258Y0001843445D01*
X0002980305Y0001844220D01*
X0002981420Y0001844890D01*
X0002982598Y0001845446D01*
X0002983824Y0001845885D01*
X0002985086Y0001846201D01*
X0002986375Y0001846391D01*
X0002987675Y0001846456D01*
X0003022167Y0001846456D01*
X0003023467Y0001846391D01*
X0003023467Y0001846391D01*
G37*
D153*
X0003004921Y0001811023D03*
D151*
G36*
X0003104176Y0001846391D02*
G01*
X0003105463Y0001846201D01*
X0003106726Y0001845885D01*
X0003107952Y0001845446D01*
X0003109129Y0001844890D01*
X0003110245Y0001844220D01*
X0003111291Y0001843445D01*
X0003112256Y0001842571D01*
X0003113130Y0001841606D01*
X0003113905Y0001840560D01*
X0003114575Y0001839444D01*
X0003115131Y0001838267D01*
X0003115570Y0001837041D01*
X0003115886Y0001835778D01*
X0003116077Y0001834490D01*
X0003116141Y0001833190D01*
X0003116141Y0001788856D01*
X0003116077Y0001787556D01*
X0003115886Y0001786267D01*
X0003115570Y0001785005D01*
X0003115131Y0001783779D01*
X0003114575Y0001782602D01*
X0003113905Y0001781486D01*
X0003113130Y0001780438D01*
X0003112256Y0001779476D01*
X0003111291Y0001778601D01*
X0003110245Y0001777826D01*
X0003109129Y0001777156D01*
X0003107952Y0001776600D01*
X0003106726Y0001776160D01*
X0003105463Y0001775845D01*
X0003104176Y0001775654D01*
X0003102875Y0001775589D01*
X0003068384Y0001775589D01*
X0003067083Y0001775654D01*
X0003065796Y0001775845D01*
X0003064533Y0001776160D01*
X0003063307Y0001776600D01*
X0003062130Y0001777156D01*
X0003061013Y0001777826D01*
X0003059968Y0001778601D01*
X0003059003Y0001779476D01*
X0003058129Y0001780438D01*
X0003057353Y0001781486D01*
X0003056684Y0001782602D01*
X0003056127Y0001783779D01*
X0003055689Y0001785005D01*
X0003055372Y0001786267D01*
X0003055181Y0001787556D01*
X0003055118Y0001788856D01*
X0003055118Y0001833190D01*
X0003055181Y0001834490D01*
X0003055372Y0001835778D01*
X0003055689Y0001837041D01*
X0003056127Y0001838267D01*
X0003056684Y0001839444D01*
X0003057353Y0001840560D01*
X0003058129Y0001841606D01*
X0003059003Y0001842571D01*
X0003059968Y0001843445D01*
X0003061013Y0001844220D01*
X0003062130Y0001844890D01*
X0003063307Y0001845446D01*
X0003064533Y0001845885D01*
X0003065796Y0001846201D01*
X0003067083Y0001846391D01*
X0003068384Y0001846456D01*
X0003102875Y0001846456D01*
X0003104176Y0001846391D01*
X0003104176Y0001846391D01*
G37*
D153*
X0003085629Y0001811023D03*
D151*
G36*
X0002990002Y0002114109D02*
G01*
X0002991290Y0002113918D01*
X0002992553Y0002113602D01*
X0002993779Y0002113163D01*
X0002994956Y0002112606D01*
X0002996072Y0002111937D01*
X0002997118Y0002111162D01*
X0002998082Y0002110287D01*
X0002998957Y0002109323D01*
X0002999732Y0002108277D01*
X0003000401Y0002107160D01*
X0003000958Y0002105983D01*
X0003001397Y0002104758D01*
X0003001713Y0002103495D01*
X0003001904Y0002102207D01*
X0003001968Y0002100907D01*
X0003001968Y0002056573D01*
X0003001904Y0002055272D01*
X0003001713Y0002053983D01*
X0003001397Y0002052722D01*
X0003000958Y0002051496D01*
X0003000401Y0002050319D01*
X0002999732Y0002049202D01*
X0002998957Y0002048156D01*
X0002998082Y0002047192D01*
X0002997118Y0002046317D01*
X0002996072Y0002045542D01*
X0002994956Y0002044873D01*
X0002993779Y0002044315D01*
X0002992553Y0002043877D01*
X0002991290Y0002043562D01*
X0002990002Y0002043370D01*
X0002988702Y0002043307D01*
X0002954210Y0002043307D01*
X0002952910Y0002043370D01*
X0002951622Y0002043562D01*
X0002950359Y0002043877D01*
X0002949134Y0002044315D01*
X0002947957Y0002044873D01*
X0002946840Y0002045542D01*
X0002945795Y0002046317D01*
X0002944830Y0002047192D01*
X0002943956Y0002048156D01*
X0002943180Y0002049202D01*
X0002942511Y0002050319D01*
X0002941954Y0002051496D01*
X0002941515Y0002052722D01*
X0002941199Y0002053983D01*
X0002941008Y0002055272D01*
X0002940944Y0002056573D01*
X0002940944Y0002100907D01*
X0002941008Y0002102207D01*
X0002941199Y0002103495D01*
X0002941515Y0002104758D01*
X0002941954Y0002105983D01*
X0002942511Y0002107160D01*
X0002943180Y0002108277D01*
X0002943956Y0002109323D01*
X0002944830Y0002110287D01*
X0002945795Y0002111162D01*
X0002946840Y0002111937D01*
X0002947957Y0002112606D01*
X0002949134Y0002113163D01*
X0002950359Y0002113602D01*
X0002951622Y0002113918D01*
X0002952910Y0002114109D01*
X0002954210Y0002114173D01*
X0002988702Y0002114173D01*
X0002990002Y0002114109D01*
X0002990002Y0002114109D01*
G37*
D153*
X0002971456Y0002078739D03*
D151*
G36*
X0003070711Y0002114109D02*
G01*
X0003071999Y0002113918D01*
X0003073262Y0002113602D01*
X0003074487Y0002113163D01*
X0003075664Y0002112606D01*
X0003076781Y0002111937D01*
X0003077827Y0002111162D01*
X0003078791Y0002110287D01*
X0003079665Y0002109323D01*
X0003080440Y0002108277D01*
X0003081109Y0002107160D01*
X0003081666Y0002105983D01*
X0003082105Y0002104758D01*
X0003082422Y0002103495D01*
X0003082613Y0002102207D01*
X0003082677Y0002100907D01*
X0003082677Y0002056573D01*
X0003082613Y0002055272D01*
X0003082422Y0002053983D01*
X0003082105Y0002052722D01*
X0003081666Y0002051496D01*
X0003081109Y0002050319D01*
X0003080440Y0002049202D01*
X0003079665Y0002048156D01*
X0003078791Y0002047192D01*
X0003077827Y0002046317D01*
X0003076781Y0002045542D01*
X0003075664Y0002044873D01*
X0003074487Y0002044315D01*
X0003073262Y0002043877D01*
X0003071999Y0002043562D01*
X0003070711Y0002043370D01*
X0003069411Y0002043307D01*
X0003034919Y0002043307D01*
X0003033619Y0002043370D01*
X0003032331Y0002043562D01*
X0003031068Y0002043877D01*
X0003029842Y0002044315D01*
X0003028665Y0002044873D01*
X0003027548Y0002045542D01*
X0003026503Y0002046317D01*
X0003025539Y0002047192D01*
X0003024664Y0002048156D01*
X0003023889Y0002049202D01*
X0003023219Y0002050319D01*
X0003022663Y0002051496D01*
X0003022223Y0002052722D01*
X0003021907Y0002053983D01*
X0003021717Y0002055272D01*
X0003021653Y0002056573D01*
X0003021653Y0002100907D01*
X0003021717Y0002102207D01*
X0003021907Y0002103495D01*
X0003022223Y0002104758D01*
X0003022663Y0002105983D01*
X0003023219Y0002107160D01*
X0003023889Y0002108277D01*
X0003024664Y0002109323D01*
X0003025539Y0002110287D01*
X0003026503Y0002111162D01*
X0003027548Y0002111937D01*
X0003028665Y0002112606D01*
X0003029842Y0002113163D01*
X0003031068Y0002113602D01*
X0003032331Y0002113918D01*
X0003033619Y0002114109D01*
X0003034919Y0002114173D01*
X0003069411Y0002114173D01*
X0003070711Y0002114109D01*
X0003070711Y0002114109D01*
G37*
D153*
X0003052165Y0002078739D03*
D151*
G36*
X0003386656Y0002320802D02*
G01*
X0003387944Y0002320611D01*
X0003389206Y0002320294D01*
X0003390432Y0002319856D01*
X0003391609Y0002319299D01*
X0003392725Y0002318630D01*
X0003393771Y0002317854D01*
X0003394736Y0002316980D01*
X0003395610Y0002316016D01*
X0003396386Y0002314970D01*
X0003397055Y0002313853D01*
X0003397612Y0002312676D01*
X0003398050Y0002311451D01*
X0003398367Y0002310188D01*
X0003398558Y0002308900D01*
X0003398622Y0002307600D01*
X0003398622Y0002263265D01*
X0003398558Y0002261965D01*
X0003398367Y0002260677D01*
X0003398050Y0002259415D01*
X0003397612Y0002258189D01*
X0003397055Y0002257012D01*
X0003396386Y0002255895D01*
X0003395610Y0002254850D01*
X0003394736Y0002253885D01*
X0003393771Y0002253011D01*
X0003392725Y0002252235D01*
X0003391609Y0002251566D01*
X0003390432Y0002251009D01*
X0003389206Y0002250571D01*
X0003387944Y0002250254D01*
X0003386656Y0002250063D01*
X0003385355Y0002250000D01*
X0003350864Y0002250000D01*
X0003349564Y0002250063D01*
X0003348276Y0002250254D01*
X0003347013Y0002250571D01*
X0003345787Y0002251009D01*
X0003344610Y0002251566D01*
X0003343494Y0002252235D01*
X0003342448Y0002253011D01*
X0003341483Y0002253885D01*
X0003340609Y0002254850D01*
X0003339833Y0002255895D01*
X0003339164Y0002257012D01*
X0003338608Y0002258189D01*
X0003338169Y0002259415D01*
X0003337853Y0002260677D01*
X0003337662Y0002261965D01*
X0003337598Y0002263265D01*
X0003337598Y0002307600D01*
X0003337662Y0002308900D01*
X0003337853Y0002310188D01*
X0003338169Y0002311451D01*
X0003338608Y0002312676D01*
X0003339164Y0002313853D01*
X0003339833Y0002314970D01*
X0003340609Y0002316016D01*
X0003341483Y0002316980D01*
X0003342448Y0002317854D01*
X0003343494Y0002318630D01*
X0003344610Y0002319299D01*
X0003345787Y0002319856D01*
X0003347013Y0002320294D01*
X0003348276Y0002320611D01*
X0003349564Y0002320802D01*
X0003350864Y0002320866D01*
X0003385355Y0002320866D01*
X0003386656Y0002320802D01*
X0003386656Y0002320802D01*
G37*
D153*
X0003368110Y0002285433D03*
D151*
G36*
X0003467364Y0002320802D02*
G01*
X0003468652Y0002320611D01*
X0003469914Y0002320294D01*
X0003471140Y0002319856D01*
X0003472317Y0002319299D01*
X0003473433Y0002318630D01*
X0003474480Y0002317854D01*
X0003475445Y0002316980D01*
X0003476319Y0002316016D01*
X0003477094Y0002314970D01*
X0003477764Y0002313853D01*
X0003478320Y0002312676D01*
X0003478758Y0002311451D01*
X0003479075Y0002310188D01*
X0003479266Y0002308900D01*
X0003479330Y0002307600D01*
X0003479330Y0002263265D01*
X0003479266Y0002261965D01*
X0003479075Y0002260677D01*
X0003478758Y0002259415D01*
X0003478320Y0002258189D01*
X0003477764Y0002257012D01*
X0003477094Y0002255895D01*
X0003476319Y0002254850D01*
X0003475445Y0002253885D01*
X0003474480Y0002253011D01*
X0003473433Y0002252235D01*
X0003472317Y0002251566D01*
X0003471140Y0002251009D01*
X0003469914Y0002250571D01*
X0003468652Y0002250254D01*
X0003467364Y0002250063D01*
X0003466063Y0002250000D01*
X0003431573Y0002250000D01*
X0003430272Y0002250063D01*
X0003428984Y0002250254D01*
X0003427722Y0002250571D01*
X0003426496Y0002251009D01*
X0003425319Y0002251566D01*
X0003424202Y0002252235D01*
X0003423157Y0002253011D01*
X0003422192Y0002253885D01*
X0003421318Y0002254850D01*
X0003420541Y0002255895D01*
X0003419873Y0002257012D01*
X0003419316Y0002258189D01*
X0003418878Y0002259415D01*
X0003418562Y0002260677D01*
X0003418370Y0002261965D01*
X0003418307Y0002263265D01*
X0003418307Y0002307600D01*
X0003418370Y0002308900D01*
X0003418562Y0002310188D01*
X0003418878Y0002311451D01*
X0003419316Y0002312676D01*
X0003419873Y0002313853D01*
X0003420541Y0002314970D01*
X0003421318Y0002316016D01*
X0003422192Y0002316980D01*
X0003423157Y0002317854D01*
X0003424202Y0002318630D01*
X0003425319Y0002319299D01*
X0003426496Y0002319856D01*
X0003427722Y0002320294D01*
X0003428984Y0002320611D01*
X0003430272Y0002320802D01*
X0003431573Y0002320866D01*
X0003466063Y0002320866D01*
X0003467364Y0002320802D01*
X0003467364Y0002320802D01*
G37*
D153*
X0003448818Y0002285433D03*
D154*
X0003246062Y0002179133D03*
D151*
G36*
X0003245822Y0002141755D02*
G01*
X0003245097Y0002141755D01*
X0003244325Y0002141793D01*
X0003242401Y0002141983D01*
X0003241638Y0002142096D01*
X0003239743Y0002142473D01*
X0003238994Y0002142661D01*
X0003237144Y0002143222D01*
X0003236418Y0002143482D01*
X0003234633Y0002144221D01*
X0003233934Y0002144552D01*
X0003232230Y0002145462D01*
X0003231568Y0002145859D01*
X0003229962Y0002146933D01*
X0003229341Y0002147393D01*
X0003227848Y0002148619D01*
X0003227275Y0002149137D01*
X0003225909Y0002150503D01*
X0003225390Y0002151076D01*
X0003224164Y0002152569D01*
X0003223703Y0002153190D01*
X0003222631Y0002154796D01*
X0003222234Y0002155459D01*
X0003221323Y0002157162D01*
X0003220993Y0002157861D01*
X0003220252Y0002159646D01*
X0003219993Y0002160373D01*
X0003219432Y0002162222D01*
X0003219245Y0002162972D01*
X0003218867Y0002164866D01*
X0003218754Y0002165631D01*
X0003218565Y0002167553D01*
X0003218527Y0002168325D01*
X0003218527Y0002169050D01*
X0003218502Y0002169291D01*
X0003218502Y0002188976D01*
X0003218527Y0002189216D01*
X0003218527Y0002189942D01*
X0003218565Y0002190714D01*
X0003218754Y0002192636D01*
X0003218867Y0002193400D01*
X0003219245Y0002195295D01*
X0003219432Y0002196045D01*
X0003219993Y0002197893D01*
X0003220252Y0002198621D01*
X0003220993Y0002200406D01*
X0003221323Y0002201104D01*
X0003222234Y0002202808D01*
X0003222631Y0002203470D01*
X0003223703Y0002205077D01*
X0003224164Y0002205698D01*
X0003225390Y0002207191D01*
X0003225909Y0002207763D01*
X0003227275Y0002209129D01*
X0003227848Y0002209648D01*
X0003229341Y0002210874D01*
X0003229962Y0002211334D01*
X0003231568Y0002212407D01*
X0003232230Y0002212804D01*
X0003233934Y0002213715D01*
X0003234633Y0002214046D01*
X0003236418Y0002214785D01*
X0003237144Y0002215045D01*
X0003238994Y0002215606D01*
X0003239743Y0002215794D01*
X0003241638Y0002216171D01*
X0003242401Y0002216284D01*
X0003244325Y0002216473D01*
X0003245097Y0002216511D01*
X0003245822Y0002216511D01*
X0003246062Y0002216535D01*
X0003265747Y0002216535D01*
X0003267284Y0002216384D01*
X0003268761Y0002215936D01*
X0003270122Y0002215208D01*
X0003271315Y0002214229D01*
X0003272295Y0002213035D01*
X0003273022Y0002211674D01*
X0003273470Y0002210197D01*
X0003273622Y0002208661D01*
X0003273622Y0002149606D01*
X0003273470Y0002148070D01*
X0003273022Y0002146593D01*
X0003272295Y0002145231D01*
X0003271315Y0002144038D01*
X0003270122Y0002143059D01*
X0003268761Y0002142331D01*
X0003267284Y0002141883D01*
X0003265747Y0002141732D01*
X0003246062Y0002141732D01*
X0003245822Y0002141755D01*
X0003245822Y0002141755D01*
G37*
D154*
X0003297244Y0002179133D03*
D151*
G36*
X0003276022Y0002141883D02*
G01*
X0003274545Y0002142331D01*
X0003273184Y0002143059D01*
X0003271991Y0002144038D01*
X0003271012Y0002145231D01*
X0003270284Y0002146593D01*
X0003269836Y0002148070D01*
X0003269685Y0002149606D01*
X0003269685Y0002208661D01*
X0003269836Y0002210197D01*
X0003270284Y0002211674D01*
X0003271012Y0002213035D01*
X0003271991Y0002214229D01*
X0003273184Y0002215208D01*
X0003274545Y0002215936D01*
X0003276022Y0002216384D01*
X0003277559Y0002216535D01*
X0003297244Y0002216535D01*
X0003297483Y0002216511D01*
X0003298209Y0002216511D01*
X0003298981Y0002216473D01*
X0003300904Y0002216284D01*
X0003301668Y0002216171D01*
X0003303563Y0002215794D01*
X0003304312Y0002215606D01*
X0003306161Y0002215045D01*
X0003306888Y0002214785D01*
X0003308673Y0002214046D01*
X0003309371Y0002213715D01*
X0003311076Y0002212804D01*
X0003311738Y0002212407D01*
X0003313344Y0002211334D01*
X0003313965Y0002210874D01*
X0003315459Y0002209648D01*
X0003316031Y0002209129D01*
X0003317396Y0002207763D01*
X0003317915Y0002207191D01*
X0003319141Y0002205698D01*
X0003319602Y0002205077D01*
X0003320675Y0002203470D01*
X0003321072Y0002202808D01*
X0003321983Y0002201104D01*
X0003322313Y0002200406D01*
X0003323053Y0002198621D01*
X0003323313Y0002197893D01*
X0003323874Y0002196045D01*
X0003324061Y0002195295D01*
X0003324438Y0002193400D01*
X0003324552Y0002192636D01*
X0003324741Y0002190714D01*
X0003324779Y0002189942D01*
X0003324779Y0002189216D01*
X0003324803Y0002188976D01*
X0003324803Y0002169291D01*
X0003324779Y0002169050D01*
X0003324779Y0002168325D01*
X0003324741Y0002167553D01*
X0003324552Y0002165631D01*
X0003324438Y0002164866D01*
X0003324061Y0002162972D01*
X0003323874Y0002162222D01*
X0003323313Y0002160373D01*
X0003323053Y0002159646D01*
X0003322313Y0002157861D01*
X0003321983Y0002157162D01*
X0003321072Y0002155459D01*
X0003320675Y0002154796D01*
X0003319602Y0002153190D01*
X0003319141Y0002152569D01*
X0003317915Y0002151076D01*
X0003317396Y0002150503D01*
X0003316031Y0002149137D01*
X0003315459Y0002148619D01*
X0003313965Y0002147393D01*
X0003313344Y0002146933D01*
X0003311738Y0002145859D01*
X0003311076Y0002145462D01*
X0003309371Y0002144552D01*
X0003308673Y0002144221D01*
X0003306888Y0002143482D01*
X0003306161Y0002143222D01*
X0003304312Y0002142661D01*
X0003303563Y0002142473D01*
X0003301668Y0002142096D01*
X0003300904Y0002141983D01*
X0003298981Y0002141793D01*
X0003298209Y0002141755D01*
X0003297483Y0002141755D01*
X0003297244Y0002141732D01*
X0003277559Y0002141732D01*
X0003276022Y0002141883D01*
X0003276022Y0002141883D01*
G37*
D150*
X0003451122Y0001941673D03*
X0003451122Y0002041672D03*
X0003451122Y0002141673D03*
D155*
X0003449211Y0002390472D03*
X0003370472Y0002390472D03*
X0003291732Y0002390472D03*
X0003212992Y0002390472D03*
X0003134251Y0002390472D03*
X0003055511Y0002390472D03*
X0002976771Y0002390472D03*
X0002898031Y0002390472D03*
X0003134251Y0003138503D03*
X0003212992Y0003138503D03*
X0003055511Y0003138503D03*
D156*
X0003084645Y0001998425D03*
X0003009842Y0001998425D03*
X0003009842Y0001895275D03*
X0003047244Y0001895275D03*
X0003084645Y0001895275D03*
D157*
X0002772065Y0002699173D03*
X0002772065Y0002899173D03*
X0002772065Y0003099173D03*
X0002771122Y0002799172D03*
X0002771122Y0002999173D03*
D158*
X0003428622Y0003199173D03*
X0002793622Y0001764173D03*
D159*
X0002788622Y0003211673D03*
M02*