%
M48
METRIC,000.000
T01C0.50
%
T01
X020250Y003607
X020250Y004607
X020250Y005607
X020250Y006607
X020250Y007607
X020250Y008607
X021750Y008178
X021750Y007178
X021750Y006178
X021750Y005178
X021750Y004178
X021750Y003178
X034785Y040250
X033785Y040250
X032785Y040250
X031785Y040250
X030785Y040250
X029785Y040250
X029429Y041750
X030429Y041750
X031429Y041750
X032429Y041750
X033429Y041750
X034429Y041750
X020250Y047607
X020250Y048607
X020250Y049607
X020250Y050607
X020250Y051607
X020250Y052607
X021750Y052178
X021750Y051178
X021750Y050178
X021750Y049178
X021750Y048178
X021750Y047178
X020250Y072607
X020250Y073607
X020250Y074607
X020250Y075607
X020250Y076607
X020250Y077607
X021750Y077178
X021750Y076178
X021750Y075178
X021750Y074178
X021750Y073178
X021750Y072178
X012785Y040250
X011785Y040250
X010785Y040250
X009785Y040250
X008785Y040250
X007785Y040250
X007429Y041750
X008429Y041750
X009429Y041750
X010429Y041750
X011429Y041750
X012429Y041750
X042250Y003607
X042250Y004607
X042250Y005607
X042250Y006607
X042250Y007607
X042250Y008607
X043750Y008178
X043750Y007178
X043750Y006178
X043750Y005178
X043750Y004178
X043750Y003178
X042250Y047607
X042250Y048607
X042250Y049607
X042250Y050607
X042250Y051607
X042250Y052607
X043750Y052178
X043750Y051178
X043750Y050178
X043750Y049178
X043750Y048178
X043750Y047178
X064250Y003607
X064250Y004607
X064250Y005607
X064250Y006607
X064250Y007607
X064250Y008607
X065750Y008178
X065750Y007178
X065750Y006178
X065750Y005178
X065750Y004178
X065750Y003178
X078785Y040250
X077785Y040250
X076785Y040250
X075785Y040250
X074785Y040250
X073785Y040250
X073429Y041750
X074429Y041750
X075429Y041750
X076429Y041750
X077429Y041750
X078429Y041750
X064250Y048607
X064250Y049607
X064250Y050607
X064250Y051607
X064250Y052607
X064250Y053607
X065750Y053178
X065750Y052178
X065750Y051178
X065750Y050178
X065750Y049178
X065750Y048178
X064250Y072607
X064250Y073607
X064250Y074607
X064250Y075607
X064250Y076607
X064250Y077607
X065750Y077178
X065750Y076178
X065750Y075178
X065750Y074178
X065750Y073178
X065750Y072178
X056785Y040250
X055785Y040250
X054785Y040250
X053785Y040250
X052785Y040250
X051785Y040250
X051429Y041750
X052429Y041750
X053429Y041750
X054429Y041750
X055429Y041750
X056429Y041750
X042250Y072607
X042250Y073607
X042250Y074607
X042250Y075607
X042250Y076607
X042250Y077607
X043750Y077178
X043750Y076178
X043750Y075178
X043750Y074178
X043750Y073178
X043750Y072178
X020250Y027607
X020250Y028607
X020250Y029607
X020250Y030607
X020250Y031607
X020250Y032607
X021750Y032178
X021750Y031178
X021750Y030178
X021750Y029178
X021750Y028178
X021750Y027178
X042250Y027607
X042250Y028607
X042250Y029607
X042250Y030607
X042250Y031607
X042250Y032607
X043750Y032178
X043750Y031178
X043750Y030178
X043750Y029178
X043750Y028178
X043750Y027178
X064250Y027607
X064250Y028607
X064250Y029607
X064250Y030607
X064250Y031607
X064250Y032607
X065750Y032178
X065750Y031178
X065750Y030178
X065750Y029178
X065750Y028178
X065750Y027178
M30