M48
; DRILL file {KiCad (5.1.4)-1} date 05.12.2019 08:14:39
; FORMAT={-:-/ absolute / inch / decimal}
; #@! TF.CreationDate,2019-12-05T08:14:39+01:00
; #@! TF.GenerationSoftware,Kicad,Pcbnew,(5.1.4)-1
; #@! TF.FileFunction,Plated,1,2,PTH
FMAT,2
INCH
T1C0.0157
T2C0.0315
T3C0.0394
%
G90
G05
T1
X6.721Y-3.457
X6.7283Y-4.0079
X6.7283Y-4.0394
X6.7283Y-4.0709
X6.7677Y-4.1575
X6.7677Y-4.2126
X6.7677Y-4.2756
X6.7677Y-4.3386
X6.8268Y-4.3681
X6.8324Y-3.771
X6.8504Y-4.3169
X6.8622Y-4.0866
X6.8661Y-3.5669
X6.8661Y-4.5748
X6.8661Y-4.6555
X6.8794Y-3.7048
X6.88Y-3.739
X6.8817Y-3.771
X6.8937Y-4.5217
X6.8993Y-3.437
X6.9173Y-4.7441
X6.9213Y-4.0157
X6.9213Y-4.063
X6.9488Y-4.3543
X6.9774Y-4.1145
X7.0039Y-3.8937
X7.0053Y-4.1331
X7.0065Y-4.1017
X7.0147Y-4.0693
X7.0354Y-3.4724
X7.079Y-4.0014
X7.128Y-4.8563
X7.1378Y-4.1142
X7.1378Y-4.4798
X7.1575Y-4.7441
X7.1732Y-4.1181
X7.1894Y-3.4757
X7.2087Y-4.1181
X7.252Y-4.0984
X7.2938Y-4.1357
X7.3386Y-3.9055
X7.3465Y-4.0256
X7.3524Y-4.248
X7.378Y-3.7126
X7.3868Y-3.9734
X7.3937Y-4.872
X7.4094Y-4.0866
X7.4104Y-4.0335
X7.4272Y-4.8366
X7.4272Y-4.872
T2
X6.765Y-3.4025
T3
X6.7441Y-4.4724
X6.7441Y-4.5724
X6.7441Y-4.6724
X7.4275Y-4.4725
X7.4275Y-4.5725
X7.4275Y-4.6725
T0
M30
