G04 #@! TF.GenerationSoftware,KiCad,Pcbnew,(5.1.4)-1*
G04 #@! TF.CreationDate,2019-11-23T20:11:14+01:00*
G04 #@! TF.ProjectId,HM-LC-SW1-BA-PCB_mini_MAX1724,484d2d4c-432d-4535-9731-2d42412d5043,rev?*
G04 #@! TF.SameCoordinates,Original*
G04 #@! TF.FileFunction,Soldermask,Top*
G04 #@! TF.FilePolarity,Negative*
%FSLAX46Y46*%
G04 Gerber Fmt 4.6, Leading zero omitted, Abs format (unit mm)*
G04 Created by KiCad (PCBNEW (5.1.4)-1) date 2019-11-23 20:11:14*
%MOMM*%
%LPD*%
G04 APERTURE LIST*
%ADD10O,2.100000X2.100000*%
%ADD11C,1.000000*%
%ADD12C,0.150000*%
%ADD13C,1.550000*%
%ADD14R,1.200000X1.300000*%
%ADD15C,1.825000*%
%ADD16R,3.400000X2.100000*%
%ADD17C,0.950000*%
%ADD18R,2.580000X2.000000*%
%ADD19C,1.650000*%
%ADD20R,1.700000X1.900000*%
%ADD21C,2.600000*%
%ADD22R,1.750000X1.750000*%
G04 APERTURE END LIST*
D10*
X188658500Y-118681500D03*
X188658500Y-116141500D03*
X188658500Y-113601500D03*
D11*
X181300000Y-98100000D03*
D10*
X171300000Y-116140000D03*
X171300000Y-113600000D03*
D12*
G36*
X180946071Y-91401623D02*
G01*
X180978781Y-91406475D01*
X181010857Y-91414509D01*
X181041991Y-91425649D01*
X181071884Y-91439787D01*
X181100247Y-91456787D01*
X181126807Y-91476485D01*
X181151308Y-91498692D01*
X181173515Y-91523193D01*
X181193213Y-91549753D01*
X181210213Y-91578116D01*
X181224351Y-91608009D01*
X181235491Y-91639143D01*
X181243525Y-91671219D01*
X181248377Y-91703929D01*
X181250000Y-91736956D01*
X181250000Y-92863044D01*
X181248377Y-92896071D01*
X181243525Y-92928781D01*
X181235491Y-92960857D01*
X181224351Y-92991991D01*
X181210213Y-93021884D01*
X181193213Y-93050247D01*
X181173515Y-93076807D01*
X181151308Y-93101308D01*
X181126807Y-93123515D01*
X181100247Y-93143213D01*
X181071884Y-93160213D01*
X181041991Y-93174351D01*
X181010857Y-93185491D01*
X180978781Y-93193525D01*
X180946071Y-93198377D01*
X180913044Y-93200000D01*
X180036956Y-93200000D01*
X180003929Y-93198377D01*
X179971219Y-93193525D01*
X179939143Y-93185491D01*
X179908009Y-93174351D01*
X179878116Y-93160213D01*
X179849753Y-93143213D01*
X179823193Y-93123515D01*
X179798692Y-93101308D01*
X179776485Y-93076807D01*
X179756787Y-93050247D01*
X179739787Y-93021884D01*
X179725649Y-92991991D01*
X179714509Y-92960857D01*
X179706475Y-92928781D01*
X179701623Y-92896071D01*
X179700000Y-92863044D01*
X179700000Y-91736956D01*
X179701623Y-91703929D01*
X179706475Y-91671219D01*
X179714509Y-91639143D01*
X179725649Y-91608009D01*
X179739787Y-91578116D01*
X179756787Y-91549753D01*
X179776485Y-91523193D01*
X179798692Y-91498692D01*
X179823193Y-91476485D01*
X179849753Y-91456787D01*
X179878116Y-91439787D01*
X179908009Y-91425649D01*
X179939143Y-91414509D01*
X179971219Y-91406475D01*
X180003929Y-91401623D01*
X180036956Y-91400000D01*
X180913044Y-91400000D01*
X180946071Y-91401623D01*
X180946071Y-91401623D01*
G37*
D13*
X180475000Y-92300000D03*
D12*
G36*
X182996071Y-91401623D02*
G01*
X183028781Y-91406475D01*
X183060857Y-91414509D01*
X183091991Y-91425649D01*
X183121884Y-91439787D01*
X183150247Y-91456787D01*
X183176807Y-91476485D01*
X183201308Y-91498692D01*
X183223515Y-91523193D01*
X183243213Y-91549753D01*
X183260213Y-91578116D01*
X183274351Y-91608009D01*
X183285491Y-91639143D01*
X183293525Y-91671219D01*
X183298377Y-91703929D01*
X183300000Y-91736956D01*
X183300000Y-92863044D01*
X183298377Y-92896071D01*
X183293525Y-92928781D01*
X183285491Y-92960857D01*
X183274351Y-92991991D01*
X183260213Y-93021884D01*
X183243213Y-93050247D01*
X183223515Y-93076807D01*
X183201308Y-93101308D01*
X183176807Y-93123515D01*
X183150247Y-93143213D01*
X183121884Y-93160213D01*
X183091991Y-93174351D01*
X183060857Y-93185491D01*
X183028781Y-93193525D01*
X182996071Y-93198377D01*
X182963044Y-93200000D01*
X182086956Y-93200000D01*
X182053929Y-93198377D01*
X182021219Y-93193525D01*
X181989143Y-93185491D01*
X181958009Y-93174351D01*
X181928116Y-93160213D01*
X181899753Y-93143213D01*
X181873193Y-93123515D01*
X181848692Y-93101308D01*
X181826485Y-93076807D01*
X181806787Y-93050247D01*
X181789787Y-93021884D01*
X181775649Y-92991991D01*
X181764509Y-92960857D01*
X181756475Y-92928781D01*
X181751623Y-92896071D01*
X181750000Y-92863044D01*
X181750000Y-91736956D01*
X181751623Y-91703929D01*
X181756475Y-91671219D01*
X181764509Y-91639143D01*
X181775649Y-91608009D01*
X181789787Y-91578116D01*
X181806787Y-91549753D01*
X181826485Y-91523193D01*
X181848692Y-91498692D01*
X181873193Y-91476485D01*
X181899753Y-91456787D01*
X181928116Y-91439787D01*
X181958009Y-91425649D01*
X181989143Y-91414509D01*
X182021219Y-91406475D01*
X182053929Y-91401623D01*
X182086956Y-91400000D01*
X182963044Y-91400000D01*
X182996071Y-91401623D01*
X182996071Y-91401623D01*
G37*
D13*
X182525000Y-92300000D03*
D12*
G36*
X182996071Y-94001623D02*
G01*
X183028781Y-94006475D01*
X183060857Y-94014509D01*
X183091991Y-94025649D01*
X183121884Y-94039787D01*
X183150247Y-94056787D01*
X183176807Y-94076485D01*
X183201308Y-94098692D01*
X183223515Y-94123193D01*
X183243213Y-94149753D01*
X183260213Y-94178116D01*
X183274351Y-94208009D01*
X183285491Y-94239143D01*
X183293525Y-94271219D01*
X183298377Y-94303929D01*
X183300000Y-94336956D01*
X183300000Y-95463044D01*
X183298377Y-95496071D01*
X183293525Y-95528781D01*
X183285491Y-95560857D01*
X183274351Y-95591991D01*
X183260213Y-95621884D01*
X183243213Y-95650247D01*
X183223515Y-95676807D01*
X183201308Y-95701308D01*
X183176807Y-95723515D01*
X183150247Y-95743213D01*
X183121884Y-95760213D01*
X183091991Y-95774351D01*
X183060857Y-95785491D01*
X183028781Y-95793525D01*
X182996071Y-95798377D01*
X182963044Y-95800000D01*
X182086956Y-95800000D01*
X182053929Y-95798377D01*
X182021219Y-95793525D01*
X181989143Y-95785491D01*
X181958009Y-95774351D01*
X181928116Y-95760213D01*
X181899753Y-95743213D01*
X181873193Y-95723515D01*
X181848692Y-95701308D01*
X181826485Y-95676807D01*
X181806787Y-95650247D01*
X181789787Y-95621884D01*
X181775649Y-95591991D01*
X181764509Y-95560857D01*
X181756475Y-95528781D01*
X181751623Y-95496071D01*
X181750000Y-95463044D01*
X181750000Y-94336956D01*
X181751623Y-94303929D01*
X181756475Y-94271219D01*
X181764509Y-94239143D01*
X181775649Y-94208009D01*
X181789787Y-94178116D01*
X181806787Y-94149753D01*
X181826485Y-94123193D01*
X181848692Y-94098692D01*
X181873193Y-94076485D01*
X181899753Y-94056787D01*
X181928116Y-94039787D01*
X181958009Y-94025649D01*
X181989143Y-94014509D01*
X182021219Y-94006475D01*
X182053929Y-94001623D01*
X182086956Y-94000000D01*
X182963044Y-94000000D01*
X182996071Y-94001623D01*
X182996071Y-94001623D01*
G37*
D13*
X182525000Y-94900000D03*
D12*
G36*
X180946071Y-94001623D02*
G01*
X180978781Y-94006475D01*
X181010857Y-94014509D01*
X181041991Y-94025649D01*
X181071884Y-94039787D01*
X181100247Y-94056787D01*
X181126807Y-94076485D01*
X181151308Y-94098692D01*
X181173515Y-94123193D01*
X181193213Y-94149753D01*
X181210213Y-94178116D01*
X181224351Y-94208009D01*
X181235491Y-94239143D01*
X181243525Y-94271219D01*
X181248377Y-94303929D01*
X181250000Y-94336956D01*
X181250000Y-95463044D01*
X181248377Y-95496071D01*
X181243525Y-95528781D01*
X181235491Y-95560857D01*
X181224351Y-95591991D01*
X181210213Y-95621884D01*
X181193213Y-95650247D01*
X181173515Y-95676807D01*
X181151308Y-95701308D01*
X181126807Y-95723515D01*
X181100247Y-95743213D01*
X181071884Y-95760213D01*
X181041991Y-95774351D01*
X181010857Y-95785491D01*
X180978781Y-95793525D01*
X180946071Y-95798377D01*
X180913044Y-95800000D01*
X180036956Y-95800000D01*
X180003929Y-95798377D01*
X179971219Y-95793525D01*
X179939143Y-95785491D01*
X179908009Y-95774351D01*
X179878116Y-95760213D01*
X179849753Y-95743213D01*
X179823193Y-95723515D01*
X179798692Y-95701308D01*
X179776485Y-95676807D01*
X179756787Y-95650247D01*
X179739787Y-95621884D01*
X179725649Y-95591991D01*
X179714509Y-95560857D01*
X179706475Y-95528781D01*
X179701623Y-95496071D01*
X179700000Y-95463044D01*
X179700000Y-94336956D01*
X179701623Y-94303929D01*
X179706475Y-94271219D01*
X179714509Y-94239143D01*
X179725649Y-94208009D01*
X179739787Y-94178116D01*
X179756787Y-94149753D01*
X179776485Y-94123193D01*
X179798692Y-94098692D01*
X179823193Y-94076485D01*
X179849753Y-94056787D01*
X179878116Y-94039787D01*
X179908009Y-94025649D01*
X179939143Y-94014509D01*
X179971219Y-94006475D01*
X180003929Y-94001623D01*
X180036956Y-94000000D01*
X180913044Y-94000000D01*
X180946071Y-94001623D01*
X180946071Y-94001623D01*
G37*
D13*
X180475000Y-94900000D03*
D14*
X177500000Y-94600000D03*
X176550000Y-92600000D03*
X178450000Y-92600000D03*
D12*
G36*
X186196071Y-94351623D02*
G01*
X186228781Y-94356475D01*
X186260857Y-94364509D01*
X186291991Y-94375649D01*
X186321884Y-94389787D01*
X186350247Y-94406787D01*
X186376807Y-94426485D01*
X186401308Y-94448692D01*
X186423515Y-94473193D01*
X186443213Y-94499753D01*
X186460213Y-94528116D01*
X186474351Y-94558009D01*
X186485491Y-94589143D01*
X186493525Y-94621219D01*
X186498377Y-94653929D01*
X186500000Y-94686956D01*
X186500000Y-95563044D01*
X186498377Y-95596071D01*
X186493525Y-95628781D01*
X186485491Y-95660857D01*
X186474351Y-95691991D01*
X186460213Y-95721884D01*
X186443213Y-95750247D01*
X186423515Y-95776807D01*
X186401308Y-95801308D01*
X186376807Y-95823515D01*
X186350247Y-95843213D01*
X186321884Y-95860213D01*
X186291991Y-95874351D01*
X186260857Y-95885491D01*
X186228781Y-95893525D01*
X186196071Y-95898377D01*
X186163044Y-95900000D01*
X185036956Y-95900000D01*
X185003929Y-95898377D01*
X184971219Y-95893525D01*
X184939143Y-95885491D01*
X184908009Y-95874351D01*
X184878116Y-95860213D01*
X184849753Y-95843213D01*
X184823193Y-95823515D01*
X184798692Y-95801308D01*
X184776485Y-95776807D01*
X184756787Y-95750247D01*
X184739787Y-95721884D01*
X184725649Y-95691991D01*
X184714509Y-95660857D01*
X184706475Y-95628781D01*
X184701623Y-95596071D01*
X184700000Y-95563044D01*
X184700000Y-94686956D01*
X184701623Y-94653929D01*
X184706475Y-94621219D01*
X184714509Y-94589143D01*
X184725649Y-94558009D01*
X184739787Y-94528116D01*
X184756787Y-94499753D01*
X184776485Y-94473193D01*
X184798692Y-94448692D01*
X184823193Y-94426485D01*
X184849753Y-94406787D01*
X184878116Y-94389787D01*
X184908009Y-94375649D01*
X184939143Y-94364509D01*
X184971219Y-94356475D01*
X185003929Y-94351623D01*
X185036956Y-94350000D01*
X186163044Y-94350000D01*
X186196071Y-94351623D01*
X186196071Y-94351623D01*
G37*
D13*
X185600000Y-95125000D03*
D12*
G36*
X186196071Y-92301623D02*
G01*
X186228781Y-92306475D01*
X186260857Y-92314509D01*
X186291991Y-92325649D01*
X186321884Y-92339787D01*
X186350247Y-92356787D01*
X186376807Y-92376485D01*
X186401308Y-92398692D01*
X186423515Y-92423193D01*
X186443213Y-92449753D01*
X186460213Y-92478116D01*
X186474351Y-92508009D01*
X186485491Y-92539143D01*
X186493525Y-92571219D01*
X186498377Y-92603929D01*
X186500000Y-92636956D01*
X186500000Y-93513044D01*
X186498377Y-93546071D01*
X186493525Y-93578781D01*
X186485491Y-93610857D01*
X186474351Y-93641991D01*
X186460213Y-93671884D01*
X186443213Y-93700247D01*
X186423515Y-93726807D01*
X186401308Y-93751308D01*
X186376807Y-93773515D01*
X186350247Y-93793213D01*
X186321884Y-93810213D01*
X186291991Y-93824351D01*
X186260857Y-93835491D01*
X186228781Y-93843525D01*
X186196071Y-93848377D01*
X186163044Y-93850000D01*
X185036956Y-93850000D01*
X185003929Y-93848377D01*
X184971219Y-93843525D01*
X184939143Y-93835491D01*
X184908009Y-93824351D01*
X184878116Y-93810213D01*
X184849753Y-93793213D01*
X184823193Y-93773515D01*
X184798692Y-93751308D01*
X184776485Y-93726807D01*
X184756787Y-93700247D01*
X184739787Y-93671884D01*
X184725649Y-93641991D01*
X184714509Y-93610857D01*
X184706475Y-93578781D01*
X184701623Y-93546071D01*
X184700000Y-93513044D01*
X184700000Y-92636956D01*
X184701623Y-92603929D01*
X184706475Y-92571219D01*
X184714509Y-92539143D01*
X184725649Y-92508009D01*
X184739787Y-92478116D01*
X184756787Y-92449753D01*
X184776485Y-92423193D01*
X184798692Y-92398692D01*
X184823193Y-92376485D01*
X184849753Y-92356787D01*
X184878116Y-92339787D01*
X184908009Y-92325649D01*
X184939143Y-92314509D01*
X184971219Y-92306475D01*
X185003929Y-92301623D01*
X185036956Y-92300000D01*
X186163044Y-92300000D01*
X186196071Y-92301623D01*
X186196071Y-92301623D01*
G37*
D13*
X185600000Y-93075000D03*
D12*
G36*
X186236207Y-88826542D02*
G01*
X186267287Y-88831152D01*
X186297766Y-88838787D01*
X186327350Y-88849372D01*
X186355754Y-88862806D01*
X186382704Y-88878959D01*
X186407942Y-88897677D01*
X186431223Y-88918777D01*
X186452323Y-88942058D01*
X186471041Y-88967296D01*
X186487194Y-88994246D01*
X186500628Y-89022650D01*
X186511213Y-89052234D01*
X186518848Y-89082713D01*
X186523458Y-89113793D01*
X186525000Y-89145176D01*
X186525000Y-90654824D01*
X186523458Y-90686207D01*
X186518848Y-90717287D01*
X186511213Y-90747766D01*
X186500628Y-90777350D01*
X186487194Y-90805754D01*
X186471041Y-90832704D01*
X186452323Y-90857942D01*
X186431223Y-90881223D01*
X186407942Y-90902323D01*
X186382704Y-90921041D01*
X186355754Y-90937194D01*
X186327350Y-90950628D01*
X186297766Y-90961213D01*
X186267287Y-90968848D01*
X186236207Y-90973458D01*
X186204824Y-90975000D01*
X185020176Y-90975000D01*
X184988793Y-90973458D01*
X184957713Y-90968848D01*
X184927234Y-90961213D01*
X184897650Y-90950628D01*
X184869246Y-90937194D01*
X184842296Y-90921041D01*
X184817058Y-90902323D01*
X184793777Y-90881223D01*
X184772677Y-90857942D01*
X184753959Y-90832704D01*
X184737806Y-90805754D01*
X184724372Y-90777350D01*
X184713787Y-90747766D01*
X184706152Y-90717287D01*
X184701542Y-90686207D01*
X184700000Y-90654824D01*
X184700000Y-89145176D01*
X184701542Y-89113793D01*
X184706152Y-89082713D01*
X184713787Y-89052234D01*
X184724372Y-89022650D01*
X184737806Y-88994246D01*
X184753959Y-88967296D01*
X184772677Y-88942058D01*
X184793777Y-88918777D01*
X184817058Y-88897677D01*
X184842296Y-88878959D01*
X184869246Y-88862806D01*
X184897650Y-88849372D01*
X184927234Y-88838787D01*
X184957713Y-88831152D01*
X184988793Y-88826542D01*
X185020176Y-88825000D01*
X186204824Y-88825000D01*
X186236207Y-88826542D01*
X186236207Y-88826542D01*
G37*
D15*
X185612500Y-89900000D03*
D12*
G36*
X189211207Y-88826542D02*
G01*
X189242287Y-88831152D01*
X189272766Y-88838787D01*
X189302350Y-88849372D01*
X189330754Y-88862806D01*
X189357704Y-88878959D01*
X189382942Y-88897677D01*
X189406223Y-88918777D01*
X189427323Y-88942058D01*
X189446041Y-88967296D01*
X189462194Y-88994246D01*
X189475628Y-89022650D01*
X189486213Y-89052234D01*
X189493848Y-89082713D01*
X189498458Y-89113793D01*
X189500000Y-89145176D01*
X189500000Y-90654824D01*
X189498458Y-90686207D01*
X189493848Y-90717287D01*
X189486213Y-90747766D01*
X189475628Y-90777350D01*
X189462194Y-90805754D01*
X189446041Y-90832704D01*
X189427323Y-90857942D01*
X189406223Y-90881223D01*
X189382942Y-90902323D01*
X189357704Y-90921041D01*
X189330754Y-90937194D01*
X189302350Y-90950628D01*
X189272766Y-90961213D01*
X189242287Y-90968848D01*
X189211207Y-90973458D01*
X189179824Y-90975000D01*
X187995176Y-90975000D01*
X187963793Y-90973458D01*
X187932713Y-90968848D01*
X187902234Y-90961213D01*
X187872650Y-90950628D01*
X187844246Y-90937194D01*
X187817296Y-90921041D01*
X187792058Y-90902323D01*
X187768777Y-90881223D01*
X187747677Y-90857942D01*
X187728959Y-90832704D01*
X187712806Y-90805754D01*
X187699372Y-90777350D01*
X187688787Y-90747766D01*
X187681152Y-90717287D01*
X187676542Y-90686207D01*
X187675000Y-90654824D01*
X187675000Y-89145176D01*
X187676542Y-89113793D01*
X187681152Y-89082713D01*
X187688787Y-89052234D01*
X187699372Y-89022650D01*
X187712806Y-88994246D01*
X187728959Y-88967296D01*
X187747677Y-88942058D01*
X187768777Y-88918777D01*
X187792058Y-88897677D01*
X187817296Y-88878959D01*
X187844246Y-88862806D01*
X187872650Y-88849372D01*
X187902234Y-88838787D01*
X187932713Y-88831152D01*
X187963793Y-88826542D01*
X187995176Y-88825000D01*
X189179824Y-88825000D01*
X189211207Y-88826542D01*
X189211207Y-88826542D01*
G37*
D15*
X188587500Y-89900000D03*
D16*
X171410500Y-89281000D03*
X171410500Y-94361000D03*
X171410500Y-99441000D03*
X171386500Y-91821000D03*
X171386500Y-96901000D03*
D17*
X186277603Y-103686195D03*
D12*
G36*
X186648834Y-102643212D02*
G01*
X187320586Y-103314964D01*
X185906372Y-104729178D01*
X185234620Y-104057426D01*
X186648834Y-102643212D01*
X186648834Y-102643212D01*
G37*
D17*
X185711917Y-103120510D03*
D12*
G36*
X186083148Y-102077527D02*
G01*
X186754900Y-102749279D01*
X185340686Y-104163493D01*
X184668934Y-103491741D01*
X186083148Y-102077527D01*
X186083148Y-102077527D01*
G37*
D17*
X185146232Y-102554824D03*
D12*
G36*
X185517463Y-101511841D02*
G01*
X186189215Y-102183593D01*
X184775001Y-103597807D01*
X184103249Y-102926055D01*
X185517463Y-101511841D01*
X185517463Y-101511841D01*
G37*
D17*
X184580547Y-101989139D03*
D12*
G36*
X184951778Y-100946156D02*
G01*
X185623530Y-101617908D01*
X184209316Y-103032122D01*
X183537564Y-102360370D01*
X184951778Y-100946156D01*
X184951778Y-100946156D01*
G37*
D17*
X184014861Y-101423453D03*
D12*
G36*
X184386092Y-100380470D02*
G01*
X185057844Y-101052222D01*
X183643630Y-102466436D01*
X182971878Y-101794684D01*
X184386092Y-100380470D01*
X184386092Y-100380470D01*
G37*
D17*
X183449176Y-100857768D03*
D12*
G36*
X183820407Y-99814785D02*
G01*
X184492159Y-100486537D01*
X183077945Y-101900751D01*
X182406193Y-101228999D01*
X183820407Y-99814785D01*
X183820407Y-99814785D01*
G37*
D17*
X182883490Y-100292083D03*
D12*
G36*
X183254721Y-99249100D02*
G01*
X183926473Y-99920852D01*
X182512259Y-101335066D01*
X181840507Y-100663314D01*
X183254721Y-99249100D01*
X183254721Y-99249100D01*
G37*
D17*
X182317805Y-99726397D03*
D12*
G36*
X182689036Y-98683414D02*
G01*
X183360788Y-99355166D01*
X181946574Y-100769380D01*
X181274822Y-100097628D01*
X182689036Y-98683414D01*
X182689036Y-98683414D01*
G37*
D17*
X180267195Y-99726397D03*
D12*
G36*
X179224212Y-99355166D02*
G01*
X179895964Y-98683414D01*
X181310178Y-100097628D01*
X180638426Y-100769380D01*
X179224212Y-99355166D01*
X179224212Y-99355166D01*
G37*
D17*
X179701510Y-100292083D03*
D12*
G36*
X178658527Y-99920852D02*
G01*
X179330279Y-99249100D01*
X180744493Y-100663314D01*
X180072741Y-101335066D01*
X178658527Y-99920852D01*
X178658527Y-99920852D01*
G37*
D17*
X179135824Y-100857768D03*
D12*
G36*
X178092841Y-100486537D02*
G01*
X178764593Y-99814785D01*
X180178807Y-101228999D01*
X179507055Y-101900751D01*
X178092841Y-100486537D01*
X178092841Y-100486537D01*
G37*
D17*
X178570139Y-101423453D03*
D12*
G36*
X177527156Y-101052222D02*
G01*
X178198908Y-100380470D01*
X179613122Y-101794684D01*
X178941370Y-102466436D01*
X177527156Y-101052222D01*
X177527156Y-101052222D01*
G37*
D17*
X178004453Y-101989139D03*
D12*
G36*
X176961470Y-101617908D02*
G01*
X177633222Y-100946156D01*
X179047436Y-102360370D01*
X178375684Y-103032122D01*
X176961470Y-101617908D01*
X176961470Y-101617908D01*
G37*
D17*
X177438768Y-102554824D03*
D12*
G36*
X176395785Y-102183593D02*
G01*
X177067537Y-101511841D01*
X178481751Y-102926055D01*
X177809999Y-103597807D01*
X176395785Y-102183593D01*
X176395785Y-102183593D01*
G37*
D17*
X176873083Y-103120510D03*
D12*
G36*
X175830100Y-102749279D02*
G01*
X176501852Y-102077527D01*
X177916066Y-103491741D01*
X177244314Y-104163493D01*
X175830100Y-102749279D01*
X175830100Y-102749279D01*
G37*
D17*
X176307397Y-103686195D03*
D12*
G36*
X175264414Y-103314964D02*
G01*
X175936166Y-102643212D01*
X177350380Y-104057426D01*
X176678628Y-104729178D01*
X175264414Y-103314964D01*
X175264414Y-103314964D01*
G37*
D17*
X176307397Y-105736805D03*
D12*
G36*
X176678628Y-104693822D02*
G01*
X177350380Y-105365574D01*
X175936166Y-106779788D01*
X175264414Y-106108036D01*
X176678628Y-104693822D01*
X176678628Y-104693822D01*
G37*
D17*
X176873083Y-106302490D03*
D12*
G36*
X177244314Y-105259507D02*
G01*
X177916066Y-105931259D01*
X176501852Y-107345473D01*
X175830100Y-106673721D01*
X177244314Y-105259507D01*
X177244314Y-105259507D01*
G37*
D17*
X177438768Y-106868176D03*
D12*
G36*
X177809999Y-105825193D02*
G01*
X178481751Y-106496945D01*
X177067537Y-107911159D01*
X176395785Y-107239407D01*
X177809999Y-105825193D01*
X177809999Y-105825193D01*
G37*
D17*
X178004453Y-107433861D03*
D12*
G36*
X178375684Y-106390878D02*
G01*
X179047436Y-107062630D01*
X177633222Y-108476844D01*
X176961470Y-107805092D01*
X178375684Y-106390878D01*
X178375684Y-106390878D01*
G37*
D17*
X178570139Y-107999547D03*
D12*
G36*
X178941370Y-106956564D02*
G01*
X179613122Y-107628316D01*
X178198908Y-109042530D01*
X177527156Y-108370778D01*
X178941370Y-106956564D01*
X178941370Y-106956564D01*
G37*
D17*
X179135824Y-108565232D03*
D12*
G36*
X179507055Y-107522249D02*
G01*
X180178807Y-108194001D01*
X178764593Y-109608215D01*
X178092841Y-108936463D01*
X179507055Y-107522249D01*
X179507055Y-107522249D01*
G37*
D17*
X179701510Y-109130917D03*
D12*
G36*
X180072741Y-108087934D02*
G01*
X180744493Y-108759686D01*
X179330279Y-110173900D01*
X178658527Y-109502148D01*
X180072741Y-108087934D01*
X180072741Y-108087934D01*
G37*
D17*
X180267195Y-109696603D03*
D12*
G36*
X180638426Y-108653620D02*
G01*
X181310178Y-109325372D01*
X179895964Y-110739586D01*
X179224212Y-110067834D01*
X180638426Y-108653620D01*
X180638426Y-108653620D01*
G37*
D17*
X182317805Y-109696603D03*
D12*
G36*
X181274822Y-109325372D02*
G01*
X181946574Y-108653620D01*
X183360788Y-110067834D01*
X182689036Y-110739586D01*
X181274822Y-109325372D01*
X181274822Y-109325372D01*
G37*
D17*
X182883490Y-109130917D03*
D12*
G36*
X181840507Y-108759686D02*
G01*
X182512259Y-108087934D01*
X183926473Y-109502148D01*
X183254721Y-110173900D01*
X181840507Y-108759686D01*
X181840507Y-108759686D01*
G37*
D17*
X183449176Y-108565232D03*
D12*
G36*
X182406193Y-108194001D02*
G01*
X183077945Y-107522249D01*
X184492159Y-108936463D01*
X183820407Y-109608215D01*
X182406193Y-108194001D01*
X182406193Y-108194001D01*
G37*
D17*
X184014861Y-107999547D03*
D12*
G36*
X182971878Y-107628316D02*
G01*
X183643630Y-106956564D01*
X185057844Y-108370778D01*
X184386092Y-109042530D01*
X182971878Y-107628316D01*
X182971878Y-107628316D01*
G37*
D17*
X184580547Y-107433861D03*
D12*
G36*
X183537564Y-107062630D02*
G01*
X184209316Y-106390878D01*
X185623530Y-107805092D01*
X184951778Y-108476844D01*
X183537564Y-107062630D01*
X183537564Y-107062630D01*
G37*
D17*
X185146232Y-106868176D03*
D12*
G36*
X184103249Y-106496945D02*
G01*
X184775001Y-105825193D01*
X186189215Y-107239407D01*
X185517463Y-107911159D01*
X184103249Y-106496945D01*
X184103249Y-106496945D01*
G37*
D17*
X185711917Y-106302490D03*
D12*
G36*
X184668934Y-105931259D02*
G01*
X185340686Y-105259507D01*
X186754900Y-106673721D01*
X186083148Y-107345473D01*
X184668934Y-105931259D01*
X184668934Y-105931259D01*
G37*
D17*
X186277603Y-105736805D03*
D12*
G36*
X185234620Y-105365574D02*
G01*
X185906372Y-104693822D01*
X187320586Y-106108036D01*
X186648834Y-106779788D01*
X185234620Y-105365574D01*
X185234620Y-105365574D01*
G37*
D18*
X175178500Y-120015000D03*
X184358500Y-120015000D03*
X175242000Y-87249000D03*
X184422000Y-87249000D03*
D19*
X185216117Y-98516117D03*
D12*
G36*
X183961002Y-98427729D02*
G01*
X185127729Y-97261002D01*
X186471232Y-98604505D01*
X185304505Y-99771232D01*
X183961002Y-98427729D01*
X183961002Y-98427729D01*
G37*
D19*
X186983883Y-100283883D03*
D12*
G36*
X185728768Y-100195495D02*
G01*
X186895495Y-99028768D01*
X188238998Y-100372271D01*
X187072271Y-101538998D01*
X185728768Y-100195495D01*
X185728768Y-100195495D01*
G37*
D20*
X182753000Y-113483400D03*
X182753000Y-116183400D03*
D21*
X188087000Y-86741000D03*
X171958000Y-123190000D03*
D22*
X171831000Y-86423500D03*
D20*
X179578000Y-113521500D03*
X179578000Y-116221500D03*
D19*
X174716117Y-108316117D03*
D12*
G36*
X173461002Y-108227729D02*
G01*
X174627729Y-107061002D01*
X175971232Y-108404505D01*
X174804505Y-109571232D01*
X173461002Y-108227729D01*
X173461002Y-108227729D01*
G37*
D19*
X176483883Y-110083883D03*
D12*
G36*
X175228768Y-109995495D02*
G01*
X176395495Y-108828768D01*
X177738998Y-110172271D01*
X176572271Y-111338998D01*
X175228768Y-109995495D01*
X175228768Y-109995495D01*
G37*
D20*
X176606200Y-116230400D03*
X176606200Y-113530400D03*
M02*
