G04 #@! TF.GenerationSoftware,KiCad,Pcbnew,(5.1.4)-1*
G04 #@! TF.CreationDate,2019-11-23T20:11:14+01:00*
G04 #@! TF.ProjectId,HM-LC-SW1-BA-PCB_mini_MAX1724,484d2d4c-432d-4535-9731-2d42412d5043,rev?*
G04 #@! TF.SameCoordinates,Original*
G04 #@! TF.FileFunction,Soldermask,Bot*
G04 #@! TF.FilePolarity,Negative*
%FSLAX46Y46*%
G04 Gerber Fmt 4.6, Leading zero omitted, Abs format (unit mm)*
G04 Created by KiCad (PCBNEW (5.1.4)-1) date 2019-11-23 20:11:14*
%MOMM*%
%LPD*%
G04 APERTURE LIST*
%ADD10C,0.150000*%
%ADD11C,1.700000*%
%ADD12C,0.500000*%
%ADD13O,2.100000X2.100000*%
%ADD14R,1.600000X2.924000*%
%ADD15R,1.620000X1.050000*%
%ADD16R,3.400000X2.100000*%
%ADD17R,1.900000X1.650000*%
%ADD18C,2.600000*%
%ADD19R,1.750000X1.750000*%
G04 APERTURE END LIST*
D10*
G36*
X185605121Y-119676574D02*
G01*
X185636857Y-119681282D01*
X185667978Y-119689077D01*
X185698185Y-119699886D01*
X185727187Y-119713603D01*
X185754706Y-119730096D01*
X185780475Y-119749208D01*
X185804246Y-119770754D01*
X185825792Y-119794525D01*
X185844904Y-119820294D01*
X185861397Y-119847813D01*
X185875114Y-119876815D01*
X185885923Y-119907022D01*
X185893718Y-119938143D01*
X185898426Y-119969879D01*
X185900000Y-120001923D01*
X185900000Y-121048077D01*
X185898426Y-121080121D01*
X185893718Y-121111857D01*
X185885923Y-121142978D01*
X185875114Y-121173185D01*
X185861397Y-121202187D01*
X185844904Y-121229706D01*
X185825792Y-121255475D01*
X185804246Y-121279246D01*
X185780475Y-121300792D01*
X185754706Y-121319904D01*
X185727187Y-121336397D01*
X185698185Y-121350114D01*
X185667978Y-121360923D01*
X185636857Y-121368718D01*
X185605121Y-121373426D01*
X185573077Y-121375000D01*
X182426923Y-121375000D01*
X182394879Y-121373426D01*
X182363143Y-121368718D01*
X182332022Y-121360923D01*
X182301815Y-121350114D01*
X182272813Y-121336397D01*
X182245294Y-121319904D01*
X182219525Y-121300792D01*
X182195754Y-121279246D01*
X182174208Y-121255475D01*
X182155096Y-121229706D01*
X182138603Y-121202187D01*
X182124886Y-121173185D01*
X182114077Y-121142978D01*
X182106282Y-121111857D01*
X182101574Y-121080121D01*
X182100000Y-121048077D01*
X182100000Y-120001923D01*
X182101574Y-119969879D01*
X182106282Y-119938143D01*
X182114077Y-119907022D01*
X182124886Y-119876815D01*
X182138603Y-119847813D01*
X182155096Y-119820294D01*
X182174208Y-119794525D01*
X182195754Y-119770754D01*
X182219525Y-119749208D01*
X182245294Y-119730096D01*
X182272813Y-119713603D01*
X182301815Y-119699886D01*
X182332022Y-119689077D01*
X182363143Y-119681282D01*
X182394879Y-119676574D01*
X182426923Y-119675000D01*
X185573077Y-119675000D01*
X185605121Y-119676574D01*
X185605121Y-119676574D01*
G37*
D11*
X184000000Y-120525000D03*
D10*
G36*
X185605121Y-114351574D02*
G01*
X185636857Y-114356282D01*
X185667978Y-114364077D01*
X185698185Y-114374886D01*
X185727187Y-114388603D01*
X185754706Y-114405096D01*
X185780475Y-114424208D01*
X185804246Y-114445754D01*
X185825792Y-114469525D01*
X185844904Y-114495294D01*
X185861397Y-114522813D01*
X185875114Y-114551815D01*
X185885923Y-114582022D01*
X185893718Y-114613143D01*
X185898426Y-114644879D01*
X185900000Y-114676923D01*
X185900000Y-115723077D01*
X185898426Y-115755121D01*
X185893718Y-115786857D01*
X185885923Y-115817978D01*
X185875114Y-115848185D01*
X185861397Y-115877187D01*
X185844904Y-115904706D01*
X185825792Y-115930475D01*
X185804246Y-115954246D01*
X185780475Y-115975792D01*
X185754706Y-115994904D01*
X185727187Y-116011397D01*
X185698185Y-116025114D01*
X185667978Y-116035923D01*
X185636857Y-116043718D01*
X185605121Y-116048426D01*
X185573077Y-116050000D01*
X182426923Y-116050000D01*
X182394879Y-116048426D01*
X182363143Y-116043718D01*
X182332022Y-116035923D01*
X182301815Y-116025114D01*
X182272813Y-116011397D01*
X182245294Y-115994904D01*
X182219525Y-115975792D01*
X182195754Y-115954246D01*
X182174208Y-115930475D01*
X182155096Y-115904706D01*
X182138603Y-115877187D01*
X182124886Y-115848185D01*
X182114077Y-115817978D01*
X182106282Y-115786857D01*
X182101574Y-115755121D01*
X182100000Y-115723077D01*
X182100000Y-114676923D01*
X182101574Y-114644879D01*
X182106282Y-114613143D01*
X182114077Y-114582022D01*
X182124886Y-114551815D01*
X182138603Y-114522813D01*
X182155096Y-114495294D01*
X182174208Y-114469525D01*
X182195754Y-114445754D01*
X182219525Y-114424208D01*
X182245294Y-114405096D01*
X182272813Y-114388603D01*
X182301815Y-114374886D01*
X182332022Y-114364077D01*
X182363143Y-114356282D01*
X182394879Y-114351574D01*
X182426923Y-114350000D01*
X185573077Y-114350000D01*
X185605121Y-114351574D01*
X185605121Y-114351574D01*
G37*
D11*
X184000000Y-115200000D03*
D12*
X183450000Y-112650000D03*
D10*
G36*
X183443888Y-113599398D02*
G01*
X183425466Y-113599398D01*
X183405860Y-113598435D01*
X183357029Y-113593625D01*
X183337620Y-113590746D01*
X183289495Y-113581174D01*
X183270452Y-113576404D01*
X183223497Y-113562160D01*
X183205020Y-113555549D01*
X183159687Y-113536772D01*
X183141939Y-113528377D01*
X183098666Y-113505246D01*
X183081838Y-113495160D01*
X183041039Y-113467900D01*
X183025270Y-113456205D01*
X182987341Y-113425077D01*
X182972800Y-113411897D01*
X182938103Y-113377200D01*
X182924923Y-113362659D01*
X182893795Y-113324730D01*
X182882100Y-113308961D01*
X182854840Y-113268162D01*
X182844754Y-113251334D01*
X182821623Y-113208061D01*
X182813228Y-113190313D01*
X182794451Y-113144980D01*
X182787840Y-113126503D01*
X182773596Y-113079548D01*
X182768826Y-113060505D01*
X182759254Y-113012380D01*
X182756375Y-112992971D01*
X182751565Y-112944140D01*
X182750602Y-112924534D01*
X182750602Y-112906112D01*
X182750000Y-112900000D01*
X182750000Y-112400000D01*
X182750602Y-112393888D01*
X182750602Y-112375466D01*
X182751565Y-112355860D01*
X182756375Y-112307029D01*
X182759254Y-112287620D01*
X182768826Y-112239495D01*
X182773596Y-112220452D01*
X182787840Y-112173497D01*
X182794451Y-112155020D01*
X182813228Y-112109687D01*
X182821623Y-112091939D01*
X182844754Y-112048666D01*
X182854840Y-112031838D01*
X182882100Y-111991039D01*
X182893795Y-111975270D01*
X182924923Y-111937341D01*
X182938103Y-111922800D01*
X182972800Y-111888103D01*
X182987341Y-111874923D01*
X183025270Y-111843795D01*
X183041039Y-111832100D01*
X183081838Y-111804840D01*
X183098666Y-111794754D01*
X183141939Y-111771623D01*
X183159687Y-111763228D01*
X183205020Y-111744451D01*
X183223497Y-111737840D01*
X183270452Y-111723596D01*
X183289495Y-111718826D01*
X183337620Y-111709254D01*
X183357029Y-111706375D01*
X183405860Y-111701565D01*
X183425466Y-111700602D01*
X183443888Y-111700602D01*
X183450000Y-111700000D01*
X183950000Y-111700000D01*
X183989018Y-111703843D01*
X184026537Y-111715224D01*
X184061114Y-111733706D01*
X184091421Y-111758579D01*
X184116294Y-111788886D01*
X184134776Y-111823463D01*
X184146157Y-111860982D01*
X184150000Y-111900000D01*
X184150000Y-113400000D01*
X184146157Y-113439018D01*
X184134776Y-113476537D01*
X184116294Y-113511114D01*
X184091421Y-113541421D01*
X184061114Y-113566294D01*
X184026537Y-113584776D01*
X183989018Y-113596157D01*
X183950000Y-113600000D01*
X183450000Y-113600000D01*
X183443888Y-113599398D01*
X183443888Y-113599398D01*
G37*
D12*
X184750000Y-112650000D03*
D10*
G36*
X184210982Y-113596157D02*
G01*
X184173463Y-113584776D01*
X184138886Y-113566294D01*
X184108579Y-113541421D01*
X184083706Y-113511114D01*
X184065224Y-113476537D01*
X184053843Y-113439018D01*
X184050000Y-113400000D01*
X184050000Y-111900000D01*
X184053843Y-111860982D01*
X184065224Y-111823463D01*
X184083706Y-111788886D01*
X184108579Y-111758579D01*
X184138886Y-111733706D01*
X184173463Y-111715224D01*
X184210982Y-111703843D01*
X184250000Y-111700000D01*
X184750000Y-111700000D01*
X184756112Y-111700602D01*
X184774534Y-111700602D01*
X184794140Y-111701565D01*
X184842971Y-111706375D01*
X184862380Y-111709254D01*
X184910505Y-111718826D01*
X184929548Y-111723596D01*
X184976503Y-111737840D01*
X184994980Y-111744451D01*
X185040313Y-111763228D01*
X185058061Y-111771623D01*
X185101334Y-111794754D01*
X185118162Y-111804840D01*
X185158961Y-111832100D01*
X185174730Y-111843795D01*
X185212659Y-111874923D01*
X185227200Y-111888103D01*
X185261897Y-111922800D01*
X185275077Y-111937341D01*
X185306205Y-111975270D01*
X185317900Y-111991039D01*
X185345160Y-112031838D01*
X185355246Y-112048666D01*
X185378377Y-112091939D01*
X185386772Y-112109687D01*
X185405549Y-112155020D01*
X185412160Y-112173497D01*
X185426404Y-112220452D01*
X185431174Y-112239495D01*
X185440746Y-112287620D01*
X185443625Y-112307029D01*
X185448435Y-112355860D01*
X185449398Y-112375466D01*
X185449398Y-112393888D01*
X185450000Y-112400000D01*
X185450000Y-112900000D01*
X185449398Y-112906112D01*
X185449398Y-112924534D01*
X185448435Y-112944140D01*
X185443625Y-112992971D01*
X185440746Y-113012380D01*
X185431174Y-113060505D01*
X185426404Y-113079548D01*
X185412160Y-113126503D01*
X185405549Y-113144980D01*
X185386772Y-113190313D01*
X185378377Y-113208061D01*
X185355246Y-113251334D01*
X185345160Y-113268162D01*
X185317900Y-113308961D01*
X185306205Y-113324730D01*
X185275077Y-113362659D01*
X185261897Y-113377200D01*
X185227200Y-113411897D01*
X185212659Y-113425077D01*
X185174730Y-113456205D01*
X185158961Y-113467900D01*
X185118162Y-113495160D01*
X185101334Y-113505246D01*
X185058061Y-113528377D01*
X185040313Y-113536772D01*
X184994980Y-113555549D01*
X184976503Y-113562160D01*
X184929548Y-113576404D01*
X184910505Y-113581174D01*
X184862380Y-113590746D01*
X184842971Y-113593625D01*
X184794140Y-113598435D01*
X184774534Y-113599398D01*
X184756112Y-113599398D01*
X184750000Y-113600000D01*
X184250000Y-113600000D01*
X184210982Y-113596157D01*
X184210982Y-113596157D01*
G37*
D13*
X188658500Y-118681500D03*
X188658500Y-116141500D03*
X188658500Y-113601500D03*
D14*
X188610000Y-107282000D03*
X186610000Y-107282000D03*
X184610000Y-107282000D03*
X182610000Y-107282000D03*
X180610000Y-107282000D03*
X178610000Y-107282000D03*
X176610000Y-107282000D03*
X174610000Y-107282000D03*
X180610000Y-88282000D03*
X182610000Y-88282000D03*
X178610000Y-88282000D03*
D13*
X171300000Y-116140000D03*
X171300000Y-113600000D03*
D15*
X179610000Y-119150000D03*
X179610000Y-117250000D03*
X176990000Y-117250000D03*
X176990000Y-118200000D03*
X176990000Y-119150000D03*
D16*
X171410500Y-99441000D03*
X171410500Y-94361000D03*
X171410500Y-89281000D03*
X171386500Y-96901000D03*
X171386500Y-91821000D03*
D17*
X188448000Y-109880400D03*
X185948000Y-109880400D03*
D18*
X188087000Y-86741000D03*
X171958000Y-123190000D03*
D19*
X171831000Y-86423500D03*
D17*
X179650000Y-115200000D03*
X177150000Y-115200000D03*
X177150000Y-121000000D03*
X179650000Y-121000000D03*
M02*
