G04 #@! TF.GenerationSoftware,KiCad,Pcbnew,(5.1.4)-1*
G04 #@! TF.CreationDate,2019-11-23T20:11:14+01:00*
G04 #@! TF.ProjectId,HM-LC-SW1-BA-PCB_mini_MAX1724,484d2d4c-432d-4535-9731-2d42412d5043,rev?*
G04 #@! TF.SameCoordinates,Original*
G04 #@! TF.FileFunction,Legend,Top*
G04 #@! TF.FilePolarity,Positive*
%FSLAX46Y46*%
G04 Gerber Fmt 4.6, Leading zero omitted, Abs format (unit mm)*
G04 Created by KiCad (PCBNEW (5.1.4)-1) date 2019-11-23 20:11:14*
%MOMM*%
%LPD*%
G04 APERTURE LIST*
%ADD10C,0.150000*%
%ADD11C,0.125000*%
%ADD12C,0.350000*%
%ADD13C,0.200000*%
%ADD14C,0.100000*%
%ADD15C,0.120000*%
G04 APERTURE END LIST*
D10*
X176233333Y-124150000D02*
X176200000Y-124183333D01*
X176100000Y-124216666D01*
X176033333Y-124216666D01*
X175933333Y-124183333D01*
X175866666Y-124116666D01*
X175833333Y-124050000D01*
X175800000Y-123916666D01*
X175800000Y-123816666D01*
X175833333Y-123683333D01*
X175866666Y-123616666D01*
X175933333Y-123550000D01*
X176033333Y-123516666D01*
X176100000Y-123516666D01*
X176200000Y-123550000D01*
X176233333Y-123583333D01*
X176933333Y-124150000D02*
X176900000Y-124183333D01*
X176800000Y-124216666D01*
X176733333Y-124216666D01*
X176633333Y-124183333D01*
X176566666Y-124116666D01*
X176533333Y-124050000D01*
X176500000Y-123916666D01*
X176500000Y-123816666D01*
X176533333Y-123683333D01*
X176566666Y-123616666D01*
X176633333Y-123550000D01*
X176733333Y-123516666D01*
X176800000Y-123516666D01*
X176900000Y-123550000D01*
X176933333Y-123583333D01*
X178000000Y-123850000D02*
X178100000Y-123883333D01*
X178133333Y-123916666D01*
X178166666Y-123983333D01*
X178166666Y-124083333D01*
X178133333Y-124150000D01*
X178100000Y-124183333D01*
X178033333Y-124216666D01*
X177766666Y-124216666D01*
X177766666Y-123516666D01*
X178000000Y-123516666D01*
X178066666Y-123550000D01*
X178100000Y-123583333D01*
X178133333Y-123650000D01*
X178133333Y-123716666D01*
X178100000Y-123783333D01*
X178066666Y-123816666D01*
X178000000Y-123850000D01*
X177766666Y-123850000D01*
X178600000Y-123883333D02*
X178600000Y-124216666D01*
X178366666Y-123516666D02*
X178600000Y-123883333D01*
X178833333Y-123516666D01*
X179066666Y-123950000D02*
X179600000Y-123950000D01*
X179933333Y-124216666D02*
X179933333Y-123516666D01*
X180333333Y-124216666D01*
X180333333Y-123516666D01*
X181066666Y-124150000D02*
X181033333Y-124183333D01*
X180933333Y-124216666D01*
X180866666Y-124216666D01*
X180766666Y-124183333D01*
X180700000Y-124116666D01*
X180666666Y-124050000D01*
X180633333Y-123916666D01*
X180633333Y-123816666D01*
X180666666Y-123683333D01*
X180700000Y-123616666D01*
X180766666Y-123550000D01*
X180866666Y-123516666D01*
X180933333Y-123516666D01*
X181033333Y-123550000D01*
X181066666Y-123583333D01*
X181366666Y-123950000D02*
X181900000Y-123950000D01*
X182200000Y-124183333D02*
X182300000Y-124216666D01*
X182466666Y-124216666D01*
X182533333Y-124183333D01*
X182566666Y-124150000D01*
X182600000Y-124083333D01*
X182600000Y-124016666D01*
X182566666Y-123950000D01*
X182533333Y-123916666D01*
X182466666Y-123883333D01*
X182333333Y-123850000D01*
X182266666Y-123816666D01*
X182233333Y-123783333D01*
X182200000Y-123716666D01*
X182200000Y-123650000D01*
X182233333Y-123583333D01*
X182266666Y-123550000D01*
X182333333Y-123516666D01*
X182500000Y-123516666D01*
X182600000Y-123550000D01*
X182866666Y-124016666D02*
X183200000Y-124016666D01*
X182800000Y-124216666D02*
X183033333Y-123516666D01*
X183266666Y-124216666D01*
X184333333Y-123750000D02*
X184333333Y-124216666D01*
X184166666Y-123483333D02*
X184000000Y-123983333D01*
X184433333Y-123983333D01*
X184700000Y-124150000D02*
X184733333Y-124183333D01*
X184700000Y-124216666D01*
X184666666Y-124183333D01*
X184700000Y-124150000D01*
X184700000Y-124216666D01*
X185166666Y-123516666D02*
X185233333Y-123516666D01*
X185300000Y-123550000D01*
X185333333Y-123583333D01*
X185366666Y-123650000D01*
X185400000Y-123783333D01*
X185400000Y-123950000D01*
X185366666Y-124083333D01*
X185333333Y-124150000D01*
X185300000Y-124183333D01*
X185233333Y-124216666D01*
X185166666Y-124216666D01*
X185100000Y-124183333D01*
X185066666Y-124150000D01*
X185033333Y-124083333D01*
X185000000Y-123950000D01*
X185000000Y-123783333D01*
X185033333Y-123650000D01*
X185066666Y-123583333D01*
X185100000Y-123550000D01*
X185166666Y-123516666D01*
D11*
X178688095Y-97426190D02*
X179021428Y-97926190D01*
X179021428Y-97426190D02*
X178688095Y-97926190D01*
X179140476Y-97426190D02*
X179426190Y-97426190D01*
X179283333Y-97926190D02*
X179283333Y-97426190D01*
X179569047Y-97783333D02*
X179807142Y-97783333D01*
X179521428Y-97926190D02*
X179688095Y-97426190D01*
X179854761Y-97926190D01*
X180259523Y-97926190D02*
X180021428Y-97926190D01*
X180021428Y-97426190D01*
X180688095Y-97926190D02*
X180402380Y-97926190D01*
X180545238Y-97926190D02*
X180545238Y-97426190D01*
X180497619Y-97497619D01*
X180450000Y-97545238D01*
X180402380Y-97569047D01*
D12*
X187500000Y-104700000D02*
G75*
G03X187500000Y-104700000I-100000J0D01*
G01*
D13*
X172971428Y-113930952D02*
X172971428Y-113169047D01*
X172971428Y-116530952D02*
X172971428Y-115769047D01*
X173352380Y-116150000D02*
X172590476Y-116150000D01*
D14*
X171621428Y-111683333D02*
X171021428Y-111683333D01*
X171307142Y-111683333D02*
X171307142Y-111397619D01*
X171621428Y-111397619D02*
X171021428Y-111397619D01*
X171621428Y-111159523D02*
X171021428Y-111159523D01*
X171450000Y-110992857D01*
X171021428Y-110826190D01*
X171621428Y-110826190D01*
X171392857Y-110588095D02*
X171392857Y-110207142D01*
X171621428Y-109730952D02*
X171621428Y-109969047D01*
X171021428Y-109969047D01*
X171564285Y-109278571D02*
X171592857Y-109302380D01*
X171621428Y-109373809D01*
X171621428Y-109421428D01*
X171592857Y-109492857D01*
X171535714Y-109540476D01*
X171478571Y-109564285D01*
X171364285Y-109588095D01*
X171278571Y-109588095D01*
X171164285Y-109564285D01*
X171107142Y-109540476D01*
X171050000Y-109492857D01*
X171021428Y-109421428D01*
X171021428Y-109373809D01*
X171050000Y-109302380D01*
X171078571Y-109278571D01*
X171392857Y-109064285D02*
X171392857Y-108683333D01*
X171592857Y-108469047D02*
X171621428Y-108397619D01*
X171621428Y-108278571D01*
X171592857Y-108230952D01*
X171564285Y-108207142D01*
X171507142Y-108183333D01*
X171450000Y-108183333D01*
X171392857Y-108207142D01*
X171364285Y-108230952D01*
X171335714Y-108278571D01*
X171307142Y-108373809D01*
X171278571Y-108421428D01*
X171250000Y-108445238D01*
X171192857Y-108469047D01*
X171135714Y-108469047D01*
X171078571Y-108445238D01*
X171050000Y-108421428D01*
X171021428Y-108373809D01*
X171021428Y-108254761D01*
X171050000Y-108183333D01*
X171021428Y-108016666D02*
X171621428Y-107897619D01*
X171192857Y-107802380D01*
X171621428Y-107707142D01*
X171021428Y-107588095D01*
X171621428Y-107135714D02*
X171621428Y-107421428D01*
X171621428Y-107278571D02*
X171021428Y-107278571D01*
X171107142Y-107326190D01*
X171164285Y-107373809D01*
X171192857Y-107421428D01*
X171392857Y-106921428D02*
X171392857Y-106540476D01*
X171307142Y-106135714D02*
X171335714Y-106064285D01*
X171364285Y-106040476D01*
X171421428Y-106016666D01*
X171507142Y-106016666D01*
X171564285Y-106040476D01*
X171592857Y-106064285D01*
X171621428Y-106111904D01*
X171621428Y-106302380D01*
X171021428Y-106302380D01*
X171021428Y-106135714D01*
X171050000Y-106088095D01*
X171078571Y-106064285D01*
X171135714Y-106040476D01*
X171192857Y-106040476D01*
X171250000Y-106064285D01*
X171278571Y-106088095D01*
X171307142Y-106135714D01*
X171307142Y-106302380D01*
X171450000Y-105826190D02*
X171450000Y-105588095D01*
X171621428Y-105873809D02*
X171021428Y-105707142D01*
X171621428Y-105540476D01*
X171392857Y-105373809D02*
X171392857Y-104992857D01*
X171621428Y-104754761D02*
X171021428Y-104754761D01*
X171021428Y-104564285D01*
X171050000Y-104516666D01*
X171078571Y-104492857D01*
X171135714Y-104469047D01*
X171221428Y-104469047D01*
X171278571Y-104492857D01*
X171307142Y-104516666D01*
X171335714Y-104564285D01*
X171335714Y-104754761D01*
X171564285Y-103969047D02*
X171592857Y-103992857D01*
X171621428Y-104064285D01*
X171621428Y-104111904D01*
X171592857Y-104183333D01*
X171535714Y-104230952D01*
X171478571Y-104254761D01*
X171364285Y-104278571D01*
X171278571Y-104278571D01*
X171164285Y-104254761D01*
X171107142Y-104230952D01*
X171050000Y-104183333D01*
X171021428Y-104111904D01*
X171021428Y-104064285D01*
X171050000Y-103992857D01*
X171078571Y-103969047D01*
X171307142Y-103588095D02*
X171335714Y-103516666D01*
X171364285Y-103492857D01*
X171421428Y-103469047D01*
X171507142Y-103469047D01*
X171564285Y-103492857D01*
X171592857Y-103516666D01*
X171621428Y-103564285D01*
X171621428Y-103754761D01*
X171021428Y-103754761D01*
X171021428Y-103588095D01*
X171050000Y-103540476D01*
X171078571Y-103516666D01*
X171135714Y-103492857D01*
X171192857Y-103492857D01*
X171250000Y-103516666D01*
X171278571Y-103540476D01*
X171307142Y-103588095D01*
X171307142Y-103754761D01*
X171678571Y-103373809D02*
X171678571Y-102992857D01*
X171621428Y-102873809D02*
X171221428Y-102873809D01*
X171278571Y-102873809D02*
X171250000Y-102850000D01*
X171221428Y-102802380D01*
X171221428Y-102730952D01*
X171250000Y-102683333D01*
X171307142Y-102659523D01*
X171621428Y-102659523D01*
X171307142Y-102659523D02*
X171250000Y-102635714D01*
X171221428Y-102588095D01*
X171221428Y-102516666D01*
X171250000Y-102469047D01*
X171307142Y-102445238D01*
X171621428Y-102445238D01*
X171621428Y-102207142D02*
X171221428Y-102207142D01*
X171021428Y-102207142D02*
X171050000Y-102230952D01*
X171078571Y-102207142D01*
X171050000Y-102183333D01*
X171021428Y-102207142D01*
X171078571Y-102207142D01*
X171221428Y-101969047D02*
X171621428Y-101969047D01*
X171278571Y-101969047D02*
X171250000Y-101945238D01*
X171221428Y-101897619D01*
X171221428Y-101826190D01*
X171250000Y-101778571D01*
X171307142Y-101754761D01*
X171621428Y-101754761D01*
X171621428Y-101516666D02*
X171221428Y-101516666D01*
X171021428Y-101516666D02*
X171050000Y-101540476D01*
X171078571Y-101516666D01*
X171050000Y-101492857D01*
X171021428Y-101516666D01*
X171078571Y-101516666D01*
X172592857Y-110992857D02*
X172621428Y-110921428D01*
X172621428Y-110802380D01*
X172592857Y-110754761D01*
X172564285Y-110730952D01*
X172507142Y-110707142D01*
X172450000Y-110707142D01*
X172392857Y-110730952D01*
X172364285Y-110754761D01*
X172335714Y-110802380D01*
X172307142Y-110897619D01*
X172278571Y-110945238D01*
X172250000Y-110969047D01*
X172192857Y-110992857D01*
X172135714Y-110992857D01*
X172078571Y-110969047D01*
X172050000Y-110945238D01*
X172021428Y-110897619D01*
X172021428Y-110778571D01*
X172050000Y-110707142D01*
X172221428Y-110564285D02*
X172221428Y-110373809D01*
X172021428Y-110492857D02*
X172535714Y-110492857D01*
X172592857Y-110469047D01*
X172621428Y-110421428D01*
X172621428Y-110373809D01*
X172592857Y-110016666D02*
X172621428Y-110064285D01*
X172621428Y-110159523D01*
X172592857Y-110207142D01*
X172535714Y-110230952D01*
X172307142Y-110230952D01*
X172250000Y-110207142D01*
X172221428Y-110159523D01*
X172221428Y-110064285D01*
X172250000Y-110016666D01*
X172307142Y-109992857D01*
X172364285Y-109992857D01*
X172421428Y-110230952D01*
X172221428Y-109778571D02*
X172821428Y-109778571D01*
X172250000Y-109778571D02*
X172221428Y-109730952D01*
X172221428Y-109635714D01*
X172250000Y-109588095D01*
X172278571Y-109564285D01*
X172335714Y-109540476D01*
X172507142Y-109540476D01*
X172564285Y-109564285D01*
X172592857Y-109588095D01*
X172621428Y-109635714D01*
X172621428Y-109730952D01*
X172592857Y-109778571D01*
X172021428Y-109326190D02*
X172507142Y-109326190D01*
X172564285Y-109302380D01*
X172592857Y-109278571D01*
X172621428Y-109230952D01*
X172621428Y-109135714D01*
X172592857Y-109088095D01*
X172564285Y-109064285D01*
X172507142Y-109040476D01*
X172021428Y-109040476D01*
X172221428Y-108802380D02*
X172821428Y-108802380D01*
X172250000Y-108802380D02*
X172221428Y-108754761D01*
X172221428Y-108659523D01*
X172250000Y-108611904D01*
X172278571Y-108588095D01*
X172335714Y-108564285D01*
X172507142Y-108564285D01*
X172564285Y-108588095D01*
X172592857Y-108611904D01*
X172621428Y-108659523D01*
X172621428Y-108754761D01*
X172592857Y-108802380D01*
X171992857Y-107992857D02*
X172764285Y-108421428D01*
X172592857Y-107635714D02*
X172621428Y-107683333D01*
X172621428Y-107778571D01*
X172592857Y-107826190D01*
X172535714Y-107850000D01*
X172307142Y-107850000D01*
X172250000Y-107826190D01*
X172221428Y-107778571D01*
X172221428Y-107683333D01*
X172250000Y-107635714D01*
X172307142Y-107611904D01*
X172364285Y-107611904D01*
X172421428Y-107850000D01*
X172621428Y-107445238D02*
X172221428Y-107183333D01*
X172221428Y-107445238D02*
X172621428Y-107183333D01*
X172221428Y-107064285D02*
X172221428Y-106873809D01*
X172021428Y-106992857D02*
X172535714Y-106992857D01*
X172592857Y-106969047D01*
X172621428Y-106921428D01*
X172621428Y-106873809D01*
X172564285Y-106707142D02*
X172592857Y-106683333D01*
X172621428Y-106707142D01*
X172592857Y-106730952D01*
X172564285Y-106707142D01*
X172621428Y-106707142D01*
X172307142Y-105921428D02*
X172335714Y-105850000D01*
X172364285Y-105826190D01*
X172421428Y-105802380D01*
X172507142Y-105802380D01*
X172564285Y-105826190D01*
X172592857Y-105850000D01*
X172621428Y-105897619D01*
X172621428Y-106088095D01*
X172021428Y-106088095D01*
X172021428Y-105921428D01*
X172050000Y-105873809D01*
X172078571Y-105850000D01*
X172135714Y-105826190D01*
X172192857Y-105826190D01*
X172250000Y-105850000D01*
X172278571Y-105873809D01*
X172307142Y-105921428D01*
X172307142Y-106088095D01*
X172621428Y-105373809D02*
X172307142Y-105373809D01*
X172250000Y-105397619D01*
X172221428Y-105445238D01*
X172221428Y-105540476D01*
X172250000Y-105588095D01*
X172592857Y-105373809D02*
X172621428Y-105421428D01*
X172621428Y-105540476D01*
X172592857Y-105588095D01*
X172535714Y-105611904D01*
X172478571Y-105611904D01*
X172421428Y-105588095D01*
X172392857Y-105540476D01*
X172392857Y-105421428D01*
X172364285Y-105373809D01*
X172221428Y-105207142D02*
X172221428Y-105016666D01*
X172021428Y-105135714D02*
X172535714Y-105135714D01*
X172592857Y-105111904D01*
X172621428Y-105064285D01*
X172621428Y-105016666D01*
X172221428Y-104921428D02*
X172221428Y-104730952D01*
X172021428Y-104850000D02*
X172535714Y-104850000D01*
X172592857Y-104826190D01*
X172621428Y-104778571D01*
X172621428Y-104730952D01*
X172621428Y-104183333D02*
X172221428Y-104183333D01*
X172278571Y-104183333D02*
X172250000Y-104159523D01*
X172221428Y-104111904D01*
X172221428Y-104040476D01*
X172250000Y-103992857D01*
X172307142Y-103969047D01*
X172621428Y-103969047D01*
X172307142Y-103969047D02*
X172250000Y-103945238D01*
X172221428Y-103897619D01*
X172221428Y-103826190D01*
X172250000Y-103778571D01*
X172307142Y-103754761D01*
X172621428Y-103754761D01*
X172592857Y-103326190D02*
X172621428Y-103373809D01*
X172621428Y-103469047D01*
X172592857Y-103516666D01*
X172535714Y-103540476D01*
X172307142Y-103540476D01*
X172250000Y-103516666D01*
X172221428Y-103469047D01*
X172221428Y-103373809D01*
X172250000Y-103326190D01*
X172307142Y-103302380D01*
X172364285Y-103302380D01*
X172421428Y-103540476D01*
X172621428Y-102873809D02*
X172307142Y-102873809D01*
X172250000Y-102897619D01*
X172221428Y-102945238D01*
X172221428Y-103040476D01*
X172250000Y-103088095D01*
X172592857Y-102873809D02*
X172621428Y-102921428D01*
X172621428Y-103040476D01*
X172592857Y-103088095D01*
X172535714Y-103111904D01*
X172478571Y-103111904D01*
X172421428Y-103088095D01*
X172392857Y-103040476D01*
X172392857Y-102921428D01*
X172364285Y-102873809D01*
X172592857Y-102659523D02*
X172621428Y-102611904D01*
X172621428Y-102516666D01*
X172592857Y-102469047D01*
X172535714Y-102445238D01*
X172507142Y-102445238D01*
X172450000Y-102469047D01*
X172421428Y-102516666D01*
X172421428Y-102588095D01*
X172392857Y-102635714D01*
X172335714Y-102659523D01*
X172307142Y-102659523D01*
X172250000Y-102635714D01*
X172221428Y-102588095D01*
X172221428Y-102516666D01*
X172250000Y-102469047D01*
X172564285Y-102230952D02*
X172592857Y-102207142D01*
X172621428Y-102230952D01*
X172592857Y-102254761D01*
X172564285Y-102230952D01*
X172621428Y-102230952D01*
X173021428Y-107361904D02*
X173621428Y-107195238D01*
X173021428Y-107028571D01*
X173021428Y-106766666D02*
X173021428Y-106719047D01*
X173050000Y-106671428D01*
X173078571Y-106647619D01*
X173135714Y-106623809D01*
X173250000Y-106600000D01*
X173392857Y-106600000D01*
X173507142Y-106623809D01*
X173564285Y-106647619D01*
X173592857Y-106671428D01*
X173621428Y-106719047D01*
X173621428Y-106766666D01*
X173592857Y-106814285D01*
X173564285Y-106838095D01*
X173507142Y-106861904D01*
X173392857Y-106885714D01*
X173250000Y-106885714D01*
X173135714Y-106861904D01*
X173078571Y-106838095D01*
X173050000Y-106814285D01*
X173021428Y-106766666D01*
X173564285Y-106385714D02*
X173592857Y-106361904D01*
X173621428Y-106385714D01*
X173592857Y-106409523D01*
X173564285Y-106385714D01*
X173621428Y-106385714D01*
X173621428Y-105885714D02*
X173621428Y-106171428D01*
X173621428Y-106028571D02*
X173021428Y-106028571D01*
X173107142Y-106076190D01*
X173164285Y-106123809D01*
X173192857Y-106171428D01*
X186871428Y-114279285D02*
X187471428Y-114079285D01*
X186871428Y-113879285D01*
X187471428Y-113679285D02*
X187071428Y-113679285D01*
X186871428Y-113679285D02*
X186900000Y-113707857D01*
X186928571Y-113679285D01*
X186900000Y-113650714D01*
X186871428Y-113679285D01*
X186928571Y-113679285D01*
X187071428Y-113393571D02*
X187471428Y-113393571D01*
X187128571Y-113393571D02*
X187100000Y-113365000D01*
X187071428Y-113307857D01*
X187071428Y-113222142D01*
X187100000Y-113165000D01*
X187157142Y-113136428D01*
X187471428Y-113136428D01*
X187300000Y-119110071D02*
X187300000Y-118824357D01*
X187471428Y-119167214D02*
X186871428Y-118967214D01*
X187471428Y-118767214D01*
X186871428Y-118452928D02*
X186871428Y-118395785D01*
X186900000Y-118338642D01*
X186928571Y-118310071D01*
X186985714Y-118281500D01*
X187100000Y-118252928D01*
X187242857Y-118252928D01*
X187357142Y-118281500D01*
X187414285Y-118310071D01*
X187442857Y-118338642D01*
X187471428Y-118395785D01*
X187471428Y-118452928D01*
X187442857Y-118510071D01*
X187414285Y-118538642D01*
X187357142Y-118567214D01*
X187242857Y-118595785D01*
X187100000Y-118595785D01*
X186985714Y-118567214D01*
X186928571Y-118538642D01*
X186900000Y-118510071D01*
X186871428Y-118452928D01*
X186900000Y-116657142D02*
X186871428Y-116714285D01*
X186871428Y-116800000D01*
X186900000Y-116885714D01*
X186957142Y-116942857D01*
X187014285Y-116971428D01*
X187128571Y-117000000D01*
X187214285Y-117000000D01*
X187328571Y-116971428D01*
X187385714Y-116942857D01*
X187442857Y-116885714D01*
X187471428Y-116800000D01*
X187471428Y-116742857D01*
X187442857Y-116657142D01*
X187414285Y-116628571D01*
X187214285Y-116628571D01*
X187214285Y-116742857D01*
X187471428Y-116371428D02*
X186871428Y-116371428D01*
X187471428Y-116028571D01*
X186871428Y-116028571D01*
X187471428Y-115742857D02*
X186871428Y-115742857D01*
X186871428Y-115600000D01*
X186900000Y-115514285D01*
X186957142Y-115457142D01*
X187014285Y-115428571D01*
X187128571Y-115400000D01*
X187214285Y-115400000D01*
X187328571Y-115428571D01*
X187385714Y-115457142D01*
X187442857Y-115514285D01*
X187471428Y-115600000D01*
X187471428Y-115742857D01*
X173532857Y-99141000D02*
X173475714Y-99112428D01*
X173390000Y-99112428D01*
X173304285Y-99141000D01*
X173247142Y-99198142D01*
X173218571Y-99255285D01*
X173190000Y-99369571D01*
X173190000Y-99455285D01*
X173218571Y-99569571D01*
X173247142Y-99626714D01*
X173304285Y-99683857D01*
X173390000Y-99712428D01*
X173447142Y-99712428D01*
X173532857Y-99683857D01*
X173561428Y-99655285D01*
X173561428Y-99455285D01*
X173447142Y-99455285D01*
X173818571Y-99712428D02*
X173818571Y-99112428D01*
X174161428Y-99712428D01*
X174161428Y-99112428D01*
X174447142Y-99712428D02*
X174447142Y-99112428D01*
X174590000Y-99112428D01*
X174675714Y-99141000D01*
X174732857Y-99198142D01*
X174761428Y-99255285D01*
X174790000Y-99369571D01*
X174790000Y-99455285D01*
X174761428Y-99569571D01*
X174732857Y-99626714D01*
X174675714Y-99683857D01*
X174590000Y-99712428D01*
X174447142Y-99712428D01*
X173532857Y-96601000D02*
X173475714Y-96572428D01*
X173390000Y-96572428D01*
X173304285Y-96601000D01*
X173247142Y-96658142D01*
X173218571Y-96715285D01*
X173190000Y-96829571D01*
X173190000Y-96915285D01*
X173218571Y-97029571D01*
X173247142Y-97086714D01*
X173304285Y-97143857D01*
X173390000Y-97172428D01*
X173447142Y-97172428D01*
X173532857Y-97143857D01*
X173561428Y-97115285D01*
X173561428Y-96915285D01*
X173447142Y-96915285D01*
X173818571Y-97172428D02*
X173818571Y-96572428D01*
X174161428Y-97172428D01*
X174161428Y-96572428D01*
X174447142Y-97172428D02*
X174447142Y-96572428D01*
X174590000Y-96572428D01*
X174675714Y-96601000D01*
X174732857Y-96658142D01*
X174761428Y-96715285D01*
X174790000Y-96829571D01*
X174790000Y-96915285D01*
X174761428Y-97029571D01*
X174732857Y-97086714D01*
X174675714Y-97143857D01*
X174590000Y-97172428D01*
X174447142Y-97172428D01*
X173590000Y-94632428D02*
X173390000Y-94346714D01*
X173247142Y-94632428D02*
X173247142Y-94032428D01*
X173475714Y-94032428D01*
X173532857Y-94061000D01*
X173561428Y-94089571D01*
X173590000Y-94146714D01*
X173590000Y-94232428D01*
X173561428Y-94289571D01*
X173532857Y-94318142D01*
X173475714Y-94346714D01*
X173247142Y-94346714D01*
X173790000Y-94032428D02*
X174190000Y-94632428D01*
X174190000Y-94032428D02*
X173790000Y-94632428D01*
X174418571Y-94632428D02*
X174418571Y-94032428D01*
X174561428Y-94032428D01*
X174647142Y-94061000D01*
X174704285Y-94118142D01*
X174732857Y-94175285D01*
X174761428Y-94289571D01*
X174761428Y-94375285D01*
X174732857Y-94489571D01*
X174704285Y-94546714D01*
X174647142Y-94603857D01*
X174561428Y-94632428D01*
X174418571Y-94632428D01*
X173232857Y-91492428D02*
X173575714Y-91492428D01*
X173404285Y-92092428D02*
X173404285Y-91492428D01*
X173718571Y-91492428D02*
X174118571Y-92092428D01*
X174118571Y-91492428D02*
X173718571Y-92092428D01*
X174347142Y-92092428D02*
X174347142Y-91492428D01*
X174490000Y-91492428D01*
X174575714Y-91521000D01*
X174632857Y-91578142D01*
X174661428Y-91635285D01*
X174690000Y-91749571D01*
X174690000Y-91835285D01*
X174661428Y-91949571D01*
X174632857Y-92006714D01*
X174575714Y-92063857D01*
X174490000Y-92092428D01*
X174347142Y-92092428D01*
X173190000Y-89079428D02*
X173390000Y-89679428D01*
X173590000Y-89079428D01*
X174132857Y-89622285D02*
X174104285Y-89650857D01*
X174018571Y-89679428D01*
X173961428Y-89679428D01*
X173875714Y-89650857D01*
X173818571Y-89593714D01*
X173790000Y-89536571D01*
X173761428Y-89422285D01*
X173761428Y-89336571D01*
X173790000Y-89222285D01*
X173818571Y-89165142D01*
X173875714Y-89108000D01*
X173961428Y-89079428D01*
X174018571Y-89079428D01*
X174104285Y-89108000D01*
X174132857Y-89136571D01*
X174732857Y-89622285D02*
X174704285Y-89650857D01*
X174618571Y-89679428D01*
X174561428Y-89679428D01*
X174475714Y-89650857D01*
X174418571Y-89593714D01*
X174390000Y-89536571D01*
X174361428Y-89422285D01*
X174361428Y-89336571D01*
X174390000Y-89222285D01*
X174418571Y-89165142D01*
X174475714Y-89108000D01*
X174561428Y-89079428D01*
X174618571Y-89079428D01*
X174704285Y-89108000D01*
X174732857Y-89136571D01*
D15*
X181800000Y-98100000D02*
G75*
G03X181800000Y-98100000I-500000J0D01*
G01*
X181761252Y-91590000D02*
X181238748Y-91590000D01*
X181761252Y-93010000D02*
X181238748Y-93010000D01*
X181238748Y-95610000D02*
X181761252Y-95610000D01*
X181238748Y-94190000D02*
X181761252Y-94190000D01*
X175920000Y-94360000D02*
X175920000Y-92900000D01*
X179080000Y-94360000D02*
X179080000Y-92200000D01*
X179080000Y-94360000D02*
X178150000Y-94360000D01*
X175920000Y-94360000D02*
X176850000Y-94360000D01*
X184890000Y-93838748D02*
X184890000Y-94361252D01*
X186310000Y-93838748D02*
X186310000Y-94361252D01*
X189560000Y-88765000D02*
X185500000Y-88765000D01*
X189560000Y-91035000D02*
X189560000Y-88765000D01*
X185500000Y-91035000D02*
X189560000Y-91035000D01*
D10*
X186419024Y-104711500D02*
X186259925Y-104552401D01*
X181292500Y-109838024D02*
X181062690Y-109608214D01*
X176165976Y-104711500D02*
X176395786Y-104941310D01*
X181292500Y-99584976D02*
X181522310Y-99814786D01*
X186419024Y-104711500D02*
X186189214Y-104941310D01*
X181292500Y-99584976D02*
X181062690Y-99814786D01*
X176165976Y-104711500D02*
X176395786Y-104481690D01*
X181292500Y-109838024D02*
X181522310Y-109608214D01*
X186259925Y-104552401D02*
X187267552Y-103544774D01*
D15*
X182828500Y-118205000D02*
X182828500Y-121825000D01*
X176708500Y-118205000D02*
X182828500Y-118205000D01*
X176708500Y-121825000D02*
X176708500Y-118205000D01*
X182828500Y-121825000D02*
X176708500Y-121825000D01*
X176772000Y-85439000D02*
X182892000Y-85439000D01*
X182892000Y-85439000D02*
X182892000Y-89059000D01*
X182892000Y-89059000D02*
X176772000Y-89059000D01*
X176772000Y-89059000D02*
X176772000Y-85439000D01*
X187054594Y-99152513D02*
X186347487Y-98445406D01*
X185145406Y-99647487D02*
X185852513Y-100354594D01*
X181873000Y-115433400D02*
X181873000Y-114233400D01*
X183633000Y-114233400D02*
X183633000Y-115433400D01*
X170771000Y-87423500D02*
X170771000Y-87483500D01*
X170771000Y-87483500D02*
X172891000Y-87483500D01*
X172891000Y-87483500D02*
X172891000Y-87423500D01*
X172891000Y-87423500D02*
X170771000Y-87423500D01*
X170771000Y-86423500D02*
X170771000Y-85363500D01*
X170771000Y-85363500D02*
X171831000Y-85363500D01*
X178698000Y-115471500D02*
X178698000Y-114271500D01*
X180458000Y-114271500D02*
X180458000Y-115471500D01*
X176554594Y-108952513D02*
X175847487Y-108245406D01*
X174645406Y-109447487D02*
X175352513Y-110154594D01*
X177486200Y-114280400D02*
X177486200Y-115480400D01*
X175726200Y-115480400D02*
X175726200Y-114280400D01*
D10*
X181466666Y-91261904D02*
X181200000Y-90880952D01*
X181009523Y-91261904D02*
X181009523Y-90461904D01*
X181314285Y-90461904D01*
X181390476Y-90500000D01*
X181428571Y-90538095D01*
X181466666Y-90614285D01*
X181466666Y-90728571D01*
X181428571Y-90804761D01*
X181390476Y-90842857D01*
X181314285Y-90880952D01*
X181009523Y-90880952D01*
X182152380Y-90461904D02*
X182000000Y-90461904D01*
X181923809Y-90500000D01*
X181885714Y-90538095D01*
X181809523Y-90652380D01*
X181771428Y-90804761D01*
X181771428Y-91109523D01*
X181809523Y-91185714D01*
X181847619Y-91223809D01*
X181923809Y-91261904D01*
X182076190Y-91261904D01*
X182152380Y-91223809D01*
X182190476Y-91185714D01*
X182228571Y-91109523D01*
X182228571Y-90919047D01*
X182190476Y-90842857D01*
X182152380Y-90804761D01*
X182076190Y-90766666D01*
X181923809Y-90766666D01*
X181847619Y-90804761D01*
X181809523Y-90842857D01*
X181771428Y-90919047D01*
X181366666Y-96661904D02*
X181100000Y-96280952D01*
X180909523Y-96661904D02*
X180909523Y-95861904D01*
X181214285Y-95861904D01*
X181290476Y-95900000D01*
X181328571Y-95938095D01*
X181366666Y-96014285D01*
X181366666Y-96128571D01*
X181328571Y-96204761D01*
X181290476Y-96242857D01*
X181214285Y-96280952D01*
X180909523Y-96280952D01*
X181633333Y-95861904D02*
X182128571Y-95861904D01*
X181861904Y-96166666D01*
X181976190Y-96166666D01*
X182052380Y-96204761D01*
X182090476Y-96242857D01*
X182128571Y-96319047D01*
X182128571Y-96509523D01*
X182090476Y-96585714D01*
X182052380Y-96623809D01*
X181976190Y-96661904D01*
X181747619Y-96661904D01*
X181671428Y-96623809D01*
X181633333Y-96585714D01*
X177523809Y-91838095D02*
X177447619Y-91800000D01*
X177371428Y-91723809D01*
X177257142Y-91609523D01*
X177180952Y-91571428D01*
X177104761Y-91571428D01*
X177142857Y-91761904D02*
X177066666Y-91723809D01*
X176990476Y-91647619D01*
X176952380Y-91495238D01*
X176952380Y-91228571D01*
X176990476Y-91076190D01*
X177066666Y-91000000D01*
X177142857Y-90961904D01*
X177295238Y-90961904D01*
X177371428Y-91000000D01*
X177447619Y-91076190D01*
X177485714Y-91228571D01*
X177485714Y-91495238D01*
X177447619Y-91647619D01*
X177371428Y-91723809D01*
X177295238Y-91761904D01*
X177142857Y-91761904D01*
X178247619Y-91761904D02*
X177790476Y-91761904D01*
X178019047Y-91761904D02*
X178019047Y-90961904D01*
X177942857Y-91076190D01*
X177866666Y-91152380D01*
X177790476Y-91190476D01*
X186966666Y-94461904D02*
X186700000Y-94080952D01*
X186509523Y-94461904D02*
X186509523Y-93661904D01*
X186814285Y-93661904D01*
X186890476Y-93700000D01*
X186928571Y-93738095D01*
X186966666Y-93814285D01*
X186966666Y-93928571D01*
X186928571Y-94004761D01*
X186890476Y-94042857D01*
X186814285Y-94080952D01*
X186509523Y-94080952D01*
X187271428Y-93738095D02*
X187309523Y-93700000D01*
X187385714Y-93661904D01*
X187576190Y-93661904D01*
X187652380Y-93700000D01*
X187690476Y-93738095D01*
X187728571Y-93814285D01*
X187728571Y-93890476D01*
X187690476Y-94004761D01*
X187233333Y-94461904D01*
X187728571Y-94461904D01*
X186509523Y-91961904D02*
X186509523Y-91161904D01*
X186700000Y-91161904D01*
X186814285Y-91200000D01*
X186890476Y-91276190D01*
X186928571Y-91352380D01*
X186966666Y-91504761D01*
X186966666Y-91619047D01*
X186928571Y-91771428D01*
X186890476Y-91847619D01*
X186814285Y-91923809D01*
X186700000Y-91961904D01*
X186509523Y-91961904D01*
X187728571Y-91961904D02*
X187271428Y-91961904D01*
X187500000Y-91961904D02*
X187500000Y-91161904D01*
X187423809Y-91276190D01*
X187347619Y-91352380D01*
X187271428Y-91390476D01*
X180922110Y-105721652D02*
X180215003Y-105014545D01*
X181595545Y-104913530D02*
X181595545Y-104980874D01*
X181528202Y-105115561D01*
X181460858Y-105182904D01*
X181326171Y-105250248D01*
X181191484Y-105250248D01*
X181090469Y-105216576D01*
X180922110Y-105115561D01*
X180821095Y-105014545D01*
X180720080Y-104846187D01*
X180686408Y-104745171D01*
X180686408Y-104610484D01*
X180753751Y-104475797D01*
X180821095Y-104408454D01*
X180955782Y-104341110D01*
X181023125Y-104341110D01*
X182336324Y-104307438D02*
X181932263Y-104711500D01*
X182134293Y-104509469D02*
X181427187Y-103802362D01*
X181460858Y-103970721D01*
X181460858Y-104105408D01*
X181427187Y-104206423D01*
X178435166Y-120419761D02*
X178578023Y-120467380D01*
X178816119Y-120467380D01*
X178911357Y-120419761D01*
X178958976Y-120372142D01*
X179006595Y-120276904D01*
X179006595Y-120181666D01*
X178958976Y-120086428D01*
X178911357Y-120038809D01*
X178816119Y-119991190D01*
X178625642Y-119943571D01*
X178530404Y-119895952D01*
X178482785Y-119848333D01*
X178435166Y-119753095D01*
X178435166Y-119657857D01*
X178482785Y-119562619D01*
X178530404Y-119515000D01*
X178625642Y-119467380D01*
X178863738Y-119467380D01*
X179006595Y-119515000D01*
X179339928Y-119467380D02*
X179578023Y-120467380D01*
X179768500Y-119753095D01*
X179958976Y-120467380D01*
X180197071Y-119467380D01*
X181101833Y-120467380D02*
X180530404Y-120467380D01*
X180816119Y-120467380D02*
X180816119Y-119467380D01*
X180720880Y-119610238D01*
X180625642Y-119705476D01*
X180530404Y-119753095D01*
X174257142Y-121921428D02*
X174057142Y-121635714D01*
X173914285Y-121921428D02*
X173914285Y-121321428D01*
X174142857Y-121321428D01*
X174200000Y-121350000D01*
X174228571Y-121378571D01*
X174257142Y-121435714D01*
X174257142Y-121521428D01*
X174228571Y-121578571D01*
X174200000Y-121607142D01*
X174142857Y-121635714D01*
X173914285Y-121635714D01*
X174742857Y-121892857D02*
X174685714Y-121921428D01*
X174571428Y-121921428D01*
X174514285Y-121892857D01*
X174485714Y-121835714D01*
X174485714Y-121607142D01*
X174514285Y-121550000D01*
X174571428Y-121521428D01*
X174685714Y-121521428D01*
X174742857Y-121550000D01*
X174771428Y-121607142D01*
X174771428Y-121664285D01*
X174485714Y-121721428D01*
X175000000Y-121892857D02*
X175057142Y-121921428D01*
X175171428Y-121921428D01*
X175228571Y-121892857D01*
X175257142Y-121835714D01*
X175257142Y-121807142D01*
X175228571Y-121750000D01*
X175171428Y-121721428D01*
X175085714Y-121721428D01*
X175028571Y-121692857D01*
X175000000Y-121635714D01*
X175000000Y-121607142D01*
X175028571Y-121550000D01*
X175085714Y-121521428D01*
X175171428Y-121521428D01*
X175228571Y-121550000D01*
X175742857Y-121892857D02*
X175685714Y-121921428D01*
X175571428Y-121921428D01*
X175514285Y-121892857D01*
X175485714Y-121835714D01*
X175485714Y-121607142D01*
X175514285Y-121550000D01*
X175571428Y-121521428D01*
X175685714Y-121521428D01*
X175742857Y-121550000D01*
X175771428Y-121607142D01*
X175771428Y-121664285D01*
X175485714Y-121721428D01*
X175942857Y-121521428D02*
X176171428Y-121521428D01*
X176028571Y-121321428D02*
X176028571Y-121835714D01*
X176057142Y-121892857D01*
X176114285Y-121921428D01*
X176171428Y-121921428D01*
X178498666Y-87653761D02*
X178641523Y-87701380D01*
X178879619Y-87701380D01*
X178974857Y-87653761D01*
X179022476Y-87606142D01*
X179070095Y-87510904D01*
X179070095Y-87415666D01*
X179022476Y-87320428D01*
X178974857Y-87272809D01*
X178879619Y-87225190D01*
X178689142Y-87177571D01*
X178593904Y-87129952D01*
X178546285Y-87082333D01*
X178498666Y-86987095D01*
X178498666Y-86891857D01*
X178546285Y-86796619D01*
X178593904Y-86749000D01*
X178689142Y-86701380D01*
X178927238Y-86701380D01*
X179070095Y-86749000D01*
X179403428Y-86701380D02*
X179641523Y-87701380D01*
X179832000Y-86987095D01*
X180022476Y-87701380D01*
X180260571Y-86701380D01*
X180593904Y-86796619D02*
X180641523Y-86749000D01*
X180736761Y-86701380D01*
X180974857Y-86701380D01*
X181070095Y-86749000D01*
X181117714Y-86796619D01*
X181165333Y-86891857D01*
X181165333Y-86987095D01*
X181117714Y-87129952D01*
X180546285Y-87701380D01*
X181165333Y-87701380D01*
X183457142Y-85939285D02*
X183428571Y-85967857D01*
X183342857Y-85996428D01*
X183285714Y-85996428D01*
X183200000Y-85967857D01*
X183142857Y-85910714D01*
X183114285Y-85853571D01*
X183085714Y-85739285D01*
X183085714Y-85653571D01*
X183114285Y-85539285D01*
X183142857Y-85482142D01*
X183200000Y-85425000D01*
X183285714Y-85396428D01*
X183342857Y-85396428D01*
X183428571Y-85425000D01*
X183457142Y-85453571D01*
X183800000Y-85996428D02*
X183742857Y-85967857D01*
X183714285Y-85939285D01*
X183685714Y-85882142D01*
X183685714Y-85710714D01*
X183714285Y-85653571D01*
X183742857Y-85625000D01*
X183800000Y-85596428D01*
X183885714Y-85596428D01*
X183942857Y-85625000D01*
X183971428Y-85653571D01*
X184000000Y-85710714D01*
X184000000Y-85882142D01*
X183971428Y-85939285D01*
X183942857Y-85967857D01*
X183885714Y-85996428D01*
X183800000Y-85996428D01*
X184257142Y-85596428D02*
X184257142Y-85996428D01*
X184257142Y-85653571D02*
X184285714Y-85625000D01*
X184342857Y-85596428D01*
X184428571Y-85596428D01*
X184485714Y-85625000D01*
X184514285Y-85682142D01*
X184514285Y-85996428D01*
X184714285Y-85596428D02*
X184942857Y-85596428D01*
X184800000Y-85996428D02*
X184800000Y-85482142D01*
X184828571Y-85425000D01*
X184885714Y-85396428D01*
X184942857Y-85396428D01*
X185142857Y-85996428D02*
X185142857Y-85596428D01*
X185142857Y-85396428D02*
X185114285Y-85425000D01*
X185142857Y-85453571D01*
X185171428Y-85425000D01*
X185142857Y-85396428D01*
X185142857Y-85453571D01*
X185685714Y-85596428D02*
X185685714Y-86082142D01*
X185657142Y-86139285D01*
X185628571Y-86167857D01*
X185571428Y-86196428D01*
X185485714Y-86196428D01*
X185428571Y-86167857D01*
X185685714Y-85967857D02*
X185628571Y-85996428D01*
X185514285Y-85996428D01*
X185457142Y-85967857D01*
X185428571Y-85939285D01*
X185400000Y-85882142D01*
X185400000Y-85710714D01*
X185428571Y-85653571D01*
X185457142Y-85625000D01*
X185514285Y-85596428D01*
X185628571Y-85596428D01*
X185685714Y-85625000D01*
X186803688Y-98507749D02*
X186749813Y-98507749D01*
X186642064Y-98453874D01*
X186588189Y-98399999D01*
X186534314Y-98292250D01*
X186534314Y-98184500D01*
X186561251Y-98103688D01*
X186642064Y-97969001D01*
X186722876Y-97888189D01*
X186857563Y-97807377D01*
X186938375Y-97780439D01*
X187046125Y-97780439D01*
X187153874Y-97834314D01*
X187207749Y-97888189D01*
X187261624Y-97995938D01*
X187261624Y-98049813D01*
X187288561Y-99100372D02*
X186965312Y-98777123D01*
X187126937Y-98938748D02*
X187692622Y-98373062D01*
X187557935Y-98400000D01*
X187450186Y-98400000D01*
X187369374Y-98373062D01*
X182683166Y-112274304D02*
X182416500Y-111893352D01*
X182226023Y-112274304D02*
X182226023Y-111474304D01*
X182530785Y-111474304D01*
X182606976Y-111512400D01*
X182645071Y-111550495D01*
X182683166Y-111626685D01*
X182683166Y-111740971D01*
X182645071Y-111817161D01*
X182606976Y-111855257D01*
X182530785Y-111893352D01*
X182226023Y-111893352D01*
X183445071Y-112274304D02*
X182987928Y-112274304D01*
X183216500Y-112274304D02*
X183216500Y-111474304D01*
X183140309Y-111588590D01*
X183064119Y-111664780D01*
X182987928Y-111702876D01*
X173433333Y-87314285D02*
X173433333Y-86933333D01*
X173661904Y-87390476D02*
X172861904Y-87123809D01*
X173661904Y-86857142D01*
X173661904Y-86590476D02*
X172861904Y-86590476D01*
X173661904Y-86133333D01*
X172861904Y-86133333D01*
X172861904Y-85866666D02*
X172861904Y-85409523D01*
X173661904Y-85638095D02*
X172861904Y-85638095D01*
X179444666Y-112312404D02*
X179178000Y-111931452D01*
X178987523Y-112312404D02*
X178987523Y-111512404D01*
X179292285Y-111512404D01*
X179368476Y-111550500D01*
X179406571Y-111588595D01*
X179444666Y-111664785D01*
X179444666Y-111779071D01*
X179406571Y-111855261D01*
X179368476Y-111893357D01*
X179292285Y-111931452D01*
X178987523Y-111931452D01*
X180130380Y-111779071D02*
X180130380Y-112312404D01*
X179939904Y-111474309D02*
X179749428Y-112045738D01*
X180244666Y-112045738D01*
X174303688Y-110307749D02*
X174249813Y-110307749D01*
X174142064Y-110253874D01*
X174088189Y-110199999D01*
X174034314Y-110092250D01*
X174034314Y-109984500D01*
X174061251Y-109903688D01*
X174142064Y-109769001D01*
X174222876Y-109688189D01*
X174357563Y-109607377D01*
X174438375Y-109580439D01*
X174546125Y-109580439D01*
X174653874Y-109634314D01*
X174707749Y-109688189D01*
X174761624Y-109795938D01*
X174761624Y-109849813D01*
X174977123Y-110065312D02*
X175030998Y-110065312D01*
X175111810Y-110092250D01*
X175246497Y-110226937D01*
X175273435Y-110307749D01*
X175273435Y-110361624D01*
X175246497Y-110442436D01*
X175192622Y-110496311D01*
X175084873Y-110550186D01*
X174438375Y-110550186D01*
X174788561Y-110900372D01*
X176472866Y-112321304D02*
X176206200Y-111940352D01*
X176015723Y-112321304D02*
X176015723Y-111521304D01*
X176320485Y-111521304D01*
X176396676Y-111559400D01*
X176434771Y-111597495D01*
X176472866Y-111673685D01*
X176472866Y-111787971D01*
X176434771Y-111864161D01*
X176396676Y-111902257D01*
X176320485Y-111940352D01*
X176015723Y-111940352D01*
X177196676Y-111521304D02*
X176815723Y-111521304D01*
X176777628Y-111902257D01*
X176815723Y-111864161D01*
X176891914Y-111826066D01*
X177082390Y-111826066D01*
X177158580Y-111864161D01*
X177196676Y-111902257D01*
X177234771Y-111978447D01*
X177234771Y-112168923D01*
X177196676Y-112245114D01*
X177158580Y-112283209D01*
X177082390Y-112321304D01*
X176891914Y-112321304D01*
X176815723Y-112283209D01*
X176777628Y-112245114D01*
M02*
