G04 #@! TF.GenerationSoftware,KiCad,Pcbnew,(5.1.4)-1*
G04 #@! TF.CreationDate,2019-11-23T20:11:14+01:00*
G04 #@! TF.ProjectId,HM-LC-SW1-BA-PCB_mini_MAX1724,484d2d4c-432d-4535-9731-2d42412d5043,rev?*
G04 #@! TF.SameCoordinates,Original*
G04 #@! TF.FileFunction,Copper,L2,Bot*
G04 #@! TF.FilePolarity,Positive*
%FSLAX46Y46*%
G04 Gerber Fmt 4.6, Leading zero omitted, Abs format (unit mm)*
G04 Created by KiCad (PCBNEW (5.1.4)-1) date 2019-11-23 20:11:14*
%MOMM*%
%LPD*%
G04 APERTURE LIST*
%ADD10C,0.150000*%
%ADD11C,1.300000*%
%ADD12C,0.500000*%
%ADD13O,1.700000X1.700000*%
%ADD14R,1.200000X2.524000*%
%ADD15R,1.220000X0.650000*%
%ADD16R,3.000000X1.700000*%
%ADD17R,1.500000X1.250000*%
%ADD18R,1.350000X1.350000*%
%ADD19C,0.600000*%
%ADD20C,0.250000*%
%ADD21C,0.500000*%
%ADD22C,1.000000*%
%ADD23C,0.254000*%
G04 APERTURE END LIST*
D10*
G36*
X185474504Y-119876204D02*
G01*
X185498773Y-119879804D01*
X185522571Y-119885765D01*
X185545671Y-119894030D01*
X185567849Y-119904520D01*
X185588893Y-119917133D01*
X185608598Y-119931747D01*
X185626777Y-119948223D01*
X185643253Y-119966402D01*
X185657867Y-119986107D01*
X185670480Y-120007151D01*
X185680970Y-120029329D01*
X185689235Y-120052429D01*
X185695196Y-120076227D01*
X185698796Y-120100496D01*
X185700000Y-120125000D01*
X185700000Y-120925000D01*
X185698796Y-120949504D01*
X185695196Y-120973773D01*
X185689235Y-120997571D01*
X185680970Y-121020671D01*
X185670480Y-121042849D01*
X185657867Y-121063893D01*
X185643253Y-121083598D01*
X185626777Y-121101777D01*
X185608598Y-121118253D01*
X185588893Y-121132867D01*
X185567849Y-121145480D01*
X185545671Y-121155970D01*
X185522571Y-121164235D01*
X185498773Y-121170196D01*
X185474504Y-121173796D01*
X185450000Y-121175000D01*
X182550000Y-121175000D01*
X182525496Y-121173796D01*
X182501227Y-121170196D01*
X182477429Y-121164235D01*
X182454329Y-121155970D01*
X182432151Y-121145480D01*
X182411107Y-121132867D01*
X182391402Y-121118253D01*
X182373223Y-121101777D01*
X182356747Y-121083598D01*
X182342133Y-121063893D01*
X182329520Y-121042849D01*
X182319030Y-121020671D01*
X182310765Y-120997571D01*
X182304804Y-120973773D01*
X182301204Y-120949504D01*
X182300000Y-120925000D01*
X182300000Y-120125000D01*
X182301204Y-120100496D01*
X182304804Y-120076227D01*
X182310765Y-120052429D01*
X182319030Y-120029329D01*
X182329520Y-120007151D01*
X182342133Y-119986107D01*
X182356747Y-119966402D01*
X182373223Y-119948223D01*
X182391402Y-119931747D01*
X182411107Y-119917133D01*
X182432151Y-119904520D01*
X182454329Y-119894030D01*
X182477429Y-119885765D01*
X182501227Y-119879804D01*
X182525496Y-119876204D01*
X182550000Y-119875000D01*
X185450000Y-119875000D01*
X185474504Y-119876204D01*
X185474504Y-119876204D01*
G37*
D11*
X184000000Y-120525000D03*
D10*
G36*
X185474504Y-114551204D02*
G01*
X185498773Y-114554804D01*
X185522571Y-114560765D01*
X185545671Y-114569030D01*
X185567849Y-114579520D01*
X185588893Y-114592133D01*
X185608598Y-114606747D01*
X185626777Y-114623223D01*
X185643253Y-114641402D01*
X185657867Y-114661107D01*
X185670480Y-114682151D01*
X185680970Y-114704329D01*
X185689235Y-114727429D01*
X185695196Y-114751227D01*
X185698796Y-114775496D01*
X185700000Y-114800000D01*
X185700000Y-115600000D01*
X185698796Y-115624504D01*
X185695196Y-115648773D01*
X185689235Y-115672571D01*
X185680970Y-115695671D01*
X185670480Y-115717849D01*
X185657867Y-115738893D01*
X185643253Y-115758598D01*
X185626777Y-115776777D01*
X185608598Y-115793253D01*
X185588893Y-115807867D01*
X185567849Y-115820480D01*
X185545671Y-115830970D01*
X185522571Y-115839235D01*
X185498773Y-115845196D01*
X185474504Y-115848796D01*
X185450000Y-115850000D01*
X182550000Y-115850000D01*
X182525496Y-115848796D01*
X182501227Y-115845196D01*
X182477429Y-115839235D01*
X182454329Y-115830970D01*
X182432151Y-115820480D01*
X182411107Y-115807867D01*
X182391402Y-115793253D01*
X182373223Y-115776777D01*
X182356747Y-115758598D01*
X182342133Y-115738893D01*
X182329520Y-115717849D01*
X182319030Y-115695671D01*
X182310765Y-115672571D01*
X182304804Y-115648773D01*
X182301204Y-115624504D01*
X182300000Y-115600000D01*
X182300000Y-114800000D01*
X182301204Y-114775496D01*
X182304804Y-114751227D01*
X182310765Y-114727429D01*
X182319030Y-114704329D01*
X182329520Y-114682151D01*
X182342133Y-114661107D01*
X182356747Y-114641402D01*
X182373223Y-114623223D01*
X182391402Y-114606747D01*
X182411107Y-114592133D01*
X182432151Y-114579520D01*
X182454329Y-114569030D01*
X182477429Y-114560765D01*
X182501227Y-114554804D01*
X182525496Y-114551204D01*
X182550000Y-114550000D01*
X185450000Y-114550000D01*
X185474504Y-114551204D01*
X185474504Y-114551204D01*
G37*
D11*
X184000000Y-115200000D03*
D12*
X183450000Y-112650000D03*
D10*
G36*
X183450000Y-113399398D02*
G01*
X183425466Y-113399398D01*
X183376635Y-113394588D01*
X183328510Y-113385016D01*
X183281555Y-113370772D01*
X183236222Y-113351995D01*
X183192949Y-113328864D01*
X183152150Y-113301604D01*
X183114221Y-113270476D01*
X183079524Y-113235779D01*
X183048396Y-113197850D01*
X183021136Y-113157051D01*
X182998005Y-113113778D01*
X182979228Y-113068445D01*
X182964984Y-113021490D01*
X182955412Y-112973365D01*
X182950602Y-112924534D01*
X182950602Y-112900000D01*
X182950000Y-112900000D01*
X182950000Y-112400000D01*
X182950602Y-112400000D01*
X182950602Y-112375466D01*
X182955412Y-112326635D01*
X182964984Y-112278510D01*
X182979228Y-112231555D01*
X182998005Y-112186222D01*
X183021136Y-112142949D01*
X183048396Y-112102150D01*
X183079524Y-112064221D01*
X183114221Y-112029524D01*
X183152150Y-111998396D01*
X183192949Y-111971136D01*
X183236222Y-111948005D01*
X183281555Y-111929228D01*
X183328510Y-111914984D01*
X183376635Y-111905412D01*
X183425466Y-111900602D01*
X183450000Y-111900602D01*
X183450000Y-111900000D01*
X183950000Y-111900000D01*
X183950000Y-113400000D01*
X183450000Y-113400000D01*
X183450000Y-113399398D01*
X183450000Y-113399398D01*
G37*
D12*
X184750000Y-112650000D03*
D10*
G36*
X184250000Y-111900000D02*
G01*
X184750000Y-111900000D01*
X184750000Y-111900602D01*
X184774534Y-111900602D01*
X184823365Y-111905412D01*
X184871490Y-111914984D01*
X184918445Y-111929228D01*
X184963778Y-111948005D01*
X185007051Y-111971136D01*
X185047850Y-111998396D01*
X185085779Y-112029524D01*
X185120476Y-112064221D01*
X185151604Y-112102150D01*
X185178864Y-112142949D01*
X185201995Y-112186222D01*
X185220772Y-112231555D01*
X185235016Y-112278510D01*
X185244588Y-112326635D01*
X185249398Y-112375466D01*
X185249398Y-112400000D01*
X185250000Y-112400000D01*
X185250000Y-112900000D01*
X185249398Y-112900000D01*
X185249398Y-112924534D01*
X185244588Y-112973365D01*
X185235016Y-113021490D01*
X185220772Y-113068445D01*
X185201995Y-113113778D01*
X185178864Y-113157051D01*
X185151604Y-113197850D01*
X185120476Y-113235779D01*
X185085779Y-113270476D01*
X185047850Y-113301604D01*
X185007051Y-113328864D01*
X184963778Y-113351995D01*
X184918445Y-113370772D01*
X184871490Y-113385016D01*
X184823365Y-113394588D01*
X184774534Y-113399398D01*
X184750000Y-113399398D01*
X184750000Y-113400000D01*
X184250000Y-113400000D01*
X184250000Y-111900000D01*
X184250000Y-111900000D01*
G37*
D13*
X188658500Y-118681500D03*
X188658500Y-116141500D03*
X188658500Y-113601500D03*
D14*
X188610000Y-107282000D03*
X186610000Y-107282000D03*
X184610000Y-107282000D03*
X182610000Y-107282000D03*
X180610000Y-107282000D03*
X178610000Y-107282000D03*
X176610000Y-107282000D03*
X174610000Y-107282000D03*
X180610000Y-88282000D03*
X182610000Y-88282000D03*
X178610000Y-88282000D03*
D13*
X171300000Y-116140000D03*
X171300000Y-113600000D03*
D15*
X179610000Y-119150000D03*
X179610000Y-117250000D03*
X176990000Y-117250000D03*
X176990000Y-118200000D03*
X176990000Y-119150000D03*
D16*
X171410500Y-99441000D03*
X171410500Y-94361000D03*
X171410500Y-89281000D03*
X171386500Y-96901000D03*
X171386500Y-91821000D03*
D17*
X188448000Y-109880400D03*
X185948000Y-109880400D03*
D18*
X171831000Y-86423500D03*
D17*
X179650000Y-115200000D03*
X177150000Y-115200000D03*
X177150000Y-121000000D03*
X179650000Y-121000000D03*
D19*
X185503500Y-99060000D03*
X170713400Y-87807800D03*
X184500000Y-111200000D03*
X181300000Y-113786400D03*
X176500000Y-110600000D03*
X178700000Y-88200000D03*
X175400000Y-120600000D03*
X184200000Y-104100000D03*
X182610000Y-88282000D03*
X170900000Y-101800000D03*
X171900000Y-105600000D03*
X171900000Y-107000000D03*
X171900000Y-108600000D03*
X171900000Y-110200000D03*
X175400000Y-119100000D03*
X175400000Y-117600000D03*
X171700000Y-119500000D03*
X171700000Y-118100000D03*
X171700000Y-120900000D03*
X174400000Y-92000000D03*
X174400000Y-90600000D03*
X181000000Y-120200000D03*
X181000000Y-121200000D03*
X174000000Y-109650000D03*
X170900000Y-102600000D03*
X170900000Y-103400000D03*
X188650000Y-122850000D03*
X188650000Y-123750000D03*
X187800000Y-123750000D03*
X178950000Y-94550000D03*
X178950000Y-95450000D03*
X186740800Y-102133400D03*
X185700000Y-95200000D03*
X178173279Y-103360831D03*
X185262592Y-105047466D03*
X175800000Y-102000000D03*
X177964335Y-104182336D03*
X175800000Y-103200000D03*
X177225415Y-104509118D03*
X174300000Y-103800000D03*
X177935643Y-104981834D03*
X174794569Y-95783400D03*
X181300000Y-104500000D03*
X173542780Y-95782303D03*
X182200000Y-104600000D03*
X174752000Y-94970600D03*
X174736032Y-94102935D03*
X183100000Y-104600000D03*
X177933614Y-111684448D03*
X181200000Y-122600000D03*
X175100000Y-114850000D03*
X175100000Y-112900000D03*
X174400000Y-116900000D03*
X173350000Y-119300000D03*
X181250000Y-116300000D03*
X173400000Y-110950000D03*
X179807225Y-101635380D03*
X175242000Y-87300000D03*
X178300000Y-98900000D03*
D20*
X189230000Y-88976200D02*
X189230000Y-92506800D01*
X189230000Y-95061738D02*
X189230000Y-94640400D01*
X189230000Y-94640400D02*
X189230000Y-94284800D01*
X189230000Y-94665800D02*
X189230000Y-94640400D01*
X170713400Y-87807800D02*
X170713400Y-85648800D01*
X188518800Y-88265000D02*
X189230000Y-88976200D01*
X170713400Y-85648800D02*
X170938701Y-85423499D01*
X170938701Y-85423499D02*
X186007499Y-85423499D01*
X186007499Y-85423499D02*
X186258200Y-85674200D01*
X186258200Y-85674200D02*
X186258200Y-87147400D01*
X186258200Y-87147400D02*
X187375800Y-88265000D01*
X187375800Y-88265000D02*
X188518800Y-88265000D01*
X188610000Y-105369600D02*
X188610000Y-107282000D01*
X188610000Y-107282000D02*
X188610000Y-110358604D01*
X183446500Y-112585500D02*
X183446500Y-111700500D01*
X183413400Y-112618600D02*
X183446500Y-112585500D01*
D21*
X179650000Y-115200000D02*
X179650000Y-113750000D01*
X179610000Y-115240000D02*
X179650000Y-115200000D01*
X179610000Y-117250000D02*
X179610000Y-115240000D01*
X179650000Y-114075000D02*
X179475000Y-113900000D01*
X179650000Y-115200000D02*
X179650000Y-114075000D01*
X173540000Y-113900000D02*
X171300000Y-116140000D01*
D20*
X189230000Y-92506800D02*
X189230000Y-93970000D01*
X189230000Y-93970000D02*
X189230000Y-94284800D01*
D21*
X182286400Y-112800000D02*
X182300000Y-112800000D01*
X181300000Y-113786400D02*
X182286400Y-112800000D01*
X180600000Y-112800000D02*
X182300000Y-112800000D01*
X182300000Y-112800000D02*
X183450000Y-112800000D01*
X188103400Y-111100000D02*
X188448000Y-110755400D01*
X188448000Y-110755400D02*
X188448000Y-109880400D01*
X188003401Y-111199999D02*
X188103400Y-111100000D01*
X184499999Y-111199999D02*
X188003401Y-111199999D01*
X188448000Y-107444000D02*
X188610000Y-107282000D01*
X188448000Y-109880400D02*
X188448000Y-107444000D01*
X179500000Y-113900000D02*
X180000000Y-113400000D01*
X178700000Y-113900000D02*
X179500000Y-113900000D01*
X180000000Y-113400000D02*
X180600000Y-112800000D01*
X179650000Y-113750000D02*
X180000000Y-113400000D01*
X178700000Y-113900000D02*
X173540000Y-113900000D01*
X179475000Y-113900000D02*
X178700000Y-113900000D01*
X183450000Y-111952408D02*
X183450000Y-112800000D01*
X183450000Y-111825736D02*
X183450000Y-111952408D01*
X184075736Y-111200000D02*
X183450000Y-111825736D01*
X184500000Y-111200000D02*
X184075736Y-111200000D01*
X188610000Y-105520000D02*
X189000000Y-105130000D01*
X188610000Y-107282000D02*
X188610000Y-105520000D01*
X189000000Y-102556500D02*
X185503500Y-99060000D01*
D20*
X189230000Y-102326500D02*
X189000000Y-102556500D01*
X189230000Y-94284800D02*
X189230000Y-102326500D01*
X189230000Y-103070000D02*
X189000000Y-103300000D01*
X189230000Y-102326500D02*
X189230000Y-103070000D01*
D21*
X189000000Y-105130000D02*
X189000000Y-103300000D01*
X189000000Y-103300000D02*
X189000000Y-102556500D01*
D20*
X185948000Y-109880400D02*
X186073000Y-109880400D01*
X176130000Y-118200000D02*
X176030000Y-118300000D01*
X176990000Y-118200000D02*
X176130000Y-118200000D01*
D21*
X175880000Y-118200000D02*
X175780000Y-118300000D01*
X176990000Y-118200000D02*
X175880000Y-118200000D01*
D20*
X184878498Y-96021502D02*
X185700000Y-95200000D01*
X186740800Y-102133400D02*
X184878498Y-100271098D01*
X184878498Y-100271098D02*
X184878498Y-96021502D01*
X175460000Y-105770000D02*
X175460000Y-105390621D01*
X174610000Y-106620000D02*
X175460000Y-105770000D01*
X175460000Y-105390621D02*
X177489790Y-103360831D01*
X177749015Y-103360831D02*
X178173279Y-103360831D01*
X174610000Y-107282000D02*
X174610000Y-106620000D01*
X177489790Y-103360831D02*
X177749015Y-103360831D01*
X185262592Y-105047466D02*
X185562591Y-105347465D01*
X185562591Y-105347465D02*
X185562591Y-108776411D01*
X185562591Y-108776411D02*
X185470001Y-108869001D01*
X185470001Y-108869001D02*
X176685001Y-108869001D01*
X176685001Y-108869001D02*
X176610000Y-108794000D01*
X176610000Y-108794000D02*
X176610000Y-107282000D01*
X180610000Y-88282000D02*
X180610000Y-86770000D01*
X180610000Y-86770000D02*
X180263500Y-86423500D01*
X180263500Y-86423500D02*
X172756000Y-86423500D01*
X172756000Y-86423500D02*
X171831000Y-86423500D01*
X184610000Y-106620000D02*
X183234988Y-105244988D01*
X183234988Y-105244988D02*
X180481198Y-105244988D01*
X184610000Y-107282000D02*
X184610000Y-106620000D01*
X179418546Y-104182336D02*
X178388599Y-104182336D01*
X178388599Y-104182336D02*
X177964335Y-104182336D01*
X180481198Y-105244988D02*
X179418546Y-104182336D01*
X172060500Y-89281000D02*
X173160500Y-90381000D01*
X173160500Y-90659997D02*
X173556329Y-91055826D01*
X173556329Y-94699931D02*
X174167800Y-95311402D01*
X175177636Y-101392256D02*
X175477635Y-101692255D01*
X174167800Y-100382420D02*
X175177636Y-101392256D01*
X173556329Y-91055826D02*
X173556329Y-94699931D01*
X173160500Y-90381000D02*
X173160500Y-90659997D01*
X171410500Y-89281000D02*
X172060500Y-89281000D01*
X174167800Y-95311402D02*
X174167800Y-100382420D01*
X174182420Y-100382420D02*
X174167800Y-100382420D01*
X175800000Y-102000000D02*
X174182420Y-100382420D01*
X177225415Y-104933382D02*
X177225415Y-104509118D01*
X177225415Y-105213030D02*
X177225415Y-104933382D01*
X177707384Y-105694999D02*
X177225415Y-105213030D01*
X179470002Y-105694999D02*
X177707384Y-105694999D01*
X180610000Y-106834997D02*
X179470002Y-105694999D01*
X180610000Y-107282000D02*
X180610000Y-106834997D01*
X171410500Y-99441000D02*
X171410500Y-100961504D01*
X171410500Y-100961504D02*
X172624498Y-102175502D01*
X174813600Y-104649990D02*
X172949990Y-104649990D01*
X172624498Y-104324498D02*
X172624498Y-102175502D01*
X172949990Y-104649990D02*
X172624498Y-104324498D01*
X174813600Y-104649990D02*
X175400000Y-104063590D01*
X175400000Y-103600000D02*
X175800000Y-103200000D01*
X175400000Y-104063590D02*
X175400000Y-103600000D01*
X182610000Y-107282000D02*
X182610000Y-106620000D01*
X179393247Y-104981834D02*
X177935643Y-104981834D01*
X182610000Y-106620000D02*
X181684999Y-105694999D01*
X181684999Y-105694999D02*
X180106412Y-105694999D01*
X180106412Y-105694999D02*
X179393247Y-104981834D01*
X172036500Y-96901000D02*
X171386500Y-96901000D01*
X173611785Y-98476285D02*
X172036500Y-96901000D01*
X173611785Y-102232215D02*
X173611785Y-98476285D01*
X173609000Y-102235000D02*
X173611785Y-102232215D01*
X173609000Y-103109000D02*
X173609000Y-102235000D01*
X174300000Y-103800000D02*
X173609000Y-103109000D01*
X173481803Y-95782303D02*
X173542780Y-95782303D01*
X172060500Y-94361000D02*
X173481803Y-95782303D01*
X171410500Y-94361000D02*
X172060500Y-94361000D01*
X174794569Y-99695000D02*
X174794569Y-95783400D01*
X174817178Y-99695000D02*
X174794569Y-99695000D01*
X175590200Y-100468022D02*
X174817178Y-99695000D01*
X180876886Y-100468022D02*
X175590200Y-100468022D01*
X181300000Y-104500000D02*
X181300000Y-100891136D01*
X181300000Y-100891136D02*
X180876886Y-100468022D01*
X175962600Y-100018011D02*
X181374211Y-100018011D01*
X175419589Y-99475000D02*
X175962600Y-100018011D01*
X175419589Y-95283999D02*
X175419589Y-99475000D01*
X181374211Y-100018011D02*
X181761665Y-100405465D01*
X175106190Y-94970600D02*
X175419589Y-95283999D01*
X174752000Y-94970600D02*
X175106190Y-94970600D01*
X181761665Y-103473811D02*
X181761665Y-100405465D01*
X182200000Y-103912146D02*
X181761665Y-103473811D01*
X182200000Y-104600000D02*
X182200000Y-103912146D01*
X182606384Y-100591195D02*
X181583189Y-99568000D01*
X175869600Y-98933000D02*
X175869600Y-95097600D01*
X175174934Y-94402934D02*
X175036031Y-94402934D01*
X175036031Y-94402934D02*
X174736032Y-94102935D01*
X181583189Y-99568000D02*
X176504600Y-99568000D01*
X175869600Y-95097600D02*
X175174934Y-94402934D01*
X176504600Y-99568000D02*
X175869600Y-98933000D01*
X182606384Y-103682120D02*
X182606384Y-100591195D01*
X183100000Y-104175736D02*
X182606384Y-103682120D01*
X183100000Y-104600000D02*
X183100000Y-104175736D01*
X175100000Y-115000000D02*
X175100000Y-115000000D01*
X176288597Y-111711403D02*
X177588597Y-111711403D01*
X175100000Y-112900000D02*
X176288597Y-111711403D01*
X177615552Y-111684448D02*
X177933614Y-111684448D01*
X177588597Y-111711403D02*
X177615552Y-111684448D01*
X180900001Y-122300001D02*
X181200000Y-122600000D01*
X175336410Y-122300000D02*
X180900001Y-122300001D01*
X175336410Y-122300000D02*
X174850000Y-122300000D01*
X173350000Y-120800000D02*
X173350000Y-119300000D01*
X174850000Y-122300000D02*
X173350000Y-120800000D01*
X174400000Y-115550000D02*
X175100000Y-114850000D01*
X174400000Y-116900000D02*
X174400000Y-115550000D01*
X183779290Y-115895710D02*
X184500000Y-115175000D01*
X181774999Y-117900001D02*
X183779290Y-115895710D01*
X177150000Y-119310000D02*
X176990000Y-119150000D01*
X177150000Y-121000000D02*
X177150000Y-119310000D01*
X184500000Y-113050000D02*
X184750000Y-112800000D01*
D21*
X184750000Y-114650000D02*
X184500000Y-114900000D01*
X184500000Y-114900000D02*
X184500000Y-115200000D01*
X181500001Y-118199999D02*
X181800000Y-117900000D01*
X178800001Y-118199999D02*
X181500001Y-118199999D01*
X177850000Y-119150000D02*
X178800001Y-118199999D01*
X176990000Y-119150000D02*
X177850000Y-119150000D01*
D22*
X184000000Y-114900000D02*
X186100000Y-114900000D01*
X187398500Y-113601500D02*
X188658500Y-113601500D01*
X186100000Y-114900000D02*
X187398500Y-113601500D01*
X186500000Y-112800000D02*
X184750000Y-112800000D01*
X188658500Y-113601500D02*
X187301500Y-113601500D01*
X187301500Y-113601500D02*
X186500000Y-112800000D01*
D20*
X182700000Y-117000000D02*
X182550000Y-117150000D01*
D21*
X182700000Y-117000000D02*
X181800000Y-117900000D01*
D20*
X181874264Y-116500000D02*
X183200000Y-116500000D01*
X181674264Y-116300000D02*
X181874264Y-116500000D01*
X181250000Y-116300000D02*
X181674264Y-116300000D01*
D21*
X184500000Y-115200000D02*
X183200000Y-116500000D01*
X183200000Y-116500000D02*
X182700000Y-117000000D01*
D20*
X177850000Y-117250000D02*
X176990000Y-117250000D01*
X178800001Y-118199999D02*
X177850000Y-117250000D01*
X178464620Y-101635380D02*
X179807225Y-101635380D01*
X175000000Y-105100000D02*
X178464620Y-101635380D01*
X174000000Y-105100000D02*
X175000000Y-105100000D01*
X172933802Y-106166198D02*
X174000000Y-105100000D01*
X172933802Y-110466198D02*
X172933802Y-110483802D01*
X172933802Y-110483802D02*
X172933802Y-110266198D01*
X173400000Y-110950000D02*
X172933802Y-110483802D01*
X172933802Y-110466198D02*
X172933802Y-110266198D01*
X172933802Y-110266198D02*
X172933802Y-106166198D01*
X182300000Y-119150000D02*
X179610000Y-119150000D01*
X182625000Y-119150000D02*
X184000000Y-120525000D01*
X179610000Y-119150000D02*
X182625000Y-119150000D01*
X176500000Y-98600000D02*
X176800000Y-98900000D01*
X176500000Y-94800000D02*
X176500000Y-98600000D01*
X175242000Y-87249000D02*
X175242000Y-93542000D01*
X175242000Y-93542000D02*
X176500000Y-94800000D01*
X176800000Y-98900000D02*
X177900000Y-98900000D01*
X177900000Y-98900000D02*
X178300000Y-98900000D01*
D23*
G36*
X173888997Y-114986201D02*
G01*
X173860000Y-115009999D01*
X173836202Y-115038997D01*
X173836201Y-115038998D01*
X173765026Y-115125724D01*
X173694454Y-115257754D01*
X173678307Y-115310986D01*
X173650998Y-115401014D01*
X173644475Y-115467247D01*
X173636324Y-115550000D01*
X173640001Y-115587332D01*
X173640000Y-116354464D01*
X173571414Y-116457111D01*
X173500932Y-116627271D01*
X173465000Y-116807911D01*
X173465000Y-116992089D01*
X173500932Y-117172729D01*
X173571414Y-117342889D01*
X173673738Y-117496028D01*
X173803972Y-117626262D01*
X173957111Y-117728586D01*
X174127271Y-117799068D01*
X174307911Y-117835000D01*
X174492089Y-117835000D01*
X174672729Y-117799068D01*
X174842889Y-117728586D01*
X174996028Y-117626262D01*
X175126262Y-117496028D01*
X175228586Y-117342889D01*
X175299068Y-117172729D01*
X175335000Y-116992089D01*
X175335000Y-116807911D01*
X175299068Y-116627271D01*
X175228586Y-116457111D01*
X175160000Y-116354465D01*
X175160000Y-115864802D01*
X175251649Y-115773153D01*
X175372729Y-115749068D01*
X175542889Y-115678586D01*
X175696028Y-115576262D01*
X175826262Y-115446028D01*
X175928586Y-115292889D01*
X175999068Y-115122729D01*
X176035000Y-114942089D01*
X176035000Y-114785000D01*
X178261928Y-114785000D01*
X178261928Y-115825000D01*
X178274188Y-115949482D01*
X178310498Y-116069180D01*
X178369463Y-116179494D01*
X178448815Y-116276185D01*
X178545506Y-116355537D01*
X178634787Y-116403260D01*
X178548815Y-116473815D01*
X178469463Y-116570506D01*
X178410498Y-116680820D01*
X178398504Y-116720360D01*
X178390001Y-116709999D01*
X178274276Y-116615026D01*
X178142247Y-116544454D01*
X178098189Y-116531089D01*
X178051185Y-116473815D01*
X177954494Y-116394463D01*
X177844180Y-116335498D01*
X177724482Y-116299188D01*
X177600000Y-116286928D01*
X176380000Y-116286928D01*
X176255518Y-116299188D01*
X176135820Y-116335498D01*
X176025506Y-116394463D01*
X175928815Y-116473815D01*
X175849463Y-116570506D01*
X175790498Y-116680820D01*
X175754188Y-116800518D01*
X175741928Y-116925000D01*
X175741928Y-117575000D01*
X175754188Y-117699482D01*
X175790498Y-117819180D01*
X175849463Y-117929494D01*
X175928815Y-118026185D01*
X176025506Y-118105537D01*
X176135820Y-118164502D01*
X176252841Y-118200000D01*
X176135820Y-118235498D01*
X176025506Y-118294463D01*
X175928815Y-118373815D01*
X175849463Y-118470506D01*
X175790498Y-118580820D01*
X175754188Y-118700518D01*
X175741928Y-118825000D01*
X175741928Y-119475000D01*
X175754188Y-119599482D01*
X175790498Y-119719180D01*
X175849463Y-119829494D01*
X175928815Y-119926185D01*
X175939604Y-119935039D01*
X175869463Y-120020506D01*
X175810498Y-120130820D01*
X175774188Y-120250518D01*
X175761928Y-120375000D01*
X175761928Y-121540000D01*
X175164802Y-121540000D01*
X174110000Y-120485199D01*
X174110000Y-119845535D01*
X174178586Y-119742889D01*
X174249068Y-119572729D01*
X174285000Y-119392089D01*
X174285000Y-119207911D01*
X174249068Y-119027271D01*
X174178586Y-118857111D01*
X174076262Y-118703972D01*
X173946028Y-118573738D01*
X173792889Y-118471414D01*
X173622729Y-118400932D01*
X173442089Y-118365000D01*
X173257911Y-118365000D01*
X173077271Y-118400932D01*
X172907111Y-118471414D01*
X172753972Y-118573738D01*
X172623738Y-118703972D01*
X172521414Y-118857111D01*
X172450932Y-119027271D01*
X172415000Y-119207911D01*
X172415000Y-119392089D01*
X172450932Y-119572729D01*
X172521414Y-119742889D01*
X172590001Y-119845536D01*
X172590000Y-120762677D01*
X172586324Y-120800000D01*
X172590000Y-120837322D01*
X172590000Y-120837332D01*
X172600997Y-120948985D01*
X172643408Y-121088799D01*
X172644454Y-121092246D01*
X172715026Y-121224276D01*
X172720172Y-121230546D01*
X172809999Y-121340001D01*
X172839003Y-121363804D01*
X174286201Y-122811003D01*
X174309999Y-122840001D01*
X174425724Y-122934974D01*
X174557753Y-123005546D01*
X174701014Y-123049003D01*
X174812667Y-123060000D01*
X174812676Y-123060000D01*
X174849999Y-123063676D01*
X174887322Y-123060000D01*
X175373743Y-123060000D01*
X175373753Y-123059999D01*
X180382848Y-123060001D01*
X180473738Y-123196028D01*
X180603972Y-123326262D01*
X180757111Y-123428586D01*
X180927271Y-123499068D01*
X181107911Y-123535000D01*
X181292089Y-123535000D01*
X181472729Y-123499068D01*
X181642889Y-123428586D01*
X181796028Y-123326262D01*
X181926262Y-123196028D01*
X182028586Y-123042889D01*
X182099068Y-122872729D01*
X182135000Y-122692089D01*
X182135000Y-122507911D01*
X182099068Y-122327271D01*
X182028586Y-122157111D01*
X181926262Y-122003972D01*
X181796028Y-121873738D01*
X181642889Y-121771414D01*
X181472729Y-121700932D01*
X181334531Y-121673442D01*
X181324277Y-121665027D01*
X181192247Y-121594455D01*
X181090781Y-121563677D01*
X181048987Y-121550999D01*
X180937334Y-121540002D01*
X180900001Y-121536325D01*
X180862669Y-121540002D01*
X178538072Y-121540001D01*
X178538072Y-120375000D01*
X178525812Y-120250518D01*
X178489502Y-120130820D01*
X178430537Y-120020506D01*
X178351185Y-119923815D01*
X178322987Y-119900674D01*
X178344059Y-119889411D01*
X178453487Y-119799605D01*
X178469463Y-119829494D01*
X178548815Y-119926185D01*
X178645506Y-120005537D01*
X178755820Y-120064502D01*
X178875518Y-120100812D01*
X179000000Y-120113072D01*
X180220000Y-120113072D01*
X180344482Y-120100812D01*
X180464180Y-120064502D01*
X180574494Y-120005537D01*
X180671185Y-119926185D01*
X180684468Y-119910000D01*
X181691655Y-119910000D01*
X181678992Y-119951746D01*
X181661928Y-120125000D01*
X181661928Y-120925000D01*
X181678992Y-121098254D01*
X181729528Y-121264850D01*
X181811595Y-121418386D01*
X181922038Y-121552962D01*
X182056614Y-121663405D01*
X182210150Y-121745472D01*
X182376746Y-121796008D01*
X182550000Y-121813072D01*
X185450000Y-121813072D01*
X185623254Y-121796008D01*
X185789850Y-121745472D01*
X185943386Y-121663405D01*
X186077962Y-121552962D01*
X186188405Y-121418386D01*
X186270472Y-121264850D01*
X186321008Y-121098254D01*
X186338072Y-120925000D01*
X186338072Y-120125000D01*
X186321008Y-119951746D01*
X186270472Y-119785150D01*
X186188405Y-119631614D01*
X186077962Y-119497038D01*
X185943386Y-119386595D01*
X185789850Y-119304528D01*
X185623254Y-119253992D01*
X185450000Y-119236928D01*
X183786729Y-119236928D01*
X183188804Y-118639003D01*
X183165001Y-118609999D01*
X183049276Y-118515026D01*
X182917247Y-118444454D01*
X182773986Y-118400997D01*
X182662333Y-118390000D01*
X182662322Y-118390000D01*
X182625000Y-118386324D01*
X182587678Y-118390000D01*
X182561578Y-118390000D01*
X183356532Y-117595047D01*
X183356537Y-117595041D01*
X184463506Y-116488072D01*
X185450000Y-116488072D01*
X185623254Y-116471008D01*
X185789850Y-116420472D01*
X185943386Y-116338405D01*
X186077962Y-116227962D01*
X186188405Y-116093386D01*
X186223162Y-116028361D01*
X186322499Y-116018577D01*
X186536447Y-115953676D01*
X186733623Y-115848284D01*
X186906449Y-115706449D01*
X186941996Y-115663135D01*
X187792928Y-114812204D01*
X187829486Y-114842206D01*
X188087466Y-114980099D01*
X188367389Y-115065013D01*
X188585550Y-115086500D01*
X188731450Y-115086500D01*
X188949611Y-115065013D01*
X189229534Y-114980099D01*
X189290001Y-114947779D01*
X189290001Y-117335221D01*
X189229534Y-117302901D01*
X188949611Y-117217987D01*
X188731450Y-117196500D01*
X188585550Y-117196500D01*
X188367389Y-117217987D01*
X188087466Y-117302901D01*
X187829486Y-117440794D01*
X187603366Y-117626366D01*
X187417794Y-117852486D01*
X187279901Y-118110466D01*
X187194987Y-118390389D01*
X187166315Y-118681500D01*
X187194987Y-118972611D01*
X187279901Y-119252534D01*
X187417794Y-119510514D01*
X187603366Y-119736634D01*
X187829486Y-119922206D01*
X188087466Y-120060099D01*
X188367389Y-120145013D01*
X188585550Y-120166500D01*
X188731450Y-120166500D01*
X188949611Y-120145013D01*
X189229534Y-120060099D01*
X189290001Y-120027779D01*
X189290001Y-124290000D01*
X173309671Y-124290000D01*
X173495537Y-124011831D01*
X173626325Y-123696081D01*
X173693000Y-123360883D01*
X173693000Y-123019117D01*
X173626325Y-122683919D01*
X173495537Y-122368169D01*
X173305663Y-122084002D01*
X173063998Y-121842337D01*
X172779831Y-121652463D01*
X172464081Y-121521675D01*
X172128883Y-121455000D01*
X171787117Y-121455000D01*
X171451919Y-121521675D01*
X171136169Y-121652463D01*
X170852002Y-121842337D01*
X170710000Y-121984339D01*
X170710000Y-117508461D01*
X170728966Y-117518599D01*
X171008889Y-117603513D01*
X171227050Y-117625000D01*
X171372950Y-117625000D01*
X171591111Y-117603513D01*
X171871034Y-117518599D01*
X172129014Y-117380706D01*
X172355134Y-117195134D01*
X172540706Y-116969014D01*
X172678599Y-116711034D01*
X172763513Y-116431111D01*
X172792185Y-116140000D01*
X172770612Y-115920966D01*
X173906579Y-114785000D01*
X174090198Y-114785000D01*
X173888997Y-114986201D01*
X173888997Y-114986201D01*
G37*
X173888997Y-114986201D02*
X173860000Y-115009999D01*
X173836202Y-115038997D01*
X173836201Y-115038998D01*
X173765026Y-115125724D01*
X173694454Y-115257754D01*
X173678307Y-115310986D01*
X173650998Y-115401014D01*
X173644475Y-115467247D01*
X173636324Y-115550000D01*
X173640001Y-115587332D01*
X173640000Y-116354464D01*
X173571414Y-116457111D01*
X173500932Y-116627271D01*
X173465000Y-116807911D01*
X173465000Y-116992089D01*
X173500932Y-117172729D01*
X173571414Y-117342889D01*
X173673738Y-117496028D01*
X173803972Y-117626262D01*
X173957111Y-117728586D01*
X174127271Y-117799068D01*
X174307911Y-117835000D01*
X174492089Y-117835000D01*
X174672729Y-117799068D01*
X174842889Y-117728586D01*
X174996028Y-117626262D01*
X175126262Y-117496028D01*
X175228586Y-117342889D01*
X175299068Y-117172729D01*
X175335000Y-116992089D01*
X175335000Y-116807911D01*
X175299068Y-116627271D01*
X175228586Y-116457111D01*
X175160000Y-116354465D01*
X175160000Y-115864802D01*
X175251649Y-115773153D01*
X175372729Y-115749068D01*
X175542889Y-115678586D01*
X175696028Y-115576262D01*
X175826262Y-115446028D01*
X175928586Y-115292889D01*
X175999068Y-115122729D01*
X176035000Y-114942089D01*
X176035000Y-114785000D01*
X178261928Y-114785000D01*
X178261928Y-115825000D01*
X178274188Y-115949482D01*
X178310498Y-116069180D01*
X178369463Y-116179494D01*
X178448815Y-116276185D01*
X178545506Y-116355537D01*
X178634787Y-116403260D01*
X178548815Y-116473815D01*
X178469463Y-116570506D01*
X178410498Y-116680820D01*
X178398504Y-116720360D01*
X178390001Y-116709999D01*
X178274276Y-116615026D01*
X178142247Y-116544454D01*
X178098189Y-116531089D01*
X178051185Y-116473815D01*
X177954494Y-116394463D01*
X177844180Y-116335498D01*
X177724482Y-116299188D01*
X177600000Y-116286928D01*
X176380000Y-116286928D01*
X176255518Y-116299188D01*
X176135820Y-116335498D01*
X176025506Y-116394463D01*
X175928815Y-116473815D01*
X175849463Y-116570506D01*
X175790498Y-116680820D01*
X175754188Y-116800518D01*
X175741928Y-116925000D01*
X175741928Y-117575000D01*
X175754188Y-117699482D01*
X175790498Y-117819180D01*
X175849463Y-117929494D01*
X175928815Y-118026185D01*
X176025506Y-118105537D01*
X176135820Y-118164502D01*
X176252841Y-118200000D01*
X176135820Y-118235498D01*
X176025506Y-118294463D01*
X175928815Y-118373815D01*
X175849463Y-118470506D01*
X175790498Y-118580820D01*
X175754188Y-118700518D01*
X175741928Y-118825000D01*
X175741928Y-119475000D01*
X175754188Y-119599482D01*
X175790498Y-119719180D01*
X175849463Y-119829494D01*
X175928815Y-119926185D01*
X175939604Y-119935039D01*
X175869463Y-120020506D01*
X175810498Y-120130820D01*
X175774188Y-120250518D01*
X175761928Y-120375000D01*
X175761928Y-121540000D01*
X175164802Y-121540000D01*
X174110000Y-120485199D01*
X174110000Y-119845535D01*
X174178586Y-119742889D01*
X174249068Y-119572729D01*
X174285000Y-119392089D01*
X174285000Y-119207911D01*
X174249068Y-119027271D01*
X174178586Y-118857111D01*
X174076262Y-118703972D01*
X173946028Y-118573738D01*
X173792889Y-118471414D01*
X173622729Y-118400932D01*
X173442089Y-118365000D01*
X173257911Y-118365000D01*
X173077271Y-118400932D01*
X172907111Y-118471414D01*
X172753972Y-118573738D01*
X172623738Y-118703972D01*
X172521414Y-118857111D01*
X172450932Y-119027271D01*
X172415000Y-119207911D01*
X172415000Y-119392089D01*
X172450932Y-119572729D01*
X172521414Y-119742889D01*
X172590001Y-119845536D01*
X172590000Y-120762677D01*
X172586324Y-120800000D01*
X172590000Y-120837322D01*
X172590000Y-120837332D01*
X172600997Y-120948985D01*
X172643408Y-121088799D01*
X172644454Y-121092246D01*
X172715026Y-121224276D01*
X172720172Y-121230546D01*
X172809999Y-121340001D01*
X172839003Y-121363804D01*
X174286201Y-122811003D01*
X174309999Y-122840001D01*
X174425724Y-122934974D01*
X174557753Y-123005546D01*
X174701014Y-123049003D01*
X174812667Y-123060000D01*
X174812676Y-123060000D01*
X174849999Y-123063676D01*
X174887322Y-123060000D01*
X175373743Y-123060000D01*
X175373753Y-123059999D01*
X180382848Y-123060001D01*
X180473738Y-123196028D01*
X180603972Y-123326262D01*
X180757111Y-123428586D01*
X180927271Y-123499068D01*
X181107911Y-123535000D01*
X181292089Y-123535000D01*
X181472729Y-123499068D01*
X181642889Y-123428586D01*
X181796028Y-123326262D01*
X181926262Y-123196028D01*
X182028586Y-123042889D01*
X182099068Y-122872729D01*
X182135000Y-122692089D01*
X182135000Y-122507911D01*
X182099068Y-122327271D01*
X182028586Y-122157111D01*
X181926262Y-122003972D01*
X181796028Y-121873738D01*
X181642889Y-121771414D01*
X181472729Y-121700932D01*
X181334531Y-121673442D01*
X181324277Y-121665027D01*
X181192247Y-121594455D01*
X181090781Y-121563677D01*
X181048987Y-121550999D01*
X180937334Y-121540002D01*
X180900001Y-121536325D01*
X180862669Y-121540002D01*
X178538072Y-121540001D01*
X178538072Y-120375000D01*
X178525812Y-120250518D01*
X178489502Y-120130820D01*
X178430537Y-120020506D01*
X178351185Y-119923815D01*
X178322987Y-119900674D01*
X178344059Y-119889411D01*
X178453487Y-119799605D01*
X178469463Y-119829494D01*
X178548815Y-119926185D01*
X178645506Y-120005537D01*
X178755820Y-120064502D01*
X178875518Y-120100812D01*
X179000000Y-120113072D01*
X180220000Y-120113072D01*
X180344482Y-120100812D01*
X180464180Y-120064502D01*
X180574494Y-120005537D01*
X180671185Y-119926185D01*
X180684468Y-119910000D01*
X181691655Y-119910000D01*
X181678992Y-119951746D01*
X181661928Y-120125000D01*
X181661928Y-120925000D01*
X181678992Y-121098254D01*
X181729528Y-121264850D01*
X181811595Y-121418386D01*
X181922038Y-121552962D01*
X182056614Y-121663405D01*
X182210150Y-121745472D01*
X182376746Y-121796008D01*
X182550000Y-121813072D01*
X185450000Y-121813072D01*
X185623254Y-121796008D01*
X185789850Y-121745472D01*
X185943386Y-121663405D01*
X186077962Y-121552962D01*
X186188405Y-121418386D01*
X186270472Y-121264850D01*
X186321008Y-121098254D01*
X186338072Y-120925000D01*
X186338072Y-120125000D01*
X186321008Y-119951746D01*
X186270472Y-119785150D01*
X186188405Y-119631614D01*
X186077962Y-119497038D01*
X185943386Y-119386595D01*
X185789850Y-119304528D01*
X185623254Y-119253992D01*
X185450000Y-119236928D01*
X183786729Y-119236928D01*
X183188804Y-118639003D01*
X183165001Y-118609999D01*
X183049276Y-118515026D01*
X182917247Y-118444454D01*
X182773986Y-118400997D01*
X182662333Y-118390000D01*
X182662322Y-118390000D01*
X182625000Y-118386324D01*
X182587678Y-118390000D01*
X182561578Y-118390000D01*
X183356532Y-117595047D01*
X183356537Y-117595041D01*
X184463506Y-116488072D01*
X185450000Y-116488072D01*
X185623254Y-116471008D01*
X185789850Y-116420472D01*
X185943386Y-116338405D01*
X186077962Y-116227962D01*
X186188405Y-116093386D01*
X186223162Y-116028361D01*
X186322499Y-116018577D01*
X186536447Y-115953676D01*
X186733623Y-115848284D01*
X186906449Y-115706449D01*
X186941996Y-115663135D01*
X187792928Y-114812204D01*
X187829486Y-114842206D01*
X188087466Y-114980099D01*
X188367389Y-115065013D01*
X188585550Y-115086500D01*
X188731450Y-115086500D01*
X188949611Y-115065013D01*
X189229534Y-114980099D01*
X189290001Y-114947779D01*
X189290001Y-117335221D01*
X189229534Y-117302901D01*
X188949611Y-117217987D01*
X188731450Y-117196500D01*
X188585550Y-117196500D01*
X188367389Y-117217987D01*
X188087466Y-117302901D01*
X187829486Y-117440794D01*
X187603366Y-117626366D01*
X187417794Y-117852486D01*
X187279901Y-118110466D01*
X187194987Y-118390389D01*
X187166315Y-118681500D01*
X187194987Y-118972611D01*
X187279901Y-119252534D01*
X187417794Y-119510514D01*
X187603366Y-119736634D01*
X187829486Y-119922206D01*
X188087466Y-120060099D01*
X188367389Y-120145013D01*
X188585550Y-120166500D01*
X188731450Y-120166500D01*
X188949611Y-120145013D01*
X189229534Y-120060099D01*
X189290001Y-120027779D01*
X189290001Y-124290000D01*
X173309671Y-124290000D01*
X173495537Y-124011831D01*
X173626325Y-123696081D01*
X173693000Y-123360883D01*
X173693000Y-123019117D01*
X173626325Y-122683919D01*
X173495537Y-122368169D01*
X173305663Y-122084002D01*
X173063998Y-121842337D01*
X172779831Y-121652463D01*
X172464081Y-121521675D01*
X172128883Y-121455000D01*
X171787117Y-121455000D01*
X171451919Y-121521675D01*
X171136169Y-121652463D01*
X170852002Y-121842337D01*
X170710000Y-121984339D01*
X170710000Y-117508461D01*
X170728966Y-117518599D01*
X171008889Y-117603513D01*
X171227050Y-117625000D01*
X171372950Y-117625000D01*
X171591111Y-117603513D01*
X171871034Y-117518599D01*
X172129014Y-117380706D01*
X172355134Y-117195134D01*
X172540706Y-116969014D01*
X172678599Y-116711034D01*
X172763513Y-116431111D01*
X172792185Y-116140000D01*
X172770612Y-115920966D01*
X173906579Y-114785000D01*
X174090198Y-114785000D01*
X173888997Y-114986201D01*
G36*
X185498201Y-87110068D02*
G01*
X185494524Y-87147400D01*
X185509198Y-87296385D01*
X185552654Y-87439646D01*
X185623226Y-87571676D01*
X185694401Y-87658402D01*
X185718200Y-87687401D01*
X185747198Y-87711199D01*
X186812000Y-88776002D01*
X186835799Y-88805001D01*
X186864797Y-88828799D01*
X186951523Y-88899974D01*
X187024288Y-88938868D01*
X187083553Y-88970546D01*
X187226814Y-89014003D01*
X187338467Y-89025000D01*
X187338476Y-89025000D01*
X187375799Y-89028676D01*
X187413122Y-89025000D01*
X188203999Y-89025000D01*
X188470000Y-89291002D01*
X188470001Y-92469458D01*
X188470000Y-92469468D01*
X188470001Y-93932658D01*
X188470000Y-93932668D01*
X188470000Y-94247468D01*
X188470001Y-100774922D01*
X186346155Y-98651077D01*
X186332086Y-98617111D01*
X186229762Y-98463972D01*
X186099528Y-98333738D01*
X185946389Y-98231414D01*
X185776229Y-98160932D01*
X185638498Y-98133535D01*
X185638498Y-96336303D01*
X185851649Y-96123153D01*
X185972729Y-96099068D01*
X186142889Y-96028586D01*
X186296028Y-95926262D01*
X186426262Y-95796028D01*
X186528586Y-95642889D01*
X186599068Y-95472729D01*
X186635000Y-95292089D01*
X186635000Y-95107911D01*
X186599068Y-94927271D01*
X186528586Y-94757111D01*
X186426262Y-94603972D01*
X186296028Y-94473738D01*
X186142889Y-94371414D01*
X185972729Y-94300932D01*
X185792089Y-94265000D01*
X185607911Y-94265000D01*
X185427271Y-94300932D01*
X185257111Y-94371414D01*
X185103972Y-94473738D01*
X184973738Y-94603972D01*
X184871414Y-94757111D01*
X184800932Y-94927271D01*
X184776847Y-95048351D01*
X184367496Y-95457703D01*
X184338498Y-95481501D01*
X184314700Y-95510499D01*
X184314699Y-95510500D01*
X184243524Y-95597226D01*
X184172952Y-95729256D01*
X184169227Y-95741537D01*
X184129496Y-95872516D01*
X184124920Y-95918973D01*
X184114822Y-96021502D01*
X184118499Y-96058834D01*
X184118498Y-100233775D01*
X184114822Y-100271098D01*
X184118498Y-100308420D01*
X184118498Y-100308430D01*
X184129495Y-100420083D01*
X184162538Y-100529013D01*
X184172952Y-100563344D01*
X184243524Y-100695374D01*
X184277121Y-100736312D01*
X184338497Y-100811099D01*
X184367501Y-100834902D01*
X185817647Y-102285049D01*
X185841732Y-102406129D01*
X185912214Y-102576289D01*
X186014538Y-102729428D01*
X186144772Y-102859662D01*
X186297911Y-102961986D01*
X186468071Y-103032468D01*
X186648711Y-103068400D01*
X186832889Y-103068400D01*
X187013529Y-103032468D01*
X187183689Y-102961986D01*
X187336828Y-102859662D01*
X187467062Y-102729428D01*
X187569386Y-102576289D01*
X187627620Y-102435699D01*
X188115000Y-102923079D01*
X188115000Y-103343476D01*
X188115001Y-103343486D01*
X188115000Y-104763422D01*
X188014952Y-104863470D01*
X187981184Y-104891183D01*
X187953471Y-104924951D01*
X187953468Y-104924954D01*
X187870590Y-105025941D01*
X187788412Y-105179687D01*
X187737805Y-105346510D01*
X187727517Y-105450972D01*
X187655506Y-105489463D01*
X187558815Y-105568815D01*
X187479463Y-105665506D01*
X187420498Y-105775820D01*
X187384188Y-105895518D01*
X187371928Y-106020000D01*
X187371928Y-108544000D01*
X187384188Y-108668482D01*
X187393229Y-108698285D01*
X187343506Y-108724863D01*
X187246815Y-108804215D01*
X187167463Y-108900906D01*
X187108498Y-109011220D01*
X187072188Y-109130918D01*
X187059928Y-109255400D01*
X187059928Y-110314999D01*
X184806690Y-110314999D01*
X184772729Y-110300932D01*
X184592089Y-110265000D01*
X184407911Y-110265000D01*
X184227271Y-110300932D01*
X184193308Y-110315000D01*
X184119201Y-110315000D01*
X184075735Y-110310719D01*
X184032269Y-110315000D01*
X184032259Y-110315000D01*
X183902246Y-110327805D01*
X183735423Y-110378411D01*
X183581677Y-110460589D01*
X183581675Y-110460590D01*
X183581676Y-110460590D01*
X183480689Y-110543468D01*
X183480687Y-110543470D01*
X183446919Y-110571183D01*
X183419206Y-110604951D01*
X182854956Y-111169202D01*
X182821183Y-111196919D01*
X182710589Y-111331678D01*
X182628411Y-111485424D01*
X182577805Y-111652247D01*
X182575408Y-111676583D01*
X182532958Y-111728309D01*
X182478502Y-111809808D01*
X182422275Y-111915000D01*
X182329865Y-111915000D01*
X182286399Y-111910719D01*
X182242933Y-111915000D01*
X180643465Y-111915000D01*
X180599999Y-111910719D01*
X180556533Y-111915000D01*
X180556523Y-111915000D01*
X180426510Y-111927805D01*
X180259687Y-111978411D01*
X180105941Y-112060589D01*
X180091799Y-112072195D01*
X180004953Y-112143468D01*
X180004951Y-112143470D01*
X179971183Y-112171183D01*
X179943470Y-112204951D01*
X179404953Y-112743468D01*
X179404954Y-112743468D01*
X179133422Y-113015000D01*
X176059801Y-113015000D01*
X176603399Y-112471403D01*
X177428420Y-112471403D01*
X177490725Y-112513034D01*
X177660885Y-112583516D01*
X177841525Y-112619448D01*
X178025703Y-112619448D01*
X178206343Y-112583516D01*
X178376503Y-112513034D01*
X178529642Y-112410710D01*
X178659876Y-112280476D01*
X178762200Y-112127337D01*
X178832682Y-111957177D01*
X178868614Y-111776537D01*
X178868614Y-111592359D01*
X178832682Y-111411719D01*
X178762200Y-111241559D01*
X178659876Y-111088420D01*
X178529642Y-110958186D01*
X178376503Y-110855862D01*
X178206343Y-110785380D01*
X178025703Y-110749448D01*
X177841525Y-110749448D01*
X177660885Y-110785380D01*
X177490725Y-110855862D01*
X177347737Y-110951403D01*
X176325919Y-110951403D01*
X176288597Y-110947727D01*
X176251274Y-110951403D01*
X176251264Y-110951403D01*
X176139611Y-110962400D01*
X176001987Y-111004147D01*
X175996350Y-111005857D01*
X175864320Y-111076429D01*
X175782629Y-111143472D01*
X175748596Y-111171402D01*
X175724798Y-111200400D01*
X174948351Y-111976847D01*
X174827271Y-112000932D01*
X174657111Y-112071414D01*
X174503972Y-112173738D01*
X174373738Y-112303972D01*
X174271414Y-112457111D01*
X174200932Y-112627271D01*
X174165000Y-112807911D01*
X174165000Y-112992089D01*
X174169557Y-113015000D01*
X173583465Y-113015000D01*
X173539999Y-113010719D01*
X173496533Y-113015000D01*
X173496523Y-113015000D01*
X173366510Y-113027805D01*
X173199687Y-113078411D01*
X173045941Y-113160589D01*
X173019366Y-113182399D01*
X172944953Y-113243468D01*
X172944951Y-113243470D01*
X172911183Y-113271183D01*
X172883470Y-113304951D01*
X172773915Y-113414506D01*
X172763513Y-113308889D01*
X172678599Y-113028966D01*
X172540706Y-112770986D01*
X172355134Y-112544866D01*
X172129014Y-112359294D01*
X171871034Y-112221401D01*
X171591111Y-112136487D01*
X171372950Y-112115000D01*
X171227050Y-112115000D01*
X171008889Y-112136487D01*
X170728966Y-112221401D01*
X170710000Y-112231539D01*
X170710000Y-101263190D01*
X170775526Y-101385780D01*
X170832281Y-101454935D01*
X170870500Y-101501505D01*
X170899498Y-101525303D01*
X171864499Y-102490305D01*
X171864498Y-104287175D01*
X171860822Y-104324498D01*
X171864498Y-104361820D01*
X171864498Y-104361830D01*
X171875495Y-104473483D01*
X171911473Y-104592089D01*
X171918952Y-104616744D01*
X171989524Y-104748774D01*
X172022335Y-104788754D01*
X172084497Y-104864499D01*
X172113501Y-104888302D01*
X172386186Y-105160987D01*
X172409989Y-105189991D01*
X172525714Y-105284964D01*
X172657743Y-105355536D01*
X172666889Y-105358310D01*
X172422800Y-105602399D01*
X172393802Y-105626197D01*
X172370004Y-105655195D01*
X172370003Y-105655196D01*
X172298828Y-105741922D01*
X172228256Y-105873952D01*
X172205026Y-105950534D01*
X172184800Y-106017212D01*
X172177024Y-106096167D01*
X172170126Y-106166198D01*
X172173803Y-106203530D01*
X172173802Y-110228865D01*
X172173802Y-110446480D01*
X172170126Y-110483802D01*
X172173802Y-110521124D01*
X172173802Y-110521135D01*
X172184799Y-110632788D01*
X172228256Y-110776049D01*
X172298828Y-110908078D01*
X172356952Y-110978902D01*
X172393801Y-111023803D01*
X172422805Y-111047606D01*
X172476847Y-111101648D01*
X172500932Y-111222729D01*
X172571414Y-111392889D01*
X172673738Y-111546028D01*
X172803972Y-111676262D01*
X172957111Y-111778586D01*
X173127271Y-111849068D01*
X173307911Y-111885000D01*
X173492089Y-111885000D01*
X173672729Y-111849068D01*
X173842889Y-111778586D01*
X173996028Y-111676262D01*
X174126262Y-111546028D01*
X174228586Y-111392889D01*
X174299068Y-111222729D01*
X174335000Y-111042089D01*
X174335000Y-110857911D01*
X174299068Y-110677271D01*
X174228586Y-110507111D01*
X174126262Y-110353972D01*
X173996028Y-110223738D01*
X173842889Y-110121414D01*
X173693802Y-110059661D01*
X173693802Y-109095007D01*
X173765820Y-109133502D01*
X173885518Y-109169812D01*
X174010000Y-109182072D01*
X175210000Y-109182072D01*
X175334482Y-109169812D01*
X175454180Y-109133502D01*
X175564494Y-109074537D01*
X175610000Y-109037191D01*
X175655506Y-109074537D01*
X175765820Y-109133502D01*
X175885518Y-109169812D01*
X175952656Y-109176424D01*
X175975026Y-109218276D01*
X176002361Y-109251583D01*
X176069999Y-109334001D01*
X176099000Y-109357802D01*
X176121200Y-109380002D01*
X176145000Y-109409002D01*
X176260725Y-109503975D01*
X176392754Y-109574547D01*
X176536015Y-109618004D01*
X176647668Y-109629001D01*
X176647678Y-109629001D01*
X176685000Y-109632677D01*
X176722323Y-109629001D01*
X185432679Y-109629001D01*
X185470001Y-109632677D01*
X185507323Y-109629001D01*
X185507334Y-109629001D01*
X185618987Y-109618004D01*
X185762248Y-109574547D01*
X185894277Y-109503975D01*
X186010002Y-109409002D01*
X186033805Y-109379998D01*
X186073588Y-109340215D01*
X186102592Y-109316412D01*
X186197565Y-109200687D01*
X186268137Y-109068658D01*
X186311594Y-108925397D01*
X186322591Y-108813744D01*
X186322591Y-108813734D01*
X186326267Y-108776412D01*
X186322591Y-108739089D01*
X186322591Y-105384790D01*
X186326267Y-105347465D01*
X186322591Y-105310140D01*
X186322591Y-105310132D01*
X186311594Y-105198479D01*
X186268137Y-105055218D01*
X186197565Y-104923189D01*
X186189150Y-104912935D01*
X186161660Y-104774737D01*
X186091178Y-104604577D01*
X185988854Y-104451438D01*
X185858620Y-104321204D01*
X185705481Y-104218880D01*
X185535321Y-104148398D01*
X185354681Y-104112466D01*
X185170503Y-104112466D01*
X184989863Y-104148398D01*
X184819703Y-104218880D01*
X184666564Y-104321204D01*
X184536330Y-104451438D01*
X184434006Y-104604577D01*
X184363524Y-104774737D01*
X184327592Y-104955377D01*
X184327592Y-105139555D01*
X184358192Y-105293391D01*
X183981044Y-104916243D01*
X183999068Y-104872729D01*
X184035000Y-104692089D01*
X184035000Y-104507911D01*
X183999068Y-104327271D01*
X183928586Y-104157111D01*
X183850303Y-104039952D01*
X183849003Y-104026750D01*
X183805546Y-103883489D01*
X183734974Y-103751460D01*
X183640001Y-103635735D01*
X183611002Y-103611936D01*
X183366384Y-103367319D01*
X183366384Y-100628517D01*
X183370060Y-100591194D01*
X183366384Y-100553871D01*
X183366384Y-100553862D01*
X183355387Y-100442209D01*
X183311930Y-100298948D01*
X183241358Y-100166919D01*
X183146385Y-100051194D01*
X183117387Y-100027396D01*
X182146993Y-99057002D01*
X182123190Y-99027999D01*
X182007465Y-98933026D01*
X181875436Y-98862454D01*
X181732175Y-98818997D01*
X181620522Y-98808000D01*
X181620511Y-98808000D01*
X181583189Y-98804324D01*
X181545867Y-98808000D01*
X179235000Y-98808000D01*
X179235000Y-98807911D01*
X179199068Y-98627271D01*
X179128586Y-98457111D01*
X179026262Y-98303972D01*
X178896028Y-98173738D01*
X178742889Y-98071414D01*
X178572729Y-98000932D01*
X178392089Y-97965000D01*
X178207911Y-97965000D01*
X178027271Y-98000932D01*
X177857111Y-98071414D01*
X177754465Y-98140000D01*
X177260000Y-98140000D01*
X177260000Y-94837325D01*
X177263676Y-94800000D01*
X177260000Y-94762675D01*
X177260000Y-94762667D01*
X177249003Y-94651014D01*
X177205546Y-94507753D01*
X177134974Y-94375724D01*
X177040001Y-94259999D01*
X177011004Y-94236202D01*
X176002000Y-93227199D01*
X176002000Y-87845535D01*
X176070586Y-87742889D01*
X176141068Y-87572729D01*
X176177000Y-87392089D01*
X176177000Y-87207911D01*
X176172144Y-87183500D01*
X179371928Y-87183500D01*
X179371928Y-89544000D01*
X179384188Y-89668482D01*
X179420498Y-89788180D01*
X179479463Y-89898494D01*
X179558815Y-89995185D01*
X179655506Y-90074537D01*
X179765820Y-90133502D01*
X179885518Y-90169812D01*
X180010000Y-90182072D01*
X181210000Y-90182072D01*
X181334482Y-90169812D01*
X181454180Y-90133502D01*
X181564494Y-90074537D01*
X181661185Y-89995185D01*
X181740537Y-89898494D01*
X181799502Y-89788180D01*
X181835812Y-89668482D01*
X181848072Y-89544000D01*
X181848072Y-87020000D01*
X181835812Y-86895518D01*
X181799502Y-86775820D01*
X181740537Y-86665506D01*
X181661185Y-86568815D01*
X181564494Y-86489463D01*
X181454180Y-86430498D01*
X181334482Y-86394188D01*
X181267345Y-86387576D01*
X181244974Y-86345724D01*
X181150001Y-86229999D01*
X181120997Y-86206196D01*
X181098300Y-86183499D01*
X185498200Y-86183499D01*
X185498201Y-87110068D01*
X185498201Y-87110068D01*
G37*
X185498201Y-87110068D02*
X185494524Y-87147400D01*
X185509198Y-87296385D01*
X185552654Y-87439646D01*
X185623226Y-87571676D01*
X185694401Y-87658402D01*
X185718200Y-87687401D01*
X185747198Y-87711199D01*
X186812000Y-88776002D01*
X186835799Y-88805001D01*
X186864797Y-88828799D01*
X186951523Y-88899974D01*
X187024288Y-88938868D01*
X187083553Y-88970546D01*
X187226814Y-89014003D01*
X187338467Y-89025000D01*
X187338476Y-89025000D01*
X187375799Y-89028676D01*
X187413122Y-89025000D01*
X188203999Y-89025000D01*
X188470000Y-89291002D01*
X188470001Y-92469458D01*
X188470000Y-92469468D01*
X188470001Y-93932658D01*
X188470000Y-93932668D01*
X188470000Y-94247468D01*
X188470001Y-100774922D01*
X186346155Y-98651077D01*
X186332086Y-98617111D01*
X186229762Y-98463972D01*
X186099528Y-98333738D01*
X185946389Y-98231414D01*
X185776229Y-98160932D01*
X185638498Y-98133535D01*
X185638498Y-96336303D01*
X185851649Y-96123153D01*
X185972729Y-96099068D01*
X186142889Y-96028586D01*
X186296028Y-95926262D01*
X186426262Y-95796028D01*
X186528586Y-95642889D01*
X186599068Y-95472729D01*
X186635000Y-95292089D01*
X186635000Y-95107911D01*
X186599068Y-94927271D01*
X186528586Y-94757111D01*
X186426262Y-94603972D01*
X186296028Y-94473738D01*
X186142889Y-94371414D01*
X185972729Y-94300932D01*
X185792089Y-94265000D01*
X185607911Y-94265000D01*
X185427271Y-94300932D01*
X185257111Y-94371414D01*
X185103972Y-94473738D01*
X184973738Y-94603972D01*
X184871414Y-94757111D01*
X184800932Y-94927271D01*
X184776847Y-95048351D01*
X184367496Y-95457703D01*
X184338498Y-95481501D01*
X184314700Y-95510499D01*
X184314699Y-95510500D01*
X184243524Y-95597226D01*
X184172952Y-95729256D01*
X184169227Y-95741537D01*
X184129496Y-95872516D01*
X184124920Y-95918973D01*
X184114822Y-96021502D01*
X184118499Y-96058834D01*
X184118498Y-100233775D01*
X184114822Y-100271098D01*
X184118498Y-100308420D01*
X184118498Y-100308430D01*
X184129495Y-100420083D01*
X184162538Y-100529013D01*
X184172952Y-100563344D01*
X184243524Y-100695374D01*
X184277121Y-100736312D01*
X184338497Y-100811099D01*
X184367501Y-100834902D01*
X185817647Y-102285049D01*
X185841732Y-102406129D01*
X185912214Y-102576289D01*
X186014538Y-102729428D01*
X186144772Y-102859662D01*
X186297911Y-102961986D01*
X186468071Y-103032468D01*
X186648711Y-103068400D01*
X186832889Y-103068400D01*
X187013529Y-103032468D01*
X187183689Y-102961986D01*
X187336828Y-102859662D01*
X187467062Y-102729428D01*
X187569386Y-102576289D01*
X187627620Y-102435699D01*
X188115000Y-102923079D01*
X188115000Y-103343476D01*
X188115001Y-103343486D01*
X188115000Y-104763422D01*
X188014952Y-104863470D01*
X187981184Y-104891183D01*
X187953471Y-104924951D01*
X187953468Y-104924954D01*
X187870590Y-105025941D01*
X187788412Y-105179687D01*
X187737805Y-105346510D01*
X187727517Y-105450972D01*
X187655506Y-105489463D01*
X187558815Y-105568815D01*
X187479463Y-105665506D01*
X187420498Y-105775820D01*
X187384188Y-105895518D01*
X187371928Y-106020000D01*
X187371928Y-108544000D01*
X187384188Y-108668482D01*
X187393229Y-108698285D01*
X187343506Y-108724863D01*
X187246815Y-108804215D01*
X187167463Y-108900906D01*
X187108498Y-109011220D01*
X187072188Y-109130918D01*
X187059928Y-109255400D01*
X187059928Y-110314999D01*
X184806690Y-110314999D01*
X184772729Y-110300932D01*
X184592089Y-110265000D01*
X184407911Y-110265000D01*
X184227271Y-110300932D01*
X184193308Y-110315000D01*
X184119201Y-110315000D01*
X184075735Y-110310719D01*
X184032269Y-110315000D01*
X184032259Y-110315000D01*
X183902246Y-110327805D01*
X183735423Y-110378411D01*
X183581677Y-110460589D01*
X183581675Y-110460590D01*
X183581676Y-110460590D01*
X183480689Y-110543468D01*
X183480687Y-110543470D01*
X183446919Y-110571183D01*
X183419206Y-110604951D01*
X182854956Y-111169202D01*
X182821183Y-111196919D01*
X182710589Y-111331678D01*
X182628411Y-111485424D01*
X182577805Y-111652247D01*
X182575408Y-111676583D01*
X182532958Y-111728309D01*
X182478502Y-111809808D01*
X182422275Y-111915000D01*
X182329865Y-111915000D01*
X182286399Y-111910719D01*
X182242933Y-111915000D01*
X180643465Y-111915000D01*
X180599999Y-111910719D01*
X180556533Y-111915000D01*
X180556523Y-111915000D01*
X180426510Y-111927805D01*
X180259687Y-111978411D01*
X180105941Y-112060589D01*
X180091799Y-112072195D01*
X180004953Y-112143468D01*
X180004951Y-112143470D01*
X179971183Y-112171183D01*
X179943470Y-112204951D01*
X179404953Y-112743468D01*
X179404954Y-112743468D01*
X179133422Y-113015000D01*
X176059801Y-113015000D01*
X176603399Y-112471403D01*
X177428420Y-112471403D01*
X177490725Y-112513034D01*
X177660885Y-112583516D01*
X177841525Y-112619448D01*
X178025703Y-112619448D01*
X178206343Y-112583516D01*
X178376503Y-112513034D01*
X178529642Y-112410710D01*
X178659876Y-112280476D01*
X178762200Y-112127337D01*
X178832682Y-111957177D01*
X178868614Y-111776537D01*
X178868614Y-111592359D01*
X178832682Y-111411719D01*
X178762200Y-111241559D01*
X178659876Y-111088420D01*
X178529642Y-110958186D01*
X178376503Y-110855862D01*
X178206343Y-110785380D01*
X178025703Y-110749448D01*
X177841525Y-110749448D01*
X177660885Y-110785380D01*
X177490725Y-110855862D01*
X177347737Y-110951403D01*
X176325919Y-110951403D01*
X176288597Y-110947727D01*
X176251274Y-110951403D01*
X176251264Y-110951403D01*
X176139611Y-110962400D01*
X176001987Y-111004147D01*
X175996350Y-111005857D01*
X175864320Y-111076429D01*
X175782629Y-111143472D01*
X175748596Y-111171402D01*
X175724798Y-111200400D01*
X174948351Y-111976847D01*
X174827271Y-112000932D01*
X174657111Y-112071414D01*
X174503972Y-112173738D01*
X174373738Y-112303972D01*
X174271414Y-112457111D01*
X174200932Y-112627271D01*
X174165000Y-112807911D01*
X174165000Y-112992089D01*
X174169557Y-113015000D01*
X173583465Y-113015000D01*
X173539999Y-113010719D01*
X173496533Y-113015000D01*
X173496523Y-113015000D01*
X173366510Y-113027805D01*
X173199687Y-113078411D01*
X173045941Y-113160589D01*
X173019366Y-113182399D01*
X172944953Y-113243468D01*
X172944951Y-113243470D01*
X172911183Y-113271183D01*
X172883470Y-113304951D01*
X172773915Y-113414506D01*
X172763513Y-113308889D01*
X172678599Y-113028966D01*
X172540706Y-112770986D01*
X172355134Y-112544866D01*
X172129014Y-112359294D01*
X171871034Y-112221401D01*
X171591111Y-112136487D01*
X171372950Y-112115000D01*
X171227050Y-112115000D01*
X171008889Y-112136487D01*
X170728966Y-112221401D01*
X170710000Y-112231539D01*
X170710000Y-101263190D01*
X170775526Y-101385780D01*
X170832281Y-101454935D01*
X170870500Y-101501505D01*
X170899498Y-101525303D01*
X171864499Y-102490305D01*
X171864498Y-104287175D01*
X171860822Y-104324498D01*
X171864498Y-104361820D01*
X171864498Y-104361830D01*
X171875495Y-104473483D01*
X171911473Y-104592089D01*
X171918952Y-104616744D01*
X171989524Y-104748774D01*
X172022335Y-104788754D01*
X172084497Y-104864499D01*
X172113501Y-104888302D01*
X172386186Y-105160987D01*
X172409989Y-105189991D01*
X172525714Y-105284964D01*
X172657743Y-105355536D01*
X172666889Y-105358310D01*
X172422800Y-105602399D01*
X172393802Y-105626197D01*
X172370004Y-105655195D01*
X172370003Y-105655196D01*
X172298828Y-105741922D01*
X172228256Y-105873952D01*
X172205026Y-105950534D01*
X172184800Y-106017212D01*
X172177024Y-106096167D01*
X172170126Y-106166198D01*
X172173803Y-106203530D01*
X172173802Y-110228865D01*
X172173802Y-110446480D01*
X172170126Y-110483802D01*
X172173802Y-110521124D01*
X172173802Y-110521135D01*
X172184799Y-110632788D01*
X172228256Y-110776049D01*
X172298828Y-110908078D01*
X172356952Y-110978902D01*
X172393801Y-111023803D01*
X172422805Y-111047606D01*
X172476847Y-111101648D01*
X172500932Y-111222729D01*
X172571414Y-111392889D01*
X172673738Y-111546028D01*
X172803972Y-111676262D01*
X172957111Y-111778586D01*
X173127271Y-111849068D01*
X173307911Y-111885000D01*
X173492089Y-111885000D01*
X173672729Y-111849068D01*
X173842889Y-111778586D01*
X173996028Y-111676262D01*
X174126262Y-111546028D01*
X174228586Y-111392889D01*
X174299068Y-111222729D01*
X174335000Y-111042089D01*
X174335000Y-110857911D01*
X174299068Y-110677271D01*
X174228586Y-110507111D01*
X174126262Y-110353972D01*
X173996028Y-110223738D01*
X173842889Y-110121414D01*
X173693802Y-110059661D01*
X173693802Y-109095007D01*
X173765820Y-109133502D01*
X173885518Y-109169812D01*
X174010000Y-109182072D01*
X175210000Y-109182072D01*
X175334482Y-109169812D01*
X175454180Y-109133502D01*
X175564494Y-109074537D01*
X175610000Y-109037191D01*
X175655506Y-109074537D01*
X175765820Y-109133502D01*
X175885518Y-109169812D01*
X175952656Y-109176424D01*
X175975026Y-109218276D01*
X176002361Y-109251583D01*
X176069999Y-109334001D01*
X176099000Y-109357802D01*
X176121200Y-109380002D01*
X176145000Y-109409002D01*
X176260725Y-109503975D01*
X176392754Y-109574547D01*
X176536015Y-109618004D01*
X176647668Y-109629001D01*
X176647678Y-109629001D01*
X176685000Y-109632677D01*
X176722323Y-109629001D01*
X185432679Y-109629001D01*
X185470001Y-109632677D01*
X185507323Y-109629001D01*
X185507334Y-109629001D01*
X185618987Y-109618004D01*
X185762248Y-109574547D01*
X185894277Y-109503975D01*
X186010002Y-109409002D01*
X186033805Y-109379998D01*
X186073588Y-109340215D01*
X186102592Y-109316412D01*
X186197565Y-109200687D01*
X186268137Y-109068658D01*
X186311594Y-108925397D01*
X186322591Y-108813744D01*
X186322591Y-108813734D01*
X186326267Y-108776412D01*
X186322591Y-108739089D01*
X186322591Y-105384790D01*
X186326267Y-105347465D01*
X186322591Y-105310140D01*
X186322591Y-105310132D01*
X186311594Y-105198479D01*
X186268137Y-105055218D01*
X186197565Y-104923189D01*
X186189150Y-104912935D01*
X186161660Y-104774737D01*
X186091178Y-104604577D01*
X185988854Y-104451438D01*
X185858620Y-104321204D01*
X185705481Y-104218880D01*
X185535321Y-104148398D01*
X185354681Y-104112466D01*
X185170503Y-104112466D01*
X184989863Y-104148398D01*
X184819703Y-104218880D01*
X184666564Y-104321204D01*
X184536330Y-104451438D01*
X184434006Y-104604577D01*
X184363524Y-104774737D01*
X184327592Y-104955377D01*
X184327592Y-105139555D01*
X184358192Y-105293391D01*
X183981044Y-104916243D01*
X183999068Y-104872729D01*
X184035000Y-104692089D01*
X184035000Y-104507911D01*
X183999068Y-104327271D01*
X183928586Y-104157111D01*
X183850303Y-104039952D01*
X183849003Y-104026750D01*
X183805546Y-103883489D01*
X183734974Y-103751460D01*
X183640001Y-103635735D01*
X183611002Y-103611936D01*
X183366384Y-103367319D01*
X183366384Y-100628517D01*
X183370060Y-100591194D01*
X183366384Y-100553871D01*
X183366384Y-100553862D01*
X183355387Y-100442209D01*
X183311930Y-100298948D01*
X183241358Y-100166919D01*
X183146385Y-100051194D01*
X183117387Y-100027396D01*
X182146993Y-99057002D01*
X182123190Y-99027999D01*
X182007465Y-98933026D01*
X181875436Y-98862454D01*
X181732175Y-98818997D01*
X181620522Y-98808000D01*
X181620511Y-98808000D01*
X181583189Y-98804324D01*
X181545867Y-98808000D01*
X179235000Y-98808000D01*
X179235000Y-98807911D01*
X179199068Y-98627271D01*
X179128586Y-98457111D01*
X179026262Y-98303972D01*
X178896028Y-98173738D01*
X178742889Y-98071414D01*
X178572729Y-98000932D01*
X178392089Y-97965000D01*
X178207911Y-97965000D01*
X178027271Y-98000932D01*
X177857111Y-98071414D01*
X177754465Y-98140000D01*
X177260000Y-98140000D01*
X177260000Y-94837325D01*
X177263676Y-94800000D01*
X177260000Y-94762675D01*
X177260000Y-94762667D01*
X177249003Y-94651014D01*
X177205546Y-94507753D01*
X177134974Y-94375724D01*
X177040001Y-94259999D01*
X177011004Y-94236202D01*
X176002000Y-93227199D01*
X176002000Y-87845535D01*
X176070586Y-87742889D01*
X176141068Y-87572729D01*
X176177000Y-87392089D01*
X176177000Y-87207911D01*
X176172144Y-87183500D01*
X179371928Y-87183500D01*
X179371928Y-89544000D01*
X179384188Y-89668482D01*
X179420498Y-89788180D01*
X179479463Y-89898494D01*
X179558815Y-89995185D01*
X179655506Y-90074537D01*
X179765820Y-90133502D01*
X179885518Y-90169812D01*
X180010000Y-90182072D01*
X181210000Y-90182072D01*
X181334482Y-90169812D01*
X181454180Y-90133502D01*
X181564494Y-90074537D01*
X181661185Y-89995185D01*
X181740537Y-89898494D01*
X181799502Y-89788180D01*
X181835812Y-89668482D01*
X181848072Y-89544000D01*
X181848072Y-87020000D01*
X181835812Y-86895518D01*
X181799502Y-86775820D01*
X181740537Y-86665506D01*
X181661185Y-86568815D01*
X181564494Y-86489463D01*
X181454180Y-86430498D01*
X181334482Y-86394188D01*
X181267345Y-86387576D01*
X181244974Y-86345724D01*
X181150001Y-86229999D01*
X181120997Y-86206196D01*
X181098300Y-86183499D01*
X185498200Y-86183499D01*
X185498201Y-87110068D01*
G36*
X174307000Y-87207911D02*
G01*
X174307000Y-87392089D01*
X174342932Y-87572729D01*
X174413414Y-87742889D01*
X174482000Y-87845536D01*
X174482001Y-93200148D01*
X174463303Y-93203867D01*
X174316329Y-93264745D01*
X174316329Y-91093151D01*
X174320005Y-91055826D01*
X174316329Y-91018501D01*
X174316329Y-91018493D01*
X174305332Y-90906840D01*
X174261875Y-90763579D01*
X174191303Y-90631550D01*
X174096330Y-90515825D01*
X174067327Y-90492023D01*
X173920666Y-90345362D01*
X173920500Y-90343677D01*
X173920500Y-90343667D01*
X173909503Y-90232014D01*
X173866046Y-90088753D01*
X173831981Y-90025023D01*
X173795474Y-89956723D01*
X173724299Y-89869997D01*
X173700501Y-89840999D01*
X173671504Y-89817202D01*
X173548572Y-89694270D01*
X173548572Y-88431000D01*
X173536312Y-88306518D01*
X173500002Y-88186820D01*
X173441037Y-88076506D01*
X173361685Y-87979815D01*
X173264994Y-87900463D01*
X173154680Y-87841498D01*
X173034982Y-87805188D01*
X172910500Y-87792928D01*
X171648400Y-87792928D01*
X171648400Y-87736572D01*
X172506000Y-87736572D01*
X172630482Y-87724312D01*
X172750180Y-87688002D01*
X172860494Y-87629037D01*
X172957185Y-87549685D01*
X173036537Y-87452994D01*
X173095502Y-87342680D01*
X173131812Y-87222982D01*
X173135701Y-87183500D01*
X174311856Y-87183500D01*
X174307000Y-87207911D01*
X174307000Y-87207911D01*
G37*
X174307000Y-87207911D02*
X174307000Y-87392089D01*
X174342932Y-87572729D01*
X174413414Y-87742889D01*
X174482000Y-87845536D01*
X174482001Y-93200148D01*
X174463303Y-93203867D01*
X174316329Y-93264745D01*
X174316329Y-91093151D01*
X174320005Y-91055826D01*
X174316329Y-91018501D01*
X174316329Y-91018493D01*
X174305332Y-90906840D01*
X174261875Y-90763579D01*
X174191303Y-90631550D01*
X174096330Y-90515825D01*
X174067327Y-90492023D01*
X173920666Y-90345362D01*
X173920500Y-90343677D01*
X173920500Y-90343667D01*
X173909503Y-90232014D01*
X173866046Y-90088753D01*
X173831981Y-90025023D01*
X173795474Y-89956723D01*
X173724299Y-89869997D01*
X173700501Y-89840999D01*
X173671504Y-89817202D01*
X173548572Y-89694270D01*
X173548572Y-88431000D01*
X173536312Y-88306518D01*
X173500002Y-88186820D01*
X173441037Y-88076506D01*
X173361685Y-87979815D01*
X173264994Y-87900463D01*
X173154680Y-87841498D01*
X173034982Y-87805188D01*
X172910500Y-87792928D01*
X171648400Y-87792928D01*
X171648400Y-87736572D01*
X172506000Y-87736572D01*
X172630482Y-87724312D01*
X172750180Y-87688002D01*
X172860494Y-87629037D01*
X172957185Y-87549685D01*
X173036537Y-87452994D01*
X173095502Y-87342680D01*
X173131812Y-87222982D01*
X173135701Y-87183500D01*
X174311856Y-87183500D01*
X174307000Y-87207911D01*
M02*
