G04 #@! TF.GenerationSoftware,KiCad,Pcbnew,(5.1.2)-2*
G04 #@! TF.CreationDate,2019-11-25T21:55:28+01:00*
G04 #@! TF.ProjectId,HM-LC-SW1-BA-PCB_mini_MAX1724,484d2d4c-432d-4535-9731-2d42412d5043,rev?*
G04 #@! TF.SameCoordinates,Original*
G04 #@! TF.FileFunction,Legend,Bot*
G04 #@! TF.FilePolarity,Positive*
%FSLAX46Y46*%
G04 Gerber Fmt 4.6, Leading zero omitted, Abs format (unit mm)*
G04 Created by KiCad (PCBNEW (5.1.2)-2) date 2019-11-25 21:55:28*
%MOMM*%
%LPD*%
G04 APERTURE LIST*
%ADD10C,0.150000*%
%ADD11C,0.100000*%
%ADD12C,0.120000*%
G04 APERTURE END LIST*
D10*
X172426190Y-101988880D02*
X172426190Y-100988880D01*
X171997619Y-101941261D02*
X171854761Y-101988880D01*
X171616666Y-101988880D01*
X171521428Y-101941261D01*
X171473809Y-101893642D01*
X171426190Y-101798404D01*
X171426190Y-101703166D01*
X171473809Y-101607928D01*
X171521428Y-101560309D01*
X171616666Y-101512690D01*
X171807142Y-101465071D01*
X171902380Y-101417452D01*
X171950000Y-101369833D01*
X171997619Y-101274595D01*
X171997619Y-101179357D01*
X171950000Y-101084119D01*
X171902380Y-101036500D01*
X171807142Y-100988880D01*
X171569047Y-100988880D01*
X171426190Y-101036500D01*
X170997619Y-101988880D02*
X170997619Y-100988880D01*
X170616666Y-100988880D01*
X170521428Y-101036500D01*
X170473809Y-101084119D01*
X170426190Y-101179357D01*
X170426190Y-101322214D01*
X170473809Y-101417452D01*
X170521428Y-101465071D01*
X170616666Y-101512690D01*
X170997619Y-101512690D01*
D11*
X175059857Y-99712428D02*
X175059857Y-99112428D01*
X174859857Y-99541000D01*
X174659857Y-99112428D01*
X174659857Y-99712428D01*
X174374142Y-99712428D02*
X174374142Y-99112428D01*
X174117000Y-99683857D02*
X174031285Y-99712428D01*
X173888428Y-99712428D01*
X173831285Y-99683857D01*
X173802714Y-99655285D01*
X173774142Y-99598142D01*
X173774142Y-99541000D01*
X173802714Y-99483857D01*
X173831285Y-99455285D01*
X173888428Y-99426714D01*
X174002714Y-99398142D01*
X174059857Y-99369571D01*
X174088428Y-99341000D01*
X174117000Y-99283857D01*
X174117000Y-99226714D01*
X174088428Y-99169571D01*
X174059857Y-99141000D01*
X174002714Y-99112428D01*
X173859857Y-99112428D01*
X173774142Y-99141000D01*
X173402714Y-99112428D02*
X173288428Y-99112428D01*
X173231285Y-99141000D01*
X173174142Y-99198142D01*
X173145571Y-99312428D01*
X173145571Y-99512428D01*
X173174142Y-99626714D01*
X173231285Y-99683857D01*
X173288428Y-99712428D01*
X173402714Y-99712428D01*
X173459857Y-99683857D01*
X173517000Y-99626714D01*
X173545571Y-99512428D01*
X173545571Y-99312428D01*
X173517000Y-99198142D01*
X173459857Y-99141000D01*
X173402714Y-99112428D01*
X174761428Y-97143857D02*
X174675714Y-97172428D01*
X174532857Y-97172428D01*
X174475714Y-97143857D01*
X174447142Y-97115285D01*
X174418571Y-97058142D01*
X174418571Y-97001000D01*
X174447142Y-96943857D01*
X174475714Y-96915285D01*
X174532857Y-96886714D01*
X174647142Y-96858142D01*
X174704285Y-96829571D01*
X174732857Y-96801000D01*
X174761428Y-96743857D01*
X174761428Y-96686714D01*
X174732857Y-96629571D01*
X174704285Y-96601000D01*
X174647142Y-96572428D01*
X174504285Y-96572428D01*
X174418571Y-96601000D01*
X173818571Y-97115285D02*
X173847142Y-97143857D01*
X173932857Y-97172428D01*
X173990000Y-97172428D01*
X174075714Y-97143857D01*
X174132857Y-97086714D01*
X174161428Y-97029571D01*
X174190000Y-96915285D01*
X174190000Y-96829571D01*
X174161428Y-96715285D01*
X174132857Y-96658142D01*
X174075714Y-96601000D01*
X173990000Y-96572428D01*
X173932857Y-96572428D01*
X173847142Y-96601000D01*
X173818571Y-96629571D01*
X173561428Y-97172428D02*
X173561428Y-96572428D01*
X173218571Y-97172428D02*
X173475714Y-96829571D01*
X173218571Y-96572428D02*
X173561428Y-96915285D01*
X175369428Y-94632428D02*
X175569428Y-94346714D01*
X175712285Y-94632428D02*
X175712285Y-94032428D01*
X175483714Y-94032428D01*
X175426571Y-94061000D01*
X175398000Y-94089571D01*
X175369428Y-94146714D01*
X175369428Y-94232428D01*
X175398000Y-94289571D01*
X175426571Y-94318142D01*
X175483714Y-94346714D01*
X175712285Y-94346714D01*
X175112285Y-94318142D02*
X174912285Y-94318142D01*
X174826571Y-94632428D02*
X175112285Y-94632428D01*
X175112285Y-94032428D01*
X174826571Y-94032428D01*
X174598000Y-94603857D02*
X174512285Y-94632428D01*
X174369428Y-94632428D01*
X174312285Y-94603857D01*
X174283714Y-94575285D01*
X174255142Y-94518142D01*
X174255142Y-94461000D01*
X174283714Y-94403857D01*
X174312285Y-94375285D01*
X174369428Y-94346714D01*
X174483714Y-94318142D01*
X174540857Y-94289571D01*
X174569428Y-94261000D01*
X174598000Y-94203857D01*
X174598000Y-94146714D01*
X174569428Y-94089571D01*
X174540857Y-94061000D01*
X174483714Y-94032428D01*
X174340857Y-94032428D01*
X174255142Y-94061000D01*
X173998000Y-94318142D02*
X173798000Y-94318142D01*
X173712285Y-94632428D02*
X173998000Y-94632428D01*
X173998000Y-94032428D01*
X173712285Y-94032428D01*
X173540857Y-94032428D02*
X173198000Y-94032428D01*
X173369428Y-94632428D02*
X173369428Y-94032428D01*
X175059857Y-89679428D02*
X175059857Y-89079428D01*
X174859857Y-89508000D01*
X174659857Y-89079428D01*
X174659857Y-89679428D01*
X174259857Y-89079428D02*
X174145571Y-89079428D01*
X174088428Y-89108000D01*
X174031285Y-89165142D01*
X174002714Y-89279428D01*
X174002714Y-89479428D01*
X174031285Y-89593714D01*
X174088428Y-89650857D01*
X174145571Y-89679428D01*
X174259857Y-89679428D01*
X174317000Y-89650857D01*
X174374142Y-89593714D01*
X174402714Y-89479428D01*
X174402714Y-89279428D01*
X174374142Y-89165142D01*
X174317000Y-89108000D01*
X174259857Y-89079428D01*
X173774142Y-89650857D02*
X173688428Y-89679428D01*
X173545571Y-89679428D01*
X173488428Y-89650857D01*
X173459857Y-89622285D01*
X173431285Y-89565142D01*
X173431285Y-89508000D01*
X173459857Y-89450857D01*
X173488428Y-89422285D01*
X173545571Y-89393714D01*
X173659857Y-89365142D01*
X173717000Y-89336571D01*
X173745571Y-89308000D01*
X173774142Y-89250857D01*
X173774142Y-89193714D01*
X173745571Y-89136571D01*
X173717000Y-89108000D01*
X173659857Y-89079428D01*
X173517000Y-89079428D01*
X173431285Y-89108000D01*
X173174142Y-89679428D02*
X173174142Y-89079428D01*
D12*
X181390000Y-120500000D02*
X181390000Y-116813748D01*
X184810000Y-120500000D02*
X184810000Y-116813748D01*
X178611252Y-122710000D02*
X178088748Y-122710000D01*
X178611252Y-121290000D02*
X178088748Y-121290000D01*
X177761252Y-115910000D02*
X177238748Y-115910000D01*
X177761252Y-114490000D02*
X177238748Y-114490000D01*
X187836252Y-110660000D02*
X187313748Y-110660000D01*
X187836252Y-109240000D02*
X187313748Y-109240000D01*
D10*
X189610000Y-107282000D02*
X173610000Y-107282000D01*
X173610000Y-107282000D02*
X173610000Y-88282000D01*
X173610000Y-88282000D02*
X189610000Y-88282000D01*
X189610000Y-88282000D02*
X189610000Y-107282000D01*
D12*
X179910000Y-117670000D02*
X179910000Y-120100000D01*
X176840000Y-119430000D02*
X176840000Y-117670000D01*
D10*
X185833333Y-121861904D02*
X186214285Y-121861904D01*
X186214285Y-121061904D01*
X185147619Y-121861904D02*
X185604761Y-121861904D01*
X185376190Y-121861904D02*
X185376190Y-121061904D01*
X185452380Y-121176190D01*
X185528571Y-121252380D01*
X185604761Y-121290476D01*
X178616666Y-124057142D02*
X178664285Y-124104761D01*
X178807142Y-124152380D01*
X178902380Y-124152380D01*
X179045238Y-124104761D01*
X179140476Y-124009523D01*
X179188095Y-123914285D01*
X179235714Y-123723809D01*
X179235714Y-123580952D01*
X179188095Y-123390476D01*
X179140476Y-123295238D01*
X179045238Y-123200000D01*
X178902380Y-123152380D01*
X178807142Y-123152380D01*
X178664285Y-123200000D01*
X178616666Y-123247619D01*
X178283333Y-123152380D02*
X177616666Y-123152380D01*
X178045238Y-124152380D01*
X177716666Y-114057142D02*
X177764285Y-114104761D01*
X177907142Y-114152380D01*
X178002380Y-114152380D01*
X178145238Y-114104761D01*
X178240476Y-114009523D01*
X178288095Y-113914285D01*
X178335714Y-113723809D01*
X178335714Y-113580952D01*
X178288095Y-113390476D01*
X178240476Y-113295238D01*
X178145238Y-113200000D01*
X178002380Y-113152380D01*
X177907142Y-113152380D01*
X177764285Y-113200000D01*
X177716666Y-113247619D01*
X176859523Y-113152380D02*
X177050000Y-113152380D01*
X177145238Y-113200000D01*
X177192857Y-113247619D01*
X177288095Y-113390476D01*
X177335714Y-113580952D01*
X177335714Y-113961904D01*
X177288095Y-114057142D01*
X177240476Y-114104761D01*
X177145238Y-114152380D01*
X176954761Y-114152380D01*
X176859523Y-114104761D01*
X176811904Y-114057142D01*
X176764285Y-113961904D01*
X176764285Y-113723809D01*
X176811904Y-113628571D01*
X176859523Y-113580952D01*
X176954761Y-113533333D01*
X177145238Y-113533333D01*
X177240476Y-113580952D01*
X177288095Y-113628571D01*
X177335714Y-113723809D01*
X187716666Y-111957142D02*
X187764285Y-112004761D01*
X187907142Y-112052380D01*
X188002380Y-112052380D01*
X188145238Y-112004761D01*
X188240476Y-111909523D01*
X188288095Y-111814285D01*
X188335714Y-111623809D01*
X188335714Y-111480952D01*
X188288095Y-111290476D01*
X188240476Y-111195238D01*
X188145238Y-111100000D01*
X188002380Y-111052380D01*
X187907142Y-111052380D01*
X187764285Y-111100000D01*
X187716666Y-111147619D01*
X187383333Y-111052380D02*
X186764285Y-111052380D01*
X187097619Y-111433333D01*
X186954761Y-111433333D01*
X186859523Y-111480952D01*
X186811904Y-111528571D01*
X186764285Y-111623809D01*
X186764285Y-111861904D01*
X186811904Y-111957142D01*
X186859523Y-112004761D01*
X186954761Y-112052380D01*
X187240476Y-112052380D01*
X187335714Y-112004761D01*
X187383333Y-111957142D01*
X183016666Y-110761904D02*
X183016666Y-111333333D01*
X183054761Y-111447619D01*
X183130952Y-111523809D01*
X183245238Y-111561904D01*
X183321428Y-111561904D01*
X182635714Y-111561904D02*
X182635714Y-110761904D01*
X182330952Y-110761904D01*
X182254761Y-110800000D01*
X182216666Y-110838095D01*
X182178571Y-110914285D01*
X182178571Y-111028571D01*
X182216666Y-111104761D01*
X182254761Y-111142857D01*
X182330952Y-111180952D01*
X182635714Y-111180952D01*
X181416666Y-111561904D02*
X181873809Y-111561904D01*
X181645238Y-111561904D02*
X181645238Y-110761904D01*
X181721428Y-110876190D01*
X181797619Y-110952380D01*
X181873809Y-110990476D01*
X182586190Y-100734380D02*
X182586190Y-99734380D01*
X181538571Y-100639142D02*
X181586190Y-100686761D01*
X181729047Y-100734380D01*
X181824285Y-100734380D01*
X181967142Y-100686761D01*
X182062380Y-100591523D01*
X182110000Y-100496285D01*
X182157619Y-100305809D01*
X182157619Y-100162952D01*
X182110000Y-99972476D01*
X182062380Y-99877238D01*
X181967142Y-99782000D01*
X181824285Y-99734380D01*
X181729047Y-99734380D01*
X181586190Y-99782000D01*
X181538571Y-99829619D01*
X181157619Y-99829619D02*
X181110000Y-99782000D01*
X181014761Y-99734380D01*
X180776666Y-99734380D01*
X180681428Y-99782000D01*
X180633809Y-99829619D01*
X180586190Y-99924857D01*
X180586190Y-100020095D01*
X180633809Y-100162952D01*
X181205238Y-100734380D01*
X180586190Y-100734380D01*
X175711904Y-117890476D02*
X176359523Y-117890476D01*
X176435714Y-117928571D01*
X176473809Y-117966666D01*
X176511904Y-118042857D01*
X176511904Y-118195238D01*
X176473809Y-118271428D01*
X176435714Y-118309523D01*
X176359523Y-118347619D01*
X175711904Y-118347619D01*
X176511904Y-119147619D02*
X176511904Y-118690476D01*
X176511904Y-118919047D02*
X175711904Y-118919047D01*
X175826190Y-118842857D01*
X175902380Y-118766666D01*
X175940476Y-118690476D01*
M02*
