G04 #@! TF.GenerationSoftware,KiCad,Pcbnew,(5.1.2)-2*
G04 #@! TF.CreationDate,2019-11-25T20:14:03+01:00*
G04 #@! TF.ProjectId,HM-LC-SW1-BA-PCB_mini_MAX1724,484d2d4c-432d-4535-9731-2d42412d5043,rev?*
G04 #@! TF.SameCoordinates,Original*
G04 #@! TF.FileFunction,Legend,Top*
G04 #@! TF.FilePolarity,Positive*
%FSLAX46Y46*%
G04 Gerber Fmt 4.6, Leading zero omitted, Abs format (unit mm)*
G04 Created by KiCad (PCBNEW (5.1.2)-2) date 2019-11-25 20:14:03*
%MOMM*%
%LPD*%
G04 APERTURE LIST*
%ADD10C,0.150000*%
%ADD11C,0.100000*%
%ADD12C,0.350000*%
%ADD13C,0.200000*%
%ADD14C,0.120000*%
G04 APERTURE END LIST*
D10*
X174859523Y-124135714D02*
X174821428Y-124173809D01*
X174707142Y-124211904D01*
X174630952Y-124211904D01*
X174516666Y-124173809D01*
X174440476Y-124097619D01*
X174402380Y-124021428D01*
X174364285Y-123869047D01*
X174364285Y-123754761D01*
X174402380Y-123602380D01*
X174440476Y-123526190D01*
X174516666Y-123450000D01*
X174630952Y-123411904D01*
X174707142Y-123411904D01*
X174821428Y-123450000D01*
X174859523Y-123488095D01*
X175659523Y-124135714D02*
X175621428Y-124173809D01*
X175507142Y-124211904D01*
X175430952Y-124211904D01*
X175316666Y-124173809D01*
X175240476Y-124097619D01*
X175202380Y-124021428D01*
X175164285Y-123869047D01*
X175164285Y-123754761D01*
X175202380Y-123602380D01*
X175240476Y-123526190D01*
X175316666Y-123450000D01*
X175430952Y-123411904D01*
X175507142Y-123411904D01*
X175621428Y-123450000D01*
X175659523Y-123488095D01*
X176878571Y-123792857D02*
X176992857Y-123830952D01*
X177030952Y-123869047D01*
X177069047Y-123945238D01*
X177069047Y-124059523D01*
X177030952Y-124135714D01*
X176992857Y-124173809D01*
X176916666Y-124211904D01*
X176611904Y-124211904D01*
X176611904Y-123411904D01*
X176878571Y-123411904D01*
X176954761Y-123450000D01*
X176992857Y-123488095D01*
X177030952Y-123564285D01*
X177030952Y-123640476D01*
X176992857Y-123716666D01*
X176954761Y-123754761D01*
X176878571Y-123792857D01*
X176611904Y-123792857D01*
X177564285Y-123830952D02*
X177564285Y-124211904D01*
X177297619Y-123411904D02*
X177564285Y-123830952D01*
X177830952Y-123411904D01*
X178097619Y-123907142D02*
X178707142Y-123907142D01*
X179050000Y-124173809D02*
X179164285Y-124211904D01*
X179354761Y-124211904D01*
X179430952Y-124173809D01*
X179469047Y-124135714D01*
X179507142Y-124059523D01*
X179507142Y-123983333D01*
X179469047Y-123907142D01*
X179430952Y-123869047D01*
X179354761Y-123830952D01*
X179202380Y-123792857D01*
X179126190Y-123754761D01*
X179088095Y-123716666D01*
X179050000Y-123640476D01*
X179050000Y-123564285D01*
X179088095Y-123488095D01*
X179126190Y-123450000D01*
X179202380Y-123411904D01*
X179392857Y-123411904D01*
X179507142Y-123450000D01*
X179811904Y-123983333D02*
X180192857Y-123983333D01*
X179735714Y-124211904D02*
X180002380Y-123411904D01*
X180269047Y-124211904D01*
X180535714Y-123907142D02*
X181145238Y-123907142D01*
X181526190Y-124211904D02*
X181526190Y-123411904D01*
X181983333Y-124211904D01*
X181983333Y-123411904D01*
X182821428Y-124135714D02*
X182783333Y-124173809D01*
X182669047Y-124211904D01*
X182592857Y-124211904D01*
X182478571Y-124173809D01*
X182402380Y-124097619D01*
X182364285Y-124021428D01*
X182326190Y-123869047D01*
X182326190Y-123754761D01*
X182364285Y-123602380D01*
X182402380Y-123526190D01*
X182478571Y-123450000D01*
X182592857Y-123411904D01*
X182669047Y-123411904D01*
X182783333Y-123450000D01*
X182821428Y-123488095D01*
X184116666Y-123678571D02*
X184116666Y-124211904D01*
X183926190Y-123373809D02*
X183735714Y-123945238D01*
X184230952Y-123945238D01*
X184535714Y-124135714D02*
X184573809Y-124173809D01*
X184535714Y-124211904D01*
X184497619Y-124173809D01*
X184535714Y-124135714D01*
X184535714Y-124211904D01*
X185069047Y-123411904D02*
X185145238Y-123411904D01*
X185221428Y-123450000D01*
X185259523Y-123488095D01*
X185297619Y-123564285D01*
X185335714Y-123716666D01*
X185335714Y-123907142D01*
X185297619Y-124059523D01*
X185259523Y-124135714D01*
X185221428Y-124173809D01*
X185145238Y-124211904D01*
X185069047Y-124211904D01*
X184992857Y-124173809D01*
X184954761Y-124135714D01*
X184916666Y-124059523D01*
X184878571Y-123907142D01*
X184878571Y-123716666D01*
X184916666Y-123564285D01*
X184954761Y-123488095D01*
X184992857Y-123450000D01*
X185069047Y-123411904D01*
D11*
X172700000Y-119182142D02*
X172671428Y-119239285D01*
X172671428Y-119325000D01*
X172700000Y-119410714D01*
X172757142Y-119467857D01*
X172814285Y-119496428D01*
X172928571Y-119525000D01*
X173014285Y-119525000D01*
X173128571Y-119496428D01*
X173185714Y-119467857D01*
X173242857Y-119410714D01*
X173271428Y-119325000D01*
X173271428Y-119267857D01*
X173242857Y-119182142D01*
X173214285Y-119153571D01*
X173014285Y-119153571D01*
X173014285Y-119267857D01*
X173271428Y-118896428D02*
X172671428Y-118896428D01*
X173271428Y-118553571D01*
X172671428Y-118553571D01*
X173271428Y-118267857D02*
X172671428Y-118267857D01*
X172671428Y-118125000D01*
X172700000Y-118039285D01*
X172757142Y-117982142D01*
X172814285Y-117953571D01*
X172928571Y-117925000D01*
X173014285Y-117925000D01*
X173128571Y-117953571D01*
X173185714Y-117982142D01*
X173242857Y-118039285D01*
X173271428Y-118125000D01*
X173271428Y-118267857D01*
D12*
X187500000Y-104700000D02*
G75*
G03X187500000Y-104700000I-100000J0D01*
G01*
D13*
X172971428Y-113930952D02*
X172971428Y-113169047D01*
X172971428Y-116530952D02*
X172971428Y-115769047D01*
X173352380Y-116150000D02*
X172590476Y-116150000D01*
D11*
X171621428Y-112191666D02*
X171021428Y-112191666D01*
X171307142Y-112191666D02*
X171307142Y-111877380D01*
X171621428Y-111877380D02*
X171021428Y-111877380D01*
X171621428Y-111615476D02*
X171021428Y-111615476D01*
X171450000Y-111432142D01*
X171021428Y-111248809D01*
X171621428Y-111248809D01*
X171392857Y-110986904D02*
X171392857Y-110567857D01*
X171621428Y-110044047D02*
X171621428Y-110305952D01*
X171021428Y-110305952D01*
X171564285Y-109546428D02*
X171592857Y-109572619D01*
X171621428Y-109651190D01*
X171621428Y-109703571D01*
X171592857Y-109782142D01*
X171535714Y-109834523D01*
X171478571Y-109860714D01*
X171364285Y-109886904D01*
X171278571Y-109886904D01*
X171164285Y-109860714D01*
X171107142Y-109834523D01*
X171050000Y-109782142D01*
X171021428Y-109703571D01*
X171021428Y-109651190D01*
X171050000Y-109572619D01*
X171078571Y-109546428D01*
X171392857Y-109310714D02*
X171392857Y-108891666D01*
X171592857Y-108655952D02*
X171621428Y-108577380D01*
X171621428Y-108446428D01*
X171592857Y-108394047D01*
X171564285Y-108367857D01*
X171507142Y-108341666D01*
X171450000Y-108341666D01*
X171392857Y-108367857D01*
X171364285Y-108394047D01*
X171335714Y-108446428D01*
X171307142Y-108551190D01*
X171278571Y-108603571D01*
X171250000Y-108629761D01*
X171192857Y-108655952D01*
X171135714Y-108655952D01*
X171078571Y-108629761D01*
X171050000Y-108603571D01*
X171021428Y-108551190D01*
X171021428Y-108420238D01*
X171050000Y-108341666D01*
X171021428Y-108158333D02*
X171621428Y-108027380D01*
X171192857Y-107922619D01*
X171621428Y-107817857D01*
X171021428Y-107686904D01*
X171621428Y-107189285D02*
X171621428Y-107503571D01*
X171621428Y-107346428D02*
X171021428Y-107346428D01*
X171107142Y-107398809D01*
X171164285Y-107451190D01*
X171192857Y-107503571D01*
X171392857Y-106953571D02*
X171392857Y-106534523D01*
X171307142Y-106089285D02*
X171335714Y-106010714D01*
X171364285Y-105984523D01*
X171421428Y-105958333D01*
X171507142Y-105958333D01*
X171564285Y-105984523D01*
X171592857Y-106010714D01*
X171621428Y-106063095D01*
X171621428Y-106272619D01*
X171021428Y-106272619D01*
X171021428Y-106089285D01*
X171050000Y-106036904D01*
X171078571Y-106010714D01*
X171135714Y-105984523D01*
X171192857Y-105984523D01*
X171250000Y-106010714D01*
X171278571Y-106036904D01*
X171307142Y-106089285D01*
X171307142Y-106272619D01*
X171450000Y-105748809D02*
X171450000Y-105486904D01*
X171621428Y-105801190D02*
X171021428Y-105617857D01*
X171621428Y-105434523D01*
X171392857Y-105251190D02*
X171392857Y-104832142D01*
X171621428Y-104570238D02*
X171021428Y-104570238D01*
X171021428Y-104360714D01*
X171050000Y-104308333D01*
X171078571Y-104282142D01*
X171135714Y-104255952D01*
X171221428Y-104255952D01*
X171278571Y-104282142D01*
X171307142Y-104308333D01*
X171335714Y-104360714D01*
X171335714Y-104570238D01*
X171564285Y-103705952D02*
X171592857Y-103732142D01*
X171621428Y-103810714D01*
X171621428Y-103863095D01*
X171592857Y-103941666D01*
X171535714Y-103994047D01*
X171478571Y-104020238D01*
X171364285Y-104046428D01*
X171278571Y-104046428D01*
X171164285Y-104020238D01*
X171107142Y-103994047D01*
X171050000Y-103941666D01*
X171021428Y-103863095D01*
X171021428Y-103810714D01*
X171050000Y-103732142D01*
X171078571Y-103705952D01*
X171307142Y-103286904D02*
X171335714Y-103208333D01*
X171364285Y-103182142D01*
X171421428Y-103155952D01*
X171507142Y-103155952D01*
X171564285Y-103182142D01*
X171592857Y-103208333D01*
X171621428Y-103260714D01*
X171621428Y-103470238D01*
X171021428Y-103470238D01*
X171021428Y-103286904D01*
X171050000Y-103234523D01*
X171078571Y-103208333D01*
X171135714Y-103182142D01*
X171192857Y-103182142D01*
X171250000Y-103208333D01*
X171278571Y-103234523D01*
X171307142Y-103286904D01*
X171307142Y-103470238D01*
X171678571Y-103051190D02*
X171678571Y-102632142D01*
X171621428Y-102501190D02*
X171221428Y-102501190D01*
X171278571Y-102501190D02*
X171250000Y-102475000D01*
X171221428Y-102422619D01*
X171221428Y-102344047D01*
X171250000Y-102291666D01*
X171307142Y-102265476D01*
X171621428Y-102265476D01*
X171307142Y-102265476D02*
X171250000Y-102239285D01*
X171221428Y-102186904D01*
X171221428Y-102108333D01*
X171250000Y-102055952D01*
X171307142Y-102029761D01*
X171621428Y-102029761D01*
X171621428Y-101767857D02*
X171221428Y-101767857D01*
X171021428Y-101767857D02*
X171050000Y-101794047D01*
X171078571Y-101767857D01*
X171050000Y-101741666D01*
X171021428Y-101767857D01*
X171078571Y-101767857D01*
X171221428Y-101505952D02*
X171621428Y-101505952D01*
X171278571Y-101505952D02*
X171250000Y-101479761D01*
X171221428Y-101427380D01*
X171221428Y-101348809D01*
X171250000Y-101296428D01*
X171307142Y-101270238D01*
X171621428Y-101270238D01*
X171621428Y-101008333D02*
X171221428Y-101008333D01*
X171021428Y-101008333D02*
X171050000Y-101034523D01*
X171078571Y-101008333D01*
X171050000Y-100982142D01*
X171021428Y-101008333D01*
X171078571Y-101008333D01*
X172592857Y-111432142D02*
X172621428Y-111353571D01*
X172621428Y-111222619D01*
X172592857Y-111170238D01*
X172564285Y-111144047D01*
X172507142Y-111117857D01*
X172450000Y-111117857D01*
X172392857Y-111144047D01*
X172364285Y-111170238D01*
X172335714Y-111222619D01*
X172307142Y-111327380D01*
X172278571Y-111379761D01*
X172250000Y-111405952D01*
X172192857Y-111432142D01*
X172135714Y-111432142D01*
X172078571Y-111405952D01*
X172050000Y-111379761D01*
X172021428Y-111327380D01*
X172021428Y-111196428D01*
X172050000Y-111117857D01*
X172221428Y-110960714D02*
X172221428Y-110751190D01*
X172021428Y-110882142D02*
X172535714Y-110882142D01*
X172592857Y-110855952D01*
X172621428Y-110803571D01*
X172621428Y-110751190D01*
X172592857Y-110358333D02*
X172621428Y-110410714D01*
X172621428Y-110515476D01*
X172592857Y-110567857D01*
X172535714Y-110594047D01*
X172307142Y-110594047D01*
X172250000Y-110567857D01*
X172221428Y-110515476D01*
X172221428Y-110410714D01*
X172250000Y-110358333D01*
X172307142Y-110332142D01*
X172364285Y-110332142D01*
X172421428Y-110594047D01*
X172221428Y-110096428D02*
X172821428Y-110096428D01*
X172250000Y-110096428D02*
X172221428Y-110044047D01*
X172221428Y-109939285D01*
X172250000Y-109886904D01*
X172278571Y-109860714D01*
X172335714Y-109834523D01*
X172507142Y-109834523D01*
X172564285Y-109860714D01*
X172592857Y-109886904D01*
X172621428Y-109939285D01*
X172621428Y-110044047D01*
X172592857Y-110096428D01*
X172021428Y-109598809D02*
X172507142Y-109598809D01*
X172564285Y-109572619D01*
X172592857Y-109546428D01*
X172621428Y-109494047D01*
X172621428Y-109389285D01*
X172592857Y-109336904D01*
X172564285Y-109310714D01*
X172507142Y-109284523D01*
X172021428Y-109284523D01*
X172221428Y-109022619D02*
X172821428Y-109022619D01*
X172250000Y-109022619D02*
X172221428Y-108970238D01*
X172221428Y-108865476D01*
X172250000Y-108813095D01*
X172278571Y-108786904D01*
X172335714Y-108760714D01*
X172507142Y-108760714D01*
X172564285Y-108786904D01*
X172592857Y-108813095D01*
X172621428Y-108865476D01*
X172621428Y-108970238D01*
X172592857Y-109022619D01*
X171992857Y-108132142D02*
X172764285Y-108603571D01*
X172592857Y-107739285D02*
X172621428Y-107791666D01*
X172621428Y-107896428D01*
X172592857Y-107948809D01*
X172535714Y-107975000D01*
X172307142Y-107975000D01*
X172250000Y-107948809D01*
X172221428Y-107896428D01*
X172221428Y-107791666D01*
X172250000Y-107739285D01*
X172307142Y-107713095D01*
X172364285Y-107713095D01*
X172421428Y-107975000D01*
X172621428Y-107529761D02*
X172221428Y-107241666D01*
X172221428Y-107529761D02*
X172621428Y-107241666D01*
X172221428Y-107110714D02*
X172221428Y-106901190D01*
X172021428Y-107032142D02*
X172535714Y-107032142D01*
X172592857Y-107005952D01*
X172621428Y-106953571D01*
X172621428Y-106901190D01*
X172564285Y-106717857D02*
X172592857Y-106691666D01*
X172621428Y-106717857D01*
X172592857Y-106744047D01*
X172564285Y-106717857D01*
X172621428Y-106717857D01*
X172307142Y-105853571D02*
X172335714Y-105775000D01*
X172364285Y-105748809D01*
X172421428Y-105722619D01*
X172507142Y-105722619D01*
X172564285Y-105748809D01*
X172592857Y-105775000D01*
X172621428Y-105827380D01*
X172621428Y-106036904D01*
X172021428Y-106036904D01*
X172021428Y-105853571D01*
X172050000Y-105801190D01*
X172078571Y-105775000D01*
X172135714Y-105748809D01*
X172192857Y-105748809D01*
X172250000Y-105775000D01*
X172278571Y-105801190D01*
X172307142Y-105853571D01*
X172307142Y-106036904D01*
X172621428Y-105251190D02*
X172307142Y-105251190D01*
X172250000Y-105277380D01*
X172221428Y-105329761D01*
X172221428Y-105434523D01*
X172250000Y-105486904D01*
X172592857Y-105251190D02*
X172621428Y-105303571D01*
X172621428Y-105434523D01*
X172592857Y-105486904D01*
X172535714Y-105513095D01*
X172478571Y-105513095D01*
X172421428Y-105486904D01*
X172392857Y-105434523D01*
X172392857Y-105303571D01*
X172364285Y-105251190D01*
X172221428Y-105067857D02*
X172221428Y-104858333D01*
X172021428Y-104989285D02*
X172535714Y-104989285D01*
X172592857Y-104963095D01*
X172621428Y-104910714D01*
X172621428Y-104858333D01*
X172221428Y-104753571D02*
X172221428Y-104544047D01*
X172021428Y-104675000D02*
X172535714Y-104675000D01*
X172592857Y-104648809D01*
X172621428Y-104596428D01*
X172621428Y-104544047D01*
X172621428Y-103941666D02*
X172221428Y-103941666D01*
X172278571Y-103941666D02*
X172250000Y-103915476D01*
X172221428Y-103863095D01*
X172221428Y-103784523D01*
X172250000Y-103732142D01*
X172307142Y-103705952D01*
X172621428Y-103705952D01*
X172307142Y-103705952D02*
X172250000Y-103679761D01*
X172221428Y-103627380D01*
X172221428Y-103548809D01*
X172250000Y-103496428D01*
X172307142Y-103470238D01*
X172621428Y-103470238D01*
X172592857Y-102998809D02*
X172621428Y-103051190D01*
X172621428Y-103155952D01*
X172592857Y-103208333D01*
X172535714Y-103234523D01*
X172307142Y-103234523D01*
X172250000Y-103208333D01*
X172221428Y-103155952D01*
X172221428Y-103051190D01*
X172250000Y-102998809D01*
X172307142Y-102972619D01*
X172364285Y-102972619D01*
X172421428Y-103234523D01*
X172621428Y-102501190D02*
X172307142Y-102501190D01*
X172250000Y-102527380D01*
X172221428Y-102579761D01*
X172221428Y-102684523D01*
X172250000Y-102736904D01*
X172592857Y-102501190D02*
X172621428Y-102553571D01*
X172621428Y-102684523D01*
X172592857Y-102736904D01*
X172535714Y-102763095D01*
X172478571Y-102763095D01*
X172421428Y-102736904D01*
X172392857Y-102684523D01*
X172392857Y-102553571D01*
X172364285Y-102501190D01*
X172592857Y-102265476D02*
X172621428Y-102213095D01*
X172621428Y-102108333D01*
X172592857Y-102055952D01*
X172535714Y-102029761D01*
X172507142Y-102029761D01*
X172450000Y-102055952D01*
X172421428Y-102108333D01*
X172421428Y-102186904D01*
X172392857Y-102239285D01*
X172335714Y-102265476D01*
X172307142Y-102265476D01*
X172250000Y-102239285D01*
X172221428Y-102186904D01*
X172221428Y-102108333D01*
X172250000Y-102055952D01*
X172564285Y-101794047D02*
X172592857Y-101767857D01*
X172621428Y-101794047D01*
X172592857Y-101820238D01*
X172564285Y-101794047D01*
X172621428Y-101794047D01*
X173021428Y-107438095D02*
X173621428Y-107254761D01*
X173021428Y-107071428D01*
X173021428Y-106783333D02*
X173021428Y-106730952D01*
X173050000Y-106678571D01*
X173078571Y-106652380D01*
X173135714Y-106626190D01*
X173250000Y-106600000D01*
X173392857Y-106600000D01*
X173507142Y-106626190D01*
X173564285Y-106652380D01*
X173592857Y-106678571D01*
X173621428Y-106730952D01*
X173621428Y-106783333D01*
X173592857Y-106835714D01*
X173564285Y-106861904D01*
X173507142Y-106888095D01*
X173392857Y-106914285D01*
X173250000Y-106914285D01*
X173135714Y-106888095D01*
X173078571Y-106861904D01*
X173050000Y-106835714D01*
X173021428Y-106783333D01*
X173564285Y-106364285D02*
X173592857Y-106338095D01*
X173621428Y-106364285D01*
X173592857Y-106390476D01*
X173564285Y-106364285D01*
X173621428Y-106364285D01*
X173078571Y-106128571D02*
X173050000Y-106102380D01*
X173021428Y-106050000D01*
X173021428Y-105919047D01*
X173050000Y-105866666D01*
X173078571Y-105840476D01*
X173135714Y-105814285D01*
X173192857Y-105814285D01*
X173278571Y-105840476D01*
X173621428Y-106154761D01*
X173621428Y-105814285D01*
X186871428Y-114279285D02*
X187471428Y-114079285D01*
X186871428Y-113879285D01*
X187471428Y-113679285D02*
X187071428Y-113679285D01*
X186871428Y-113679285D02*
X186900000Y-113707857D01*
X186928571Y-113679285D01*
X186900000Y-113650714D01*
X186871428Y-113679285D01*
X186928571Y-113679285D01*
X187071428Y-113393571D02*
X187471428Y-113393571D01*
X187128571Y-113393571D02*
X187100000Y-113365000D01*
X187071428Y-113307857D01*
X187071428Y-113222142D01*
X187100000Y-113165000D01*
X187157142Y-113136428D01*
X187471428Y-113136428D01*
X187300000Y-119110071D02*
X187300000Y-118824357D01*
X187471428Y-119167214D02*
X186871428Y-118967214D01*
X187471428Y-118767214D01*
X186871428Y-118452928D02*
X186871428Y-118395785D01*
X186900000Y-118338642D01*
X186928571Y-118310071D01*
X186985714Y-118281500D01*
X187100000Y-118252928D01*
X187242857Y-118252928D01*
X187357142Y-118281500D01*
X187414285Y-118310071D01*
X187442857Y-118338642D01*
X187471428Y-118395785D01*
X187471428Y-118452928D01*
X187442857Y-118510071D01*
X187414285Y-118538642D01*
X187357142Y-118567214D01*
X187242857Y-118595785D01*
X187100000Y-118595785D01*
X186985714Y-118567214D01*
X186928571Y-118538642D01*
X186900000Y-118510071D01*
X186871428Y-118452928D01*
X186900000Y-116657142D02*
X186871428Y-116714285D01*
X186871428Y-116800000D01*
X186900000Y-116885714D01*
X186957142Y-116942857D01*
X187014285Y-116971428D01*
X187128571Y-117000000D01*
X187214285Y-117000000D01*
X187328571Y-116971428D01*
X187385714Y-116942857D01*
X187442857Y-116885714D01*
X187471428Y-116800000D01*
X187471428Y-116742857D01*
X187442857Y-116657142D01*
X187414285Y-116628571D01*
X187214285Y-116628571D01*
X187214285Y-116742857D01*
X187471428Y-116371428D02*
X186871428Y-116371428D01*
X187471428Y-116028571D01*
X186871428Y-116028571D01*
X187471428Y-115742857D02*
X186871428Y-115742857D01*
X186871428Y-115600000D01*
X186900000Y-115514285D01*
X186957142Y-115457142D01*
X187014285Y-115428571D01*
X187128571Y-115400000D01*
X187214285Y-115400000D01*
X187328571Y-115428571D01*
X187385714Y-115457142D01*
X187442857Y-115514285D01*
X187471428Y-115600000D01*
X187471428Y-115742857D01*
X173532857Y-99141000D02*
X173475714Y-99112428D01*
X173390000Y-99112428D01*
X173304285Y-99141000D01*
X173247142Y-99198142D01*
X173218571Y-99255285D01*
X173190000Y-99369571D01*
X173190000Y-99455285D01*
X173218571Y-99569571D01*
X173247142Y-99626714D01*
X173304285Y-99683857D01*
X173390000Y-99712428D01*
X173447142Y-99712428D01*
X173532857Y-99683857D01*
X173561428Y-99655285D01*
X173561428Y-99455285D01*
X173447142Y-99455285D01*
X173818571Y-99712428D02*
X173818571Y-99112428D01*
X174161428Y-99712428D01*
X174161428Y-99112428D01*
X174447142Y-99712428D02*
X174447142Y-99112428D01*
X174590000Y-99112428D01*
X174675714Y-99141000D01*
X174732857Y-99198142D01*
X174761428Y-99255285D01*
X174790000Y-99369571D01*
X174790000Y-99455285D01*
X174761428Y-99569571D01*
X174732857Y-99626714D01*
X174675714Y-99683857D01*
X174590000Y-99712428D01*
X174447142Y-99712428D01*
X173532857Y-96601000D02*
X173475714Y-96572428D01*
X173390000Y-96572428D01*
X173304285Y-96601000D01*
X173247142Y-96658142D01*
X173218571Y-96715285D01*
X173190000Y-96829571D01*
X173190000Y-96915285D01*
X173218571Y-97029571D01*
X173247142Y-97086714D01*
X173304285Y-97143857D01*
X173390000Y-97172428D01*
X173447142Y-97172428D01*
X173532857Y-97143857D01*
X173561428Y-97115285D01*
X173561428Y-96915285D01*
X173447142Y-96915285D01*
X173818571Y-97172428D02*
X173818571Y-96572428D01*
X174161428Y-97172428D01*
X174161428Y-96572428D01*
X174447142Y-97172428D02*
X174447142Y-96572428D01*
X174590000Y-96572428D01*
X174675714Y-96601000D01*
X174732857Y-96658142D01*
X174761428Y-96715285D01*
X174790000Y-96829571D01*
X174790000Y-96915285D01*
X174761428Y-97029571D01*
X174732857Y-97086714D01*
X174675714Y-97143857D01*
X174590000Y-97172428D01*
X174447142Y-97172428D01*
X173590000Y-94632428D02*
X173390000Y-94346714D01*
X173247142Y-94632428D02*
X173247142Y-94032428D01*
X173475714Y-94032428D01*
X173532857Y-94061000D01*
X173561428Y-94089571D01*
X173590000Y-94146714D01*
X173590000Y-94232428D01*
X173561428Y-94289571D01*
X173532857Y-94318142D01*
X173475714Y-94346714D01*
X173247142Y-94346714D01*
X173790000Y-94032428D02*
X174190000Y-94632428D01*
X174190000Y-94032428D02*
X173790000Y-94632428D01*
X174418571Y-94632428D02*
X174418571Y-94032428D01*
X174561428Y-94032428D01*
X174647142Y-94061000D01*
X174704285Y-94118142D01*
X174732857Y-94175285D01*
X174761428Y-94289571D01*
X174761428Y-94375285D01*
X174732857Y-94489571D01*
X174704285Y-94546714D01*
X174647142Y-94603857D01*
X174561428Y-94632428D01*
X174418571Y-94632428D01*
X173232857Y-91492428D02*
X173575714Y-91492428D01*
X173404285Y-92092428D02*
X173404285Y-91492428D01*
X173718571Y-91492428D02*
X174118571Y-92092428D01*
X174118571Y-91492428D02*
X173718571Y-92092428D01*
X174347142Y-92092428D02*
X174347142Y-91492428D01*
X174490000Y-91492428D01*
X174575714Y-91521000D01*
X174632857Y-91578142D01*
X174661428Y-91635285D01*
X174690000Y-91749571D01*
X174690000Y-91835285D01*
X174661428Y-91949571D01*
X174632857Y-92006714D01*
X174575714Y-92063857D01*
X174490000Y-92092428D01*
X174347142Y-92092428D01*
X173190000Y-89079428D02*
X173390000Y-89679428D01*
X173590000Y-89079428D01*
X174132857Y-89622285D02*
X174104285Y-89650857D01*
X174018571Y-89679428D01*
X173961428Y-89679428D01*
X173875714Y-89650857D01*
X173818571Y-89593714D01*
X173790000Y-89536571D01*
X173761428Y-89422285D01*
X173761428Y-89336571D01*
X173790000Y-89222285D01*
X173818571Y-89165142D01*
X173875714Y-89108000D01*
X173961428Y-89079428D01*
X174018571Y-89079428D01*
X174104285Y-89108000D01*
X174132857Y-89136571D01*
X174732857Y-89622285D02*
X174704285Y-89650857D01*
X174618571Y-89679428D01*
X174561428Y-89679428D01*
X174475714Y-89650857D01*
X174418571Y-89593714D01*
X174390000Y-89536571D01*
X174361428Y-89422285D01*
X174361428Y-89336571D01*
X174390000Y-89222285D01*
X174418571Y-89165142D01*
X174475714Y-89108000D01*
X174561428Y-89079428D01*
X174618571Y-89079428D01*
X174704285Y-89108000D01*
X174732857Y-89136571D01*
D14*
X175213221Y-109817313D02*
X175582687Y-110186779D01*
X176217313Y-108813221D02*
X176586779Y-109182687D01*
X186213221Y-100517313D02*
X186582687Y-100886779D01*
X187217313Y-99513221D02*
X187586779Y-99882687D01*
X180538748Y-95460000D02*
X181061252Y-95460000D01*
X180538748Y-94040000D02*
X181061252Y-94040000D01*
X184100000Y-98100000D02*
X184100000Y-96300000D01*
X181950000Y-96250000D02*
X180850000Y-96250000D01*
X181950000Y-98150000D02*
X180850000Y-98150000D01*
X186538748Y-97610000D02*
X187061252Y-97610000D01*
X186538748Y-96190000D02*
X187061252Y-96190000D01*
X181061252Y-89590000D02*
X180538748Y-89590000D01*
X181061252Y-91010000D02*
X180538748Y-91010000D01*
X180538748Y-93085000D02*
X181061252Y-93085000D01*
X180538748Y-91665000D02*
X181061252Y-91665000D01*
X175120000Y-92360000D02*
X175120000Y-90900000D01*
X178280000Y-92360000D02*
X178280000Y-90200000D01*
X178280000Y-92360000D02*
X177350000Y-92360000D01*
X175120000Y-92360000D02*
X176050000Y-92360000D01*
X186238748Y-92910000D02*
X186761252Y-92910000D01*
X186238748Y-91490000D02*
X186761252Y-91490000D01*
X189560000Y-88765000D02*
X185500000Y-88765000D01*
X189560000Y-91035000D02*
X189560000Y-88765000D01*
X185500000Y-91035000D02*
X189560000Y-91035000D01*
D10*
X186419024Y-104711500D02*
X186259925Y-104552401D01*
X181292500Y-109838024D02*
X181062690Y-109608214D01*
X176165976Y-104711500D02*
X176395786Y-104941310D01*
X181292500Y-99584976D02*
X181522310Y-99814786D01*
X186419024Y-104711500D02*
X186189214Y-104941310D01*
X181292500Y-99584976D02*
X181062690Y-99814786D01*
X176165976Y-104711500D02*
X176395786Y-104481690D01*
X181292500Y-109838024D02*
X181522310Y-109608214D01*
X186259925Y-104552401D02*
X187267552Y-103544774D01*
D14*
X182828500Y-118205000D02*
X182828500Y-121825000D01*
X176708500Y-118205000D02*
X182828500Y-118205000D01*
X176708500Y-121825000D02*
X176708500Y-118205000D01*
X182828500Y-121825000D02*
X176708500Y-121825000D01*
X176772000Y-85439000D02*
X182892000Y-85439000D01*
X182892000Y-85439000D02*
X182892000Y-89059000D01*
X182892000Y-89059000D02*
X176772000Y-89059000D01*
X176772000Y-89059000D02*
X176772000Y-85439000D01*
X181870000Y-115475000D02*
X181870000Y-114275000D01*
X183630000Y-114275000D02*
X183630000Y-115475000D01*
X170771000Y-87423500D02*
X170771000Y-87483500D01*
X170771000Y-87483500D02*
X172891000Y-87483500D01*
X172891000Y-87483500D02*
X172891000Y-87423500D01*
X172891000Y-87423500D02*
X170771000Y-87423500D01*
X170771000Y-86423500D02*
X170771000Y-85363500D01*
X170771000Y-85363500D02*
X171831000Y-85363500D01*
X178720000Y-115471500D02*
X178720000Y-114271500D01*
X180480000Y-114271500D02*
X180480000Y-115471500D01*
X177486200Y-114280400D02*
X177486200Y-115480400D01*
X175726200Y-115480400D02*
X175726200Y-114280400D01*
D10*
X174603688Y-110607749D02*
X174549813Y-110607749D01*
X174442064Y-110553874D01*
X174388189Y-110499999D01*
X174334314Y-110392250D01*
X174334314Y-110284500D01*
X174361251Y-110203688D01*
X174442064Y-110069001D01*
X174522876Y-109988189D01*
X174657563Y-109907377D01*
X174738375Y-109880439D01*
X174846125Y-109880439D01*
X174953874Y-109934314D01*
X175007749Y-109988189D01*
X175061624Y-110095938D01*
X175061624Y-110149813D01*
X175277123Y-110365312D02*
X175330998Y-110365312D01*
X175411810Y-110392250D01*
X175546497Y-110526937D01*
X175573435Y-110607749D01*
X175573435Y-110661624D01*
X175546497Y-110742436D01*
X175492622Y-110796311D01*
X175384873Y-110850186D01*
X174738375Y-110850186D01*
X175088561Y-111200372D01*
X187603688Y-99307749D02*
X187549813Y-99307749D01*
X187442064Y-99253874D01*
X187388189Y-99199999D01*
X187334314Y-99092250D01*
X187334314Y-98984500D01*
X187361251Y-98903688D01*
X187442064Y-98769001D01*
X187522876Y-98688189D01*
X187657563Y-98607377D01*
X187738375Y-98580439D01*
X187846125Y-98580439D01*
X187953874Y-98634314D01*
X188007749Y-98688189D01*
X188061624Y-98795938D01*
X188061624Y-98849813D01*
X188088561Y-99900372D02*
X187765312Y-99577123D01*
X187926937Y-99738748D02*
X188492622Y-99173062D01*
X188357935Y-99200000D01*
X188250186Y-99200000D01*
X188169374Y-99173062D01*
X178685714Y-94933333D02*
X178723809Y-94971428D01*
X178761904Y-95085714D01*
X178761904Y-95161904D01*
X178723809Y-95276190D01*
X178647619Y-95352380D01*
X178571428Y-95390476D01*
X178419047Y-95428571D01*
X178304761Y-95428571D01*
X178152380Y-95390476D01*
X178076190Y-95352380D01*
X178000000Y-95276190D01*
X177961904Y-95161904D01*
X177961904Y-95085714D01*
X178000000Y-94971428D01*
X178038095Y-94933333D01*
X177961904Y-94209523D02*
X177961904Y-94590476D01*
X178342857Y-94628571D01*
X178304761Y-94590476D01*
X178266666Y-94514285D01*
X178266666Y-94323809D01*
X178304761Y-94247619D01*
X178342857Y-94209523D01*
X178419047Y-94171428D01*
X178609523Y-94171428D01*
X178685714Y-94209523D01*
X178723809Y-94247619D01*
X178761904Y-94323809D01*
X178761904Y-94514285D01*
X178723809Y-94590476D01*
X178685714Y-94628571D01*
X178080952Y-97580952D02*
X178461904Y-97580952D01*
X177661904Y-97847619D02*
X178080952Y-97580952D01*
X177661904Y-97314285D01*
X178461904Y-96628571D02*
X178461904Y-97085714D01*
X178461904Y-96857142D02*
X177661904Y-96857142D01*
X177776190Y-96933333D01*
X177852380Y-97009523D01*
X177890476Y-97085714D01*
X186666666Y-95735714D02*
X186628571Y-95773809D01*
X186514285Y-95811904D01*
X186438095Y-95811904D01*
X186323809Y-95773809D01*
X186247619Y-95697619D01*
X186209523Y-95621428D01*
X186171428Y-95469047D01*
X186171428Y-95354761D01*
X186209523Y-95202380D01*
X186247619Y-95126190D01*
X186323809Y-95050000D01*
X186438095Y-95011904D01*
X186514285Y-95011904D01*
X186628571Y-95050000D01*
X186666666Y-95088095D01*
X187352380Y-95278571D02*
X187352380Y-95811904D01*
X187161904Y-94973809D02*
X186971428Y-95545238D01*
X187466666Y-95545238D01*
X183561904Y-90433333D02*
X183180952Y-90700000D01*
X183561904Y-90890476D02*
X182761904Y-90890476D01*
X182761904Y-90585714D01*
X182800000Y-90509523D01*
X182838095Y-90471428D01*
X182914285Y-90433333D01*
X183028571Y-90433333D01*
X183104761Y-90471428D01*
X183142857Y-90509523D01*
X183180952Y-90585714D01*
X183180952Y-90890476D01*
X182761904Y-89747619D02*
X182761904Y-89900000D01*
X182800000Y-89976190D01*
X182838095Y-90014285D01*
X182952380Y-90090476D01*
X183104761Y-90128571D01*
X183409523Y-90128571D01*
X183485714Y-90090476D01*
X183523809Y-90052380D01*
X183561904Y-89976190D01*
X183561904Y-89823809D01*
X183523809Y-89747619D01*
X183485714Y-89709523D01*
X183409523Y-89671428D01*
X183219047Y-89671428D01*
X183142857Y-89709523D01*
X183104761Y-89747619D01*
X183066666Y-89823809D01*
X183066666Y-89976190D01*
X183104761Y-90052380D01*
X183142857Y-90090476D01*
X183219047Y-90128571D01*
X183561904Y-92558333D02*
X183180952Y-92825000D01*
X183561904Y-93015476D02*
X182761904Y-93015476D01*
X182761904Y-92710714D01*
X182800000Y-92634523D01*
X182838095Y-92596428D01*
X182914285Y-92558333D01*
X183028571Y-92558333D01*
X183104761Y-92596428D01*
X183142857Y-92634523D01*
X183180952Y-92710714D01*
X183180952Y-93015476D01*
X182761904Y-92291666D02*
X182761904Y-91796428D01*
X183066666Y-92063095D01*
X183066666Y-91948809D01*
X183104761Y-91872619D01*
X183142857Y-91834523D01*
X183219047Y-91796428D01*
X183409523Y-91796428D01*
X183485714Y-91834523D01*
X183523809Y-91872619D01*
X183561904Y-91948809D01*
X183561904Y-92177380D01*
X183523809Y-92253571D01*
X183485714Y-92291666D01*
X175223809Y-93438095D02*
X175147619Y-93400000D01*
X175071428Y-93323809D01*
X174957142Y-93209523D01*
X174880952Y-93171428D01*
X174804761Y-93171428D01*
X174842857Y-93361904D02*
X174766666Y-93323809D01*
X174690476Y-93247619D01*
X174652380Y-93095238D01*
X174652380Y-92828571D01*
X174690476Y-92676190D01*
X174766666Y-92600000D01*
X174842857Y-92561904D01*
X174995238Y-92561904D01*
X175071428Y-92600000D01*
X175147619Y-92676190D01*
X175185714Y-92828571D01*
X175185714Y-93095238D01*
X175147619Y-93247619D01*
X175071428Y-93323809D01*
X174995238Y-93361904D01*
X174842857Y-93361904D01*
X175947619Y-93361904D02*
X175490476Y-93361904D01*
X175719047Y-93361904D02*
X175719047Y-92561904D01*
X175642857Y-92676190D01*
X175566666Y-92752380D01*
X175490476Y-92790476D01*
X186216666Y-94061904D02*
X185950000Y-93680952D01*
X185759523Y-94061904D02*
X185759523Y-93261904D01*
X186064285Y-93261904D01*
X186140476Y-93300000D01*
X186178571Y-93338095D01*
X186216666Y-93414285D01*
X186216666Y-93528571D01*
X186178571Y-93604761D01*
X186140476Y-93642857D01*
X186064285Y-93680952D01*
X185759523Y-93680952D01*
X186521428Y-93338095D02*
X186559523Y-93300000D01*
X186635714Y-93261904D01*
X186826190Y-93261904D01*
X186902380Y-93300000D01*
X186940476Y-93338095D01*
X186978571Y-93414285D01*
X186978571Y-93490476D01*
X186940476Y-93604761D01*
X186483333Y-94061904D01*
X186978571Y-94061904D01*
X187511904Y-90440476D02*
X186711904Y-90440476D01*
X186711904Y-90250000D01*
X186750000Y-90135714D01*
X186826190Y-90059523D01*
X186902380Y-90021428D01*
X187054761Y-89983333D01*
X187169047Y-89983333D01*
X187321428Y-90021428D01*
X187397619Y-90059523D01*
X187473809Y-90135714D01*
X187511904Y-90250000D01*
X187511904Y-90440476D01*
X187511904Y-89221428D02*
X187511904Y-89678571D01*
X187511904Y-89450000D02*
X186711904Y-89450000D01*
X186826190Y-89526190D01*
X186902380Y-89602380D01*
X186940476Y-89678571D01*
X180922110Y-105721652D02*
X180215003Y-105014545D01*
X181595545Y-104913530D02*
X181595545Y-104980874D01*
X181528202Y-105115561D01*
X181460858Y-105182904D01*
X181326171Y-105250248D01*
X181191484Y-105250248D01*
X181090469Y-105216576D01*
X180922110Y-105115561D01*
X180821095Y-105014545D01*
X180720080Y-104846187D01*
X180686408Y-104745171D01*
X180686408Y-104610484D01*
X180753751Y-104475797D01*
X180821095Y-104408454D01*
X180955782Y-104341110D01*
X181023125Y-104341110D01*
X182336324Y-104307438D02*
X181932263Y-104711500D01*
X182134293Y-104509469D02*
X181427187Y-103802362D01*
X181460858Y-103970721D01*
X181460858Y-104105408D01*
X181427187Y-104206423D01*
X178435166Y-120419761D02*
X178578023Y-120467380D01*
X178816119Y-120467380D01*
X178911357Y-120419761D01*
X178958976Y-120372142D01*
X179006595Y-120276904D01*
X179006595Y-120181666D01*
X178958976Y-120086428D01*
X178911357Y-120038809D01*
X178816119Y-119991190D01*
X178625642Y-119943571D01*
X178530404Y-119895952D01*
X178482785Y-119848333D01*
X178435166Y-119753095D01*
X178435166Y-119657857D01*
X178482785Y-119562619D01*
X178530404Y-119515000D01*
X178625642Y-119467380D01*
X178863738Y-119467380D01*
X179006595Y-119515000D01*
X179339928Y-119467380D02*
X179578023Y-120467380D01*
X179768500Y-119753095D01*
X179958976Y-120467380D01*
X180197071Y-119467380D01*
X181101833Y-120467380D02*
X180530404Y-120467380D01*
X180816119Y-120467380D02*
X180816119Y-119467380D01*
X180720880Y-119610238D01*
X180625642Y-119705476D01*
X180530404Y-119753095D01*
X174257142Y-121921428D02*
X174057142Y-121635714D01*
X173914285Y-121921428D02*
X173914285Y-121321428D01*
X174142857Y-121321428D01*
X174200000Y-121350000D01*
X174228571Y-121378571D01*
X174257142Y-121435714D01*
X174257142Y-121521428D01*
X174228571Y-121578571D01*
X174200000Y-121607142D01*
X174142857Y-121635714D01*
X173914285Y-121635714D01*
X174742857Y-121892857D02*
X174685714Y-121921428D01*
X174571428Y-121921428D01*
X174514285Y-121892857D01*
X174485714Y-121835714D01*
X174485714Y-121607142D01*
X174514285Y-121550000D01*
X174571428Y-121521428D01*
X174685714Y-121521428D01*
X174742857Y-121550000D01*
X174771428Y-121607142D01*
X174771428Y-121664285D01*
X174485714Y-121721428D01*
X175000000Y-121892857D02*
X175057142Y-121921428D01*
X175171428Y-121921428D01*
X175228571Y-121892857D01*
X175257142Y-121835714D01*
X175257142Y-121807142D01*
X175228571Y-121750000D01*
X175171428Y-121721428D01*
X175085714Y-121721428D01*
X175028571Y-121692857D01*
X175000000Y-121635714D01*
X175000000Y-121607142D01*
X175028571Y-121550000D01*
X175085714Y-121521428D01*
X175171428Y-121521428D01*
X175228571Y-121550000D01*
X175742857Y-121892857D02*
X175685714Y-121921428D01*
X175571428Y-121921428D01*
X175514285Y-121892857D01*
X175485714Y-121835714D01*
X175485714Y-121607142D01*
X175514285Y-121550000D01*
X175571428Y-121521428D01*
X175685714Y-121521428D01*
X175742857Y-121550000D01*
X175771428Y-121607142D01*
X175771428Y-121664285D01*
X175485714Y-121721428D01*
X175942857Y-121521428D02*
X176171428Y-121521428D01*
X176028571Y-121321428D02*
X176028571Y-121835714D01*
X176057142Y-121892857D01*
X176114285Y-121921428D01*
X176171428Y-121921428D01*
X178498666Y-87653761D02*
X178641523Y-87701380D01*
X178879619Y-87701380D01*
X178974857Y-87653761D01*
X179022476Y-87606142D01*
X179070095Y-87510904D01*
X179070095Y-87415666D01*
X179022476Y-87320428D01*
X178974857Y-87272809D01*
X178879619Y-87225190D01*
X178689142Y-87177571D01*
X178593904Y-87129952D01*
X178546285Y-87082333D01*
X178498666Y-86987095D01*
X178498666Y-86891857D01*
X178546285Y-86796619D01*
X178593904Y-86749000D01*
X178689142Y-86701380D01*
X178927238Y-86701380D01*
X179070095Y-86749000D01*
X179403428Y-86701380D02*
X179641523Y-87701380D01*
X179832000Y-86987095D01*
X180022476Y-87701380D01*
X180260571Y-86701380D01*
X180593904Y-86796619D02*
X180641523Y-86749000D01*
X180736761Y-86701380D01*
X180974857Y-86701380D01*
X181070095Y-86749000D01*
X181117714Y-86796619D01*
X181165333Y-86891857D01*
X181165333Y-86987095D01*
X181117714Y-87129952D01*
X180546285Y-87701380D01*
X181165333Y-87701380D01*
X183457142Y-85939285D02*
X183428571Y-85967857D01*
X183342857Y-85996428D01*
X183285714Y-85996428D01*
X183200000Y-85967857D01*
X183142857Y-85910714D01*
X183114285Y-85853571D01*
X183085714Y-85739285D01*
X183085714Y-85653571D01*
X183114285Y-85539285D01*
X183142857Y-85482142D01*
X183200000Y-85425000D01*
X183285714Y-85396428D01*
X183342857Y-85396428D01*
X183428571Y-85425000D01*
X183457142Y-85453571D01*
X183800000Y-85996428D02*
X183742857Y-85967857D01*
X183714285Y-85939285D01*
X183685714Y-85882142D01*
X183685714Y-85710714D01*
X183714285Y-85653571D01*
X183742857Y-85625000D01*
X183800000Y-85596428D01*
X183885714Y-85596428D01*
X183942857Y-85625000D01*
X183971428Y-85653571D01*
X184000000Y-85710714D01*
X184000000Y-85882142D01*
X183971428Y-85939285D01*
X183942857Y-85967857D01*
X183885714Y-85996428D01*
X183800000Y-85996428D01*
X184257142Y-85596428D02*
X184257142Y-85996428D01*
X184257142Y-85653571D02*
X184285714Y-85625000D01*
X184342857Y-85596428D01*
X184428571Y-85596428D01*
X184485714Y-85625000D01*
X184514285Y-85682142D01*
X184514285Y-85996428D01*
X184714285Y-85596428D02*
X184942857Y-85596428D01*
X184800000Y-85996428D02*
X184800000Y-85482142D01*
X184828571Y-85425000D01*
X184885714Y-85396428D01*
X184942857Y-85396428D01*
X185142857Y-85996428D02*
X185142857Y-85596428D01*
X185142857Y-85396428D02*
X185114285Y-85425000D01*
X185142857Y-85453571D01*
X185171428Y-85425000D01*
X185142857Y-85396428D01*
X185142857Y-85453571D01*
X185685714Y-85596428D02*
X185685714Y-86082142D01*
X185657142Y-86139285D01*
X185628571Y-86167857D01*
X185571428Y-86196428D01*
X185485714Y-86196428D01*
X185428571Y-86167857D01*
X185685714Y-85967857D02*
X185628571Y-85996428D01*
X185514285Y-85996428D01*
X185457142Y-85967857D01*
X185428571Y-85939285D01*
X185400000Y-85882142D01*
X185400000Y-85710714D01*
X185428571Y-85653571D01*
X185457142Y-85625000D01*
X185514285Y-85596428D01*
X185628571Y-85596428D01*
X185685714Y-85625000D01*
X182680166Y-112315904D02*
X182413500Y-111934952D01*
X182223023Y-112315904D02*
X182223023Y-111515904D01*
X182527785Y-111515904D01*
X182603976Y-111554000D01*
X182642071Y-111592095D01*
X182680166Y-111668285D01*
X182680166Y-111782571D01*
X182642071Y-111858761D01*
X182603976Y-111896857D01*
X182527785Y-111934952D01*
X182223023Y-111934952D01*
X183442071Y-112315904D02*
X182984928Y-112315904D01*
X183213500Y-112315904D02*
X183213500Y-111515904D01*
X183137309Y-111630190D01*
X183061119Y-111706380D01*
X182984928Y-111744476D01*
X173433333Y-87314285D02*
X173433333Y-86933333D01*
X173661904Y-87390476D02*
X172861904Y-87123809D01*
X173661904Y-86857142D01*
X173661904Y-86590476D02*
X172861904Y-86590476D01*
X173661904Y-86133333D01*
X172861904Y-86133333D01*
X172861904Y-85866666D02*
X172861904Y-85409523D01*
X173661904Y-85638095D02*
X172861904Y-85638095D01*
X179466666Y-112312404D02*
X179200000Y-111931452D01*
X179009523Y-112312404D02*
X179009523Y-111512404D01*
X179314285Y-111512404D01*
X179390476Y-111550500D01*
X179428571Y-111588595D01*
X179466666Y-111664785D01*
X179466666Y-111779071D01*
X179428571Y-111855261D01*
X179390476Y-111893357D01*
X179314285Y-111931452D01*
X179009523Y-111931452D01*
X180152380Y-111779071D02*
X180152380Y-112312404D01*
X179961904Y-111474309D02*
X179771428Y-112045738D01*
X180266666Y-112045738D01*
X176472866Y-112321304D02*
X176206200Y-111940352D01*
X176015723Y-112321304D02*
X176015723Y-111521304D01*
X176320485Y-111521304D01*
X176396676Y-111559400D01*
X176434771Y-111597495D01*
X176472866Y-111673685D01*
X176472866Y-111787971D01*
X176434771Y-111864161D01*
X176396676Y-111902257D01*
X176320485Y-111940352D01*
X176015723Y-111940352D01*
X177196676Y-111521304D02*
X176815723Y-111521304D01*
X176777628Y-111902257D01*
X176815723Y-111864161D01*
X176891914Y-111826066D01*
X177082390Y-111826066D01*
X177158580Y-111864161D01*
X177196676Y-111902257D01*
X177234771Y-111978447D01*
X177234771Y-112168923D01*
X177196676Y-112245114D01*
X177158580Y-112283209D01*
X177082390Y-112321304D01*
X176891914Y-112321304D01*
X176815723Y-112283209D01*
X176777628Y-112245114D01*
M02*
