G04 #@! TF.GenerationSoftware,KiCad,Pcbnew,(5.1.2)-2*
G04 #@! TF.CreationDate,2019-11-25T20:14:04+01:00*
G04 #@! TF.ProjectId,HM-LC-SW1-BA-PCB_mini_MAX1724,484d2d4c-432d-4535-9731-2d42412d5043,rev?*
G04 #@! TF.SameCoordinates,Original*
G04 #@! TF.FileFunction,Soldermask,Bot*
G04 #@! TF.FilePolarity,Negative*
%FSLAX46Y46*%
G04 Gerber Fmt 4.6, Leading zero omitted, Abs format (unit mm)*
G04 Created by KiCad (PCBNEW (5.1.2)-2) date 2019-11-25 20:14:04*
%MOMM*%
%LPD*%
G04 APERTURE LIST*
%ADD10O,2.100000X2.100000*%
%ADD11C,0.150000*%
%ADD12C,2.400000*%
%ADD13C,1.550000*%
%ADD14C,0.500000*%
%ADD15R,1.600000X2.924000*%
%ADD16R,1.050000X1.620000*%
%ADD17R,3.400000X2.100000*%
%ADD18C,2.600000*%
%ADD19R,1.750000X1.750000*%
G04 APERTURE END LIST*
D10*
X171300000Y-118680000D03*
X171300000Y-116140000D03*
X171300000Y-113600000D03*
D11*
G36*
X184784366Y-119202219D02*
G01*
X184829098Y-119208854D01*
X184872963Y-119219842D01*
X184915541Y-119235076D01*
X184956420Y-119254411D01*
X184995207Y-119277659D01*
X185031528Y-119304597D01*
X185065035Y-119334965D01*
X185095403Y-119368472D01*
X185122341Y-119404793D01*
X185145589Y-119443580D01*
X185164924Y-119484459D01*
X185180158Y-119527037D01*
X185191146Y-119570902D01*
X185197781Y-119615634D01*
X185200000Y-119660800D01*
X185200000Y-121139200D01*
X185197781Y-121184366D01*
X185191146Y-121229098D01*
X185180158Y-121272963D01*
X185164924Y-121315541D01*
X185145589Y-121356420D01*
X185122341Y-121395207D01*
X185095403Y-121431528D01*
X185065035Y-121465035D01*
X185031528Y-121495403D01*
X184995207Y-121522341D01*
X184956420Y-121545589D01*
X184915541Y-121564924D01*
X184872963Y-121580158D01*
X184829098Y-121591146D01*
X184784366Y-121597781D01*
X184739200Y-121600000D01*
X181860800Y-121600000D01*
X181815634Y-121597781D01*
X181770902Y-121591146D01*
X181727037Y-121580158D01*
X181684459Y-121564924D01*
X181643580Y-121545589D01*
X181604793Y-121522341D01*
X181568472Y-121495403D01*
X181534965Y-121465035D01*
X181504597Y-121431528D01*
X181477659Y-121395207D01*
X181454411Y-121356420D01*
X181435076Y-121315541D01*
X181419842Y-121272963D01*
X181408854Y-121229098D01*
X181402219Y-121184366D01*
X181400000Y-121139200D01*
X181400000Y-119660800D01*
X181402219Y-119615634D01*
X181408854Y-119570902D01*
X181419842Y-119527037D01*
X181435076Y-119484459D01*
X181454411Y-119443580D01*
X181477659Y-119404793D01*
X181504597Y-119368472D01*
X181534965Y-119334965D01*
X181568472Y-119304597D01*
X181604793Y-119277659D01*
X181643580Y-119254411D01*
X181684459Y-119235076D01*
X181727037Y-119219842D01*
X181770902Y-119208854D01*
X181815634Y-119202219D01*
X181860800Y-119200000D01*
X184739200Y-119200000D01*
X184784366Y-119202219D01*
X184784366Y-119202219D01*
G37*
D12*
X183300000Y-120400000D03*
D11*
G36*
X184784366Y-114502219D02*
G01*
X184829098Y-114508854D01*
X184872963Y-114519842D01*
X184915541Y-114535076D01*
X184956420Y-114554411D01*
X184995207Y-114577659D01*
X185031528Y-114604597D01*
X185065035Y-114634965D01*
X185095403Y-114668472D01*
X185122341Y-114704793D01*
X185145589Y-114743580D01*
X185164924Y-114784459D01*
X185180158Y-114827037D01*
X185191146Y-114870902D01*
X185197781Y-114915634D01*
X185200000Y-114960800D01*
X185200000Y-116439200D01*
X185197781Y-116484366D01*
X185191146Y-116529098D01*
X185180158Y-116572963D01*
X185164924Y-116615541D01*
X185145589Y-116656420D01*
X185122341Y-116695207D01*
X185095403Y-116731528D01*
X185065035Y-116765035D01*
X185031528Y-116795403D01*
X184995207Y-116822341D01*
X184956420Y-116845589D01*
X184915541Y-116864924D01*
X184872963Y-116880158D01*
X184829098Y-116891146D01*
X184784366Y-116897781D01*
X184739200Y-116900000D01*
X181860800Y-116900000D01*
X181815634Y-116897781D01*
X181770902Y-116891146D01*
X181727037Y-116880158D01*
X181684459Y-116864924D01*
X181643580Y-116845589D01*
X181604793Y-116822341D01*
X181568472Y-116795403D01*
X181534965Y-116765035D01*
X181504597Y-116731528D01*
X181477659Y-116695207D01*
X181454411Y-116656420D01*
X181435076Y-116615541D01*
X181419842Y-116572963D01*
X181408854Y-116529098D01*
X181402219Y-116484366D01*
X181400000Y-116439200D01*
X181400000Y-114960800D01*
X181402219Y-114915634D01*
X181408854Y-114870902D01*
X181419842Y-114827037D01*
X181435076Y-114784459D01*
X181454411Y-114743580D01*
X181477659Y-114704793D01*
X181504597Y-114668472D01*
X181534965Y-114634965D01*
X181568472Y-114604597D01*
X181604793Y-114577659D01*
X181643580Y-114554411D01*
X181684459Y-114535076D01*
X181727037Y-114519842D01*
X181770902Y-114508854D01*
X181815634Y-114502219D01*
X181860800Y-114500000D01*
X184739200Y-114500000D01*
X184784366Y-114502219D01*
X184784366Y-114502219D01*
G37*
D12*
X183300000Y-115700000D03*
D11*
G36*
X177796071Y-121101623D02*
G01*
X177828781Y-121106475D01*
X177860857Y-121114509D01*
X177891991Y-121125649D01*
X177921884Y-121139787D01*
X177950247Y-121156787D01*
X177976807Y-121176485D01*
X178001308Y-121198692D01*
X178023515Y-121223193D01*
X178043213Y-121249753D01*
X178060213Y-121278116D01*
X178074351Y-121308009D01*
X178085491Y-121339143D01*
X178093525Y-121371219D01*
X178098377Y-121403929D01*
X178100000Y-121436956D01*
X178100000Y-122563044D01*
X178098377Y-122596071D01*
X178093525Y-122628781D01*
X178085491Y-122660857D01*
X178074351Y-122691991D01*
X178060213Y-122721884D01*
X178043213Y-122750247D01*
X178023515Y-122776807D01*
X178001308Y-122801308D01*
X177976807Y-122823515D01*
X177950247Y-122843213D01*
X177921884Y-122860213D01*
X177891991Y-122874351D01*
X177860857Y-122885491D01*
X177828781Y-122893525D01*
X177796071Y-122898377D01*
X177763044Y-122900000D01*
X176886956Y-122900000D01*
X176853929Y-122898377D01*
X176821219Y-122893525D01*
X176789143Y-122885491D01*
X176758009Y-122874351D01*
X176728116Y-122860213D01*
X176699753Y-122843213D01*
X176673193Y-122823515D01*
X176648692Y-122801308D01*
X176626485Y-122776807D01*
X176606787Y-122750247D01*
X176589787Y-122721884D01*
X176575649Y-122691991D01*
X176564509Y-122660857D01*
X176556475Y-122628781D01*
X176551623Y-122596071D01*
X176550000Y-122563044D01*
X176550000Y-121436956D01*
X176551623Y-121403929D01*
X176556475Y-121371219D01*
X176564509Y-121339143D01*
X176575649Y-121308009D01*
X176589787Y-121278116D01*
X176606787Y-121249753D01*
X176626485Y-121223193D01*
X176648692Y-121198692D01*
X176673193Y-121176485D01*
X176699753Y-121156787D01*
X176728116Y-121139787D01*
X176758009Y-121125649D01*
X176789143Y-121114509D01*
X176821219Y-121106475D01*
X176853929Y-121101623D01*
X176886956Y-121100000D01*
X177763044Y-121100000D01*
X177796071Y-121101623D01*
X177796071Y-121101623D01*
G37*
D13*
X177325000Y-122000000D03*
D11*
G36*
X179846071Y-121101623D02*
G01*
X179878781Y-121106475D01*
X179910857Y-121114509D01*
X179941991Y-121125649D01*
X179971884Y-121139787D01*
X180000247Y-121156787D01*
X180026807Y-121176485D01*
X180051308Y-121198692D01*
X180073515Y-121223193D01*
X180093213Y-121249753D01*
X180110213Y-121278116D01*
X180124351Y-121308009D01*
X180135491Y-121339143D01*
X180143525Y-121371219D01*
X180148377Y-121403929D01*
X180150000Y-121436956D01*
X180150000Y-122563044D01*
X180148377Y-122596071D01*
X180143525Y-122628781D01*
X180135491Y-122660857D01*
X180124351Y-122691991D01*
X180110213Y-122721884D01*
X180093213Y-122750247D01*
X180073515Y-122776807D01*
X180051308Y-122801308D01*
X180026807Y-122823515D01*
X180000247Y-122843213D01*
X179971884Y-122860213D01*
X179941991Y-122874351D01*
X179910857Y-122885491D01*
X179878781Y-122893525D01*
X179846071Y-122898377D01*
X179813044Y-122900000D01*
X178936956Y-122900000D01*
X178903929Y-122898377D01*
X178871219Y-122893525D01*
X178839143Y-122885491D01*
X178808009Y-122874351D01*
X178778116Y-122860213D01*
X178749753Y-122843213D01*
X178723193Y-122823515D01*
X178698692Y-122801308D01*
X178676485Y-122776807D01*
X178656787Y-122750247D01*
X178639787Y-122721884D01*
X178625649Y-122691991D01*
X178614509Y-122660857D01*
X178606475Y-122628781D01*
X178601623Y-122596071D01*
X178600000Y-122563044D01*
X178600000Y-121436956D01*
X178601623Y-121403929D01*
X178606475Y-121371219D01*
X178614509Y-121339143D01*
X178625649Y-121308009D01*
X178639787Y-121278116D01*
X178656787Y-121249753D01*
X178676485Y-121223193D01*
X178698692Y-121198692D01*
X178723193Y-121176485D01*
X178749753Y-121156787D01*
X178778116Y-121139787D01*
X178808009Y-121125649D01*
X178839143Y-121114509D01*
X178871219Y-121106475D01*
X178903929Y-121101623D01*
X178936956Y-121100000D01*
X179813044Y-121100000D01*
X179846071Y-121101623D01*
X179846071Y-121101623D01*
G37*
D13*
X179375000Y-122000000D03*
D11*
G36*
X179846071Y-114301623D02*
G01*
X179878781Y-114306475D01*
X179910857Y-114314509D01*
X179941991Y-114325649D01*
X179971884Y-114339787D01*
X180000247Y-114356787D01*
X180026807Y-114376485D01*
X180051308Y-114398692D01*
X180073515Y-114423193D01*
X180093213Y-114449753D01*
X180110213Y-114478116D01*
X180124351Y-114508009D01*
X180135491Y-114539143D01*
X180143525Y-114571219D01*
X180148377Y-114603929D01*
X180150000Y-114636956D01*
X180150000Y-115763044D01*
X180148377Y-115796071D01*
X180143525Y-115828781D01*
X180135491Y-115860857D01*
X180124351Y-115891991D01*
X180110213Y-115921884D01*
X180093213Y-115950247D01*
X180073515Y-115976807D01*
X180051308Y-116001308D01*
X180026807Y-116023515D01*
X180000247Y-116043213D01*
X179971884Y-116060213D01*
X179941991Y-116074351D01*
X179910857Y-116085491D01*
X179878781Y-116093525D01*
X179846071Y-116098377D01*
X179813044Y-116100000D01*
X178936956Y-116100000D01*
X178903929Y-116098377D01*
X178871219Y-116093525D01*
X178839143Y-116085491D01*
X178808009Y-116074351D01*
X178778116Y-116060213D01*
X178749753Y-116043213D01*
X178723193Y-116023515D01*
X178698692Y-116001308D01*
X178676485Y-115976807D01*
X178656787Y-115950247D01*
X178639787Y-115921884D01*
X178625649Y-115891991D01*
X178614509Y-115860857D01*
X178606475Y-115828781D01*
X178601623Y-115796071D01*
X178600000Y-115763044D01*
X178600000Y-114636956D01*
X178601623Y-114603929D01*
X178606475Y-114571219D01*
X178614509Y-114539143D01*
X178625649Y-114508009D01*
X178639787Y-114478116D01*
X178656787Y-114449753D01*
X178676485Y-114423193D01*
X178698692Y-114398692D01*
X178723193Y-114376485D01*
X178749753Y-114356787D01*
X178778116Y-114339787D01*
X178808009Y-114325649D01*
X178839143Y-114314509D01*
X178871219Y-114306475D01*
X178903929Y-114301623D01*
X178936956Y-114300000D01*
X179813044Y-114300000D01*
X179846071Y-114301623D01*
X179846071Y-114301623D01*
G37*
D13*
X179375000Y-115200000D03*
D11*
G36*
X177796071Y-114301623D02*
G01*
X177828781Y-114306475D01*
X177860857Y-114314509D01*
X177891991Y-114325649D01*
X177921884Y-114339787D01*
X177950247Y-114356787D01*
X177976807Y-114376485D01*
X178001308Y-114398692D01*
X178023515Y-114423193D01*
X178043213Y-114449753D01*
X178060213Y-114478116D01*
X178074351Y-114508009D01*
X178085491Y-114539143D01*
X178093525Y-114571219D01*
X178098377Y-114603929D01*
X178100000Y-114636956D01*
X178100000Y-115763044D01*
X178098377Y-115796071D01*
X178093525Y-115828781D01*
X178085491Y-115860857D01*
X178074351Y-115891991D01*
X178060213Y-115921884D01*
X178043213Y-115950247D01*
X178023515Y-115976807D01*
X178001308Y-116001308D01*
X177976807Y-116023515D01*
X177950247Y-116043213D01*
X177921884Y-116060213D01*
X177891991Y-116074351D01*
X177860857Y-116085491D01*
X177828781Y-116093525D01*
X177796071Y-116098377D01*
X177763044Y-116100000D01*
X176886956Y-116100000D01*
X176853929Y-116098377D01*
X176821219Y-116093525D01*
X176789143Y-116085491D01*
X176758009Y-116074351D01*
X176728116Y-116060213D01*
X176699753Y-116043213D01*
X176673193Y-116023515D01*
X176648692Y-116001308D01*
X176626485Y-115976807D01*
X176606787Y-115950247D01*
X176589787Y-115921884D01*
X176575649Y-115891991D01*
X176564509Y-115860857D01*
X176556475Y-115828781D01*
X176551623Y-115796071D01*
X176550000Y-115763044D01*
X176550000Y-114636956D01*
X176551623Y-114603929D01*
X176556475Y-114571219D01*
X176564509Y-114539143D01*
X176575649Y-114508009D01*
X176589787Y-114478116D01*
X176606787Y-114449753D01*
X176626485Y-114423193D01*
X176648692Y-114398692D01*
X176673193Y-114376485D01*
X176699753Y-114356787D01*
X176728116Y-114339787D01*
X176758009Y-114325649D01*
X176789143Y-114314509D01*
X176821219Y-114306475D01*
X176853929Y-114301623D01*
X176886956Y-114300000D01*
X177763044Y-114300000D01*
X177796071Y-114301623D01*
X177796071Y-114301623D01*
G37*
D13*
X177325000Y-115200000D03*
D11*
G36*
X187021071Y-109051623D02*
G01*
X187053781Y-109056475D01*
X187085857Y-109064509D01*
X187116991Y-109075649D01*
X187146884Y-109089787D01*
X187175247Y-109106787D01*
X187201807Y-109126485D01*
X187226308Y-109148692D01*
X187248515Y-109173193D01*
X187268213Y-109199753D01*
X187285213Y-109228116D01*
X187299351Y-109258009D01*
X187310491Y-109289143D01*
X187318525Y-109321219D01*
X187323377Y-109353929D01*
X187325000Y-109386956D01*
X187325000Y-110513044D01*
X187323377Y-110546071D01*
X187318525Y-110578781D01*
X187310491Y-110610857D01*
X187299351Y-110641991D01*
X187285213Y-110671884D01*
X187268213Y-110700247D01*
X187248515Y-110726807D01*
X187226308Y-110751308D01*
X187201807Y-110773515D01*
X187175247Y-110793213D01*
X187146884Y-110810213D01*
X187116991Y-110824351D01*
X187085857Y-110835491D01*
X187053781Y-110843525D01*
X187021071Y-110848377D01*
X186988044Y-110850000D01*
X186111956Y-110850000D01*
X186078929Y-110848377D01*
X186046219Y-110843525D01*
X186014143Y-110835491D01*
X185983009Y-110824351D01*
X185953116Y-110810213D01*
X185924753Y-110793213D01*
X185898193Y-110773515D01*
X185873692Y-110751308D01*
X185851485Y-110726807D01*
X185831787Y-110700247D01*
X185814787Y-110671884D01*
X185800649Y-110641991D01*
X185789509Y-110610857D01*
X185781475Y-110578781D01*
X185776623Y-110546071D01*
X185775000Y-110513044D01*
X185775000Y-109386956D01*
X185776623Y-109353929D01*
X185781475Y-109321219D01*
X185789509Y-109289143D01*
X185800649Y-109258009D01*
X185814787Y-109228116D01*
X185831787Y-109199753D01*
X185851485Y-109173193D01*
X185873692Y-109148692D01*
X185898193Y-109126485D01*
X185924753Y-109106787D01*
X185953116Y-109089787D01*
X185983009Y-109075649D01*
X186014143Y-109064509D01*
X186046219Y-109056475D01*
X186078929Y-109051623D01*
X186111956Y-109050000D01*
X186988044Y-109050000D01*
X187021071Y-109051623D01*
X187021071Y-109051623D01*
G37*
D13*
X186550000Y-109950000D03*
D11*
G36*
X189071071Y-109051623D02*
G01*
X189103781Y-109056475D01*
X189135857Y-109064509D01*
X189166991Y-109075649D01*
X189196884Y-109089787D01*
X189225247Y-109106787D01*
X189251807Y-109126485D01*
X189276308Y-109148692D01*
X189298515Y-109173193D01*
X189318213Y-109199753D01*
X189335213Y-109228116D01*
X189349351Y-109258009D01*
X189360491Y-109289143D01*
X189368525Y-109321219D01*
X189373377Y-109353929D01*
X189375000Y-109386956D01*
X189375000Y-110513044D01*
X189373377Y-110546071D01*
X189368525Y-110578781D01*
X189360491Y-110610857D01*
X189349351Y-110641991D01*
X189335213Y-110671884D01*
X189318213Y-110700247D01*
X189298515Y-110726807D01*
X189276308Y-110751308D01*
X189251807Y-110773515D01*
X189225247Y-110793213D01*
X189196884Y-110810213D01*
X189166991Y-110824351D01*
X189135857Y-110835491D01*
X189103781Y-110843525D01*
X189071071Y-110848377D01*
X189038044Y-110850000D01*
X188161956Y-110850000D01*
X188128929Y-110848377D01*
X188096219Y-110843525D01*
X188064143Y-110835491D01*
X188033009Y-110824351D01*
X188003116Y-110810213D01*
X187974753Y-110793213D01*
X187948193Y-110773515D01*
X187923692Y-110751308D01*
X187901485Y-110726807D01*
X187881787Y-110700247D01*
X187864787Y-110671884D01*
X187850649Y-110641991D01*
X187839509Y-110610857D01*
X187831475Y-110578781D01*
X187826623Y-110546071D01*
X187825000Y-110513044D01*
X187825000Y-109386956D01*
X187826623Y-109353929D01*
X187831475Y-109321219D01*
X187839509Y-109289143D01*
X187850649Y-109258009D01*
X187864787Y-109228116D01*
X187881787Y-109199753D01*
X187901485Y-109173193D01*
X187923692Y-109148692D01*
X187948193Y-109126485D01*
X187974753Y-109106787D01*
X188003116Y-109089787D01*
X188033009Y-109075649D01*
X188064143Y-109064509D01*
X188096219Y-109056475D01*
X188128929Y-109051623D01*
X188161956Y-109050000D01*
X189038044Y-109050000D01*
X189071071Y-109051623D01*
X189071071Y-109051623D01*
G37*
D13*
X188600000Y-109950000D03*
D14*
X183450000Y-112650000D03*
D11*
G36*
X183443888Y-113599398D02*
G01*
X183425466Y-113599398D01*
X183405860Y-113598435D01*
X183357029Y-113593625D01*
X183337620Y-113590746D01*
X183289495Y-113581174D01*
X183270452Y-113576404D01*
X183223497Y-113562160D01*
X183205020Y-113555549D01*
X183159687Y-113536772D01*
X183141939Y-113528377D01*
X183098666Y-113505246D01*
X183081838Y-113495160D01*
X183041039Y-113467900D01*
X183025270Y-113456205D01*
X182987341Y-113425077D01*
X182972800Y-113411897D01*
X182938103Y-113377200D01*
X182924923Y-113362659D01*
X182893795Y-113324730D01*
X182882100Y-113308961D01*
X182854840Y-113268162D01*
X182844754Y-113251334D01*
X182821623Y-113208061D01*
X182813228Y-113190313D01*
X182794451Y-113144980D01*
X182787840Y-113126503D01*
X182773596Y-113079548D01*
X182768826Y-113060505D01*
X182759254Y-113012380D01*
X182756375Y-112992971D01*
X182751565Y-112944140D01*
X182750602Y-112924534D01*
X182750602Y-112906112D01*
X182750000Y-112900000D01*
X182750000Y-112400000D01*
X182750602Y-112393888D01*
X182750602Y-112375466D01*
X182751565Y-112355860D01*
X182756375Y-112307029D01*
X182759254Y-112287620D01*
X182768826Y-112239495D01*
X182773596Y-112220452D01*
X182787840Y-112173497D01*
X182794451Y-112155020D01*
X182813228Y-112109687D01*
X182821623Y-112091939D01*
X182844754Y-112048666D01*
X182854840Y-112031838D01*
X182882100Y-111991039D01*
X182893795Y-111975270D01*
X182924923Y-111937341D01*
X182938103Y-111922800D01*
X182972800Y-111888103D01*
X182987341Y-111874923D01*
X183025270Y-111843795D01*
X183041039Y-111832100D01*
X183081838Y-111804840D01*
X183098666Y-111794754D01*
X183141939Y-111771623D01*
X183159687Y-111763228D01*
X183205020Y-111744451D01*
X183223497Y-111737840D01*
X183270452Y-111723596D01*
X183289495Y-111718826D01*
X183337620Y-111709254D01*
X183357029Y-111706375D01*
X183405860Y-111701565D01*
X183425466Y-111700602D01*
X183443888Y-111700602D01*
X183450000Y-111700000D01*
X183950000Y-111700000D01*
X183989018Y-111703843D01*
X184026537Y-111715224D01*
X184061114Y-111733706D01*
X184091421Y-111758579D01*
X184116294Y-111788886D01*
X184134776Y-111823463D01*
X184146157Y-111860982D01*
X184150000Y-111900000D01*
X184150000Y-113400000D01*
X184146157Y-113439018D01*
X184134776Y-113476537D01*
X184116294Y-113511114D01*
X184091421Y-113541421D01*
X184061114Y-113566294D01*
X184026537Y-113584776D01*
X183989018Y-113596157D01*
X183950000Y-113600000D01*
X183450000Y-113600000D01*
X183443888Y-113599398D01*
X183443888Y-113599398D01*
G37*
D14*
X184750000Y-112650000D03*
D11*
G36*
X184210982Y-113596157D02*
G01*
X184173463Y-113584776D01*
X184138886Y-113566294D01*
X184108579Y-113541421D01*
X184083706Y-113511114D01*
X184065224Y-113476537D01*
X184053843Y-113439018D01*
X184050000Y-113400000D01*
X184050000Y-111900000D01*
X184053843Y-111860982D01*
X184065224Y-111823463D01*
X184083706Y-111788886D01*
X184108579Y-111758579D01*
X184138886Y-111733706D01*
X184173463Y-111715224D01*
X184210982Y-111703843D01*
X184250000Y-111700000D01*
X184750000Y-111700000D01*
X184756112Y-111700602D01*
X184774534Y-111700602D01*
X184794140Y-111701565D01*
X184842971Y-111706375D01*
X184862380Y-111709254D01*
X184910505Y-111718826D01*
X184929548Y-111723596D01*
X184976503Y-111737840D01*
X184994980Y-111744451D01*
X185040313Y-111763228D01*
X185058061Y-111771623D01*
X185101334Y-111794754D01*
X185118162Y-111804840D01*
X185158961Y-111832100D01*
X185174730Y-111843795D01*
X185212659Y-111874923D01*
X185227200Y-111888103D01*
X185261897Y-111922800D01*
X185275077Y-111937341D01*
X185306205Y-111975270D01*
X185317900Y-111991039D01*
X185345160Y-112031838D01*
X185355246Y-112048666D01*
X185378377Y-112091939D01*
X185386772Y-112109687D01*
X185405549Y-112155020D01*
X185412160Y-112173497D01*
X185426404Y-112220452D01*
X185431174Y-112239495D01*
X185440746Y-112287620D01*
X185443625Y-112307029D01*
X185448435Y-112355860D01*
X185449398Y-112375466D01*
X185449398Y-112393888D01*
X185450000Y-112400000D01*
X185450000Y-112900000D01*
X185449398Y-112906112D01*
X185449398Y-112924534D01*
X185448435Y-112944140D01*
X185443625Y-112992971D01*
X185440746Y-113012380D01*
X185431174Y-113060505D01*
X185426404Y-113079548D01*
X185412160Y-113126503D01*
X185405549Y-113144980D01*
X185386772Y-113190313D01*
X185378377Y-113208061D01*
X185355246Y-113251334D01*
X185345160Y-113268162D01*
X185317900Y-113308961D01*
X185306205Y-113324730D01*
X185275077Y-113362659D01*
X185261897Y-113377200D01*
X185227200Y-113411897D01*
X185212659Y-113425077D01*
X185174730Y-113456205D01*
X185158961Y-113467900D01*
X185118162Y-113495160D01*
X185101334Y-113505246D01*
X185058061Y-113528377D01*
X185040313Y-113536772D01*
X184994980Y-113555549D01*
X184976503Y-113562160D01*
X184929548Y-113576404D01*
X184910505Y-113581174D01*
X184862380Y-113590746D01*
X184842971Y-113593625D01*
X184794140Y-113598435D01*
X184774534Y-113599398D01*
X184756112Y-113599398D01*
X184750000Y-113600000D01*
X184250000Y-113600000D01*
X184210982Y-113596157D01*
X184210982Y-113596157D01*
G37*
D10*
X188658500Y-118681500D03*
X188658500Y-116141500D03*
X188658500Y-113601500D03*
D15*
X188610000Y-107282000D03*
X186610000Y-107282000D03*
X184610000Y-107282000D03*
X182610000Y-107282000D03*
X180610000Y-107282000D03*
X178610000Y-107282000D03*
X176610000Y-107282000D03*
X174610000Y-107282000D03*
X180610000Y-88282000D03*
X182610000Y-88282000D03*
X178610000Y-88282000D03*
D16*
X179350000Y-117240000D03*
X177450000Y-117240000D03*
X177450000Y-119860000D03*
X178400000Y-119860000D03*
X179350000Y-119860000D03*
D17*
X171410500Y-99441000D03*
X171410500Y-94361000D03*
X171410500Y-89281000D03*
X171386500Y-96901000D03*
X171386500Y-91821000D03*
D18*
X188087000Y-86741000D03*
X171958000Y-123190000D03*
D19*
X171831000Y-86423500D03*
M02*
